<svg width="45" height="44" viewBox="0 0 45 44" fill="none" xmlns="http://www.w3.org/2000/svg">
<path d="M44.9262 21.639L35.9262 0.805713C35.8016 0.517334 35.5392 0.333252 35.2504 0.333252H9.75041C9.46169 0.333252 9.19917 0.517432 9.07462 0.805713L0.0747119 21.639C-0.0242529 21.8673 -0.0242529 22.1324 0.0747119 22.3607L9.07471 43.194C9.19925 43.4824 9.46169 43.6665 9.7505 43.6665H35.2505C35.5392 43.6665 35.8017 43.4823 35.9263 43.194L44.9263 22.3607C45.0252 22.1324 45.0252 21.8673 44.9262 21.639Z" fill="#FFEC00"/>
<path d="M14.8145 20.4102L16.4141 17.4688H18.4355L15.9512 21.6992L18.5 26H16.4551L14.8145 23.0117L13.1738 26H11.1289L13.6777 21.6992L11.1934 17.4688H13.2148L14.8145 20.4102ZM24.5059 17.4688H26.2695V26H24.5059V20.334L21.0898 26H19.332V17.4688H21.0898V23.1465L24.5059 17.4688ZM34.0391 18.8926H31.4258V26H29.668V18.8926H27.0898V17.4688H34.0391V18.8926Z" fill="black"/>
</svg>
