<svg width="45" height="44" viewBox="0 0 45 44" fill="none" xmlns="http://www.w3.org/2000/svg">
<path d="M44.9262 21.639L35.9262 0.805713C35.8016 0.517334 35.5392 0.333252 35.2504 0.333252H9.75041C9.46169 0.333252 9.19917 0.517432 9.07462 0.805713L0.0747119 21.639C-0.0242529 21.8673 -0.0242529 22.1324 0.0747119 22.3607L9.07471 43.194C9.19925 43.4824 9.46169 43.6665 9.7505 43.6665H35.2505C35.5392 43.6665 35.8017 43.4823 35.9263 43.194L44.9263 22.3607C45.0252 22.1324 45.0252 21.8673 44.9262 21.639Z" fill="black"/>
<path d="M17.6992 26H15.9414L12.5195 20.3867V26H10.7617V17.4688H12.5195L15.9473 23.0938V17.4688H17.6992V26ZM24.3672 22.3027H20.9922V24.5879H24.9531V26H19.2344V17.4688H24.9414V18.8926H20.9922V20.9258H24.3672V22.3027ZM32.6289 23.5391L33.7773 17.4688H35.5293L33.6367 26H31.8672L30.4785 20.293L29.0898 26H27.3203L25.4277 17.4688H27.1797L28.334 23.5273L29.7402 17.4688H31.2285L32.6289 23.5391Z" fill="white"/>
</svg>
