<svg width="448" height="448" viewBox="0 0 448 448" fill="none" xmlns="http://www.w3.org/2000/svg">
<path d="M417.75 141.5C417.75 147.75 415.25 154 410.75 158.5L195.75 373.5C191.25 378 185 380.5 178.75 380.5C172.5 380.5 166.25 378 161.75 373.5L37.25 249C32.75 244.5 30.25 238.25 30.25 232C30.25 225.75 32.75 219.5 37.25 215L71.25 181C75.75 176.5 82 174 88.25 174C94.5 174 100.75 176.5 105.25 181L178.75 254.75L342.75 90.5C347.25 86 353.5 83.5 359.75 83.5C366 83.5 372.25 86 376.75 90.5L410.75 124.5C415.25 129 417.75 135.25 417.75 141.5Z" fill="black"/>
</svg>
