<svg width="39" height="39" viewBox="0 0 39 39" fill="none" xmlns="http://www.w3.org/2000/svg">
<g clip-path="url(#clip0)">
<path d="M36.7158 20.9057L5.282 20.5418L10.4291 25.7839C11.0035 26.3689 10.9948 27.3087 10.4098 27.8831C9.82482 28.4575 8.88495 28.4487 8.31062 27.8638L0.644343 20.0558C0.643828 20.0553 0.643463 20.0548 0.643023 20.0544C0.0701827 19.4694 0.0792425 18.5265 0.667202 17.9531C0.667727 17.9526 0.668104 17.9521 0.668554 17.9517L8.51355 10.3232C9.10119 9.75184 10.041 9.76472 10.6126 10.3526C11.1842 10.9403 11.1711 11.88 10.5834 12.4516L5.31637 17.5732L36.7502 17.9371C37.57 17.9466 38.2268 18.6188 38.2173 19.4386C38.2078 20.2583 37.5356 20.9152 36.7158 20.9057Z" fill="#919191"/>
</g>
<defs>
<clipPath id="clip0">
<rect width="38" height="38" fill="white" transform="matrix(0.999933 0.0115765 0.0115765 -0.999933 0 37.9976)"/>
</clipPath>
</defs>
</svg>
