<svg width="64" height="64" viewBox="0 0 64 64" fill="none" xmlns="http://www.w3.org/2000/svg">
<g clip-path="url(#clip0)">
<path d="M58.4375 27.3487C59.1279 27.3487 59.6875 26.7891 59.6875 26.0987C59.6875 25.4084 59.1279 24.8487 58.4375 24.8487H53.7023V21.4456H58.4375C59.1279 21.4456 59.6875 20.886 59.6875 20.1956C59.6875 19.5053 59.1279 18.9456 58.4375 18.9456H53.7023V16.9005C53.7023 16.5691 53.5707 16.2514 53.3365 16.017L49.7219 12.3994C49.4875 12.1648 49.1694 12.0329 48.8376 12.0329H46.792V7.30188C46.792 6.6115 46.2324 6.05188 45.542 6.05188C44.8516 6.05188 44.292 6.6115 44.292 7.30188V12.0329H40.8882V7.30188C40.8882 6.6115 40.3286 6.05188 39.6382 6.05188C38.9479 6.05188 38.3882 6.6115 38.3882 7.30188V12.0329H34.988V7.55337C34.988 3.38837 31.5993 0 27.4338 0C24.0257 0 21.0639 2.3035 20.1605 5.50362C17.5627 5.76762 15.1559 6.91613 13.2985 8.7965C11.201 10.9202 10.0459 13.7341 10.0459 16.7197C10.0459 18.2014 10.3384 19.6689 10.8993 21.0292C9.14463 21.9616 7.63913 23.3025 6.49788 24.9596C5.06825 27.0356 4.3125 29.4695 4.3125 31.9982C4.3125 36.6534 6.85775 40.8288 10.8986 42.9707C10.3384 44.3286 10.0461 45.7949 10.0461 47.2767C10.0461 50.2624 11.2013 53.0763 13.2987 55.2C15.156 57.0804 17.5629 58.2289 20.1606 58.4929C21.0639 61.6951 24.026 64 27.434 64C31.5994 64 34.9883 60.6116 34.9883 56.4466V51.9636H38.3885V56.6981C38.3885 57.3885 38.9481 57.9481 39.6385 57.9481C40.3289 57.9481 40.8885 57.3885 40.8885 56.6981V51.9636H44.2923V56.6981C44.2923 57.3885 44.8519 57.9481 45.5423 57.9481C46.2326 57.9481 46.7923 57.3885 46.7923 56.6981V51.9636H48.8379C49.1694 51.9636 49.4872 51.832 49.7217 51.5975L53.3364 47.9834C53.5708 47.749 53.7025 47.431 53.7025 47.0995V45.0508H58.4375C59.1279 45.0508 59.6875 44.4911 59.6875 43.8008C59.6875 43.1104 59.1279 42.5508 58.4375 42.5508H53.7023V39.1512H58.4375C59.1279 39.1512 59.6875 38.5916 59.6875 37.9012C59.6875 37.2109 59.1279 36.6512 58.4375 36.6512H53.7023V33.2482H58.4375C59.1279 33.2482 59.6875 32.6886 59.6875 31.9982C59.6875 31.3079 59.1279 30.7482 58.4375 30.7482H53.7023V27.3487H58.4375ZM27.434 61.5C25.3604 61.5 23.5347 60.2249 22.7661 58.3835C23.6779 58.2202 24.5669 57.9429 25.4217 57.5506C26.6641 56.9803 27.7752 56.1996 28.7241 55.2304C29.207 54.737 29.1986 53.9456 28.7054 53.4626C28.212 52.9797 27.4208 52.9881 26.9376 53.4814C26.2033 54.2314 25.3424 54.836 24.379 55.2783C23.361 55.7453 22.282 56.0041 21.1716 56.0491C16.4126 55.9706 12.5461 52.0421 12.5461 47.2764C12.5461 45.7705 12.933 44.2867 13.6649 42.9852C13.8414 42.6716 13.874 42.2971 13.7545 41.9577C13.6351 41.6182 13.3751 41.3467 13.0413 41.2126C9.2575 39.693 6.8125 36.076 6.8125 31.9982C6.8125 27.9194 9.25712 24.3039 13.0405 22.7875C13.7837 22.3856 13.9921 21.7949 13.6656 21.0156C12.9332 19.7104 12.5461 18.2249 12.5461 16.7199C12.5461 11.9541 16.4126 8.02563 21.1716 7.94712C22.275 7.992 23.3549 8.25112 24.3787 8.71787C25.3439 9.16087 26.2041 9.766 26.9357 10.5165C27.1807 10.7678 27.5057 10.894 27.831 10.894C28.1455 10.894 28.4604 10.776 28.7034 10.5391C29.1978 10.0573 29.2078 9.26575 28.7259 8.7715C27.7789 7.80012 26.6671 7.01762 25.4186 6.4445C24.5611 6.05363 23.6734 5.77688 22.766 5.61375C23.5346 3.77387 25.3603 2.5 27.434 2.5C30.2209 2.5 32.4883 4.767 32.4883 7.55337V22.8787H28.5968L25.2804 19.5627C25.6334 18.9184 25.8216 18.1924 25.8216 17.4373C25.8216 16.2528 25.3604 15.1391 24.5225 14.3015C22.7935 12.5728 19.98 12.5726 18.2509 14.3015C17.4132 15.1391 16.9519 16.2527 16.9519 17.4371C16.9519 18.6215 17.4131 19.7351 18.2509 20.5728C19.1154 21.4371 20.251 21.8694 21.3866 21.8694C22.1191 21.8694 22.8511 21.6884 23.511 21.3288L27.195 25.0124C27.4616 25.251 27.7563 25.3731 28.0789 25.3785H32.4881V30.748H24.6548C24.1133 28.9112 22.4113 27.5661 20.3999 27.5661C17.9559 27.5661 15.9676 29.5542 15.9676 31.998C15.9676 34.4436 17.9559 36.4334 20.3999 36.4334C22.4116 36.4334 24.1139 35.0868 24.655 33.248H32.4881V38.6175H28.0789C28.0454 38.6175 28.0166 38.6193 27.9901 38.6217C27.7004 38.6423 27.4163 38.7622 27.1946 38.9839L23.5105 42.6705C21.828 41.7536 19.6727 42.005 18.2507 43.4268C17.4122 44.2653 16.951 45.3797 16.9517 46.5651C16.9525 47.7487 17.4144 48.8606 18.2507 49.6946C19.1155 50.5592 20.2512 50.9914 21.387 50.9914C22.5222 50.9914 23.6575 50.5594 24.5211 49.6959C25.3588 48.8606 25.8206 47.7489 25.8214 46.5653C25.8219 45.809 25.6335 45.082 25.2799 44.4367L28.5968 41.1176H32.4879V56.4465C32.4881 59.233 30.2209 61.5 27.434 61.5ZM23.3216 17.4374C23.3216 17.954 23.1204 18.4397 22.755 18.8051C22.0005 19.5595 20.7731 19.5595 20.0186 18.8051C19.6533 18.4397 19.452 17.954 19.452 17.4374C19.452 16.9207 19.6533 16.4349 20.0186 16.0696C20.7731 15.3154 22.0006 15.3154 22.755 16.0696C23.1204 16.4349 23.3216 16.9206 23.3216 17.4374ZM22.3356 31.9982C22.3356 33.0654 21.4673 33.9336 20.3999 33.9336C19.3345 33.9336 18.4676 33.0654 18.4676 31.9982C18.4676 30.9331 19.3345 30.0664 20.3999 30.0664C21.4673 30.0664 22.3356 30.933 22.3356 31.9982ZM23.3216 46.5636C23.3212 47.0788 23.1205 47.5625 22.755 47.9269C22.0005 48.6811 20.773 48.6813 20.0174 47.9256C19.6531 47.5625 19.4522 47.0788 19.452 46.5636C19.4516 46.0467 19.6529 45.5606 20.0186 45.1949C20.773 44.4408 22.0005 44.4406 22.7547 45.1948C22.7549 45.1949 22.755 45.195 22.7551 45.1953L22.7553 45.1954C23.1209 45.5611 23.322 46.047 23.3216 46.5636ZM51.2023 46.5816L48.32 49.4636H34.9881V45.7594H46.2472C46.9376 45.7594 47.4972 45.1998 47.4972 44.5094V37.6071C47.4972 36.9167 46.9376 36.3571 46.2472 36.3571C45.5569 36.3571 44.9972 36.9167 44.9972 37.6071V43.2594H34.9881V20.7406H44.9972V26.3786C44.9972 27.069 45.5569 27.6286 46.2472 27.6286C46.9376 27.6286 47.4972 27.069 47.4972 26.3786V19.4906C47.4972 18.8003 46.9376 18.2406 46.2472 18.2406H34.9881V14.5329H48.3196L51.2023 17.418V46.5816Z" fill="url(#paint0_linear)"/>
<path d="M46.248 30.7446C45.5577 30.7446 44.998 31.3043 44.998 31.9946V31.9981C44.998 32.6885 45.5577 33.2464 46.248 33.2464C46.9384 33.2464 47.498 32.685 47.498 31.9946C47.498 31.3043 46.9383 30.7446 46.248 30.7446Z" fill="url(#paint1_linear)"/>
</g>
<defs>
<linearGradient id="paint0_linear" x1="32" y1="0" x2="32" y2="64" gradientUnits="userSpaceOnUse">
<stop stop-color="#219CF9"/>
<stop offset="1" stop-color="#4E50EA"/>
</linearGradient>
<linearGradient id="paint1_linear" x1="46.248" y1="30.7446" x2="46.248" y2="33.2464" gradientUnits="userSpaceOnUse">
<stop stop-color="#219CF9"/>
<stop offset="1" stop-color="#4E50EA"/>
</linearGradient>
<clipPath id="clip0">
<rect width="64" height="64" fill="white"/>
</clipPath>
</defs>
</svg>
