<svg width="233" height="240" viewBox="0 0 233 240" fill="none" xmlns="http://www.w3.org/2000/svg">
<g filter="url(#filter0_d)">
<rect x="25" y="21" width="183" height="190" fill="#2A2B2F"/>
</g>
<path d="M62.124 130.8V156H56.292V135.48H51.252V130.8H62.124ZM77.3017 156.432C75.2137 156.432 73.3537 155.916 71.7217 154.884C70.0897 153.852 68.8057 152.364 67.8697 150.42C66.9577 148.452 66.5017 146.112 66.5017 143.4C66.5017 140.688 66.9577 138.36 67.8697 136.416C68.8057 134.448 70.0897 132.948 71.7217 131.916C73.3537 130.884 75.2137 130.368 77.3017 130.368C79.3897 130.368 81.2497 130.884 82.8817 131.916C84.5137 132.948 85.7857 134.448 86.6977 136.416C87.6337 138.36 88.1017 140.688 88.1017 143.4C88.1017 146.112 87.6337 148.452 86.6977 150.42C85.7857 152.364 84.5137 153.852 82.8817 154.884C81.2497 155.916 79.3897 156.432 77.3017 156.432ZM77.3017 151.5C78.8377 151.5 80.0377 150.84 80.9017 149.52C81.7897 148.2 82.2337 146.16 82.2337 143.4C82.2337 140.64 81.7897 138.6 80.9017 137.28C80.0377 135.96 78.8377 135.3 77.3017 135.3C75.7897 135.3 74.5897 135.96 73.7017 137.28C72.8377 138.6 72.4057 140.64 72.4057 143.4C72.4057 146.16 72.8377 148.2 73.7017 149.52C74.5897 150.84 75.7897 151.5 77.3017 151.5ZM111.931 156.432C109.843 156.432 107.983 155.916 106.351 154.884C104.719 153.852 103.435 152.364 102.499 150.42C101.587 148.452 101.131 146.112 101.131 143.4C101.131 140.688 101.587 138.36 102.499 136.416C103.435 134.448 104.719 132.948 106.351 131.916C107.983 130.884 109.843 130.368 111.931 130.368C114.019 130.368 115.879 130.884 117.511 131.916C119.143 132.948 120.415 134.448 121.327 136.416C122.263 138.36 122.731 140.688 122.731 143.4C122.731 146.112 122.263 148.452 121.327 150.42C120.415 152.364 119.143 153.852 117.511 154.884C115.879 155.916 114.019 156.432 111.931 156.432ZM111.931 151.5C113.467 151.5 114.667 150.84 115.531 149.52C116.419 148.2 116.863 146.16 116.863 143.4C116.863 140.64 116.419 138.6 115.531 137.28C114.667 135.96 113.467 135.3 111.931 135.3C110.419 135.3 109.219 135.96 108.331 137.28C107.467 138.6 107.035 140.64 107.035 143.4C107.035 146.16 107.467 148.2 108.331 149.52C109.219 150.84 110.419 151.5 111.931 151.5ZM136.364 156.432C134.276 156.432 132.416 155.916 130.784 154.884C129.152 153.852 127.868 152.364 126.932 150.42C126.02 148.452 125.564 146.112 125.564 143.4C125.564 140.688 126.02 138.36 126.932 136.416C127.868 134.448 129.152 132.948 130.784 131.916C132.416 130.884 134.276 130.368 136.364 130.368C138.452 130.368 140.312 130.884 141.944 131.916C143.576 132.948 144.848 134.448 145.76 136.416C146.696 138.36 147.164 140.688 147.164 143.4C147.164 146.112 146.696 148.452 145.76 150.42C144.848 152.364 143.576 153.852 141.944 154.884C140.312 155.916 138.452 156.432 136.364 156.432ZM136.364 151.5C137.9 151.5 139.1 150.84 139.964 149.52C140.852 148.2 141.296 146.16 141.296 143.4C141.296 140.64 140.852 138.6 139.964 137.28C139.1 135.96 137.9 135.3 136.364 135.3C134.852 135.3 133.652 135.96 132.764 137.28C131.9 138.6 131.468 140.64 131.468 143.4C131.468 146.16 131.9 148.2 132.764 149.52C133.652 150.84 134.852 151.5 136.364 151.5ZM160.798 156.432C158.71 156.432 156.85 155.916 155.218 154.884C153.586 153.852 152.302 152.364 151.366 150.42C150.454 148.452 149.998 146.112 149.998 143.4C149.998 140.688 150.454 138.36 151.366 136.416C152.302 134.448 153.586 132.948 155.218 131.916C156.85 130.884 158.71 130.368 160.798 130.368C162.886 130.368 164.746 130.884 166.378 131.916C168.01 132.948 169.282 134.448 170.194 136.416C171.13 138.36 171.598 140.688 171.598 143.4C171.598 146.112 171.13 148.452 170.194 150.42C169.282 152.364 168.01 153.852 166.378 154.884C164.746 155.916 162.886 156.432 160.798 156.432ZM160.798 151.5C162.334 151.5 163.534 150.84 164.398 149.52C165.286 148.2 165.73 146.16 165.73 143.4C165.73 140.64 165.286 138.6 164.398 137.28C163.534 135.96 162.334 135.3 160.798 135.3C159.286 135.3 158.086 135.96 157.198 137.28C156.334 138.6 155.902 140.64 155.902 143.4C155.902 146.16 156.334 148.2 157.198 149.52C158.086 150.84 159.286 151.5 160.798 151.5Z" fill="white"/>
<g clip-path="url(#clip0)">
<path d="M108.091 54.7646L103.742 53.6779V51.8619C105.006 50.7273 105.806 49.0872 105.806 47.2581V45.1935C105.806 41.7777 103.029 39 99.6129 39C96.1971 39 93.4194 41.7777 93.4194 45.1935V47.2581C93.4194 49.0862 94.2203 50.7263 95.4839 51.8619V53.6779L91.1351 54.7656C88.8332 55.3407 87.2258 57.3992 87.2258 59.7722V76.1613H80V88.5484H91.3548V103H107.871V59.6452H105.806V71H93.4194V59.6452H91.3548V76.1613H89.2903V59.7722C89.2903 58.3488 90.2555 57.1129 91.6356 56.7671L96.1991 55.6275L97.5 56.9284L96.4677 66.2188L99.6129 69.3629L102.758 66.2177L101.726 56.9274L103.027 55.6265L107.59 56.7661C108.97 57.1129 109.935 58.3488 109.935 59.7722V77.1935H112V59.7722C112 57.3992 110.393 55.3407 108.091 54.7646ZM92.6326 78.2258L89.4224 80.9012C88.7712 81.4435 87.746 81.4446 87.0948 80.9002L83.8846 78.2258H92.6326ZM82.0645 79.3972L85.7712 82.4859C86.4682 83.067 87.3508 83.3871 88.2581 83.3871C89.1653 83.3871 90.0479 83.067 90.744 82.4869L94.4516 79.3972V86.4839H82.0645V79.3972ZM93.4194 73.0645H105.806V100.935H100.645V77.1935H98.5806V100.935H93.4194V88.5484H96.5161V76.1613H93.4194V73.0645ZM95.4839 45.1935C95.4839 42.9163 97.3357 41.0645 99.6129 41.0645C101.89 41.0645 103.742 42.9163 103.742 45.1935V47.2581C103.742 49.5353 101.89 51.3871 99.6129 51.3871C97.3357 51.3871 95.4839 49.5353 95.4839 47.2581V45.1935ZM99.6129 53.4516C100.338 53.4516 101.03 53.3196 101.677 53.0902V54.0565L99.6129 56.121L97.5484 54.0565V53.0902C98.1956 53.3196 98.8881 53.4516 99.6129 53.4516ZM99.6129 66.4435L98.629 65.4597L99.6129 56.6063L100.597 65.4597L99.6129 66.4435Z" fill="url(#paint0_linear)"/>
<path d="M140.091 54.7646L135.743 53.6779V51.8619C137.006 50.7273 137.807 49.0872 137.807 47.2581V45.1935C137.807 41.7777 135.029 39 131.614 39C128.198 39 125.42 41.7777 125.42 45.1935V47.2581C125.42 49.0862 126.221 50.7263 127.485 51.8619V53.6779L123.136 54.7656C120.834 55.3407 119.227 57.3992 119.227 59.7722V77.1936H121.291V59.7722C121.291 58.3488 122.256 57.1129 123.636 56.7671L129.549 55.2898V53.0902C130.196 53.3206 130.889 53.4516 131.614 53.4516C132.338 53.4516 133.031 53.3196 133.678 53.0902V55.2898L139.591 56.7671C140.971 57.1129 141.936 58.3488 141.936 59.7722V77.1936H144.001V59.7722C144.001 57.3992 142.393 55.3407 140.091 54.7646ZM127.485 47.2581V45.1935C127.485 42.9163 129.336 41.0645 131.614 41.0645C133.891 41.0645 135.743 42.9163 135.743 45.1935V47.2581C135.743 49.5353 133.891 51.3871 131.614 51.3871C129.336 51.3871 127.485 49.5353 127.485 47.2581Z" fill="url(#paint1_linear)"/>
<path d="M137.807 71.0003H125.42V59.6455H123.355V103H139.872V59.6455H137.807V71.0003ZM132.646 100.936V77.1939H130.581V100.936H125.42V73.0649H137.807V100.936H132.646Z" fill="url(#paint2_linear)"/>
<path d="M110.967 49.3226H119.379L123.354 52.503V41.0645C123.354 39.9259 122.428 39 121.289 39H110.967C109.828 39 108.902 39.9259 108.902 41.0645V47.2581C108.902 48.3967 109.828 49.3226 110.967 49.3226ZM110.967 41.0645H121.289V48.2067L120.103 47.2581H110.967V41.0645Z" fill="url(#paint3_linear)"/>
<path d="M113.031 43.1289H115.096V45.1934H113.031V43.1289Z" fill="url(#paint4_linear)"/>
<path d="M117.162 43.1289H119.227V45.1934H117.162V43.1289Z" fill="url(#paint5_linear)"/>
</g>
<path d="M46.326 183.152V187.03H44.226V185H37.31V187.03H35.21L35.224 183.152H35.616C36.204 183.133 36.6193 182.704 36.862 181.864C37.1047 181.024 37.254 179.825 37.31 178.266L37.422 175.2H44.954V183.152H46.326ZM39.312 178.476C39.2653 179.643 39.1673 180.623 39.018 181.416C38.8687 182.2 38.64 182.779 38.332 183.152H42.714V177.048H39.354L39.312 178.476ZM51.1171 185.112C50.3237 185.112 49.6097 184.949 48.9751 184.622C48.3497 184.286 47.8597 183.824 47.5051 183.236C47.1504 182.648 46.9731 181.981 46.9731 181.234C46.9731 180.487 47.1504 179.82 47.5051 179.232C47.8597 178.644 48.3497 178.187 48.9751 177.86C49.6097 177.524 50.3237 177.356 51.1171 177.356C51.9104 177.356 52.6197 177.524 53.2451 177.86C53.8704 178.187 54.3604 178.644 54.7151 179.232C55.0697 179.82 55.2471 180.487 55.2471 181.234C55.2471 181.981 55.0697 182.648 54.7151 183.236C54.3604 183.824 53.8704 184.286 53.2451 184.622C52.6197 184.949 51.9104 185.112 51.1171 185.112ZM51.1171 183.32C51.6771 183.32 52.1344 183.133 52.4891 182.76C52.8531 182.377 53.0351 181.869 53.0351 181.234C53.0351 180.599 52.8531 180.095 52.4891 179.722C52.1344 179.339 51.6771 179.148 51.1171 179.148C50.5571 179.148 50.0951 179.339 49.7311 179.722C49.3671 180.095 49.1851 180.599 49.1851 181.234C49.1851 181.869 49.3671 182.377 49.7311 182.76C50.0951 183.133 50.5571 183.32 51.1171 183.32ZM62.5032 181.066C63.3899 181.365 63.8332 181.962 63.8332 182.858C63.8332 183.539 63.5766 184.067 63.0632 184.44C62.5499 184.813 61.7846 185 60.7672 185H56.7492V177.468H60.5992C61.5419 177.468 62.2792 177.641 62.8112 177.986C63.3432 178.322 63.6092 178.798 63.6092 179.414C63.6092 179.787 63.5112 180.119 63.3152 180.408C63.1286 180.688 62.8579 180.907 62.5032 181.066ZM58.7512 180.562H60.4032C61.1686 180.562 61.5512 180.291 61.5512 179.75C61.5512 179.218 61.1686 178.952 60.4032 178.952H58.7512V180.562ZM60.5852 183.516C61.3879 183.516 61.7892 183.241 61.7892 182.69C61.7892 182.401 61.6959 182.191 61.5092 182.06C61.3226 181.92 61.0286 181.85 60.6272 181.85H58.7512V183.516H60.5852ZM68.9862 185.112C68.1929 185.112 67.4789 184.949 66.8442 184.622C66.2189 184.286 65.7289 183.824 65.3742 183.236C65.0195 182.648 64.8422 181.981 64.8422 181.234C64.8422 180.487 65.0195 179.82 65.3742 179.232C65.7289 178.644 66.2189 178.187 66.8442 177.86C67.4789 177.524 68.1929 177.356 68.9862 177.356C69.7795 177.356 70.4889 177.524 71.1142 177.86C71.7395 178.187 72.2295 178.644 72.5842 179.232C72.9389 179.82 73.1162 180.487 73.1162 181.234C73.1162 181.981 72.9389 182.648 72.5842 183.236C72.2295 183.824 71.7395 184.286 71.1142 184.622C70.4889 184.949 69.7795 185.112 68.9862 185.112ZM68.9862 183.32C69.5462 183.32 70.0035 183.133 70.3582 182.76C70.7222 182.377 70.9042 181.869 70.9042 181.234C70.9042 180.599 70.7222 180.095 70.3582 179.722C70.0035 179.339 69.5462 179.148 68.9862 179.148C68.4262 179.148 67.9642 179.339 67.6002 179.722C67.2362 180.095 67.0542 180.599 67.0542 181.234C67.0542 181.869 67.2362 182.377 67.6002 182.76C67.9642 183.133 68.4262 183.32 68.9862 183.32ZM81.733 177.468V185H79.549V179.26H77.169L77.099 180.59C77.0617 181.579 76.9683 182.401 76.819 183.054C76.6697 183.707 76.427 184.221 76.091 184.594C75.755 184.967 75.2883 185.154 74.691 185.154C74.3737 185.154 73.9957 185.098 73.557 184.986L73.669 183.194C73.8183 183.213 73.9257 183.222 73.991 183.222C74.3177 183.222 74.5603 183.105 74.719 182.872C74.887 182.629 74.999 182.326 75.055 181.962C75.111 181.589 75.153 181.099 75.181 180.492L75.293 177.468H81.733ZM87.9072 179.876C88.8872 179.885 89.6385 180.109 90.1612 180.548C90.6839 180.977 90.9452 181.589 90.9452 182.382C90.9452 183.213 90.6512 183.861 90.0632 184.328C89.4845 184.785 88.6679 185.014 87.6132 185.014L83.8332 185V177.468H86.0032V179.876H87.9072ZM87.4172 183.46C87.8372 183.469 88.1592 183.381 88.3832 183.194C88.6072 183.007 88.7192 182.727 88.7192 182.354C88.7192 181.99 88.6072 181.724 88.3832 181.556C88.1685 181.388 87.8465 181.299 87.4172 181.29L86.0032 181.276V183.46H87.4172ZM92.3098 177.468H94.4798V180.408H97.7558V177.468H99.9398V185H97.7558V182.186H94.4798V185H92.3098V177.468ZM105.992 179.876C106.972 179.885 107.714 180.105 108.218 180.534C108.722 180.963 108.974 181.579 108.974 182.382C108.974 183.222 108.69 183.871 108.12 184.328C107.551 184.785 106.744 185.014 105.698 185.014L102.03 185V177.468H104.2V179.876H105.992ZM109.786 177.468H111.956V185H109.786V177.468ZM105.502 183.46C105.922 183.469 106.244 183.381 106.468 183.194C106.692 183.007 106.804 182.727 106.804 182.354C106.804 181.99 106.692 181.724 106.468 181.556C106.254 181.388 105.932 181.299 105.502 181.29L104.2 181.276V183.46H105.502ZM118.794 185L117.142 182.69L115.434 185H113.054L115.952 181.206L113.152 177.468H115.602L117.198 179.666L118.836 177.468H121.16L118.36 181.15L121.272 185H118.794ZM129.63 182.144H128.496V185H126.312V177.468H128.496V180.394H129.672L131.716 177.468H134.04L131.408 181.08L134.222 185H131.646L129.63 182.144ZM142.518 177.468V185H140.334V179.26H137.954L137.884 180.59C137.847 181.579 137.753 182.401 137.604 183.054C137.455 183.707 137.212 184.221 136.876 184.594C136.54 184.967 136.073 185.154 135.476 185.154C135.159 185.154 134.781 185.098 134.342 184.986L134.454 183.194C134.603 183.213 134.711 183.222 134.776 183.222C135.103 183.222 135.345 183.105 135.504 182.872C135.672 182.629 135.784 182.326 135.84 181.962C135.896 181.589 135.938 181.099 135.966 180.492L136.078 177.468H142.518ZM144.618 177.468H146.788V181.948L150.456 177.468H152.458V185H150.288V180.52L146.634 185H144.618V177.468ZM161.88 181.262C161.88 181.29 161.866 181.486 161.838 181.85H156.14C156.242 182.317 156.485 182.685 156.868 182.956C157.25 183.227 157.726 183.362 158.296 183.362C158.688 183.362 159.033 183.306 159.332 183.194C159.64 183.073 159.924 182.886 160.186 182.634L161.348 183.894C160.638 184.706 159.602 185.112 158.24 185.112C157.39 185.112 156.639 184.949 155.986 184.622C155.332 184.286 154.828 183.824 154.474 183.236C154.119 182.648 153.942 181.981 153.942 181.234C153.942 180.497 154.114 179.834 154.46 179.246C154.814 178.649 155.295 178.187 155.902 177.86C156.518 177.524 157.204 177.356 157.96 177.356C158.697 177.356 159.364 177.515 159.962 177.832C160.559 178.149 161.026 178.607 161.362 179.204C161.707 179.792 161.88 180.478 161.88 181.262ZM157.974 179.008C157.479 179.008 157.064 179.148 156.728 179.428C156.392 179.708 156.186 180.091 156.112 180.576H159.822C159.747 180.1 159.542 179.722 159.206 179.442C158.87 179.153 158.459 179.008 157.974 179.008ZM163.554 177.468H165.724V180.408H169V177.468H171.184V185H169V182.186H165.724V185H163.554V177.468ZM179.603 179.26H177.055V185H174.885V179.26H172.337V177.468H179.603V179.26ZM183.98 185.112C183.187 185.112 182.473 184.949 181.838 184.622C181.213 184.286 180.723 183.824 180.368 183.236C180.014 182.648 179.836 181.981 179.836 181.234C179.836 180.487 180.014 179.82 180.368 179.232C180.723 178.644 181.213 178.187 181.838 177.86C182.473 177.524 183.187 177.356 183.98 177.356C184.774 177.356 185.483 177.524 186.108 177.86C186.734 178.187 187.224 178.644 187.578 179.232C187.933 179.82 188.11 180.487 188.11 181.234C188.11 181.981 187.933 182.648 187.578 183.236C187.224 183.824 186.734 184.286 186.108 184.622C185.483 184.949 184.774 185.112 183.98 185.112ZM183.98 183.32C184.54 183.32 184.998 183.133 185.352 182.76C185.716 182.377 185.898 181.869 185.898 181.234C185.898 180.599 185.716 180.095 185.352 179.722C184.998 179.339 184.54 179.148 183.98 179.148C183.42 179.148 182.958 179.339 182.594 179.722C182.23 180.095 182.048 180.599 182.048 181.234C182.048 181.869 182.23 182.377 182.594 182.76C182.958 183.133 183.42 183.32 183.98 183.32ZM195.367 181.066C196.253 181.365 196.697 181.962 196.697 182.858C196.697 183.539 196.44 184.067 195.927 184.44C195.413 184.813 194.648 185 193.631 185H189.613V177.468H193.463C194.405 177.468 195.143 177.641 195.675 177.986C196.207 178.322 196.472 178.798 196.472 179.414C196.472 179.787 196.375 180.119 196.179 180.408C195.992 180.688 195.721 180.907 195.367 181.066ZM191.615 180.562H193.267C194.032 180.562 194.415 180.291 194.415 179.75C194.415 179.218 194.032 178.952 193.267 178.952H191.615V180.562ZM193.449 183.516C194.251 183.516 194.653 183.241 194.653 182.69C194.653 182.401 194.559 182.191 194.373 182.06C194.186 181.92 193.892 181.85 193.491 181.85H191.615V183.516H193.449Z" fill="#A8A2A2"/>
<defs>
<filter id="filter0_d" x="0" y="0" width="233" height="240" filterUnits="userSpaceOnUse" color-interpolation-filters="sRGB">
<feFlood flood-opacity="0" result="BackgroundImageFix"/>
<feColorMatrix in="SourceAlpha" type="matrix" values="0 0 0 0 0 0 0 0 0 0 0 0 0 0 0 0 0 0 127 0"/>
<feOffset dy="4"/>
<feGaussianBlur stdDeviation="12.5"/>
<feColorMatrix type="matrix" values="0 0 0 0 0 0 0 0 0 0 0 0 0 0 0 0 0 0 0.25 0"/>
<feBlend mode="normal" in2="BackgroundImageFix" result="effect1_dropShadow"/>
<feBlend mode="normal" in="SourceGraphic" in2="effect1_dropShadow" result="shape"/>
</filter>
<linearGradient id="paint0_linear" x1="96" y1="39" x2="96" y2="103" gradientUnits="userSpaceOnUse">
<stop stop-color="#219CF9"/>
<stop offset="1" stop-color="#4E50EA"/>
</linearGradient>
<linearGradient id="paint1_linear" x1="131.614" y1="39" x2="131.614" y2="77.1936" gradientUnits="userSpaceOnUse">
<stop stop-color="#219CF9"/>
<stop offset="1" stop-color="#4E50EA"/>
</linearGradient>
<linearGradient id="paint2_linear" x1="131.614" y1="59.6455" x2="131.614" y2="103" gradientUnits="userSpaceOnUse">
<stop stop-color="#219CF9"/>
<stop offset="1" stop-color="#4E50EA"/>
</linearGradient>
<linearGradient id="paint3_linear" x1="116.128" y1="39" x2="116.128" y2="52.503" gradientUnits="userSpaceOnUse">
<stop stop-color="#219CF9"/>
<stop offset="1" stop-color="#4E50EA"/>
</linearGradient>
<linearGradient id="paint4_linear" x1="114.064" y1="43.1289" x2="114.064" y2="45.1934" gradientUnits="userSpaceOnUse">
<stop stop-color="#219CF9"/>
<stop offset="1" stop-color="#4E50EA"/>
</linearGradient>
<linearGradient id="paint5_linear" x1="118.194" y1="43.1289" x2="118.194" y2="45.1934" gradientUnits="userSpaceOnUse">
<stop stop-color="#219CF9"/>
<stop offset="1" stop-color="#4E50EA"/>
</linearGradient>
<clipPath id="clip0">
<rect width="64" height="64" fill="white" transform="translate(80 39)"/>
</clipPath>
</defs>
</svg>
