<svg width="38" height="38" viewBox="0 0 38 38" fill="none" xmlns="http://www.w3.org/2000/svg">
<g clip-path="url(#clip0)">
<path d="M1.48435 17.5156H32.9203L27.7128 12.3334C27.1317 11.7551 27.1295 10.8152 27.7078 10.2342C28.2861 9.65303 29.2261 9.65088 29.8071 10.2291L37.5633 17.9479C37.5638 17.9483 37.5642 17.9488 37.5646 17.9493C38.1442 18.5276 38.146 19.4705 37.5648 20.0507C37.5642 20.0511 37.5639 20.0517 37.5634 20.0521L29.8073 27.7709C29.2263 28.349 28.2864 28.347 27.708 27.7658C27.1297 27.1848 27.1319 26.2449 27.713 25.6666L32.9203 20.4844H1.48435C0.664528 20.4844 -2.71797e-05 19.8198 -2.71797e-05 19C-2.71797e-05 18.1802 0.664528 17.5156 1.48435 17.5156Z" fill="#919191"/>
</g>
<defs>
<clipPath id="clip0">
<rect width="38" height="38" fill="white" transform="matrix(-1 0 0 1 38 0)"/>
</clipPath>
</defs>
</svg>
