<svg width="75" height="75" viewBox="0 0 75 75" fill="none" xmlns="http://www.w3.org/2000/svg">
<g filter="url(#filter0_d)">
<circle cx="37.5" cy="33.5" r="27.5" fill="#212429"/>
</g>
<path d="M45.6327 25.3673C43.4613 23.1958 40.5742 22 37.5033 22C34.4324 22 31.5453 23.1958 29.3738 25.3673C27.2023 27.5388 26.0065 30.4258 26.0065 33.4967C26.0065 35.442 26.499 37.3535 27.4337 39.0468L25 46L31.9531 43.5664C33.6464 44.501 35.558 44.9935 37.5033 44.9935C40.5741 44.9935 43.4613 43.7976 45.6326 41.6261C47.8041 39.4547 49 36.5676 49 33.4967C49 30.4258 47.8041 27.5388 45.6327 25.3673ZM37.5033 43.5857C35.6987 43.5857 33.9276 43.1031 32.3814 42.19L32.0997 42.0236L27.2946 43.7053L28.9764 38.9003L28.81 38.6186C27.897 37.0724 27.4143 35.3013 27.4143 33.4967C27.4143 27.9337 31.9403 23.4078 37.5033 23.4078C43.0663 23.4078 47.5922 27.9337 47.5922 33.4967C47.5922 39.0598 43.0663 43.5857 37.5033 43.5857Z" fill="white"/>
<path d="M43.684 36.2746L42.025 34.6155C41.4761 34.0666 40.583 34.0666 40.0341 34.6155L39.3995 35.2501C37.8584 34.4141 36.5855 33.1413 35.7495 31.6002L36.3841 30.9656C36.65 30.6997 36.7964 30.3461 36.7964 29.9701C36.7964 29.5941 36.65 29.2406 36.3841 28.9747L34.7251 27.3156C34.4592 27.0498 34.1056 26.9033 33.7296 26.9033C33.3535 26.9033 33.0001 27.0498 32.7342 27.3156L31.407 28.6429C30.6579 29.3919 30.6226 30.6849 31.3077 32.2834C31.9062 33.6798 33.002 35.2151 34.3933 36.6063C35.7845 37.9976 37.3198 39.0934 38.7162 39.6919C39.4781 40.0183 40.1704 40.1812 40.7676 40.1812C41.4235 40.1812 41.9647 39.9847 42.3567 39.5926L43.6839 38.2654C43.9499 37.9995 44.0963 37.646 44.0963 37.27C44.0963 36.8939 43.9499 36.5404 43.684 36.2746ZM41.3614 38.5973C41.0651 38.8935 40.2445 38.8153 39.2708 38.398C38.0351 37.8684 36.6564 36.8786 35.3887 35.6109C34.1211 34.3433 33.1313 32.9646 32.6017 31.7288C32.1843 30.7551 32.1061 29.9345 32.4024 29.6382L33.7296 28.311L35.3887 29.9701L34.0425 31.3163L34.2548 31.7645C35.2871 33.9438 37.0557 35.7124 39.235 36.7447L39.6833 36.9571L41.0295 35.6109L42.6885 37.2699L41.3614 38.5973Z" fill="white"/>
<defs>
<filter id="filter0_d" x="0" y="0" width="75" height="75" filterUnits="userSpaceOnUse" color-interpolation-filters="sRGB">
<feFlood flood-opacity="0" result="BackgroundImageFix"/>
<feColorMatrix in="SourceAlpha" type="matrix" values="0 0 0 0 0 0 0 0 0 0 0 0 0 0 0 0 0 0 127 0"/>
<feOffset dy="4"/>
<feGaussianBlur stdDeviation="5"/>
<feColorMatrix type="matrix" values="0 0 0 0 0 0 0 0 0 0 0 0 0 0 0 0 0 0 0.25 0"/>
<feBlend mode="normal" in2="BackgroundImageFix" result="effect1_dropShadow"/>
<feBlend mode="normal" in="SourceGraphic" in2="effect1_dropShadow" result="shape"/>
</filter>
</defs>
</svg>
