<svg width="100" height="94" viewBox="0 0 100 94" fill="none" xmlns="http://www.w3.org/2000/svg">
<path d="M78.5842 71.4254H38.8732L36.5674 62.202H88.6352L100 16.7432H25.2027L21.266 0.996094H0V7.51953H16.1727L32.2289 71.7436C27.5311 72.9098 24.0379 77.1609 24.0379 82.2145C24.0379 88.1639 28.8779 93.0039 34.8271 93.0039C40.7762 93.0039 45.6164 88.1639 45.6164 82.2145C45.6164 80.6998 45.3014 79.2578 44.7354 77.9486H68.6762C68.1104 79.2578 67.7951 80.6998 67.7951 82.2145C67.7951 88.1639 72.6352 93.0039 78.5844 93.0039C84.5334 93.0039 89.3736 88.1639 89.3736 82.2145C89.3734 76.2656 84.5334 71.4254 78.5842 71.4254ZM56.0603 55.6785H48.8182L47.2002 42.7342H56.0605V55.6785H56.0603ZM80.4516 23.2664H91.6449L88.409 36.2107H78.8336L80.4516 23.2664ZM78.0182 42.7344H86.7779L83.542 55.6787H76.4002L78.0182 42.7344ZM62.5836 23.2664H73.8773L72.2594 36.2107H62.5838V23.2664H62.5836ZM62.5836 42.7342H71.4439L69.826 55.6785H62.5838V42.7342H62.5836ZM56.0603 23.2664V36.2107H46.3848L44.7668 23.2664H56.0603ZM26.8336 23.2664H38.1926L39.8105 36.2107H30.0697L26.8336 23.2664ZM31.7006 42.7342H40.6262L42.2441 55.6785H34.9367L31.7006 42.7342ZM34.8271 86.4807C32.475 86.4807 30.5613 84.567 30.5613 82.2147C30.5613 79.8625 32.475 77.9488 34.8271 77.9488C37.1793 77.9488 39.093 79.8625 39.093 82.2147C39.093 84.567 37.1793 86.4807 34.8271 86.4807ZM78.5842 86.4807C76.232 86.4807 74.3184 84.567 74.3184 82.2147C74.3184 79.8625 76.232 77.9488 78.5842 77.9488C80.9363 77.9488 82.85 79.8625 82.85 82.2147C82.85 84.567 80.9363 86.4807 78.5842 86.4807Z" fill="url(#paint0_linear)"/>
<defs>
<linearGradient id="paint0_linear" x1="50" y1="0.996094" x2="50" y2="93.0039" gradientUnits="userSpaceOnUse">
<stop stop-color="#219CF9"/>
<stop offset="1" stop-color="#4E50EA"/>
</linearGradient>
</defs>
</svg>
