<svg width="65" height="65" viewBox="0 0 65 65" fill="none" xmlns="http://www.w3.org/2000/svg">
<g filter="url(#filter0_d)">
<circle cx="32.5" cy="28.5" r="22.5" fill="#28292D"/>
</g>
<path d="M36.5862 18H27.4138C24.4286 18 22 20.4286 22 23.4138V32.5863C22 35.5714 24.4286 38 27.4138 38H36.5863C39.5714 38 42 35.5714 42 32.5863V23.4138C42 20.4286 39.5714 18 36.5862 18V18ZM40.8275 32.5863C40.8275 34.9249 38.9249 36.8275 36.5862 36.8275H27.4138C25.0751 36.8275 23.1725 34.9249 23.1725 32.5863V23.4138C23.1725 21.0751 25.0751 19.1725 27.4138 19.1725H36.5863C38.9249 19.1725 40.8275 21.0751 40.8275 23.4138V32.5863Z" fill="#AAA0A0"/>
<path d="M32 22.5314C28.9846 22.5314 26.5314 24.9845 26.5314 28C26.5314 31.0154 28.9846 33.4685 32 33.4685C35.0155 33.4685 37.4686 31.0154 37.4686 28C37.4686 24.9845 35.0155 22.5314 32 22.5314ZM32 32.2961C29.6312 32.2961 27.7039 30.3689 27.7039 28C27.7039 25.6312 29.6312 23.7039 32 23.7039C34.3689 23.7039 36.2961 25.6312 36.2961 28C36.2961 30.3689 34.3689 32.2961 32 32.2961Z" fill="#AAA0A0"/>
<path d="M37.5994 20.5892C36.7083 20.5892 35.9835 21.3142 35.9835 22.2051C35.9835 23.0962 36.7083 23.8212 37.5994 23.8212C38.4905 23.8212 39.2155 23.0962 39.2155 22.2051C39.2155 21.314 38.4905 20.5892 37.5994 20.5892ZM37.5994 22.6486C37.355 22.6486 37.156 22.4496 37.156 22.2051C37.156 21.9605 37.355 21.7617 37.5994 21.7617C37.844 21.7617 38.043 21.9605 38.043 22.2051C38.043 22.4496 37.844 22.6486 37.5994 22.6486Z" fill="#AAA0A0"/>
<defs>
<filter id="filter0_d" x="0" y="0" width="65" height="65" filterUnits="userSpaceOnUse" color-interpolation-filters="sRGB">
<feFlood flood-opacity="0" result="BackgroundImageFix"/>
<feColorMatrix in="SourceAlpha" type="matrix" values="0 0 0 0 0 0 0 0 0 0 0 0 0 0 0 0 0 0 127 0"/>
<feOffset dy="4"/>
<feGaussianBlur stdDeviation="5"/>
<feColorMatrix type="matrix" values="0 0 0 0 0 0 0 0 0 0 0 0 0 0 0 0 0 0 0.25 0"/>
<feBlend mode="normal" in2="BackgroundImageFix" result="effect1_dropShadow"/>
<feBlend mode="normal" in="SourceGraphic" in2="effect1_dropShadow" result="shape"/>
</filter>
</defs>
</svg>
