<svg width="64" height="64" viewBox="0 0 64 64" fill="none" xmlns="http://www.w3.org/2000/svg">
<g clip-path="url(#clip0_12_2)">
<path fill-rule="evenodd" clip-rule="evenodd" d="M32 -9.03238e-06C39.4032 0.00370824 46.576 2.57419 52.2965 7.27348C58.0169 11.9728 61.9311 18.5101 63.372 25.7717C64.8129 33.0333 63.6914 40.5698 60.1987 47.0973C56.7059 53.6247 51.058 58.7392 44.2171 61.5694C37.3763 64.3995 29.7658 64.7702 22.6823 62.6183C15.5988 60.4663 9.48051 55.9249 5.36995 49.7678C1.25938 43.6107 -0.589189 36.2188 0.139199 28.8515C0.867587 21.4843 4.12787 14.5975 9.36455 9.36454C12.3343 6.38911 15.863 4.03003 19.7476 2.42293C23.6322 0.815826 27.7961 -0.0075995 32 -9.03238e-06V-9.03238e-06ZM29.3244 62.3211C30.2163 62.4013 31.1081 62.4415 32 62.4415C36.725 62.4489 41.3864 61.3517 45.612 59.2374C45.4716 58.9097 45.3244 58.5686 45.1706 58.2609C44.8815 57.6265 44.5391 57.0179 44.1472 56.4415C43.7895 55.9212 43.3567 55.4569 42.8629 55.0635C41.9101 54.3824 40.8709 53.8313 39.7726 53.4247V53.4247C38.5084 52.9164 38.5084 52.9097 39.6254 52.5351H39.6789L39.6388 52.3879C39.5942 52.2433 39.5382 52.1024 39.4716 51.9665C39.252 51.5129 38.9581 51.0992 38.602 50.7425C38.3633 50.5024 38.1086 50.2789 37.8395 50.0736L37.2977 50.1873L36.709 50.2876C36.709 50.8094 36.6221 50.7692 36.087 50.5351L35.786 50.4013L35.2843 50.4415C35.4498 51.0895 35.5661 51.7491 35.6321 52.4147C35.6799 52.9622 35.6799 53.5127 35.6321 54.0602C35.5916 54.572 35.4997 55.0785 35.3579 55.5719C35.2075 56.069 35.0151 56.5523 34.7826 57.0167C34.5753 57.4381 34.3746 57.7859 34.2408 58.0201C33.6589 59.0368 33.6522 59.0368 33.398 57.9398V57.8997C33.2542 57.1552 33.0299 56.4285 32.7291 55.7324C32.4099 55.1617 32.0113 54.6392 31.5452 54.1806L31.2241 55.1839C30.9565 56.0201 30.9565 56.0201 30.3746 54.9966C30.2274 54.7358 30 54.3278 29.786 53.8997C29.5499 53.4367 29.3509 52.9558 29.1906 52.4615C29.0371 51.9193 28.9341 51.3639 28.8829 50.8027L28.8495 50.515H28.0937C27.8707 50.8316 27.6477 51.146 27.4248 51.4582C27.8606 51.848 28.2613 52.2756 28.6221 52.7358C28.9673 53.1869 29.2675 53.6709 29.5184 54.1806C30.8562 56.903 30.1873 59.5652 29.291 62.3277L29.3244 62.3211ZM28.8294 62.2742C29.0167 61.7057 29.204 61.1438 29.3512 60.6488C29.5579 59.962 29.6946 59.2561 29.7592 58.5418C29.7924 58.0451 29.7924 57.5468 29.7592 57.0502L29.612 56.9966C28.5898 56.527 27.6077 55.9744 26.6756 55.3445C26.1003 54.9498 25.4716 54.4682 24.8495 53.9599C24.2274 53.4515 23.5117 52.8294 22.9231 52.2609C22.3345 51.6923 21.7124 51.0769 21.1706 50.5017H20.5819L20.6689 50.99C20.7893 51.6589 20.8963 52.3879 20.9967 53.1304C21.0279 53.3534 21.0569 53.5764 21.0836 53.7993C21.4703 54.7203 21.9909 55.5791 22.6288 56.3478C22.9211 56.6599 23.2292 56.9568 23.5518 57.2374C24.1022 57.6945 24.5962 58.2154 25.0234 58.7893C25.5301 59.61 25.8816 60.517 26.0602 61.4649V61.4649L26.087 61.5385L26.1605 61.8528C26.1605 61.913 26.1605 61.913 26.2809 61.9197L26.7425 61.9732H26.8963C27.5251 62.0803 28.1583 62.1672 28.796 62.2341L28.8294 62.2742ZM29.7324 56.4749V56.3679C29.6291 55.683 29.4168 55.0191 29.1037 54.4013C28.8704 53.9181 28.5904 53.4588 28.2676 53.0301C27.8873 52.547 27.4642 52.0992 27.0033 51.6923V51.6923C26.796 51.4983 26.5953 51.3177 26.4214 51.1304C26.2287 50.9335 26.0499 50.7234 25.8863 50.5017H21.8796C22.3144 50.9565 22.7759 51.4181 23.2776 51.893C23.7793 52.3679 24.5217 53.0234 25.1773 53.5652C25.8328 54.107 26.3947 54.5351 26.9632 54.903C27.8344 55.4929 28.7515 56.0118 29.7057 56.4548L29.7324 56.4749ZM18.8428 47.6522C18.8428 47.4983 18.8428 47.3512 18.8829 47.204C18.8829 46.8027 18.8829 46.4013 18.8829 45.9933C18.7893 45.7191 18.6957 45.4515 18.5953 45.1839L18.3478 44.515C18.1873 44.0936 18.0201 43.6789 17.8528 43.2709C17.3579 43.699 16.8562 44.1271 16.3278 44.5485C15.7993 44.9699 15.3846 45.291 14.8495 45.6522C14.3374 46.5396 13.7464 47.3792 13.0836 48.1605C12.8495 48.4147 12.6221 48.6488 12.4147 48.8762C11.8734 49.3723 11.399 49.9367 11.0034 50.5552C10.5789 51.3792 10.2834 52.2636 10.1271 53.1772L10.495 53.5518C10.9008 53.9576 11.3155 54.35 11.7391 54.7291C11.8662 54.5284 11.9866 54.3277 12.1003 54.1137C12.5574 53.1931 12.9226 52.2297 13.1906 51.2374L13.3244 50.796C13.4319 50.4163 13.5729 50.047 13.7458 49.6923C13.8801 49.4175 14.0887 49.1858 14.3478 49.0234C14.6101 48.8715 14.9076 48.7908 15.2107 48.7893C15.502 48.7775 15.7896 48.857 16.0334 49.0167C16.1533 49.1037 16.2539 49.2145 16.3287 49.3423C16.4036 49.4701 16.4511 49.6121 16.4682 49.7592C16.5045 50.0854 16.4537 50.4154 16.3211 50.7157C16.1585 51.0703 15.966 51.4104 15.7458 51.7324C15.4709 52.1464 15.2228 52.5776 15.0034 53.0234C14.5198 54.0865 14.2908 55.2476 14.3345 56.4147C14.3345 56.5485 14.3345 56.6756 14.3345 56.8094C14.6332 57.0234 14.9387 57.233 15.2508 57.4381C15.2508 57.1772 15.311 56.9097 15.3512 56.6488C15.4351 56.038 15.5648 55.4342 15.7391 54.8428C15.9311 54.2252 16.1658 53.6218 16.4415 53.0368C16.7157 52.4482 17.0167 51.8729 17.311 51.3311L17.612 50.7826C17.8462 50.3612 18.0736 49.9599 18.2809 49.5786V48.2408C18.2827 48.0905 18.3431 47.9469 18.4494 47.8407C18.5556 47.7344 18.6993 47.674 18.8495 47.6722L18.8428 47.6522ZM19.3846 47.612V47.5518V47.612ZM19.913 47.5251L20.1873 47.4515C20.4065 47.386 20.6141 47.2867 20.8027 47.1572L20.7358 47.1104C20.3612 46.8094 20.0134 46.5017 19.6722 46.194L19.4314 45.9732C19.5474 46.3211 19.6589 46.6711 19.7659 47.0234L19.9064 47.5251H19.913ZM21.1639 46.8227C21.2891 46.6716 21.3948 46.5053 21.4783 46.3278V46.2876C21.5881 46.035 21.6559 45.7661 21.6789 45.4916C21.7102 45.1349 21.7347 44.6377 21.7525 44C21.7525 43.6031 21.7525 43.1193 21.7525 42.5485L21.4983 42.4749C20.9869 42.3198 20.4633 42.2079 19.9331 42.1405C19.545 42.1044 19.1539 42.1179 18.7692 42.1806C18.5211 42.223 18.2755 42.2788 18.0334 42.3478L18.1873 42.7224C18.408 43.2508 18.6154 43.7726 18.8161 44.2943L19.0502 44.9164C19.3712 45.2174 19.7191 45.5184 20 45.7993C20.2809 46.0803 20.6689 46.408 21.0435 46.6956L21.1438 46.7759L21.1639 46.8227ZM21.7926 42.0201V37.5318C21.3416 37.8099 20.9163 38.1278 20.5217 38.4816C20.1208 38.848 19.7453 39.2413 19.398 39.6589C19.0841 40.0246 18.7893 40.4063 18.5151 40.8027C18.2676 41.1639 18.0468 41.5117 17.8462 41.8595V41.8997C18.1254 41.8189 18.409 41.7541 18.6957 41.7057C19.1204 41.6386 19.5519 41.6251 19.9799 41.6655C20.5501 41.7264 21.1141 41.8361 21.6656 41.9933L21.7926 42.0267V42.0201ZM21.7926 36.9632V35.4983C21.3846 35.6655 21.4515 35.4983 21.7926 34.9097V33.7324C21.1108 33.6593 20.4215 33.7558 19.786 34.0134C19.4239 34.1637 19.0911 34.3765 18.8027 34.6421C18.4534 34.9803 18.1619 35.3735 17.9398 35.806C17.7005 36.2476 17.5313 36.7238 17.4381 37.2174C17.3471 37.9136 17.4204 38.6215 17.6522 39.2843L17.7057 39.4783C17.8054 39.8371 17.8858 40.2011 17.9465 40.5686V40.6555L18.0602 40.4883C18.3368 40.0876 18.6337 39.7014 18.9498 39.3311C19.332 38.902 19.7432 38.4997 20.1806 38.1271C20.6521 37.7058 21.1653 37.3337 21.7124 37.0167L21.7926 36.9699V36.9632ZM21.7926 33.2441V23.5585C21.0636 24 20.2676 24.5351 19.4916 25.0502L18.3813 25.7926C17.7024 26.25 16.999 26.6698 16.2743 27.0502C15.5651 27.4157 14.8182 27.7028 14.0468 27.9063C12.8618 28.18 11.6594 28.3722 10.4482 28.4816C9.8796 28.5485 9.32442 28.6087 8.80268 28.689C8.04984 28.788 7.30687 28.9513 6.58194 29.1772C5.90566 29.387 5.26514 29.6983 4.68228 30.1003C3.67642 30.8704 2.77676 31.77 2.00669 32.7759L1.58529 33.2843C1.62957 34.3321 1.7278 35.377 1.8796 36.4147L1.94649 36.3478C2.32416 35.9521 2.73111 35.5854 3.16388 35.2508C3.6119 34.9181 4.08361 34.6185 4.57526 34.3545C4.94315 34.1538 5.2776 33.9866 5.53178 33.8662L4.57526 33.6722C3.05686 33.3645 3.05686 33.3645 5.03679 32.9231C5.44482 32.8294 6.06021 32.6956 6.73579 32.5886C7.44255 32.468 8.15964 32.4187 8.87626 32.4415C9.50295 32.4734 10.12 32.609 10.7023 32.8428C11.2767 33.0753 11.8063 33.4057 12.2676 33.8194C12.6984 34.2131 13.0741 34.663 13.3846 35.1572C13.7053 35.6566 13.9828 36.1825 14.2141 36.7291C14.4147 37.1839 14.5953 37.6722 14.7692 38.1405C14.9761 38.7337 15.2174 39.3144 15.4916 39.8796C15.6546 40.1975 15.8593 40.4921 16.1003 40.7558C16.3003 40.9768 16.5382 41.1603 16.8027 41.2976L17.0167 41.3913C17.1162 41.4319 17.2241 41.448 17.3311 41.4381C17.3536 41.4354 17.375 41.4272 17.3936 41.4144C17.4123 41.4016 17.4275 41.3845 17.4381 41.3645V41.3311C17.4853 41.1106 17.4853 40.8827 17.4381 40.6622C17.3813 40.3149 17.3054 39.971 17.2107 39.6321L17.1572 39.4381C16.9014 38.7043 16.8235 37.9203 16.9298 37.1505C17.0329 36.6032 17.2202 36.0752 17.485 35.5853C17.735 35.1025 18.0627 34.6641 18.4549 34.2876C18.7878 33.981 19.1729 33.7363 19.592 33.5652C20.0357 33.3836 20.5052 33.273 20.9833 33.2374C21.2459 33.2152 21.5099 33.2152 21.7726 33.2374L21.7926 33.2441ZM21.7926 23.0435V21.2843C21.1617 21.2941 20.5327 21.359 19.913 21.4783V21.4783C18.5106 21.824 17.2163 22.5136 16.1472 23.4849L15.9264 23.6589L15.592 23.9197C15.1572 24.2542 14.7157 24.5886 14.2542 24.8495C13.685 25.2157 13.0798 25.5227 12.4482 25.7659C11.7117 26.0222 10.9585 26.2278 10.194 26.3813C9.60536 26.515 9.01004 26.6488 8.4281 26.8294C7.76154 27.0351 7.1128 27.2946 6.4883 27.6053C5.89254 27.8977 5.32397 28.2424 4.7893 28.6354C4.35747 28.9563 3.95661 29.3168 3.59198 29.7124C3.22534 30.0979 2.89818 30.5192 2.61539 30.9699C2.43689 31.2645 2.27823 31.5706 2.14047 31.8863C2.81308 31.0619 3.58607 30.3249 4.44148 29.6923C5.0479 29.2753 5.71291 28.9507 6.41472 28.7291C7.15949 28.4977 7.92253 28.3299 8.69566 28.2274C9.22409 28.1538 9.78596 28.0869 10.3545 28.0201C11.5431 27.9126 12.7231 27.7249 13.8863 27.4582C14.637 27.2623 15.3638 26.9841 16.0535 26.6288C16.7662 26.2631 17.4584 25.8589 18.1271 25.4181L19.2375 24.6823C20.107 24.1003 20.9967 23.505 21.7993 23.0301L21.7926 23.0435ZM21.7926 20.8495V19.9866C21.7926 18.6979 21.8172 17.6455 21.8662 16.8294L21.4582 16.5485L18.8428 16.7224C18.7681 16.7269 18.6933 16.7167 18.6226 16.6922C18.5518 16.6677 18.4866 16.6295 18.4307 16.5798C18.3748 16.5301 18.3292 16.4698 18.2966 16.4025C18.264 16.3351 18.2451 16.262 18.2408 16.1873V14.7826L17.9197 14.6823C17.3901 14.5111 16.8461 14.388 16.2943 14.3144C15.7615 14.2524 15.2242 14.239 14.689 14.2742C14.0928 14.3128 13.5003 14.3955 12.9164 14.5217C12.4171 14.6301 11.9237 14.764 11.4381 14.9231C10.9833 15.0702 10.5284 15.2374 10.1003 15.4047L8.89633 16.0535L9.09699 16.1271C9.31104 16.2007 9.60536 16.2943 9.99332 16.3946L10.6622 16.5619C11.326 16.6959 11.9789 16.8793 12.6154 17.1104C12.7421 17.1625 12.8631 17.2275 12.9766 17.3043C13.1199 17.3958 13.2319 17.5288 13.2977 17.6856C13.3553 17.8248 13.3553 17.9812 13.2977 18.1204C13.2757 18.1698 13.2488 18.2168 13.2174 18.2609C13.0797 18.4459 12.8881 18.5837 12.6689 18.6555C12.3562 18.759 12.0283 18.8087 11.699 18.8027C11.4181 18.8027 11.1104 18.8027 10.7625 18.7625C10.0168 18.702 9.26745 18.702 8.52174 18.7625C7.88416 18.8282 7.25594 18.965 6.64883 19.1706V19.1706C6.43479 19.2441 6.22074 19.3244 6.02007 19.4114C6.40473 19.346 6.79383 19.3102 7.18395 19.3043C7.81064 19.3044 8.43653 19.3491 9.05686 19.4381C9.72576 19.5251 10.4816 19.6522 11.2776 19.7993L12.709 20.0669C13.8997 20.2943 15.1238 20.5217 16.1739 20.6823C17.6254 20.903 18.7291 20.9766 19.8194 21.0502C20.4635 20.9271 21.117 20.8599 21.7726 20.8495H21.7926ZM18.2341 13.893V13.8528C18.2341 13.702 18.294 13.5574 18.4006 13.4508C18.5073 13.3442 18.6519 13.2843 18.8027 13.2843H18.8428H20.2207C20.0268 13.0234 19.8462 12.7358 19.6522 12.4348L19.5385 12.2542C19.1037 11.5853 18.6355 10.8762 18.3813 10.5084L18.1271 11.3712C17.9064 12.0869 17.9064 12.0869 17.2977 11.2508C16.7854 10.4834 16.1504 9.80546 15.4181 9.24414C14.9477 8.92964 14.4242 8.70301 13.8729 8.57524C13.5166 8.48561 13.1546 8.4208 12.7893 8.38126L12.1204 8.92307L12.6154 9.15049C13.1403 9.413 13.634 9.73387 14.087 10.107C14.5664 10.5182 15.0136 10.9654 15.4248 11.4448C15.8595 11.9398 16.2809 12.4615 16.7023 12.9833C17.1973 13.2687 17.6945 13.5652 18.194 13.8729L18.2341 13.893ZM20.8227 13.2241H22.689C22.6767 12.8279 22.6432 12.4327 22.5886 12.0401L22.5552 11.7324C22.4878 11.2021 22.4498 10.6683 22.4415 10.1338C21.5979 9.2456 20.6902 8.42064 19.7258 7.66554C19.363 7.38182 18.9267 7.20776 18.4682 7.16387L18.8161 8.21404C19.0702 8.98327 19.0702 8.98327 18.0401 8.52842C17.1873 8.13957 16.2977 7.83706 15.3846 7.62541C14.9142 7.52541 14.4341 7.47829 13.9532 7.48494V7.48494L13.2843 7.98661C13.5318 8.02675 13.7659 8.07357 13.9532 8.12708C14.5586 8.27392 15.1321 8.53007 15.6455 8.88293C16.4241 9.45876 17.1022 10.1594 17.6522 10.9565C17.675 10.9828 17.6916 11.0139 17.7008 11.0475C17.7101 11.081 17.7118 11.1162 17.7057 11.1505L18.0134 10.1405C18.2274 9.42474 18.2341 9.43143 18.7492 10.194C19.01 10.5752 19.505 11.3043 19.913 11.9532L20.0268 12.1338C20.2528 12.5177 20.51 12.8824 20.796 13.2241H20.8227ZM23.1505 13.2241H25.4716H27.01C27.01 13.1304 27.01 13.0301 27.01 12.9364C26.7559 12.7023 26.5017 12.4615 26.2408 12.2007C25.9799 11.9398 25.6789 11.6388 25.4047 11.3244C25.1216 11.0067 24.8559 10.674 24.6087 10.3278C24.3557 9.98126 24.132 9.61433 23.9398 9.23076C23.6988 8.71598 23.5106 8.17812 23.3779 7.62541C23.2633 7.90873 23.1673 8.1992 23.0903 8.49497C22.9677 8.99866 22.9048 9.51504 22.903 10.0334C22.9047 10.049 22.9047 10.0647 22.903 10.0803V10.1137C22.9088 10.6415 22.9446 11.1685 23.01 11.6923L23.0435 12C23.0997 12.4013 23.1332 12.8056 23.1438 13.2107L23.1505 13.2241ZM27.4783 13.1839H28.9632C29.039 12.9833 29.1059 12.7826 29.1639 12.5819C29.2786 12.187 29.3526 11.7813 29.3846 11.3712C29.4064 10.9827 29.3907 10.5929 29.3378 10.2073C29.291 9.85283 29.2174 9.47825 29.1438 9.10367L29.0636 8.98327C28.6613 8.41945 28.2139 7.88928 27.7258 7.39798C27.3025 6.9595 26.856 6.54418 26.388 6.15384C25.9649 5.79602 25.518 5.46749 25.0502 5.17056L24.8629 5.07022L24.9365 5.25083C25.0234 5.4515 25.1505 5.72574 25.3646 6.12708L25.505 6.38795C26.1442 7.50666 26.6557 8.69358 27.0301 9.92641C27.2246 10.6359 27.3566 11.3611 27.4248 12.0936C27.4248 12.3211 27.4582 12.5485 27.4716 12.7625C27.4728 12.7759 27.4728 12.7893 27.4716 12.8027V12.8027C27.4716 12.9298 27.4716 13.0568 27.4716 13.1839H27.4783ZM29.485 13.1839H30.3813C30.3813 13.0836 30.3813 12.9699 30.3813 12.8428C30.3764 12.5183 30.3518 12.1944 30.3077 11.8729C30.2427 11.403 30.1215 10.9426 29.9465 10.5017L29.8462 10.2742C29.8778 10.6392 29.8778 11.0063 29.8462 11.3712C29.8153 11.8241 29.7368 12.2725 29.612 12.709C29.5675 12.8696 29.5162 13.0279 29.4582 13.1839H29.485ZM30.9967 13.1839H31.8462C31.8462 12.7759 31.8462 12.4147 31.8462 12.1471C31.8462 12.107 32.1739 11.7124 32.0134 11.913L31.0301 13.1371L30.99 13.1906L30.9967 13.1839ZM32.3345 13.2308C33.5701 13.2937 34.7984 13.4593 36.0067 13.7257C36.7121 13.8853 37.4051 14.0954 38.0803 14.3545C38.0803 14.2073 38.0981 14.0602 38.1338 13.913C38.4056 11.916 38.851 9.94643 39.4649 8.02675C39.9933 6.34113 40.6087 4.68227 41.2308 3.00334C36.7742 1.59405 32.0533 1.22785 27.4327 1.93301C22.8121 2.63816 18.4153 4.39581 14.5819 7.07023C14.8946 7.09311 15.2053 7.13781 15.5117 7.204C16.4492 7.43589 17.3612 7.7608 18.2341 8.1739V8.1739C18.3077 8.1739 18.4549 8.64882 18.3813 8.42809L18.0201 7.33109C17.8328 6.74916 17.8261 6.74247 18.3813 6.76253C18.9601 6.78354 19.5174 6.98726 19.9732 7.34447C20.8534 8.02083 21.6808 8.76322 22.4482 9.56521C22.4747 9.16571 22.5374 8.76944 22.6355 8.38126C22.7816 7.84203 22.9787 7.31792 23.2241 6.81604V6.81604C23.4314 6.38126 23.6455 5.9933 23.8194 5.66554L24.0736 5.19732L24.2274 4.91638C24.5017 4.46822 24.689 4.4214 25.2843 4.7826C25.7708 5.09169 26.2356 5.43362 26.6756 5.80601C27.1703 6.19489 27.6437 6.61021 28.0937 7.05016C28.583 7.5619 29.0304 8.11217 29.4314 8.69564L29.5318 8.8428V8.87625C29.8377 9.32857 30.0976 9.81034 30.3077 10.3144C30.4979 10.7896 30.6304 11.2859 30.7023 11.7926C30.7425 12.0765 30.767 12.3623 30.7759 12.6488L31.6054 11.612C32.2743 10.796 32.2743 10.796 32.2743 12.1405C32.2743 12.408 32.2743 12.8094 32.2743 13.204L32.3345 13.2308ZM38.5151 14.5351C39.0776 14.7721 39.6191 15.0563 40.1338 15.3846C40.548 15.6526 40.9376 15.957 41.2977 16.2943C41.5585 14.2876 41.8127 12.4749 42.1405 10.8027C42.408 9.46487 42.7358 8.16722 43.0836 6.93645C43.3712 5.91972 43.6789 4.92976 43.9799 3.97324C43.1996 3.67 42.4214 3.38684 41.6455 3.12374C41.0167 4.78929 40.4013 6.46822 39.8796 8.14046C39.2642 10.0419 38.8166 11.9936 38.5418 13.9732C38.5418 14.1605 38.495 14.3478 38.4749 14.5418L38.5151 14.5351ZM41.6856 16.7224C42.1745 17.2598 42.5783 17.8689 42.8829 18.5284C43.0368 18.1739 43.1304 18.3411 43.4047 18.8495L43.9799 19.913C44.087 20.107 43.8729 19.7191 43.8796 19.7057C44.1404 18.901 44.5142 18.1375 44.99 17.4381V17.4381C45.2617 17.0812 45.5946 16.7755 45.9732 16.5351C46.3379 16.3043 46.7346 16.1285 47.1505 16.0134C47.8504 15.8339 48.5686 15.7351 49.291 15.7191V15.7191C50.1873 15.6789 50.1806 15.6856 49.6187 16.4883C49.4783 16.6956 49.2642 16.9966 49.0435 17.3445C48.8398 17.6509 48.6566 17.9705 48.495 18.301L48.4281 18.4615C48.3671 18.5956 48.3395 18.7425 48.3478 18.8896C48.3513 18.9127 48.3604 18.9346 48.3744 18.9533C48.3884 18.972 48.4069 18.9869 48.4281 18.9966V18.9966C48.7521 19.0444 49.0824 19.0239 49.398 18.9364C50.1271 18.7893 50.1271 18.7893 49.6923 19.6923L48.5886 21.9933C48.2159 22.6053 47.9765 23.2891 47.8863 24C47.8833 24.0311 47.8833 24.0625 47.8863 24.0936C47.9165 24.1857 47.9813 24.2624 48.0669 24.3077C48.1726 24.3596 48.2915 24.3783 48.408 24.3612L48.5619 24.3277C48.7955 24.2385 48.9994 24.0856 49.1505 23.8863C49.3695 23.6061 49.5412 23.2921 49.6589 22.9565C49.786 22.6154 49.893 22.194 50.0134 21.7458C50.1723 21.0767 50.3779 20.4196 50.6288 19.7793C50.875 19.2374 51.1682 18.7181 51.505 18.2274C51.8402 17.6992 52.2135 17.1962 52.6221 16.7224C52.908 16.3777 53.2336 16.0679 53.592 15.7993C53.9212 15.563 54.2906 15.3885 54.6823 15.2843C55.1011 15.1794 55.5288 15.1144 55.9599 15.0903C56.3813 15.0903 56.7625 15.0903 57.01 15.0903H57.291C54.0998 10.3159 49.6279 6.53717 44.388 4.18728C44.087 5.1438 43.786 6.10701 43.505 7.09029C43.1572 8.30768 42.8361 9.56521 42.5753 10.9231C42.2207 12.6956 41.9599 14.6154 41.6856 16.7425V16.7224ZM43.291 19.6187C43.5391 20.5046 43.6607 21.4212 43.6522 22.3411C43.6541 23.7634 43.2478 25.1563 42.4816 26.3545C42.5351 26.5017 42.5886 26.6421 42.6488 26.7692C42.7826 27.1037 42.9231 27.4381 43.0167 27.6187C43.5184 28.7224 43.5184 28.7224 42.6421 28.1873L41.7926 27.6655C41.6723 28.0711 41.6203 28.4938 41.6388 28.9164C41.6549 29.3071 41.7316 29.693 41.8662 30.0602C41.9903 30.3998 42.1738 30.7146 42.408 30.99C42.7156 31.3265 43.0773 31.6091 43.4783 31.8261C43.8775 32.061 44.3107 32.2325 44.7625 32.3344C45.3997 32.4396 46.0527 32.3938 46.6689 32.2007L46.8495 32.1605C47.1825 32.0799 47.5197 32.0174 47.8595 31.9732H47.9398L47.786 31.8595C47.4259 31.5922 47.0798 31.3064 46.7492 31.0033C46.3601 30.6474 45.9958 30.2652 45.6589 29.8595C45.2873 29.4121 44.9623 28.928 44.689 28.4147C44.3987 27.8749 44.1741 27.3023 44.0201 26.709C43.8737 26.1227 43.7996 25.5207 43.7993 24.9164C43.8015 24.37 43.8597 23.8254 43.9732 23.291C44.0987 22.7043 44.2732 22.1293 44.495 21.5719C44.8495 20.708 45.2722 19.8737 45.7592 19.0769V19.0769C45.7894 19.0219 45.8401 18.9812 45.9003 18.9636C45.9606 18.946 46.0253 18.9531 46.0803 18.9833C46.1353 19.0134 46.176 19.0642 46.1936 19.1244C46.2111 19.1846 46.2041 19.2493 46.1739 19.3043V19.3043C45.6979 20.0798 45.2842 20.8917 44.9365 21.7324C44.7194 22.2765 44.5493 22.8382 44.4281 23.4114C44.3203 23.9149 44.2642 24.4282 44.2609 24.9431C44.262 25.5069 44.3317 26.0684 44.4682 26.6154C44.6067 27.1706 44.811 27.7073 45.0769 28.214C45.3367 28.6896 45.6437 29.1378 45.9933 29.5518C46.3175 29.9414 46.6684 30.308 47.0435 30.6488C47.3615 30.9399 47.6941 31.2145 48.0401 31.4716C48.3612 31.7124 48.709 31.9264 48.99 32.1405H49.0301C48.9638 31.8805 48.9124 31.617 48.8763 31.3512C48.8262 30.9581 48.8262 30.5603 48.8763 30.1672C48.9502 29.643 49.0688 29.1261 49.2308 28.6221C49.4114 28.0468 49.6455 27.3846 49.9465 26.6154C50.2475 25.8461 50.6154 25.0568 51.0033 24.2341C51.412 23.4068 51.8956 22.6186 52.4482 21.8796C52.9539 21.2227 53.5354 20.6277 54.1806 20.107C54.8475 19.5803 55.5724 19.1314 56.3411 18.7692C56.9866 18.4571 57.658 18.202 58.3478 18.0067L58.903 17.8662C58.7023 17.4827 58.4928 17.1037 58.2743 16.7291C57.8395 16.796 57.4783 16.8762 57.2375 16.9298C56.3545 17.1304 56.3545 17.1304 56.6823 16.4415L57.1572 15.4582C57.204 15.3645 57.1104 15.5518 56.99 15.5518C56.7425 15.5518 56.3612 15.5518 55.9732 15.5518C55.5717 15.5719 55.1731 15.6301 54.7826 15.7257C54.4437 15.8134 54.1239 15.9631 53.8395 16.1672C53.5108 16.4147 53.2123 16.6998 52.9498 17.0167C52.556 17.4737 52.196 17.9588 51.8729 18.4682C51.5754 18.9338 51.3181 19.4239 51.1037 19.9331C50.8637 20.5542 50.667 21.1912 50.5151 21.8395C50.4204 22.2664 50.3043 22.6884 50.1672 23.1037C50.0327 23.4876 49.8361 23.8469 49.5853 24.1672C49.3789 24.4355 49.1005 24.6397 48.7826 24.7558C48.702 24.7815 48.6191 24.7994 48.5351 24.8094C48.3239 24.8369 48.1093 24.7996 47.9197 24.7023C47.7251 24.5991 47.5787 24.4239 47.5117 24.214C47.492 24.1531 47.4786 24.0904 47.4716 24.0267C47.5443 23.234 47.8008 22.469 48.2207 21.7926L49.3244 19.4916C49.3244 19.4381 49.7324 19.3579 49.5518 19.398C49.1527 19.5076 48.7333 19.5213 48.3278 19.4381H48.2809C48.1869 19.3985 48.1048 19.3351 48.0427 19.2542C47.9805 19.1733 47.9405 19.0776 47.9264 18.9766C47.9041 18.7481 47.941 18.5178 48.0334 18.3077C48.0334 18.2542 48.0803 18.194 48.1137 18.1204C48.282 17.7688 48.4742 17.4291 48.689 17.1037C48.8963 16.7759 49.1237 16.4348 49.2776 16.2341C49.2776 16.2341 49.3579 16.2341 49.3512 16.2341C48.6741 16.2503 48.001 16.3423 47.3445 16.5084C46.9716 16.6098 46.6155 16.7653 46.2876 16.9699C45.9553 17.1823 45.6632 17.4517 45.4248 17.7659V17.7659C44.9785 18.4271 44.6273 19.1476 44.3813 19.9063C44.0268 20.8963 44.0268 20.8963 43.6321 20.1672L43.3512 19.6455L43.291 19.6187ZM42.1405 26.8361L41.8796 27.1839L41.9799 27.2441L42.4348 27.5251C42.3612 27.3645 42.2809 27.1706 42.1873 26.9498L42.1405 26.8361ZM41.2174 27.9465C40.8826 28.294 40.5202 28.6139 40.1338 28.903C40.1338 29.398 40.087 29.8395 40.0936 30.2073C40.0976 30.4468 40.1155 30.6857 40.1472 30.9231C41.3463 31.3295 42.4582 31.9581 43.4248 32.7759C44.1512 33.3874 44.7765 34.1098 45.2776 34.9164L45.4716 34.8495C46.0247 34.6783 46.5675 34.475 47.097 34.2408C47.3934 34.1018 47.67 33.9241 47.9197 33.7124C48.1294 33.5352 48.306 33.3223 48.4415 33.0836C48.4768 33.021 48.5081 32.9562 48.5351 32.8896C48.5753 32.7993 48.5937 32.7007 48.5886 32.602C48.5867 32.581 48.5795 32.5609 48.5678 32.5434C48.5562 32.5259 48.5403 32.5115 48.5217 32.5017V32.5017C48.321 32.4594 48.1137 32.4594 47.913 32.5017C47.5912 32.5444 47.2718 32.6047 46.9565 32.6823L46.7759 32.7224C46.0919 32.9339 45.3674 32.9798 44.6622 32.8562C44.161 32.7438 43.6804 32.5543 43.2375 32.2943C42.8033 32.0473 42.4124 31.731 42.0803 31.3579C41.8088 31.0413 41.5959 30.6789 41.4515 30.2876C41.1859 29.5554 41.1235 28.7649 41.2709 28L41.2174 27.9465ZM39.6589 29.2441C39.2662 29.4942 38.8573 29.7177 38.4348 29.913C38.1672 30.0424 37.8908 30.1628 37.6054 30.2742C38.2836 30.3723 38.9541 30.5175 39.612 30.709H39.6923C39.6923 30.5418 39.6923 30.3612 39.6923 30.1605C39.6923 29.9599 39.6923 29.5518 39.6923 29.1906L39.6589 29.2441ZM45.485 35.3043C45.5831 35.4916 45.6767 35.6811 45.7659 35.8729C46.0903 36.6067 46.3153 37.3805 46.4348 38.1739L46.8696 37.9264L48.6421 36.9231C48.7721 36.848 48.9151 36.7981 49.0635 36.7759C49.2059 36.7318 49.3589 36.7365 49.4983 36.7893C49.6048 36.8398 49.6934 36.9214 49.7525 37.0234V37.0234C49.8074 37.1273 49.8415 37.2409 49.8528 37.3578C49.871 37.6459 49.8598 37.935 49.8194 38.2207C49.7595 38.7133 49.7372 39.2097 49.7525 39.7057C49.7737 40.3009 49.8544 40.8924 49.9933 41.4716C50.1254 42.0158 50.3137 42.5448 50.5552 43.0502C50.9188 43.7601 51.3955 44.4062 51.9666 44.9632V44.5619C51.9666 43.893 51.9666 43.893 52.7492 44.4147C52.9632 44.5485 53.2843 44.7492 53.6522 44.9498C54.0372 45.1581 54.4375 45.337 54.8495 45.4849C55.2524 45.6263 55.6696 45.7227 56.0936 45.7726C56.5378 45.8221 56.9847 45.8422 57.4314 45.8328H58.1003H59.1037C59.3579 45.3378 59.5987 44.8339 59.8261 44.3211C59.204 43.9732 58.6087 43.612 58.0468 43.2241C57.4304 42.8036 56.8508 42.3314 56.3144 41.8127C55.7716 41.2788 55.281 40.6942 54.8495 40.0669C54.2884 39.2242 53.7704 38.3535 53.2977 37.4582C52.9766 36.8762 52.6288 36.2943 52.3344 35.7659C52.0401 35.2374 51.5652 34.5752 51.1839 34.0602C51.1791 35.2804 51.2866 36.4985 51.505 37.699C51.625 38.2748 51.802 38.8372 52.0334 39.3779C52.2477 39.8823 52.5193 40.3604 52.8428 40.8027C53.0925 41.1376 53.3798 41.4429 53.699 41.7124C53.9933 41.9665 54.301 42.1806 54.6087 42.3813C54.6342 42.3988 54.6559 42.4212 54.6727 42.4472C54.6896 42.4732 54.7011 42.5022 54.7067 42.5327C54.7123 42.5631 54.7118 42.5943 54.7053 42.6246C54.6988 42.6549 54.6865 42.6835 54.6689 42.709C54.6513 42.7345 54.6289 42.7563 54.6029 42.7731C54.577 42.7899 54.5479 42.8014 54.5175 42.807C54.4871 42.8126 54.4558 42.8121 54.4256 42.8056C54.3953 42.7992 54.3666 42.7868 54.3411 42.7692C54.0268 42.5485 53.7057 42.3277 53.3913 42.0602C53.0443 41.7671 52.7323 41.4349 52.4615 41.0702C52.1194 40.5983 51.8321 40.0888 51.6054 39.5518C51.3624 38.983 51.1765 38.3915 51.0502 37.7859C50.8121 36.3651 50.7068 34.9253 50.7358 33.4849C50.7331 33.4627 50.7331 33.4403 50.7358 33.418C50.4482 33.0435 50.1605 32.6823 49.8729 32.3278L49.0903 32.6221C49.086 32.7622 49.0565 32.9004 49.0033 33.0301C48.9707 33.1149 48.9327 33.1976 48.8896 33.2776C48.7263 33.5647 48.5135 33.8206 48.2609 34.0334C47.9788 34.2723 47.6661 34.4725 47.3311 34.6288C46.7846 34.8718 46.2239 35.0818 45.6522 35.2575L45.5452 35.291L45.485 35.3043ZM46.5017 38.689C46.5413 39.0689 46.5614 39.4507 46.5619 39.8328V39.8328C46.6823 39.5652 46.8027 39.3177 46.9231 39.0903C47.0947 38.759 47.2845 38.4374 47.4916 38.1271L47.1037 38.3411L46.5017 38.689ZM46.5017 41.2441C46.4304 41.7967 46.314 42.3426 46.1538 42.8762C45.9649 43.5506 45.7001 44.2014 45.3646 44.816C45.2776 45.1906 45.2174 45.5251 45.1706 45.8261C45.0903 46.3478 45.0569 46.7425 45.0301 47.0033C44.9431 48.0201 44.9431 48.0201 44.214 47.3445L43.7659 46.9231C43.5034 47.19 43.2265 47.4423 42.9365 47.6789C42.4163 48.0991 41.8588 48.4707 41.2709 48.7893C41.7933 48.8287 42.312 48.907 42.8227 49.0234C43.3645 49.1419 43.8966 49.3006 44.4147 49.4983C44.8926 49.6956 45.3592 49.9189 45.8127 50.1672L46.4816 50.515C46.2074 49.9465 46.2542 49.9599 47.0569 50.1204C47.2642 50.1605 47.5719 50.2274 47.9398 50.3144C48.3077 50.4013 48.5619 50.4749 48.9231 50.5819L48.2542 49.7993C47.7258 49.1304 47.7258 49.1304 48.9231 49.1304C50.0566 49.0902 51.1915 49.1507 52.3144 49.311C53.5023 49.5055 54.6394 49.9353 55.6589 50.5752L56 50.796C57.083 49.3883 58.0409 47.8887 58.8629 46.3144H58.1204H57.4515C56.9756 46.324 56.4996 46.3017 56.0268 46.2475C55.5706 46.1922 55.122 46.0868 54.689 45.9331C54.2534 45.7714 53.8308 45.5769 53.4248 45.3512C53.0435 45.1438 52.7157 44.9364 52.495 44.8027C52.4415 44.8027 52.4214 44.2809 52.4281 44.5284L52.4682 45.3311C52.5084 46.1405 52.5084 46.1405 51.7258 45.3311C51.0973 44.7315 50.5709 44.0333 50.1672 43.2642C49.9104 42.727 49.7108 42.1643 49.5719 41.5853C49.4216 40.9869 49.3297 40.3753 49.2977 39.7592C49.2807 39.241 49.3031 38.7222 49.3646 38.2073C49.3898 37.9584 49.392 37.7076 49.3712 37.4582C49.3712 37.3913 49.3712 37.2776 49.2709 37.2441C49.1706 37.2107 48.9498 37.3043 48.8629 37.3645C48.6225 37.5223 48.41 37.719 48.2341 37.9465C47.8976 38.3723 47.6062 38.8318 47.3645 39.3177C47.0836 39.8595 46.7826 40.5284 46.5017 41.2441V41.2441ZM44.3478 46.2809L44.087 46.5819L44.4883 46.9632L44.3411 46.2943L44.3478 46.2809ZM40.4013 49.2107H40.3478C39.712 49.4818 39.0569 49.7053 38.388 49.8796C38.572 50.0265 38.7484 50.1828 38.9164 50.3478C39.3099 50.7369 39.6355 51.189 39.8796 51.6856C39.957 51.843 40.0218 52.0063 40.0736 52.1739L40.107 52.301L40.7759 52.0936C41.2575 51.9532 41.8194 51.7993 42.408 51.6722C42.9967 51.5451 43.5652 51.505 44.1472 51.4582C44.6709 51.394 45.198 51.3605 45.7258 51.3578C46.145 51.3549 46.5629 51.4043 46.9699 51.505L46.8361 51.2308C46.4348 51.0033 46.0334 50.7759 45.6254 50.5619C45.191 50.3305 44.7445 50.1229 44.2876 49.9398C43.7916 49.746 43.2818 49.5895 42.7625 49.4716C42.1974 49.344 41.6222 49.2657 41.0435 49.2374H40.4415L40.4013 49.2107ZM34.7826 50.4816C34.4883 50.4816 34.1895 50.4816 33.8863 50.4816H33.2174C33.3512 50.8094 33.4649 51.1505 33.5719 51.4716C33.8184 52.2557 33.9996 53.0589 34.1137 53.8729C34.2102 54.5624 34.2661 55.2571 34.2809 55.9532C34.2809 56.2675 34.2809 56.5752 34.2809 56.8762L34.3211 56.796C34.5387 56.3659 34.7199 55.9184 34.8629 55.4582C34.9946 54.9974 35.0798 54.5246 35.1171 54.0468C35.1618 53.5305 35.1618 53.0113 35.1171 52.495C35.0495 51.8176 34.9287 51.1467 34.7559 50.4883L34.7826 50.4816ZM32.6823 50.4816H29.3512V50.709C29.4004 51.241 29.4989 51.7672 29.6455 52.2809C29.7979 52.7407 29.9858 53.188 30.2074 53.6187C30.4281 54.0602 30.6421 54.4415 30.7826 54.689C30.7826 54.689 30.6154 55.2374 30.7023 54.9699L31.0702 53.8328C31.2977 53.1639 31.2977 53.1639 31.8662 53.7525C32.3766 54.2751 32.8071 54.8702 33.1438 55.5184C33.4113 56.098 33.6197 56.703 33.7659 57.3244C33.7659 56.8696 33.7659 56.408 33.7659 55.9532C33.7515 55.2817 33.6979 54.6117 33.6054 53.9465C33.4927 53.1663 33.3159 52.3967 33.0769 51.6455C32.9565 51.2642 32.8161 50.8829 32.6555 50.5017L32.6823 50.4816ZM27.5585 50.4816H26.4816L26.7358 50.7558L27.1037 51.1104L27.5318 50.4816H27.5585ZM20.0669 50.495H18.8094C18.7332 50.4948 18.6578 50.4793 18.5877 50.4494C18.5176 50.4196 18.4542 50.3759 18.4013 50.3211L18.0334 50.99L17.7258 51.505C17.4314 52.0334 17.1371 52.5953 16.8696 53.1772C16.6059 53.7427 16.3823 54.3261 16.2007 54.9231C16.0349 55.4905 15.9119 56.0696 15.8328 56.6555C15.786 57.0033 15.7458 57.3244 15.7124 57.6856C16.3679 58.1003 17.0368 58.4905 17.7191 58.8562C17.7191 58.3478 17.7726 57.8796 17.8261 57.4448C17.9856 56.1954 18.3757 54.9865 18.9766 53.8796L19.1505 53.5318C19.5355 52.7045 19.8727 51.8558 20.1605 50.99C20.1293 50.816 20.0981 50.6444 20.0669 50.4749V50.495ZM20.5284 48.5351C20.1606 48.6503 19.7817 48.7265 19.398 48.7625V49.3578H33.8595C34.9367 49.3623 36.0118 49.2637 37.0702 49.0635C38.042 48.8691 38.9888 48.5662 39.893 48.1605C40.7245 47.8192 41.5072 47.3694 42.2207 46.8227C42.8963 46.2783 43.4889 45.6384 43.9799 44.9231C44.4694 44.2109 44.842 43.4251 45.0836 42.5953C45.3357 41.7055 45.4596 40.7843 45.4515 39.8595C45.4775 38.6615 45.2495 37.4715 44.7826 36.3679C44.3058 35.3155 43.5969 34.3848 42.709 33.6455C41.7159 32.8212 40.5604 32.215 39.3177 31.8662C37.979 31.3799 36.568 31.1222 35.1438 31.1037C34.4348 31.1037 34.4749 30.3478 35.1438 30.2274C37.1889 29.7327 39.0472 28.6572 40.495 27.1304C41.7561 25.8741 42.4762 24.1746 42.5017 22.3946C42.5017 19.7191 41.4961 17.7124 39.485 16.3746C38.323 15.6465 37.0412 15.1302 35.699 14.8495C33.9735 14.4811 32.2124 14.3061 30.4482 14.3278C28.9052 14.3278 27.2486 14.3278 25.4783 14.3278L19.3712 14.3946V15.5184L22.4415 15.3445H22.5753C22.6501 15.3528 22.7226 15.3758 22.7885 15.4124C22.8544 15.4489 22.9123 15.4982 22.959 15.5573C23.0057 15.6164 23.0401 15.6842 23.0604 15.7568C23.0806 15.8293 23.0862 15.9052 23.0769 15.9799C22.9564 17.3141 22.9073 18.6538 22.9298 19.9933V41.6321C22.9298 42.524 22.9298 43.3155 22.9298 44.0067C22.9298 44.6979 22.903 45.2196 22.8495 45.5719C22.8137 45.9737 22.712 46.3669 22.5485 46.7358V46.7826C22.3694 47.1614 22.1249 47.5056 21.8261 47.7993C21.4715 48.1397 21.0402 48.3898 20.5686 48.5284L20.5284 48.5351ZM30.6154 29.5184C31.7376 29.5286 32.8531 29.3453 33.913 28.9766L33.699 28.6823C32.9994 27.7567 32.2444 26.8744 31.4381 26.0401C30.6983 25.2506 29.9049 24.5131 29.0636 23.8328C28.5603 23.4085 28.0105 23.0427 27.4248 22.7425V29.6053L30.6221 29.5184H30.6154ZM34.3478 28.7625C34.5335 28.6765 34.7144 28.5805 34.8896 28.4749C34.6087 28.0825 34.3077 27.6901 33.9866 27.2976C33.4448 26.689 32.8963 26.0869 32.2943 25.4181L31.5585 24.6756C30.8495 24.0067 30.1405 23.3378 29.5518 22.7558L28.99 22.2274C28.5284 21.8194 28.0268 21.3913 27.4515 20.9298V21.8729C27.6843 22.0021 27.9078 22.1473 28.1204 22.3077C28.5784 22.6614 29.0017 23.0578 29.3846 23.4916C30.2397 24.1826 31.0465 24.9313 31.7993 25.7324C32.6103 26.5779 33.3698 27.4714 34.0736 28.408L34.3545 28.796L34.3478 28.7625ZM35.2709 28.2207C35.5821 28.0073 35.8672 27.7581 36.1204 27.4783C36.7232 26.7683 37.178 25.945 37.4582 25.0568C37.6187 23.6589 37.6923 22.301 37.7391 20.9632C37.6608 20.4252 37.5147 19.8993 37.3044 19.398C37.0077 18.6539 36.4952 18.0156 35.8328 17.5652C35.1221 17.0958 34.3407 16.7435 33.5184 16.5217C32.9599 16.3711 32.3891 16.2704 31.8127 16.2207C31.7076 16.4949 31.5824 16.761 31.4381 17.0167C31.1686 17.5026 30.8382 17.9522 30.4549 18.3545C30.1204 18.7157 29.7391 19.0568 29.3846 19.3779C29.0168 19.675 28.6826 20.0114 28.388 20.3813C28.337 20.455 28.3098 20.5425 28.3098 20.6321C28.3098 20.7217 28.337 20.8092 28.388 20.8829C28.6152 21.2116 28.8851 21.5085 29.1906 21.7659L29.2843 21.8528C30.2676 22.7224 31.0435 23.4849 31.8127 24.2475L31.8528 24.2876L32.5886 25.0368C33.204 25.7057 33.7726 26.3211 34.301 26.9699C34.631 27.3757 34.9409 27.7793 35.2308 28.1806L35.2709 28.2207ZM31.3311 16.1806H30.709C30.2608 16.1757 29.813 16.2115 29.3712 16.2876C29.0722 16.3368 28.7831 16.4339 28.5151 16.5752C28.3156 16.6868 28.1423 16.8395 28.0067 17.0234C27.8582 17.2249 27.7472 17.4515 27.6789 17.6923C27.5808 18.0785 27.5159 18.4723 27.485 18.8696C27.4493 19.2754 27.427 19.7503 27.4181 20.2943L27.5652 20.4147L27.8395 20.6354C27.8507 20.4524 27.9133 20.2762 28.0201 20.1271C28.3357 19.7212 28.6971 19.3532 29.097 19.0301C29.4381 18.7224 29.8127 18.3612 30.1405 18.0401C30.4981 17.6616 30.8061 17.239 31.0569 16.7826C31.1624 16.5877 31.2563 16.3867 31.3378 16.1806H31.3311ZM30.6622 30.6421C33.0033 30.6421 35.4248 30.0602 37.0033 28.2007C38.3516 26.5922 39.0653 24.5463 39.01 22.4482C39.0416 21.256 38.837 20.0693 38.408 18.9565C38.0268 18.0035 37.3671 17.1877 36.5151 16.6154V16.6154C35.6941 16.0736 34.7904 15.6692 33.8395 15.4181C32.8273 15.1479 31.7834 15.0152 30.7358 15.0234C30.2179 15.0185 29.7007 15.061 29.1906 15.1505C28.7699 15.2205 28.3633 15.3583 27.9866 15.5585C27.6459 15.748 27.3494 16.008 27.1171 16.3211C26.8736 16.6414 26.6921 17.0043 26.5819 17.3913C26.4671 17.841 26.391 18.2998 26.3545 18.7625C26.3055 19.3021 26.2809 19.9063 26.2809 20.5752V30.1873C26.2827 30.3375 26.3431 30.4811 26.4494 30.5874C26.5556 30.6936 26.6993 30.7541 26.8495 30.7558C28.1003 30.689 29.3779 30.7023 30.6355 30.6488L30.6622 30.6421ZM32.1873 47.3645C33.3596 47.382 34.5278 47.2218 35.6522 46.8896C35.5704 46.7395 35.4765 46.5963 35.3712 46.4615C35.0893 46.1158 34.7683 45.8038 34.4147 45.5318C33.8954 45.1333 33.3477 44.7734 32.7759 44.4548C32.2594 44.1507 31.7178 43.8911 31.1572 43.6789C30.4733 43.4412 29.7738 43.2512 29.0636 43.1104C28.5963 43.0156 28.1342 42.8973 27.6789 42.7558L27.4248 42.6622V44.1806C27.9995 44.4777 28.5537 44.8129 29.0836 45.1839C29.8224 45.7111 30.496 46.3241 31.0903 47.01L31.4047 47.3913L32.1873 47.3645ZM36.1405 46.6956C36.908 46.4136 37.6226 46.0043 38.2542 45.4849C38.9737 44.8789 39.536 44.1078 39.893 43.2374C40.0052 42.9653 40.0991 42.686 40.1739 42.4013C40.1739 42.2809 40.1405 42.1538 40.1271 42.0267C40.0412 41.3727 40.021 40.7116 40.0669 40.0535C40.1076 39.5804 40.211 39.1147 40.3746 38.6689C40.3008 37.9547 40.1344 37.2532 39.8796 36.5819C39.7466 36.239 39.5809 35.9097 39.3846 35.5987C38.7046 36.1798 38.0819 36.8249 37.5251 37.5251C36.9498 38.194 36.2542 39.1438 35.5184 40.2007C35.594 40.6437 35.6476 41.0901 35.6789 41.5385V41.5385C35.7592 42.5083 35.7525 42.5017 34.8562 41.9264L34.4415 41.6655L33.4448 43.117L32.8896 43.8997L33.0636 44C33.6504 44.3422 34.2115 44.7267 34.7425 45.1505C35.1143 45.4454 35.4509 45.7821 35.7458 46.1538C35.8837 46.3317 36.0046 46.522 36.107 46.7224L36.1405 46.6956ZM39.1505 35.1839C38.8949 34.8511 38.5957 34.5541 38.2609 34.301C37.5494 33.7684 36.7535 33.3591 35.9064 33.0903C35.7949 33.3801 35.6767 33.6678 35.5518 33.9532C35.0919 35.0404 34.5762 36.1031 34.0067 37.1371C34.2605 37.3649 34.4852 37.6233 34.6756 37.9063C34.9413 38.2931 35.1486 38.7168 35.291 39.1639C35.3311 39.2843 35.3646 39.4047 35.398 39.5318C36.0669 38.6288 36.6689 37.8194 37.1973 37.1839C37.7792 36.4532 38.4311 35.7811 39.1438 35.1772L39.1505 35.1839ZM35.4515 33.0167C34.3812 32.741 33.2791 32.6083 32.1739 32.6221C30.4883 32.6221 28.9097 32.6622 27.4381 32.7425V33.505H27.485C28.7963 33.7214 30.0939 34.014 31.3712 34.3813V34.3813C32.8227 34.7692 32.8227 34.7692 32.0401 35.2508L30.903 35.9197C30.6957 36.0401 31.1104 35.7993 31.1238 35.7993C31.9982 36.0502 32.8334 36.4217 33.6054 36.903C34.1543 35.9033 34.6522 34.8763 35.097 33.8261C35.2129 33.5541 35.3244 33.282 35.4314 33.01L35.4515 33.0167ZM27.4248 34.0201V36.0669C28.0041 36.1776 28.5743 36.3319 29.1304 36.5284C30.0816 36.8803 31.0031 37.3075 31.8863 37.806V37.806C31.9466 37.8362 31.9925 37.8891 32.0138 37.953C32.0351 38.017 32.0302 38.0868 32 38.1471C31.9698 38.2075 31.917 38.2533 31.853 38.2747C31.789 38.296 31.7192 38.291 31.6589 38.2609V38.2609C30.8011 37.7764 29.9065 37.3604 28.9833 37.0167C28.4749 36.8346 27.954 36.6893 27.4248 36.5819V39.9264C27.9728 40.1013 28.5091 40.3113 29.0301 40.5552L31.5719 41.6655C31.6321 41.6655 31.7324 42.1003 31.6856 41.9063C31.5507 41.4737 31.5208 41.0151 31.5987 40.5686V40.5217C31.6443 40.4198 31.7147 40.3308 31.8035 40.2631C31.8923 40.1953 31.9966 40.1508 32.107 40.1338C32.3557 40.0986 32.6092 40.1286 32.8428 40.2207L33.0502 40.301C33.4376 40.4716 33.8131 40.6682 34.1739 40.8896C34.5351 41.1037 34.8963 41.3378 35.1371 41.4916C35.1371 41.4916 35.1773 41.5786 35.1773 41.5719C35.129 40.828 34.9966 40.092 34.7826 39.3779C34.6554 38.9786 34.4706 38.6001 34.2341 38.2542C33.9908 37.9028 33.6874 37.5971 33.3378 37.3512V37.3512C32.6016 36.8919 31.8045 36.5383 30.9699 36.301V36.301C29.8796 35.9532 29.8796 35.9532 30.6555 35.4983L31.7926 34.8294C32.0201 34.6956 31.5853 34.9498 31.3044 34.903H31.2575C29.9981 34.533 28.7184 34.2359 27.4248 34.0134V34.0201ZM27.4248 40.495V42.1405C27.5623 42.2033 27.703 42.2591 27.8462 42.3077C28.2207 42.4348 28.6823 42.5351 29.184 42.6421L29.6054 42.7358C29.8729 42.4147 30.1338 42.0669 30.388 41.7726L28.8227 41.1037C28.3077 40.8762 27.8261 40.6689 27.4181 40.5351L27.4248 40.495ZM27.4248 44.7625C27.4248 45.2798 27.4136 45.7636 27.3913 46.214C27.369 46.6644 27.3489 47.0412 27.3311 47.3445H28.1405C28.7023 47.3445 29.4604 47.3445 30.4147 47.3445H30.7692L30.7291 47.3043C30.1434 46.6619 29.4833 46.0915 28.7625 45.6053C28.3336 45.2963 27.8869 45.0126 27.4248 44.7558V44.7625ZM35.9866 48.0067C37.0925 47.6695 38.1186 47.1121 39.0034 46.3679C39.8602 45.6461 40.5302 44.7283 40.9565 43.6923C41.4107 42.5661 41.638 41.3614 41.6254 40.1471C41.6516 38.797 41.4247 37.4539 40.9565 36.1873C40.5553 35.1064 39.8603 34.1589 38.9498 33.4515C38.0468 32.7749 37.0262 32.2714 35.9398 31.9665C34.7203 31.6287 33.4593 31.4643 32.194 31.4783C30.3077 31.4783 28.524 31.5318 26.8428 31.6388C26.6985 31.6489 26.5632 31.713 26.464 31.8184C26.3648 31.9238 26.309 32.0626 26.3077 32.2073V43.8461C26.3077 44.7648 26.2965 45.5407 26.2743 46.1739C26.252 46.8071 26.2141 47.3512 26.1605 47.806C26.1512 47.8808 26.1568 47.9566 26.1771 48.0292C26.1973 48.1017 26.2318 48.1695 26.2785 48.2287C26.3252 48.2878 26.3831 48.337 26.449 48.3736C26.5149 48.4101 26.5873 48.4332 26.6622 48.4415H26.6957C27.0301 48.4771 27.5073 48.5017 28.1271 48.515C28.7469 48.5284 29.5162 48.5284 30.4348 48.515H32.1873C33.4802 48.532 34.7682 48.3516 36.0067 47.9799L35.9866 48.0067ZM55.6722 51.1505L55.3779 50.9565C54.4172 50.3518 53.3466 49.9427 52.2274 49.7525C51.1333 49.5972 50.0275 49.539 48.9231 49.5786V49.5786C48.6957 49.5786 48.5619 49.418 48.6288 49.4983L49.7458 50.8361C50.0717 50.9601 50.3909 51.1008 50.7023 51.2575C51.0834 51.4503 51.4481 51.674 51.7926 51.9264V51.9264C51.913 52.0201 52.0401 52.1137 52.1538 52.214C52.6124 52.6089 53.0212 53.0582 53.3712 53.5518L53.4181 53.6187L53.5117 53.5117C54.2662 52.7581 54.9806 51.9655 55.6522 51.1371L55.6722 51.1505ZM53.0836 53.9665L52.9967 53.8395C52.8986 53.7057 52.7982 53.5741 52.6957 53.4448C52.7893 53.6455 52.8829 53.8528 52.9632 54.1137L53.0836 53.9933V53.9665ZM52.5953 54.4214C52.4636 54.018 52.2934 53.6283 52.087 53.2575C51.893 52.9097 51.6856 52.5886 51.4783 52.2876C51.1625 52.0609 50.8292 51.8596 50.4816 51.6856C50.0489 51.474 49.6019 51.2929 49.1438 51.1438C49.2709 51.3445 49.398 51.5518 49.5184 51.7659C49.7527 52.1806 49.9454 52.6175 50.0936 53.0702V53.0702C50.2464 53.5743 50.3517 54.0916 50.408 54.6154C50.4682 55.1037 50.495 55.6187 50.5017 56.1338C51.2107 55.5897 51.8952 55.0145 52.5552 54.408L52.5953 54.4214ZM50.0936 56.4883V56.2876C50.0909 55.7512 50.0596 55.2153 50 54.6823C49.9455 54.1857 49.8447 53.6952 49.699 53.2174C49.5589 52.7948 49.3774 52.387 49.1572 52C48.9498 51.6321 48.7291 51.2843 48.4883 50.9431L47.8194 50.7625C47.4783 50.6823 47.204 50.6221 47.01 50.5819L47.4916 51.505C47.8729 52.2742 47.8729 52.2742 47.1438 52.0267C46.6918 51.8735 46.2163 51.8011 45.7391 51.8127C45.2294 51.8142 44.7202 51.8455 44.214 51.9063C43.6656 51.9665 43.0836 52.0602 42.5284 52.1806C41.9733 52.301 41.4047 52.4482 40.9298 52.5886L40.2609 52.796C40.7347 52.8276 41.2048 52.9014 41.6656 53.0167C42.1609 53.143 42.6426 53.3177 43.1037 53.5385C43.5737 53.7637 44.0216 54.0324 44.4415 54.3411C44.9507 54.7197 45.4253 55.1427 45.8595 55.6053C46.3155 56.0881 46.7316 56.6071 47.1037 57.1572C47.311 57.4649 47.505 57.7793 47.6923 58.1003C48.5262 57.6009 49.3333 57.0613 50.1137 56.4816L50.0936 56.4883ZM47.2776 58.3344C47.097 58.0267 46.9097 57.7191 46.709 57.418C46.3423 56.8883 45.933 56.3894 45.485 55.9264C45.0756 55.4842 44.6279 55.0791 44.1472 54.7157C43.7484 54.4222 43.3229 54.1669 42.8763 53.9532C42.4474 53.747 41.9993 53.5835 41.5385 53.4649C41.2653 53.397 40.9883 53.3457 40.709 53.311C41.5812 53.6725 42.4057 54.1398 43.1639 54.7023C43.6895 55.1273 44.1493 55.6277 44.5284 56.1873C44.9358 56.7847 45.2916 57.4158 45.592 58.0736C45.7324 58.3746 45.8796 58.6956 46.0268 59.0368C46.4504 58.8183 46.8673 58.5953 47.2776 58.3679V58.3344ZM57.6388 15.5853V15.6455L57.2575 16.4415C57.4649 16.3946 57.7525 16.3344 58.0936 16.2742C57.9554 16.0424 57.8127 15.8194 57.6656 15.6053L57.6388 15.5853ZM59.1773 18.2609L58.5084 18.4214C57.8345 18.6079 57.1786 18.8541 56.5485 19.1572C55.812 19.5116 55.1185 19.9492 54.4816 20.4615C53.8688 20.9697 53.3187 21.5491 52.8428 22.1873C52.3078 22.9031 51.8399 23.6666 51.4448 24.4682C51.0435 25.2709 50.6957 26.0803 50.4013 26.816C50.107 27.5518 49.8796 28.1538 49.7324 28.7558C49.5766 29.2334 49.4625 29.7235 49.3913 30.2207C49.346 30.576 49.346 30.9357 49.3913 31.291C49.4218 31.516 49.4642 31.7393 49.5184 31.9599L49.8662 31.8261C50.3612 31.6455 50.8495 31.4649 51.3378 31.2976L51.9197 31.1037C52.2074 30.816 52.495 30.5284 52.7625 30.2542C53.0301 29.9799 53.3445 29.6455 53.6187 29.3244C53.893 29.0033 54.194 28.6555 54.4615 28.2675C54.7024 27.95 54.9257 27.6195 55.1304 27.2776C55.3233 26.9396 55.4975 26.5912 55.6522 26.2341C55.7525 26.0067 55.8462 25.7726 55.9398 25.5652C55.6826 25.5633 55.4319 25.4845 55.2198 25.3391C55.0076 25.1937 54.8438 24.9883 54.7492 24.7492C54.6262 24.4486 54.578 24.1226 54.6087 23.7993C54.6345 23.4774 54.7403 23.167 54.9164 22.8963C55.1029 22.6315 55.3508 22.4158 55.6388 22.2675C55.9749 22.0958 56.3361 21.9784 56.709 21.9197C56.9833 21.8729 57.2709 21.8461 57.5652 21.8261C58.0568 21.7996 58.5449 21.7279 59.0234 21.612C59.4588 21.4871 59.8837 21.3283 60.2943 21.1371L60.4214 21.0769C60.0561 20.1291 59.6431 19.2004 59.184 18.2943L59.1773 18.2609ZM60.5819 21.4849L60.4816 21.5318C60.0495 21.7338 59.6022 21.9016 59.1438 22.0334C58.6391 22.1566 58.1241 22.2328 57.6054 22.2609C57.3244 22.2609 57.0502 22.3077 56.7893 22.3545C56.4677 22.4056 56.1561 22.5072 55.8662 22.6555C55.6451 22.766 55.4545 22.9291 55.311 23.1304C55.182 23.3316 55.104 23.5612 55.0836 23.7993C55.0579 24.0425 55.0923 24.2883 55.1839 24.515C55.2553 24.6838 55.3798 24.8247 55.5385 24.9164C55.7011 25.0077 55.8884 25.0451 56.0736 25.0234H56.2007C56.3785 24.98 56.5495 24.9125 56.709 24.8227C57.0024 24.6607 57.2763 24.4654 57.5251 24.2408C57.699 24.0803 57.8662 23.913 58.0401 23.7391C58.4498 23.3093 58.8975 22.9175 59.3779 22.5686C59.7988 22.2765 60.2468 22.0256 60.7157 21.8194L60.602 21.505L60.5819 21.4849ZM60.8495 22.2475C60.4286 22.4333 60.0256 22.6572 59.6455 22.9164C59.1872 23.2647 58.7618 23.6543 58.3746 24.0803V24.0803C58.194 24.2675 58.0134 24.4415 57.8395 24.602C57.5717 24.858 57.2755 25.0824 56.9565 25.2709C56.7934 25.363 56.6207 25.4371 56.4415 25.4916C56.3211 25.806 56.194 26.1204 56.0535 26.4482C55.8944 26.812 55.7158 27.1671 55.5184 27.5117C55.3141 27.869 55.0908 28.2151 54.8495 28.5485C54.5819 28.9231 54.2809 29.2843 53.9799 29.6321C53.6789 29.9799 53.398 30.301 53.1037 30.5819L52.8896 30.796C53.2107 30.7023 53.5362 30.6109 53.8662 30.5217C54.3746 30.388 54.8896 30.2742 55.4181 30.1672L55.4515 30.1271C56.4348 29.2976 57.4181 28.4682 58.4482 27.4515C58.9833 26.9298 59.5318 26.3478 60.0535 25.7592C60.5753 25.1706 60.9833 24.6689 61.3913 24.1605L61.4047 24.0803C61.2397 23.4604 61.0546 22.8495 60.8495 22.2475V22.2475ZM61.5385 24.6756C61.1906 25.1304 60.796 25.6053 60.3746 26.0803C59.8528 26.6689 59.2977 27.2575 58.7492 27.7926C57.8997 28.6288 57.097 29.3311 56.301 30.0067L56.5217 29.9732L57.5251 29.8261C58.194 29.7391 58.8161 29.6655 59.5318 29.592L60.1605 29.5318C60.8812 29.2399 61.5676 28.8698 62.2074 28.4281C62.0634 27.1644 61.84 25.9111 61.5385 24.6756ZM62.2742 28.9632C62.0203 29.1322 61.7568 29.2863 61.485 29.4247L62.3077 29.3645C62.3077 29.2308 62.2943 29.097 62.2676 28.9632H62.2742ZM62.3478 29.8328C61.4047 29.8997 60.4415 29.9799 59.5385 30.0669L58.4749 30.1806C58.9699 30.3879 59.485 30.6154 60.0401 30.903L60.3612 31.0769C61.0137 31.4535 61.7072 31.7542 62.4281 31.9732C62.4281 31.2508 62.4036 30.5351 62.3545 29.8261L62.3478 29.8328ZM62.4214 32.4682C61.6213 32.2388 60.8529 31.9108 60.1338 31.4916L59.8194 31.3244C59.0748 30.9398 58.3088 30.5981 57.5251 30.301L56.6087 30.4415C55.8127 30.5686 55.0569 30.7224 54.3144 30.903C54.64 30.947 54.9604 31.0232 55.2709 31.1304C56.0303 31.4343 56.7566 31.8153 57.4381 32.2675L57.9264 32.5619C58.4013 32.8495 58.9097 33.1371 59.4381 33.4047C59.9481 33.6642 60.4756 33.8877 61.0167 34.0736C61.4544 34.2191 61.9013 34.3353 62.3545 34.4214C62.408 33.7703 62.4392 33.1148 62.4482 32.4548L62.4214 32.4682ZM62.2876 34.903C61.807 34.8103 61.3333 34.6852 60.8696 34.5284C60.3074 34.3308 59.7597 34.0939 59.2308 33.8194C58.6957 33.5518 58.1806 33.2508 57.6923 32.9632L57.204 32.6689C56.5494 32.2358 55.8524 31.8705 55.1238 31.5786C54.7556 31.4548 54.3737 31.3762 53.9866 31.3445C53.6187 31.311 53.2442 31.311 52.8696 31.3043L52.1137 31.5451L51.4983 31.7525L50.3345 32.1672C50.709 32.6354 51.0903 33.117 51.4649 33.612C51.8395 34.107 52.1338 34.5217 52.4415 35.01C53.2313 35.511 53.9745 36.0819 54.6622 36.7157C54.8896 36.9364 55.097 37.1572 55.3311 37.3846C55.7708 37.8933 56.2744 38.3429 56.8294 38.7224C57.785 39.2311 58.8141 39.5876 59.8796 39.7793C59.9112 39.7846 59.9413 39.7963 59.9681 39.8137C59.995 39.8312 60.018 39.8539 60.0357 39.8806C60.0534 39.9072 60.0654 39.9372 60.0711 39.9687C60.0767 40.0002 60.0759 40.0326 60.0685 40.0637C60.0612 40.0949 60.0476 40.1242 60.0285 40.1499C60.0094 40.1755 59.9852 40.197 59.9574 40.213C59.9297 40.229 59.899 40.2391 59.8672 40.2427C59.8354 40.2463 59.8032 40.2434 59.7726 40.2341C58.6366 40.0435 57.5389 39.6709 56.5217 39.1304C55.9302 38.7256 55.3949 38.2443 54.9298 37.699C54.7224 37.4716 54.5151 37.2508 54.3144 37.0301C53.9082 36.6466 53.4745 36.2934 53.0167 35.9732C53.2508 36.3746 53.4783 36.7893 53.6856 37.2107C54.1504 38.092 54.6594 38.9493 55.2107 39.7793C55.6361 40.389 56.12 40.9558 56.6555 41.4716C57.1723 41.9633 57.7295 42.4108 58.3211 42.8094C58.8562 43.1772 59.4248 43.5251 60.0201 43.8595C60.6912 42.2781 61.226 40.6423 61.6187 38.9699L61.4248 38.796C61.014 38.4229 60.5657 38.0933 60.087 37.8127C59.2556 37.3622 58.3818 36.9947 57.4783 36.7157L57.0769 36.5752C56.7307 36.4646 56.3949 36.3236 56.0736 36.1538C55.8232 36.0219 55.6147 35.8227 55.4716 35.5786C55.3401 35.332 55.2755 35.0552 55.2843 34.7759C55.2881 34.5171 55.3697 34.2654 55.5184 34.0535C55.5991 33.9495 55.6999 33.8627 55.8148 33.7983C55.9297 33.734 56.0564 33.6934 56.1873 33.6789C56.489 33.6563 56.7914 33.714 57.0635 33.8461C57.3844 34.007 57.691 34.195 57.9799 34.408C58.3519 34.6737 58.7407 34.915 59.1438 35.1304C60.093 35.6153 61.1415 35.874 62.2074 35.8863C62.2475 35.5607 62.2832 35.233 62.3144 34.903H62.2876ZM62.1137 36.3545C61.0078 36.3292 59.9217 36.0548 58.9365 35.5518C58.521 35.3218 58.1211 35.0648 57.7391 34.7826C57.4728 34.5861 57.1909 34.4116 56.8963 34.2609C56.6993 34.1634 56.4802 34.1196 56.2609 34.1338C56.1885 34.1386 56.1178 34.1584 56.0534 34.1918C55.9889 34.2251 55.9321 34.2714 55.8863 34.3277C55.7918 34.4679 55.7428 34.6337 55.7458 34.8027C55.7398 34.9956 55.7836 35.1868 55.8729 35.3578C55.9761 35.5267 56.1244 35.6633 56.301 35.7525C56.5968 35.9084 56.9057 36.0382 57.2241 36.1405L57.6187 36.2742C58.5457 36.5647 59.4419 36.9456 60.2943 37.4114C60.8017 37.7094 61.2769 38.0591 61.7124 38.4548C61.864 37.7547 61.9911 37.0479 62.0936 36.3344L62.1137 36.3545ZM32.4348 43.7124L33.0167 42.8829L34.0201 41.4649L33.8729 41.3779C33.5426 41.1637 33.1985 40.9715 32.8428 40.8027L32.6689 40.7358C32.5211 40.6737 32.3604 40.6484 32.2007 40.6622C32.1763 40.6669 32.1533 40.6772 32.1336 40.6923C32.1139 40.7074 32.0979 40.7268 32.087 40.7492C32.0468 41.1024 32.081 41.4601 32.1873 41.7993C32.3746 42.5886 32.3746 42.5886 31.3779 42.1538L30.8361 41.913C30.5864 42.2207 30.3411 42.5195 30.1003 42.8094C30.5194 42.9112 30.9326 43.0363 31.3378 43.1839C31.7195 43.3269 32.0925 43.4922 32.4549 43.6789L32.4348 43.7124ZM2.57526 24.1739C3.34449 24.0401 3.34449 24.0803 2.90301 24.689C2.59984 25.1121 2.37343 25.5853 2.23412 26.0869C2.1271 26.4214 2.02676 26.8227 1.93312 27.2642C1.68853 28.8287 1.56553 30.4098 1.56522 31.9933V32.107C1.74877 31.6424 1.97258 31.1948 2.23412 30.7692C2.52142 30.2915 2.85527 29.8434 3.23077 29.4314C3.61578 29.0138 4.03903 28.6331 4.49499 28.2943C5.05039 27.8835 5.64137 27.5231 6.26087 27.2174C6.90682 26.8957 7.57795 26.6272 8.26756 26.4147C8.86957 26.2274 9.47158 26.0936 10.0669 25.9599C10.8086 25.8111 11.5394 25.6122 12.2542 25.3645C12.8578 25.1321 13.4361 24.8385 13.9799 24.4883C14.2141 24.3411 14.4415 24.1873 14.6488 24.0201C14.2876 24.0201 13.9197 24.0201 13.5585 24.0201C12.9475 24.0237 12.3371 23.9812 11.7324 23.893C10.8782 23.7346 10.0374 23.511 9.2174 23.2241L8.28763 22.9364C7.7268 22.7682 7.15744 22.6297 6.58194 22.5217C6.04832 22.4203 5.5064 22.3688 4.96322 22.3679C4.47029 22.3761 3.97948 22.4344 3.49833 22.5418L3.00335 22.6622C2.85173 23.1616 2.70903 23.6655 2.57526 24.1739ZM3.97325 20.107L4.30101 19.8461C4.43479 19.748 4.5708 19.6544 4.70903 19.5652C5.27228 19.2138 5.87659 18.933 6.50837 18.7291V18.7291C7.14804 18.5131 7.80993 18.3695 8.48161 18.301C9.25178 18.2379 10.0258 18.2379 10.796 18.301C11.1371 18.301 11.4649 18.3411 11.699 18.3411C11.9759 18.3472 12.2517 18.3065 12.5151 18.2207C12.6449 18.18 12.7592 18.1007 12.8428 17.9933V17.9398C12.8547 17.9097 12.8547 17.8762 12.8428 17.8461C12.8083 17.7788 12.7548 17.723 12.689 17.6856C12.6026 17.6277 12.5107 17.5784 12.4147 17.5385C11.8039 17.3195 11.1779 17.1451 10.5418 17.0167L9.83278 16.8495C9.43144 16.7492 9.12375 16.6555 8.89633 16.5752C8.6689 16.495 8.50837 16.4281 8.41472 16.388C7.78596 16.1204 7.79265 16.1137 8.53512 15.7191L9.8194 15.0502C9.94649 14.9833 9.64549 15.1371 9.49164 15.0903C9.01478 14.9406 8.54593 14.7664 8.08696 14.5686C7.83639 14.4294 7.59305 14.2776 7.35786 14.1137C5.99975 15.9845 4.8597 18.0043 3.95987 20.1338L3.97325 20.107ZM7.64549 13.7391C7.87291 13.8662 8.10034 13.9732 8.31439 14.0736C8.75172 14.2629 9.1982 14.4303 9.65218 14.5752V14.5752C9.9398 14.6689 10.1605 14.7425 10.3211 14.8027C10.6221 14.6956 10.9298 14.5886 11.2508 14.4816C11.7645 14.309 12.287 14.1639 12.8161 14.0468C13.4243 13.9165 14.0414 13.8315 14.6622 13.7926C15.2241 13.755 15.7883 13.7685 16.3478 13.8328C16.8253 13.8936 17.2972 13.992 17.7592 14.1271C17.3133 13.8684 16.8896 13.6187 16.4883 13.3779L16.3478 13.2976C15.1747 12.6263 13.9592 12.032 12.709 11.5184C12.2542 11.7257 11.7926 11.9264 11.3712 12.107C10.8954 12.3013 10.4057 12.4601 9.90636 12.5819C9.46673 12.6832 9.0191 12.7458 8.56857 12.7692H8.41472C8.16054 13.0858 7.91082 13.4047 7.66556 13.7257L7.64549 13.7391ZM8.80268 12.2876C9.13372 12.2566 9.46225 12.203 9.78596 12.1271C10.2625 12.0099 10.7297 11.8578 11.184 11.6722C11.4916 11.5518 11.7993 11.4181 12.107 11.2843C11.485 11.0502 10.8629 10.8495 10.2743 10.6756C9.76589 11.1929 9.27537 11.7302 8.80268 12.2876V12.2876ZM10.6488 10.2809C11.3177 10.4883 12.0602 10.7358 12.7893 11.0301C13.7603 11.4245 14.7093 11.8711 15.6321 12.3679C15.4515 12.1538 15.2776 11.9465 15.097 11.7458C14.6871 11.2653 14.2398 10.8179 13.7592 10.408C13.3327 10.0583 12.8683 9.75763 12.3746 9.5117C12.1516 9.40021 11.9287 9.29988 11.7057 9.21069C11.3311 9.54514 10.9654 9.88851 10.6087 10.2408L10.6488 10.2809ZM23.6923 6.88962C23.8375 7.61002 24.0618 8.31216 24.3612 8.98327C24.5387 9.35016 24.7468 9.70145 24.9833 10.0334C25.2224 10.3658 25.4792 10.6851 25.7525 10.99C26.0201 11.291 26.2876 11.5719 26.5686 11.8395L26.9766 12.2274V12.1271C26.9108 11.4194 26.7832 10.7189 26.5953 10.0334C26.2304 8.83338 25.7323 7.67792 25.1104 6.58862L24.9699 6.32775C24.7425 5.90635 24.6087 5.62541 24.5217 5.41805V5.37792C24.4415 5.53845 24.3545 5.69899 24.2676 5.85283C24.107 6.15384 23.9064 6.52173 23.7124 6.90969L23.6923 6.88962ZM3.19064 22.1538L3.41138 22.0736C3.92323 21.9587 4.4454 21.8959 4.9699 21.8863C5.54754 21.8945 6.12312 21.9572 6.68897 22.0736C7.28021 22.1828 7.8652 22.3235 8.44148 22.495L9.37793 22.7826C10.1759 23.0673 10.9943 23.2909 11.8261 23.4515C12.4086 23.5359 12.9967 23.5762 13.5853 23.5719C14.1605 23.5719 14.7492 23.5719 15.3445 23.5184L15.6254 23.2976L15.8462 23.1237C16.6638 22.4161 17.5839 21.8365 18.5753 21.4047C17.8395 21.3445 17.0502 21.2642 16.1204 21.1237C15.0769 20.9632 13.8395 20.7358 12.6421 20.5084L11.204 20.2408C10.4147 20.0936 9.67893 19.9732 9.00335 19.8796C8.40509 19.7947 7.80158 19.7522 7.19733 19.7525C6.71829 19.759 6.24105 19.8128 5.77258 19.913C5.35118 20 4.95653 20.1204 4.56188 20.2408C4.22351 20.4962 3.9059 20.778 3.61204 21.0836L3.55853 21.1371C3.42921 21.4716 3.30658 21.8105 3.19064 22.1538V22.1538ZM17.6923 11.2107C17.6923 11.2709 17.6923 11.291 17.6923 11.2107V11.2107ZM25.6187 61.7726C25.4479 60.8266 25.1056 59.9198 24.6087 59.097C24.2033 58.5584 23.7364 58.069 23.2174 57.6388C22.8809 57.3477 22.5594 57.0396 22.2542 56.7157C21.8721 56.2865 21.5399 55.8152 21.2642 55.311C21.3177 55.7726 21.3646 56.2341 21.4114 56.689C21.505 57.5987 21.592 58.5017 21.6656 59.3244L21.7258 59.9933L21.7793 60.6622C23.0295 61.107 24.3076 61.469 25.6054 61.7458L25.6187 61.7726ZM20.8696 60.3411C20.9632 60 21.0636 59.6722 21.1639 59.3311C21.0903 58.515 21.01 57.6321 20.9164 56.7291C20.796 55.5518 20.6555 54.3411 20.5017 53.204C20.4482 52.8116 20.3924 52.4281 20.3345 52.0535C20.1338 52.602 19.9064 53.1639 19.612 53.7793L19.4381 54.1338C18.862 55.186 18.4856 56.3358 18.3278 57.5251C18.2676 58.0067 18.2341 58.5485 18.2207 59.1304C19.0814 59.5764 19.9732 59.9732 20.8963 60.3211L20.8696 60.3411ZM9.68562 52.7023C9.84828 51.8548 10.1369 51.0364 10.5418 50.2742C10.9601 49.6153 11.4639 49.0147 12.0401 48.4883C12.2743 48.2542 12.5084 48.0201 12.709 47.8194C13.1097 47.3654 13.4763 46.8825 13.806 46.3746C13.3779 46.6421 12.9365 46.9097 12.4682 47.1772C11.5296 47.7175 10.6188 48.3047 9.73914 48.9364C9.09761 49.4153 8.50397 49.9552 7.96656 50.5485L7.88629 50.6354C8.44817 51.3623 9.04125 52.0624 9.66556 52.7358L9.68562 52.7023ZM7.58529 50.1672C8.14531 49.5496 8.76355 48.9873 9.43144 48.4883C10.3262 47.8467 11.2526 47.2506 12.2074 46.7023C12.8294 46.3277 13.4448 45.9599 14.0134 45.592L14.4549 45.2976C14.4756 45.2638 14.5039 45.2354 14.5376 45.2144C14.5712 45.1935 14.6094 45.1808 14.6488 45.1772C15.0569 44.8896 15.4381 44.602 15.806 44.3077C14.4789 44.3421 13.1578 44.4988 11.8595 44.7759C11.239 44.9383 10.6362 45.1624 10.0602 45.4448C9.52258 45.6935 9.01535 46.0033 8.5485 46.3679C8.19322 46.6506 7.8722 46.9739 7.59198 47.3311C7.33111 47.6655 7.11037 48 6.88964 48.3478C6.85327 48.4046 6.79584 48.4446 6.72998 48.459C6.66413 48.4734 6.59523 48.4611 6.53847 48.4247C6.4817 48.3884 6.4417 48.3309 6.42727 48.2651C6.41285 48.1992 6.42518 48.1303 6.46154 48.0736C6.68897 47.7191 6.91639 47.3712 7.19733 47.0167C7.50168 46.6302 7.84957 46.2801 8.23412 45.9732C8.73215 45.5831 9.27298 45.251 9.84616 44.9833C10.4556 44.6978 11.092 44.4737 11.7458 44.3144C13.2873 43.9989 14.8549 43.8287 16.4281 43.806H16.5017C16.8963 43.4782 17.2776 43.1371 17.6522 42.8227L17.3044 41.9866C17.1514 41.9865 16.9997 41.9593 16.8562 41.9063C16.7622 41.8724 16.6706 41.8321 16.5819 41.7859C16.2611 41.6155 15.9734 41.3889 15.7324 41.117C15.4675 40.8199 15.2426 40.4893 15.0636 40.1338C14.7779 39.5496 14.5278 38.9487 14.3144 38.3344C14.1405 37.8729 13.9666 37.4047 13.7659 36.9498C13.5464 36.4286 13.2824 35.9273 12.9766 35.4515C12.6888 35.0038 12.3423 34.5966 11.9465 34.2408C11.5259 33.8667 11.0439 33.568 10.5217 33.3578C9.98825 33.1454 9.42311 33.0234 8.8495 32.9966C8.17762 32.9775 7.50548 33.0246 6.84281 33.1371C6.35452 33.2107 5.90636 33.3043 5.54516 33.3846L6.02007 33.4448C7.11706 33.6655 7.11706 33.6655 5.89298 34.2475C5.63211 34.3746 5.22409 34.5619 4.79599 34.8027C4.33002 35.0555 3.88292 35.3416 3.4582 35.6589C3.04447 35.9768 2.6554 36.3256 2.29432 36.7023L2.00669 37.0568L2.06689 37.4047C2.61539 37.2642 3.1572 37.1237 3.67893 36.9699L4.16054 36.8227C4.74609 36.6272 5.34526 36.4752 5.95318 36.3679C6.32473 36.3088 6.70211 36.2953 7.07693 36.3277C7.46291 36.3637 7.84153 36.4561 8.20067 36.602C8.57377 36.7555 8.92831 36.9507 9.25753 37.1839C9.60962 37.43 9.93671 37.7101 10.2341 38.0201C10.723 38.5564 11.1494 39.1466 11.505 39.7793L12.6622 41.6655C12.7468 41.8032 12.8057 41.955 12.8361 42.1137C12.8616 42.2441 12.8476 42.3792 12.796 42.5017C12.7461 42.6176 12.6621 42.7155 12.5552 42.7826V42.7826C12.4458 42.8451 12.3255 42.8859 12.2007 42.903C11.8893 42.9348 11.5756 42.9348 11.2642 42.903C10.7276 42.8625 10.1888 42.8625 9.65218 42.903C9.018 42.9574 8.3907 43.0739 7.77927 43.2508C7.19333 43.414 6.62612 43.6382 6.08696 43.9197C5.52761 44.2261 5.01045 44.6038 4.5485 45.0435L4.68228 45.4849C4.99666 45.4849 5.04348 45.5251 4.87626 45.8662C5.64717 47.3717 6.54212 48.8103 7.55184 50.1672H7.58529ZM4.24081 44.5685C4.71347 44.1424 5.23694 43.7762 5.79934 43.4783C6.372 43.1936 6.9728 42.9694 7.59198 42.8094C8.23404 42.6233 8.89265 42.5001 9.55853 42.4415C10.1196 42.399 10.6831 42.399 11.2442 42.4415C11.5178 42.4673 11.7933 42.4673 12.0669 42.4415C12.1277 42.4348 12.1868 42.4167 12.2408 42.3879V42.3879C12.2612 42.3749 12.2774 42.3564 12.2876 42.3344C12.2973 42.2994 12.2973 42.2624 12.2876 42.2274C12.2685 42.1325 12.2323 42.0418 12.1806 41.9599V41.9599V41.9197C11.9966 41.661 11.7705 41.4349 11.5117 41.2508C11.0355 40.9024 10.5244 40.6042 9.98663 40.3612C9.19007 39.996 8.37515 39.6723 7.54516 39.3913C6.64883 39.0836 5.71238 38.8027 4.86957 38.6087C4.18857 38.4433 3.49841 38.3182 2.80268 38.2341L2.13378 38.1739C2.58857 40.3904 3.29085 42.5489 4.22743 44.6087L4.24081 44.5685ZM13.7391 56.3612C13.7051 55.1153 13.9615 53.8787 14.4883 52.7492C14.7152 52.2869 14.9722 51.84 15.2575 51.4114C15.4608 51.1141 15.6398 50.801 15.7926 50.4749C15.8874 50.2654 15.9266 50.035 15.9064 49.806C15.8986 49.7269 15.8744 49.6504 15.8352 49.5812C15.796 49.5121 15.7428 49.452 15.6789 49.4047C15.523 49.3072 15.3408 49.2605 15.1572 49.2709C14.946 49.271 14.7384 49.3263 14.5552 49.4314C14.3745 49.5498 14.2307 49.7167 14.1405 49.913C13.9818 50.24 13.8519 50.5802 13.7525 50.9298L13.6187 51.3645C13.3428 52.3869 12.9664 53.3795 12.495 54.3277C12.3612 54.5752 12.2207 54.8094 12.0669 55.0435C12.6065 55.4894 13.1617 55.9353 13.7324 56.3813L13.7391 56.3612ZM11.2508 40.4415L11.0034 40.0334C10.6683 39.4329 10.2666 38.8719 9.80602 38.3612C9.53073 38.0761 9.22829 37.8184 8.90302 37.592C8.60532 37.38 8.2844 37.2027 7.94649 37.0635C7.63438 36.9363 7.3054 36.8552 6.9699 36.8227C6.63535 36.7929 6.29839 36.8041 5.96656 36.8562C5.38361 36.9615 4.80908 37.1091 4.2475 37.2976L3.79265 37.4582L2.9097 37.7057C3.61874 37.7925 4.32223 37.9198 5.01673 38.0869C5.84616 38.2876 6.79599 38.5686 7.69231 38.8829C8.53826 39.1698 9.3688 39.5002 10.1806 39.8729C10.5593 40.0481 10.9278 40.2446 11.2843 40.4615L11.2508 40.4415Z" fill="white"/>
</g>
<defs>
<clipPath id="clip0_12_2">
<rect width="64" height="64" fill="white"/>
</clipPath>
</defs>
</svg>
