<svg xmlns="http://www.w3.org/2000/svg" viewBox="0 0 95.68 95.68"><defs><style>.cls-1{fill:#a8884e;fill-rule:evenodd;}</style></defs><title>Ресурс 1</title><g id="Слой_2" data-name="Слой 2"><g id="_1" data-name="1"><path class="cls-1" d="M47.84,0A47.84,47.84,0,1,1,14,14,47.69,47.69,0,0,1,47.84,0Zm-4,93.17q2,.18,4,.18a45.32,45.32,0,0,0,20.35-4.79c-.21-.49-.43-1-.66-1.46A18.43,18.43,0,0,0,66,84.38a9.55,9.55,0,0,0-1.92-2.06,19.71,19.71,0,0,0-4.62-2.45h0c-1.89-.76-1.89-.77-.22-1.33l.08,0-.06-.22a4.33,4.33,0,0,0-.25-.63,6.76,6.76,0,0,0-1.3-1.83,11.12,11.12,0,0,0-1.14-1l-.81.17-.88.15c0,.78-.13.72-.93.37l-.45-.2-.75.06a19.84,19.84,0,0,1,.52,2.95,14.15,14.15,0,0,1,0,2.46,11.45,11.45,0,0,1-.41,2.26A13.66,13.66,0,0,1,52,85.24c-.31.63-.61,1.15-.81,1.5h0c-.87,1.52-.88,1.52-1.26-.12v-.06a15.65,15.65,0,0,0-1-3.24A10.32,10.32,0,0,0,47.16,81l-.48,1.5c-.4,1.25-.4,1.25-1.27-.28-.22-.39-.56-1-.88-1.64a14.74,14.74,0,0,1-.89-2.15,13.65,13.65,0,0,1-.46-2.48l-.05-.43H42q-.5.71-1,1.41a14.88,14.88,0,0,1,1.79,1.91A13,13,0,0,1,44.13,81c2,4.07,1,8.05-.34,12.18Zm-.74-.07c.28-.85.56-1.69.78-2.43a15.9,15.9,0,0,0,.61-3.15,16.74,16.74,0,0,0,0-2.23l-.22-.08a30.8,30.8,0,0,1-4.39-2.47c-.86-.59-1.8-1.31-2.73-2.07s-2-1.69-2.88-2.54-1.81-1.77-2.62-2.63h-.88l.13.73h0c.18,1,.34,2.09.49,3.2q.07.5.13,1a15.15,15.15,0,0,0,2.31,3.81,18.74,18.74,0,0,0,1.38,1.33,13.47,13.47,0,0,1,2.2,2.32,11.76,11.76,0,0,1,1.55,4h0L39,92l.11.47c0,.09,0,.09.18.1l.69.08.23,0h0q1.41.24,2.84.39Zm1.35-8.67,0-.16a9.71,9.71,0,0,0-.94-2.94,12.29,12.29,0,0,0-1.25-2.05,15.25,15.25,0,0,0-1.89-2h0c-.31-.29-.61-.56-.87-.84a8.91,8.91,0,0,1-.8-.94H32.71c.65.68,1.34,1.37,2.09,2.08s1.86,1.69,2.84,2.5,1.82,1.45,2.67,2a29.38,29.38,0,0,0,4.1,2.32ZM28.17,71.24h0c0-.23,0-.45.06-.67,0-.6,0-1.2,0-1.81-.14-.41-.28-.81-.43-1.21v0l-.37-1c-.24-.63-.49-1.25-.74-1.86-.74.64-1.49,1.28-2.28,1.91S23,67.71,22.2,68.25A25.49,25.49,0,0,1,19.56,72c-.35.38-.69.73-1,1.07a12.65,12.65,0,0,0-2.11,2.51,13.55,13.55,0,0,0-1.31,3.92l.55.56q.91.91,1.86,1.76c.19-.3.37-.6.54-.92a23.37,23.37,0,0,0,1.63-4.3l.2-.66a9.94,9.94,0,0,1,.63-1.65,2.45,2.45,0,0,1,.9-1,2.6,2.6,0,0,1,1.29-.35,2.09,2.09,0,0,1,1.23.34,1.6,1.6,0,0,1,.65,1.11,2.78,2.78,0,0,1-.22,1.43,10.3,10.3,0,0,1-.86,1.52,17.29,17.29,0,0,0-1.11,1.93,11.23,11.23,0,0,0-1,5.07c0,.2,0,.39,0,.59q.67.48,1.37.94c0-.39.09-.79.15-1.18a18.42,18.42,0,0,1,.58-2.7,20.86,20.86,0,0,1,1.05-2.7c.41-.88.86-1.74,1.3-2.55l.45-.82c.35-.63.69-1.23,1-1.8v-2a.86.86,0,0,1,.85-.85Zm.81-.06h0l0-.09v.09Zm.79-.13.41-.11a3.29,3.29,0,0,0,.92-.44L31,70.43c-.56-.45-1.08-.91-1.59-1.37l-.36-.33q.26.78.5,1.57l.21.75ZM31.64,70a3.48,3.48,0,0,0,.47-.74l0-.06a3.78,3.78,0,0,0,.3-1.19q.07-.8.11-2.23,0-.89,0-2.17l-.38-.11A14.26,14.26,0,0,0,29.8,63a6.87,6.87,0,0,0-1.74.06,10.4,10.4,0,0,0-1.1.25l.23.56h0c.33.79.64,1.57.94,2.35l.35.93c.48.45,1,.9,1.42,1.32s1,.91,1.56,1.34l.15.12Zm.94-7.18V56.11a13.32,13.32,0,0,0-1.9,1.42A17.82,17.82,0,0,0,29,59.29,20.78,20.78,0,0,0,27.68,61c-.37.54-.7,1.06-1,1.58l0,.06a11.42,11.42,0,0,1,1.27-.29,7.68,7.68,0,0,1,1.92-.06,15,15,0,0,1,2.52.49l.19.05Zm0-7.56V53.07c-.61.25-.51,0,0-.88V50.43a6.22,6.22,0,0,0-3,.42,5,5,0,0,0-1.47.94,6.65,6.65,0,0,0-1.29,1.74,7.25,7.25,0,0,0-.75,2.11,6.72,6.72,0,0,0,.32,3.09l.08.29a15.58,15.58,0,0,1,.36,1.63l0,.13.17-.25a21.28,21.28,0,0,1,1.33-1.73A18.73,18.73,0,0,1,30.17,57a13.88,13.88,0,0,1,2.29-1.66l.12-.07Zm0-5.56V35.22c-1.09.66-2.28,1.46-3.44,2.23l-1.66,1.11a33.48,33.48,0,0,1-3.15,1.88A16.4,16.4,0,0,1,21,41.72a39.85,39.85,0,0,1-5.38.86c-.85.1-1.68.19-2.46.31a19.86,19.86,0,0,0-3.32.73A10.46,10.46,0,0,0,7,45a21.49,21.49,0,0,0-4,4l-.63.76a45.65,45.65,0,0,0,.44,4.68l.1-.1A16.28,16.28,0,0,1,4.73,52.7a17.14,17.14,0,0,1,2.11-1.34c.55-.3,1.05-.55,1.43-.73l-1.43-.29c-2.27-.46-2.27-.46.69-1.12.61-.14,1.53-.34,2.54-.5a16,16,0,0,1,3.2-.22A8.49,8.49,0,0,1,16,49.1a8,8,0,0,1,2.34,1.46,9.7,9.7,0,0,1,1.67,2,15.6,15.6,0,0,1,1.24,2.35c.3.68.57,1.41.83,2.11a24.24,24.24,0,0,0,1.08,2.6,6,6,0,0,0,.91,1.31,3.74,3.74,0,0,0,1.05.81l.32.14a1,1,0,0,0,.47.07.21.21,0,0,0,.16-.11l0-.05a2.39,2.39,0,0,0,0-1,14.32,14.32,0,0,0-.34-1.54l-.08-.29a7.34,7.34,0,0,1-.34-3.42,8.06,8.06,0,0,1,.83-2.34,7.42,7.42,0,0,1,1.45-1.94,5.68,5.68,0,0,1,1.7-1.08,6.83,6.83,0,0,1,2.08-.49,7,7,0,0,1,1.18,0Zm0-15.25V31.82a16.21,16.21,0,0,0-2.81.29h0a13,13,0,0,0-5.63,3l-.33.26-.5.39h0l0,0h0c-.65.5-1.31,1-2,1.39a14.85,14.85,0,0,1-2.7,1.37,25.56,25.56,0,0,1-3.37.92c-.88.2-1.77.4-2.64.67a19.24,19.24,0,0,0-2.9,1.16,16.73,16.73,0,0,0-2.54,1.54,12.89,12.89,0,0,0-1.79,1.61A11.93,11.93,0,0,0,3.91,46.3a11.58,11.58,0,0,0-.71,1.37,19.09,19.09,0,0,1,3.44-3.28,11.11,11.11,0,0,1,2.95-1.44A20.63,20.63,0,0,1,13,42.2c.79-.11,1.63-.21,2.48-.31a39.56,39.56,0,0,0,5.28-.84A15.76,15.76,0,0,0,24,39.81,33,33,0,0,0,27.1,38l1.66-1.1c1.3-.87,2.63-1.76,3.83-2.47Zm0-3.28V29.88q0-2.89.11-4.72l-.61-.42L28.17,25a.85.85,0,0,1-.9-.8V22.1l-.48-.15a13.86,13.86,0,0,0-2.43-.55,13.24,13.24,0,0,0-2.4-.06,18.05,18.05,0,0,0-2.65.37,22.26,22.26,0,0,0-2.21.6c-.68.22-1.36.47-2,.72L13.3,24l.3.11c.32.11.76.25,1.34.4l1,.25a20.38,20.38,0,0,1,2.92.82,3,3,0,0,1,.54.29,1.25,1.25,0,0,1,.48.57.85.85,0,0,1,0,.65,1.21,1.21,0,0,1-.12.21,1.67,1.67,0,0,1-.82.59,4.36,4.36,0,0,1-1.45.22c-.42,0-.88,0-1.4-.06a20.7,20.7,0,0,0-3.35,0,12.83,12.83,0,0,0-2.8.61h0c-.32.11-.64.23-.94.36a11.41,11.41,0,0,1,1.74-.16,19.72,19.72,0,0,1,2.8.2c1,.13,2.13.32,3.32.54L19,30c1.78.34,3.61.68,5.18.92,2.17.33,3.82.44,5.45.55a17,17,0,0,1,2.92-.3ZM27.26,20.77v-.06a.85.85,0,0,1,.85-.85h.06l2.06,0c-.29-.39-.56-.82-.85-1.27l-.17-.27c-.65-1-1.35-2.06-1.73-2.61L27.1,17c-.33,1.07-.33,1.07-1.24-.18h0a12.58,12.58,0,0,0-2.81-3,7,7,0,0,0-2.31-1,11.88,11.88,0,0,0-1.62-.29l-1,.81.74.34a11.67,11.67,0,0,1,2.2,1.43,18.5,18.5,0,0,1,2,2c.65.74,1.28,1.52,1.91,2.3q1.11.64,2.23,1.33Zm3.87-1,2.79,0A16.55,16.55,0,0,0,33.77,18l-.05-.46a21.62,21.62,0,0,1-.17-2.39,37.37,37.37,0,0,0-4.06-3.69,3.61,3.61,0,0,0-1.88-.75l.52,1.57c.38,1.15.38,1.15-1.16.47h0A21,21,0,0,0,23,11.4a9.65,9.65,0,0,0-2.14-.21h0l-1,.75c.37.06.72.13,1,.21a7.65,7.65,0,0,1,2.53,1.13,13.13,13.13,0,0,1,3,3.1.35.35,0,0,1,.08.29l.46-1.51c.32-1.07.33-1.06,1.1.08l0,0c.39.57,1.13,1.66,1.74,2.63l.17.27a12.11,12.11,0,0,0,1.15,1.63Zm3.48,0,3.47,0,2.3,0c0-.14,0-.29,0-.43-.38-.35-.76-.71-1.15-1.1s-.84-.84-1.25-1.31a17.68,17.68,0,0,1-1.19-1.49,11.57,11.57,0,0,1-1-1.64,12.59,12.59,0,0,1-.84-2.4,10.55,10.55,0,0,0-.43,1.3A9.87,9.87,0,0,0,34.24,15a.33.33,0,0,1,0,.07v.05a20.87,20.87,0,0,0,.16,2.36l.05.46a16.1,16.1,0,0,1,.15,1.81Zm6.47-.06h2.22q.17-.45.3-.9A9,9,0,0,0,43.93,17a9.07,9.07,0,0,0-.07-1.74c-.07-.53-.18-1.09-.29-1.65l-.12-.18a19.1,19.1,0,0,0-2-2.37,25.32,25.32,0,0,0-2-1.86,18.2,18.2,0,0,0-2-1.47l-.28-.15.11.27c.13.3.32.71.64,1.31l.21.39a25.74,25.74,0,0,1,2.28,5.29A18.87,18.87,0,0,1,41,18.08c0,.34.05.68.07,1h0a.33.33,0,0,1,0,.06h0c0,.19,0,.38,0,.57Zm3,0h1.34c0-.15,0-.32,0-.51a12,12,0,0,0-.11-1.45,8.84,8.84,0,0,0-.54-2.05l-.15-.34A9.48,9.48,0,0,1,44.62,17a9.67,9.67,0,0,1-.35,2q-.1.36-.23.71Zm2.26,0,1.27,0c0-.61,0-1.15,0-1.55v0c0-.06.49-.65.25-.35l-1.47,1.83-.06.08Zm2,.07a33.37,33.37,0,0,1,5.49.74,22.53,22.53,0,0,1,3.1.94q0-.33.08-.66A51.84,51.84,0,0,1,59,12c.79-2.52,1.71-5,2.64-7.51a45.6,45.6,0,0,0-39.84,6.08,10.06,10.06,0,0,1,1.39.2,21.69,21.69,0,0,1,4.07,1.45h0c.11,0,.33.71.22.38l-.54-1.64c-.28-.87-.29-.88.54-.85h0a4.1,4.1,0,0,1,2.38.87,32.69,32.69,0,0,1,3.7,3.32,9.9,9.9,0,0,1,.28-1.77,13.16,13.16,0,0,1,.88-2.34h0c.31-.65.63-1.23.89-1.72l.38-.7.23-.42c.41-.67.69-.74,1.58-.2a18.94,18.94,0,0,1,2.08,1.53A26.12,26.12,0,0,1,42,10.54,19.74,19.74,0,0,1,44,13l.15.22,0,.05a12.25,12.25,0,0,1,1.16,2.15,9.56,9.56,0,0,1,.59,2.21,11.75,11.75,0,0,1,.11,1.28l1.24-1.55c1-1.22,1-1.22,1,.79v0c0,.4,0,1,0,1.59Zm9.24,1.95A16.17,16.17,0,0,1,60,23a12.39,12.39,0,0,1,1.74,1.36c.39-3,.77-5.71,1.26-8.21.4-2,.89-3.94,1.41-5.78.43-1.52.89-3,1.34-4.43Q64,5.26,62.26,4.67c-.94,2.49-1.86,5-2.64,7.5a51.17,51.17,0,0,0-2,8.72c0,.28-.07.56-.1.85ZM62.32,25a10.65,10.65,0,0,1,1.79,2.7c.23-.53.37-.28.78.48l.86,1.59c.16.29-.16-.29-.15-.31v0a13.34,13.34,0,0,1,1.66-3.39h0a5.66,5.66,0,0,1,1.47-1.35,6.57,6.57,0,0,1,1.76-.78,14.15,14.15,0,0,1,3.2-.44h0c1.34-.06,1.33-.05.49,1.15-.21.31-.53.76-.86,1.28a12.52,12.52,0,0,0-.82,1.43l-.1.24a1.36,1.36,0,0,0-.12.64.21.21,0,0,0,.12.16h0a3.51,3.51,0,0,0,1.45-.09c1.09-.22,1.09-.22.44,1.13l-1.65,3.44a7.61,7.61,0,0,0-1.05,3,.73.73,0,0,0,0,.14.56.56,0,0,0,.27.32.87.87,0,0,0,.51.08l.23-.05a2,2,0,0,0,.88-.66,4.88,4.88,0,0,0,.76-1.39c.19-.51.35-1.14.53-1.81a22,22,0,0,1,.92-2.94A15.24,15.24,0,0,1,77,27.25,19.18,19.18,0,0,1,78.67,25a8.53,8.53,0,0,1,1.45-1.38,5,5,0,0,1,1.63-.77,10.21,10.21,0,0,1,1.91-.29c.63,0,1.2,0,1.57,0h.42A45.69,45.69,0,0,0,66.36,6.26c-.45,1.43-.9,2.87-1.32,4.34-.52,1.82-1,3.7-1.39,5.73-.53,2.65-.92,5.52-1.33,8.7Zm2.4,4.33a14.59,14.59,0,0,1,.54,4.07,11.11,11.11,0,0,1-1.75,6c.08.22.16.43.25.62.2.5.41,1,.55,1.27.75,1.65.75,1.65-.56.85l-1.27-.78a5.7,5.7,0,0,0-.23,1.87,5.64,5.64,0,0,0,.34,1.71,4.56,4.56,0,0,0,.81,1.39A6.1,6.1,0,0,0,65,47.58a6.69,6.69,0,0,0,1.92.76,6.17,6.17,0,0,0,2.85-.2l.27-.06a14.18,14.18,0,0,1,1.51-.28h.12l-.23-.17a19.49,19.49,0,0,1-1.55-1.28,17.29,17.29,0,0,1-1.63-1.71,12.79,12.79,0,0,1-1.45-2.16,11.47,11.47,0,0,1-1-2.55,11.09,11.09,0,0,1-.33-2.68,11.92,11.92,0,0,1,.26-2.43,16,16,0,0,1,.78-2.57,26.28,26.28,0,0,1,1.89-3.73v0a.35.35,0,0,1,.62.34l0,0a25.75,25.75,0,0,0-1.85,3.63A15.35,15.35,0,0,0,66.42,35a11.29,11.29,0,0,0-.25,2.29,10.41,10.41,0,0,0,.31,2.5,10.73,10.73,0,0,0,.91,2.39,12.06,12.06,0,0,0,1.37,2,16.32,16.32,0,0,0,1.57,1.64,18.93,18.93,0,0,0,1.49,1.23c.48.36,1,.68,1.42,1l.06,0a10.5,10.5,0,0,1-.23-1.18,7,7,0,0,1,0-1.77,13.89,13.89,0,0,1,.53-2.31c.27-.86.62-1.85,1.07-3s1-2.33,1.58-3.56a22.57,22.57,0,0,1,2.16-3.52A15.76,15.76,0,0,1,81,30.06a16.68,16.68,0,0,1,3.23-2,18.42,18.42,0,0,1,3-1.14l.83-.21q-.45-.86-.94-1.7c-.65.1-1.19.22-1.55.3h0c-1.32.3-1.32.3-.83-.73l.71-1.47c.07-.14-.07.14-.25.14-.37,0-.94,0-1.52,0a9.47,9.47,0,0,0-1.78.26,4.24,4.24,0,0,0-1.41.66,7.89,7.89,0,0,0-1.33,1.27,18.5,18.5,0,0,0-1.61,2.17,14.57,14.57,0,0,0-1.15,2.19,21.57,21.57,0,0,0-.88,2.85A19.51,19.51,0,0,1,75,34.54a5.56,5.56,0,0,1-.87,1.59,2.67,2.67,0,0,1-1.2.88,2,2,0,0,1-.37.08,1.57,1.57,0,0,1-.92-.16,1.26,1.26,0,0,1-.61-.73,1.41,1.41,0,0,1-.06-.28,7.66,7.66,0,0,1,1.12-3.34l1.65-3.44c0-.08.61-.2.34-.14h0a3.93,3.93,0,0,1-1.83.06l-.07,0a.88.88,0,0,1-.53-.69,2,2,0,0,1,.16-1c0-.08.07-.17.12-.28a12.77,12.77,0,0,1,.86-1.52c.31-.49.65-1,.88-1.3,0,0,.12,0,.11,0h0a13.55,13.55,0,0,0-3,.41,5.92,5.92,0,0,0-1.58.69,5,5,0,0,0-1.29,1.19h0a12.75,12.75,0,0,0-1.56,3.2v0c-.53,1.48-.53,1.48-1.12.39l-.42-.78ZM63,40.12l-.39.52.15.09.68.42c-.11-.24-.23-.53-.37-.86L63,40.12Zm-1.38,1.66A13.38,13.38,0,0,1,60,43.21c0,.74-.07,1.4-.06,1.95a9.23,9.23,0,0,0,.08,1.07A15.08,15.08,0,0,1,64.92,49a13.48,13.48,0,0,1,2.77,3.2l.29-.1a22.32,22.32,0,0,0,2.43-.91,5.54,5.54,0,0,0,1.23-.79,3.48,3.48,0,0,0,.78-.94,2.53,2.53,0,0,0,.14-.29.94.94,0,0,0,.08-.43.19.19,0,0,0-.1-.15l0,0a2.21,2.21,0,0,0-.91,0,13.36,13.36,0,0,0-1.43.27l-.27.06a6.75,6.75,0,0,1-3.16.2,7.41,7.41,0,0,1-2.13-.84,6.85,6.85,0,0,1-1.73-1.4,5.25,5.25,0,0,1-.94-1.6,6.45,6.45,0,0,1-.27-3.42Zm-2.33,1.94a15.57,15.57,0,0,1-1.83,1q-.6.29-1.24.54a22,22,0,0,1,3,.65l.12,0c0-.25,0-.52,0-.82s0-.91,0-1.45ZM68,52.78q.22.42.42.85a13.47,13.47,0,0,1,1,3.44l.65-.37,2.65-1.5h0a1.79,1.79,0,0,1,.63-.22A1,1,0,0,1,74,55a.87.87,0,0,1,.38.35l0,0a1.35,1.35,0,0,1,.15.5,6.36,6.36,0,0,1-.05,1.29,14.65,14.65,0,0,0-.1,2.22A13.35,13.35,0,0,0,74.74,62a12.09,12.09,0,0,0,.84,2.36,11,11,0,0,0,2.11,2.86l0-.6c0-1,0-1,1.17-.22.32.2.8.5,1.35.8A13,13,0,0,0,82,68a8.68,8.68,0,0,0,1.86.43,15.15,15.15,0,0,0,2,.09l1,0,1.5,0q.57-1.11,1.08-2.26c-.93-.52-1.82-1.06-2.66-1.64a19.67,19.67,0,0,1-2.59-2.11A17.86,17.86,0,0,1,82,59.9,44.67,44.67,0,0,1,79.68,56c-.48-.87-1-1.74-1.44-2.53s-1.15-1.78-1.72-2.55A29.74,29.74,0,0,0,77,56.36a13.24,13.24,0,0,0,.79,2.51A10.68,10.68,0,0,0,79,61a8.17,8.17,0,0,0,1.28,1.36c.44.38.9.7,1.36,1a.35.35,0,1,1-.4.58c-.47-.33-.95-.66-1.42-1.06a8.81,8.81,0,0,1-1.39-1.48,11.47,11.47,0,0,1-1.28-2.27,14,14,0,0,1-.83-2.64,34.68,34.68,0,0,1-.47-6.43.41.41,0,0,1,0-.1c-.43-.56-.86-1.1-1.29-1.63l-1.17.44a1.75,1.75,0,0,1-.13.61,3.22,3.22,0,0,1-.17.37,4.18,4.18,0,0,1-.94,1.13,6.22,6.22,0,0,1-1.39.89,22.28,22.28,0,0,1-2.51.94l-.16.05Zm1.52,5.06a16.71,16.71,0,0,1,.09,1.71v0c.18-.4.36-.77.54-1.11A15.14,15.14,0,0,1,71,57l-.58.32-.9.52Zm0,3.82A15.3,15.3,0,0,1,69,64.1,13.85,13.85,0,0,1,67.82,67c-.13.56-.22,1.06-.29,1.51-.12.78-.17,1.37-.21,1.76-.13,1.52-.13,1.52-1.22.51l-.67-.63a15.32,15.32,0,0,1-1.24,1.13,16.39,16.39,0,0,1-2.49,1.66,15.79,15.79,0,0,1,2.32.35A16.65,16.65,0,0,1,66.4,74a21.21,21.21,0,0,1,2.09,1l1,.52c-.41-.85-.34-.83.86-.59.31.06.77.16,1.32.29s.93.24,1.47.4l-1-1.17c-.79-1-.79-1,1-1h0a28.67,28.67,0,0,1,5.07.27,13.51,13.51,0,0,1,5,1.89l.51.33A45.6,45.6,0,0,0,88,69.24l-1.11,0-1,0a15.89,15.89,0,0,1-2.13-.1,9.34,9.34,0,0,1-2-.47,13.7,13.7,0,0,1-1.89-.87c-.57-.31-1.06-.62-1.39-.82-.08,0-.11-.78-.1-.41l.06,1.2c.06,1.21.06,1.21-1.11,0A11.94,11.94,0,0,1,75,64.68a12.67,12.67,0,0,1-.89-2.51,14.24,14.24,0,0,1-.41-2.73,15.34,15.34,0,0,1,.1-2.32A6.09,6.09,0,0,0,73.81,56c0-.1,0-.27-.15-.32s-.48.09-.61.18a3.88,3.88,0,0,0-.94.87,11.73,11.73,0,0,0-1.3,2.05c-.42.81-.87,1.81-1.29,2.88ZM66.3,69.19l-.39.45.6.57-.22-1Zm-5.9,4.38-.08,0a20.92,20.92,0,0,1-2.93,1,10.27,10.27,0,0,1,.79.7,7.41,7.41,0,0,1,1.44,2,5,5,0,0,1,.29.73l.05.19,1-.31c.72-.21,1.56-.44,2.44-.63S65.13,77,66,76.93a20.21,20.21,0,0,1,2.36-.15,7.52,7.52,0,0,1,1.86.22l-.2-.41c-.6-.34-1.2-.68-1.81-1a20.39,20.39,0,0,0-2-.93,16,16,0,0,0-2.28-.7,15,15,0,0,0-2.57-.35l-.9,0ZM52,75.47q-.66,0-1.34,0h-1c.2.49.37,1,.53,1.48A22.28,22.28,0,0,1,51,80.54a26.52,26.52,0,0,1,.25,3.11c0,.47,0,.93,0,1.38l.06-.12a12.92,12.92,0,0,0,.81-2,10.7,10.7,0,0,0,.38-2.11,13.43,13.43,0,0,0,0-2.32,19.39,19.39,0,0,0-.54-3Zm-3.14,0H43.88l0,.34a12.9,12.9,0,0,0,.44,2.35,14,14,0,0,0,.84,2c.33.66.65,1.23.86,1.6,0,0-.25.82-.12.42l.55-1.7c.34-1,.34-1,1.19-.12A11.11,11.11,0,0,1,49.55,83a14.21,14.21,0,0,1,.93,2.7c0-.68,0-1.37,0-2.05a25.77,25.77,0,0,0-.24-3,21.47,21.47,0,0,0-.79-3.44c-.18-.57-.39-1.14-.63-1.71Zm-7.66,0H39.59l.38.41.55.53.64-.94ZM30,75.49H28.12a.85.85,0,0,1-.61-.26l-.55,1L26.5,77c-.44.79-.88,1.63-1.28,2.5a19.85,19.85,0,0,0-1,2.61,17.66,17.66,0,0,0-.55,2.59c-.07.52-.13,1-.18,1.54q1.47.93,3,1.75c0-.76.08-1.46.16-2.11a15.21,15.21,0,0,1,1.72-5.33l.26-.52a35.67,35.67,0,0,0,1.51-3.8q-.07-.39-.14-.77Zm.69-2.93A8.23,8.23,0,0,1,29,72.9v.89H50.62a25.27,25.27,0,0,0,4.8-.44A19.8,19.8,0,0,0,59.64,72,15.23,15.23,0,0,0,63.12,70a13.35,13.35,0,0,0,2.63-2.84,12.13,12.13,0,0,0,1.65-3.48,14.54,14.54,0,0,0,.55-4.09,12.69,12.69,0,0,0-1-5.22,11.44,11.44,0,0,0-3.1-4.07,13.76,13.76,0,0,0-5.07-2.66,19,19,0,0,0-6.24-1.14c-1.06,0-1-1.13,0-1.31a16.31,16.31,0,0,0,8-4.63,10.2,10.2,0,0,0,3-7.08q0-6-4.51-9a17.35,17.35,0,0,0-5.66-2.28,35.51,35.51,0,0,0-7.85-.78q-3.46,0-7.43,0l-9.13.1V23.2l4.59-.26h.2a.85.85,0,0,1,.75.95,56.21,56.21,0,0,0-.22,6V62.24q0,2,0,3.55t-.12,2.34a5.5,5.5,0,0,1-.45,1.74l0,.07a5.32,5.32,0,0,1-1.08,1.52,4.58,4.58,0,0,1-1.88,1.09ZM45.77,44.13a14.6,14.6,0,0,0,4.93-.81l-.32-.44A42.93,42.93,0,0,0,47,38.93a35.19,35.19,0,0,0-3.55-3.3A13,13,0,0,0,41,34V44.26l4.78-.13ZM51.35,43a8.47,8.47,0,0,0,.81-.43q-.63-.88-1.35-1.76C50,39.9,49.18,39,48.28,38l-1.1-1.11h0v0c-1.06-1-2.12-2-3-2.87l-.84-.79c-.69-.61-1.44-1.25-2.3-1.94v1.41a8.54,8.54,0,0,1,1,.65,13.65,13.65,0,0,1,1.89,1.77,36,36,0,0,1,3.61,3.35,43.71,43.71,0,0,1,3.4,4l.42.58Zm1.38-.81A7.22,7.22,0,0,0,54,41.08a10.45,10.45,0,0,0,2-3.62c.24-2.09.35-4.12.42-6.12A9.64,9.64,0,0,0,55.77,29a6,6,0,0,0-2.2-2.74,11.9,11.9,0,0,0-3.46-1.56,14.62,14.62,0,0,0-2.55-.45A8.93,8.93,0,0,1,47,25.44a9.77,9.77,0,0,1-1.47,2c-.5.54-1.07,1.05-1.6,1.53a9.68,9.68,0,0,0-1.49,1.5.66.66,0,0,0,0,.75,6.73,6.73,0,0,0,1.2,1.32l.14.13c1.47,1.3,2.63,2.44,3.78,3.58l0,0,.06.06,0,0,0,0,1.1,1.12c.92,1,1.77,1.92,2.56,2.89q.74.91,1.39,1.81Zm-5.89-18-.93,0a11.07,11.07,0,0,0-2,.16,4.21,4.21,0,0,0-1.28.43,2.4,2.4,0,0,0-.76.67,3.12,3.12,0,0,0-.49,1,10.44,10.44,0,0,0-.29,1.76q-.08.91-.1,2.13l.22.18.41.33a1.46,1.46,0,0,1,.27-.76,10,10,0,0,1,1.61-1.64c.51-.46,1.07-1,1.56-1.48a9.16,9.16,0,0,0,1.37-1.88,8.3,8.3,0,0,0,.42-.9Zm-1,21.62c3.5,0,7.12-.87,9.48-3.65a12.86,12.86,0,0,0,3-8.6,13.52,13.52,0,0,0-.9-5.22,7.63,7.63,0,0,0-2.83-3.5h0a13.54,13.54,0,0,0-4-1.79,17.46,17.46,0,0,0-4.64-.59,12.68,12.68,0,0,0-2.31.19,5.9,5.9,0,0,0-1.8.61,4.1,4.1,0,0,0-1.3,1.14A4.83,4.83,0,0,0,39.74,26a12.13,12.13,0,0,0-.34,2.05q-.11,1.21-.11,2.71V45.13a.86.86,0,0,0,.85.85c1.87-.1,3.78-.08,5.66-.16Zm2.28,25a17.37,17.37,0,0,0,5.18-.71,4.66,4.66,0,0,0-.42-.64,8.66,8.66,0,0,0-1.43-1.39A20.07,20.07,0,0,0,49,66.46a15.77,15.77,0,0,0-2.42-1.16,23.38,23.38,0,0,0-3.13-.85,21.11,21.11,0,0,1-2.07-.53L41,63.78v2.27a21.68,21.68,0,0,1,2.48,1.5,17.15,17.15,0,0,1,3,2.73l.47.57Zm5.91-1A10.89,10.89,0,0,0,57.19,68a8.72,8.72,0,0,0,2.45-3.36,9.84,9.84,0,0,0,.42-1.25c0-.18-.05-.37-.07-.56a14.76,14.76,0,0,1-.09-2.95,8,8,0,0,1,.46-2.07,12.37,12.37,0,0,0-.74-3.12,8.54,8.54,0,0,0-.74-1.47A20.9,20.9,0,0,0,56.1,56.1c-.86,1-1.9,2.42-3,4a20.3,20.3,0,0,1,.24,2v0c.12,1.45.11,1.44-1.23.58l-.62-.39L50,64.46l0,0-.83,1.17.26.15a20.89,20.89,0,0,1,2.51,1.72A9.26,9.26,0,0,1,53.44,69a5.39,5.39,0,0,1,.54.85Zm4.5-17.21a7,7,0,0,0-1.33-1.32,11.86,11.86,0,0,0-3.52-1.81q-.25.65-.53,1.29a51.3,51.3,0,0,1-2.31,4.76,6.18,6.18,0,0,1,1,1.15,7.15,7.15,0,0,1,.92,1.88c.06.18.11.36.16.55,1-1.35,1.9-2.56,2.69-3.51a21.41,21.41,0,0,1,2.91-3ZM53,49.36a18.71,18.71,0,0,0-4.9-.59q-3.78,0-7.08.18v1.14h.07A51.18,51.18,0,0,1,46.9,51.4h0c2.17.58,2.17.58,1,1.3l-1.7,1c-.31.18.31-.18.33-.18h0a14.65,14.65,0,0,1,3.71,1.65,50.36,50.36,0,0,0,2.23-4.6q.26-.61.5-1.22Zm-12,1.5v3.06a17.52,17.52,0,0,1,2.55.69,28.51,28.51,0,0,1,4.12,1.91h0a.38.38,0,0,1-.34.68l0,0a28,28,0,0,0-4-1.86A16.84,16.84,0,0,0,41,54.69v5a20,20,0,0,1,2.4.94l3.8,1.66c.09,0,.24.65.17.36h0a4.26,4.26,0,0,1-.13-2l0-.07A1,1,0,0,1,48,60a2.17,2.17,0,0,1,1.1.13l.31.12a14,14,0,0,1,1.68.88c.54.32,1.08.67,1.44.9,0,0,.06.13.06.12v0A14.75,14.75,0,0,0,52,58.87a6.44,6.44,0,0,0-.82-1.68,5.43,5.43,0,0,0-1.34-1.35h0a13.84,13.84,0,0,0-3.54-1.57h0c-1.63-.52-1.63-.52-.47-1.2l1.7-1c.34-.2-.31.18-.73.11l-.07,0A51,51,0,0,0,41,50.85Zm0,9.68V63a6.68,6.68,0,0,0,.63.25c.56.19,1.25.34,2,.5l.63.14c.4-.48.79-1,1.17-1.44l-2.34-1c-.77-.34-1.49-.65-2.1-.85Zm0,6.38q0,1.16-.05,2.17t-.09,1.69l1.21,0q1.26,0,3.4,0H46l-.06-.06A16.35,16.35,0,0,0,43,68.18a20.23,20.23,0,0,0-2-1.27Zm12.8,4.85a12.81,12.81,0,0,0,4.51-2.45,10.41,10.41,0,0,0,2.92-4,13.79,13.79,0,0,0,1-5.3,16.17,16.17,0,0,0-1-5.92,9.26,9.26,0,0,0-3-4.09,13.66,13.66,0,0,0-4.5-2.22,20.14,20.14,0,0,0-5.6-.73q-4.23,0-8,.24a.86.86,0,0,0-.8.85V65.55q0,2.06-.05,3.48t-.17,2.44a.85.85,0,0,0,.75.95h.05q.75.08,2.14.11t3.45,0h2.62a19,19,0,0,0,5.71-.8Zm29.43,4.7-.44-.29a12.9,12.9,0,0,0-4.71-1.8,28,28,0,0,0-4.94-.26h0c-.34,0-.54-.24-.44-.12l1.67,2a15.23,15.23,0,0,1,1.43.63,11.69,11.69,0,0,1,1.63,1h0c.18.14.37.28.54.43a11.15,11.15,0,0,1,1.82,2l.07.1L80,80a45.67,45.67,0,0,0,3.2-3.55Zm-3.87,4.21-.13-.19q-.22-.3-.45-.59c.14.3.28.61.4,1l.18-.18Zm-.73.68a9.89,9.89,0,0,0-.76-1.74c-.29-.52-.6-1-.91-1.45a11,11,0,0,0-1.49-.9,15.41,15.41,0,0,0-2-.81c.19.3.38.61.56.93a10.79,10.79,0,0,1,.86,1.95v0a12.62,12.62,0,0,1,.47,2.31c.09.73.13,1.5.14,2.27q1.59-1.22,3.07-2.58Zm-3.74,3.09v-.3a22.63,22.63,0,0,0-.14-2.4,12,12,0,0,0-.45-2.19v0a10.12,10.12,0,0,0-.81-1.82c-.31-.55-.64-1.07-1-1.58l-1-.27c-.51-.12-.92-.21-1.21-.27L71,77c.57,1.15.57,1.15-.52.78h0a6.08,6.08,0,0,0-2.1-.32,19.58,19.58,0,0,0-2.28.14c-.82.09-1.69.23-2.52.41s-1.68.4-2.39.61l-1,.31a11.92,11.92,0,0,1,2.1.33,11.63,11.63,0,0,1,2.15.78,12.48,12.48,0,0,1,2,1.2,16,16,0,0,1,2.12,1.89,18.35,18.35,0,0,1,1.86,2.32c.31.46.6.93.88,1.41q1.87-1.12,3.62-2.42Zm-4.21,2.76c-.27-.46-.55-.92-.85-1.37A17.67,17.67,0,0,0,68,83.61a15.29,15.29,0,0,0-2-1.81,11.8,11.8,0,0,0-1.9-1.14,10.87,10.87,0,0,0-2-.73,10.51,10.51,0,0,0-1.24-.23,17.23,17.23,0,0,1,3.67,2.08A10.24,10.24,0,0,1,66.57,84a19.06,19.06,0,0,1,1.59,2.82c.21.45.43.93.65,1.44q.95-.49,1.87-1ZM86.17,23.3l0,.09-.57,1.19c.31-.07.74-.16,1.25-.25q-.31-.52-.64-1Zm2.3,4-1,.24a17.58,17.58,0,0,0-2.93,1.1,16,16,0,0,0-3.09,1.95A15,15,0,0,0,79,33.17a21.78,21.78,0,0,0-2.09,3.41c-.6,1.2-1.12,2.41-1.56,3.51s-.78,2-1,2.9a13,13,0,0,0-.51,2.19,6.33,6.33,0,0,0,0,1.6,9.58,9.58,0,0,0,.19,1l.52-.2h0c.74-.27,1.47-.54,2.2-.79l.87-.29c.43-.43.86-.86,1.26-1.27s.87-.91,1.28-1.39.86-1,1.26-1.58h0a16.35,16.35,0,0,0,1-1.48,15.89,15.89,0,0,0,.78-1.56c.15-.34.29-.69.43-1A1.93,1.93,0,0,1,81.85,37a3,3,0,0,1-.21-1.42,2.9,2.9,0,0,1,.46-1.35,3,3,0,0,1,1.08-.94,5.34,5.34,0,0,1,1.6-.52c.41-.07.84-.11,1.28-.14a12,12,0,0,0,2.18-.32,13,13,0,0,0,1.9-.71l.19-.09a45,45,0,0,0-1.85-4.16Zm2.1,4.82-.15.07a13.59,13.59,0,0,1-2,.75,12.56,12.56,0,0,1-2.3.34c-.42,0-.83.07-1.22.14a4.62,4.62,0,0,0-1.38.45,2.26,2.26,0,0,0-.83.71,2.2,2.2,0,0,0-.34,1,2.23,2.23,0,0,0,.15,1.07,1.26,1.26,0,0,0,.53.6,1.32,1.32,0,0,0,.8.16l.19,0h0a3,3,0,0,0,.76-.3A6.54,6.54,0,0,0,86,36.24c.26-.24.51-.49.77-.75h0a14.69,14.69,0,0,1,2-1.75,11.94,11.94,0,0,1,2-1.12l-.17-.47Zm.4,1.14a11.3,11.3,0,0,0-1.8,1A14.1,14.1,0,0,0,87.27,36h0c-.27.28-.54.54-.8.78a7.24,7.24,0,0,1-1.32,1,3.84,3.84,0,0,1-.77.33c-.18.47-.37.94-.58,1.43A16.49,16.49,0,0,1,83,41.13a17.27,17.27,0,0,1-1,1.55h0c-.4.56-.85,1.1-1.3,1.62s-.87,1-1.31,1.42l-.32.32q.72-.21,1.46-.41c.76-.2,1.53-.37,2.32-.53l.05-.06c1.47-1.24,2.94-2.48,4.48-4,.8-.78,1.62-1.65,2.4-2.53s1.39-1.63,2-2.39L91.8,36q-.37-1.39-.83-2.74ZM92,36.89c-.52.68-1.11,1.39-1.74,2.1-.78.88-1.61,1.76-2.43,2.56-1.27,1.25-2.47,2.3-3.66,3.31l.33-.05L86,44.59h0c1-.13,1.93-.24,3-.35l.94-.09A15.87,15.87,0,0,0,93,42.5a45.3,45.3,0,0,0-1-5.61Zm1.1,6.41a11.79,11.79,0,0,1-1.18.69l1.23-.09q0-.3-.06-.6Zm.11,1.3c-1.41.1-2.85.22-4.2.35l-1.59.17c.74.31,1.51.65,2.34,1.08l.48.26a14.77,14.77,0,0,0,3.09,1.34q0-1.62-.11-3.21Zm.11,3.94a15,15,0,0,1-3.42-1.46l-.47-.25A32.84,32.84,0,0,0,86,45.3l-1.37.21c-1.19.19-2.32.42-3.43.69a7.43,7.43,0,0,1,1.43.34,17.86,17.86,0,0,1,3.24,1.7l.73.44c.71.43,1.47.86,2.26,1.26a18.35,18.35,0,0,0,2.36,1,15.5,15.5,0,0,0,2,.52q.12-1.46.14-2.94Zm-.2,3.64A16.2,16.2,0,0,1,91,51.62a19,19,0,0,1-2.45-1.06c-.8-.4-1.57-.85-2.3-1.28l-.73-.44a17.29,17.29,0,0,0-3.11-1.63,7.17,7.17,0,0,0-1.7-.35c-.55-.05-1.11-.05-1.67-.06l-1.13.36h0l-.92.31-1.74.62c.56.7,1.13,1.42,1.69,2.16s1,1.36,1.46,2.09a23.37,23.37,0,0,1,3.32,2.55c.34.33.65.66,1,1a11.66,11.66,0,0,0,2.24,2,15.57,15.57,0,0,0,4.56,1.58.35.35,0,1,1-.16.68A16,16,0,0,1,84.5,58.5a12.14,12.14,0,0,1-2.38-2.14c-.31-.34-.62-.67-.92-1a17.1,17.1,0,0,0-1.94-1.58c.35.6.69,1.22,1,1.85a44.24,44.24,0,0,0,2.28,3.84A17.09,17.09,0,0,0,84.7,62a19.08,19.08,0,0,0,2.49,2c.8.55,1.65,1.07,2.54,1.57a45.11,45.11,0,0,0,2.39-7.31L91.83,58a12,12,0,0,0-2-1.47,21.5,21.5,0,0,0-3.9-1.64l-.6-.21a9.21,9.21,0,0,1-1.5-.63,2.27,2.27,0,0,1-.9-.86,2.39,2.39,0,0,1-.28-1.2A1.93,1.93,0,0,1,83,50.91a1.47,1.47,0,0,1,1-.56,2.56,2.56,0,0,1,1.31.25,9.44,9.44,0,0,1,1.37.84,15.85,15.85,0,0,0,1.74,1.08A10.33,10.33,0,0,0,93,53.65q.09-.73.16-1.47Zm-.26,2.17a11,11,0,0,1-4.75-1.2A16.29,16.29,0,0,1,86.32,52a9.13,9.13,0,0,0-1.26-.78,1.87,1.87,0,0,0-.95-.19.79.79,0,0,0-.56.29,1.23,1.23,0,0,0-.21.71,1.68,1.68,0,0,0,.19.83,1.59,1.59,0,0,0,.64.59,8.59,8.59,0,0,0,1.38.58l.59.2a22.16,22.16,0,0,1,4,1.7,12.76,12.76,0,0,1,2.12,1.56h0q.34-1.57.57-3.17Zm-44.37,11,.87-1.24v0l1.5-2.12-.22-.13A13.34,13.34,0,0,0,49.1,61l-.26-.1a1.48,1.48,0,0,0-.7-.11.24.24,0,0,0-.17.13v0a3.81,3.81,0,0,0,.15,1.57c.28,1.18.28,1.18-1.21.53l-.81-.36Q45.54,63.35,45,64a17.42,17.42,0,0,1,1.85.56,15.56,15.56,0,0,1,1.67.74ZM3.85,36.14C5,35.94,5,36,4.34,36.91v0a6.64,6.64,0,0,0-1,2.09c-.16.5-.31,1.1-.45,1.76a45.83,45.83,0,0,0-.55,7.07V48a12.81,12.81,0,0,1,1-2,12.64,12.64,0,0,1,1.49-2,13.61,13.61,0,0,1,1.89-1.7,17.35,17.35,0,0,1,2.64-1.61,19.83,19.83,0,0,1,3-1.2c.9-.28,1.8-.48,2.69-.68a25,25,0,0,0,3.27-.89,14.18,14.18,0,0,0,2.58-1.31c.35-.22.69-.45,1-.7-.54,0-1.09,0-1.63,0a18.15,18.15,0,0,1-2.73-.19,25.41,25.41,0,0,1-3.76-1l-1.39-.43a24.76,24.76,0,0,0-2.55-.62,13.07,13.07,0,0,0-2.42-.23,10.89,10.89,0,0,0-2.19.26l-.74.18Q4.15,35,3.85,36.14Zm2.09-6.08.49-.39,0,0q.3-.22.61-.42A12.11,12.11,0,0,1,9.73,28h0a13.5,13.5,0,0,1,2.95-.64,21.18,21.18,0,0,1,3.46,0c.51,0,1,.06,1.35.06a3.68,3.68,0,0,0,1.22-.18,1,1,0,0,0,.49-.34l0-.08a.19.19,0,0,0,0-.14.58.58,0,0,0-.23-.24,2.38,2.38,0,0,0-.41-.22,20.05,20.05,0,0,0-2.8-.78l-1.06-.25c-.6-.15-1.06-.29-1.4-.41s-.58-.22-.72-.28h0c-.94-.4-.93-.41.18-1l1.92-1,0,0h0c.19-.1-.26.13-.49.06h0a21.79,21.79,0,0,1-2.1-.78A12.67,12.67,0,0,1,11,21.1a45.4,45.4,0,0,0-5.08,9Zm5.49-9.52c.34.19.68.35,1,.5a21.48,21.48,0,0,0,2,.75h0c.43.14.76.25,1,.34.45-.16.91-.32,1.39-.48A22.85,22.85,0,0,1,19.16,21a18.77,18.77,0,0,1,2.76-.38,13.93,13.93,0,0,1,2.52.06,13.68,13.68,0,0,1,2.11.44q-1-.58-1.9-1.12h0l-.21-.12A46.63,46.63,0,0,0,19,17.22c-.68.31-1.37.61-2,.88a15.53,15.53,0,0,1-2.19.71,11.59,11.59,0,0,1-2,.28h-.23q-.57.71-1.12,1.43Zm1.73-2.17a10.88,10.88,0,0,0,1.47-.24,15,15,0,0,0,2.09-.68c.46-.18.92-.38,1.38-.58-.93-.35-1.86-.65-2.74-.91q-1.14,1.16-2.2,2.41Zm2.76-3c1,.31,2.11.68,3.2,1.12h0a43.49,43.49,0,0,1,4.25,2c-.27-.32-.53-.63-.8-.93a17.88,17.88,0,0,0-2-2,11,11,0,0,0-2.07-1.34q-.5-.25-1-.45-.84.75-1.64,1.54Zm19.5-5.07a14.91,14.91,0,0,0,1,3.13A10.86,10.86,0,0,0,37.35,15a17.13,17.13,0,0,0,1.15,1.43c.4.45.8.87,1.22,1.27l.61.58v-.15A18.23,18.23,0,0,0,39.76,15a25.14,25.14,0,0,0-2.22-5.15l-.21-.39c-.34-.63-.54-1.05-.67-1.36l0-.06h0c-.12.24-.25.48-.38.71-.24.45-.54,1-.83,1.58ZM4.77,33.12,5.1,33a11.61,11.61,0,0,1,2.33-.28A13.72,13.72,0,0,1,10,33a25.31,25.31,0,0,1,2.62.63l1.4.43a25,25,0,0,0,3.66,1,17.45,17.45,0,0,0,2.63.18c.86,0,1.74,0,2.63-.08l.42-.33.33-.26A16,16,0,0,1,27.77,32c-1.1-.09-2.28-.21-3.67-.42-1.56-.24-3.41-.58-5.2-.92l-2.15-.4c-1.18-.22-2.28-.4-3.29-.54a19.16,19.16,0,0,0-2.7-.19,10.88,10.88,0,0,0-2.13.24c-.63.13-1.22.31-1.81.49A12,12,0,0,0,5.4,31.52l-.08.08q-.29.75-.55,1.52ZM26.45,16.76l0,0c0,.09,0,.12,0,0v0ZM38.3,92.35a11.79,11.79,0,0,0-1.51-4,12.93,12.93,0,0,0-2.08-2.18,19.58,19.58,0,0,1-1.44-1.38,11.34,11.34,0,0,1-1.48-2.1c.08.69.15,1.38.22,2.06.14,1.36.27,2.71.38,3.94v0h0l.09,1,.08,1a45.18,45.18,0,0,0,5.72,1.62Zm-7.1-2.14c.14-.51.29-1,.44-1.51-.11-1.22-.23-2.54-.37-3.89-.18-1.76-.39-3.57-.62-5.27q-.12-.88-.25-1.72c-.3.82-.64,1.66-1.08,2.58l-.26.53A14.54,14.54,0,0,0,27.4,86c-.09.72-.14,1.53-.16,2.4q1.93,1,4,1.78ZM14.48,78.79a12.93,12.93,0,0,1,1.28-3.63A13.19,13.19,0,0,1,18,72.49c.35-.35.7-.7,1-1a18.44,18.44,0,0,0,1.64-2.16c-.64.4-1.3.8-2,1.2a48.28,48.28,0,0,0-4.08,2.63,18.53,18.53,0,0,0-2.65,2.41l-.12.13q1.26,1.63,2.66,3.14ZM11.34,75l0,0a19.4,19.4,0,0,1,2.76-2.51,49,49,0,0,1,4.15-2.67c.93-.56,1.85-1.11,2.7-1.66l.66-.44,0,0h0a.38.38,0,0,1,.29-.18c.61-.43,1.18-.86,1.73-1.3a32.28,32.28,0,0,0-5.9.7,14.38,14.38,0,0,0-2.69,1,11.55,11.55,0,0,0-2.26,1.38,8.71,8.71,0,0,0-1.43,1.44c-.39.5-.72,1-1.05,1.52a.38.38,0,0,1-.64-.41c.34-.53.68-1.05,1.1-1.58a9.57,9.57,0,0,1,1.55-1.56,12.46,12.46,0,0,1,2.41-1.48,15.16,15.16,0,0,1,2.84-1,37.63,37.63,0,0,1,7-.76h.11c.59-.49,1.16-1,1.72-1.47l-.52-1.25a1.94,1.94,0,0,1-.67-.12,3.36,3.36,0,0,1-.41-.18,4.55,4.55,0,0,1-1.27-1,6.81,6.81,0,0,1-1-1.47,24.22,24.22,0,0,1-1.12-2.69c-.26-.69-.52-1.39-.82-2.07a14.68,14.68,0,0,0-1.18-2.24,8.92,8.92,0,0,0-1.54-1.81,7.31,7.31,0,0,0-2.13-1.32,7.73,7.73,0,0,0-2.5-.54,15.31,15.31,0,0,0-3,.21c-.73.11-1.4.25-1.94.37L9,50c1.64.33,1.64.33-.19,1.2-.39.19-1,.47-1.64.83a16.45,16.45,0,0,0-2,1.28,15.46,15.46,0,0,0-1.74,1.56L3,55.4l.09.52c.82-.21,1.63-.42,2.41-.65l.72-.22a18.76,18.76,0,0,1,2.68-.68,6.9,6.9,0,0,1,1.68-.06,5.92,5.92,0,0,1,1.68.41,8,8,0,0,1,1.58.87,9.82,9.82,0,0,1,1.46,1.25,14.32,14.32,0,0,1,1.9,2.63l1.73,2.82v0h0a2,2,0,0,1,.26.67,1,1,0,0,1-.06.58.93.93,0,0,1-.36.42l0,0a1.47,1.47,0,0,1-.53.18,6.89,6.89,0,0,1-1.4,0,16,16,0,0,0-2.41,0,14.55,14.55,0,0,0-2.8.52,13,13,0,0,0-2.53,1,11,11,0,0,0-2.3,1.68L7,68c.47,0,.54.06.29.57a45.54,45.54,0,0,0,4,6.43Zm-5-8.37A11.56,11.56,0,0,1,8.67,65,13.75,13.75,0,0,1,11.35,64a15.43,15.43,0,0,1,2.94-.55,16.68,16.68,0,0,1,2.52,0,6.53,6.53,0,0,0,1.23,0,.72.72,0,0,0,.26-.08h0a.19.19,0,0,0,.07-.08.3.3,0,0,0,0-.16,1.19,1.19,0,0,0-.16-.4h0v0l0-.06h0a4.25,4.25,0,0,0-1-1,12.76,12.76,0,0,0-2.28-1.33,38,38,0,0,0-3.65-1.45c-1.34-.46-2.74-.88-4-1.17a26.64,26.64,0,0,0-3.09-.56l-1-.09a45.18,45.18,0,0,0,3.13,9.62Zm14.2,17.63a12,12,0,0,1,1.12-5.4,17.62,17.62,0,0,1,1.15-2,10,10,0,0,0,.8-1.4,2,2,0,0,0,.17-1,.85.85,0,0,0-.34-.6,1.33,1.33,0,0,0-.78-.2,1.81,1.81,0,0,0-.9.24,1.72,1.72,0,0,0-.62.72,9.32,9.32,0,0,0-.58,1.52l-.2.65a24,24,0,0,1-1.68,4.43c-.2.37-.41.72-.64,1.07q1.21,1,2.49,2Zm-3.72-23.8-.37-.61a13.7,13.7,0,0,0-1.79-2.5,9.12,9.12,0,0,0-1.35-1.15,7.18,7.18,0,0,0-1.43-.79,5.19,5.19,0,0,0-1.46-.36,6.15,6.15,0,0,0-1.5.05,18.3,18.3,0,0,0-2.57.66L5.67,56l-1.32.37a28,28,0,0,1,3.15.57c1.24.3,2.66.72,4,1.19a38.73,38.73,0,0,1,3.72,1.48A16.5,16.5,0,0,1,16.87,60.49Z"/></g></g></svg>