<svg width="64" height="64" viewBox="0 0 64 64" fill="none" xmlns="http://www.w3.org/2000/svg">
<path d="M9.8125 0.312493C8.2625 0.724993 7.175 1.46249 5.55 3.14999C3.125 5.67499 1.2875 9.37499 0.4 13.5C0.1 14.9375 0.075 15.3 0.0625 18C0.0625 20.6 0.1 21.0875 0.35 22.3125C1.525 27.9 4.875 33.85 10.5875 40.5375C12.5125 42.7875 16.4 46.8875 18.2875 48.6625C27.1625 57 35.8375 61.8375 44.875 63.5C46.95 63.8875 49.95 63.975 51.6375 63.7C54.1875 63.275 56.3375 62.525 58.0875 61.425C59.25 60.7 61.1375 58.9125 62.1375 57.5875C63.5375 55.7375 64 54.45 64 52.4625C64 51.0125 63.7125 50.0125 63.0125 48.9375C62.7125 48.475 60.5 46.1875 57.35 43.05C52.45 38.175 52.1375 37.8875 51.25 37.4625C49.6625 36.7125 48.1375 36.5625 46.45 37C44.9 37.3875 44.275 37.825 41.8625 40.2125L39.675 42.375L37.675 41.1875C34.1875 39.1 32.175 37.55 29.4875 34.875C28.425 33.8125 27.075 32.35 26.5125 31.625C25.35 30.1625 23.4875 27.3875 22.525 25.7L21.8875 24.575L24.05 22.375C25.9 20.4875 26.275 20.0375 26.675 19.2375C27.8125 16.925 27.7125 14.3125 26.3875 12.3125C26.0875 11.85 23.8875 9.57499 20.725 6.42499C15.2 0.937493 14.975 0.749993 13.3125 0.312493C12.4125 0.0874929 10.6625 0.0749929 9.8125 0.312493ZM12.75 4.51249C13.4125 4.84999 22.95 14.4625 23.1875 15.025C23.2875 15.2875 23.375 15.7375 23.375 16.025C23.3625 17.0375 23.0125 17.5375 20.4375 20.125C18.9125 21.6625 17.9375 22.7375 17.825 23.025C17.5875 23.575 17.5625 24.9125 17.775 25.5125C18.175 26.675 20.7375 30.8375 22.5 33.1875C26.0125 37.875 30.2625 41.6125 35.8375 44.9125C38.4875 46.4875 38.675 46.5625 39.875 46.5625C40.675 46.5625 41.05 46.5 41.375 46.325C41.6125 46.2 42.9125 45 44.25 43.675C45.775 42.1625 46.8625 41.1875 47.15 41.075C47.775 40.8125 48.7 40.825 49.3125 41.1125C49.65 41.275 51.475 43.0125 54.775 46.325C59.2 50.775 59.75 51.375 59.875 51.8625C60.1625 52.9375 59.725 54.05 58.4 55.625C57.9125 56.2125 57.1875 56.9625 56.7875 57.2875C54.6625 59.025 50.975 60.0375 47.8125 59.75C42.1 59.225 36.1125 56.8875 30 52.8125C25.7375 49.9625 21.65 46.4125 17.3125 41.8C11.95 36.0875 8.725 31.8 6.5875 27.525C5.0625 24.4625 4.3875 22.225 4.125 19.3375C3.625 14 6.125 7.62499 9.7875 4.82499C10.6875 4.13749 11.8 4.02499 12.75 4.51249Z" fill="#BA9E6D"/>
<path d="M38.0249 6.075C37.3874 6.4 37.0749 6.9375 37.0249 7.8125C36.9999 8.4 37.0374 8.65 37.2374 8.9625C37.6249 9.575 38.0249 9.775 39.5999 10.1C44.4249 11.0875 48.9624 14.3125 51.6874 18.675C52.8874 20.6125 53.6999 22.6625 54.1249 24.9125C54.4749 26.725 54.9624 27.25 56.2749 27.25C57.0499 27.25 57.6249 26.95 58.0124 26.35C58.7374 25.2 57.6374 20.825 55.7874 17.525C54.5999 15.425 53.5499 14.05 51.8124 12.3125C50.0499 10.55 48.8624 9.6375 46.7624 8.4375C43.5624 6.6125 39.2499 5.45 38.0249 6.075Z" fill="#BA9E6D"/>
<path d="M36.4625 14.3C35.5625 14.625 35.125 15.275 35.125 16.2875C35.125 17.35 35.85 18.0375 37.2625 18.325C38.4625 18.575 40.6625 19.6375 41.875 20.5875C43.975 22.225 45.8375 25.2375 46.175 27.525C46.3375 28.65 47.1375 29.375 48.2125 29.375C49.35 29.375 50.25 28.4875 50.25 27.375C50.25 24.725 47.8 20.2 45.175 17.95C42.2875 15.4875 38.075 13.725 36.4625 14.3Z" fill="#BA9E6D"/>
</svg>
