<svg xmlns="http://www.w3.org/2000/svg" viewBox="0 0 26.68 40.63"><defs><style>.cls-1{fill:#ba9e6d;}</style></defs><title>Ресурс 6</title><g id="Слой_2" data-name="Слой 2"><g id="Слой_1-2" data-name="Слой 1"><g id="мышка"><path class="cls-1" d="M13.34,0A13.35,13.35,0,0,0,0,13.34v14a13.34,13.34,0,1,0,26.68,0v-14A13.35,13.35,0,0,0,13.34,0Zm12,27.29a12,12,0,0,1-24.07,0v-14a12,12,0,0,1,24.07,0Z"/><path class="cls-1" d="M13.77,7.39a1.1,1.1,0,0,0-1.09,1.09v2.19a1.09,1.09,0,1,0,2.19,0V8.48A1.1,1.1,0,0,0,13.77,7.39Z"/><path class="cls-1" d="M13.77,12.48a1.1,1.1,0,0,0-1.09,1.09h0a1.09,1.09,0,0,0,2.19,0h0A1.1,1.1,0,0,0,13.77,12.48Z"/></g></g></g></svg>