<svg xmlns="http://www.w3.org/2000/svg" viewBox="0 0 309.59 270.94"><defs><style>.cls-1,.cls-2,.cls-6{fill:#ba9e6d;}.cls-1,.cls-5,.cls-7{fill-rule:evenodd;}.cls-3,.cls-5,.cls-7{fill:none;stroke:#ba9e6d;}.cls-3{stroke-linecap:round;stroke-linejoin:round;stroke-width:0.57px;}.cls-4,.cls-6{opacity:0.3;}.cls-5{stroke-miterlimit:10;stroke-width:0.47px;}.cls-7{stroke-miterlimit:22.93;stroke-width:0.22px;}</style></defs><title>Ресурс 1</title><g id="Слой_2" data-name="Слой 2"><g id="_1_этаж_1_этап_29" data-name="№1 этаж 1 этап 29"><path class="cls-1" d="M9.21,270.94v-.08H144.67V218.3h41.86v-6.5H160.38V187H144.67V173.33H142v-14.9h18.42v-3.79h-25.2v3.79h3V264.36H9.21V214.78H0v56.16Zm135.46-81.36h13.14v26.14H144.67Z"/><polygon class="cls-1" points="9.21 174.15 9.21 158.43 110.8 158.43 110.8 157.89 51.2 157.9 51.2 157.89 110.8 157.89 110.8 154.64 51.2 154.65 51.2 136.22 41.99 136.22 41.99 149.22 0 149.22 0 174.15 9.21 174.15"/><path class="cls-1" d="M45.24,3.47h0l-.54-.54.54.54Zm6,21.67V9.43H77.75V.23H42V25.14Z"/><path class="cls-1" d="M209.82,44h9.48V75.68h-9.48V44ZM214,9.43v32h-6.77V65H142V57.66h-3.79v66.91h79.92v2.71h3.79V115.36h-3.79v2.71H142V68.76h65.29v9.49h10.84V93.68h3.79V9.43h9.21V2.93h-.54V.23H190.45V8.9h-.54v.54H214Z"/><polygon class="cls-1" points="309.59 0.23 271.18 0.23 271.18 9.44 303.15 9.44 303.15 118.07 299.9 118.07 275.52 118.07 253.84 118.07 253.84 124.57 268.34 124.57 268.34 156 221.88 156 221.88 151.66 218.08 151.66 218.08 178.21 221.88 178.21 221.88 159.79 268.34 159.79 268.34 211.8 221.88 211.8 221.88 199.88 218.08 199.88 218.08 211.8 213.61 211.8 213.61 218.31 276.19 218.31 276.19 124.57 299.9 124.57 309.59 124.57 309.59 0.23"/><polygon class="cls-1" points="138.16 25.97 141.96 25.97 141.96 9.44 149.81 9.44 149.81 0.23 118.39 0.23 118.39 9.44 138.16 9.44 138.16 25.97"/><rect class="cls-2" x="41.99" y="65.78" width="9.21" height="48.76"/><polygon class="cls-1" points="51.21 9.44 77.21 9.44 77.21 9.43 51.21 9.44"/><polygon class="cls-1" points="221.88 9.44 231.09 9.44 231.09 9.43 221.88 9.44"/><line class="cls-3" x1="98.47" y1="0.28" x2="98.47" y2="21.96"/><line class="cls-3" x1="98.47" y1="21.96" x2="92.73" y2="16.21"/><line class="cls-3" x1="98.47" y1="21.96" x2="104.22" y2="16.21"/><g class="cls-4"><rect class="cls-2" x="41.99" y="25.14" width="9.21" height="40.64"/><rect class="cls-2" x="41.99" y="114.55" width="9.21" height="21.67"/><polygon class="cls-1" points="231.09 9.44 271.18 9.44 271.18 0.23 230.55 0.23 230.55 2.93 231.09 2.93 231.09 9.44"/><rect class="cls-2" x="77.75" y="0.23" width="40.64" height="9.21"/><polygon class="cls-1" points="189.91 8.89 190.45 8.89 190.45 0.23 149.81 0.23 149.81 9.44 189.91 9.44 189.91 8.89"/><rect class="cls-2" y="174.15" width="9.21" height="40.64"/></g><path class="cls-5" d="M66.57,119.5v-8.21h38v21.28m-12.91,0H66.57v-8.21"/><rect class="cls-6" x="92.4" y="111.28" width="12.5" height="33.19"/><path class="cls-1" d="M98.87,115.24v3.13h.79v-1.31h.1a.83.83,0,0,1,.82.64,4.64,4.64,0,0,0,.29.67h.82a8.7,8.7,0,0,1-.35-.86c-.21-.5-.48-.84-.91-.9l1.25-1.38h-.94l-1,1.3h-.12v-1.3Z"/><polygon class="cls-1" points="104.82 131.65 104.82 144.47 66.33 144.47 66.33 132.4 66.81 132.4 66.81 143.83 104.35 143.83 104.35 131.65 104.82 131.65"/><polygon class="cls-1" points="68.13 101.1 72.63 101.1 72.63 101.74 69.53 108.25 68.53 108.25 71.62 101.93 71.62 101.9 68.13 101.9 68.13 101.1"/><polygon class="cls-1" points="75.73 108.25 75.73 102 75.71 102 74.47 102.67 74.28 101.94 75.84 101.1 76.66 101.1 76.66 108.25 75.73 108.25"/><path class="cls-1" d="M79.63,109.53l-.68.08a13.89,13.89,0,0,0,.66-2.64l1.08-.11a15.48,15.48,0,0,1-.51,1.49A8.53,8.53,0,0,1,79.63,109.53Z"/><path class="cls-1" d="M82.1,108.36v-.79a4.64,4.64,0,0,0,.78,0,2.54,2.54,0,0,0,1.49-.69,3.08,3.08,0,0,0,.94-1.89h0a2.06,2.06,0,0,1-1.69.76,2,2,0,0,1-1.52-.63,2.2,2.2,0,0,1-.58-1.56,2.56,2.56,0,0,1,.69-1.79,2.27,2.27,0,0,1,1.75-.75,2.07,2.07,0,0,1,1.72.82,3.5,3.5,0,0,1,.64,2.2,4.43,4.43,0,0,1-1.23,3.34,3.45,3.45,0,0,1-2.07,1,4.18,4.18,0,0,1-.89.05Zm1.75-6.64a1.23,1.23,0,0,0-1,.49,2,2,0,0,0-.39,1.26,1.59,1.59,0,0,0,.37,1.09,1.27,1.27,0,0,0,1,.42,1.71,1.71,0,0,0,.84-.2,1.45,1.45,0,0,0,.57-.54.72.72,0,0,0,.09-.36,2.93,2.93,0,0,0-.37-1.56A1.21,1.21,0,0,0,83.84,101.72Z"/><path class="cls-1" d="M91.24,101v.79a4,4,0,0,0-.72.05,2.85,2.85,0,0,0-1.72.87,3,3,0,0,0-.76,1.65h0a2.22,2.22,0,0,1,3.29-.2,2.34,2.34,0,0,1,.6,1.67,2.61,2.61,0,0,1-.65,1.78,2.18,2.18,0,0,1-1.73.75,2.25,2.25,0,0,1-1.83-.83,3.37,3.37,0,0,1-.69-2.21,4.31,4.31,0,0,1,1.21-3.22A3.78,3.78,0,0,1,90.54,101a4.69,4.69,0,0,1,.7-.06Zm-1.66,6.63a1.23,1.23,0,0,0,1-.47A1.91,1.91,0,0,0,91,105.9a1.71,1.71,0,0,0-.4-1.2,1.38,1.38,0,0,0-1.07-.44,1.49,1.49,0,0,0-.82.24,1.58,1.58,0,0,0-.58.64.92.92,0,0,0-.1.42,2.53,2.53,0,0,0,.42,1.48A1.35,1.35,0,0,0,89.59,107.62Z"/><path class="cls-1" d="M95.1,108.25l.41-5.32h1.19l1,2.68q.31.85.48,1.46h0q.19-.64.64-1.82l.85-2.32h1.2l.37,5.32h-.92l-.12-2.54q0-.26,0-.91t0-1h0q-.13.43-.59,1.73l-1,2.68h-.69l-.94-2.64q-.28-.78-.54-1.76h0q-.05,1.45-.08,1.91L96,108.25Z"/><path class="cls-1" d="M101.78,103.38V103l.69-.64a9.23,9.23,0,0,0,1.06-1.1,1.35,1.35,0,0,0,.32-.81.74.74,0,0,0-.21-.54.84.84,0,0,0-.62-.21,1.55,1.55,0,0,0-.92.34l-.23-.51a2.06,2.06,0,0,1,1.35-.45,1.46,1.46,0,0,1,1.08.37,1.18,1.18,0,0,1,.37.86,1.69,1.69,0,0,1-.35,1,7.73,7.73,0,0,1-1.11,1.13l-.33.31v0h1.87v.6Z"/><path class="cls-1" d="M79.56,114.93a1.29,1.29,0,0,1,1,.42,1.61,1.61,0,0,1,.37,1.12,1.57,1.57,0,0,1-.41,1.18,1.38,1.38,0,0,1-1,.4,1.34,1.34,0,0,1-1-.41,1.56,1.56,0,0,1-.39-1.13,1.6,1.6,0,0,1,.41-1.16,1.35,1.35,0,0,1,1-.42Zm0,.45a.62.62,0,0,0-.56.34,1.54,1.54,0,0,0-.2.79,1.32,1.32,0,0,0,.22.79.65.65,0,0,0,.54.31.64.64,0,0,0,.56-.31,1.42,1.42,0,0,0,.21-.8,1.52,1.52,0,0,0-.19-.78.63.63,0,0,0-.58-.33Zm1.19,3.51H78.38v-.46h2.35v.46Zm-6.31,1.76h-.7v-5.84h.86l1.52,2.9q.54,1,.91,1.94h0q-.08-1-.08-2.45v-2.38h.7v5.84h-.79l-1.53-2.92q-.55-1.09-.91-2h0q0,1.25,0,2.48Z"/><path class="cls-1" d="M87.22,120.65h-3.7v-.48l.62-.6a16,16,0,0,0,1.69-1.79,2.09,2.09,0,0,0,.47-1.25,1.22,1.22,0,0,0-.27-.82,1.08,1.08,0,0,0-.87-.32,1.9,1.9,0,0,0-1.23.49l-.25-.55a2.45,2.45,0,0,1,1.63-.59,1.69,1.69,0,0,1,1.32.5,1.71,1.71,0,0,1,.45,1.19,2.47,2.47,0,0,1-.47,1.42,12,12,0,0,1-1.53,1.69l-.45.43v0h2.6Z"/><path class="cls-7" d="M79.56,114.93a1.29,1.29,0,0,1,1,.42,1.61,1.61,0,0,1,.37,1.12,1.57,1.57,0,0,1-.41,1.18,1.38,1.38,0,0,1-1,.4,1.34,1.34,0,0,1-1-.41,1.56,1.56,0,0,1-.39-1.13,1.6,1.6,0,0,1,.41-1.16,1.35,1.35,0,0,1,1-.42Zm0,.45a.62.62,0,0,0-.56.34,1.54,1.54,0,0,0-.2.79,1.32,1.32,0,0,0,.22.79.65.65,0,0,0,.54.31.64.64,0,0,0,.56-.31,1.42,1.42,0,0,0,.21-.8,1.52,1.52,0,0,0-.19-.78.63.63,0,0,0-.58-.33Zm1.19,3.51H78.38v-.46h2.35v.46Zm-6.31,1.76h-.7v-5.84h.86l1.52,2.9q.54,1,.91,1.94h0q-.08-1-.08-2.45v-2.38h.7v5.84h-.79l-1.53-2.92q-.55-1.09-.91-2h0q0,1.25,0,2.48Z"/><path class="cls-7" d="M87.22,120.65h-3.7v-.48l.62-.6a16,16,0,0,0,1.69-1.79,2.09,2.09,0,0,0,.47-1.25,1.22,1.22,0,0,0-.27-.82,1.08,1.08,0,0,0-.87-.32,1.9,1.9,0,0,0-1.23.49l-.25-.55a2.45,2.45,0,0,1,1.63-.59,1.69,1.69,0,0,1,1.32.5,1.71,1.71,0,0,1,.45,1.19,2.47,2.47,0,0,1-.47,1.42,12,12,0,0,1-1.53,1.69l-.45.43v0h2.6Z"/><path class="cls-1" d="M99.08,124.87H94v-.67l.85-.83a22.11,22.11,0,0,0,2.33-2.47,2.9,2.9,0,0,0,.65-1.73,1.69,1.69,0,0,0-.37-1.13,1.5,1.5,0,0,0-1.21-.44,2.63,2.63,0,0,0-1.7.68l-.35-.77a3.39,3.39,0,0,1,2.26-.82,2.34,2.34,0,0,1,1.83.69,2.38,2.38,0,0,1,.62,1.64,3.42,3.42,0,0,1-.65,2,16.64,16.64,0,0,1-2.11,2.34l-.63.59v0h3.59Z"/><path class="cls-7" d="M99.08,124.87H94v-.67l.85-.83a22.11,22.11,0,0,0,2.33-2.47,2.9,2.9,0,0,0,.65-1.73,1.69,1.69,0,0,0-.37-1.13,1.5,1.5,0,0,0-1.21-.44,2.63,2.63,0,0,0-1.7.68l-.35-.77a3.39,3.39,0,0,1,2.26-.82,2.34,2.34,0,0,1,1.83.69,2.38,2.38,0,0,1,.62,1.64,3.42,3.42,0,0,1-.65,2,16.64,16.64,0,0,1-2.11,2.34l-.63.59v0h3.59Z"/><polygon class="cls-1" points="70.37 124.85 73.75 124.85 73.75 125.33 71.42 130.21 70.67 130.21 72.99 125.47 72.99 125.45 70.37 125.45 70.37 124.85"/><polygon class="cls-1" points="76.07 130.21 76.07 125.53 76.06 125.53 75.13 126.03 74.98 125.48 76.15 124.85 76.77 124.85 76.77 130.21 76.07 130.21"/><path class="cls-1" d="M79,131.17l-.51.06a10.43,10.43,0,0,0,.49-2l.81-.08a11.62,11.62,0,0,1-.38,1.12A6.39,6.39,0,0,1,79,131.17Z"/><path class="cls-1" d="M80.85,130.29v-.59a3.47,3.47,0,0,0,.58,0,1.91,1.91,0,0,0,1.12-.52,2.31,2.31,0,0,0,.71-1.42h0a1.54,1.54,0,0,1-1.27.57,1.48,1.48,0,0,1-1.14-.47,1.65,1.65,0,0,1-.44-1.17,1.92,1.92,0,0,1,.51-1.34,1.7,1.7,0,0,1,1.31-.56,1.55,1.55,0,0,1,1.29.61A2.62,2.62,0,0,1,84,127a3.32,3.32,0,0,1-.92,2.51,2.59,2.59,0,0,1-1.56.72,3.12,3.12,0,0,1-.67,0Zm1.31-5a.92.92,0,0,0-.75.37,1.47,1.47,0,0,0-.29.94,1.2,1.2,0,0,0,.28.82,1,1,0,0,0,.75.32,1.28,1.28,0,0,0,.63-.15,1.08,1.08,0,0,0,.42-.41.54.54,0,0,0,.07-.27,2.2,2.2,0,0,0-.28-1.17A.91.91,0,0,0,82.16,125.31Z"/><path class="cls-1" d="M87.71,124.77v.59a3,3,0,0,0-.54,0,2.13,2.13,0,0,0-1.29.66,2.27,2.27,0,0,0-.57,1.24h0a1.66,1.66,0,0,1,2.47-.15,1.76,1.76,0,0,1,.45,1.25,2,2,0,0,1-.49,1.34,1.64,1.64,0,0,1-1.3.56,1.69,1.69,0,0,1-1.37-.62,2.52,2.52,0,0,1-.51-1.66,3.23,3.23,0,0,1,.91-2.41,2.83,2.83,0,0,1,1.71-.79,3.51,3.51,0,0,1,.53,0Zm-1.24,5a.92.92,0,0,0,.75-.35,1.43,1.43,0,0,0,.29-.93,1.28,1.28,0,0,0-.3-.9,1,1,0,0,0-.8-.33,1.12,1.12,0,0,0-.61.18,1.19,1.19,0,0,0-.43.48.69.69,0,0,0-.07.31,1.9,1.9,0,0,0,.32,1.11A1,1,0,0,0,86.46,129.74Z"/><path class="cls-1" d="M70.25,140.17l.2-.55a2.27,2.27,0,0,0,1.19.33,1.2,1.2,0,0,0,.93-.32,1,1,0,0,0,.28-.72.92.92,0,0,0-.41-.8,1.69,1.69,0,0,0-1-.27h-.4v-.54h.4a1.5,1.5,0,0,0,.82-.23.75.75,0,0,0,.37-.67.78.78,0,0,0-.23-.58,1,1,0,0,0-.7-.23,1.8,1.8,0,0,0-1.07.35l-.2-.53a2.36,2.36,0,0,1,1.41-.41,1.6,1.6,0,0,1,1.14.37,1.2,1.2,0,0,1,.4.91,1.22,1.22,0,0,1-.26.76,1.56,1.56,0,0,1-.73.51v0a1.51,1.51,0,0,1,.85.46,1.32,1.32,0,0,1,.34.91,1.47,1.47,0,0,1-.52,1.14,2.07,2.07,0,0,1-1.43.47A2.49,2.49,0,0,1,70.25,140.17Z"/><path class="cls-1" d="M74.94,135.73a1.58,1.58,0,0,1,1.35-.73,1.47,1.47,0,0,1,1.31.72,3.65,3.65,0,0,1,.47,2,3.78,3.78,0,0,1-.49,2.09,1.56,1.56,0,0,1-1.37.73,1.48,1.48,0,0,1-1.28-.73,3.66,3.66,0,0,1-.49-2,3.53,3.53,0,0,1,.51-2.05Zm1.31-.17a.89.89,0,0,0-.79.59,3.68,3.68,0,0,0-.3,1.65,3.62,3.62,0,0,0,.29,1.61.89.89,0,0,0,.79.58.87.87,0,0,0,.81-.59,4,4,0,0,0,.28-1.64,3.91,3.91,0,0,0-.27-1.61A.87.87,0,0,0,76.24,135.55Z"/><path class="cls-1" d="M79,141.4l-.51.06a10.43,10.43,0,0,0,.49-2l.81-.08a11.62,11.62,0,0,1-.38,1.12A6.39,6.39,0,0,1,79,141.4Z"/><path class="cls-1" d="M83.48,135v.59a3,3,0,0,0-.54,0,2.13,2.13,0,0,0-1.29.66,2.27,2.27,0,0,0-.57,1.24h0a1.66,1.66,0,0,1,2.47-.15,1.76,1.76,0,0,1,.45,1.25,2,2,0,0,1-.49,1.34,1.64,1.64,0,0,1-1.3.56,1.69,1.69,0,0,1-1.37-.62,2.52,2.52,0,0,1-.51-1.66,3.23,3.23,0,0,1,.91-2.41A2.83,2.83,0,0,1,83,135a3.51,3.51,0,0,1,.53,0Zm-1.24,5a.92.92,0,0,0,.75-.35,1.43,1.43,0,0,0,.29-.93,1.28,1.28,0,0,0-.3-.9,1,1,0,0,0-.8-.33,1.12,1.12,0,0,0-.61.18,1.19,1.19,0,0,0-.43.48.69.69,0,0,0-.07.31,1.9,1.9,0,0,0,.32,1.11A1,1,0,0,0,82.24,140Z"/><polygon class="cls-1" points="86.22 140.44 86.22 135.76 86.21 135.76 85.28 136.26 85.14 135.71 86.31 135.08 86.92 135.08 86.92 140.44 86.22 140.44"/><line class="cls-3" x1="200.13" y1="215.06" x2="200.13" y2="193.39"/><line class="cls-3" x1="200.13" y1="193.39" x2="194.38" y2="199.14"/><line class="cls-3" x1="200.13" y1="193.39" x2="205.87" y2="199.14"/><path class="cls-1" d="M249.89,209.09l.21-.64a2.2,2.2,0,0,0,1.24.38,1.19,1.19,0,0,0,1-.37,1.24,1.24,0,0,0,.3-.84,1.11,1.11,0,0,0-.43-.93,1.64,1.64,0,0,0-1-.32h-.42v-.63h.42a1.46,1.46,0,0,0,.86-.27.9.9,0,0,0,.39-.78.89.89,0,0,0-1-.94,1.76,1.76,0,0,0-1.12.41l-.21-.61a2.29,2.29,0,0,1,1.47-.48,1.57,1.57,0,0,1,1.19.43,1.46,1.46,0,0,1,.41,1.05,1.52,1.52,0,0,1-.27.88,1.65,1.65,0,0,1-.77.59v0a1.54,1.54,0,0,1,.89.54,1.63,1.63,0,0,1,.36,1.05,1.8,1.8,0,0,1-.54,1.32,2,2,0,0,1-1.5.54A2.4,2.4,0,0,1,249.89,209.09Z"/><path class="cls-1" d="M254.62,210.53l-.53.07a13.19,13.19,0,0,0,.52-2.3l.84-.1q-.16.61-.4,1.3A7.79,7.79,0,0,1,254.62,210.53Z"/><path class="cls-1" d="M259.69,209.41h-3.57v-.52l.59-.64a16.54,16.54,0,0,0,1.63-1.91,2.39,2.39,0,0,0,.46-1.34,1.41,1.41,0,0,0-.26-.88,1,1,0,0,0-.84-.34,1.74,1.74,0,0,0-1.19.53l-.24-.59a2.23,2.23,0,0,1,1.58-.63,1.55,1.55,0,0,1,1.28.54,2,2,0,0,1,.43,1.27,2.84,2.84,0,0,1-.46,1.53,12.5,12.5,0,0,1-1.47,1.81l-.44.46v0h2.51Z"/><path class="cls-1" d="M261,209.5v-.69a3.28,3.28,0,0,0,.61,0,1.91,1.91,0,0,0,1.17-.6,2.79,2.79,0,0,0,.74-1.65h0a1.55,1.55,0,0,1-1.33.66,1.48,1.48,0,0,1-1.19-.55,2,2,0,0,1-.46-1.36,2.37,2.37,0,0,1,.54-1.56,1.7,1.7,0,0,1,1.37-.65,1.57,1.57,0,0,1,1.35.71,3.29,3.29,0,0,1,.5,1.92,4.1,4.1,0,0,1-1,2.91,2.6,2.6,0,0,1-1.63.83,3,3,0,0,1-.7,0Zm1.37-5.78a.93.93,0,0,0-.79.43,1.83,1.83,0,0,0-.31,1.1,1.48,1.48,0,0,0,.29,1,1,1,0,0,0,.78.37,1.23,1.23,0,0,0,.66-.18,1.19,1.19,0,0,0,.44-.47.68.68,0,0,0,.07-.32,2.78,2.78,0,0,0-.29-1.36A.93.93,0,0,0,262.34,203.73Z"/><path class="cls-1" d="M182.69,110v.71h-2.14l-.22,1.6a3.23,3.23,0,0,1,.46,0,2.06,2.06,0,0,1,1.21.33,1.67,1.67,0,0,1,.58.63,2,2,0,0,1,.22,1,2.08,2.08,0,0,1-.59,1.52,2,2,0,0,1-1.49.6,2.39,2.39,0,0,1-1.39-.38l.19-.64a2.15,2.15,0,0,0,1.21.34,1.3,1.3,0,0,0,.94-.37,1.27,1.27,0,0,0,.38-1,1.29,1.29,0,0,0-.4-1,1.72,1.72,0,0,0-1.2-.37,5.71,5.71,0,0,0-.78.06l.36-3Z"/><path class="cls-1" d="M184,117.34l-.53.07a13.2,13.2,0,0,0,.52-2.3l.84-.1q-.16.61-.4,1.3A7.8,7.8,0,0,1,184,117.34Z"/><path class="cls-1" d="M186,110.74a1.62,1.62,0,0,1,1.42-.85,1.51,1.51,0,0,1,1.36.83,4.61,4.61,0,0,1,.49,2.32,4.78,4.78,0,0,1-.51,2.43,1.59,1.59,0,0,1-1.44.85,1.52,1.52,0,0,1-1.34-.84,4.61,4.61,0,0,1-.52-2.35,4.45,4.45,0,0,1,.54-2.38Zm1.36-.2q-.51,0-.82.68a4.67,4.67,0,0,0-.31,1.91,4.6,4.6,0,0,0,.31,1.87q.31.67.83.67a.93.93,0,0,0,.85-.68,5.06,5.06,0,0,0,.29-1.91,5,5,0,0,0-.28-1.87A.92.92,0,0,0,187.37,110.54Z"/><path class="cls-1" d="M189.93,115.9l.21-.64a2.2,2.2,0,0,0,1.24.38,1.19,1.19,0,0,0,1-.37,1.24,1.24,0,0,0,.3-.84,1.11,1.11,0,0,0-.43-.93,1.64,1.64,0,0,0-1-.32h-.42v-.63h.42a1.46,1.46,0,0,0,.86-.27.9.9,0,0,0,.39-.78.89.89,0,0,0-1-.94,1.76,1.76,0,0,0-1.12.41l-.21-.61a2.29,2.29,0,0,1,1.47-.48,1.57,1.57,0,0,1,1.19.43,1.46,1.46,0,0,1,.41,1.05,1.52,1.52,0,0,1-.27.89,1.65,1.65,0,0,1-.77.59v0a1.54,1.54,0,0,1,.89.54,1.63,1.63,0,0,1,.36,1.05,1.8,1.8,0,0,1-.54,1.32,2,2,0,0,1-1.5.54A2.4,2.4,0,0,1,189.93,115.9Z"/><path class="cls-1" d="M197.16,184.49v0a1.62,1.62,0,0,1-.67-.6,1.52,1.52,0,0,1-.22-.79,1.56,1.56,0,0,1,.49-1.19,1.75,1.75,0,0,1,1.24-.46,1.59,1.59,0,0,1,1.21.45,1.51,1.51,0,0,1,.43,1.08,1.55,1.55,0,0,1-.93,1.45v0a1.67,1.67,0,0,1,1.13,1.61,1.7,1.7,0,0,1-.54,1.31,2.13,2.13,0,0,1-2.72,0,1.57,1.57,0,0,1-.51-1.19,1.75,1.75,0,0,1,1.11-1.67Zm.78,2.74a1.06,1.06,0,0,0,1.12-1.11,1.15,1.15,0,0,0-.31-.85,2.22,2.22,0,0,0-.92-.51,1.46,1.46,0,0,0-.74.5,1.27,1.27,0,0,0-.26.79,1.14,1.14,0,0,0,.29.83,1.06,1.06,0,0,0,.83.34Zm0-5.21a.91.91,0,0,0-.71.29,1,1,0,0,0-.26.71.94.94,0,0,0,.27.72,1.87,1.87,0,0,0,.8.43,1.39,1.39,0,0,0,.62-.44,1.08,1.08,0,0,0,.23-.69,1.11,1.11,0,0,0-.24-.72A.85.85,0,0,0,198,182Z"/><path class="cls-1" d="M200.82,188.86l-.53.07a13.2,13.2,0,0,0,.52-2.3l.84-.1q-.15.61-.4,1.3A7.8,7.8,0,0,1,200.82,188.86Z"/><path class="cls-1" d="M202.3,187.42l.21-.64a2.2,2.2,0,0,0,1.24.38,1.19,1.19,0,0,0,1-.37,1.24,1.24,0,0,0,.3-.84,1.11,1.11,0,0,0-.43-.93,1.64,1.64,0,0,0-1-.32h-.42v-.63h.42a1.46,1.46,0,0,0,.86-.27.9.9,0,0,0,.39-.78.89.89,0,0,0-1-.94,1.76,1.76,0,0,0-1.12.41l-.21-.61a2.29,2.29,0,0,1,1.47-.48,1.57,1.57,0,0,1,1.19.43,1.46,1.46,0,0,1,.41,1.05,1.52,1.52,0,0,1-.27.89,1.65,1.65,0,0,1-.77.59v0a1.54,1.54,0,0,1,.89.54,1.63,1.63,0,0,1,.36,1.05,1.8,1.8,0,0,1-.54,1.32,2,2,0,0,1-1.5.54A2.41,2.41,0,0,1,202.3,187.42Z"/><path class="cls-1" d="M210.08,181.52v.71h-2.14l-.21,1.6a3.23,3.23,0,0,1,.46,0,2.06,2.06,0,0,1,1.21.33,1.67,1.67,0,0,1,.58.63,2,2,0,0,1,.22,1,2.08,2.08,0,0,1-.59,1.52,2,2,0,0,1-1.49.6,2.39,2.39,0,0,1-1.39-.38l.19-.64a2.15,2.15,0,0,0,1.2.34,1.3,1.3,0,0,0,.94-.37,1.27,1.27,0,0,0,.38-1,1.29,1.29,0,0,0-.4-1,1.72,1.72,0,0,0-1.2-.37,5.7,5.7,0,0,0-.78.06l.36-3Z"/><polygon class="cls-1" points="118.86 152.25 118.86 146.81 118.84 146.81 117.87 147.4 117.72 146.76 118.95 146.03 119.59 146.03 119.59 152.25 118.86 152.25"/><polygon class="cls-1" points="121.74 146.03 125.27 146.03 125.27 146.58 122.83 152.25 122.05 152.25 124.47 146.75 124.47 146.73 121.74 146.73 121.74 146.03"/><path class="cls-1" d="M126.33,153.37l-.53.07a13.2,13.2,0,0,0,.52-2.3l.84-.1q-.16.61-.4,1.3A7.84,7.84,0,0,1,126.33,153.37Z"/><path class="cls-1" d="M130.89,152.25h-.71v-1.7h-2.6V150l2.5-4h.82v3.86h.78v.65h-.78v1.7Zm-2.55-2.35h1.83v-2.08q0-.49,0-1h0q-.22.47-.46.92l-1.37,2.11Z"/><polygon class="cls-1" points="133.89 152.25 133.89 146.81 133.88 146.81 132.9 147.4 132.76 146.76 133.98 146.03 134.63 146.03 134.63 152.25 133.89 152.25"/><polygon class="cls-1" points="280.06 99.77 280.06 94.33 280.04 94.33 279.07 94.92 278.92 94.28 280.14 93.55 280.79 93.55 280.79 99.77 280.06 99.77"/><path class="cls-1" d="M286.4,99.77h-3.57v-.52l.59-.64a16.54,16.54,0,0,0,1.63-1.91,2.39,2.39,0,0,0,.46-1.34,1.41,1.41,0,0,0-.26-.88,1,1,0,0,0-.84-.34,1.74,1.74,0,0,0-1.19.53l-.24-.59a2.23,2.23,0,0,1,1.58-.63,1.55,1.55,0,0,1,1.28.54,2,2,0,0,1,.43,1.27,2.84,2.84,0,0,1-.46,1.53,12.52,12.52,0,0,1-1.47,1.81l-.44.46v0h2.51Z"/><path class="cls-1" d="M287.53,100.89,287,101a13.2,13.2,0,0,0,.52-2.3l.84-.1q-.15.61-.4,1.3A7.8,7.8,0,0,1,287.53,100.89Z"/><polygon class="cls-1" points="290.67 99.77 290.67 94.33 290.65 94.33 289.68 94.92 289.54 94.28 290.76 93.55 291.4 93.55 291.4 99.77 290.67 99.77"/><path class="cls-1" d="M293.91,94.3a1.62,1.62,0,0,1,1.42-.85,1.51,1.51,0,0,1,1.36.83,4.61,4.61,0,0,1,.49,2.31,4.78,4.78,0,0,1-.51,2.43,1.59,1.59,0,0,1-1.44.85,1.52,1.52,0,0,1-1.34-.84,4.62,4.62,0,0,1-.52-2.35,4.45,4.45,0,0,1,.54-2.38Zm1.36-.2q-.51,0-.82.68a4.68,4.68,0,0,0-.31,1.91,4.6,4.6,0,0,0,.31,1.87q.31.67.83.67a.93.93,0,0,0,.85-.68,5.06,5.06,0,0,0,.29-1.91,5,5,0,0,0-.28-1.87A.92.92,0,0,0,295.27,94.09Z"/><polygon class="cls-1" points="115.61 245.17 115.61 239.74 115.6 239.74 114.63 240.32 114.48 239.68 115.7 238.95 116.35 238.95 116.35 245.17 115.61 245.17"/><path class="cls-1" d="M119.43,241.93v0a1.62,1.62,0,0,1-.67-.6,1.52,1.52,0,0,1-.22-.79,1.56,1.56,0,0,1,.49-1.19,1.75,1.75,0,0,1,1.24-.46,1.59,1.59,0,0,1,1.21.45,1.51,1.51,0,0,1,.43,1.08,1.55,1.55,0,0,1-.93,1.45v0a1.67,1.67,0,0,1,1.13,1.61,1.7,1.7,0,0,1-.54,1.31,2.13,2.13,0,0,1-2.72,0,1.57,1.57,0,0,1-.51-1.19,1.75,1.75,0,0,1,1.11-1.67Zm.78,2.74a1.06,1.06,0,0,0,1.12-1.11,1.15,1.15,0,0,0-.31-.85,2.22,2.22,0,0,0-.92-.51,1.46,1.46,0,0,0-.74.5,1.27,1.27,0,0,0-.26.79,1.14,1.14,0,0,0,.29.83,1.06,1.06,0,0,0,.83.34Zm0-5.21a.91.91,0,0,0-.71.29,1,1,0,0,0-.26.71.94.94,0,0,0,.27.72,1.87,1.87,0,0,0,.8.43,1.39,1.39,0,0,0,.62-.44,1.08,1.08,0,0,0,.23-.69,1.11,1.11,0,0,0-.24-.72A.86.86,0,0,0,120.22,239.45Z"/><path class="cls-1" d="M123.09,246.29l-.53.07a13.2,13.2,0,0,0,.52-2.3l.84-.1q-.15.61-.4,1.3A7.8,7.8,0,0,1,123.09,246.29Z"/><polygon class="cls-1" points="130.65 245.17 130.65 239.74 130.63 239.74 129.66 240.32 129.51 239.68 130.73 238.95 131.38 238.95 131.38 245.17 130.65 245.17"/><path class="cls-1" d="M127.93,239v.71h-2.13l-.22,1.6a3.25,3.25,0,0,1,.46,0,2.07,2.07,0,0,1,1.21.33,1.67,1.67,0,0,1,.58.63,2,2,0,0,1,.22,1,2.08,2.08,0,0,1-.59,1.52,2,2,0,0,1-1.49.6,2.39,2.39,0,0,1-1.39-.38l.19-.64a2.15,2.15,0,0,0,1.2.34,1.31,1.31,0,0,0,.94-.37,1.27,1.27,0,0,0,.38-1,1.29,1.29,0,0,0-.4-1,1.72,1.72,0,0,0-1.2-.37,5.7,5.7,0,0,0-.78.06l.36-3Z"/><path class="cls-1" d="M172.25,57.6v.71h-2.14l-.22,1.6a3.23,3.23,0,0,1,.46,0,2.06,2.06,0,0,1,1.21.33,1.67,1.67,0,0,1,.58.63,2,2,0,0,1,.22,1,2.09,2.09,0,0,1-.59,1.52,2,2,0,0,1-1.49.6,2.39,2.39,0,0,1-1.39-.38l.19-.64a2.15,2.15,0,0,0,1.21.34,1.3,1.3,0,0,0,.94-.37,1.27,1.27,0,0,0,.38-1,1.29,1.29,0,0,0-.4-1,1.72,1.72,0,0,0-1.2-.37,5.72,5.72,0,0,0-.78.06l.36-3Z"/><path class="cls-1" d="M173.61,64.94l-.53.07a13.2,13.2,0,0,0,.52-2.3l.84-.1q-.15.61-.4,1.3A7.79,7.79,0,0,1,173.61,64.94Z"/><path class="cls-1" d="M178.68,63.82h-3.57V63.3l.59-.64a16.55,16.55,0,0,0,1.63-1.91,2.39,2.39,0,0,0,.46-1.34,1.41,1.41,0,0,0-.26-.88,1,1,0,0,0-.84-.34,1.74,1.74,0,0,0-1.19.53l-.24-.59a2.23,2.23,0,0,1,1.58-.63,1.55,1.55,0,0,1,1.28.54,2,2,0,0,1,.43,1.27,2.84,2.84,0,0,1-.46,1.53,12.51,12.51,0,0,1-1.47,1.81l-.44.46v0h2.51Z"/><path class="cls-1" d="M182.86,57.6v.71h-2.14l-.22,1.6a3.23,3.23,0,0,1,.46,0,2.06,2.06,0,0,1,1.21.33,1.67,1.67,0,0,1,.58.63,2,2,0,0,1,.22,1,2.09,2.09,0,0,1-.59,1.52,2,2,0,0,1-1.49.6,2.39,2.39,0,0,1-1.39-.38l.19-.64a2.15,2.15,0,0,0,1.21.34,1.3,1.3,0,0,0,.94-.37,1.27,1.27,0,0,0,.38-1,1.29,1.29,0,0,0-.4-1,1.72,1.72,0,0,0-1.2-.37,5.72,5.72,0,0,0-.78.06l.36-3Z"/><path class="cls-1" d="M237.32,153.61h-3.57v-.52l.59-.64a16.54,16.54,0,0,0,1.63-1.91,2.39,2.39,0,0,0,.46-1.34,1.41,1.41,0,0,0-.26-.88,1,1,0,0,0-.84-.34,1.74,1.74,0,0,0-1.19.53l-.24-.59a2.23,2.23,0,0,1,1.58-.63,1.55,1.55,0,0,1,1.28.54,2,2,0,0,1,.44,1.27,2.84,2.84,0,0,1-.46,1.53,12.53,12.53,0,0,1-1.47,1.81l-.44.46v0h2.51Z"/><path class="cls-1" d="M238.45,154.72l-.53.07a13.2,13.2,0,0,0,.52-2.3l.84-.1q-.16.61-.4,1.3A7.78,7.78,0,0,1,238.45,154.72Z"/><path class="cls-1" d="M240.41,148.13a1.62,1.62,0,0,1,1.42-.85,1.51,1.51,0,0,1,1.36.83,4.61,4.61,0,0,1,.49,2.32,4.78,4.78,0,0,1-.51,2.43,1.59,1.59,0,0,1-1.44.85,1.52,1.52,0,0,1-1.34-.84,4.61,4.61,0,0,1-.52-2.35,4.45,4.45,0,0,1,.54-2.38Zm1.36-.2q-.51,0-.82.68a4.67,4.67,0,0,0-.31,1.91,4.6,4.6,0,0,0,.31,1.87q.31.67.83.67a.93.93,0,0,0,.85-.68,5.06,5.06,0,0,0,.29-1.91,5,5,0,0,0-.28-1.87A.92.92,0,0,0,241.77,147.93Z"/><path class="cls-1" d="M247.94,153.61h-3.57v-.52l.59-.64a16.54,16.54,0,0,0,1.63-1.91,2.39,2.39,0,0,0,.46-1.34,1.41,1.41,0,0,0-.26-.88,1,1,0,0,0-.84-.34,1.74,1.74,0,0,0-1.19.53l-.24-.59a2.23,2.23,0,0,1,1.58-.63,1.55,1.55,0,0,1,1.28.54,2,2,0,0,1,.44,1.27,2.84,2.84,0,0,1-.46,1.53,12.53,12.53,0,0,1-1.47,1.81l-.44.46v0h2.51Z"/></g></g></svg>