<svg xmlns="http://www.w3.org/2000/svg" viewBox="0 0 479.45 479.45"><defs><style>.cls-1{fill:#ba9e6d;}</style></defs><title>Ресурс 2</title><g id="Слой_2" data-name="Слой 2"><g id="Слой_1-2" data-name="Слой 1"><g id="zoom_" data-name="zoom +"><path class="cls-1" d="M215,24A191,191,0,0,1,350.06,350.06,191,191,0,0,1,79.94,79.94,189.75,189.75,0,0,1,215,24m0-24C96.26,0,0,96.26,0,215S96.26,430,215,430s215-96.26,215-215S333.74,0,215,0Z"/><path class="cls-1" d="M288,203H142a12,12,0,0,0,0,24H288a12,12,0,0,0,0-24Z"/><path class="cls-1" d="M215,130a12,12,0,0,0-12,12V288a12,12,0,0,0,24,0V142a12,12,0,0,0-12-12Z"/><path class="cls-1" d="M364.22,352.24a12,12,0,0,0-8.49,20.47L459,475.95a12,12,0,0,0,17-17L372.71,355.74a12,12,0,0,0-8.49-3.5Z"/></g></g></g></svg>