<svg width="65" height="65" viewBox="0 0 65 65" fill="none" xmlns="http://www.w3.org/2000/svg">
<g filter="url(#filter0_d)">
<circle cx="32.5" cy="28.5" r="22.5" fill="#28292D"/>
</g>
<g clip-path="url(#clip0)">
<path d="M40.8371 30.9807L40.8262 30.9707C40.6552 30.8127 40.1311 30.3027 39.9543 30.0798C39.7469 29.8017 39.7947 29.6194 39.9502 29.3464C40.1467 29.0013 40.5403 28.472 40.957 27.9115C42.2914 26.117 43.1529 24.8746 42.9755 23.9921L42.88 23.5208L37.952 23.5229C37.9347 23.5694 37.6775 24.6991 36.5924 26.6227C35.8055 28.0175 35.2893 28.4557 35.1075 28.533L35.0794 28.5245C35.0202 28.4514 34.9169 28.2542 34.8744 27.7458C34.83 27.2133 34.8693 26.5686 34.9074 25.9451C34.9519 25.214 34.9903 24.5826 34.8984 24.1308L34.7487 23.3948C34.5678 23.3659 33.9057 23.1104 32.0608 23.091C30.4636 23.0747 29.9944 23.3054 29.764 23.5087L29.0019 24.1813L29.9652 24.5054C30.3318 24.6288 30.4535 24.7711 30.5533 25.4767C30.6185 25.9366 30.6526 26.7094 30.5822 27.3994C30.4812 28.3887 30.2389 28.5728 30.2263 28.5826C30.1846 28.5683 29.8306 28.4135 29.2162 27.1144C28.7899 26.2134 28.4163 25.1477 28.1432 24.3695C27.8307 23.4783 27.887 23.668 27.7285 23.247L22.9608 23.2468L23.2694 24.0449C24.5556 27.3752 25.7357 29.976 27.3151 31.8439C29.0599 33.9078 31.2285 34.9884 34.1495 34.9884H34.7366V34.4013C34.7366 33.8524 34.782 33.4572 34.8794 33.1575C34.9389 32.975 35.0179 32.8241 35.101 32.6659C35.2242 32.4329 35.3447 32.333 35.4104 32.3182C35.47 32.3046 35.5749 32.3483 35.6911 32.435C36.0247 32.6837 36.2895 33.0106 36.5699 33.3568C36.9744 33.8562 37.3927 34.3725 38.0564 34.7106C38.419 34.8952 39.0838 34.9885 39.4497 34.9885C39.5464 34.9885 42.9957 34.9884 43 34.9884L42.9748 34.3771C42.9371 33.4632 42.2178 32.3203 40.8371 30.9807ZM39.4724 33.8142H39.463C39.2107 33.8183 38.7293 33.7356 38.5892 33.6644C38.148 33.4396 37.8396 33.0588 37.4823 32.6178C37.1687 32.2306 36.8445 31.8302 36.393 31.4937C36.0279 31.2214 35.6963 31.1417 35.433 31.1417C35.3278 31.1417 35.2334 31.1544 35.1523 31.1728C34.8467 31.2416 34.4096 31.4614 34.0621 32.1187C33.9641 32.3057 33.8529 32.5174 33.7629 32.7944C33.6686 33.0843 33.6098 33.4064 33.5819 33.7983C31.3806 33.6732 29.6629 32.8024 28.2117 31.0859C26.8625 29.4899 25.801 27.2576 24.6768 24.4205C24.7582 24.4205 26.7963 24.4208 26.9166 24.4208C26.9535 24.5243 26.9932 24.6378 27.0354 24.758C27.3297 25.5975 27.7329 26.747 28.2079 27.7273C28.8881 29.1311 29.5093 29.7572 30.2219 29.7572C30.5777 29.7572 30.8967 29.6064 31.1446 29.321C31.4979 28.9142 31.703 28.2427 31.7718 27.268C31.8261 26.4995 31.7757 25.734 31.716 25.3122C31.6668 24.9651 31.5966 24.6008 31.4254 24.2744C32.1551 24.2415 33.1322 24.2935 33.7513 24.3823C33.8075 24.6887 33.7708 25.2909 33.7354 25.8736C33.6496 27.281 33.5611 28.7335 34.3061 29.413C34.4371 29.5326 34.5761 29.5967 34.5801 29.5993L34.9592 29.7156C35.1055 29.6705 35.953 30.1004 37.5577 27.3C38.0718 26.4027 38.5505 25.3687 38.8083 24.6934C39.4061 24.6922 41.4427 24.6945 41.6819 24.6948C41.343 25.4407 40.5397 26.5047 40.0147 27.2109C39.557 27.8264 39.1618 28.358 38.9298 28.7653C38.499 29.5219 38.5715 30.1963 39.0202 30.7912L39.0272 30.8003C39.2777 31.1191 39.8961 31.7092 40.0244 31.8282C40.9536 32.7304 41.4014 33.3785 41.6145 33.814H39.4724V33.8142Z" fill="#AAA0A0"/>
</g>
<defs>
<filter id="filter0_d" x="0" y="0" width="65" height="65" filterUnits="userSpaceOnUse" color-interpolation-filters="sRGB">
<feFlood flood-opacity="0" result="BackgroundImageFix"/>
<feColorMatrix in="SourceAlpha" type="matrix" values="0 0 0 0 0 0 0 0 0 0 0 0 0 0 0 0 0 0 127 0"/>
<feOffset dy="4"/>
<feGaussianBlur stdDeviation="5"/>
<feColorMatrix type="matrix" values="0 0 0 0 0 0 0 0 0 0 0 0 0 0 0 0 0 0 0.25 0"/>
<feBlend mode="normal" in2="BackgroundImageFix" result="effect1_dropShadow"/>
<feBlend mode="normal" in="SourceGraphic" in2="effect1_dropShadow" result="shape"/>
</filter>
<clipPath id="clip0">
<rect width="20.0391" height="20" fill="white" transform="translate(23 19)"/>
</clipPath>
</defs>
</svg>
