<svg width="75" height="75" viewBox="0 0 75 75" fill="none" xmlns="http://www.w3.org/2000/svg">
<g filter="url(#filter0_d)">
<circle cx="37.5" cy="33.5" r="27.5" fill="url(#paint0_linear)"/>
</g>
<g clip-path="url(#clip0)">
<path d="M30.5156 46.047H38.3438V37.499H35.5312V34.681H38.3438V31.1585C38.3438 29.2162 39.9208 27.636 41.8594 27.636H45.375V30.454H42.5625C41.787 30.454 41.1562 31.086 41.1562 31.863V34.681H45.2481L44.7794 37.499H41.1562V46.047H47.4844C49.4229 46.047 51 44.4668 51 42.5245V25.5225C51 23.5802 49.4229 22 47.4844 22H30.5156C28.5771 22 27 23.5802 27 25.5225V42.5245C27 44.4668 28.5771 46.047 30.5156 46.047ZM28.4062 25.5225C28.4062 24.3571 29.3525 23.409 30.5156 23.409H47.4844C48.6475 23.409 49.5938 24.3571 49.5938 25.5225V42.5245C49.5938 43.6898 48.6475 44.638 47.4844 44.638H42.5625V38.908H45.9706L46.9081 33.272H42.5625V31.863H46.7812V26.227H41.8594C39.1454 26.227 36.9375 28.4392 36.9375 31.1585V33.272H34.125V38.908H36.9375V44.638H30.5156C29.3525 44.638 28.4062 43.6898 28.4062 42.5245V25.5225Z" fill="white"/>
</g>
<defs>
<filter id="filter0_d" x="0" y="0" width="75" height="75" filterUnits="userSpaceOnUse" color-interpolation-filters="sRGB">
<feFlood flood-opacity="0" result="BackgroundImageFix"/>
<feColorMatrix in="SourceAlpha" type="matrix" values="0 0 0 0 0 0 0 0 0 0 0 0 0 0 0 0 0 0 127 0"/>
<feOffset dy="4"/>
<feGaussianBlur stdDeviation="5"/>
<feColorMatrix type="matrix" values="0 0 0 0 0 0 0 0 0 0 0 0 0 0 0 0 0 0 0.25 0"/>
<feBlend mode="normal" in2="BackgroundImageFix" result="effect1_dropShadow"/>
<feBlend mode="normal" in="SourceGraphic" in2="effect1_dropShadow" result="shape"/>
</filter>
<linearGradient id="paint0_linear" x1="37.5" y1="6" x2="37.5" y2="61" gradientUnits="userSpaceOnUse">
<stop stop-color="#219CF9"/>
<stop offset="1" stop-color="#4E50EA"/>
</linearGradient>
<clipPath id="clip0">
<rect width="24" height="24.047" fill="white" transform="translate(27 22)"/>
</clipPath>
</defs>
</svg>
