<svg width="138" height="43" viewBox="0 0 138 43" fill="none" xmlns="http://www.w3.org/2000/svg">
<rect x="22" y="6" width="116" height="32" rx="16" fill="#161719"/>
<path d="M21.5 43C33.3741 43 43 33.3741 43 21.5C43 9.62588 33.3741 0 21.5 0C9.62588 0 0 9.62588 0 21.5C0 33.3741 9.62588 43 21.5 43Z" fill="#FFC843"/>
<path d="M21.5001 38.2223C30.7355 38.2223 38.2223 30.7355 38.2223 21.5001C38.2223 12.2646 30.7355 4.77783 21.5001 4.77783C12.2646 4.77783 4.77783 12.2646 4.77783 21.5001C4.77783 30.7355 12.2646 38.2223 21.5001 38.2223Z" fill="#D38700"/>
<path d="M23.7604 19.9424H19.2397C18.7815 19.9424 18.3945 19.5554 18.3945 19.0972V15.5899C18.3945 15.1317 18.7815 14.7447 19.2397 14.7447H23.7604C24.2186 14.7447 24.6056 15.1317 24.6056 15.5899C24.6056 16.3816 25.2473 17.0232 26.0389 17.0232C26.8306 17.0232 27.4723 16.3816 27.4723 15.5899C27.4723 13.5431 25.8072 11.878 23.7604 11.878H22.9334V10.4891C22.9334 9.69744 22.2917 9.05579 21.5001 9.05579C20.7084 9.05579 20.0667 9.69744 20.0667 10.4891V11.878H19.2397C17.1929 11.878 15.5278 13.5431 15.5278 15.5899V19.0972C15.5278 21.1407 17.1881 22.8034 19.2306 22.8086C19.234 22.8086 19.2368 22.8096 19.2397 22.8096H23.7604C24.2186 22.8096 24.6056 23.1966 24.6056 23.6548V27.1621C24.6056 27.6203 24.2186 28.0078 23.7604 28.0078H19.2397C18.7815 28.0078 18.3945 27.6203 18.3945 27.1621C18.3945 26.3705 17.7528 25.7288 16.9612 25.7288C16.1695 25.7288 15.5278 26.3705 15.5278 27.1621C15.5278 29.2089 17.1929 30.8745 19.2397 30.8745H20.0667V32.5118C20.0667 33.3035 20.7084 33.9451 21.5001 33.9451C22.2917 33.9451 22.9334 33.3035 22.9334 32.5118V30.8745H23.7604C25.8067 30.8745 27.4723 29.2094 27.4723 27.1621V23.6548C27.4723 21.6075 25.8072 19.9424 23.7604 19.9424Z" fill="#FFC843"/>
<path d="M65.326 18.2V28H63.058V20.02H61.098V18.2H65.326ZM74.3504 26.152V28H66.9444V26.53L70.7244 22.96C71.1258 22.5773 71.3964 22.2507 71.5364 21.98C71.6764 21.7 71.7464 21.4247 71.7464 21.154C71.7464 20.762 71.6111 20.4633 71.3404 20.258C71.0791 20.0433 70.6918 19.936 70.1784 19.936C69.7491 19.936 69.3618 20.02 69.0164 20.188C68.6711 20.3467 68.3818 20.5893 68.1484 20.916L66.4964 19.852C66.8791 19.2827 67.4064 18.8393 68.0784 18.522C68.7504 18.1953 69.5204 18.032 70.3884 18.032C71.1164 18.032 71.7511 18.1533 72.2924 18.396C72.8431 18.6293 73.2678 18.9653 73.5664 19.404C73.8744 19.8333 74.0284 20.342 74.0284 20.93C74.0284 21.462 73.9164 21.9613 73.6924 22.428C73.4684 22.8947 73.0344 23.4267 72.3904 24.024L70.1364 26.152H74.3504ZM78.6462 21.882C80.0276 21.882 81.0449 22.1573 81.6982 22.708C82.3609 23.2587 82.6922 23.996 82.6922 24.92C82.6922 25.5173 82.5429 26.0633 82.2442 26.558C81.9456 27.0433 81.4882 27.4353 80.8722 27.734C80.2656 28.0233 79.5142 28.168 78.6182 28.168C77.9276 28.168 77.2462 28.0793 76.5742 27.902C75.9116 27.7153 75.3469 27.454 74.8802 27.118L75.7762 25.382C76.1496 25.662 76.5789 25.8813 77.0642 26.04C77.5496 26.1893 78.0489 26.264 78.5622 26.264C79.1316 26.264 79.5796 26.152 79.9062 25.928C80.2329 25.704 80.3962 25.3913 80.3962 24.99C80.3962 24.57 80.2236 24.2527 79.8782 24.038C79.5422 23.8233 78.9542 23.716 78.1142 23.716H75.6082L76.1122 18.2H82.0902V20.02H78.0022L77.8482 21.882H78.6462ZM88.122 22.19C88.9807 22.33 89.6387 22.652 90.096 23.156C90.5534 23.6507 90.782 24.2667 90.782 25.004C90.782 25.5733 90.6327 26.1007 90.334 26.586C90.0354 27.062 89.578 27.4447 88.962 27.734C88.3554 28.0233 87.6087 28.168 86.722 28.168C86.0314 28.168 85.35 28.0793 84.678 27.902C84.0154 27.7153 83.4507 27.454 82.984 27.118L83.866 25.382C84.2394 25.662 84.6687 25.8813 85.154 26.04C85.6487 26.1893 86.1527 26.264 86.666 26.264C87.2354 26.264 87.6834 26.1567 88.01 25.942C88.3367 25.718 88.5 25.4053 88.5 25.004C88.5 24.2013 87.8887 23.8 86.666 23.8H85.63V22.302L87.646 20.02H83.474V18.2H90.334V19.67L88.122 22.19ZM96.5472 21.854C97.1725 21.854 97.7419 21.98 98.2552 22.232C98.7685 22.484 99.1745 22.8433 99.4732 23.31C99.7719 23.7673 99.9212 24.2993 99.9212 24.906C99.9212 25.5593 99.7579 26.1333 99.4312 26.628C99.1045 27.1227 98.6565 27.5053 98.0872 27.776C97.5272 28.0373 96.9019 28.168 96.2112 28.168C94.8392 28.168 93.7659 27.748 92.9912 26.908C92.2165 26.068 91.8292 24.8687 91.8292 23.31C91.8292 22.1993 92.0392 21.2473 92.4592 20.454C92.8792 19.6607 93.4625 19.0587 94.2092 18.648C94.9652 18.2373 95.8379 18.032 96.8272 18.032C97.3499 18.032 97.8492 18.0927 98.3252 18.214C98.8105 18.326 99.2212 18.4893 99.5572 18.704L98.7172 20.37C98.2319 20.0433 97.6205 19.88 96.8832 19.88C96.0525 19.88 95.3945 20.1227 94.9092 20.608C94.4239 21.0933 94.1625 21.798 94.1252 22.722C94.7039 22.1433 95.5112 21.854 96.5472 21.854ZM96.0852 26.474C96.5705 26.474 96.9625 26.3433 97.2612 26.082C97.5692 25.8207 97.7232 25.466 97.7232 25.018C97.7232 24.57 97.5692 24.2153 97.2612 23.954C96.9625 23.6833 96.5612 23.548 96.0572 23.548C95.5625 23.548 95.1565 23.688 94.8392 23.968C94.5219 24.2387 94.3632 24.5887 94.3632 25.018C94.3632 25.4473 94.5172 25.7973 94.8252 26.068C95.1332 26.3387 95.5532 26.474 96.0852 26.474Z" fill="white"/>
</svg>
