<svg width="43" height="43" viewBox="0 0 43 43" fill="none" xmlns="http://www.w3.org/2000/svg">
<path d="M21.5 18.6875C25.0899 18.6875 28 15.7774 28 12.1875C28 8.59765 25.0899 5.6875 21.5 5.6875C17.9101 5.6875 15 8.59765 15 12.1875C15 15.7774 17.9101 18.6875 21.5 18.6875Z" fill="white"/>
<path d="M34.5 33.3125V26.8125C34.5 25.8375 34.0125 24.8625 33.2 24.2125C31.4125 22.75 29.1375 21.775 26.8625 21.125C25.2375 20.6375 23.45 20.3125 21.5 20.3125C19.7125 20.3125 17.925 20.6375 16.1375 21.125C13.8625 21.775 11.5875 22.9125 9.8 24.2125C8.9875 24.8625 8.5 25.8375 8.5 26.8125V33.3125H34.5Z" fill="white"/>
<circle cx="21.5" cy="21.5" r="21" stroke="white"/>
</svg>
