<svg width="48" height="71" viewBox="0 0 48 71" fill="none" xmlns="http://www.w3.org/2000/svg">
<path d="M15.4219 29.875H22.6406C26.0781 29.875 28.625 29.0156 30.2812 27.2969C31.9375 25.5781 32.7656 23.2969 32.7656 20.4531C32.7656 17.7031 31.9375 15.5625 30.2812 14.0312C28.6562 12.5 26.4062 11.7344 23.5312 11.7344C20.9375 11.7344 18.7656 12.4531 17.0156 13.8906C15.2656 15.2969 14.3906 17.1406 14.3906 19.4219H0.84375C0.84375 15.8594 1.79688 12.6719 3.70312 9.85938C5.64062 7.01562 8.32812 4.79688 11.7656 3.20312C15.2344 1.60938 19.0469 0.8125 23.2031 0.8125C30.4219 0.8125 36.0781 2.54688 40.1719 6.01562C44.2656 9.45312 46.3125 14.2031 46.3125 20.2656C46.3125 23.3906 45.3594 26.2656 43.4531 28.8906C41.5469 31.5156 39.0469 33.5312 35.9531 34.9375C39.7969 36.3125 42.6562 38.375 44.5312 41.125C46.4375 43.875 47.3906 47.125 47.3906 50.875C47.3906 56.9375 45.1719 61.7969 40.7344 65.4531C36.3281 69.1094 30.4844 70.9375 23.2031 70.9375C16.3906 70.9375 10.8125 69.1406 6.46875 65.5469C2.15625 61.9531 0 57.2031 0 51.2969H13.5469C13.5469 53.8594 14.5 55.9531 16.4062 57.5781C18.3438 59.2031 20.7188 60.0156 23.5312 60.0156C26.75 60.0156 29.2656 59.1719 31.0781 57.4844C32.9219 55.7656 33.8438 53.5 33.8438 50.6875C33.8438 43.875 30.0938 40.4688 22.5938 40.4688H15.4219V29.875Z" fill="#F80013"/>
</svg>
