<svg width="48" height="70" viewBox="0 0 48 70" fill="none" xmlns="http://www.w3.org/2000/svg">
<path d="M2.65625 35.4375L6.59375 0.75H44.8438V12.0469H17.7031L16.0156 26.7188C19.2344 25 22.6562 24.1406 26.2812 24.1406C32.7812 24.1406 37.875 26.1562 41.5625 30.1875C45.25 34.2188 47.0938 39.8594 47.0938 47.1094C47.0938 51.5156 46.1562 55.4688 44.2812 58.9688C42.4375 62.4375 39.7812 65.1406 36.3125 67.0781C32.8438 68.9844 28.75 69.9375 24.0312 69.9375C19.9062 69.9375 16.0781 69.1094 12.5469 67.4531C9.01562 65.7656 6.21875 63.4062 4.15625 60.375C2.125 57.3438 1.04688 53.8906 0.921875 50.0156H14.3281C14.6094 52.8594 15.5938 55.0781 17.2812 56.6719C19 58.2344 21.2344 59.0156 23.9844 59.0156C27.0469 59.0156 29.4062 57.9219 31.0625 55.7344C32.7188 53.5156 33.5469 50.3906 33.5469 46.3594C33.5469 42.4844 32.5938 39.5156 30.6875 37.4531C28.7812 35.3906 26.0781 34.3594 22.5781 34.3594C19.3594 34.3594 16.75 35.2031 14.75 36.8906L13.4375 38.1094L2.65625 35.4375Z" fill="#F80013"/>
</svg>
