<svg width="133" height="80" viewBox="0 0 133 80" fill="none" xmlns="http://www.w3.org/2000/svg">
<path d="M25.576 51.344V71H20.572V61.352C20.572 60.392 20.584 59.456 20.608 58.544C20.656 57.632 20.716 56.792 20.788 56.024H20.68L15.244 71H11.212L5.704 55.988H5.56C5.656 56.78 5.716 57.632 5.74 58.544C5.788 59.432 5.812 60.416 5.812 61.496V71H0.808V51.344H8.404L13.3 64.664L18.268 51.344H25.576ZM49.039 61.136C49.039 64.4 48.175 66.92 46.447 68.696C44.743 70.472 42.415 71.36 39.463 71.36C37.639 71.36 36.007 70.964 34.567 70.172C33.151 69.38 32.035 68.228 31.219 66.716C30.403 65.18 29.995 63.32 29.995 61.136C29.995 57.872 30.847 55.364 32.551 53.612C34.255 51.86 36.595 50.984 39.571 50.984C41.419 50.984 43.051 51.38 44.467 52.172C45.883 52.964 46.999 54.116 47.815 55.628C48.631 57.116 49.039 58.952 49.039 61.136ZM35.467 61.136C35.467 63.08 35.779 64.556 36.403 65.564C37.051 66.548 38.095 67.04 39.535 67.04C40.951 67.04 41.971 66.548 42.595 65.564C43.243 64.556 43.567 63.08 43.567 61.136C43.567 59.192 43.243 57.74 42.595 56.78C41.971 55.796 40.939 55.304 39.499 55.304C38.083 55.304 37.051 55.796 36.403 56.78C35.779 57.74 35.467 59.192 35.467 61.136ZM69.3925 55.376H62.9485V71H57.5845V55.376H51.1405V51.344H69.3925V55.376ZM90.5234 61.136C90.5234 64.4 89.6594 66.92 87.9314 68.696C86.2274 70.472 83.8994 71.36 80.9474 71.36C79.1234 71.36 77.4914 70.964 76.0514 70.172C74.6354 69.38 73.5194 68.228 72.7034 66.716C71.8874 65.18 71.4794 63.32 71.4794 61.136C71.4794 57.872 72.3314 55.364 74.0354 53.612C75.7394 51.86 78.0794 50.984 81.0554 50.984C82.9034 50.984 84.5354 51.38 85.9514 52.172C87.3674 52.964 88.4834 54.116 89.2994 55.628C90.1154 57.116 90.5234 58.952 90.5234 61.136ZM76.9514 61.136C76.9514 63.08 77.2634 64.556 77.8874 65.564C78.5354 66.548 79.5794 67.04 81.0194 67.04C82.4354 67.04 83.4554 66.548 84.0794 65.564C84.7274 64.556 85.0514 63.08 85.0514 61.136C85.0514 59.192 84.7274 57.74 84.0794 56.78C83.4554 55.796 82.4234 55.304 80.9834 55.304C79.5674 55.304 78.5354 55.796 77.8874 56.78C77.2634 57.74 76.9514 59.192 76.9514 61.136ZM105.9 50.984C108.108 50.984 109.896 51.848 111.264 53.576C112.632 55.28 113.316 57.8 113.316 61.136C113.316 64.472 112.608 67.016 111.192 68.768C109.776 70.496 107.964 71.36 105.756 71.36C104.34 71.36 103.212 71.108 102.372 70.604C101.532 70.076 100.848 69.488 100.32 68.84H100.032C100.224 69.848 100.32 70.808 100.32 71.72V79.64H94.9564V51.344H99.3124L100.068 53.9H100.32C100.848 53.108 101.556 52.424 102.444 51.848C103.332 51.272 104.484 50.984 105.9 50.984ZM104.172 55.268C102.78 55.268 101.796 55.7 101.22 56.564C100.668 57.428 100.368 58.748 100.32 60.524V61.1C100.32 62.996 100.596 64.46 101.148 65.492C101.724 66.5 102.756 67.004 104.244 67.004C105.468 67.004 106.368 66.5 106.944 65.492C107.544 64.46 107.844 62.984 107.844 61.064C107.844 57.2 106.62 55.268 104.172 55.268ZM125.73 71.36C122.802 71.36 120.534 70.556 118.926 68.948C117.342 67.316 116.55 64.76 116.55 61.28C116.55 58.88 116.958 56.924 117.774 55.412C118.59 53.9 119.718 52.784 121.158 52.064C122.622 51.344 124.302 50.984 126.198 50.984C127.542 50.984 128.706 51.116 129.69 51.38C130.698 51.644 131.574 51.956 132.318 52.316L130.734 56.456C129.894 56.12 129.102 55.844 128.358 55.628C127.638 55.412 126.918 55.304 126.198 55.304C123.414 55.304 122.022 57.284 122.022 61.244C122.022 63.212 122.382 64.664 123.102 65.6C123.846 66.536 124.878 67.004 126.198 67.004C127.326 67.004 128.322 66.86 129.186 66.572C130.05 66.26 130.89 65.84 131.706 65.312V69.884C130.89 70.412 130.026 70.784 129.114 71C128.226 71.24 127.098 71.36 125.73 71.36Z" fill="#E7E7E7"/>
<path d="M57.3314 26L55.4594 19.88H46.0994L44.2274 26H38.3594L47.4314 0.188H54.0914L63.1994 26H57.3314ZM54.1634 15.308L52.2914 9.332C52.1714 8.924 52.0154 8.408 51.8234 7.784C51.6314 7.16 51.4394 6.524 51.2474 5.876C51.0554 5.228 50.8994 4.664 50.7794 4.184C50.6594 4.664 50.4914 5.264 50.2754 5.984C50.0834 6.68 49.8914 7.352 49.6994 8C49.5314 8.624 49.3994 9.068 49.3034 9.332L47.4674 15.308H54.1634ZM70.4148 23.804C70.4148 24.428 70.1868 24.956 69.7308 25.388C69.2748 25.796 68.7468 26 68.1468 26C67.4988 26 66.9588 25.796 66.5268 25.388C66.1188 24.956 65.9148 24.428 65.9148 23.804V2.996C65.9148 2.372 66.1308 1.856 66.5628 1.448C66.9948 1.016 67.5468 0.799998 68.2188 0.799998C68.8188 0.799998 69.3348 1.016 69.7668 1.448C70.1988 1.856 70.4148 2.372 70.4148 2.996V23.804ZM80.3289 23.804C80.3289 24.428 80.1009 24.956 79.6449 25.388C79.1889 25.796 78.6609 26 78.0609 26C77.4129 26 76.8729 25.796 76.4409 25.388C76.0329 24.956 75.8289 24.428 75.8289 23.804V2.996C75.8289 2.372 76.0449 1.856 76.4769 1.448C76.9089 1.016 77.4609 0.799998 78.1329 0.799998C78.7329 0.799998 79.2489 1.016 79.6809 1.448C80.1129 1.856 80.3289 2.372 80.3289 2.996V23.804ZM90.243 23.804C90.243 24.428 90.015 24.956 89.559 25.388C89.103 25.796 88.575 26 87.975 26C87.327 26 86.787 25.796 86.355 25.388C85.947 24.956 85.743 24.428 85.743 23.804V2.996C85.743 2.372 85.959 1.856 86.391 1.448C86.823 1.016 87.375 0.799998 88.047 0.799998C88.647 0.799998 89.163 1.016 89.595 1.448C90.027 1.856 90.243 2.372 90.243 2.996V23.804Z" fill="#F80013"/>
</svg>
