<svg width="64" height="64" viewBox="0 0 64 64" fill="none" xmlns="http://www.w3.org/2000/svg">
<g clip-path="url(#clip0)">
<path d="M63.9656 40.0528C63.8062 36.386 63.1685 32.3205 62.2119 28.4942C61.2553 24.8273 60.0596 21.3996 58.6248 18.769C53.0447 8.96407 46.9864 10.4787 39.7324 12.3918C37.4206 12.9498 34.9495 13.5875 32.3986 13.8267H31.6015C29.0506 13.5875 26.5794 12.9498 24.2677 12.3918C17.0136 10.5584 10.9553 8.96407 5.37529 18.8487C3.94042 21.4793 2.66499 24.907 1.78812 28.5739C0.831547 32.4002 0.193829 36.4657 0.0343995 40.1326C-0.12503 44.198 0.273544 47.1475 1.15041 49.22C2.02727 51.1332 3.30271 52.3289 4.97672 52.8072C6.4913 53.2058 8.24502 53.0463 10.0785 52.2492C13.1873 50.9738 16.7745 48.2635 20.282 44.9952C22.7531 42.6037 27.3766 41.408 32 41.408C36.6235 41.408 41.2469 42.6037 43.7181 44.9952C47.2255 48.2635 50.8127 50.9738 53.9216 52.2492C55.755 52.9666 57.5088 53.2058 59.0233 52.8072C60.6176 52.3289 61.9728 51.2129 62.8496 49.1403C63.7265 47.1475 64.1251 44.198 63.9656 40.0528ZM60.1393 48.0243C59.6611 49.1403 59.0233 49.778 58.2262 50.0172C57.3493 50.2563 56.2333 50.0969 54.9579 49.6186C52.1679 48.5026 48.8996 46.0314 45.711 43.0023C42.6818 39.9731 37.3409 38.4585 32 38.4585C26.6591 38.4585 21.3182 39.9731 18.2094 42.8429C14.9411 45.872 11.6728 48.4229 8.96245 49.4592C7.68702 49.9375 6.57101 50.1766 5.69415 49.8578C4.897 49.6186 4.25928 48.9809 3.78099 47.8649C3.14328 46.3503 2.82442 43.8791 2.98385 40.2123C3.14328 36.7845 3.70128 32.8785 4.65786 29.2116C5.53472 25.7839 6.65073 22.5953 8.00588 20.2039C12.3902 12.3121 17.4919 13.5875 23.5503 15.1818C26.0214 15.8195 28.5723 16.4573 31.3623 16.6964C31.442 16.6964 31.442 16.6964 31.5217 16.6964H32.3986C32.4783 16.6964 32.4783 16.6964 32.558 16.6964C35.4278 16.4573 37.9786 15.8195 40.4498 15.1818C46.5081 13.6672 51.6099 12.3121 55.9942 20.2039C57.3493 22.5953 58.4653 25.7042 59.3422 29.2116C60.2191 32.8785 60.8568 36.7048 61.0162 40.2123C61.1756 43.8791 60.8568 46.3503 60.1393 48.0243Z" fill="white"/>
<path d="M24.6664 24.5085C23.8692 23.7911 22.9126 23.2331 21.7966 23.1533C21.7169 22.1171 21.2386 21.0808 20.5212 20.3633L20.4415 20.2836C19.5646 19.4068 18.4486 18.9285 17.1732 18.9285C15.8977 18.9285 14.702 19.4865 13.9049 20.2836C13.1874 21.0011 12.6294 22.0373 12.5497 23.1533C11.4337 23.2331 10.4771 23.7114 9.67998 24.4288L9.60027 24.5085C8.72341 25.3854 8.24512 26.5014 8.24512 27.7768C8.24512 29.0522 8.80312 30.248 9.60027 31.0451C10.3974 31.8423 11.354 32.3205 12.5497 32.4003C12.6294 33.5163 13.1077 34.5526 13.9049 35.27C14.7817 36.1469 15.8977 36.6251 17.1732 36.6251C18.4486 36.6251 19.6443 36.0671 20.4415 35.27C21.1589 34.4728 21.7169 33.5163 21.7966 32.4003C22.9126 32.3205 23.9489 31.8423 24.6664 31.0451C25.5432 30.1683 26.0215 29.0522 26.0215 27.7768C26.0215 26.5014 25.4635 25.3056 24.6664 24.5085ZM22.6735 28.9725C22.3546 29.2914 21.9561 29.4508 21.4778 29.4508H20.3618C19.5646 29.4508 18.8472 30.0885 18.8472 30.9654V32.0017C18.8472 32.48 18.6878 32.8786 18.3689 33.1974C18.05 33.5163 17.6515 33.6757 17.1732 33.6757C16.6949 33.6757 16.2963 33.5163 15.9774 33.1974C15.6586 32.8786 15.4992 32.48 15.4992 32.0017V30.8857C15.4992 30.0885 14.8614 29.3711 13.9846 29.3711H12.8686C12.3903 29.3711 11.9917 29.2117 11.6729 28.8928C11.4337 28.6537 11.1946 28.2551 11.1946 27.7768C11.1946 27.2985 11.354 26.8999 11.6729 26.5811C11.6729 26.5811 11.6729 26.5811 11.7526 26.5014C12.0714 26.2622 12.47 26.1028 12.8686 26.1028H13.9846C14.7817 26.1028 15.4992 25.4651 15.4992 24.5882V23.4722C15.4992 22.9939 15.6586 22.5953 15.9774 22.2765C16.2963 21.9576 16.6949 21.7982 17.1732 21.7982C17.6515 21.7982 18.05 21.9576 18.3689 22.2765C18.3689 22.2765 18.3689 22.2765 18.4486 22.3562C18.6878 22.6751 18.8472 23.0736 18.8472 23.4722V24.5882C18.8472 25.3854 19.4849 26.1028 20.3618 26.1028H21.4778C21.9561 26.1028 22.3546 26.2622 22.6735 26.5811C22.9924 26.8999 23.1518 27.2985 23.1518 27.7768C23.1518 28.2551 22.9924 28.6537 22.6735 28.9725Z" fill="white"/>
<path d="M45.8701 24.9071C47.411 24.9071 48.6601 23.6579 48.6601 22.117C48.6601 20.5762 47.411 19.327 45.8701 19.327C44.3292 19.327 43.0801 20.5762 43.0801 22.117C43.0801 23.6579 44.3292 24.9071 45.8701 24.9071Z" fill="white"/>
<path d="M45.8701 36.2265C47.411 36.2265 48.6601 34.9774 48.6601 33.4365C48.6601 31.8956 47.411 30.6465 45.8701 30.6465C44.3292 30.6465 43.0801 31.8956 43.0801 33.4365C43.0801 34.9774 44.3292 36.2265 45.8701 36.2265Z" fill="white"/>
<path d="M40.2109 30.5669C41.7518 30.5669 43.0009 29.3177 43.0009 27.7768C43.0009 26.2359 41.7518 24.9868 40.2109 24.9868C38.67 24.9868 37.4209 26.2359 37.4209 27.7768C37.4209 29.3177 38.67 30.5669 40.2109 30.5669Z" fill="white"/>
<path d="M51.5303 30.5669C53.0711 30.5669 54.3203 29.3177 54.3203 27.7768C54.3203 26.2359 53.0711 24.9868 51.5303 24.9868C49.9894 24.9868 48.7402 26.2359 48.7402 27.7768C48.7402 29.3177 49.9894 30.5669 51.5303 30.5669Z" fill="white"/>
</g>
<defs>
<clipPath id="clip0">
<rect width="64" height="64" fill="white"/>
</clipPath>
</defs>
</svg>
