<svg width="64" height="64" viewBox="0 0 64 64" fill="none" xmlns="http://www.w3.org/2000/svg">
<path fill-rule="evenodd" clip-rule="evenodd" d="M45.2691 44C43.4114 44.0021 41.5783 43.5748 39.913 42.7514C38.2477 41.928 36.7953 40.7308 35.6691 39.2533L28.3838 32L35.6758 24.7467C36.9074 23.1053 38.5384 21.8061 40.4137 20.9728C42.289 20.1394 44.3463 19.7996 46.39 19.9855C48.4336 20.1715 50.3958 20.877 52.0899 22.0351C53.784 23.1932 55.1538 24.7653 56.069 26.6021C56.9841 28.4388 57.4144 30.4791 57.3187 32.529C57.223 34.5789 56.6046 36.5702 55.5223 38.3137C54.44 40.0573 52.9298 41.495 51.1352 42.4902C49.3406 43.4855 47.3212 44.0052 45.2691 44ZM45.1358 24.8C44.0055 24.7961 42.8893 25.0506 41.8725 25.5443C40.8557 26.0379 39.9652 26.7575 39.2691 27.648L34.8158 32L39.2718 36.352C39.9678 37.2426 40.8582 37.9623 41.8751 38.4559C42.8919 38.9495 44.0082 39.204 45.1385 39.2C46.084 39.1998 47.0202 39.0134 47.8937 38.6514C48.7672 38.2894 49.5608 37.7589 50.2292 37.0902C50.8977 36.4215 51.4279 35.6277 51.7896 34.7541C52.1512 33.8805 52.3373 32.9442 52.3371 31.9987C52.3369 31.0532 52.1505 30.1169 51.7885 29.2434C51.4265 28.37 50.8961 27.5763 50.2273 26.9079C49.5586 26.2394 48.7648 25.7092 47.8912 25.3476C47.0176 24.9859 46.0813 24.7998 45.1358 24.8Z" fill="white"/>
<path fill-rule="evenodd" clip-rule="evenodd" d="M28.3244 39.2533C26.8055 41.2552 24.6965 42.7298 22.2948 43.469C19.8931 44.2082 17.32 44.1749 14.9382 43.3736C12.5565 42.5723 10.4865 41.0436 9.01999 39.003C7.55351 36.9624 6.76465 34.5129 6.76465 32C6.76465 29.4871 7.55351 27.0376 9.01999 24.997C10.4865 22.9564 12.5565 21.4277 14.9382 20.6264C17.32 19.8251 19.8931 19.7918 22.2948 20.531C24.6965 21.2702 26.8055 22.7448 28.3244 24.7467L35.6164 32L28.3244 39.2533ZM24.7244 27.6533C24.0284 26.7628 23.1379 26.0432 22.1211 25.5496C21.1043 25.056 19.988 24.8014 18.8577 24.8053C16.9482 24.8053 15.1168 25.5639 13.7666 26.9142C12.4163 28.2644 11.6577 30.0958 11.6577 32.0053C11.6577 33.9149 12.4163 35.7462 13.7666 37.0965C15.1168 38.4468 16.9482 39.2053 18.8577 39.2053C19.9881 39.2094 21.1043 38.9548 22.1211 38.4612C23.138 37.9676 24.0284 37.2479 24.7244 36.3573L29.1844 32L24.7244 27.6533Z" fill="white"/>
</svg>
