<svg width="64" height="64" viewBox="0 0 64 64" fill="none" xmlns="http://www.w3.org/2000/svg">
<g clip-path="url(#clip0)">
<path d="M57.0387 12.0803C51.7175 5.3919 44.1105 1.17627 35.6188 0.209896C27.5425 -0.708979 19.5849 1.4154 13.0709 6.20352L10.2558 2.66665C9.98117 2.32177 9.5453 2.14727 9.10867 2.20665C8.67192 2.26627 8.29892 2.55152 8.12704 2.9574L0.44917 21.0791C0.27042 21.501 0.336795 21.9866 0.622045 22.345C0.907295 22.7035 1.36617 22.877 1.81667 22.7978L21.2008 19.3859C21.6349 19.3095 21.9968 19.01 22.1529 18.5978C22.309 18.1855 22.2365 17.7215 21.962 17.3766L19.1838 13.8861C25.4797 9.42802 33.6492 8.54727 40.802 11.6289C41.4359 11.9019 42.1713 11.6095 42.4444 10.9756C42.7175 10.3416 42.425 9.60627 41.791 9.33327C33.4053 5.72027 23.7633 7.00327 16.6274 12.681C16.368 12.8874 16.2012 13.1884 16.1637 13.5179C16.1262 13.8473 16.2212 14.1781 16.4277 14.4375L18.6969 17.2885L3.64779 19.9374L9.6088 5.86777L11.8784 8.71927C12.3082 9.25915 13.0943 9.3484 13.6344 8.91902C26.3639 -1.20685 44.9573 0.909396 55.0825 13.6366C59.8213 19.5914 62.0429 26.9774 61.3867 34.5295L56.4537 35.3986C57.3863 28.7094 55.5593 21.9578 51.32 16.6294C50.8903 16.0889 50.1039 15.9996 49.5638 16.4295C49.0237 16.8593 48.934 17.6455 49.3639 18.1856C53.5169 23.4056 55.0939 30.1454 53.6905 36.6768C53.6032 37.0835 53.7238 37.5069 54.0124 37.8065C54.2502 38.0531 54.576 38.1891 54.9124 38.1891C54.9845 38.1891 62.7505 36.8275 62.7505 36.8275C63.294 36.7316 63.7104 36.2909 63.7749 35.7426C64.7802 27.2055 62.3878 18.802 57.0387 12.0803Z" fill="white"/>
<path d="M62.1826 41.2032L42.7984 44.6116C42.3643 44.6878 42.0026 44.9873 41.8462 45.3993C41.6899 45.8115 41.7623 46.2756 42.0367 46.6205L44.8156 50.1145C41.3094 52.5971 37.2927 53.9206 33.2493 54.1431V37.7138C34.5374 38.033 35.8114 38.1923 37.0502 38.1923C39.3816 38.1923 41.5876 37.6291 43.5234 36.5112C46.9288 34.545 49.2644 30.9988 50.1001 26.526C50.2132 25.9205 49.8682 25.3227 49.2873 25.1178C44.9946 23.6028 40.7548 23.8515 37.3489 25.8173C35.0191 27.1621 33.1902 29.2471 31.9993 31.8626C30.8084 29.2471 28.9796 27.1621 26.6497 25.8173C23.2438 23.8515 19.0039 23.6028 14.7113 25.1178C14.1304 25.3227 13.7856 25.9205 13.8986 26.526C14.7343 30.9988 17.0699 34.545 20.4752 36.5112C22.4113 37.6291 24.6168 38.1923 26.9484 38.1923C28.1869 38.1923 29.4612 38.0328 30.7493 37.7137V54.1406C24.6539 53.7933 18.7257 50.956 14.6348 45.8153C10.4814 40.5946 8.90445 33.855 10.3083 27.3245C10.3957 26.9178 10.2751 26.4945 9.9867 26.1948C9.6982 25.8953 9.27945 25.7587 8.86995 25.8308L1.24907 27.1701C0.705323 27.2656 0.288573 27.7066 0.224073 28.255C-0.781302 36.7941 1.61107 45.1987 6.96057 51.921C12.2819 58.608 19.889 62.8232 28.3802 63.7898C29.6122 63.9302 30.8408 63.9997 32.0626 63.9996C38.8503 63.9995 45.4082 61.8551 50.9282 57.7976L53.7433 61.3345C54.0179 61.6795 54.4539 61.8541 54.8904 61.7945C55.3272 61.7347 55.7002 61.4496 55.8721 61.0437L63.5498 42.922C63.7286 42.5002 63.6622 42.0146 63.3771 41.6562C63.0919 41.2977 62.6337 41.1241 62.1826 41.2032ZM38.5987 27.9823C41.0913 26.5438 44.1837 26.256 47.4028 27.1442C46.5614 30.3743 44.7658 32.9076 42.2736 34.3466C39.7807 35.786 36.6877 36.0746 33.4682 35.1878C34.3097 31.9553 36.1058 29.4212 38.5987 27.9823ZM21.7253 34.3465C19.2332 32.9076 17.4374 30.3742 16.5961 27.1441C19.8152 26.256 22.9076 26.5438 25.4002 27.9822C27.8932 29.4211 29.6892 31.9553 30.5307 35.1876C27.3111 36.0745 24.2181 35.7858 21.7253 34.3465ZM54.3902 58.1332L52.1206 55.2817C51.6908 54.7418 50.9048 54.6525 50.3646 55.082C44.9469 59.3916 38.4679 61.4832 32.0301 61.483C23.3434 61.4825 14.7327 57.6732 8.91645 50.3643C4.1777 44.4097 1.9562 37.0218 2.61232 29.4685L7.5452 28.6016C6.61157 35.2906 8.4387 42.0421 12.6789 47.3717C17.5472 53.4895 24.7528 56.6776 32.0246 56.6772C37.4124 56.677 42.8371 54.9265 47.3713 51.32C47.9116 50.8903 48.0012 50.1041 47.5716 49.5638L45.3013 46.7095L60.3513 44.0632L54.3902 58.1332Z" fill="white"/>
<path d="M46.2151 14.6105C46.5351 14.6105 46.8554 14.488 47.0997 14.2435C47.5877 13.7554 47.586 12.9623 47.098 12.4742C46.6099 11.9862 45.8185 11.9862 45.3304 12.4742C44.8424 12.9623 44.8424 13.7537 45.3304 14.2418L45.3339 14.2453C45.5776 14.489 45.8962 14.6105 46.2151 14.6105Z" fill="white"/>
</g>
<defs>
<clipPath id="clip0">
<rect width="64" height="64" fill="white"/>
</clipPath>
</defs>
</svg>
