<svg width="64" height="64" viewBox="0 0 64 64" fill="none" xmlns="http://www.w3.org/2000/svg">
<g clip-path="url(#clip0)">
<path d="M60.0632 56.4566L50.6632 40.1755C51.0009 39.7821 51.4597 39.4912 51.9952 39.3649C53.4759 39.016 54.7037 38.0298 55.3637 36.6592C56.0238 35.2887 56.0292 33.7138 55.3788 32.3388C54.881 31.2863 55.1655 30.0397 56.0707 29.3075C57.2534 28.3506 57.9318 26.9294 57.9318 25.4082C57.9318 23.887 57.2534 22.4657 56.0707 21.509C55.1655 20.7767 54.881 19.5302 55.3788 18.4777C56.0293 17.1025 56.0238 15.5277 55.3637 14.1571C54.7037 12.7865 53.4759 11.8003 51.9951 11.4514C50.8619 11.1844 50.0646 10.1848 50.0565 9.02048C50.046 7.49928 49.3577 6.08282 48.1683 5.13435C46.979 4.18588 45.4447 3.83002 43.9595 4.15826C42.8224 4.40925 41.6705 3.85464 41.158 2.80918C40.4884 1.44322 39.2539 0.465624 37.7706 0.127135C36.2873 -0.21148 34.7509 0.133759 33.5549 1.07386C32.6397 1.79346 31.3611 1.79346 30.4458 1.07386C29.2498 0.133759 27.7133 -0.21123 26.2301 0.127135C24.7469 0.465624 23.5123 1.44322 22.8427 2.80918C22.3303 3.85464 21.1779 4.40963 20.0415 4.15826C18.556 3.83027 17.0218 4.18588 15.8326 5.13435C14.6432 6.08282 13.955 7.49928 13.9444 9.02048C13.9363 10.1847 13.139 11.1844 12.0057 11.4514C10.525 11.8003 9.29716 12.7865 8.63718 14.1571C7.97708 15.5277 7.9717 17.1025 8.62206 18.4776C9.11992 19.53 8.83542 20.7766 7.9302 21.5088C6.74749 22.4657 6.06914 23.8869 6.06914 25.4081C6.06914 26.9293 6.74749 28.3506 7.9302 29.3073C8.83542 30.0396 9.11992 31.2862 8.62206 32.3386C7.97158 33.7138 7.97708 35.2887 8.63718 36.6592C9.29716 38.0298 10.525 39.016 12.0058 39.3649C12.5413 39.491 13.0002 39.7821 13.3378 40.1755L3.93795 56.4566C3.68484 56.8951 3.72121 57.443 4.02995 57.8441C4.33881 58.2452 4.85905 58.4203 5.34766 58.2879L11.8946 56.5117L13.6299 63.0697C13.7594 63.5592 14.1714 63.922 14.6732 63.9889C14.7286 63.9963 14.7839 63.9999 14.8387 63.9999C15.2808 63.9999 15.6956 63.7649 15.9208 63.3749L23.9416 49.4827C24.5768 50.0707 25.3602 50.4907 26.2304 50.6893C27.7133 51.0275 29.25 50.6827 30.4461 49.7426C31.3613 49.023 32.6399 49.023 33.5553 49.7426C34.4503 50.4461 35.5357 50.8164 36.6471 50.8164C37.0208 50.8164 37.3977 50.7746 37.7709 50.6893C38.6411 50.4907 39.4246 50.0707 40.0597 49.4827L48.0805 63.3749C48.3057 63.765 48.7204 63.9999 49.1625 63.9999C49.2173 63.9999 49.2727 63.9963 49.328 63.9889C49.8299 63.922 50.2419 63.559 50.3714 63.0697L52.1067 56.5117L58.6536 58.2879C59.1422 58.4207 59.6626 58.2452 59.9713 57.8441C60.2801 57.443 60.3164 56.8951 60.0632 56.4566ZM15.2713 59.5L13.9896 54.6564C13.9044 54.3347 13.6945 54.0601 13.4063 53.8937C13.1179 53.7272 12.7753 53.6827 12.4541 53.7698L7.61846 55.0817L14.275 43.5523C14.59 44.3778 15.1207 45.1141 15.8328 45.6821C17.0222 46.6306 18.5565 46.9864 20.0417 46.6582C20.8805 46.4729 21.7269 46.7274 22.3193 47.293L15.2713 59.5ZM37.2145 48.2521C36.4703 48.4218 35.7 48.2488 35.1002 47.7774C34.1876 47.0599 33.0943 46.7013 32.0006 46.7013C30.9071 46.7013 29.8133 47.06 28.9009 47.7774C28.3012 48.2489 27.5308 48.422 26.7866 48.2521C26.0428 48.0824 25.4235 47.592 25.0877 46.9069C24.066 44.8225 21.7689 43.7164 19.5023 44.2171C18.7572 44.3818 17.9879 44.2033 17.3914 43.7275C16.7949 43.2518 16.4497 42.5414 16.4443 41.7785C16.4282 39.4572 14.8387 37.4641 12.5792 36.9317C11.8365 36.7567 11.2207 36.2621 10.8896 35.5747C10.5586 34.8872 10.5559 34.0975 10.8821 33.4076C11.8746 31.3092 11.3073 28.8239 9.50253 27.3639C8.9093 26.884 8.56918 26.1712 8.56918 25.4082C8.56918 24.6452 8.90942 23.9324 9.50265 23.4525C11.3073 21.9926 11.8747 19.5073 10.8821 17.4087C10.5559 16.719 10.5586 15.9291 10.8897 15.2418C11.2207 14.5543 11.8366 14.0597 12.5792 13.8847C14.8387 13.3523 16.4282 11.3593 16.4443 9.03798C16.4497 8.275 16.7948 7.56453 17.3914 7.08892C17.9879 6.61318 18.7571 6.43456 19.5025 6.59931C21.7688 7.09967 24.066 5.99395 25.0877 3.90952C25.4235 3.22441 26.0428 2.73405 26.7866 2.56431C27.5307 2.39469 28.3012 2.56756 28.9009 3.03904C30.726 4.47387 33.2752 4.47387 35.1002 3.03904C35.7001 2.56756 36.4704 2.39469 37.2145 2.56431C37.9584 2.73405 38.5776 3.22441 38.9135 3.90952C39.9352 5.99395 42.2321 7.09967 44.4988 6.59931C45.2437 6.43444 46.0133 6.61318 46.6097 7.08892C47.2062 7.56465 47.5515 8.275 47.5568 9.03798C47.573 11.3593 49.1624 13.3523 51.422 13.8847C52.1647 14.0597 52.7804 14.5543 53.1115 15.2418C53.4425 15.9293 53.4453 16.719 53.119 17.4088C52.1266 19.5073 52.6938 21.9926 54.4986 23.4525C55.0919 23.9324 55.432 24.6452 55.432 25.4082C55.432 26.1712 55.0917 26.884 54.4985 27.3639C52.6938 28.8239 52.1264 31.3092 53.119 33.4077C53.4453 34.0975 53.4425 34.8873 53.1114 35.5747C52.7804 36.2621 52.1646 36.7567 51.422 36.9317C49.1624 37.4641 47.573 39.4572 47.5568 41.7785C47.5515 42.5414 47.2064 43.2519 46.6097 43.7275C46.0133 44.2033 45.2439 44.3816 44.4987 44.2171C42.2321 43.7163 39.9352 44.8225 38.9135 46.9069C38.5776 47.592 37.9584 48.0823 37.2145 48.2521ZM51.5471 53.7698C51.2257 53.6827 50.8831 53.7273 50.5949 53.8937C50.3066 54.0602 50.0966 54.3347 50.0115 54.6564L48.7298 59.5L41.682 47.293C42.2745 46.7273 43.1209 46.4727 43.9595 46.6582C45.445 46.9863 46.979 46.6306 48.1683 45.6821C48.8804 45.1142 49.4112 44.3778 49.7261 43.5523L56.3827 55.0817L51.5471 53.7698Z" fill="white"/>
<path d="M37.9472 34.8607C38.2051 34.8607 38.4629 34.7811 38.6819 34.622C39.1189 34.3045 39.3025 33.7421 39.1372 33.228L37.1669 27.1022L42.3628 23.2844C42.7982 22.9646 42.9788 22.4011 42.8106 21.8877C42.6422 21.3744 42.1631 21.0273 41.6228 21.0273H35.193L33.188 14.9181C33.0195 14.4048 32.5405 14.0579 32.0004 14.0579C31.4603 14.0579 30.9812 14.4048 30.8128 14.9181L28.8077 21.0273H22.378C21.8377 21.0273 21.3585 21.3744 21.1902 21.8877C21.0219 22.4011 21.2025 22.9646 21.638 23.2844L26.8339 27.1022L24.8636 33.228C24.6983 33.7422 24.8819 34.3045 25.3189 34.622C25.756 34.9394 26.3475 34.9402 26.7853 34.6241L32.0006 30.8585L37.216 34.6241C37.434 34.7818 37.6905 34.8607 37.9472 34.8607ZM32.7319 28.3034C32.5134 28.1457 32.2568 28.0668 32.0001 28.0668C31.7435 28.0668 31.4869 28.1457 31.2684 28.3034L28.4093 30.3678L29.4891 27.0106C29.6537 26.4987 29.4726 25.9389 29.0392 25.6205L26.19 23.5269H29.7128C30.253 23.5269 30.7321 23.1799 30.9004 22.6667L32.0001 19.3159L33.0999 22.6667C33.2684 23.1799 33.7473 23.5269 34.2874 23.5269H37.8103L34.9611 25.6205C34.5277 25.9389 34.3466 26.4986 34.5112 27.0106L35.591 30.3678L32.7319 28.3034Z" fill="white"/>
<path d="M49.4999 25.4081C49.4999 15.7589 41.6496 7.90869 32.0004 7.90869C22.3512 7.90869 14.501 15.7589 14.501 25.4081C14.501 32.7488 19.1355 39.3617 26.0334 41.8635C26.6822 42.0987 27.3992 41.7636 27.6347 41.1147C27.8701 40.4657 27.5348 39.7488 26.8858 39.5133C20.9734 37.369 17.001 31.7006 17.001 25.4081C17.001 17.1374 23.7298 10.4086 32.0006 10.4086C40.2713 10.4086 47.0001 17.1374 47.0001 25.4081C47.0001 31.7009 43.0273 37.3695 37.1145 39.5137C36.4655 39.7491 36.1302 40.4659 36.3655 41.1149C36.5499 41.6231 37.0295 41.9391 37.5406 41.9391C37.6821 41.9391 37.826 41.9149 37.9667 41.8639C44.865 39.3623 49.4999 32.7493 49.4999 25.4081Z" fill="white"/>
<path d="M32.001 40.4075C31.6722 40.4075 31.3497 40.5412 31.1172 40.7737C30.8847 41.0062 30.751 41.3287 30.751 41.6575C30.751 41.9862 30.8847 42.3087 31.1172 42.5412C31.3497 42.7737 31.6722 42.9075 32.001 42.9075C32.3297 42.9075 32.6522 42.7737 32.8847 42.5412C33.1172 42.3087 33.251 41.9862 33.251 41.6575C33.251 41.3287 33.1172 41.0062 32.8847 40.7737C32.6522 40.5412 32.3297 40.4075 32.001 40.4075Z" fill="white"/>
</g>
<defs>
<clipPath id="clip0">
<rect width="64" height="64" fill="white"/>
</clipPath>
</defs>
</svg>
