<svg width="64" height="63" viewBox="0 0 64 63" fill="none" xmlns="http://www.w3.org/2000/svg">
<path d="M58.367 33.0165C58.1742 32.0121 57.2958 31.2858 56.2731 31.2853H54.2134L54.0619 30.3775C53.9108 29.4658 53.1925 28.7535 52.2795 28.6101C52.0769 28.5781 51.8721 28.5567 51.6705 28.529C52.0198 26.8983 51.7296 25.1957 50.8598 23.7727C51.3193 22.5807 51.2336 21.2472 50.6251 20.1238C50.0167 19.0005 48.9466 18.2001 47.6971 17.9338C46.8983 13.6586 43.1791 10.5509 38.8299 10.5247C38.7233 10.5247 38.6283 10.5386 38.527 10.5418C37.8321 9.45042 36.6864 8.7261 35.4024 8.56641C34.1185 8.40672 32.8302 8.82831 31.8891 9.71619C30.7036 8.94554 29.3202 8.53468 27.9062 8.53325C25.6279 8.54258 23.4806 9.60007 22.0843 11.4005C20.534 10.9484 18.8621 11.2259 17.5411 12.1548C16.22 13.0837 15.3931 14.563 15.2939 16.1749C13.6655 16.8594 12.6059 18.4532 12.6049 20.2197C12.6082 20.5259 12.644 20.8308 12.7115 21.1295C11.2714 23.3005 10.8951 26.0081 11.6886 28.4895C11.4027 28.529 11.1105 28.5642 10.8353 28.6047C9.91756 28.7432 9.19283 29.4559 9.039 30.3711L8.88753 31.2821H6.82247C5.80151 31.2828 4.92416 32.0067 4.72967 33.009L0.0587331 56.9898C-0.123683 57.929 0.123683 58.9005 0.733023 59.638C1.34236 60.3756 2.24975 60.8019 3.20647 60.7999H25.4507C26.3339 62.257 29.0177 62.9333 31.5478 62.9333C34.0513 62.9333 36.7094 62.273 37.6182 60.7999H59.8891C60.8456 60.8018 61.7528 60.3757 62.3621 59.6384C62.9714 58.9011 63.2189 57.9299 63.0369 56.9909L58.367 33.0165ZM15.8305 22.1503C14.9644 21.6296 14.5511 20.5958 14.8194 19.6215C15.0877 18.6472 15.9719 17.9708 16.9825 17.9669C17.6897 17.9648 18.3553 18.3009 18.7734 18.8714C19.0005 19.1774 19.3737 19.339 19.7522 19.2953C20.1308 19.2516 20.4573 19.0093 20.6088 18.6596C20.7602 18.3099 20.7136 17.9059 20.4865 17.5999C19.7622 16.6319 18.6645 16.0126 17.4614 15.8933C17.7794 14.3994 19.0968 13.33 20.6241 13.3258C20.7542 13.3324 20.8839 13.3466 21.0123 13.3685C20.9265 13.5871 20.8518 13.81 20.7883 14.0362C20.6556 14.6008 20.9984 15.1681 21.56 15.3131C22.1216 15.4581 22.6961 15.1278 22.8534 14.5695C22.9747 14.1007 23.161 13.6512 23.407 13.2341C24.3532 11.6489 26.0602 10.6748 27.9062 10.6666C28.9109 10.671 29.8926 10.9675 30.7318 11.5199C30.5719 11.9691 30.4872 12.4416 30.4811 12.9183C30.4811 13.5074 30.9587 13.985 31.5478 13.985C32.1369 13.985 32.6145 13.5074 32.6145 12.9183C32.6145 11.6791 33.619 10.6746 34.8582 10.6746C36.0974 10.6746 37.1019 11.6791 37.1019 12.9183C37.1019 13.5074 37.5795 13.985 38.1686 13.985C38.7577 13.985 39.2353 13.5074 39.2353 12.9183C39.2353 12.8362 39.215 12.7583 39.2107 12.6762C42.265 12.8646 44.8333 15.0357 45.5275 18.0159C45.03 18.1608 44.5625 18.3938 44.1473 18.7039C43.8424 18.9326 43.6827 19.3065 43.7283 19.6848C43.7738 20.0632 44.0178 20.3885 44.3683 20.5382C44.7187 20.6879 45.1224 20.6392 45.4273 20.4106C46.2797 19.7795 47.4571 19.8298 48.2525 20.5314C49.048 21.2329 49.245 22.3948 48.7254 23.3194C48.4932 23.7276 48.1404 24.054 47.7153 24.2538C47.2695 24.4696 47.0309 24.9639 47.1393 25.4472C47.2476 25.9305 47.6744 26.2756 48.1697 26.2805C48.3261 26.2807 48.4806 26.2461 48.6219 26.1791C48.9046 26.0421 49.1718 25.8751 49.4187 25.681C49.9701 27.2485 49.6243 28.9919 48.5163 30.2303L48.4907 30.257C47.1011 31.7624 44.8843 32.1692 43.0507 31.2554C42.8711 31.1605 42.6986 31.0529 42.5345 30.9333C43.3201 29.8318 43.4287 28.3849 42.8161 27.1786C42.6446 26.8381 42.3045 26.6149 41.9238 26.5932C41.5432 26.5715 41.1799 26.7544 40.9708 27.0732C40.7616 27.392 40.7384 27.7981 40.9099 28.1386C41.2607 28.8436 41.0419 29.6991 40.3958 30.1493C40.0164 30.4019 39.5476 30.4818 39.106 30.3691C38.6643 30.2564 38.2911 29.9618 38.079 29.5583C37.9085 29.2174 37.569 28.9934 37.1886 28.9707C36.8081 28.9479 36.4444 29.1299 36.2344 29.448C36.0245 29.7661 36.0002 30.1721 36.1707 30.513C36.7963 31.7758 38.0852 32.5733 39.4945 32.5695C39.9533 32.5664 40.4074 32.477 40.8331 32.3061C41.2141 32.6396 41.6338 32.9261 42.0833 33.1594C43.6035 33.9474 45.3713 34.1108 47.0102 33.6149C45.9561 35.0542 44.3785 36.0215 42.6177 36.3082C42.0699 36.3974 41.682 36.8917 41.7257 37.445C41.7694 37.9983 42.2301 38.4256 42.7851 38.4277C42.8419 38.4276 42.8986 38.4234 42.9547 38.4149C43.6043 38.3024 44.239 38.1171 44.847 37.8623C45.1756 38.4433 45.4423 39.0571 45.6427 39.6938C45.6794 39.805 45.6982 39.9213 45.6982 40.0383C45.6979 40.4993 45.4226 40.9157 44.9985 41.0965C44.5078 41.2862 43.9508 41.1365 43.6214 40.7263C42.7953 39.7563 41.7136 39.0375 40.4993 38.6517C38.1942 37.8794 37.3046 37.1893 36.927 36.4383C37.4805 36.3693 38.0273 36.2551 38.5622 36.097C38.9265 35.985 39.2034 35.6871 39.2885 35.3155C39.3736 34.944 39.2541 34.5553 38.9749 34.2958C38.6957 34.0363 38.2993 33.9455 37.935 34.0575C37.3365 34.2412 36.7186 34.3546 36.0939 34.3957C34.8904 34.4897 33.6812 34.3073 32.559 33.8623C32.1376 33.698 31.6584 33.8173 31.3633 34.1599C29.8102 35.9439 27.1522 36.2471 25.2373 34.8587C23.3224 33.4704 22.7842 30.8498 23.9969 28.8191C24.1933 28.4912 24.1999 28.0834 24.0141 27.7493C23.8284 27.4152 23.4785 27.2056 23.0963 27.1994C22.7141 27.1933 22.3576 27.3915 22.1611 27.7194C21.9066 28.1525 21.702 28.613 21.551 29.0922C20.711 29.048 20.0487 28.361 20.0353 27.5199V27.4933C20.0347 27.2118 19.9217 26.9422 19.7214 26.7445C19.5211 26.5468 19.25 26.4373 18.9686 26.4405C18.3769 26.4463 17.9007 26.9282 17.9019 27.5199C17.9067 29.4116 19.3332 30.9971 21.2139 31.201C21.2178 31.5586 21.2502 31.9153 21.311 32.2677C18.9294 32.783 16.4591 31.9269 14.9071 30.0483C13.3552 28.1697 12.9806 25.5823 13.9361 23.3407C14.1747 23.5822 14.4411 23.7945 14.7297 23.9733C15.2336 24.2684 15.8811 24.1035 16.1825 23.6033C16.4838 23.1031 16.3269 22.4535 15.8305 22.1461V22.1503ZM11.1371 30.7189C11.6289 30.6463 12.1366 30.5823 12.6411 30.5162C14.6133 33.6678 18.3853 35.1981 21.9958 34.3114C22.9659 36.1526 24.7386 37.4367 26.7906 37.7845C28.8425 38.1322 30.9393 37.504 32.4619 36.0853C33.1868 36.3015 33.9334 36.4367 34.6881 36.4885C35.2033 38.4426 36.6923 39.6266 39.8209 40.6751C40.6643 40.9395 41.4166 41.4351 41.9926 42.1055C42.6329 42.8669 43.5748 43.3094 44.5697 43.3162C45.0048 43.316 45.4354 43.2283 45.8358 43.0581C47.0449 42.5413 47.8293 41.3532 47.8294 40.0383C47.8304 39.6954 47.7756 39.3546 47.6673 39.0293C47.4274 38.2756 47.1115 37.5483 46.7243 36.8586C48.5382 35.5547 49.8017 33.6223 50.2689 31.4378C50.496 31.1679 50.7015 30.8804 50.8833 30.5781C51.2406 30.6239 51.5979 30.6645 51.9574 30.7242L55.8081 53.8858C48.2811 51.3724 40.1414 51.3724 32.6145 53.8858V40.5333C32.6145 39.9442 32.1369 39.4666 31.5478 39.4666C30.9587 39.4666 30.4811 39.9442 30.4811 40.5333V53.8901C22.9551 51.3744 14.8155 51.3714 7.28753 53.8815L11.1371 30.7189ZM2.37553 58.2741C2.17398 58.0306 2.09182 57.7098 2.15153 57.3994L6.82247 33.4186H8.52913L5.18193 53.5349C5.0642 54.2671 5.33381 55.008 5.89454 55.4934C6.45527 55.9787 7.22725 56.1393 7.935 55.9178C13.6214 54.0755 19.6795 53.6911 25.5531 54.7999L25.2353 58.6666H3.20647C2.88467 58.6668 2.57973 58.5228 2.37553 58.2741ZM31.5478 60.7999C28.9782 60.7999 27.5041 60.0405 27.2875 59.7023L27.6545 55.2757C28.8274 55.5677 29.9751 55.9526 31.087 56.4266C31.2308 56.4959 31.3882 56.5323 31.5478 56.5333C31.7078 56.533 31.8657 56.4966 32.0097 56.4266C33.1208 55.9498 34.2683 55.5624 35.4411 55.2682L35.8081 59.7013C35.5915 60.0405 34.1174 60.7999 31.5478 60.7999ZM60.7201 58.2741C60.5159 58.5228 60.2109 58.6668 59.8891 58.6666H37.8635L37.5435 54.7925C43.4204 53.6859 49.4811 54.0736 55.1691 55.9199C55.8767 56.1385 56.647 55.9757 57.2056 55.4894C57.7642 55.0031 58.0316 54.2626 57.9126 53.5317L54.5686 33.4197H56.2753L60.9473 57.3983C61.0064 57.7095 60.9231 58.0309 60.7201 58.2741Z" fill="white"/>
<path d="M28.0131 24.1974C27.5765 24.5924 27.5426 25.2666 27.9374 25.7035C28.8423 26.7025 30.0381 27.3921 31.3561 27.6747C30.7592 28.5158 29.7912 29.0149 28.7598 29.0133C28.1707 29.0133 27.6931 29.4909 27.6931 30.08C27.6931 30.6691 28.1707 31.1467 28.7598 31.1467C30.968 31.1555 32.9493 29.7917 33.7294 27.7259C36.3817 27.2863 38.4815 25.2448 38.9955 22.6059C39.0749 22.2284 38.9444 21.8375 38.6541 21.5835C38.3638 21.3295 37.9591 21.252 37.5955 21.3808C37.2319 21.5097 36.9662 21.8247 36.9006 22.2048C36.6914 23.305 36.0567 24.2782 35.1342 24.9131C33.3595 26.1083 30.9794 25.837 29.5193 24.2731C29.1242 23.8364 28.45 23.8025 28.0131 24.1974Z" fill="white"/>
<path d="M24.2942 23.0399C24.8833 23.0399 25.3609 22.5623 25.3609 21.9732C25.3609 21.2377 25.6531 20.5323 26.1732 20.0122C26.6933 19.4921 27.3987 19.1999 28.1342 19.1999C28.7233 19.1999 29.2009 18.7223 29.2009 18.1332C29.2009 17.5441 28.7233 17.0665 28.1342 17.0665C25.4255 17.0695 23.2305 19.2645 23.2275 21.9732C23.2275 22.2561 23.3399 22.5274 23.54 22.7274C23.74 22.9275 24.0113 23.0399 24.2942 23.0399Z" fill="white"/>
<path d="M32.6148 2.13333V1.06667C32.6148 0.477563 32.1372 0 31.5481 0C30.959 0 30.4814 0.477563 30.4814 1.06667V2.13333C30.4814 2.72244 30.959 3.2 31.5481 3.2C32.1372 3.2 32.6148 2.72244 32.6148 2.13333Z" fill="white"/>
<path d="M49.0515 7.6544L47.9848 8.72107C47.7076 8.98888 47.5964 9.38547 47.694 9.75841C47.7916 10.1313 48.0828 10.4226 48.4558 10.5202C48.8287 10.6178 49.2253 10.5066 49.4931 10.2293L50.5598 9.16267C50.8371 8.89486 50.9483 8.49827 50.8507 8.12533C50.7531 7.75239 50.4618 7.46114 50.0889 7.36353C49.7159 7.26591 49.3193 7.37712 49.0515 7.6544Z" fill="white"/>
<path d="M14.3564 10.5419C14.7878 10.5418 15.1766 10.2819 15.3417 9.88337C15.5067 9.48484 15.4155 9.02613 15.1106 8.72107L14.0439 7.6544C13.7761 7.37712 13.3795 7.26591 13.0066 7.36353C12.6336 7.46114 12.3424 7.75239 12.2448 8.12533C12.1471 8.49827 12.2583 8.89486 12.5356 9.16267L13.6023 10.2293C13.8023 10.4294 14.0736 10.5418 14.3564 10.5419Z" fill="white"/>
<path d="M22.5681 6.05327C22.7082 6.05297 22.847 6.02544 22.9766 5.97221C23.2381 5.86391 23.4457 5.65616 23.554 5.39469C23.6622 5.13322 23.6621 4.83946 23.5537 4.57807L22.3281 1.62127C22.1877 1.26114 21.8634 1.00514 21.4806 0.952119C21.0977 0.8991 20.7161 1.05736 20.4831 1.36579C20.2501 1.67422 20.2023 2.08455 20.3579 2.43834L21.5825 5.39514C21.7477 5.79364 22.1367 6.05338 22.5681 6.05327Z" fill="white"/>
<path d="M42.1614 1.04418C41.6173 0.819119 40.9938 1.0774 40.7683 1.62125L39.5427 4.57805C39.434 4.83956 39.4337 5.13359 39.5419 5.39531C39.6502 5.65704 39.8581 5.86496 40.1198 5.97325C40.2494 6.02648 40.3882 6.05402 40.5283 6.05432C40.9597 6.05443 41.3487 5.79468 41.5139 5.39618L42.7385 2.43938C42.8472 2.17787 42.8475 1.88384 42.7392 1.62212C42.631 1.3604 42.4231 1.15247 42.1614 1.04418Z" fill="white"/>
<path d="M53.2282 18.7541C53.3685 18.7539 53.5073 18.726 53.6368 18.672L56.5925 17.4475C56.9446 17.3017 57.1922 16.9791 57.2421 16.6013C57.2919 16.2235 57.1364 15.8478 56.8341 15.6157C56.5318 15.3837 56.1286 15.3305 55.7765 15.4763L52.8197 16.7008C52.3479 16.8946 52.0793 17.3953 52.1788 17.8956C52.2784 18.3959 52.7181 18.7557 53.2282 18.7541Z" fill="white"/>
<path d="M9.45945 18.6721C10.0038 18.8978 10.628 18.6394 10.8536 18.0951C11.0792 17.5507 10.8209 16.9266 10.2765 16.7009L7.31972 15.4764C6.77539 15.2511 6.15145 15.5097 5.92612 16.054C5.70078 16.5983 5.95938 17.2223 6.50372 17.4476L9.45945 18.6721Z" fill="white"/>
</svg>
