<svg width="64" height="64" viewBox="0 0 64 64" fill="none" xmlns="http://www.w3.org/2000/svg">
<path d="M60.2402 18H62.0002C62.0002 21.32 60.6602 24.32 58.4902 26.49C56.3202 28.66 53.3202 30 50.0002 30V28.24C50.0002 27.47 49.9102 26.71 49.7402 25.97C54.1202 25.61 57.6102 22.12 57.9702 17.74C58.7102 17.91 59.4702 18 60.2402 18Z" fill="#FFFCF5"/>
<path d="M46 3.76C46 4.53 46.09 5.29 46.26 6.03C41.88 6.39 38.39 9.88 38.03 14.26C37.29 14.09 36.53 14 35.76 14H34C34 10.68 35.34 7.68 37.51 5.51C39.68 3.34 42.68 2 46 2V3.76Z" fill="#FFFCF5"/>
<path d="M30.0002 14H28.2402C27.4702 14 26.7102 14.09 25.9702 14.26C25.6102 9.88 22.1202 6.39 17.7402 6.03C17.9102 5.29 18.0002 4.53 18.0002 3.76V2C21.3202 2 24.3202 3.34 26.4902 5.51C28.6602 7.68 30.0002 10.68 30.0002 14Z" fill="#FFFCF5"/>
<path d="M14.26 25.97C14.09 26.71 14 27.47 14 28.24V30C10.68 30 7.68 28.66 5.51 26.49C3.34 24.32 2 21.32 2 18H3.76C4.53 18 5.29 17.91 6.03 17.74C6.39 22.12 9.88 25.61 14.26 25.97Z" fill="#FFFCF5"/>
<path d="M46.093 27.004C40.971 26.526 36.389 25.22 32.473 23.119L32 22.865L31.527 23.119C27.611 25.22 23.029 26.526 17.907 27.004L17 27.089V43.561C17 52.638 23.061 60.618 31.739 62.965L32 63.036L32.261 62.965C40.939 60.617 47 52.638 47 43.561V27.089L46.093 27.004ZM42 43.746C42 50.198 37.939 55.909 32 58C26.061 55.909 22 50.198 22 43.746V31C25.6 30.385 28.946 29.407 32 28C35.054 29.407 38.4 30.425 42 31.04V43.746Z" fill="#FFFCF5"/>
<path d="M5.611 60.9749C4.268 60.7999 3.2 59.7319 3.025 58.3889L17.034 44.3799C17.023 44.1069 17 43.8359 17 43.5609V41.5859L1 57.5859V57.9999C1 60.7569 3.243 62.9999 6 62.9999H6.414L18.429 50.9849C18.156 50.2939 17.916 49.5889 17.72 48.8659L5.611 60.9749Z" fill="white"/>
<path d="M60.242 17C58.11 17 56.09 16.28 54.454 14.96L57.879 11.535C58.602 10.813 59 9.851 59 8.828C59 6.718 57.282 5 55.172 5C54.15 5 53.188 5.398 52.465 6.121L49.04 9.546C47.72 7.909 47 5.89 47 3.758V1H46C38.832 1 33 6.832 33 14V15H35.758C37.89 15 39.91 15.72 41.546 17.04L34.492 24.094C35.148 24.385 35.82 24.655 36.508 24.906L42 19.414L44.586 22L40.487 26.099C41.256 26.28 42.045 26.433 42.844 26.57L46.959 22.455C48.28 24.091 49 26.11 49 28.242V31H50C57.168 31 63 25.168 63 18V17H60.242ZM53.879 7.535C54.219 7.195 54.69 7 55.172 7C56.18 7 57 7.82 57 8.828C57 9.309 56.805 9.781 56.465 10.121L54 12.586L51.414 10L53.879 7.535ZM35.758 13H35.045C35.521 7.73 39.73 3.521 45 3.045V3.758C45 6.425 45.927 8.947 47.62 10.966L42.965 15.621C40.947 13.927 38.425 13 35.758 13ZM43.414 18L50 11.414L52.586 14L46 20.586L43.414 18ZM51 28.955V28.242C51 25.575 50.073 23.053 48.38 21.034L53.035 16.379C55.054 18.072 57.576 18.999 60.243 18.999H60.956C60.479 24.27 56.27 28.479 51 28.955Z" fill="white"/>
<path d="M46.9998 43.5609C46.9998 43.8359 46.9768 44.1069 46.9658 44.3799L60.9748 58.3889C60.7998 59.7329 59.7328 60.7999 58.3888 60.9749L46.2808 48.8669C46.0838 49.5899 45.8448 50.2949 45.5718 50.9859L57.5858 62.9999H57.9998C60.7568 62.9999 62.9998 60.7569 62.9998 57.9999V57.5859L46.9998 41.5859V43.5609Z" fill="white"/>
<path d="M14 31H15V28.242C15 26.11 15.72 24.09 17.04 22.454L21.155 26.569C21.955 26.432 22.744 26.279 23.512 26.098L19.414 22L22 19.414L27.492 24.906C28.18 24.655 28.852 24.385 29.508 24.094L22.454 17.04C24.091 15.72 26.11 15 28.242 15H31V14C31 6.832 25.168 1 18 1H17V3.758C17 5.89 16.28 7.91 14.96 9.546L11.535 6.121C10.813 5.398 9.851 5 8.828 5C6.718 5 5 6.718 5 8.828C5 9.85 5.398 10.812 6.121 11.535L9.546 14.96C7.909 16.28 5.89 17 3.758 17H1V18C1 25.168 6.832 31 14 31ZM18 20.586L11.414 14L14 11.414L20.586 18L18 20.586ZM19 3.758V3.045C24.27 3.521 28.479 7.73 28.955 13H28.242C25.575 13 23.053 13.927 21.034 15.62L16.379 10.965C18.073 8.947 19 6.425 19 3.758ZM7 8.828C7 7.82 7.82 7 8.828 7C9.309 7 9.781 7.195 10.121 7.535L12.586 10L10 12.586L7.535 10.121C7.195 9.781 7 9.31 7 8.828ZM3.758 19C6.425 19 8.947 18.073 10.966 16.38L15.621 21.035C13.927 23.053 13 25.575 13 28.242V28.955C7.73 28.479 3.521 24.27 3.045 19H3.758Z" fill="white"/>
<path d="M32.419 27.0919L32 26.8989L31.581 27.0909C28.707 28.4159 25.426 29.3989 21.831 30.0139L21 30.1559V43.7459C21 50.5899 25.287 56.6969 31.668 58.9429L32 59.0609L32.332 58.9439C38.713 56.6969 43 50.5899 43 43.7459V30.1959L42.169 30.0539C38.665 29.4559 35.385 28.4589 32.419 27.0919ZM41 43.7459C41 49.6229 37.398 54.8779 32 56.9339C26.602 54.8769 23 49.6219 23 43.7459V31.8359C26.274 31.2189 29.296 30.2989 32 29.0979C34.775 30.3349 37.797 31.2669 41 31.8759V43.7459Z" fill="white"/>
</svg>
