<svg width="64" height="64" viewBox="0 0 64 64" fill="none" xmlns="http://www.w3.org/2000/svg">
<path d="M15.3965 23.2195C14.2071 22.2904 12.4835 22.502 11.5542 23.6912C11.2355 24.0992 11.3079 24.6884 11.7157 25.0072C11.8871 25.1411 12.0905 25.206 12.2922 25.206C12.5709 25.206 12.8467 25.0822 13.0316 24.8456C13.3245 24.4709 13.8675 24.4044 14.242 24.697C14.65 25.0157 15.2391 24.9434 15.5579 24.5354C15.8769 24.1274 15.8045 23.5382 15.3965 23.2195Z" fill="white"/>
<path d="M25.0205 22.0379C23.831 21.1087 22.1074 21.3203 21.1783 22.5097C20.8595 22.9177 20.9318 23.5068 21.3398 23.8257C21.5112 23.9596 21.7145 24.0244 21.9163 24.0244C22.1949 24.0244 22.4708 23.9007 22.6557 23.6641C22.9484 23.2893 23.4913 23.2226 23.866 23.5154C24.274 23.8342 24.8632 23.7618 25.182 23.3539C25.5008 22.9459 25.4284 22.3568 25.0205 22.0379Z" fill="white"/>
<path d="M23.9374 29.2444L23.8306 28.3732C23.7843 27.9963 23.5941 27.6601 23.2948 27.4262C22.9956 27.1924 22.6233 27.0896 22.2466 27.1354L16.8627 27.7964C16.4858 27.8427 16.1496 28.0329 15.9158 28.3322C15.6819 28.6314 15.5788 29.0037 15.6251 29.3804L15.7321 30.2519C16.0099 32.5146 18.0762 34.1286 20.3386 33.8509C22.6008 33.5732 24.2153 31.5067 23.9374 29.2444ZM20.1101 31.9898C18.8753 32.1426 17.7449 31.2594 17.5932 30.0233L17.5414 29.6022L22.0248 29.0518L22.0766 29.4729C22.2283 30.7091 21.3462 31.8381 20.1101 31.9898Z" fill="white"/>
<path d="M30.7117 4.32162C29.7916 2.35 28.2259 0.878622 26.1837 0.0664965C25.735 -0.111878 25.2241 0.0796215 25.0035 0.509122C23.9949 2.47212 21.5582 3.86925 18.4857 4.2465L13.0645 4.91212C12.5506 4.97512 12.1851 5.443 12.2482 5.95687C12.3112 6.47087 12.7796 6.83612 13.293 6.77312L18.7142 6.1075C22.0131 5.70237 24.7405 4.24237 26.2051 2.13937C29.2607 3.77087 30.0022 7.19087 29.671 9.76212C29.3266 12.4349 27.9214 14.4445 26.2539 14.6492L8.01274 16.8891C6.49874 17.075 5.41824 18.4581 5.60411 19.9721L5.82824 21.7976L4.40749 21.9721L2.98336 10.3734C2.90786 9.75912 3.07624 9.15225 3.45711 8.66462C3.83811 8.177 4.38624 7.86687 5.00049 7.7915L9.55061 7.23287C10.0645 7.16975 10.43 6.702 10.3669 6.18812C10.3037 5.67425 9.83574 5.30925 9.32211 5.37187L4.77199 5.93062C2.47786 6.21212 0.840614 8.30762 1.12236 10.6017L2.59436 22.5907C1.64374 23.2686 1.10999 24.4279 1.25749 25.6242C1.45724 27.2464 2.83849 28.4696 4.47036 28.4696C4.59736 28.4696 4.72986 28.4616 4.86861 28.4451L6.61799 28.2296L6.78974 29.6264C7.14911 32.5536 8.62699 35.1657 10.9509 36.9815C12.9116 38.5136 15.2765 39.324 17.7257 39.324C18.1794 39.324 18.6361 39.2961 19.0934 39.24C20.5059 39.0662 21.8475 38.6327 23.0805 37.9516C24.2746 37.2929 25.3252 36.4279 26.2034 35.3807C26.5361 34.984 26.4842 34.3927 26.0875 34.06C25.6907 33.7272 25.0995 33.7792 24.7667 34.1759C24.0377 35.0451 23.1656 35.7632 22.1744 36.3101C21.1516 36.875 20.0381 37.2346 18.8647 37.379C16.4351 37.6774 14.0345 37.0115 12.1054 35.5041C10.1761 33.9966 8.94924 31.8281 8.65086 29.3977L8.36461 27.0702C8.33424 26.8235 8.20711 26.5989 8.01111 26.4457C7.81511 26.2926 7.56661 26.2236 7.31961 26.2541L4.64399 26.5837C4.58249 26.5911 4.52411 26.5947 4.47036 26.5947C3.78374 26.5947 3.20261 26.0791 3.11836 25.3951C3.04311 24.7849 3.38736 24.197 3.95536 23.9655C3.95636 23.9651 3.95724 23.9645 3.95824 23.9641C4.06836 23.9189 4.18574 23.8882 4.30686 23.8734L6.98711 23.5442C7.50099 23.4812 7.86649 23.0134 7.80336 22.4995L7.46499 19.7434C7.40511 19.2555 7.75336 18.8097 8.24111 18.7499L25.5512 16.6245L26.8457 27.1642C27.0152 28.5402 26.878 29.8996 26.4379 31.205C26.2725 31.6956 26.536 32.2275 27.0266 32.3929C27.126 32.4264 27.227 32.4422 27.3262 32.4422C27.7175 32.4422 28.0825 32.1954 28.2145 31.8041C28.7452 30.2304 28.9107 28.5921 28.7066 26.9354L27.3994 16.2921C29.5156 15.5384 31.1261 13.1407 31.5306 10.0019C31.7862 8.018 31.4955 6.00075 30.7117 4.32162Z" fill="white"/>
<path d="M52.4458 48.3673C51.5166 47.178 49.7929 46.9663 48.6035 47.8956C48.1955 48.2143 48.1231 48.8036 48.442 49.2116C48.7608 49.6196 49.3499 49.692 49.758 49.3731C50.1326 49.0802 50.6756 49.1471 50.9684 49.5217C51.1533 49.7584 51.4291 49.8821 51.7078 49.8821C51.9096 49.8821 52.1129 49.8171 52.2843 49.6832C52.6923 49.3645 52.7645 48.7753 52.4458 48.3673Z" fill="white"/>
<path d="M42.8216 47.1857C41.8925 45.9965 40.1689 45.7846 38.9795 46.714C38.5715 47.0327 38.4991 47.6218 38.8179 48.0298C39.1365 48.4377 39.7256 48.5103 40.1338 48.1915C40.5084 47.8988 41.0514 47.9653 41.3443 48.3401C41.5291 48.5767 41.8049 48.7005 42.0836 48.7005C42.2855 48.7005 42.4888 48.6355 42.6601 48.5017C43.0681 48.183 43.1404 47.5937 42.8216 47.1857Z" fill="white"/>
<path d="M47.1375 52.4723L41.7533 51.8112C41.3767 51.7653 41.0042 51.8683 40.7052 52.102C40.032 52.6278 40.1892 53.3356 40.0626 53.9202C39.6117 57.5917 43.8395 59.9238 46.7101 57.6812C48.4353 56.3333 48.2621 54.4745 48.375 54.0563C48.4705 53.2786 47.9155 52.568 47.1375 52.4723ZM45.5557 56.2037C45.0803 56.5751 44.4888 56.7391 43.89 56.6657C42.6511 56.5137 41.7715 55.388 41.9235 54.1488L41.9752 53.7276L46.4586 54.2781C46.404 54.4768 46.4867 55.4763 45.5557 56.2037Z" fill="white"/>
<path d="M62.0208 32.1862C61.3314 31.304 60.3398 30.7429 59.2284 30.6065L46.3463 29.0247C45.8654 28.9657 45.4258 28.7044 45.1399 28.3077C44.2479 27.0699 43.0348 26.1097 41.6318 25.531C41.153 25.3336 40.605 25.5616 40.4077 26.0402C40.2103 26.519 40.4383 27.067 40.9169 27.2644C41.9969 27.7097 42.9312 28.4496 43.6188 29.4039C44.2092 30.2231 45.12 30.7632 46.1178 30.8857L58.9999 32.4675C60.2679 32.6232 61.1729 33.7815 61.017 35.0494L59.593 46.6481L58.1722 46.4736L58.3963 44.648C58.582 43.134 57.5015 41.751 55.9875 41.5651L37.7464 39.3254C36.0325 39.1149 34.5177 38.2382 33.4808 36.8567C32.4445 35.4761 32.0265 33.7746 32.3039 32.0655C32.7498 29.3176 34.998 27.1656 37.7712 26.8322C38.2852 26.7705 38.6519 26.3037 38.59 25.7896C38.5283 25.2756 38.0612 24.9085 37.5474 24.9707C33.9494 25.4031 31.032 28.1972 30.453 31.7652C30.0934 33.9822 30.636 36.1901 31.9812 37.9824C33.1373 39.5226 34.752 40.5776 36.5945 41.0181L35.2934 51.6114C35.12 53.0222 35.2162 54.4296 35.5792 55.7941C35.6908 56.2137 36.0699 56.4909 36.4845 56.4909C36.5643 56.4909 36.6454 56.4806 36.7262 56.4591C37.2265 56.326 37.5243 55.8125 37.3912 55.3121C37.09 54.1801 37.0104 53.012 37.1544 51.8399L38.4488 41.3006L55.7589 43.426C56.2468 43.4859 56.595 43.9316 56.5352 44.4195L56.1967 47.1756C56.1664 47.4224 56.2354 47.6711 56.3884 47.8671C56.5415 48.063 56.7662 48.1901 57.0129 48.2204L59.6932 48.5495C59.8072 48.5635 59.9174 48.5926 60.022 48.6336C60.6054 48.8582 60.9585 49.4464 60.8818 50.0712C60.7977 50.7551 60.2164 51.2707 59.5298 51.2707C59.4762 51.2707 59.4179 51.2671 59.3605 51.2602L56.6805 50.9302C56.4337 50.8997 56.1849 50.9689 55.9889 51.1219C55.7929 51.2749 55.6658 51.4995 55.6354 51.7464L55.3492 54.074C55.0508 56.5042 53.8239 58.6727 51.8947 60.1802C49.9655 61.6876 47.5655 62.3539 45.135 62.0551C43.8599 61.8989 42.6579 61.4885 41.5624 60.8354C40.503 60.2039 39.5948 59.3784 38.863 58.382C38.5565 57.9646 37.9698 57.875 37.5525 58.1814C37.1353 58.4879 37.0454 59.0746 37.3519 59.4919C38.2329 60.6914 39.3265 61.6852 40.6025 62.4459C41.9234 63.2334 43.3718 63.7281 44.907 63.9161C45.3645 63.9724 45.8208 64.0001 46.2745 64.0001C48.7235 64.0001 51.0888 63.1896 53.0494 61.6576C55.3733 59.8417 56.851 57.2296 57.2104 54.3026L57.3822 52.9057C59.0557 53.1045 59.1859 53.1456 59.5299 53.1456C61.1618 53.1456 62.5432 51.9224 62.7429 50.2999C62.8913 49.0901 62.36 47.9376 61.4064 47.2634L62.8779 35.2777C63.0147 34.1665 62.7102 33.0686 62.0208 32.1862Z" fill="white"/>
<path d="M48.748 7.86426C48.2303 7.86426 47.8105 8.28401 47.8105 8.80176V11.0966C47.8105 11.6144 48.2303 12.0341 48.748 12.0341C49.2658 12.0341 49.6855 11.6144 49.6855 11.0966V8.80176C49.6855 8.28401 49.2658 7.86426 48.748 7.86426Z" fill="white"/>
<path d="M48.748 14.9187C48.2303 14.9187 47.8105 15.3385 47.8105 15.8562V18.1511C47.8105 18.6688 48.2303 19.0886 48.748 19.0886C49.2658 19.0886 49.6855 18.6688 49.6855 18.1511V15.8562C49.6855 15.3385 49.2658 14.9187 48.748 14.9187Z" fill="white"/>
<path d="M53.4228 12.5391H51.1279C50.6102 12.5391 50.1904 12.9588 50.1904 13.4766C50.1904 13.9943 50.6102 14.4141 51.1279 14.4141H53.4228C53.9406 14.4141 54.3603 13.9943 54.3603 13.4766C54.3603 12.9588 53.9406 12.5391 53.4228 12.5391Z" fill="white"/>
<path d="M46.3681 12.5391H44.0732C43.5555 12.5391 43.1357 12.9588 43.1357 13.4766C43.1357 13.9943 43.5555 14.4141 44.0732 14.4141H46.3681C46.8859 14.4141 47.3056 13.9943 47.3056 13.4766C47.3056 12.9588 46.8859 12.5391 46.3681 12.5391Z" fill="white"/>
<path d="M15.252 44.9106C14.7342 44.9106 14.3145 45.3304 14.3145 45.8481V48.143C14.3145 48.6608 14.7342 49.0805 15.252 49.0805C15.7697 49.0805 16.1895 48.6608 16.1895 48.143V45.8481C16.1895 45.3304 15.7697 44.9106 15.252 44.9106Z" fill="white"/>
<path d="M15.252 51.9653C14.7342 51.9653 14.3145 52.3851 14.3145 52.9028V55.1977C14.3145 55.7155 14.7342 56.1352 15.252 56.1352C15.7697 56.1352 16.1895 55.7155 16.1895 55.1977V52.9028C16.1895 52.385 15.7697 51.9653 15.252 51.9653Z" fill="white"/>
<path d="M19.9267 49.5854H17.6318C17.1141 49.5854 16.6943 50.0052 16.6943 50.5229C16.6943 51.0407 17.1141 51.4604 17.6318 51.4604H19.9267C20.4445 51.4604 20.8642 51.0407 20.8642 50.5229C20.8642 50.0052 20.4446 49.5854 19.9267 49.5854Z" fill="white"/>
<path d="M12.8719 49.5854H10.5771C10.0594 49.5854 9.63965 50.0052 9.63965 50.5229C9.63965 51.0407 10.0594 51.4604 10.5771 51.4604H12.872C13.3898 51.4604 13.8095 51.0407 13.8095 50.5229C13.8095 50.0052 13.3896 49.5854 12.8719 49.5854Z" fill="white"/>
</svg>
