<svg width="64" height="64" viewBox="0 0 64 64" fill="none" xmlns="http://www.w3.org/2000/svg">
<path d="M52.4456 48.3673C51.5165 47.178 49.7927 46.9663 48.6034 47.8956C48.1954 48.2143 48.123 48.8036 48.4419 49.2116C48.7606 49.6196 49.3497 49.692 49.7579 49.3731C50.1325 49.0802 50.6755 49.1471 50.9682 49.5217C51.1531 49.7584 51.429 49.8821 51.7076 49.8821C51.9095 49.8821 52.1127 49.8171 52.2841 49.6832C52.6921 49.3645 52.7644 48.7753 52.4456 48.3673Z" fill="white"/>
<path d="M42.8216 47.1857C41.8925 45.9965 40.1689 45.7846 38.9795 46.714C38.5715 47.0327 38.4991 47.6218 38.8179 48.0298C39.1365 48.4377 39.7256 48.5103 40.1338 48.1915C40.5084 47.8988 41.0514 47.9653 41.3443 48.3401C41.5291 48.5767 41.8049 48.7005 42.0836 48.7005C42.2855 48.7005 42.4888 48.6355 42.6601 48.5017C43.0681 48.183 43.1404 47.5937 42.8216 47.1857Z" fill="white"/>
<path d="M47.1374 52.4723L41.7533 51.8112C41.3767 51.7653 41.0042 51.8683 40.7052 52.102C40.0319 52.6278 40.1892 53.3356 40.0626 53.9202C39.6117 57.5917 43.8394 59.9238 46.7101 57.6812C48.4353 56.3333 48.2621 54.4745 48.3749 54.0563C48.4704 53.2786 47.9154 52.568 47.1374 52.4723ZM45.5557 56.2037C45.0803 56.5751 44.4888 56.7391 43.8899 56.6657C42.6511 56.5137 41.7714 55.388 41.9234 54.1488L41.9752 53.7276L46.4586 54.2781C46.4039 54.4768 46.4867 55.4763 45.5557 56.2037Z" fill="white"/>
<path d="M62.0203 32.1862C61.331 31.304 60.3393 30.7429 59.228 30.6065L46.3458 29.0247C45.865 28.9657 45.4253 28.7044 45.1395 28.3077C44.2475 27.0699 43.0343 26.1097 41.6313 25.531C41.1526 25.3336 40.6046 25.5616 40.4072 26.0402C40.2098 26.519 40.4378 27.067 40.9165 27.2644C41.9965 27.7097 42.9307 28.4496 43.6183 29.4039C44.2087 30.2231 45.1196 30.7632 46.1173 30.8857L58.9995 32.4675C60.2675 32.6232 61.1725 33.7815 61.0166 35.0494L59.5926 46.6481L58.1717 46.4736L58.3958 44.648C58.5816 43.134 57.5011 41.751 55.9871 41.5651L37.746 39.3254C36.0321 39.1149 34.5172 38.2382 33.4803 36.8567C32.4441 35.4761 32.0261 33.7746 32.3035 32.0655C32.7493 29.3176 34.9976 27.1656 37.7707 26.8322C38.2847 26.7705 38.6515 26.3037 38.5896 25.7896C38.5278 25.2756 38.0607 24.9085 37.547 24.9707C33.949 25.4031 31.0316 28.1972 30.4526 31.7652C30.093 33.9822 30.6356 36.1901 31.9807 37.9824C33.1368 39.5226 34.7516 40.5776 36.5941 41.0181L35.293 51.6114C35.1196 53.0222 35.2157 54.4296 35.5787 55.7941C35.6903 56.2137 36.0695 56.4909 36.4841 56.4909C36.5638 56.4909 36.645 56.4806 36.7257 56.4591C37.2261 56.326 37.5238 55.8125 37.3907 55.3121C37.0896 54.1801 37.01 53.012 37.154 51.8399L38.4483 41.3006L55.7585 43.426C56.2463 43.4859 56.5946 43.9316 56.5347 44.4195L56.1962 47.1756C56.166 47.4224 56.235 47.6711 56.388 47.8671C56.5411 48.063 56.7657 48.1901 57.0125 48.2204L59.6927 48.5495C59.8067 48.5635 59.917 48.5926 60.0216 48.6336C60.605 48.8582 60.9581 49.4464 60.8813 50.0712C60.7972 50.7551 60.216 51.2707 59.5293 51.2707C59.4757 51.2707 59.4175 51.2671 59.3601 51.2602L56.6801 50.9302C56.4332 50.8997 56.1845 50.9689 55.9885 51.1219C55.7925 51.2749 55.6653 51.4995 55.635 51.7464L55.3487 54.074C55.0503 56.5042 53.8235 58.6727 51.8942 60.1802C49.9651 61.6876 47.5651 62.3539 45.1346 62.0551C43.8595 61.8989 42.6575 61.4885 41.562 60.8354C40.5026 60.2039 39.5943 59.3784 38.8626 58.382C38.5561 57.9646 37.9693 57.875 37.5521 58.1814C37.1348 58.4879 37.045 59.0746 37.3515 59.4919C38.2325 60.6914 39.3261 61.6852 40.6021 62.4459C41.923 63.2334 43.3713 63.7281 44.9066 63.9161C45.3641 63.9724 45.8203 64.0001 46.2741 64.0001C48.7231 64.0001 51.0883 63.1896 53.049 61.6576C55.3728 59.8417 56.8506 57.2296 57.21 54.3026L57.3817 52.9057C59.0552 53.1045 59.1855 53.1456 59.5295 53.1456C61.1613 53.1456 62.5427 51.9224 62.7425 50.2999C62.8908 49.0901 62.3596 47.9376 61.406 47.2634L62.8775 35.2777C63.0142 34.1665 62.7097 33.0686 62.0203 32.1862Z" fill="white"/>
<path d="M48.7478 7.86426C48.2301 7.86426 47.8103 8.28401 47.8103 8.80176V11.0966C47.8103 11.6144 48.2301 12.0341 48.7478 12.0341C49.2656 12.0341 49.6853 11.6144 49.6853 11.0966V8.80176C49.6853 8.28401 49.2656 7.86426 48.7478 7.86426Z" fill="white"/>
<path d="M48.7478 14.9187C48.2301 14.9187 47.8103 15.3385 47.8103 15.8562V18.1511C47.8103 18.6688 48.2301 19.0886 48.7478 19.0886C49.2656 19.0886 49.6853 18.6688 49.6853 18.1511V15.8562C49.6853 15.3385 49.2656 14.9187 48.7478 14.9187Z" fill="white"/>
<path d="M53.4225 12.5391H51.1276C50.6099 12.5391 50.1901 12.9588 50.1901 13.4766C50.1901 13.9943 50.6099 14.4141 51.1276 14.4141H53.4225C53.9403 14.4141 54.36 13.9943 54.36 13.4766C54.36 12.9588 53.9403 12.5391 53.4225 12.5391Z" fill="white"/>
<path d="M46.368 12.5391H44.0732C43.5554 12.5391 43.1357 12.9588 43.1357 13.4766C43.1357 13.9943 43.5554 14.4141 44.0732 14.4141H46.368C46.8858 14.4141 47.3055 13.9943 47.3055 13.4766C47.3055 12.9588 46.8858 12.5391 46.368 12.5391Z" fill="white"/>
<path d="M15.252 44.9106C14.7343 44.9106 14.3145 45.3304 14.3145 45.8481V48.143C14.3145 48.6608 14.7343 49.0805 15.252 49.0805C15.7698 49.0805 16.1895 48.6608 16.1895 48.143V45.8481C16.1895 45.3304 15.7698 44.9106 15.252 44.9106Z" fill="white"/>
<path d="M15.252 51.9653C14.7343 51.9653 14.3145 52.3851 14.3145 52.9028V55.1977C14.3145 55.7155 14.7343 56.1352 15.252 56.1352C15.7698 56.1352 16.1895 55.7155 16.1895 55.1977V52.9028C16.1895 52.385 15.7698 51.9653 15.252 51.9653Z" fill="white"/>
<path d="M19.9266 49.5854H17.6317C17.114 49.5854 16.6942 50.0052 16.6942 50.5229C16.6942 51.0407 17.114 51.4604 17.6317 51.4604H19.9266C20.4443 51.4604 20.8641 51.0407 20.8641 50.5229C20.8641 50.0052 20.4445 49.5854 19.9266 49.5854Z" fill="white"/>
<path d="M12.8721 49.5854H10.5774C10.0596 49.5854 9.63989 50.0052 9.63989 50.5229C9.63989 51.0407 10.0596 51.4604 10.5774 51.4604H12.8723C13.39 51.4604 13.8098 51.0407 13.8098 50.5229C13.8098 50.0052 13.3899 49.5854 12.8721 49.5854Z" fill="white"/>
</svg>
