<svg width="322" height="110" viewBox="0 0 322 110" fill="none" xmlns="http://www.w3.org/2000/svg">
<g filter="url(#filter0_d)">
<mask id="path-1-inside-1" fill="white">
<path d="M25 49C25 32.4315 38.4315 19 55 19H267C283.569 19 297 32.4315 297 49C297 65.5685 283.569 79 267 79H55C38.4315 79 25 65.5685 25 49Z"/>
</mask>
<path d="M25 49C25 32.4315 38.4315 19 55 19H267C283.569 19 297 32.4315 297 49C297 65.5685 283.569 79 267 79H55C38.4315 79 25 65.5685 25 49Z" fill="url(#paint0_linear)"/>
<path d="M55 20H267V18H55V20ZM267 78H55V80H267V78ZM55 78C38.9837 78 26 65.0163 26 49H24C24 66.1208 37.8792 80 55 80V78ZM296 49C296 65.0163 283.016 78 267 78V80C284.121 80 298 66.1208 298 49H296ZM267 20C283.016 20 296 32.9837 296 49H298C298 31.8792 284.121 18 267 18V20ZM55 18C37.8792 18 24 31.8792 24 49H26C26 32.9837 38.9837 20 55 20V18Z" fill="black" mask="url(#path-1-inside-1)"/>
<path d="M55 20H267V18H55V20ZM267 78H55V80H267V78ZM55 78C38.9837 78 26 65.0163 26 49H24C24 66.1208 37.8792 80 55 80V78ZM296 49C296 65.0163 283.016 78 267 78V80C284.121 80 298 66.1208 298 49H296ZM267 20C283.016 20 296 32.9837 296 49H298C298 31.8792 284.121 18 267 18V20ZM55 18C37.8792 18 24 31.8792 24 49H26C26 32.9837 38.9837 20 55 20V18Z" fill="url(#paint1_linear)" mask="url(#path-1-inside-1)"/>
<mask id="mask0" mask-type="alpha" maskUnits="userSpaceOnUse" x="25" y="19" width="262" height="60">
<path d="M25 49C25 32.4315 38.4315 19 55 19H256.12C272.689 19 286.12 32.4315 286.12 49C286.12 65.5685 272.689 79 256.12 79H55C38.4314 79 25 65.5685 25 49Z" fill="url(#paint2_linear)"/>
</mask>
<g mask="url(#mask0)">
<path opacity="0.25" d="M124.099 101.007L208.277 4.29565H23.6038V101.007H124.099Z" fill="url(#paint3_linear)"/>
</g>
</g>
<path d="M63.924 43.4V56H61.62V45.38H55.086V56H52.782V43.4H63.924ZM71.5089 56.126C70.5369 56.126 69.6609 55.916 68.8809 55.496C68.1009 55.076 67.4889 54.494 67.0449 53.75C66.6129 52.994 66.3969 52.142 66.3969 51.194C66.3969 50.246 66.6129 49.4 67.0449 48.656C67.4889 47.912 68.1009 47.33 68.8809 46.91C69.6609 46.49 70.5369 46.28 71.5089 46.28C72.4929 46.28 73.3749 46.49 74.1549 46.91C74.9349 47.33 75.5409 47.912 75.9729 48.656C76.4169 49.4 76.6389 50.246 76.6389 51.194C76.6389 52.142 76.4169 52.994 75.9729 53.75C75.5409 54.494 74.9349 55.076 74.1549 55.496C73.3749 55.916 72.4929 56.126 71.5089 56.126ZM71.5089 54.2C72.3369 54.2 73.0209 53.924 73.5609 53.372C74.1009 52.82 74.3709 52.094 74.3709 51.194C74.3709 50.294 74.1009 49.568 73.5609 49.016C73.0209 48.464 72.3369 48.188 71.5089 48.188C70.6809 48.188 69.9969 48.464 69.4569 49.016C68.9289 49.568 68.6649 50.294 68.6649 51.194C68.6649 52.094 68.9289 52.82 69.4569 53.372C69.9969 53.924 70.6809 54.2 71.5089 54.2ZM83.2356 56.126C82.2396 56.126 81.3456 55.916 80.5536 55.496C79.7616 55.076 79.1436 54.494 78.6996 53.75C78.2556 52.994 78.0336 52.142 78.0336 51.194C78.0336 50.246 78.2556 49.4 78.6996 48.656C79.1436 47.912 79.7556 47.33 80.5356 46.91C81.3276 46.49 82.2276 46.28 83.2356 46.28C84.1836 46.28 85.0116 46.472 85.7196 46.856C86.4396 47.24 86.9796 47.792 87.3396 48.512L85.6116 49.52C85.3356 49.076 84.9876 48.746 84.5676 48.53C84.1596 48.302 83.7096 48.188 83.2176 48.188C82.3776 48.188 81.6816 48.464 81.1296 49.016C80.5776 49.556 80.3016 50.282 80.3016 51.194C80.3016 52.106 80.5716 52.838 81.1116 53.39C81.6636 53.93 82.3656 54.2 83.2176 54.2C83.7096 54.2 84.1596 54.092 84.5676 53.876C84.9876 53.648 85.3356 53.312 85.6116 52.868L87.3396 53.876C86.9676 54.596 86.4216 55.154 85.7016 55.55C84.9936 55.934 84.1716 56.126 83.2356 56.126ZM98.7706 56V49.628L95.5306 54.992H94.5586L91.3726 49.61V56H89.3206V46.388H91.6786L95.0986 52.4L98.6806 46.388H100.787L100.805 56H98.7706ZM108.107 56.126C107.135 56.126 106.259 55.916 105.479 55.496C104.699 55.076 104.087 54.494 103.643 53.75C103.211 52.994 102.995 52.142 102.995 51.194C102.995 50.246 103.211 49.4 103.643 48.656C104.087 47.912 104.699 47.33 105.479 46.91C106.259 46.49 107.135 46.28 108.107 46.28C109.091 46.28 109.973 46.49 110.753 46.91C111.533 47.33 112.139 47.912 112.571 48.656C113.015 49.4 113.237 50.246 113.237 51.194C113.237 52.142 113.015 52.994 112.571 53.75C112.139 54.494 111.533 55.076 110.753 55.496C109.973 55.916 109.091 56.126 108.107 56.126ZM108.107 54.2C108.935 54.2 109.619 53.924 110.159 53.372C110.699 52.82 110.969 52.094 110.969 51.194C110.969 50.294 110.699 49.568 110.159 49.016C109.619 48.464 108.935 48.188 108.107 48.188C107.279 48.188 106.595 48.464 106.055 49.016C105.527 49.568 105.263 50.294 105.263 51.194C105.263 52.094 105.527 52.82 106.055 53.372C106.595 53.924 107.279 54.2 108.107 54.2ZM122.722 48.296H119.356V56H117.106V48.296H113.722V46.388H122.722V48.296ZM129.682 46.28C130.618 46.28 131.452 46.484 132.184 46.892C132.928 47.3 133.51 47.876 133.93 48.62C134.35 49.364 134.56 50.222 134.56 51.194C134.56 52.166 134.35 53.03 133.93 53.786C133.51 54.53 132.928 55.106 132.184 55.514C131.452 55.922 130.618 56.126 129.682 56.126C128.386 56.126 127.36 55.694 126.604 54.83V59.492H124.354V46.388H126.496V47.648C126.868 47.192 127.324 46.85 127.864 46.622C128.416 46.394 129.022 46.28 129.682 46.28ZM129.43 54.2C130.258 54.2 130.936 53.924 131.464 53.372C132.004 52.82 132.274 52.094 132.274 51.194C132.274 50.294 132.004 49.568 131.464 49.016C130.936 48.464 130.258 48.188 129.43 48.188C128.89 48.188 128.404 48.314 127.972 48.566C127.54 48.806 127.198 49.154 126.946 49.61C126.694 50.066 126.568 50.594 126.568 51.194C126.568 51.794 126.694 52.322 126.946 52.778C127.198 53.234 127.54 53.588 127.972 53.84C128.404 54.08 128.89 54.2 129.43 54.2ZM145.799 51.248C145.799 51.404 145.787 51.626 145.763 51.914H138.221C138.353 52.622 138.695 53.186 139.247 53.606C139.811 54.014 140.507 54.218 141.335 54.218C142.391 54.218 143.261 53.87 143.945 53.174L145.151 54.56C144.719 55.076 144.173 55.466 143.513 55.73C142.853 55.994 142.109 56.126 141.281 56.126C140.225 56.126 139.295 55.916 138.491 55.496C137.687 55.076 137.063 54.494 136.619 53.75C136.187 52.994 135.971 52.142 135.971 51.194C135.971 50.258 136.181 49.418 136.601 48.674C137.033 47.918 137.627 47.33 138.383 46.91C139.139 46.49 139.991 46.28 140.939 46.28C141.875 46.28 142.709 46.49 143.441 46.91C144.185 47.318 144.761 47.9 145.169 48.656C145.589 49.4 145.799 50.264 145.799 51.248ZM140.939 48.08C140.219 48.08 139.607 48.296 139.103 48.728C138.611 49.148 138.311 49.712 138.203 50.42H143.657C143.561 49.724 143.267 49.16 142.775 48.728C142.283 48.296 141.671 48.08 140.939 48.08ZM155.522 48.296H152.156V56H149.906V48.296H146.522V46.388H155.522V48.296ZM161.979 49.556C163.203 49.556 164.139 49.832 164.787 50.384C165.447 50.936 165.777 51.716 165.777 52.724C165.777 53.78 165.417 54.596 164.697 55.172C163.977 55.748 162.963 56.03 161.655 56.018L157.155 56V46.388H159.405V49.538L161.979 49.556ZM161.457 54.362C162.117 54.374 162.621 54.236 162.969 53.948C163.317 53.66 163.491 53.24 163.491 52.688C163.491 52.148 163.323 51.752 162.987 51.5C162.651 51.248 162.141 51.116 161.457 51.104L159.405 51.086V54.344L161.457 54.362ZM179.695 50.996C180.883 51.356 181.477 52.124 181.477 53.3C181.477 54.164 181.153 54.83 180.505 55.298C179.857 55.766 178.897 56 177.625 56H172.729V46.388H177.427C178.603 46.388 179.521 46.604 180.181 47.036C180.841 47.468 181.171 48.08 181.171 48.872C181.171 49.364 181.039 49.79 180.775 50.15C180.523 50.51 180.163 50.792 179.695 50.996ZM174.871 50.402H177.229C178.393 50.402 178.975 50 178.975 49.196C178.975 48.416 178.393 48.026 177.229 48.026H174.871V50.402ZM177.445 54.362C178.681 54.362 179.299 53.96 179.299 53.156C179.299 52.736 179.155 52.424 178.867 52.22C178.579 52.004 178.129 51.896 177.517 51.896H174.871V54.362H177.445ZM188.247 56.126C187.251 56.126 186.357 55.916 185.565 55.496C184.773 55.076 184.155 54.494 183.711 53.75C183.267 52.994 183.045 52.142 183.045 51.194C183.045 50.246 183.267 49.4 183.711 48.656C184.155 47.912 184.767 47.33 185.547 46.91C186.339 46.49 187.239 46.28 188.247 46.28C189.195 46.28 190.023 46.472 190.731 46.856C191.451 47.24 191.991 47.792 192.351 48.512L190.623 49.52C190.347 49.076 189.999 48.746 189.579 48.53C189.171 48.302 188.721 48.188 188.229 48.188C187.389 48.188 186.693 48.464 186.141 49.016C185.589 49.556 185.313 50.282 185.313 51.194C185.313 52.106 185.583 52.838 186.123 53.39C186.675 53.93 187.377 54.2 188.229 54.2C188.721 54.2 189.171 54.092 189.579 53.876C189.999 53.648 190.347 53.312 190.623 52.868L192.351 53.876C191.979 54.596 191.433 55.154 190.713 55.55C190.005 55.934 189.183 56.126 188.247 56.126ZM203.192 51.248C203.192 51.404 203.18 51.626 203.156 51.914H195.614C195.746 52.622 196.088 53.186 196.64 53.606C197.204 54.014 197.9 54.218 198.728 54.218C199.784 54.218 200.654 53.87 201.338 53.174L202.544 54.56C202.112 55.076 201.566 55.466 200.906 55.73C200.246 55.994 199.502 56.126 198.674 56.126C197.618 56.126 196.688 55.916 195.884 55.496C195.08 55.076 194.456 54.494 194.012 53.75C193.58 52.994 193.364 52.142 193.364 51.194C193.364 50.258 193.574 49.418 193.994 48.674C194.426 47.918 195.02 47.33 195.776 46.91C196.532 46.49 197.384 46.28 198.332 46.28C199.268 46.28 200.102 46.49 200.834 46.91C201.578 47.318 202.154 47.9 202.562 48.656C202.982 49.4 203.192 50.264 203.192 51.248ZM198.332 48.08C197.612 48.08 197 48.296 196.496 48.728C196.004 49.148 195.704 49.712 195.596 50.42H201.05C200.954 49.724 200.66 49.16 200.168 48.728C199.676 48.296 199.064 48.08 198.332 48.08ZM219.699 46.388L215.199 56.774C214.779 57.818 214.269 58.55 213.669 58.97C213.069 59.402 212.343 59.618 211.491 59.618C211.011 59.618 210.537 59.54 210.069 59.384C209.601 59.228 209.217 59.012 208.917 58.736L209.817 57.08C210.033 57.284 210.285 57.446 210.573 57.566C210.873 57.686 211.173 57.746 211.473 57.746C211.869 57.746 212.193 57.644 212.445 57.44C212.709 57.236 212.949 56.894 213.165 56.414L213.327 56.036L209.133 46.388H211.473L214.497 53.498L217.539 46.388H219.699ZM225.372 56.126C224.376 56.126 223.482 55.916 222.69 55.496C221.898 55.076 221.28 54.494 220.836 53.75C220.392 52.994 220.17 52.142 220.17 51.194C220.17 50.246 220.392 49.4 220.836 48.656C221.28 47.912 221.892 47.33 222.672 46.91C223.464 46.49 224.364 46.28 225.372 46.28C226.32 46.28 227.148 46.472 227.856 46.856C228.576 47.24 229.116 47.792 229.476 48.512L227.748 49.52C227.472 49.076 227.124 48.746 226.704 48.53C226.296 48.302 225.846 48.188 225.354 48.188C224.514 48.188 223.818 48.464 223.266 49.016C222.714 49.556 222.438 50.282 222.438 51.194C222.438 52.106 222.708 52.838 223.248 53.39C223.8 53.93 224.502 54.2 225.354 54.2C225.846 54.2 226.296 54.092 226.704 53.876C227.124 53.648 227.472 53.312 227.748 52.868L229.476 53.876C229.104 54.596 228.558 55.154 227.838 55.55C227.13 55.934 226.308 56.126 225.372 56.126ZM239.958 46.388V56H237.708V48.296H234.108L234.018 50.204C233.958 51.476 233.838 52.544 233.658 53.408C233.49 54.26 233.196 54.938 232.776 55.442C232.368 55.934 231.804 56.18 231.084 56.18C230.748 56.18 230.334 56.114 229.842 55.982L229.95 54.092C230.118 54.128 230.262 54.146 230.382 54.146C230.838 54.146 231.18 53.966 231.408 53.606C231.636 53.234 231.78 52.796 231.84 52.292C231.912 51.776 231.972 51.044 232.02 50.096L232.182 46.388H239.958ZM252.061 46.388L247.561 56.774C247.141 57.818 246.631 58.55 246.031 58.97C245.431 59.402 244.705 59.618 243.853 59.618C243.373 59.618 242.899 59.54 242.431 59.384C241.963 59.228 241.579 59.012 241.279 58.736L242.179 57.08C242.395 57.284 242.647 57.446 242.935 57.566C243.235 57.686 243.535 57.746 243.835 57.746C244.231 57.746 244.555 57.644 244.807 57.44C245.071 57.236 245.311 56.894 245.527 56.414L245.689 56.036L241.495 46.388H243.835L246.859 53.498L249.901 46.388H252.061ZM261.003 48.296H255.873V56H253.623V46.388H261.003V48.296ZM262.641 46.388H264.891V52.724L270.201 46.388H272.253V56H270.003V49.664L264.711 56H262.641V46.388Z" fill="white"/>
<defs>
<filter id="filter0_d" x="0" y="0" width="322" height="110" filterUnits="userSpaceOnUse" color-interpolation-filters="sRGB">
<feFlood flood-opacity="0" result="BackgroundImageFix"/>
<feColorMatrix in="SourceAlpha" type="matrix" values="0 0 0 0 0 0 0 0 0 0 0 0 0 0 0 0 0 0 127 0"/>
<feOffset dy="6"/>
<feGaussianBlur stdDeviation="12.5"/>
<feColorMatrix type="matrix" values="0 0 0 0 0.733333 0 0 0 0 0.466667 0 0 0 0 1 0 0 0 0.7 0"/>
<feBlend mode="normal" in2="BackgroundImageFix" result="effect1_dropShadow"/>
<feBlend mode="normal" in="SourceGraphic" in2="effect1_dropShadow" result="shape"/>
</filter>
<linearGradient id="paint0_linear" x1="40.7315" y1="-10.1667" x2="298.384" y2="81.4481" gradientUnits="userSpaceOnUse">
<stop stop-color="#CE6CF0"/>
<stop offset="0.916667" stop-color="#6A6AF7"/>
</linearGradient>
<linearGradient id="paint1_linear" x1="161" y1="19" x2="161" y2="79" gradientUnits="userSpaceOnUse">
<stop stop-color="white"/>
<stop offset="1" stop-color="white" stop-opacity="0"/>
</linearGradient>
<linearGradient id="paint2_linear" x1="40.1023" y1="-10.1667" x2="289.645" y2="75.0151" gradientUnits="userSpaceOnUse">
<stop stop-color="#CE6CF0"/>
<stop offset="1" stop-color="#616AF8"/>
</linearGradient>
<linearGradient id="paint3_linear" x1="127.653" y1="47.9055" x2="23.6038" y2="47.9055" gradientUnits="userSpaceOnUse">
<stop stop-color="white" stop-opacity="0.62"/>
<stop offset="1" stop-color="white" stop-opacity="0"/>
</linearGradient>
</defs>
</svg>
