<svg width="46" height="46" viewBox="0 0 46 46" fill="none" xmlns="http://www.w3.org/2000/svg">
<g clip-path="url(#clip0)">
<path d="M20.687 38.332C18.615 40.404 15.253 40.404 13.182 38.332L1.554 26.704C-0.518 24.633 -0.518 21.271 1.554 19.2C3.625 17.128 6.987 17.128 9.059 19.2L15.987 26.127C16.51 26.649 17.359 26.649 17.883 26.127L36.642 7.36796C38.713 5.29596 42.075 5.29596 44.147 7.36796C45.142 8.36296 45.701 9.71296 45.701 11.12C45.701 12.527 45.142 13.877 44.147 14.872L20.687 38.332Z" fill="url(#paint0_linear)"/>
</g>
<defs>
<linearGradient id="paint0_linear" x1="22.8505" y1="5.81396" x2="22.8505" y2="39.886" gradientUnits="userSpaceOnUse">
<stop stop-color="#93FD93"/>
<stop offset="0.520833" stop-color="#21C2C1"/>
<stop offset="1" stop-color="#84F599"/>
</linearGradient>
<clipPath id="clip0">
<rect width="45.701" height="45.7" fill="white"/>
</clipPath>
</defs>
</svg>
