<svg width="144" height="34" viewBox="0 0 144 34" fill="none" xmlns="http://www.w3.org/2000/svg">
<path d="M30.3108 7.67554L28.268 28.1886H3.73199L2.08618 8.07254L16 15.8627L30.3108 7.67554Z" fill="#F2F2F2"/>
<path d="M29.6179 3.81152L16 16.6038L2.38214 3.81152H16H29.6179Z" fill="#F2F2F2"/>
<path d="M3.732 9.71842V28.1887H1.50869C0.67575 28.1887 0 27.513 0 26.68V6.99805L2.4375 7.06448L3.732 9.71842Z" fill="#F14336"/>
<path d="M32 6.99798V26.68C32 27.5129 31.3243 28.1887 30.4905 28.1887H28.268V9.71836L29.4988 6.81055L32 6.99798Z" fill="#D32E2A"/>
<path d="M32 5.32021V6.99802L28.268 9.7184L16 18.6601L3.732 9.7184L0 6.99802V5.32021C0 4.48727 0.67575 3.81152 1.50869 3.81152H2.38212L16 13.7371L29.6179 3.81152H30.4905C31.3242 3.81152 32 4.48721 32 5.32021Z" fill="#F14336"/>
<path d="M3.732 9.71842L0 9.1398V6.99805L3.732 9.71842Z" fill="#D32E2A"/>
<path d="M128 34C136.837 34 144 26.8366 144 18C144 9.16344 136.837 2 128 2C119.163 2 112 9.16344 112 18C112 26.8366 119.163 34 128 34Z" fill="#039BE5"/>
<path d="M119.321 17.6534L134.748 11.7054C135.464 11.4467 136.089 11.88 135.857 12.9627L135.859 12.9614L133.232 25.336C133.037 26.2134 132.516 26.4267 131.787 26.0134L127.787 23.0654L125.857 24.924C125.644 25.1374 125.464 25.3174 125.051 25.3174L125.335 21.2467L132.748 14.5494C133.071 14.2654 132.676 14.1054 132.251 14.388L123.089 20.156L119.14 18.924C118.283 18.652 118.264 18.0667 119.321 17.6534Z" fill="white"/>
<path d="M75 32C83.8366 32 91 24.8366 91 16C91 7.16344 83.8366 0 75 0C66.1634 0 59 7.16344 59 16C59 24.8366 66.1634 32 75 32Z" fill="#4D76A1"/>
<path fill-rule="evenodd" clip-rule="evenodd" d="M74.3956 23.0173H75.6514C75.6514 23.0173 76.0308 22.9757 76.2244 22.7669C76.4027 22.5752 76.397 22.2153 76.397 22.2153C76.397 22.2153 76.3725 20.5302 77.1545 20.2821C77.9255 20.0377 78.9154 21.9107 79.9648 22.6308C80.7582 23.1759 81.3612 23.0564 81.3612 23.0564L84.1668 23.0173C84.1668 23.0173 85.6345 22.9269 84.9386 21.7729C84.8816 21.6785 84.5333 20.9193 82.8526 19.3591C81.0933 17.7263 81.3289 17.9904 83.4481 15.1659C84.7387 13.4458 85.2546 12.3956 85.0935 11.9458C84.9398 11.5174 83.9906 11.6307 83.9906 11.6307L80.8315 11.6503C80.8315 11.6503 80.5974 11.6184 80.4237 11.7222C80.254 11.824 80.1447 12.0613 80.1447 12.0613C80.1447 12.0613 79.6447 13.3924 78.9779 14.5244C77.5712 16.9131 77.0088 17.0392 76.7789 16.8909C76.2441 16.5452 76.3776 15.5022 76.3776 14.7612C76.3776 12.4464 76.7287 11.4812 75.6939 11.2314C75.3505 11.1484 75.0978 11.0936 74.2197 11.0848C73.0925 11.0731 72.1384 11.0882 71.5983 11.3529C71.2389 11.5288 70.9616 11.921 71.1305 11.9435C71.3393 11.9715 71.8122 12.071 72.0629 12.4124C72.3866 12.8528 72.3752 13.8419 72.3752 13.8419C72.3752 13.8419 72.5611 16.5669 71.9408 16.9054C71.515 17.1376 70.9308 16.6636 69.6768 14.4965C69.0342 13.3864 68.549 12.1594 68.549 12.1594C68.549 12.1594 68.4555 11.9301 68.2886 11.8075C68.0861 11.6589 67.8032 11.6115 67.8032 11.6115L64.8013 11.6312C64.8013 11.6312 64.3506 11.6438 64.1852 11.8397C64.0381 12.014 64.1735 12.3745 64.1735 12.3745C64.1735 12.3745 66.5237 17.8729 69.1848 20.6437C71.6248 23.1842 74.3956 23.0173 74.3956 23.0173Z" fill="white"/>
</svg>
