<svg width="64" height="64" viewBox="0 0 64 64" fill="none" xmlns="http://www.w3.org/2000/svg">
<path d="M37 43L55.4852 52.2426C56.5697 52.7849 57.5065 53.5819 58.2154 54.5655C58.9244 55.5491 59.3843 56.6899 59.5558 57.8901L60 61H4L4.44425 57.8901C4.61572 56.6899 5.07563 55.5491 5.78456 54.5655C6.49349 53.5819 7.43031 52.7849 8.51475 52.2426L27 43H37Z" fill="#026CA2"/>
<path d="M27 43H37V61H27V43Z" fill="#CBCBCB"/>
<path d="M27 39V43L26 46V47H38V46L37 43V39H27Z" fill="#FDC9A6"/>
<path d="M37 39V41.455C36.99 41.4625 36.9788 41.4688 36.9688 41.4763C35.4967 42.473 33.7589 43.0039 31.9811 43.0001C30.2033 42.9963 28.4678 42.458 27 41.455V39H37Z" fill="#FDC9A6"/>
<path d="M37 39V41.455C36.99 41.4625 36.9788 41.4688 36.9688 41.4763C35.4967 42.473 33.7589 43.0039 31.9811 43.0001C30.2033 42.9963 28.4678 42.458 27 41.455V39H37Z" fill="#E6AF89"/>
<path d="M9 61V57C9 56.7348 9.10536 56.4804 9.29289 56.2929C9.48043 56.1054 9.73478 56 10 56C10.2652 56 10.5196 56.1054 10.7071 56.2929C10.8946 56.4804 11 56.7348 11 57V61H9Z" fill="#015078"/>
<path d="M53 61V57C53 56.7348 53.1054 56.4804 53.2929 56.2929C53.4804 56.1054 53.7348 56 54 56C54.2652 56 54.5196 56.1054 54.7071 56.2929C54.8946 56.4804 55 56.7348 55 57V61H53Z" fill="#015078"/>
<path d="M28.8571 48.5714L30 52H34L35.1429 48.5714L32 47L28.8571 48.5714Z" fill="#0296E5"/>
<path d="M30 52L29 61H35L34 52H30Z" fill="#026CA2"/>
<path d="M45.1156 21.4904L45.5433 19.7904C45.9932 18.0016 46.0059 16.1309 45.5802 14.3362C45.1545 12.5416 44.303 10.8758 43.0976 9.47974C41.874 7.84455 40.2008 6.60101 38.2822 5.90095C36.3636 5.20089 34.2827 5.0746 32.2935 5.53749C31.6303 5.69199 30.9695 5.84561 30.339 5.99211C28.9772 6.30836 27.7019 6.92113 26.604 7.78675C25.5061 8.65236 24.6127 9.74951 23.9875 11H23.722C22.873 11 22.0357 11.1977 21.2763 11.5774C20.517 11.9571 19.8564 12.5083 19.347 13.1875C18.4767 14.3479 18.103 15.8065 18.3081 17.2425L18.9875 22L19.3516 25H44L44.8231 22.4991C44.9327 22.1664 45.0302 21.8301 45.1156 21.4904Z" fill="#55300B"/>
<path d="M32 40.9999C30.2288 40.9999 28.4983 40.4692 27.0316 39.4762C25.565 38.4832 24.4295 37.0736 23.7716 35.4291C22.6013 32.5032 22 29.3808 22 26.2296V18.9999L25 13.9087C26.5833 15.5209 28.4719 16.8014 30.5556 17.6756C32.6393 18.5497 34.8763 18.9999 37.1359 18.9999H42V26.2296C42.0001 29.381 41.3988 32.5035 40.2284 35.4296C39.5705 37.074 38.4349 38.4835 36.9683 39.4764C35.5016 40.4693 33.7711 40.9999 32 40.9999Z" fill="#FDC9A6"/>
<path d="M38 23H35C34.7348 23 34.4804 22.8946 34.2929 22.7071C34.1054 22.5196 34 22.2652 34 22C34 21.7348 34.1054 21.4804 34.2929 21.2929C34.4804 21.1054 34.7348 21 35 21H38C38.2652 21 38.5196 21.1054 38.7071 21.2929C38.8946 21.4804 39 21.7348 39 22C39 22.2652 38.8946 22.5196 38.7071 22.7071C38.5196 22.8946 38.2652 23 38 23Z" fill="#55300B"/>
<path d="M36.25 26.5C36.9404 26.5 37.5 25.9404 37.5 25.25C37.5 24.5596 36.9404 24 36.25 24C35.5596 24 35 24.5596 35 25.25C35 25.9404 35.5596 26.5 36.25 26.5Z" fill="#55300B"/>
<path d="M29 23H26C25.7348 23 25.4804 22.8946 25.2929 22.7071C25.1054 22.5196 25 22.2652 25 22C25 21.7348 25.1054 21.4804 25.2929 21.2929C25.4804 21.1054 25.7348 21 26 21H29C29.2652 21 29.5196 21.1054 29.7071 21.2929C29.8946 21.4804 30 21.7348 30 22C30 22.2652 29.8946 22.5196 29.7071 22.7071C29.5196 22.8946 29.2652 23 29 23Z" fill="#55300B"/>
<path d="M27.75 26.5C28.4404 26.5 29 25.9404 29 25.25C29 24.5596 28.4404 24 27.75 24C27.0596 24 26.5 24.5596 26.5 25.25C26.5 25.9404 27.0596 26.5 27.75 26.5Z" fill="#55300B"/>
<path d="M34 35H30C29.7348 35 29.4804 34.8946 29.2929 34.7071C29.1054 34.5196 29 34.2652 29 34C29 33.7348 29.1054 33.4804 29.2929 33.2929C29.4804 33.1054 29.7348 33 30 33H34C34.2652 33 34.5196 33.1054 34.7071 33.2929C34.8946 33.4804 35 33.7348 35 34C35 34.2652 34.8946 34.5196 34.7071 34.7071C34.5196 34.8946 34.2652 35 34 35Z" fill="#E6AF89"/>
<path d="M33 31H31C30.7348 31 30.4804 30.8946 30.2929 30.7071C30.1054 30.5196 30 30.2652 30 30V27C30 26.7348 30.1054 26.4804 30.2929 26.2929C30.4804 26.1054 30.7348 26 31 26C31.2652 26 31.5196 26.1054 31.7071 26.2929C31.8946 26.4804 32 26.7348 32 27V29H33C33.2652 29 33.5196 29.1054 33.7071 29.2929C33.8946 29.4804 34 29.7348 34 30C34 30.2652 33.8946 30.5196 33.7071 30.7071C33.5196 30.8946 33.2652 31 33 31Z" fill="#E6AF89"/>
<path d="M22 22H20.618C19.9237 22 19.2578 22.2758 18.7668 22.7668C18.2758 23.2578 18 23.9237 18 24.618V26.382C18 26.7884 18.0946 27.1892 18.2764 27.5527C18.4938 27.9876 18.828 28.3534 19.2416 28.609C19.6552 28.8646 20.1318 29 20.618 29H22.375L22 22Z" fill="#FDC9A6"/>
<path d="M42 22H43.382C44.0763 22 44.7422 22.2758 45.2332 22.7668C45.7242 23.2578 46 23.9237 46 24.618V26.382C46 26.7884 45.9054 27.1892 45.7236 27.5527C45.5062 27.9876 45.172 28.3534 44.7584 28.609C44.3448 28.8646 43.8682 29 43.382 29H41.625L42 22Z" fill="#FDC9A6"/>
<path d="M27 43L32 47L26 50V46L27 43Z" fill="#EBEBEB"/>
<path d="M37 43L32 47L38 50V46L37 43Z" fill="#EBEBEB"/>
<path d="M27 61H22L19 52L27 43V61Z" fill="#0296E5"/>
<path d="M37 61H42L45 52L37 43V61Z" fill="#0296E5"/>
</svg>
