<svg width="64" height="64" viewBox="0 0 64 64" fill="none" xmlns="http://www.w3.org/2000/svg">
<g clip-path="url(#clip0)">
<path d="M64 32C64 36.7334 62.9722 41.2266 61.1279 45.269C57.9751 52.1797 52.4355 57.771 45.564 60.9922C44.3193 61.5747 43.0303 62.0801 41.7031 62.5005C40.2104 62.9775 38.6704 63.3442 37.0898 63.5962C37.0835 63.5977 37.0757 63.5991 37.0688 63.5991C36.2935 63.7231 35.5107 63.8184 34.7183 63.8853C34.5493 63.8994 34.3799 63.9126 34.21 63.9243C33.9707 63.9399 33.7305 63.9541 33.4888 63.9648C32.9951 63.9883 32.499 64 32 64C31.4878 64 30.98 63.9883 30.4746 63.9634C30.2461 63.9531 30.0171 63.9399 29.7886 63.9229C29.6177 63.9111 29.4478 63.8994 29.2778 63.8853C28.4668 63.8174 27.6636 63.7178 26.8711 63.5898C26.4922 63.5283 26.1147 63.4619 25.7412 63.3872C24.1201 63.0659 22.5449 62.6235 21.0234 62.0669C20.1416 61.7456 19.2783 61.3862 18.4346 60.9907C18.1475 60.856 17.8613 60.7163 17.5776 60.5713C16.8491 60.2031 16.1372 59.8071 15.4424 59.3853C11.9614 57.2773 8.91553 54.5239 6.46777 51.2915C4.99854 49.3506 3.74609 47.2373 2.74561 44.9854C0.980957 41.0176 0 36.6235 0 32C0 14.3267 14.3267 0 32 0C49.6733 0 64 14.3267 64 32Z" fill="#CE6CF0"/>
<path d="M25.7412 41.5269V63.3872C24.1201 63.0659 22.5449 62.6235 21.0234 62.0669C20.1416 61.7456 19.2783 61.3862 18.4346 60.9907C18.1475 60.856 17.8613 60.7163 17.5776 60.5713C16.8491 60.2031 16.1372 59.8071 15.4424 59.3853C11.9614 57.2773 8.91553 54.5239 6.46777 51.2915C4.99854 49.3506 3.74609 47.2373 2.74561 44.9854V41.5269C2.74561 37.5146 5.47021 34.1382 9.17041 33.1494C9.30615 33.1128 9.44189 33.0786 9.58057 33.0503C9.94727 32.9692 10.3247 32.9141 10.709 32.8828C10.9429 32.8647 11.1792 32.854 11.418 32.854H17.0669C17.6978 32.854 18.313 32.9209 18.9062 33.0503C18.9399 33.0566 18.9741 33.0645 19.0078 33.0723C19.1074 33.0947 19.208 33.1191 19.3057 33.1455C19.3086 33.147 19.311 33.147 19.3135 33.1479C20.2905 33.4092 21.1982 33.8364 22.0068 34.3979C24.2637 35.9639 25.7412 38.5723 25.7412 41.5269Z" fill="#2BA1CF"/>
<path d="M25.7412 41.5269V63.3872C24.1201 63.0659 22.5449 62.6235 21.0234 62.0669C20.1416 61.7456 19.2783 61.3862 18.4346 60.9907C18.1475 60.856 17.8613 60.7163 17.5776 60.5713C16.8491 60.2031 16.1372 59.8071 15.4424 59.3853C11.9614 57.2773 8.91553 54.5239 6.46777 51.2915V41.5269C6.46777 37.5146 9.19238 34.1382 12.8926 33.1494C13.0288 33.1128 13.1646 33.0786 13.3027 33.0503C13.6699 32.9692 14.0474 32.9141 14.4312 32.8828C14.665 32.8647 14.9014 32.854 15.1406 32.854H17.0669C17.6978 32.854 18.313 32.9209 18.9062 33.0503C18.9399 33.0566 18.9741 33.0645 19.0078 33.0723C19.1074 33.0947 19.208 33.1191 19.3057 33.1455C19.3086 33.147 19.311 33.147 19.3135 33.1479C20.2905 33.4092 21.1982 33.8364 22.0068 34.3979C24.2637 35.9639 25.7412 38.5723 25.7412 41.5269Z" fill="#66BAED"/>
<path d="M19.335 33.0498L19.3145 33.1479L16.7197 45.2158C16.4707 46.3755 15.4502 47.2163 14.2646 47.2173C14.2573 47.2173 14.2505 47.2173 14.2437 47.2173C14.2358 47.2173 14.2285 47.2173 14.2207 47.2173C13.0347 47.2163 12.0146 46.3755 11.7656 45.2158L9.1709 33.1489L9.15039 33.0498H19.335Z" fill="#F2F0EC"/>
<path d="M14.2427 36.4048L10.3379 38.5747L9.15039 33.0498L11.5767 31.6211" fill="#D8D5D0"/>
<path d="M14.2427 36.4048L18.1475 38.5747L19.335 33.0498L16.9087 31.6211" fill="#D8D5D0"/>
<path d="M2.58447 30.7637V17.6836C2.58447 16.3545 2.80615 15.0522 3.24365 13.813C4.88086 9.15479 9.30127 6.02393 14.2432 6.02393C14.8555 6.02393 15.4663 6.07129 16.0601 6.16504C18.7749 6.58936 21.2661 7.9751 23.0723 10.0674C24.8975 12.1821 25.9028 14.8867 25.9028 17.6836V30.7637" fill="#CC7A3B"/>
<path d="M7.38037 18.1943C7.38037 22.8208 10.0898 28.1733 11.5776 30.7637H2.58398V17.6836C2.58398 16.355 2.80615 15.0527 3.24316 13.813C4.87061 9.18164 9.25049 6.06006 14.1582 6.0249C10.5737 6.11426 7.38037 11.8652 7.38037 18.1943Z" fill="#A35418"/>
<path d="M17.3379 29.5132V33.311C17.3379 34.7012 16.4214 35.8765 15.1587 36.2666C14.8696 36.3564 14.5615 36.4048 14.2432 36.4048C12.5342 36.4048 11.1494 35.02 11.1494 33.311V29.5132H17.3379Z" fill="#EAB599"/>
<path d="M17.3379 33.0703V33.311C17.3379 34.7012 16.4214 35.8765 15.1587 36.2666C14.0195 35.9165 13.1631 34.9258 13.0049 33.7139C13.2114 33.7266 13.4194 33.7329 13.6279 33.7329C14.2134 33.7329 14.7876 33.6865 15.3462 33.5947C16.0352 33.4839 16.7012 33.3066 17.3379 33.0703Z" fill="#F6CAAE"/>
<path d="M5.75537 23.2896C5.75537 24.7222 4.70898 25.9102 3.33838 26.1304C3.18896 26.1548 3.03467 26.1675 2.87744 26.1675C1.28809 26.1675 0 24.8794 0 23.2896C0 21.7002 1.28809 20.4121 2.87744 20.4121C3.03467 20.4121 3.18896 20.4248 3.33838 20.4492C4.70898 20.6694 5.75537 21.8569 5.75537 23.2896Z" fill="#F6CAAE"/>
<path d="M5.75537 23.2896C5.75537 24.7222 4.70898 25.9102 3.33838 26.1304C3.08984 25.2256 2.95654 24.2729 2.95654 23.2896C2.95654 22.3066 3.08984 21.354 3.33838 20.4492C4.70898 20.6694 5.75537 21.8569 5.75537 23.2896Z" fill="#EAB599"/>
<path d="M3.90625 23.2896C3.90625 23.8579 3.4458 24.3184 2.87744 24.3184C2.30957 24.3184 1.84912 23.8579 1.84912 23.2896C1.84912 22.7217 2.30957 22.2612 2.87744 22.2612C3.4458 22.2612 3.90625 22.7217 3.90625 23.2896Z" fill="#EAB599"/>
<path d="M21.6323 19.6152V29.5068C20.1035 30.9663 18.1431 31.9771 15.9619 32.3286C15.9448 32.3315 15.9263 32.3345 15.9092 32.3374C15.3672 32.4238 14.811 32.4668 14.2432 32.4668C8.33057 32.4668 3.53711 27.6733 3.53711 21.7607V17.6836C3.53711 17.1616 3.57422 16.6479 3.64648 16.146C6.19385 17.978 9.84619 17.7969 12.1733 15.5977C12.9438 14.8696 13.4795 14.0029 13.7822 13.0835C13.9507 14.6934 14.687 16.2603 15.9922 17.4941C17.5459 18.9609 19.5986 19.6685 21.6323 19.6152Z" fill="#EAB599"/>
<path d="M21.6323 19.6152V29.5068C20.1035 30.9663 18.1431 31.9771 15.9619 32.3286C15.9448 32.3315 15.9263 32.3345 15.9092 32.3374C10.7881 31.5371 6.87109 27.1055 6.87109 21.7607V17.6836C6.87109 17.5752 6.87305 17.4673 6.87695 17.3599C8.76465 17.5532 10.7256 16.9663 12.1733 15.5972C12.9438 14.8696 13.4795 14.0024 13.7822 13.0835C13.9507 14.6934 14.687 16.2603 15.9922 17.4941C17.5459 18.9609 19.5986 19.6685 21.6323 19.6152Z" fill="#F6CAAE"/>
<path d="M19.9937 20.8564C19.9937 19.874 19.1973 19.0781 18.2153 19.0781C17.2334 19.0781 16.437 19.874 16.437 20.8564" fill="#EAB599"/>
<path d="M12.0513 20.8564C12.0513 19.874 11.2549 19.0781 10.2729 19.0781C9.29102 19.0781 8.49512 19.874 8.49512 20.8564" fill="#EAB599"/>
<path d="M11.4878 21.6133C11.4878 22.2842 10.9438 22.8281 10.2729 22.8281C9.60205 22.8281 9.05859 22.2842 9.05859 21.6133C9.05859 20.9424 9.60205 20.3989 10.2729 20.3989C10.9438 20.3989 11.4878 20.9424 11.4878 21.6133Z" fill="#3D4159"/>
<path d="M19.4297 21.6133C19.4297 22.2842 18.8862 22.8281 18.2153 22.8281C17.5444 22.8281 17.001 22.2842 17.001 21.6133C17.001 20.9424 17.5444 20.3989 18.2153 20.3989C18.8862 20.3989 19.4297 20.9424 19.4297 21.6133Z" fill="#3D4159"/>
<path d="M15.459 24.6714H13.0298C12.7402 24.6714 12.5059 24.4365 12.5059 24.1475C12.5059 23.8584 12.7402 23.6235 13.0298 23.6235H15.459C15.748 23.6235 15.9824 23.8584 15.9824 24.1475C15.9824 24.4365 15.748 24.6714 15.459 24.6714Z" fill="#EAB599"/>
<path d="M14.2441 27.9863C13.3476 27.9863 12.4512 27.7617 11.6338 27.312C11.4033 27.1855 11.3193 26.896 11.4458 26.6655C11.5727 26.4351 11.8623 26.3511 12.0928 26.4775C13.4399 27.2183 15.0483 27.2183 16.3955 26.4775C16.626 26.3506 16.9155 26.4351 17.0425 26.6655C17.1689 26.896 17.0849 27.1855 16.8545 27.312C16.0371 27.7617 15.1406 27.9863 14.2441 27.9863Z" fill="#EAB599"/>
<path d="M11.2402 21.3989C11.2402 21.6865 11.0068 21.9194 10.7197 21.9194C10.4321 21.9194 10.1992 21.6865 10.1992 21.3989C10.1992 21.1113 10.4321 20.8784 10.7197 20.8784C11.0068 20.8784 11.2402 21.1113 11.2402 21.3989Z" fill="white"/>
<path d="M19.2417 21.3989C19.2417 21.6865 19.0088 21.9194 18.7217 21.9194C18.4341 21.9194 18.2012 21.6865 18.2012 21.3989C18.2012 21.1113 18.4341 20.8784 18.7217 20.8784C19.0088 20.8784 19.2417 21.1113 19.2417 21.3989Z" fill="white"/>
<path d="M21.5312 24.5718C21.5312 25.3081 20.9341 25.9053 20.1973 25.9053C19.4609 25.9053 18.8638 25.3081 18.8638 24.5718C18.8638 23.835 19.4609 23.2378 20.1973 23.2378C20.9341 23.2378 21.5312 23.835 21.5312 24.5718Z" fill="#EAB599"/>
<path d="M9.62354 24.5718C9.62354 25.3081 9.02686 25.9053 8.29004 25.9053C7.55371 25.9053 6.95654 25.3081 6.95654 24.5718C6.95654 23.835 7.55371 23.2378 8.29004 23.2378C9.02686 23.2378 9.62354 23.835 9.62354 24.5718Z" fill="#EAB599"/>
<path d="M61.1279 41.2632V45.269C57.9751 52.1797 52.4355 57.771 45.564 60.9922C44.3193 61.5747 43.0303 62.0801 41.7031 62.5005C40.2104 62.9775 38.6704 63.3442 37.0898 63.5962C37.0835 63.5977 37.0757 63.5991 37.0688 63.5991V41.2632C37.0688 36.5024 40.7354 32.5967 45.4009 32.2207C45.6465 32.1997 45.8931 32.1909 46.1426 32.1909H52.0518C52.7505 32.1909 53.4307 32.2676 54.084 32.418C58.1172 33.3398 61.1279 36.9517 61.1279 41.2632Z" fill="#BFD5DE"/>
<path d="M61.1279 41.2632V45.269C57.9751 52.1797 52.4355 57.771 45.564 60.9922C44.3193 61.5747 43.0303 62.0801 41.7031 62.5005V41.2632C41.7031 36.2529 45.7666 32.1909 50.7783 32.1909H52.0527C57.0659 32.1909 61.1279 36.2529 61.1279 41.2632Z" fill="#DDE8ED"/>
<path d="M40.2168 22.1831C40.2168 23.6821 39.1221 24.9248 37.6885 25.1553C37.5317 25.1807 37.3706 25.1938 37.2061 25.1938C35.543 25.1938 34.1953 23.8462 34.1953 22.1831C34.1953 20.52 35.543 19.1724 37.2061 19.1724C37.3706 19.1724 37.5317 19.1855 37.6885 19.2109C39.1221 19.4419 40.2168 20.6846 40.2168 22.1831Z" fill="#D3A489"/>
<path d="M51.5342 35.4639L49.0981 39.3711L46.6621 35.4639" fill="#F74F4F"/>
<path d="M52.3755 50.4082L49.0981 54.5439L45.8203 50.4082L49.0986 38.3545L52.3755 50.4082Z" fill="#F74F4F"/>
<path d="M40.2168 22.1831C40.2168 23.6821 39.1221 24.9248 37.6885 25.1553C37.4282 24.2085 37.2891 23.2119 37.2891 22.1831C37.2891 21.1548 37.4282 20.1582 37.6885 19.2109C39.1221 19.4419 40.2168 20.6846 40.2168 22.1831Z" fill="#BF8E75"/>
<path d="M38.2822 22.1831C38.2822 22.7773 37.8003 23.2593 37.2061 23.2593C36.6118 23.2593 36.1304 22.7773 36.1304 22.1831C36.1304 21.5889 36.6118 21.1074 37.2061 21.1074C37.8003 21.1074 38.2822 21.5889 38.2822 22.1831Z" fill="#BF8E75"/>
<path d="M49.0972 35.9048L45.0122 38.1753L43.7695 32.3945L46.3076 30.8994" fill="#BFD5DE"/>
<path d="M49.0972 35.9048L53.1826 38.1753L54.4253 32.3945L51.8867 30.8994" fill="#BFD5DE"/>
<path d="M57.9785 22.1831C57.9785 23.6821 59.0732 24.9248 60.5068 25.1553C60.6636 25.1807 60.8247 25.1938 60.9893 25.1938C62.6523 25.1938 64 23.8462 64 22.1831C64 20.52 62.6523 19.1724 60.9893 19.1724C60.8247 19.1724 60.6636 19.1855 60.5068 19.2109C59.0732 19.4419 57.9785 20.6846 57.9785 22.1831Z" fill="#D3A489"/>
<path d="M57.9785 22.1831C57.9785 23.6821 59.0732 24.9248 60.5068 25.1553C60.7676 24.2085 60.9062 23.2119 60.9062 22.1831C60.9062 21.1548 60.7676 20.1582 60.5068 19.2109C59.0732 19.4419 57.9785 20.6846 57.9785 22.1831Z" fill="#BF8E75"/>
<path d="M62.0654 22.1831C62.0654 22.7773 61.5835 23.2593 60.9893 23.2593C60.395 23.2593 59.9131 22.7773 59.9131 22.1831C59.9131 21.5889 60.395 21.1074 60.9893 21.1074C61.5835 21.1074 62.0654 21.5889 62.0654 22.1831Z" fill="#BF8E75"/>
<path d="M60.2998 20.583C60.2998 26.1572 56.2275 30.7817 50.8955 31.6401C50.311 31.7363 49.7104 31.7847 49.0977 31.7847C42.9106 31.7847 37.896 26.77 37.896 20.583C37.896 17.6558 38.9126 13.2612 40.751 11.2656C42.7979 9.04345 45.8379 9.38086 49.0977 9.38086C49.7104 9.38086 50.3105 9.42968 50.8955 9.52588C56.2275 10.3843 60.2998 15.0083 60.2998 20.583Z" fill="#BF8E75"/>
<path d="M52.3354 28.6948V32.668C52.3354 34.1226 51.3765 35.3521 50.0552 35.7603C49.7529 35.854 49.4307 35.9048 49.0972 35.9048C47.3096 35.9048 45.8604 34.4556 45.8604 32.668V28.6948H52.3354Z" fill="#BF8E75"/>
<path d="M52.3354 32.416V32.668C52.3354 34.1226 51.3765 35.3521 50.0552 35.7603C48.8633 35.394 47.9673 34.3574 47.8018 33.0894C48.0181 33.1025 48.2354 33.1094 48.4541 33.1094C49.0664 33.1094 49.667 33.0605 50.252 32.9648C50.9727 32.8486 51.6689 32.6636 52.3354 32.416Z" fill="#D3A489"/>
<path d="M60.2998 20.583C60.2998 26.1572 56.2275 30.7817 50.8955 31.6401C45.564 30.7817 41.4917 26.1572 41.4917 20.583C41.4917 17.1504 43.0356 14.0781 45.4678 12.0229C46.9844 10.7407 48.8472 9.85547 50.8955 9.52539C55.8662 10.3257 59.7437 14.4004 60.2446 19.4658C60.2812 19.8335 60.2998 20.2065 60.2998 20.583Z" fill="#D3A489"/>
<path d="M49.0982 26.1001C48.1597 26.1001 47.2222 25.8653 46.3672 25.395C46.1255 25.2627 46.0376 24.9595 46.1704 24.7183C46.3028 24.4771 46.606 24.3892 46.8472 24.522C48.2564 25.2964 49.9395 25.2964 51.3492 24.522C51.5899 24.3892 51.8931 24.4771 52.0254 24.7183C52.1582 24.9595 52.0703 25.2627 51.8291 25.395C50.9742 25.8653 50.0357 26.1001 49.0982 26.1001Z" fill="#BF8E75"/>
<path d="M46.7124 19.9312C46.7124 20.6328 46.1436 21.2017 45.4414 21.2017C44.7397 21.2017 44.1709 20.6328 44.1709 19.9312C44.1709 19.229 44.7397 18.6602 45.4414 18.6602C46.1436 18.6602 46.7124 19.229 46.7124 19.9312Z" fill="#3D4159"/>
<path d="M54.0249 19.9312C54.0249 20.6328 53.4561 21.2017 52.7544 21.2017C52.0522 21.2017 51.4834 20.6328 51.4834 19.9312C51.4834 19.229 52.0522 18.6602 52.7544 18.6602C53.4561 18.6602 54.0249 19.229 54.0249 19.9312Z" fill="#3D4159"/>
<path d="M46.4531 19.7065C46.4531 20.0073 46.2095 20.2515 45.9087 20.2515C45.6079 20.2515 45.3643 20.0073 45.3643 19.7065C45.3643 19.4062 45.6079 19.1621 45.9087 19.1621C46.2095 19.1621 46.4531 19.4062 46.4531 19.7065Z" fill="white"/>
<path d="M53.8281 19.7065C53.8281 20.0073 53.5845 20.2515 53.2837 20.2515C52.9829 20.2515 52.7393 20.0073 52.7393 19.7065C52.7393 19.4062 52.9829 19.1621 53.2837 19.1621C53.5845 19.1621 53.8281 19.4062 53.8281 19.7065Z" fill="white"/>
<path d="M50.3687 23.1304H47.8271C47.5244 23.1304 47.2788 22.8848 47.2788 22.582C47.2788 22.2793 47.5244 22.0342 47.8271 22.0342H50.3687C50.6714 22.0342 50.917 22.2793 50.917 22.582C50.9165 22.8848 50.6714 23.1304 50.3687 23.1304Z" fill="#BF8E75"/>
<path d="M52.7861 40.9658H57.6694V42.4604H52.7861V40.9658Z" fill="#BFD5DE"/>
<path d="M48.4424 6.18108C51.8359 6.42327 54.5605 9.16448 54.7329 12.6152L54.7651 13.2631H56.7173L57.7686 20.2543L60.3149 19.4662L59.9731 12.6156C59.7925 8.99065 56.7944 6.14983 53.1665 6.1635L48.4424 6.18108Z" fill="#2A2F4F"/>
<path d="M59.7573 3.47705C62.4595 6.1792 62.4595 10.5605 59.7573 13.2627C57.0552 15.9648 52.6738 15.9648 49.9717 13.2627L59.7573 3.47705Z" fill="#3D4159"/>
<path d="M49.9717 13.2626H41.4795L40.4277 20.2543L37.8813 19.4662L38.2227 12.6152C38.4033 8.99114 41.4014 6.14934 45.0298 6.16301L57.2949 6.2094L58.9165 9.12786" fill="#3D4159"/>
<path d="M49.7534 6.18108C46.3599 6.42327 43.6353 9.16448 43.4629 12.6152L43.4307 13.2631H41.479L40.4272 20.2543L37.8809 19.4662L38.2227 12.6156C38.4033 8.99065 41.4014 6.14983 45.0293 6.1635L49.7534 6.18108Z" fill="#2A2F4F"/>
<path d="M45.564 58.5928V60.9922C41.4458 62.9214 36.8496 64 32 64C27.1504 64 22.5527 62.9214 18.4346 60.9907V58.5928C18.4346 53.8579 21.6489 49.8755 26.0151 48.708C26.1748 48.665 26.3354 48.6255 26.4985 48.5903C26.9321 48.4961 27.3774 48.4312 27.8296 48.3945C28.1064 48.3721 28.3848 48.3604 28.667 48.3604H35.3306C36.0762 48.3604 36.8013 48.439 37.5015 48.5903C37.542 48.5981 37.5825 48.6074 37.6216 48.6167C37.7393 48.644 37.8564 48.6729 37.9727 48.7041C37.9771 48.7051 37.978 48.7051 37.9819 48.7065C39.1343 49.0146 40.2065 49.519 41.1587 50.1812C43.8218 52.0283 45.564 55.1064 45.564 58.5928Z" fill="#3D4159"/>
<path d="M38.0068 48.5903L37.9819 48.7065L34.7183 63.8853C34.5493 63.8994 34.3799 63.9126 34.21 63.9243C33.9707 63.9399 33.7305 63.9541 33.4888 63.9648C32.9951 63.9883 32.499 64 32 64C31.4878 64 30.98 63.9883 30.4746 63.9634C30.2461 63.9531 30.0171 63.9399 29.7886 63.9229C29.6177 63.9111 29.4478 63.8994 29.2778 63.8853L26.0151 48.708L25.9907 48.5903H38.0068Z" fill="#66BAED"/>
<path d="M34.7461 52.0527L31.999 56.458L29.2524 52.0527" fill="#3D4159"/>
<path d="M34.21 63.9243C33.9707 63.9399 33.7305 63.9541 33.4888 63.9648C32.9951 63.9883 32.499 64 32 64C31.4878 64 30.98 63.9883 30.4746 63.9634C30.2461 63.9531 30.0171 63.9399 29.7886 63.9229L32 55.3115L34.21 63.9243Z" fill="#3D4159"/>
<path d="M31.9985 52.5493L27.3916 55.1094L25.9902 48.5913L28.8525 46.9053" fill="#2BA1CF"/>
<path d="M31.9985 52.5493L36.605 55.1094L38.0063 48.5913L35.144 46.9053" fill="#2BA1CF"/>
<path d="M38.1807 57.3872H39.6421L37.0898 63.5962C35.9092 63.7856 34.7075 63.9097 33.4888 63.9648L37.9727 48.7041L38.0068 48.5903L41.1587 49.6196L38.1807 57.3872Z" fill="#2A2F4F"/>
<path d="M30.4746 63.9634C29.2544 63.9072 28.0518 63.7808 26.8711 63.5898L24.3213 57.3872H25.7827L22.8037 49.6196L25.9565 48.5903L25.9907 48.7041L30.4746 63.9634Z" fill="#2A2F4F"/>
<path d="M35.6499 44.4189V48.8989C35.6499 50.5396 34.5684 51.9258 33.0786 52.3862C32.7373 52.4922 32.374 52.5493 31.998 52.5493C29.9819 52.5493 28.3481 50.915 28.3481 48.8989V44.4189H35.6499Z" fill="#EAB599"/>
<path d="M35.6499 48.6152V48.8994C35.6499 50.5396 34.5684 51.9258 33.0786 52.3867C31.7344 51.9731 30.7236 50.8047 30.5371 49.3745C30.7812 49.3896 31.0264 49.397 31.2725 49.397C31.9634 49.397 32.6406 49.3423 33.2998 49.2344C34.1128 49.1035 34.8979 48.894 35.6499 48.6152Z" fill="#F6CAAE"/>
<path d="M21.9844 37.0762C21.9844 38.7661 20.7495 40.1675 19.1328 40.4277C18.9561 40.4561 18.7744 40.4712 18.5894 40.4712C16.7139 40.4712 15.1938 38.9517 15.1938 37.0762C15.1938 35.2007 16.7134 33.6807 18.5894 33.6807C18.7744 33.6807 18.9561 33.6958 19.1328 33.7246C20.7495 33.9849 21.9844 35.3862 21.9844 37.0762Z" fill="#F6CAAE"/>
<path d="M21.9844 37.0762C21.9844 38.7661 20.7495 40.1675 19.1328 40.4277C18.8394 39.3599 18.6826 38.2358 18.6826 37.0762C18.6826 35.916 18.8394 34.7925 19.1328 33.7246C20.7495 33.9849 21.9844 35.3862 21.9844 37.0762Z" fill="#EAB599"/>
<path d="M19.8027 37.0762C19.8027 37.7461 19.2593 38.2896 18.5894 38.2896C17.9189 38.2896 17.376 37.7461 17.376 37.0762C17.376 36.4058 17.9189 35.8628 18.5894 35.8628C19.2593 35.8628 19.8027 36.4058 19.8027 37.0762Z" fill="#EAB599"/>
<path d="M42.0132 37.0762C42.0132 38.7661 43.248 40.1675 44.8647 40.4277C45.041 40.4561 45.2231 40.4712 45.4082 40.4712C47.2837 40.4712 48.8037 38.9517 48.8037 37.0762C48.8037 35.2007 47.2842 33.6807 45.4082 33.6807C45.2231 33.6807 45.041 33.6958 44.8647 33.7246C43.248 33.9849 42.0132 35.3862 42.0132 37.0762Z" fill="#F6CAAE"/>
<path d="M42.0132 37.0762C42.0132 38.7661 43.248 40.1675 44.8647 40.4277C45.1582 39.3599 45.3149 38.2358 45.3149 37.0762C45.3149 35.916 45.1582 34.7925 44.8647 33.7246C43.248 33.9849 42.0132 35.3862 42.0132 37.0762Z" fill="#EAB599"/>
<path d="M44.6309 30.4619V35.272C44.6309 41.5581 40.0386 46.7725 34.0259 47.7402C34.0059 47.7437 33.9844 47.7471 33.9644 47.7505C33.3247 47.853 32.6685 47.9033 31.9985 47.9033C25.0225 47.9033 19.3677 42.248 19.3677 35.2725V30.4619C19.3677 28.9932 19.6182 27.5815 20.0811 26.27C21.8086 21.354 26.4927 17.8296 31.9985 17.8296H31.9995C32.6685 17.8296 33.3257 17.8813 33.9663 17.9824C40.0083 18.9263 44.6309 24.1548 44.6309 30.4619Z" fill="#EAB599"/>
<path d="M46.6216 37.0762C46.6216 37.7461 46.0786 38.2896 45.4082 38.2896C44.7383 38.2896 44.1948 37.7461 44.1948 37.0762C44.1948 36.4058 44.7383 35.8628 45.4082 35.8628C46.0786 35.8628 46.6216 36.4058 46.6216 37.0762Z" fill="#EAB599"/>
<path d="M44.6304 30.4619V35.272C44.6304 41.5576 40.0386 46.7725 34.0259 47.7402C34.0054 47.7437 33.9844 47.7471 33.9639 47.7505C27.9224 46.8062 23.3008 41.5781 23.3008 35.272V30.4619C23.3008 24.1548 27.9233 18.9263 33.9663 17.9824C40.0083 18.9263 44.6304 24.1548 44.6304 30.4619Z" fill="#F6CAAE"/>
<path d="M29.3086 34.5361C29.3086 35.3276 28.667 35.9692 27.876 35.9692C27.0845 35.9692 26.4429 35.3276 26.4429 34.5361C26.4429 33.7451 27.0845 33.1035 27.876 33.1035C28.667 33.1035 29.3086 33.7451 29.3086 34.5361Z" fill="#3D4159"/>
<path d="M37.5552 34.5361C37.5552 35.3276 36.9136 35.9692 36.1221 35.9692C35.3306 35.9692 34.689 35.3276 34.689 34.5361C34.689 33.7451 35.3306 33.1035 36.1221 33.1035C36.9136 33.1035 37.5552 33.7451 37.5552 34.5361Z" fill="#3D4159"/>
<path d="M29.0166 34.2837C29.0166 34.6226 28.7417 34.8975 28.4023 34.8975C28.0635 34.8975 27.7886 34.6226 27.7886 34.2837C27.7886 33.9443 28.0635 33.6694 28.4023 33.6694C28.7417 33.6694 29.0166 33.9443 29.0166 34.2837Z" fill="white"/>
<path d="M37.333 34.2837C37.333 34.6226 37.0581 34.8975 36.7192 34.8975C36.3799 34.8975 36.105 34.6226 36.105 34.2837C36.105 33.9443 36.3799 33.6694 36.7192 33.6694C37.0581 33.6694 37.333 33.9443 37.333 34.2837Z" fill="white"/>
<path d="M33.4321 37.5825H30.5659C30.2246 37.5825 29.9478 37.3057 29.9478 36.9644C29.9478 36.6226 30.2246 36.3462 30.5659 36.3462H33.4321C33.7734 36.3462 34.0503 36.6226 34.0503 36.9644C34.0498 37.3057 33.7729 37.5825 33.4321 37.5825Z" fill="#EAB599"/>
<path d="M31.999 41.4931C30.9414 41.4931 29.8833 41.228 28.9194 40.6977C28.6474 40.5483 28.5478 40.2065 28.6977 39.935C28.8472 39.6631 29.189 39.5639 29.4609 39.7129C31.0503 40.5869 32.9477 40.5869 34.5371 39.7129C34.8091 39.5635 35.1509 39.6626 35.3003 39.935C35.4502 40.2065 35.3506 40.5483 35.0786 40.6977C34.1143 41.228 33.0566 41.4931 31.999 41.4931Z" fill="#EAB599"/>
<path d="M44.6309 26.0967V31.0239H42.2798V27.165L25.3091 24.0117L21.7183 23.3442V31.0239H19.3672V26.0962C19.3672 20.479 23.9199 15.9263 29.5361 15.9263H34.4619C34.5957 15.9263 34.7295 15.9287 34.8633 15.9355C40.2925 16.1445 44.6309 20.6133 44.6309 26.0967Z" fill="#2A2F4F"/>
<path d="M44.6309 26.0967V31.0239H42.2798V27.165L25.3091 24.0117C26.2441 19.5205 30.1406 16.1177 34.8633 15.9355C40.2925 16.1445 44.6309 20.6133 44.6309 26.0967Z" fill="#3D4159"/>
</g>
<defs>
<clipPath id="clip0">
<rect width="64" height="64" fill="white"/>
</clipPath>
</defs>
</svg>
