<svg width="64" height="64" viewBox="0 0 64 64" fill="none" xmlns="http://www.w3.org/2000/svg">
<g clip-path="url(#clip0)">
<path d="M26.6523 60.5959C26.6523 62.4158 28.1273 63.8913 29.9477 63.8913H34.3416C36.1615 63.8913 37.637 62.4158 37.637 60.5959V54.0051H26.6523V60.5959Z" fill="#EBEBEB"/>
<path d="M21.4759 42.0941C20.5153 41.4752 19.6094 40.7736 18.7694 39.9986C18.0523 42.756 15.3421 44.5045 12.5342 44.0218C9.72583 43.5391 7.75524 40.9865 7.99929 38.1476C8.24333 35.3086 10.621 33.1299 13.4707 33.1342C13.6386 33.1342 13.8 33.1691 13.9604 33.1836C12.9193 30.7361 12.3824 28.1042 12.383 25.4449H10.9847L10.2257 29.0552C10.1501 29.4151 9.89962 29.7133 9.55849 29.8495C9.21683 29.9863 8.83011 29.9429 8.5276 29.7342L5.49234 27.6419L2.19693 30.9373L4.28392 33.972C4.49256 34.2751 4.53601 34.6618 4.39923 35.0029C4.263 35.3446 3.96478 35.595 3.60542 35.6701L0 36.4296V40.8235L3.60971 41.5824C3.96907 41.6581 4.26729 41.9085 4.40406 42.2497C4.5403 42.5908 4.49685 42.9781 4.28821 43.2806L2.19693 46.3158L5.49234 49.6112L8.5276 47.5237C8.83011 47.3151 9.21736 47.2711 9.55903 47.4079C9.90069 47.5441 10.1512 47.8428 10.2268 48.2027L10.9847 51.8082H15.3785L16.1364 48.1974C16.212 47.8369 16.4625 47.5387 16.8042 47.4025C17.1459 47.2657 17.5331 47.3092 17.8356 47.5184L20.8709 49.6112L24.3191 46.163C23.9576 44.4793 22.9327 43.0124 21.4759 42.0941Z" fill="#C9DFFF"/>
<path d="M51.917 25.445C51.916 15.9648 45.1863 7.81913 35.8766 6.02983C26.567 4.24053 17.2971 9.31021 13.7818 18.1146C10.2665 26.9189 13.4943 36.9795 21.4759 42.0942C23.3049 43.2281 24.4285 45.2174 24.4554 47.3693V51.8082C24.4554 53.6281 25.9304 55.1036 27.7508 55.1036H36.5385C38.3584 55.1036 39.8339 53.6281 39.8339 51.8082V47.4605C39.8618 45.2577 41.008 43.2206 42.8767 42.0534C48.516 38.4126 51.9208 32.1576 51.917 25.445Z" fill="#CE6CF0"/>
<path d="M58.7198 13.8242L62.1734 11.2341L58.2188 5.96112L54.7652 8.55121C54.0545 9.08381 53.0928 9.13584 52.3285 8.68315C51.5642 8.23046 51.1479 7.36209 51.2729 6.483L51.8828 2.21088L45.3579 1.27869L44.7481 5.55027C44.6231 6.43043 43.98 7.14809 43.1192 7.36853C42.2583 7.58951 41.3492 7.26984 40.816 6.55862L38.2265 3.105L32.954 7.05959L35.543 10.5132C36.0757 11.2244 36.1277 12.1856 35.675 12.9499C35.2223 13.7142 34.3539 14.1304 33.4748 14.0055L29.2027 13.3956L28.27 19.9205L32.5432 20.5303C33.4228 20.6558 34.1405 21.2989 34.3609 22.1598C34.5814 23.0206 34.2617 23.9297 33.5505 24.4629L30.0979 27.053L34.0525 32.3254L37.5051 29.7364C38.2157 29.2032 39.178 29.1507 39.9428 29.6034C40.7071 30.0561 41.1239 30.925 40.9984 31.8046L40.3832 36.0756L46.908 37.0084L47.5232 32.7352C47.6487 31.8556 48.2918 31.1384 49.1527 30.918C50.0135 30.697 50.9227 31.0172 51.4553 31.7279L54.0459 35.1805L59.3183 31.2259L56.7272 27.7733C56.194 27.0626 56.1415 26.1004 56.5942 25.3356C57.0469 24.5712 57.9158 24.1545 58.7954 24.2805L63.0675 24.8909L64.0002 18.3661L59.7281 17.7557C58.849 17.6297 58.1319 16.9871 57.9109 16.1262C57.6905 15.2659 58.0096 14.3573 58.7198 13.8242ZM46.1357 26.832C41.8887 26.832 38.4464 23.3896 38.4464 19.1427C38.4464 14.8964 41.8887 11.4535 46.1357 11.4535C50.3826 11.4535 53.8249 14.8964 53.8249 19.1427C53.8249 23.3896 50.3826 26.832 46.1357 26.832Z" fill="#1CC8EB"/>
<path d="M26.6523 57.3005H37.637V59.4975H26.6523V57.3005Z" fill="#9E9E9E"/>
<path d="M31.0462 48.5128H33.2431V51.8082H31.0462V48.5128Z" fill="#FFAA00"/>
<path d="M33.2431 46.3159H31.0462C31.0451 43.4115 29.2542 40.808 26.5424 39.7685C21.1364 37.6547 17.3808 32.6773 16.8326 26.8986C16.2845 21.1198 19.0365 15.525 23.9485 12.4324L25.114 14.2909C20.9025 16.941 18.542 21.7372 19.0119 26.6915C19.4812 31.6454 22.7004 35.9126 27.3351 37.7245C30.8955 39.0863 33.2458 42.504 33.2431 46.3159Z" fill="#FFAA00"/>
<path d="M54.114 40.8235H59.6063C60.2129 40.8235 60.7048 41.3148 60.7048 41.922C60.7048 42.5286 60.2129 43.0204 59.6063 43.0204H54.114C53.5073 43.0204 53.0155 42.5286 53.0155 41.922C53.0155 41.3148 53.5073 40.8235 54.114 40.8235Z" fill="#FFAA00"/>
<path d="M51.9171 47.4148C52.3054 46.9487 52.9978 46.8854 53.4639 47.2737L58.3673 51.3592C58.8334 51.7475 58.8967 52.44 58.5084 52.9061C58.1195 53.3722 57.4271 53.4354 56.961 53.0471L52.0576 48.9617C51.5915 48.5733 51.5287 47.8809 51.9171 47.4148Z" fill="#FFAA00"/>
<path d="M47.5232 49.6113C48.1298 49.6113 48.6216 50.1026 48.6216 50.7098V56.2021C48.6216 56.8088 48.1298 57.3006 47.5232 57.3006C46.9166 57.3006 46.4247 56.8088 46.4247 56.2021V50.7098C46.4247 50.1026 46.9166 49.6113 47.5232 49.6113Z" fill="#FFAA00"/>
<path d="M1.08881 18.6192L7.74505 16.9565C8.33397 16.8095 8.92987 17.1672 9.07683 17.7556C9.2238 18.344 8.86604 18.9399 8.27712 19.0869L1.62088 20.7496C1.03196 20.8966 0.436059 20.5388 0.289096 19.9504C0.142133 19.362 0.499886 18.7661 1.08881 18.6192Z" fill="#FFAA00"/>
<path d="M2.48547 6.77153C2.83786 6.27808 3.52387 6.16437 4.01732 6.51676L9.91837 10.732C10.4124 11.0844 10.5266 11.7704 10.1742 12.2639C9.82182 12.7573 9.13581 12.8716 8.64236 12.5186L2.74132 8.30338C2.24733 7.95099 2.13308 7.26498 2.48547 6.77153Z" fill="#FFAA00"/>
<path d="M12.3234 0.179121C12.9113 0.0289398 13.5093 0.383474 13.6595 0.971326L15.3619 7.63025C15.5121 8.2181 15.1576 8.81668 14.5697 8.96686C13.9819 9.11704 13.3838 8.76197 13.2336 8.17465L11.5312 1.51573C11.3811 0.927881 11.7356 0.329302 12.3234 0.179121Z" fill="#FFAA00"/>
</g>
<defs>
<clipPath id="clip0">
<rect width="64" height="63.9857" fill="white"/>
</clipPath>
</defs>
</svg>
