<svg width="128" height="128" viewBox="0 0 128 128" fill="none" xmlns="http://www.w3.org/2000/svg">
<path d="M51.2 2.13333C51.2 9.20208 56.9313 14.9333 64 14.9333C64 7.86458 58.2688 2.13333 51.2 2.13333Z" fill="#FFB41F"/>
<path d="M76.8 2.13333C69.7313 2.13333 64 7.86458 64 14.9333C71.0688 14.9333 76.8 9.20208 76.8 2.13333Z" fill="#FFB41F"/>
<path d="M91.7333 14.9333H36.2667V59.7333H91.7333V14.9333Z" fill="#A3771D"/>
<path d="M64 53.3333L55.4667 29.8667H44.8L64 55.4667L83.2 29.8667H72.5333L64 53.3333Z" fill="#1CC8EB"/>
<path d="M64 21.3333L72.5333 29.8667H83.2L76.8 21.3333H64Z" fill="#1CC8EB"/>
<path d="M64 21.3333H51.2L44.8 29.8667H55.4667L64 21.3333Z" fill="#1CC8EB"/>
<path d="M64 29.8667H72.5333L64 21.3333L55.4667 29.8667H64Z" fill="#1CC8EB"/>
<path d="M55.4667 29.8667L64 53.3333L72.5333 29.8667H55.4667Z" fill="#1CC8EB"/>
<path d="M84.9063 28.5865L78.5063 20.0531C78.1042 19.5167 77.4719 19.2 76.8 19.2H51.2C50.5281 19.2 49.8958 19.5167 49.4938 20.0531L43.0938 28.5865C42.524 29.3448 42.524 30.3886 43.0938 31.1469L62.2938 56.7469C62.6958 57.2833 63.3281 57.6 64 57.6C64.6719 57.6 65.3042 57.2833 65.7063 56.7469L84.9063 31.1469C85.476 30.3886 85.476 29.3448 84.9063 28.5865ZM78.9333 27.7333H73.4167L69.15 23.4667H75.7333L78.9333 27.7333ZM53.9729 32L61.2552 39.5458L49.0667 32H53.9729ZM69.4896 32L64 47.0917L58.5104 32H69.4896ZM60.6167 27.7333L64 24.35L67.3833 27.7333H60.6167ZM74.0271 32H78.9333L69.4083 44.7L74.0271 32ZM52.2667 23.4667H58.85L54.5833 27.7333H49.0667L52.2667 23.4667Z" fill="#B9EFFA"/>
<path d="M118.459 68.2667H118.016C116.202 68.2667 114.451 68.9323 113.095 70.1375L96 85.3333H72.5334L85.2886 81.8542C87.5438 81.2312 89.2844 79.4354 89.8354 77.1615C90.3865 74.8875 89.6615 72.4937 87.9417 70.9073C86.2219 69.3208 83.7771 68.7917 81.5552 69.525L59.7333 76.8H27.7333L17.0667 87.4667L42.6667 113.067L57.6 102.4H100.267L123.465 81.1354C124.995 79.7312 125.867 77.75 125.867 75.674C125.866 71.5833 122.55 68.2677 118.459 68.2667Z" fill="#F7E5BE"/>
<path d="M36.2667 59.7333H2.13333V68.2667H125.867V59.7333H36.2667Z" fill="#8C8C8C"/>
<path d="M100.267 8.53333H104.533V12.8H100.267V8.53333Z" fill="#FFB41F"/>
<path d="M104.533 4.26666H108.8V8.53333H104.533V4.26666Z" fill="#FFB41F"/>
<path d="M108.8 8.53333H113.067V12.8H108.8V8.53333Z" fill="#FFB41F"/>
<path d="M104.533 12.8H108.8V17.0667H104.533V12.8Z" fill="#FFB41F"/>
<path d="M123.733 2.13333H128V6.4H123.733V2.13333Z" fill="#FFB41F"/>
<path d="M106.667 25.6H110.933V29.8667H106.667V25.6Z" fill="#FFB41F"/>
<path d="M19.2 23.4667H23.4667V27.7333H19.2V23.4667Z" fill="#FFB41F"/>
<path d="M19.2 32H23.4667V36.2667H19.2V32Z" fill="#FFB41F"/>
<path d="M23.4667 27.7333H27.7333V32H23.4667V27.7333Z" fill="#FFB41F"/>
<path d="M14.9333 27.7333H19.2V32H14.9333V27.7333Z" fill="#FFB41F"/>
<path d="M0 12.8H4.26667V17.0667H0V12.8Z" fill="#FFB41F"/>
<path d="M19.2 2.13333H23.4667V6.4H19.2V2.13333Z" fill="#FFB41F"/>
<path d="M42.6667 113.067L12.8 83.2L2.13333 93.8667L34.1333 125.867L44.8 115.2L42.6667 113.067Z" fill="#1CC8EB"/>
<path d="M10.6667 91.7344C11.5 90.901 12.851 90.901 13.6844 91.7344L17.0677 95.1177C17.901 95.951 17.901 97.301 17.0677 98.1344C16.2344 98.9677 14.8833 98.9677 14.05 98.1344L10.6667 94.751C9.83332 93.9177 9.83332 92.5667 10.6667 91.7344Z" fill="#74D5E8"/>
</svg>
