<svg width="128" height="128" viewBox="0 0 128 128" fill="none" xmlns="http://www.w3.org/2000/svg">
<g clip-path="url(#clip0)">
<path d="M0 0H127.422V79.0896H0V0Z" fill="#EBEBEB"/>
<path d="M46.1356 46.1356H59.3172V79.0896H46.1356V46.1356Z" fill="#1CC8EB"/>
<path d="M68.105 28.5602H81.2866V79.0896H68.105V28.5602Z" fill="#1CC8EB"/>
<path d="M90.0743 17.5755H103.256V79.0896H90.0743V17.5755Z" fill="#1CC8EB"/>
<path d="M8.57856 110.367L4.39387 116.438L10.9847 123.028L17.0552 118.854C17.6602 118.437 18.4337 118.35 19.117 118.624C19.7992 118.896 20.3002 119.493 20.4514 120.211L21.9693 127.422H30.7571L32.275 120.201C32.4262 119.482 32.9272 118.885 33.6095 118.612C34.2928 118.339 35.0662 118.426 35.6712 118.844L41.7418 123.028L48.3326 116.438L44.1586 110.367C43.7413 109.762 43.6544 108.989 43.928 108.305C44.2004 107.623 44.7969 107.122 45.5156 106.971L52.7264 105.453V96.6651L45.5049 95.1472C44.7861 94.996 44.1897 94.495 43.9162 93.8127C43.6437 93.1294 43.7306 92.356 44.1479 91.751L48.3326 85.6804L41.7418 79.0896L35.6712 83.2743C35.0662 83.6916 34.2928 83.7785 33.6095 83.506C32.9272 83.2325 32.4262 82.6361 32.275 81.9173L30.7571 74.6958H21.9693L20.4514 81.9173C20.3002 82.6361 19.7992 83.2325 19.117 83.506C18.4337 83.7785 17.6602 83.6916 17.0552 83.2743L10.9847 79.0896L4.39387 85.6804L8.57856 91.751C8.99585 92.356 9.08274 93.1294 8.81026 93.8127C8.53672 94.495 7.94029 94.996 7.22156 95.1472L0 96.6651V105.453L7.22156 106.971C7.94029 107.122 8.53672 107.623 8.81026 108.305C9.08274 108.989 8.99585 109.762 8.57856 110.367ZM26.3632 90.0743C32.4295 90.0743 37.3479 94.9927 37.3479 101.059C37.3479 107.125 32.4295 112.044 26.3632 112.044C20.297 112.044 15.3785 107.125 15.3785 101.059C15.3785 94.9927 20.297 90.0743 26.3632 90.0743Z" fill="#F0BE59"/>
<path d="M117.593 102.546L126.137 103.768L128 90.718L119.456 89.4961C117.697 89.2451 116.262 87.9589 115.821 86.2372C115.38 84.5155 116.019 82.6972 117.442 81.632L124.347 76.4529L116.438 65.9081L109.532 71.0861C108.111 72.1524 106.187 72.2575 104.657 71.3521C103.128 70.4467 102.295 68.7089 102.546 66.9497L103.768 58.4054L103.256 58.3325L90.718 56.5421L89.4961 65.0863C89.2451 66.8456 87.9589 68.2809 86.2372 68.7218C84.5155 69.1627 82.6972 68.5234 81.632 67.1009L76.4529 60.1958L68.105 66.4573L65.908 68.105L71.0861 75.0101C72.1524 76.4315 72.2575 78.3559 71.3521 79.8856C70.4467 81.4143 68.7089 82.2478 66.9497 81.9967L58.4054 80.7749L56.5421 93.8246L65.0863 95.0464C66.8456 95.2974 68.2809 96.5836 68.7218 98.3053C69.1627 100.027 68.5233 101.845 67.1009 102.911L60.1958 108.09L68.105 118.635L75.0101 113.456C76.4314 112.39 78.3559 112.285 79.8856 113.19C81.4142 114.096 82.2477 115.834 81.9967 117.593L80.7749 126.137L93.8246 128L95.0464 119.456C95.2974 117.697 96.5836 116.262 98.3053 115.821C100.027 115.38 101.845 116.019 102.911 117.442L108.09 124.347L118.634 116.438L113.456 109.532C112.39 108.111 112.285 106.187 113.19 104.657C114.096 103.128 115.834 102.295 117.593 102.546ZM92.2713 107.65C83.7774 107.65 76.8927 100.765 76.8927 92.2713C76.8927 83.7775 83.7774 76.8927 92.2713 76.8927C100.765 76.8927 107.65 83.7775 107.65 92.2713C107.65 100.765 100.765 107.65 92.2713 107.65Z" fill="#FFB41F"/>
<path d="M31.6796 79.0897H37.3479V54.9234H24.1663V74.6958H30.7571L31.6796 79.0897Z" fill="#1CC8EB"/>
<path d="M86.1203 6.6348L75.1356 4.43787L74.256 8.74377L79.582 9.81113L20.858 44.2401L23.0807 48.0311L82.5653 13.1623L81.3306 19.3326L85.6365 20.194L87.8334 9.20933C88.0651 8.02612 87.3003 6.87724 86.1203 6.6348Z" fill="#74D5E8"/>
<path d="M6.59081 57.1203H10.9847V72.4988H6.59081V57.1203Z" fill="#8C8C8C"/>
<path d="M6.59081 48.3326H10.9847V52.7264H6.59081V48.3326Z" fill="#8C8C8C"/>
<path d="M116.438 26.3632H120.831V59.3172H116.438V26.3632Z" fill="#8C8C8C"/>
<path d="M116.438 17.5755H120.831V21.9693H116.438V17.5755Z" fill="#8C8C8C"/>
<path d="M48.3326 123.028H52.7264V127.422H48.3326V123.028Z" fill="#F0BE59"/>
<path d="M57.1203 123.028H61.5142V127.422H57.1203V123.028Z" fill="#FFB41F"/>
<path d="M65.908 123.028H70.3019V127.422H65.908V123.028Z" fill="#FFB41F"/>
</g>
<defs>
<clipPath id="clip0">
<rect width="128" height="128" fill="white"/>
</clipPath>
</defs>
</svg>
