<svg width="128" height="128" viewBox="0 0 128 128" fill="none" xmlns="http://www.w3.org/2000/svg">
<path d="M6.40002 10.6667H121.6V91.7333H6.40002V10.6667Z" fill="#B8B8B8"/>
<path d="M14.9333 19.2H113.067V61.8667H14.9333V19.2Z" fill="#D9D9D9"/>
<path d="M0 0H128V10.6667H0V0Z" fill="#8C8C8C"/>
<path d="M0 91.7333V100.267H59.7333V128H68.2667V100.267H128V91.7333H0Z" fill="#8C8C8C"/>
<path d="M59.7333 100.267H68.2667V102.4H59.7333V100.267Z" fill="#787878"/>
<path d="M108.8 81.0667V79.951C116.684 77.1719 121.863 69.6083 121.6 61.2521C121.585 60.7406 121.624 60.2365 121.566 59.7333H96C91.7042 59.7333 87.5677 58.1073 84.4229 55.1812C82.6115 59.9979 82.8188 65.3406 84.9979 70.0021C87.1771 74.6646 91.1427 78.251 96 79.951V81.0667C96 85.7792 92.1792 89.6 87.4667 89.6L100.267 91.7333H104.533L117.333 89.6C112.621 89.6 108.8 85.7792 108.8 81.0667Z" fill="#FFF5E0"/>
<path d="M96 119.467L102.4 125.867L108.8 119.467L104.533 91.7333H100.267L96 119.467Z" fill="#1CC8EB"/>
<path d="M121.555 59.7333C121.566 55.2114 119.777 50.8719 116.583 47.6698C113.391 44.4687 109.055 42.6687 104.533 42.6667H78.9334C78.9323 47.4219 80.9229 51.9604 84.4229 55.1812C87.5677 58.1073 91.7042 59.7333 96 59.7333H121.555Z" fill="#A3771D"/>
<path d="M117.333 89.6L104.533 91.7333L108.8 119.467L102.4 125.867L96 119.467L100.267 91.7333L87.4667 89.6C82.7542 89.6 78.9333 93.4208 78.9333 98.1333V128H125.867V98.1333C125.867 93.4208 122.046 89.6 117.333 89.6Z" fill="#74D5E8"/>
<path d="M84.7531 26.0073L62.3364 42.3104L50.6969 36.4906C49.875 36.0792 48.8812 36.2417 48.2323 36.8917L36.3646 48.7594L18.4167 42.775L17.0667 46.825L36.2667 53.225C36.4844 53.2958 36.7114 53.3333 36.9406 53.3333C37.5062 53.3333 38.0489 53.1083 38.4489 52.7083L50.1635 40.9958L61.5875 46.7198C62.3 47.0771 63.1531 47.0063 63.7969 46.5365L86.7031 29.8667H94.5406V25.6H86.0073C85.5573 25.6 85.1177 25.7427 84.7531 26.0073Z" fill="#1CC8EB"/>
<path d="M71.9083 77.425L61.2416 66.7583C60.4083 65.926 59.0583 65.926 58.225 66.7583L47.5583 77.425C46.9489 78.0354 46.7656 78.9531 47.0958 79.75C47.426 80.5469 48.2041 81.0667 49.0666 81.0667H53.3333V85.3333C53.3333 86.5114 54.2885 87.4667 55.4666 87.4667H64C65.1781 87.4667 66.1333 86.5114 66.1333 85.3333V81.0667H70.4C71.2625 81.0667 72.0406 80.5469 72.3708 79.75C72.701 78.9531 72.5177 78.0354 71.9083 77.425Z" fill="#EBE023"/>
<path d="M44.6375 73.85C44.3073 73.0531 43.5291 72.5333 42.6666 72.5333H38.4V68.2667C38.4 67.0885 37.4448 66.1333 36.2666 66.1333H27.7333C26.5552 66.1333 25.6 67.0885 25.6 68.2667V72.5333H21.3333C20.4708 72.5333 19.6927 73.0531 19.3625 73.85C19.0323 74.6469 19.2156 75.5646 19.825 76.175L30.4916 86.8417C31.325 87.674 32.675 87.674 33.5083 86.8417L44.175 76.175C44.7854 75.5646 44.9677 74.6469 44.6375 73.85Z" fill="#FFB41F"/>
<path d="M44.8 34.1333H49.0667V32H51.2V27.7333H49.0667V25.6H44.8V27.7333H42.6667V32H44.8V34.1333Z" fill="#1CC8EB"/>
<path d="M110.933 102.4H115.2C116.378 102.4 117.333 103.355 117.333 104.533C117.333 105.711 116.378 106.667 115.2 106.667H110.933C109.755 106.667 108.8 105.711 108.8 104.533C108.8 103.355 109.755 102.4 110.933 102.4Z" fill="#D9D9D9"/>
<path d="M104.533 23.4667H100.267V25.6H98.1333V29.8667H100.267V32H104.533V29.8667H106.667V25.6H104.533V23.4667Z" fill="#1CC8EB"/>
</svg>
