<svg width="32" height="32" viewBox="0 0 32 32" fill="none" xmlns="http://www.w3.org/2000/svg">
<path d="M30.3108 7.67554L28.268 28.1886H3.73199L2.08618 8.07254L16 15.8627L30.3108 7.67554Z" fill="#F2F2F2"/>
<path d="M29.6179 3.81152L16 16.6038L2.38214 3.81152H16H29.6179Z" fill="#F2F2F2"/>
<path d="M3.732 9.71842V28.1887H1.50869C0.67575 28.1887 0 27.513 0 26.68V6.99805L2.4375 7.06448L3.732 9.71842Z" fill="#F14336"/>
<path d="M32 6.99798V26.68C32 27.5129 31.3243 28.1887 30.4905 28.1887H28.268V9.71836L29.4988 6.81055L32 6.99798Z" fill="#D32E2A"/>
<path d="M32 5.32021V6.99802L28.268 9.7184L16 18.6601L3.732 9.7184L0 6.99802V5.32021C0 4.48727 0.67575 3.81152 1.50869 3.81152H2.38212L16 13.7371L29.6179 3.81152H30.4905C31.3242 3.81152 32 4.48721 32 5.32021Z" fill="#F14336"/>
<path d="M3.732 9.71842L0 9.1398V6.99805L3.732 9.71842Z" fill="#D32E2A"/>
</svg>
