<svg width="214" height="53" viewBox="0 0 214 53" fill="none" xmlns="http://www.w3.org/2000/svg">
<path d="M81.372 16.07H75.108V13.1H91.146V16.07H84.882V32H81.372V16.07ZM106.686 22.334H110.007V29.867C109.035 30.641 107.901 31.235 106.605 31.649C105.309 32.063 103.977 32.27 102.609 32.27C100.683 32.27 98.9462 31.856 97.3982 31.028C95.8502 30.182 94.6352 29.021 93.7532 27.545C92.8712 26.069 92.4302 24.404 92.4302 22.55C92.4302 20.696 92.8712 19.031 93.7532 17.555C94.6352 16.079 95.8502 14.927 97.3982 14.099C98.9642 13.253 100.719 12.83 102.663 12.83C104.247 12.83 105.687 13.091 106.983 13.613C108.279 14.135 109.368 14.9 110.25 15.908L108.036 18.068C106.596 16.628 104.859 15.908 102.825 15.908C101.493 15.908 100.305 16.187 99.2612 16.745C98.2352 17.303 97.4252 18.086 96.8312 19.094C96.2552 20.102 95.9672 21.254 95.9672 22.55C95.9672 23.81 96.2552 24.944 96.8312 25.952C97.4252 26.96 98.2352 27.752 99.2612 28.328C100.305 28.904 101.484 29.192 102.798 29.192C104.274 29.192 105.57 28.868 106.686 28.22V22.334ZM130.28 13.1C131.918 13.1 133.34 13.37 134.546 13.91C135.77 14.45 136.706 15.224 137.354 16.232C138.002 17.24 138.326 18.437 138.326 19.823C138.326 21.191 138.002 22.388 137.354 23.414C136.706 24.422 135.77 25.196 134.546 25.736C133.34 26.276 131.918 26.546 130.28 26.546H126.014V32H122.504V13.1H130.28ZM130.118 23.576C131.648 23.576 132.809 23.252 133.601 22.604C134.393 21.956 134.789 21.029 134.789 19.823C134.789 18.617 134.393 17.69 133.601 17.042C132.809 16.394 131.648 16.07 130.118 16.07H126.014V23.576H130.118ZM144.588 19.688C145.56 18.176 147.27 17.42 149.718 17.42V20.633C149.43 20.579 149.169 20.552 148.935 20.552C147.621 20.552 146.595 20.939 145.857 21.713C145.119 22.469 144.75 23.567 144.75 25.007V32H141.375V17.582H144.588V19.688ZM158.929 32.189C157.471 32.189 156.157 31.874 154.987 31.244C153.817 30.614 152.899 29.741 152.233 28.625C151.585 27.491 151.261 26.213 151.261 24.791C151.261 23.369 151.585 22.1 152.233 20.984C152.899 19.868 153.817 18.995 154.987 18.365C156.157 17.735 157.471 17.42 158.929 17.42C160.405 17.42 161.728 17.735 162.898 18.365C164.068 18.995 164.977 19.868 165.625 20.984C166.291 22.1 166.624 23.369 166.624 24.791C166.624 26.213 166.291 27.491 165.625 28.625C164.977 29.741 164.068 30.614 162.898 31.244C161.728 31.874 160.405 32.189 158.929 32.189ZM158.929 29.3C160.171 29.3 161.197 28.886 162.007 28.058C162.817 27.23 163.222 26.141 163.222 24.791C163.222 23.441 162.817 22.352 162.007 21.524C161.197 20.696 160.171 20.282 158.929 20.282C157.687 20.282 156.661 20.696 155.851 21.524C155.059 22.352 154.663 23.441 154.663 24.791C154.663 26.141 155.059 27.23 155.851 28.058C156.661 28.886 157.687 29.3 158.929 29.3ZM188.049 17.42C189.867 17.42 191.307 17.951 192.369 19.013C193.431 20.057 193.962 21.632 193.962 23.738V32H190.587V24.17C190.587 22.91 190.308 21.965 189.75 21.335C189.192 20.687 188.391 20.363 187.347 20.363C186.213 20.363 185.304 20.741 184.62 21.497C183.936 22.235 183.594 23.297 183.594 24.683V32H180.219V24.17C180.219 22.91 179.94 21.965 179.382 21.335C178.824 20.687 178.023 20.363 176.979 20.363C175.827 20.363 174.909 20.732 174.225 21.47C173.559 22.208 173.226 23.279 173.226 24.683V32H169.851V17.582H173.064V19.418C173.604 18.77 174.279 18.275 175.089 17.933C175.899 17.591 176.799 17.42 177.789 17.42C178.869 17.42 179.823 17.627 180.651 18.041C181.497 18.437 182.163 19.031 182.649 19.823C183.243 19.067 184.008 18.482 184.944 18.068C185.88 17.636 186.915 17.42 188.049 17.42ZM204.887 32.189C203.429 32.189 202.115 31.874 200.945 31.244C199.775 30.614 198.857 29.741 198.191 28.625C197.543 27.491 197.219 26.213 197.219 24.791C197.219 23.369 197.543 22.1 198.191 20.984C198.857 19.868 199.775 18.995 200.945 18.365C202.115 17.735 203.429 17.42 204.887 17.42C206.363 17.42 207.686 17.735 208.856 18.365C210.026 18.995 210.935 19.868 211.583 20.984C212.249 22.1 212.582 23.369 212.582 24.791C212.582 26.213 212.249 27.491 211.583 28.625C210.935 29.741 210.026 30.614 208.856 31.244C207.686 31.874 206.363 32.189 204.887 32.189ZM204.887 29.3C206.129 29.3 207.155 28.886 207.965 28.058C208.775 27.23 209.18 26.141 209.18 24.791C209.18 23.441 208.775 22.352 207.965 21.524C207.155 20.696 206.129 20.282 204.887 20.282C203.645 20.282 202.619 20.696 201.809 21.524C201.017 22.352 200.621 23.441 200.621 24.791C200.621 26.141 201.017 27.23 201.809 28.058C202.619 28.886 203.645 29.3 204.887 29.3Z" fill="url(#paint0_linear)"/>
<path d="M19.6441 34.0213L0 0H18.2207L25.9787 27.758L19.6441 34.0213Z" fill="url(#paint1_linear)"/>
<path d="M22.6335 7.47333L20.7117 0H60L51.1744 15.2313L22.6335 7.47333Z" fill="url(#paint2_linear)"/>
<path d="M27.9003 25.5516L23.701 10.3203L39.0035 14.3061L27.9003 25.5516Z" fill="url(#paint3_linear)"/>
<path d="M41.8505 14.9465L21.0676 36.0853L30.1779 52.0284L50.1067 17.1529L41.8505 14.9465Z" fill="url(#paint4_linear)"/>
<defs>
<linearGradient id="paint0_linear" x1="144.5" y1="0" x2="144.5" y2="44" gradientUnits="userSpaceOnUse">
<stop stop-color="#CE6CF0"/>
<stop offset="1" stop-color="#616AF8"/>
</linearGradient>
<linearGradient id="paint1_linear" x1="12.9893" y1="0" x2="12.9893" y2="34.0213" gradientUnits="userSpaceOnUse">
<stop stop-color="#CE6CF0"/>
<stop offset="1" stop-color="#616AF8"/>
</linearGradient>
<linearGradient id="paint2_linear" x1="40.3559" y1="0" x2="40.3559" y2="15.2313" gradientUnits="userSpaceOnUse">
<stop stop-color="#CE6CF0"/>
<stop offset="1" stop-color="#616AF8"/>
</linearGradient>
<linearGradient id="paint3_linear" x1="31.3523" y1="10.3203" x2="31.3523" y2="25.5516" gradientUnits="userSpaceOnUse">
<stop stop-color="#CE6CF0"/>
<stop offset="1" stop-color="#616AF8"/>
</linearGradient>
<linearGradient id="paint4_linear" x1="35.5872" y1="14.9465" x2="35.5872" y2="52.0284" gradientUnits="userSpaceOnUse">
<stop stop-color="#CE6CF0"/>
<stop offset="1" stop-color="#616AF8"/>
</linearGradient>
</defs>
</svg>
