<svg width="32" height="32" viewBox="0 0 32 32" fill="none" xmlns="http://www.w3.org/2000/svg">
<path d="M16 32C24.8366 32 32 24.8366 32 16C32 7.16344 24.8366 0 16 0C7.16344 0 0 7.16344 0 16C0 24.8366 7.16344 32 16 32Z" fill="#4D76A1"/>
<path fill-rule="evenodd" clip-rule="evenodd" d="M15.3956 23.0173H16.6514C16.6514 23.0173 17.0308 22.9757 17.2244 22.7669C17.4027 22.5752 17.397 22.2153 17.397 22.2153C17.397 22.2153 17.3725 20.5302 18.1545 20.2821C18.9255 20.0377 19.9154 21.9107 20.9648 22.6308C21.7582 23.1759 22.3612 23.0564 22.3612 23.0564L25.1668 23.0173C25.1668 23.0173 26.6345 22.9269 25.9386 21.7729C25.8816 21.6785 25.5333 20.9193 23.8526 19.3591C22.0933 17.7263 22.3289 17.9904 24.4481 15.1659C25.7387 13.4458 26.2546 12.3956 26.0935 11.9458C25.9398 11.5174 24.9906 11.6307 24.9906 11.6307L21.8315 11.6503C21.8315 11.6503 21.5974 11.6184 21.4237 11.7222C21.254 11.824 21.1447 12.0613 21.1447 12.0613C21.1447 12.0613 20.6447 13.3924 19.9779 14.5244C18.5712 16.9131 18.0088 17.0392 17.7789 16.8909C17.2441 16.5452 17.3776 15.5022 17.3776 14.7612C17.3776 12.4464 17.7287 11.4812 16.6939 11.2314C16.3505 11.1484 16.0978 11.0936 15.2197 11.0848C14.0925 11.0731 13.1384 11.0882 12.5983 11.3529C12.2389 11.5288 11.9616 11.921 12.1305 11.9435C12.3393 11.9715 12.8122 12.071 13.0629 12.4124C13.3866 12.8528 13.3752 13.8419 13.3752 13.8419C13.3752 13.8419 13.5611 16.5669 12.9408 16.9054C12.515 17.1376 11.9308 16.6636 10.6768 14.4965C10.0342 13.3864 9.54902 12.1594 9.54902 12.1594C9.54902 12.1594 9.45547 11.9301 9.28861 11.8075C9.08611 11.6589 8.80318 11.6115 8.80318 11.6115L5.80129 11.6312C5.80129 11.6312 5.35065 11.6438 5.18522 11.8397C5.03805 12.014 5.17353 12.3745 5.17353 12.3745C5.17353 12.3745 7.5237 17.8729 10.1848 20.6437C12.6248 23.1842 15.3956 23.0173 15.3956 23.0173Z" fill="white"/>
</svg>
