<svg width="64" height="64" viewBox="0 0 64 64" fill="none" xmlns="http://www.w3.org/2000/svg">
<path d="M31.9996 7.88721C45.2955 7.88721 56.1125 18.7042 56.1125 32.0001C56.1125 36.2693 54.9932 40.4493 52.8757 44.0883C52.6153 44.5358 52.767 45.1097 53.2145 45.3701C53.662 45.6305 54.2358 45.4788 54.4962 45.0313C56.7801 41.1063 57.9873 36.6002 57.9873 32.0001C57.9873 17.6703 46.3292 6.01221 31.9995 6.01221C17.6697 6.01221 6.01172 17.6703 6.01172 32.0001C6.01172 37.8673 8.03109 43.6232 11.6977 48.2072C11.8828 48.4387 12.1555 48.5591 12.4305 48.5591C12.6358 48.5591 12.8426 48.492 13.0155 48.3537C13.4198 48.0303 13.4855 47.4403 13.162 47.036C9.71084 42.7215 7.88672 37.5222 7.88672 32.0001C7.88672 18.7042 18.7037 7.88721 31.9996 7.88721Z" fill="url(#paint0_linear)"/>
<path d="M64 32C64 14.3551 49.6449 0 32 0C14.3551 0 0 14.3551 0 32C0 49.6449 14.3551 64 32 64C32.5177 64 32.9375 63.5802 32.9375 63.0625V57.0504C32.9375 56.5326 32.5177 56.1129 32 56.1129C26.1803 56.1129 20.5567 54.0024 16.1651 50.1701C15.7751 49.8298 15.183 49.8699 14.8424 50.2601C14.5019 50.6502 14.5422 51.2425 14.9324 51.5829C19.4292 55.507 25.1254 57.7561 31.0625 57.9709V62.1105C14.883 61.6141 1.875 48.2978 1.875 32C1.875 15.389 15.389 1.875 32 1.875C48.611 1.875 62.125 15.389 62.125 32C62.125 35.5962 61.5045 39.1043 60.2805 42.4268C59.0615 45.7363 57.2706 48.789 54.9581 51.5004C54.6353 51.8787 54.6642 52.4434 55.024 52.7869L56.4669 54.1644L47.777 55.9944L49.202 47.229L50.6689 48.6294C51.0434 48.9868 51.6367 48.9731 51.9944 48.5986C52.3519 48.2241 52.3381 47.6307 51.9636 47.2731L49.2096 44.644C48.9579 44.4038 48.594 44.3225 48.2641 44.4333C47.9342 44.5439 47.6929 44.8281 47.637 45.1716L45.7071 57.0431C45.6575 57.3483 45.7615 57.6582 45.9851 57.8716C46.2088 58.0851 46.5233 58.1747 46.8256 58.1109L58.5947 55.6324C58.9352 55.5607 59.208 55.3064 59.3032 54.9716C59.3985 54.637 59.3006 54.2771 59.0489 54.0369L56.9512 52.0342C59.1355 49.3274 60.8456 46.3174 62.04 43.0747C63.3406 39.5443 64 35.8181 64 32Z" fill="url(#paint1_linear)"/>
<path d="M35.1289 30.9724C34.3522 30.6978 33.6511 30.4386 33.0156 30.1905V20.2973C35.1738 20.4726 36.4839 21.6185 36.5653 21.6918C36.9459 22.0399 37.5368 22.0149 37.8871 21.6355C38.2381 21.2549 38.2142 20.6618 37.8336 20.3108C37.7349 20.2198 35.9397 18.6023 33.0156 18.4148V15.9678C33.0156 15.45 32.5958 15.0303 32.0781 15.0303C31.5603 15.0303 31.1406 15.45 31.1406 15.9678V18.4974C30.6946 18.5638 30.2314 18.6641 29.7508 18.8089C27.5216 19.4805 25.8539 21.3975 25.3989 23.8121C24.9892 25.9868 25.6674 28.0694 27.1692 29.2473C28.1341 30.004 29.3703 30.6966 31.1406 31.4504V43.4483C29.1317 43.4142 28.0171 43.1495 25.9997 41.8298C25.5663 41.5464 24.9853 41.6678 24.7019 42.1011C24.4184 42.5344 24.5399 43.1155 24.9732 43.3989C27.3661 44.9643 28.8471 45.283 31.1406 45.3225V48.0323C31.1406 48.55 31.5603 48.9698 32.0781 48.9698C32.5958 48.9698 33.0156 48.55 33.0156 48.0323V45.2673C34.6589 45.0753 36.1447 44.4031 37.3533 43.2928C38.6501 42.1013 39.5253 40.4868 39.8179 38.7465C40.4074 35.2391 38.5669 32.1876 35.1289 30.9724ZM28.3263 27.7718C27.3774 27.0275 26.9618 25.6433 27.2414 24.1591C27.4961 22.808 28.4311 21.1645 30.2914 20.604C30.5831 20.5163 30.8654 20.4501 31.1404 20.3991V29.403C29.9222 28.8455 29.0294 28.3233 28.3263 27.7718ZM37.9687 38.4355C37.6033 40.6088 35.9138 42.9408 33.0154 43.3781V32.1978C33.4817 32.3734 33.9762 32.5536 34.5039 32.7401C37.5816 33.828 38.3117 36.3955 37.9687 38.4355Z" fill="url(#paint2_linear)"/>
<defs>
<linearGradient id="paint0_linear" x1="31.9995" y1="6.01221" x2="31.9995" y2="48.5591" gradientUnits="userSpaceOnUse">
<stop stop-color="#219CF9"/>
<stop offset="1" stop-color="#4E50EA"/>
</linearGradient>
<linearGradient id="paint1_linear" x1="32" y1="0" x2="32" y2="64" gradientUnits="userSpaceOnUse">
<stop stop-color="#219CF9"/>
<stop offset="1" stop-color="#4E50EA"/>
</linearGradient>
<linearGradient id="paint2_linear" x1="32.2378" y1="15.0303" x2="32.2378" y2="48.9698" gradientUnits="userSpaceOnUse">
<stop stop-color="#219CF9"/>
<stop offset="1" stop-color="#4E50EA"/>
</linearGradient>
</defs>
</svg>
