<svg width="75" height="75" viewBox="0 0 75 75" fill="none" xmlns="http://www.w3.org/2000/svg">
<g filter="url(#filter0_d)">
<circle cx="37.5" cy="33.5" r="27.5" fill="#212429"/>
</g>
<path d="M39.7576 29.0882L31.1641 31.9527C30.457 32.1883 30 32.8228 30 33.5684C30 34.3138 30.457 34.9478 31.1646 35.1839L34.6536 36.3468L35.8164 39.8363C36.052 40.5428 36.686 40.9998 37.4314 40.9998C38.177 40.9998 38.811 40.5428 39.0471 39.8353L41.9116 31.2418C42.1165 30.6263 41.959 29.9588 41.5 29.4998C41.041 29.0409 40.3726 28.8824 39.7576 29.0882ZM37.4314 38.3573L36.2339 34.7652L32.6421 33.568L39.8254 31.1734L37.4314 38.3573Z" fill="white"/>
<path d="M37 22C30.3831 22 25 27.3831 25 34C25 40.6169 30.3831 46 37 46C43.6169 46 49 40.6169 49 34C49 27.3831 43.6169 22 37 22ZM37 44C31.4861 44 27 39.5139 27 34C27 28.4861 31.4861 24 37 24C42.5139 24 47 28.4861 47 34C47 39.5139 42.5139 44 37 44Z" fill="white"/>
<defs>
<filter id="filter0_d" x="0" y="0" width="75" height="75" filterUnits="userSpaceOnUse" color-interpolation-filters="sRGB">
<feFlood flood-opacity="0" result="BackgroundImageFix"/>
<feColorMatrix in="SourceAlpha" type="matrix" values="0 0 0 0 0 0 0 0 0 0 0 0 0 0 0 0 0 0 127 0"/>
<feOffset dy="4"/>
<feGaussianBlur stdDeviation="5"/>
<feColorMatrix type="matrix" values="0 0 0 0 0 0 0 0 0 0 0 0 0 0 0 0 0 0 0.25 0"/>
<feBlend mode="normal" in2="BackgroundImageFix" result="effect1_dropShadow"/>
<feBlend mode="normal" in="SourceGraphic" in2="effect1_dropShadow" result="shape"/>
</filter>
</defs>
</svg>
