<svg width="48" height="32" viewBox="0 0 48 32" fill="none" xmlns="http://www.w3.org/2000/svg">
<path d="M4.04505 0.889709C2.62048 0.889709 1.47363 1.64174 1.47363 2.57589V28.8488C1.47363 29.7829 2.62048 30.535 4.04505 30.535H24.2152H44.1112C45.5358 30.535 46.6827 29.7829 46.6827 28.8488V2.57589C46.6827 1.64174 45.5358 0.889709 44.1112 0.889709H24.2152H4.04505Z" fill="white"/>
<path d="M24.089 9.97552L21.5655 12.8361L17.5412 12.8382L16.4934 12.8388L19.0282 15.7123L16.4934 18.5859L17.5412 18.5865L21.5655 18.5886L24.089 21.4492L26.6005 18.5913L31.663 18.5941L29.1306 15.7125L31.663 12.8309L26.6006 12.8336L24.089 9.97552ZM24.0867 11.5619L25.205 12.8343L22.9633 12.8354L24.0867 11.5619ZM29.5689 13.6252L28.4326 14.9181L27.2973 13.6264L29.5689 13.6252ZM25.9018 13.6271L27.7345 15.7124L25.9018 17.7978L22.2633 17.7959L20.4255 15.7125L22.2633 13.629L25.9018 13.6271ZM20.8654 13.6297L19.7268 14.9204L18.5894 13.631L20.8654 13.6297ZM19.727 16.5044L20.8656 17.7952L18.5894 17.794L19.727 16.5044ZM28.4326 16.5067L29.5689 17.7996L27.2973 17.7984L28.4326 16.5067ZM22.9631 18.5894L25.205 18.5906L24.0867 19.8631L22.9631 18.5894Z" fill="#0038B8"/>
<path d="M4.04505 0.889709C2.62048 0.889709 1.47363 1.64174 1.47363 2.57589V7.25233H46.6827V2.57589C46.6827 1.64174 45.5358 0.889709 44.1112 0.889709H24.2152H4.04505Z" fill="#0038B8"/>
<path d="M4.04505 30.535C2.62048 30.535 1.47363 29.783 1.47363 28.8488V24.1724H46.6827V28.8488C46.6827 29.783 45.5358 30.535 44.1112 30.535H24.2152H4.04505Z" fill="#0038B8"/>
</svg>
