<svg width="32" height="32" viewBox="0 0 32 32" fill="none" xmlns="http://www.w3.org/2000/svg">
<path d="M26.938 19.2963C26.2396 18.5848 25.3971 18.2044 24.5042 18.2044C23.6186 18.2044 22.7689 18.5778 22.0417 19.2893L19.7663 21.5083C19.5791 21.4097 19.3919 21.3181 19.2119 21.2265C18.9526 21.0997 18.7078 20.98 18.499 20.8532C16.3676 19.5288 14.4307 17.8029 12.573 15.5697C11.6729 14.4567 11.068 13.5198 10.6288 12.5687C11.2193 12.0404 11.7665 11.4909 12.2993 10.9626C12.501 10.7653 12.7026 10.561 12.9042 10.3638C14.4163 8.88442 14.4163 6.9683 12.9042 5.48894L10.9384 3.56577C10.7152 3.34739 10.4848 3.12196 10.2688 2.89653C9.83676 2.45977 9.38312 2.00892 8.91509 1.58624C8.21664 0.909963 7.38137 0.55069 6.50291 0.55069C5.62444 0.55069 4.77478 0.909963 4.05473 1.58624C4.04753 1.59329 4.04753 1.59329 4.04033 1.60033L1.59214 4.01662C0.670477 4.91833 0.144838 6.01728 0.0296291 7.29235C-0.143184 9.34937 0.476062 11.2655 0.951297 12.5194C2.11778 15.5979 3.86031 18.451 6.45971 21.5083C9.61354 25.1926 13.4082 28.102 17.7429 30.152C19.3991 30.9199 21.6096 31.8286 24.0794 31.9836C24.2306 31.9906 24.389 31.9977 24.533 31.9977C26.1964 31.9977 27.5933 31.413 28.6878 30.2506C28.695 30.2365 28.7094 30.2295 28.7166 30.2154C29.091 29.7716 29.523 29.3701 29.9767 28.9403C30.2863 28.6515 30.6031 28.3486 30.9127 28.0316C31.6256 27.306 32 26.4606 32 25.5942C32 24.7206 31.6184 23.8823 30.8911 23.1779L26.938 19.2963ZM29.5158 26.7142C29.5086 26.7142 29.5086 26.7213 29.5158 26.7142C29.235 27.0101 28.947 27.2778 28.6374 27.5737C28.1693 28.0105 27.6941 28.4683 27.2476 28.9826C26.5204 29.7434 25.6635 30.1027 24.5402 30.1027C24.4322 30.1027 24.317 30.1027 24.209 30.0956C22.0705 29.9618 20.0831 29.1446 18.5926 28.4472C14.5171 26.517 10.9384 23.7767 7.96462 20.3037C5.50924 17.4084 3.86751 14.7314 2.78023 11.8572C2.11058 10.1031 1.86577 8.73649 1.97377 7.44733C2.04578 6.62312 2.3698 5.93979 2.96745 5.35509L5.42283 2.95289C5.77566 2.62884 6.15008 2.45273 6.51731 2.45273C6.97094 2.45273 7.33817 2.72042 7.56859 2.94585C7.57579 2.95289 7.58299 2.95994 7.59019 2.96698C8.02942 3.36852 8.44705 3.78415 8.88629 4.22796C9.1095 4.45339 9.33992 4.67881 9.57034 4.91128L11.5361 6.83445C12.2993 7.58118 12.2993 8.27155 11.5361 9.01827C11.3273 9.22256 11.1257 9.42686 10.9168 9.6241C10.312 10.2299 9.73595 10.7935 9.1095 11.343C9.0951 11.3571 9.0807 11.3641 9.0735 11.3782C8.45425 11.984 8.56946 12.5758 8.69907 12.9773C8.70627 12.9985 8.71347 13.0196 8.72067 13.0407C9.23191 14.2524 9.95196 15.3936 11.0464 16.7532L11.0536 16.7603C13.041 19.1554 15.1363 21.0222 17.4477 22.4523C17.7429 22.6354 18.0454 22.7834 18.3334 22.9243C18.5926 23.0511 18.8374 23.1708 19.0462 23.2976C19.075 23.3117 19.1038 23.3329 19.1326 23.3469C19.3775 23.4667 19.6079 23.5231 19.8455 23.5231C20.4431 23.5231 20.8176 23.1567 20.94 23.037L23.4026 20.6277C23.6474 20.3882 24.0362 20.0994 24.4898 20.0994C24.9363 20.0994 25.3035 20.3741 25.5267 20.6136C25.5339 20.6207 25.5339 20.6207 25.5411 20.6277L29.5086 24.5093C30.2503 25.2278 30.2503 25.9675 29.5158 26.7142Z" fill="white"/>
</svg>
