<svg width="64" height="64" viewBox="0 0 64 64" fill="none" xmlns="http://www.w3.org/2000/svg">
<g clip-path="url(#clip0)">
<path d="M29.9257 14.3027C32.2117 13.1576 34.1347 10.8649 36.944 10.845C39.4787 10.827 42.146 11.6561 44.246 13.0696C50.4081 17.2172 51.2256 26.819 47.8495 32.9323C45.3819 37.4005 45.8983 41.4616 45.8711 46.3245C45.843 51.3733 45.8089 57.5129 41.9955 60.9517C40.729 62.0938 38.2954 63.6147 36.6197 62.8269C34.8587 61.9992 35.3802 59.3016 34.1193 54.3257C33.3312 51.2158 31.437 41.9941 26.3072 43.9437C22.7569 45.293 21.8481 51.1392 21.0406 54.3257C19.7796 59.3016 20.3013 61.9992 18.5403 62.8269C16.8646 63.6145 14.431 62.0938 13.1645 60.9517C9.35123 57.5129 9.31697 51.3733 9.28884 46.3242C9.27047 43.012 9.78103 39.8361 8.82828 36.5839C8.09781 34.0909 6.50486 31.903 5.86115 29.433C5.36171 27.5164 5.25219 25.4794 5.42947 23.5118C5.79026 19.5073 7.47898 15.3819 10.9139 13.0697C12.9962 11.6681 15.6668 10.7075 18.2571 10.8969C21.3604 11.1238 22.8041 13.4584 25.4851 14.5312C27.2304 15.2297 28.6359 14.9488 29.9257 14.3027Z" fill="#F7F6F7"/>
<path d="M44.2459 13.0696C42.1459 11.656 39.4786 10.827 36.9439 10.845C36.4409 10.8486 35.9667 10.926 35.5134 11.0557C37.2917 11.384 39.0315 12.0843 40.4956 13.0696C46.6576 17.2172 47.4751 26.819 44.0991 32.9323C41.6315 37.4005 42.1478 41.4616 42.1207 46.3245C42.0925 51.3733 42.0584 57.5129 38.245 60.9517C37.691 61.4514 36.9136 62.0233 36.0741 62.443C36.2275 62.5987 36.4067 62.7269 36.6197 62.8269C38.2954 63.6145 40.729 62.0938 41.9955 60.9517C45.8088 57.5129 45.843 51.3733 45.8712 46.3245C45.8982 41.4616 45.382 37.4005 47.8495 32.9323C51.2255 26.819 50.4081 17.2172 44.2459 13.0696Z" fill="#E2DFE3"/>
<path d="M22.5568 43.9438C19.0064 45.2931 18.0977 51.1391 17.2902 54.3256C16.1818 58.6995 16.4501 61.3123 15.3354 62.4429C16.4151 62.9825 17.5976 63.27 18.5404 62.8269C20.3013 61.9991 19.7798 59.3015 21.0407 54.3256C21.8009 51.3256 22.6518 45.9697 25.7113 44.2268C24.8253 43.6514 23.7838 43.4775 22.5568 43.9438Z" fill="#E2DFE3"/>
<path d="M45.6904 26.8321C52.8483 26.8321 58.6509 21.0296 58.6509 13.8717C58.6509 6.71384 52.8483 0.911255 45.6904 0.911255C38.5326 0.911255 32.73 6.71384 32.73 13.8717C32.73 21.0296 38.5326 26.8321 45.6904 26.8321Z" fill="#147FF1"/>
<path d="M45.6904 0.911255C45.0536 0.911255 44.4276 0.958261 43.8152 1.0474C50.0761 1.95889 54.9004 7.36222 54.9004 13.8718C54.9004 20.3814 50.076 25.7848 43.8152 26.6961C44.4276 26.7853 45.0536 26.8323 45.6904 26.8323C52.8369 26.8323 58.6509 21.0183 58.6509 13.8718C58.651 6.72527 52.8369 0.911255 45.6904 0.911255Z" fill="#147FF1"/>
<path d="M43.4773 19.6046C42.7272 19.6046 41.9775 19.3193 41.4064 18.7485L38.9731 16.3149C38.1154 15.4569 38.1154 14.0661 38.9732 13.2084C39.8312 12.3507 41.222 12.3503 42.0799 13.2084L43.1668 14.2954C43.3383 14.4669 43.6166 14.4669 43.7881 14.2954L49.2575 8.82607C50.0938 7.98971 51.4563 7.9127 52.3311 8.70868C53.2652 9.55854 53.2909 11.0059 52.408 11.8886L45.5485 18.7481C44.9774 19.3192 44.2273 19.6046 43.4773 19.6046Z" fill="white"/>
<path d="M17.4825 17.3236C17.9789 17.176 18.2617 16.6542 18.1143 16.1578C17.9669 15.6614 17.4451 15.3786 16.9485 15.526C15.2521 16.0299 13.7431 16.947 12.5848 18.1779C9.36017 21.6049 9.93412 26.2166 10.082 27.1062C10.1583 27.565 10.5556 27.8902 11.0058 27.8902C11.5768 27.8902 12.026 27.3658 11.9319 26.7988C11.8095 26.0621 11.3316 22.2462 13.9505 19.463C15.1273 18.2124 16.5207 17.6092 17.4825 17.3236ZM38.3101 12.5454C37.105 13.7503 37.0907 15.7704 38.3099 16.9779L40.7435 19.4117C41.4728 20.1407 42.4437 20.5422 43.4772 20.5422C44.5109 20.5422 45.4819 20.1406 46.2113 19.4113L53.0707 12.5518C54.3241 11.3088 54.2569 9.19313 52.9618 8.01522C51.7229 6.8882 49.8046 6.95296 48.5943 8.16312L43.4772 13.2802L42.7428 12.5458C41.5404 11.331 39.5161 11.3395 38.3101 12.5454ZM43.4772 15.3618C43.8452 15.3618 44.1909 15.2185 44.4509 14.9585L49.9202 9.48917C50.4126 8.9966 51.211 8.95772 51.6997 9.40228C52.223 9.87822 52.2494 10.7268 51.7447 11.2258L44.8853 18.0853C44.5101 18.4605 44.0101 18.667 43.4771 18.667C42.9444 18.667 42.4444 18.4605 42.0693 18.0857L39.636 15.6521C39.1493 15.1702 39.1515 14.3558 39.636 13.8716C40.1208 13.3871 40.9342 13.3844 41.4166 13.8716L42.5036 14.9586C42.7636 15.2185 43.1096 15.3618 43.4772 15.3618ZM46.5761 0.00142497C46.0583 -0.0278289 45.6139 0.361222 45.5813 0.87804C45.5486 1.39486 45.9409 1.84029 46.4577 1.87304C52.7692 2.27222 57.7132 7.54279 57.7132 13.8717C57.7132 20.6276 52.1875 25.8947 45.6904 25.8947C39.061 25.8947 33.6676 20.5012 33.6676 13.8717C33.6676 8.53454 37.2524 3.78029 42.3853 2.3106C42.8832 2.16808 43.1712 1.64902 43.0287 1.1512C42.8862 0.65351 42.367 0.364848 41.8691 0.507866C36.5771 2.02306 32.7113 6.55978 31.9372 11.9004C31.1411 12.4486 30.2991 13.0671 29.5059 13.4646C28.2106 14.1135 27.1122 14.1722 25.8338 13.6612C24.8812 13.2798 24.0928 12.715 23.2581 12.1169C21.8864 11.1343 20.4681 10.1181 18.325 9.96098C15.7599 9.77433 12.868 10.6234 10.3911 12.2912C7.08087 14.5197 4.93234 18.5787 4.49641 23.4274C4.29688 25.6395 4.45091 27.7396 4.95435 29.6688C5.31139 31.0391 5.93172 32.3089 6.53155 33.5368C7.0805 34.6603 7.59881 35.7217 7.92836 36.8467C8.58369 39.0847 8.50068 41.3075 8.41267 43.6605C8.38029 44.5279 8.34679 45.4249 8.35191 46.3297C8.38004 51.4985 8.41505 57.9311 12.537 61.6476C14.1807 63.1297 16.7998 64.6814 18.9397 63.6753C20.5197 62.9324 20.7668 61.2731 21.1088 58.9766C21.2861 57.7862 21.5068 56.3044 21.9501 54.5561C22.0519 54.154 22.1543 53.7151 22.2627 53.2505C22.4116 52.6124 22.637 51.7026 21.7155 51.4855C20.8128 51.2729 20.592 52.158 20.4365 52.8245C20.3301 53.2803 20.2297 53.7107 20.1322 54.0954C19.6658 55.9351 19.4374 57.4684 19.254 58.7006C18.948 60.7548 18.7856 61.6756 18.1421 61.9783C17.1001 62.4675 15.1235 61.4561 13.7929 60.2553C10.2857 57.0931 10.2533 51.1195 10.2272 46.3194C10.2222 45.4549 10.255 44.5784 10.2867 43.7308C10.3763 41.3315 10.4691 38.8505 9.72809 36.3199C9.35367 35.0419 8.77559 33.8585 8.21652 32.714C7.63144 31.5162 7.07875 30.3849 6.76883 29.1957C6.32027 27.4763 6.18401 25.5923 6.36415 23.5958C6.74933 19.3118 8.59882 15.7586 11.4384 13.847C13.574 12.4093 16.0339 11.6747 18.1884 11.8315C19.805 11.95 20.8992 12.734 22.1662 13.6416C23.0548 14.2782 23.9737 14.9364 25.1375 15.4024C26.9162 16.1135 28.5713 16.0304 30.3463 15.1413C30.8501 14.8886 31.3317 14.5887 31.7988 14.2753C32.0132 21.7528 38.1623 27.7698 45.6906 27.7698C46.72 27.7698 47.7232 27.6563 48.6894 27.443C48.4146 29.2729 47.8497 30.993 47.0289 32.4784C44.8263 36.4674 44.872 40.1817 44.9204 44.1141C44.9292 44.8294 44.9384 45.5691 44.9343 46.3241C44.9069 51.1225 44.8729 57.0941 41.3671 60.2554C40.0367 61.4561 38.06 62.4676 37.0185 61.9783C36.3746 61.6755 36.2122 60.7546 35.9062 58.7004C35.7229 57.4683 35.4944 55.935 35.0281 54.0955C34.24 50.9866 32.957 44.9832 29.5988 43.2198C28.4774 42.631 27.2583 42.5801 25.9752 43.0678C24.2267 43.732 22.8806 45.3065 21.8598 47.8808C21.669 48.3623 21.9044 48.9072 22.3859 49.098C22.8673 49.2892 23.4123 49.0535 23.6031 48.572C24.4189 46.5146 25.4128 45.2876 26.6415 44.8207C27.4114 44.528 28.0936 44.5473 28.7273 44.8802C31.2665 46.2137 32.5377 51.9018 33.2105 54.5559C33.6537 56.3043 33.8744 57.786 34.0516 58.9764C34.3937 61.2729 34.6407 62.9323 36.221 63.6753C38.3886 64.6944 40.993 63.1178 42.6232 61.6477C46.7435 57.9325 46.7802 51.5018 46.8097 46.3296C46.8138 45.5625 46.8045 44.8144 46.7957 44.0909C46.7484 40.2538 46.7075 36.9399 48.6705 33.3849C49.7283 31.4707 50.4081 29.2238 50.6532 26.8531C55.8731 24.8509 59.589 19.7874 59.589 13.8715C59.5885 6.55553 53.8727 0.46311 46.5761 0.00142497ZM11.5543 29.5749C11.0381 29.6151 10.6521 30.0662 10.6922 30.5824C10.7343 31.1245 10.8209 31.6667 10.9491 32.1939C11.0534 32.6227 11.4369 32.9101 11.8594 32.9101C12.4541 32.9101 12.913 32.3334 12.7711 31.7506C12.6666 31.3209 12.5962 30.8791 12.5618 30.4373C12.5216 29.9207 12.0695 29.5335 11.5543 29.5749Z" fill="black"/>
</g>
<defs>
<clipPath id="clip0">
<rect width="64" height="64" fill="white"/>
</clipPath>
</defs>
</svg>
