<svg width="610" height="445" viewBox="0 0 610 445" fill="none" xmlns="http://www.w3.org/2000/svg">
<g filter="url(#filter0_d)">
<rect x="4" width="602" height="437" fill="#2A2B2F"/>
</g>
<path d="M107.8 67.2L102.136 84H100.264L95.344 69.672L90.4 84H88.552L82.888 67.2H84.712L89.56 81.648L94.576 67.2H96.232L101.176 81.72L106.096 67.2H107.8ZM121.077 79.512H111.717L109.701 84H107.853L115.533 67.2H117.285L124.965 84H123.093L121.077 79.512ZM120.429 78.072L116.397 69.048L112.365 78.072H120.429ZM127.744 67.2H129.52V82.464H138.928V84H127.744V67.2ZM141.877 67.2H143.653V82.464H153.061V84H141.877V67.2ZM166.923 84.144C165.675 84.144 164.475 83.944 163.323 83.544C162.187 83.144 161.307 82.616 160.683 81.96L161.379 80.592C161.987 81.2 162.795 81.696 163.803 82.08C164.811 82.448 165.851 82.632 166.923 82.632C168.427 82.632 169.555 82.36 170.307 81.816C171.059 81.256 171.435 80.536 171.435 79.656C171.435 78.984 171.227 78.448 170.811 78.048C170.411 77.648 169.915 77.344 169.323 77.136C168.731 76.912 167.907 76.672 166.851 76.416C165.587 76.096 164.579 75.792 163.827 75.504C163.075 75.2 162.427 74.744 161.883 74.136C161.355 73.528 161.091 72.704 161.091 71.664C161.091 70.816 161.315 70.048 161.763 69.36C162.211 68.656 162.899 68.096 163.827 67.68C164.755 67.264 165.907 67.056 167.283 67.056C168.243 67.056 169.179 67.192 170.091 67.464C171.019 67.72 171.819 68.08 172.491 68.544L171.891 69.96C171.187 69.496 170.435 69.152 169.635 68.928C168.835 68.688 168.051 68.568 167.283 68.568C165.811 68.568 164.699 68.856 163.947 69.432C163.211 69.992 162.843 70.72 162.843 71.616C162.843 72.288 163.043 72.832 163.443 73.248C163.859 73.648 164.371 73.96 164.979 74.184C165.603 74.392 166.435 74.624 167.475 74.88C168.707 75.184 169.699 75.488 170.451 75.792C171.219 76.08 171.867 76.528 172.395 77.136C172.923 77.728 173.187 78.536 173.187 79.56C173.187 80.408 172.955 81.184 172.491 81.888C172.043 82.576 171.347 83.128 170.403 83.544C169.459 83.944 168.299 84.144 166.923 84.144ZM180.086 68.736H174.182V67.2H187.766V68.736H181.862V84H180.086V68.736ZM202.075 84L198.235 78.6C197.803 78.648 197.355 78.672 196.891 78.672H192.379V84H190.603V67.2H196.891C199.035 67.2 200.715 67.712 201.931 68.736C203.147 69.76 203.755 71.168 203.755 72.96C203.755 74.272 203.419 75.384 202.747 76.296C202.091 77.192 201.147 77.84 199.915 78.24L204.019 84H202.075ZM196.843 77.16C198.507 77.16 199.779 76.792 200.659 76.056C201.539 75.32 201.979 74.288 201.979 72.96C201.979 71.6 201.539 70.56 200.659 69.84C199.779 69.104 198.507 68.736 196.843 68.736H192.379V77.16H196.843ZM219.827 82.464V84H207.947V67.2H219.467V68.736H209.723V74.712H218.411V76.224H209.723V82.464H219.827ZM235.882 82.464V84H224.002V67.2H235.522V68.736H225.778V74.712H234.466V76.224H225.778V82.464H235.882ZM243.32 68.736H237.416V67.2H251V68.736H245.096V84H243.32V68.736ZM270.703 75.336C271.807 75.576 272.655 76.056 273.247 76.776C273.855 77.48 274.159 78.392 274.159 79.512C274.159 80.952 273.623 82.064 272.551 82.848C271.495 83.616 269.927 84 267.847 84H260.119V67.2H267.367C269.239 67.2 270.687 67.576 271.711 68.328C272.751 69.08 273.271 70.144 273.271 71.52C273.271 72.448 273.039 73.24 272.575 73.896C272.127 74.536 271.503 75.016 270.703 75.336ZM261.895 68.664V74.76H267.247C268.607 74.76 269.655 74.504 270.391 73.992C271.127 73.464 271.495 72.704 271.495 71.712C271.495 70.72 271.127 69.968 270.391 69.456C269.655 68.928 268.607 68.664 267.247 68.664H261.895ZM267.823 82.536C269.327 82.536 270.463 82.28 271.231 81.768C271.999 81.256 272.383 80.456 272.383 79.368C272.383 77.272 270.863 76.224 267.823 76.224H261.895V82.536H267.823ZM285.557 84.144C283.893 84.144 282.381 83.776 281.021 83.04C279.677 82.288 278.621 81.264 277.853 79.968C277.101 78.672 276.725 77.216 276.725 75.6C276.725 73.984 277.101 72.528 277.853 71.232C278.621 69.936 279.677 68.92 281.021 68.184C282.381 67.432 283.893 67.056 285.557 67.056C287.221 67.056 288.717 67.424 290.045 68.16C291.389 68.896 292.445 69.92 293.213 71.232C293.981 72.528 294.365 73.984 294.365 75.6C294.365 77.216 293.981 78.68 293.213 79.992C292.445 81.288 291.389 82.304 290.045 83.04C288.717 83.776 287.221 84.144 285.557 84.144ZM285.557 82.56C286.885 82.56 288.085 82.264 289.157 81.672C290.229 81.064 291.069 80.232 291.677 79.176C292.285 78.104 292.589 76.912 292.589 75.6C292.589 74.288 292.285 73.104 291.677 72.048C291.069 70.976 290.229 70.144 289.157 69.552C288.085 68.944 286.885 68.64 285.557 68.64C284.229 68.64 283.021 68.944 281.933 69.552C280.861 70.144 280.013 70.976 279.389 72.048C278.781 73.104 278.477 74.288 278.477 75.6C278.477 76.912 278.781 78.104 279.389 79.176C280.013 80.232 280.861 81.064 281.933 81.672C283.021 82.264 284.229 82.56 285.557 82.56ZM301.375 68.736H295.471V67.2H309.055V68.736H303.151V84H301.375V68.736ZM309.823 76.752H316.111V78.24H309.823V76.752ZM322.059 68.736V75.336H330.747V76.872H322.059V84H320.283V67.2H331.803V68.736H322.059ZM335.47 67.2H337.246V84H335.47V67.2ZM356.753 67.2V84H355.289L344.489 70.368V84H342.713V67.2H344.177L355.001 80.832V67.2H356.753ZM374.116 82.464V84H362.236V67.2H373.756V68.736H364.012V74.712H372.7V76.224H364.012V82.464H374.116ZM388.616 84L383.192 76.608L377.792 84H375.752L382.136 75.36L376.16 67.2H378.2L383.264 74.064L388.304 67.2H390.224L384.272 75.312L390.68 84H388.616Z" fill="white"/>
<path d="M107.8 173.2L102.136 190H100.264L95.344 175.672L90.4 190H88.552L82.888 173.2H84.712L89.56 187.648L94.576 173.2H96.232L101.176 187.72L106.096 173.2H107.8ZM121.077 185.512H111.717L109.701 190H107.853L115.533 173.2H117.285L124.965 190H123.093L121.077 185.512ZM120.429 184.072L116.397 175.048L112.365 184.072H120.429ZM127.744 173.2H129.52V188.464H138.928V190H127.744V173.2ZM141.877 173.2H143.653V188.464H153.061V190H141.877V173.2ZM166.923 190.144C165.675 190.144 164.475 189.944 163.323 189.544C162.187 189.144 161.307 188.616 160.683 187.96L161.379 186.592C161.987 187.2 162.795 187.696 163.803 188.08C164.811 188.448 165.851 188.632 166.923 188.632C168.427 188.632 169.555 188.36 170.307 187.816C171.059 187.256 171.435 186.536 171.435 185.656C171.435 184.984 171.227 184.448 170.811 184.048C170.411 183.648 169.915 183.344 169.323 183.136C168.731 182.912 167.907 182.672 166.851 182.416C165.587 182.096 164.579 181.792 163.827 181.504C163.075 181.2 162.427 180.744 161.883 180.136C161.355 179.528 161.091 178.704 161.091 177.664C161.091 176.816 161.315 176.048 161.763 175.36C162.211 174.656 162.899 174.096 163.827 173.68C164.755 173.264 165.907 173.056 167.283 173.056C168.243 173.056 169.179 173.192 170.091 173.464C171.019 173.72 171.819 174.08 172.491 174.544L171.891 175.96C171.187 175.496 170.435 175.152 169.635 174.928C168.835 174.688 168.051 174.568 167.283 174.568C165.811 174.568 164.699 174.856 163.947 175.432C163.211 175.992 162.843 176.72 162.843 177.616C162.843 178.288 163.043 178.832 163.443 179.248C163.859 179.648 164.371 179.96 164.979 180.184C165.603 180.392 166.435 180.624 167.475 180.88C168.707 181.184 169.699 181.488 170.451 181.792C171.219 182.08 171.867 182.528 172.395 183.136C172.923 183.728 173.187 184.536 173.187 185.56C173.187 186.408 172.955 187.184 172.491 187.888C172.043 188.576 171.347 189.128 170.403 189.544C169.459 189.944 168.299 190.144 166.923 190.144ZM180.086 174.736H174.182V173.2H187.766V174.736H181.862V190H180.086V174.736ZM202.075 190L198.235 184.6C197.803 184.648 197.355 184.672 196.891 184.672H192.379V190H190.603V173.2H196.891C199.035 173.2 200.715 173.712 201.931 174.736C203.147 175.76 203.755 177.168 203.755 178.96C203.755 180.272 203.419 181.384 202.747 182.296C202.091 183.192 201.147 183.84 199.915 184.24L204.019 190H202.075ZM196.843 183.16C198.507 183.16 199.779 182.792 200.659 182.056C201.539 181.32 201.979 180.288 201.979 178.96C201.979 177.6 201.539 176.56 200.659 175.84C199.779 175.104 198.507 174.736 196.843 174.736H192.379V183.16H196.843ZM219.827 188.464V190H207.947V173.2H219.467V174.736H209.723V180.712H218.411V182.224H209.723V188.464H219.827ZM235.882 188.464V190H224.002V173.2H235.522V174.736H225.778V180.712H234.466V182.224H225.778V188.464H235.882ZM243.32 174.736H237.416V173.2H251V174.736H245.096V190H243.32V174.736ZM270.703 181.336C271.807 181.576 272.655 182.056 273.247 182.776C273.855 183.48 274.159 184.392 274.159 185.512C274.159 186.952 273.623 188.064 272.551 188.848C271.495 189.616 269.927 190 267.847 190H260.119V173.2H267.367C269.239 173.2 270.687 173.576 271.711 174.328C272.751 175.08 273.271 176.144 273.271 177.52C273.271 178.448 273.039 179.24 272.575 179.896C272.127 180.536 271.503 181.016 270.703 181.336ZM261.895 174.664V180.76H267.247C268.607 180.76 269.655 180.504 270.391 179.992C271.127 179.464 271.495 178.704 271.495 177.712C271.495 176.72 271.127 175.968 270.391 175.456C269.655 174.928 268.607 174.664 267.247 174.664H261.895ZM267.823 188.536C269.327 188.536 270.463 188.28 271.231 187.768C271.999 187.256 272.383 186.456 272.383 185.368C272.383 183.272 270.863 182.224 267.823 182.224H261.895V188.536H267.823ZM285.557 190.144C283.893 190.144 282.381 189.776 281.021 189.04C279.677 188.288 278.621 187.264 277.853 185.968C277.101 184.672 276.725 183.216 276.725 181.6C276.725 179.984 277.101 178.528 277.853 177.232C278.621 175.936 279.677 174.92 281.021 174.184C282.381 173.432 283.893 173.056 285.557 173.056C287.221 173.056 288.717 173.424 290.045 174.16C291.389 174.896 292.445 175.92 293.213 177.232C293.981 178.528 294.365 179.984 294.365 181.6C294.365 183.216 293.981 184.68 293.213 185.992C292.445 187.288 291.389 188.304 290.045 189.04C288.717 189.776 287.221 190.144 285.557 190.144ZM285.557 188.56C286.885 188.56 288.085 188.264 289.157 187.672C290.229 187.064 291.069 186.232 291.677 185.176C292.285 184.104 292.589 182.912 292.589 181.6C292.589 180.288 292.285 179.104 291.677 178.048C291.069 176.976 290.229 176.144 289.157 175.552C288.085 174.944 286.885 174.64 285.557 174.64C284.229 174.64 283.021 174.944 281.933 175.552C280.861 176.144 280.013 176.976 279.389 178.048C278.781 179.104 278.477 180.288 278.477 181.6C278.477 182.912 278.781 184.104 279.389 185.176C280.013 186.232 280.861 187.064 281.933 187.672C283.021 188.264 284.229 188.56 285.557 188.56ZM301.375 174.736H295.471V173.2H309.055V174.736H303.151V190H301.375V174.736ZM309.823 182.752H316.111V184.24H309.823V182.752ZM322.059 174.736V181.336H330.747V182.872H322.059V190H320.283V173.2H331.803V174.736H322.059ZM335.47 173.2H337.246V190H335.47V173.2ZM356.753 173.2V190H355.289L344.489 176.368V190H342.713V173.2H344.177L355.001 186.832V173.2H356.753ZM374.116 188.464V190H362.236V173.2H373.756V174.736H364.012V180.712H372.7V182.224H364.012V188.464H374.116ZM388.616 190L383.192 182.608L377.792 190H375.752L382.136 181.36L376.16 173.2H378.2L383.264 180.064L388.304 173.2H390.224L384.272 181.312L390.68 190H388.616Z" fill="white"/>
<path d="M107.8 286.2L102.136 303H100.264L95.344 288.672L90.4 303H88.552L82.888 286.2H84.712L89.56 300.648L94.576 286.2H96.232L101.176 300.72L106.096 286.2H107.8ZM121.077 298.512H111.717L109.701 303H107.853L115.533 286.2H117.285L124.965 303H123.093L121.077 298.512ZM120.429 297.072L116.397 288.048L112.365 297.072H120.429ZM127.744 286.2H129.52V301.464H138.928V303H127.744V286.2ZM141.877 286.2H143.653V301.464H153.061V303H141.877V286.2ZM166.923 303.144C165.675 303.144 164.475 302.944 163.323 302.544C162.187 302.144 161.307 301.616 160.683 300.96L161.379 299.592C161.987 300.2 162.795 300.696 163.803 301.08C164.811 301.448 165.851 301.632 166.923 301.632C168.427 301.632 169.555 301.36 170.307 300.816C171.059 300.256 171.435 299.536 171.435 298.656C171.435 297.984 171.227 297.448 170.811 297.048C170.411 296.648 169.915 296.344 169.323 296.136C168.731 295.912 167.907 295.672 166.851 295.416C165.587 295.096 164.579 294.792 163.827 294.504C163.075 294.2 162.427 293.744 161.883 293.136C161.355 292.528 161.091 291.704 161.091 290.664C161.091 289.816 161.315 289.048 161.763 288.36C162.211 287.656 162.899 287.096 163.827 286.68C164.755 286.264 165.907 286.056 167.283 286.056C168.243 286.056 169.179 286.192 170.091 286.464C171.019 286.72 171.819 287.08 172.491 287.544L171.891 288.96C171.187 288.496 170.435 288.152 169.635 287.928C168.835 287.688 168.051 287.568 167.283 287.568C165.811 287.568 164.699 287.856 163.947 288.432C163.211 288.992 162.843 289.72 162.843 290.616C162.843 291.288 163.043 291.832 163.443 292.248C163.859 292.648 164.371 292.96 164.979 293.184C165.603 293.392 166.435 293.624 167.475 293.88C168.707 294.184 169.699 294.488 170.451 294.792C171.219 295.08 171.867 295.528 172.395 296.136C172.923 296.728 173.187 297.536 173.187 298.56C173.187 299.408 172.955 300.184 172.491 300.888C172.043 301.576 171.347 302.128 170.403 302.544C169.459 302.944 168.299 303.144 166.923 303.144ZM180.086 287.736H174.182V286.2H187.766V287.736H181.862V303H180.086V287.736ZM202.075 303L198.235 297.6C197.803 297.648 197.355 297.672 196.891 297.672H192.379V303H190.603V286.2H196.891C199.035 286.2 200.715 286.712 201.931 287.736C203.147 288.76 203.755 290.168 203.755 291.96C203.755 293.272 203.419 294.384 202.747 295.296C202.091 296.192 201.147 296.84 199.915 297.24L204.019 303H202.075ZM196.843 296.16C198.507 296.16 199.779 295.792 200.659 295.056C201.539 294.32 201.979 293.288 201.979 291.96C201.979 290.6 201.539 289.56 200.659 288.84C199.779 288.104 198.507 287.736 196.843 287.736H192.379V296.16H196.843ZM219.827 301.464V303H207.947V286.2H219.467V287.736H209.723V293.712H218.411V295.224H209.723V301.464H219.827ZM235.882 301.464V303H224.002V286.2H235.522V287.736H225.778V293.712H234.466V295.224H225.778V301.464H235.882ZM243.32 287.736H237.416V286.2H251V287.736H245.096V303H243.32V287.736ZM270.703 294.336C271.807 294.576 272.655 295.056 273.247 295.776C273.855 296.48 274.159 297.392 274.159 298.512C274.159 299.952 273.623 301.064 272.551 301.848C271.495 302.616 269.927 303 267.847 303H260.119V286.2H267.367C269.239 286.2 270.687 286.576 271.711 287.328C272.751 288.08 273.271 289.144 273.271 290.52C273.271 291.448 273.039 292.24 272.575 292.896C272.127 293.536 271.503 294.016 270.703 294.336ZM261.895 287.664V293.76H267.247C268.607 293.76 269.655 293.504 270.391 292.992C271.127 292.464 271.495 291.704 271.495 290.712C271.495 289.72 271.127 288.968 270.391 288.456C269.655 287.928 268.607 287.664 267.247 287.664H261.895ZM267.823 301.536C269.327 301.536 270.463 301.28 271.231 300.768C271.999 300.256 272.383 299.456 272.383 298.368C272.383 296.272 270.863 295.224 267.823 295.224H261.895V301.536H267.823ZM285.557 303.144C283.893 303.144 282.381 302.776 281.021 302.04C279.677 301.288 278.621 300.264 277.853 298.968C277.101 297.672 276.725 296.216 276.725 294.6C276.725 292.984 277.101 291.528 277.853 290.232C278.621 288.936 279.677 287.92 281.021 287.184C282.381 286.432 283.893 286.056 285.557 286.056C287.221 286.056 288.717 286.424 290.045 287.16C291.389 287.896 292.445 288.92 293.213 290.232C293.981 291.528 294.365 292.984 294.365 294.6C294.365 296.216 293.981 297.68 293.213 298.992C292.445 300.288 291.389 301.304 290.045 302.04C288.717 302.776 287.221 303.144 285.557 303.144ZM285.557 301.56C286.885 301.56 288.085 301.264 289.157 300.672C290.229 300.064 291.069 299.232 291.677 298.176C292.285 297.104 292.589 295.912 292.589 294.6C292.589 293.288 292.285 292.104 291.677 291.048C291.069 289.976 290.229 289.144 289.157 288.552C288.085 287.944 286.885 287.64 285.557 287.64C284.229 287.64 283.021 287.944 281.933 288.552C280.861 289.144 280.013 289.976 279.389 291.048C278.781 292.104 278.477 293.288 278.477 294.6C278.477 295.912 278.781 297.104 279.389 298.176C280.013 299.232 280.861 300.064 281.933 300.672C283.021 301.264 284.229 301.56 285.557 301.56ZM301.375 287.736H295.471V286.2H309.055V287.736H303.151V303H301.375V287.736ZM309.823 295.752H316.111V297.24H309.823V295.752ZM333.712 286.2L326.272 303H324.52L317.08 286.2H319L325.432 300.792L331.912 286.2H333.712ZM336.15 286.2H337.926V303H336.15V286.2ZM349.68 286.2C351.824 286.2 353.504 286.712 354.72 287.736C355.936 288.76 356.544 290.168 356.544 291.96C356.544 293.752 355.936 295.16 354.72 296.184C353.504 297.192 351.824 297.696 349.68 297.696H345.168V303H343.392V286.2H349.68ZM349.632 296.136C351.296 296.136 352.568 295.776 353.448 295.056C354.328 294.32 354.768 293.288 354.768 291.96C354.768 290.6 354.328 289.56 353.448 288.84C352.568 288.104 351.296 287.736 349.632 287.736H345.168V296.136H349.632ZM360.619 285.192H362.203V307.656H360.619V285.192ZM373.978 286.2H380.818C382.594 286.2 384.162 286.56 385.522 287.28C386.882 287.984 387.938 288.976 388.69 290.256C389.442 291.52 389.818 292.968 389.818 294.6C389.818 296.232 389.442 297.688 388.69 298.968C387.938 300.232 386.882 301.224 385.522 301.944C384.162 302.648 382.594 303 380.818 303H373.978V286.2ZM380.722 301.464C382.194 301.464 383.482 301.176 384.586 300.6C385.69 300.008 386.546 299.2 387.154 298.176C387.762 297.136 388.066 295.944 388.066 294.6C388.066 293.256 387.762 292.072 387.154 291.048C386.546 290.008 385.69 289.2 384.586 288.624C383.482 288.032 382.194 287.736 380.722 287.736H375.754V301.464H380.722ZM405.686 301.464V303H393.806V286.2H405.326V287.736H395.582V293.712H404.27V295.224H395.582V301.464H405.686ZM409.861 286.2H411.637V301.464H421.045V303H409.861V286.2ZM425.688 287.736H419.784V286.2H433.368V287.736H427.464V303H425.688V287.736ZM445.897 298.512H436.537L434.521 303H432.673L440.353 286.2H442.105L449.785 303H447.913L445.897 298.512ZM445.249 297.072L441.217 288.048L437.185 297.072H445.249Z" fill="white"/>
<rect x="85" y="113" width="376" height="25" rx="12.5" fill="url(#paint0_linear)"/>
<rect x="85" y="219" width="376" height="25" rx="12.5" fill="url(#paint1_linear)"/>
<rect x="85" y="339" width="376" height="25" rx="12.5" fill="url(#paint2_linear)"/>
<rect x="85" y="113" width="282" height="25" rx="12.5" fill="url(#paint3_linear)"/>
<rect x="85" y="219" width="229" height="22" rx="11" fill="url(#paint4_linear)"/>
<rect x="85" y="339" width="174" height="20" rx="10" fill="url(#paint5_linear)"/>
<circle cx="358" cy="126" r="20" fill="#323337"/>
<ellipse cx="309.5" cy="230" rx="16.5" ry="16" fill="#323337"/>
<ellipse cx="256.5" cy="349" rx="12.5" ry="12" fill="#323337"/>
<path d="M434.644 93.2V93.914L430.542 103H429.45L433.482 94.096H428.442V95.93H427.448V93.2H434.644ZM439.605 103.084C438.849 103.084 438.172 102.883 437.575 102.482C436.987 102.081 436.525 101.507 436.189 100.76C435.862 100.004 435.699 99.1173 435.699 98.1C435.699 97.0827 435.862 96.2007 436.189 95.454C436.525 94.698 436.987 94.1193 437.575 93.718C438.172 93.3167 438.849 93.116 439.605 93.116C440.361 93.116 441.033 93.3167 441.621 93.718C442.218 94.1193 442.685 94.698 443.021 95.454C443.357 96.2007 443.525 97.0827 443.525 98.1C443.525 99.1173 443.357 100.004 443.021 100.76C442.685 101.507 442.218 102.081 441.621 102.482C441.033 102.883 440.361 103.084 439.605 103.084ZM439.605 102.16C440.174 102.16 440.673 102.001 441.103 101.684C441.541 101.367 441.882 100.905 442.125 100.298C442.367 99.6913 442.489 98.9587 442.489 98.1C442.489 97.2413 442.367 96.5087 442.125 95.902C441.882 95.2953 441.541 94.8333 441.103 94.516C440.673 94.1987 440.174 94.04 439.605 94.04C439.035 94.04 438.531 94.1987 438.093 94.516C437.663 94.8333 437.327 95.2953 437.085 95.902C436.842 96.5087 436.721 97.2413 436.721 98.1C436.721 98.9587 436.842 99.6913 437.085 100.298C437.327 100.905 437.663 101.367 438.093 101.684C438.531 102.001 439.035 102.16 439.605 102.16ZM447.04 98.45C446.378 98.45 445.841 98.2073 445.43 97.722C445.029 97.2273 444.828 96.5833 444.828 95.79C444.828 94.9967 445.029 94.3573 445.43 93.872C445.841 93.3773 446.378 93.13 447.04 93.13C447.694 93.13 448.226 93.3727 448.636 93.858C449.047 94.3433 449.252 94.9873 449.252 95.79C449.252 96.5927 449.047 97.2367 448.636 97.722C448.226 98.2073 447.694 98.45 447.04 98.45ZM452.976 93.2H453.802L447.11 103H446.284L452.976 93.2ZM447.04 97.82C447.498 97.82 447.862 97.6427 448.132 97.288C448.412 96.924 448.552 96.4247 448.552 95.79C448.552 95.1553 448.412 94.6607 448.132 94.306C447.862 93.942 447.498 93.76 447.04 93.76C446.574 93.76 446.205 93.942 445.934 94.306C445.664 94.67 445.528 95.1647 445.528 95.79C445.528 96.4153 445.664 96.91 445.934 97.274C446.205 97.638 446.574 97.82 447.04 97.82ZM453.046 103.07C452.393 103.07 451.861 102.827 451.45 102.342C451.04 101.847 450.834 101.203 450.834 100.41C450.834 99.6167 451.04 98.9773 451.45 98.492C451.861 97.9973 452.393 97.75 453.046 97.75C453.709 97.75 454.241 97.9973 454.642 98.492C455.053 98.9773 455.258 99.6167 455.258 100.41C455.258 101.203 455.053 101.847 454.642 102.342C454.241 102.827 453.709 103.07 453.046 103.07ZM453.046 102.44C453.513 102.44 453.882 102.258 454.152 101.894C454.423 101.53 454.558 101.035 454.558 100.41C454.558 99.7847 454.423 99.29 454.152 98.926C453.882 98.562 453.513 98.38 453.046 98.38C452.589 98.38 452.22 98.562 451.94 98.926C451.67 99.2807 451.534 99.7753 451.534 100.41C451.534 101.045 451.67 101.544 451.94 101.908C452.22 102.263 452.589 102.44 453.046 102.44Z" fill="white"/>
<path d="M435.304 204.218C436.723 204.218 437.754 204.475 438.398 204.988C439.051 205.492 439.378 206.201 439.378 207.116C439.378 207.685 439.243 208.194 438.972 208.642C438.711 209.09 438.314 209.445 437.782 209.706C437.25 209.958 436.597 210.084 435.822 210.084C435.122 210.084 434.455 209.972 433.82 209.748C433.195 209.515 432.691 209.207 432.308 208.824L432.798 208.026C433.125 208.362 433.554 208.637 434.086 208.852C434.618 209.057 435.192 209.16 435.808 209.16C436.62 209.16 437.245 208.978 437.684 208.614C438.132 208.25 438.356 207.765 438.356 207.158C438.356 206.486 438.104 205.977 437.6 205.632C437.105 205.287 436.265 205.114 435.08 205.114H432.994L433.498 200.2H438.86V201.096H434.38L434.044 204.218H435.304ZM444.564 210.084C443.808 210.084 443.131 209.883 442.534 209.482C441.946 209.081 441.484 208.507 441.148 207.76C440.821 207.004 440.658 206.117 440.658 205.1C440.658 204.083 440.821 203.201 441.148 202.454C441.484 201.698 441.946 201.119 442.534 200.718C443.131 200.317 443.808 200.116 444.564 200.116C445.32 200.116 445.992 200.317 446.58 200.718C447.177 201.119 447.644 201.698 447.98 202.454C448.316 203.201 448.484 204.083 448.484 205.1C448.484 206.117 448.316 207.004 447.98 207.76C447.644 208.507 447.177 209.081 446.58 209.482C445.992 209.883 445.32 210.084 444.564 210.084ZM444.564 209.16C445.133 209.16 445.632 209.001 446.062 208.684C446.5 208.367 446.841 207.905 447.084 207.298C447.326 206.691 447.448 205.959 447.448 205.1C447.448 204.241 447.326 203.509 447.084 202.902C446.841 202.295 446.5 201.833 446.062 201.516C445.632 201.199 445.133 201.04 444.564 201.04C443.994 201.04 443.49 201.199 443.052 201.516C442.622 201.833 442.286 202.295 442.044 202.902C441.801 203.509 441.68 204.241 441.68 205.1C441.68 205.959 441.801 206.691 442.044 207.298C442.286 207.905 442.622 208.367 443.052 208.684C443.49 209.001 443.994 209.16 444.564 209.16ZM451.999 205.45C451.337 205.45 450.8 205.207 450.389 204.722C449.988 204.227 449.787 203.583 449.787 202.79C449.787 201.997 449.988 201.357 450.389 200.872C450.8 200.377 451.337 200.13 451.999 200.13C452.653 200.13 453.185 200.373 453.595 200.858C454.006 201.343 454.211 201.987 454.211 202.79C454.211 203.593 454.006 204.237 453.595 204.722C453.185 205.207 452.653 205.45 451.999 205.45ZM457.935 200.2H458.761L452.069 210H451.243L457.935 200.2ZM451.999 204.82C452.457 204.82 452.821 204.643 453.091 204.288C453.371 203.924 453.511 203.425 453.511 202.79C453.511 202.155 453.371 201.661 453.091 201.306C452.821 200.942 452.457 200.76 451.999 200.76C451.533 200.76 451.164 200.942 450.893 201.306C450.623 201.67 450.487 202.165 450.487 202.79C450.487 203.415 450.623 203.91 450.893 204.274C451.164 204.638 451.533 204.82 451.999 204.82ZM458.005 210.07C457.352 210.07 456.82 209.827 456.409 209.342C455.999 208.847 455.793 208.203 455.793 207.41C455.793 206.617 455.999 205.977 456.409 205.492C456.82 204.997 457.352 204.75 458.005 204.75C458.668 204.75 459.2 204.997 459.601 205.492C460.012 205.977 460.217 206.617 460.217 207.41C460.217 208.203 460.012 208.847 459.601 209.342C459.2 209.827 458.668 210.07 458.005 210.07ZM458.005 209.44C458.472 209.44 458.841 209.258 459.111 208.894C459.382 208.53 459.517 208.035 459.517 207.41C459.517 206.785 459.382 206.29 459.111 205.926C458.841 205.562 458.472 205.38 458.005 205.38C457.548 205.38 457.179 205.562 456.899 205.926C456.629 206.281 456.493 206.775 456.493 207.41C456.493 208.045 456.629 208.544 456.899 208.908C457.179 209.263 457.548 209.44 458.005 209.44Z" fill="white"/>
<path d="M441.058 331.424H439.098V334H438.09V331.424H432.56V330.696L437.754 324.2H438.874L433.862 330.528H438.118V328.26H439.098V330.528H441.058V331.424ZM445.89 334.084C445.134 334.084 444.457 333.883 443.86 333.482C443.272 333.081 442.81 332.507 442.474 331.76C442.147 331.004 441.984 330.117 441.984 329.1C441.984 328.083 442.147 327.201 442.474 326.454C442.81 325.698 443.272 325.119 443.86 324.718C444.457 324.317 445.134 324.116 445.89 324.116C446.646 324.116 447.318 324.317 447.906 324.718C448.503 325.119 448.97 325.698 449.306 326.454C449.642 327.201 449.81 328.083 449.81 329.1C449.81 330.117 449.642 331.004 449.306 331.76C448.97 332.507 448.503 333.081 447.906 333.482C447.318 333.883 446.646 334.084 445.89 334.084ZM445.89 333.16C446.459 333.16 446.959 333.001 447.388 332.684C447.827 332.367 448.167 331.905 448.41 331.298C448.653 330.691 448.774 329.959 448.774 329.1C448.774 328.241 448.653 327.509 448.41 326.902C448.167 326.295 447.827 325.833 447.388 325.516C446.959 325.199 446.459 325.04 445.89 325.04C445.321 325.04 444.817 325.199 444.378 325.516C443.949 325.833 443.613 326.295 443.37 326.902C443.127 327.509 443.006 328.241 443.006 329.1C443.006 329.959 443.127 330.691 443.37 331.298C443.613 331.905 443.949 332.367 444.378 332.684C444.817 333.001 445.321 333.16 445.89 333.16ZM453.325 329.45C452.663 329.45 452.126 329.207 451.715 328.722C451.314 328.227 451.113 327.583 451.113 326.79C451.113 325.997 451.314 325.357 451.715 324.872C452.126 324.377 452.663 324.13 453.325 324.13C453.979 324.13 454.511 324.373 454.921 324.858C455.332 325.343 455.537 325.987 455.537 326.79C455.537 327.593 455.332 328.237 454.921 328.722C454.511 329.207 453.979 329.45 453.325 329.45ZM459.261 324.2H460.087L453.395 334H452.569L459.261 324.2ZM453.325 328.82C453.783 328.82 454.147 328.643 454.417 328.288C454.697 327.924 454.837 327.425 454.837 326.79C454.837 326.155 454.697 325.661 454.417 325.306C454.147 324.942 453.783 324.76 453.325 324.76C452.859 324.76 452.49 324.942 452.219 325.306C451.949 325.67 451.813 326.165 451.813 326.79C451.813 327.415 451.949 327.91 452.219 328.274C452.49 328.638 452.859 328.82 453.325 328.82ZM459.331 334.07C458.678 334.07 458.146 333.827 457.735 333.342C457.325 332.847 457.119 332.203 457.119 331.41C457.119 330.617 457.325 329.977 457.735 329.492C458.146 328.997 458.678 328.75 459.331 328.75C459.994 328.75 460.526 328.997 460.927 329.492C461.338 329.977 461.543 330.617 461.543 331.41C461.543 332.203 461.338 332.847 460.927 333.342C460.526 333.827 459.994 334.07 459.331 334.07ZM459.331 333.44C459.798 333.44 460.167 333.258 460.437 332.894C460.708 332.53 460.843 332.035 460.843 331.41C460.843 330.785 460.708 330.29 460.437 329.926C460.167 329.562 459.798 329.38 459.331 329.38C458.874 329.38 458.505 329.562 458.225 329.926C457.955 330.281 457.819 330.775 457.819 331.41C457.819 332.045 457.955 332.544 458.225 332.908C458.505 333.263 458.874 333.44 459.331 333.44Z" fill="white"/>
<defs>
<filter id="filter0_d" x="0" y="0" width="610" height="445" filterUnits="userSpaceOnUse" color-interpolation-filters="sRGB">
<feFlood flood-opacity="0" result="BackgroundImageFix"/>
<feColorMatrix in="SourceAlpha" type="matrix" values="0 0 0 0 0 0 0 0 0 0 0 0 0 0 0 0 0 0 127 0"/>
<feOffset dy="4"/>
<feGaussianBlur stdDeviation="2"/>
<feColorMatrix type="matrix" values="0 0 0 0 0 0 0 0 0 0 0 0 0 0 0 0 0 0 0.25 0"/>
<feBlend mode="normal" in2="BackgroundImageFix" result="effect1_dropShadow"/>
<feBlend mode="normal" in="SourceGraphic" in2="effect1_dropShadow" result="shape"/>
</filter>
<linearGradient id="paint0_linear" x1="273" y1="113" x2="273" y2="138" gradientUnits="userSpaceOnUse">
<stop stop-color="#13171A"/>
<stop offset="1" stop-color="#13171A" stop-opacity="0"/>
</linearGradient>
<linearGradient id="paint1_linear" x1="273" y1="219" x2="273" y2="244" gradientUnits="userSpaceOnUse">
<stop stop-color="#13171A"/>
<stop offset="1" stop-color="#13171A" stop-opacity="0"/>
</linearGradient>
<linearGradient id="paint2_linear" x1="273" y1="339" x2="273" y2="364" gradientUnits="userSpaceOnUse">
<stop stop-color="#13171A"/>
<stop offset="1" stop-color="#13171A" stop-opacity="0"/>
</linearGradient>
<linearGradient id="paint3_linear" x1="226" y1="113" x2="226" y2="138" gradientUnits="userSpaceOnUse">
<stop stop-color="#219CF9"/>
<stop offset="1" stop-color="#593DE7"/>
</linearGradient>
<linearGradient id="paint4_linear" x1="199.5" y1="219" x2="199.5" y2="241" gradientUnits="userSpaceOnUse">
<stop stop-color="#219CF9"/>
<stop offset="1" stop-color="#593DE7"/>
</linearGradient>
<linearGradient id="paint5_linear" x1="172" y1="339" x2="172" y2="359" gradientUnits="userSpaceOnUse">
<stop stop-color="#219CF9"/>
<stop offset="1" stop-color="#593DE7"/>
</linearGradient>
</defs>
</svg>
