<svg width="75" height="75" viewBox="0 0 75 75" fill="none" xmlns="http://www.w3.org/2000/svg">
<g filter="url(#filter0_d)">
<circle cx="37.5" cy="33.5" r="27.5" fill="url(#paint0_linear)"/>
</g>
<g clip-path="url(#clip0)">
<path d="M49.4837 37.1315L49.4664 37.1154C49.1932 36.8632 48.3563 36.0487 48.074 35.6927C47.7427 35.2486 47.8191 34.9576 48.0674 34.5216C48.3812 33.9706 49.0098 33.1254 49.6751 32.2303C51.806 29.3646 53.1817 27.3807 52.8985 25.9715L52.7459 25.2188L44.8765 25.2223C44.8489 25.2965 44.4383 27.1004 42.7054 30.1722C41.4488 32.3995 40.6245 33.0992 40.3343 33.2228L40.2893 33.2091C40.1949 33.0924 40.0298 32.7775 39.962 31.9657C39.8911 31.1153 39.9539 30.0858 40.0147 29.0902C40.0857 27.9227 40.147 26.9144 40.0003 26.193L39.7613 25.0177C39.4724 24.9715 38.4151 24.5636 35.469 24.5326C32.9185 24.5064 32.1692 24.8748 31.8013 25.1996L30.5842 26.2735L32.1226 26.7911C32.708 26.9881 32.9024 27.2154 33.0618 28.3421C33.1658 29.0765 33.2202 30.3107 33.1079 31.4125C32.9466 32.9923 32.5596 33.2862 32.5396 33.3019C32.4729 33.2792 31.9077 33.0318 30.9265 30.9574C30.2459 29.5187 29.6492 27.8167 29.2132 26.5741C28.7141 25.151 28.804 25.454 28.5508 24.7816L20.9375 24.7813L21.4302 26.0558C23.4841 31.3739 25.3687 35.527 27.8906 38.5099C30.677 41.8055 34.1399 43.5311 38.8045 43.5311H39.742V42.5936C39.742 41.7172 39.8145 41.0861 39.97 40.6075C40.065 40.316 40.1912 40.0751 40.3238 39.8224C40.5205 39.4503 40.7129 39.2909 40.8179 39.2672C40.9131 39.2455 41.0806 39.3153 41.2662 39.4537C41.7989 39.851 42.2217 40.3729 42.6695 40.9257C43.3155 41.7233 43.9834 42.5477 45.0433 43.0875C45.6224 43.3825 46.6839 43.5314 47.2681 43.5314C47.4227 43.5314 52.9307 43.5311 52.9376 43.5311L52.8973 42.5551C52.8372 41.0956 51.6885 39.2706 49.4837 37.1315ZM47.3045 41.6561H47.2894C46.8865 41.6627 46.1177 41.5306 45.8941 41.4169C45.1895 41.058 44.6971 40.4498 44.1265 39.7457C43.6258 39.1273 43.108 38.4879 42.387 37.9506C41.804 37.5157 41.2745 37.3885 40.854 37.3885C40.6861 37.3885 40.5352 37.4088 40.4058 37.4381C39.9178 37.548 39.2198 37.899 38.6648 38.9486C38.5083 39.2472 38.3308 39.5853 38.187 40.0277C38.0364 40.4906 37.9427 41.005 37.898 41.6307C34.3828 41.431 31.6399 40.0404 29.3225 37.2994C27.168 34.7508 25.4729 31.1861 23.6777 26.6556C23.8076 26.6556 27.0623 26.6561 27.2544 26.6561C27.3132 26.8214 27.3767 27.0025 27.4441 27.1944C27.9141 28.535 28.5579 30.3707 29.3164 31.9361C30.4026 34.1778 31.3946 35.1776 32.5325 35.1776C33.1006 35.1776 33.6101 34.9369 34.0059 34.4811C34.5701 33.8314 34.8977 32.7591 35.0076 31.2027C35.0943 29.9754 35.0137 28.753 34.9185 28.0794C34.8399 27.5252 34.7278 26.9435 34.4544 26.4222C35.6197 26.3697 37.18 26.4527 38.1685 26.5946C38.2583 27.0838 38.1997 28.0455 38.1431 28.9759C38.0061 31.2235 37.8648 33.5428 39.0545 34.628C39.2637 34.819 39.4856 34.9213 39.492 34.9254L40.0974 35.1112C40.3311 35.0392 41.6844 35.7257 44.2469 31.2538C45.0679 29.8209 45.8323 28.1698 46.2439 27.0914C47.1985 27.0895 50.4507 27.0931 50.8328 27.0936C50.2916 28.2848 49.0088 29.9837 48.1705 31.1114C47.4395 32.0943 46.8084 32.9432 46.438 33.5936C45.75 34.8019 45.8658 35.8788 46.5823 36.8287L46.5936 36.8434C46.9935 37.3524 47.981 38.2948 48.1858 38.4847C49.6697 39.9254 50.3848 40.9603 50.7252 41.6559H47.3045V41.6561Z" fill="white"/>
</g>
<defs>
<filter id="filter0_d" x="0" y="0" width="75" height="75" filterUnits="userSpaceOnUse" color-interpolation-filters="sRGB">
<feFlood flood-opacity="0" result="BackgroundImageFix"/>
<feColorMatrix in="SourceAlpha" type="matrix" values="0 0 0 0 0 0 0 0 0 0 0 0 0 0 0 0 0 0 127 0"/>
<feOffset dy="4"/>
<feGaussianBlur stdDeviation="5"/>
<feColorMatrix type="matrix" values="0 0 0 0 0 0 0 0 0 0 0 0 0 0 0 0 0 0 0.25 0"/>
<feBlend mode="normal" in2="BackgroundImageFix" result="effect1_dropShadow"/>
<feBlend mode="normal" in="SourceGraphic" in2="effect1_dropShadow" result="shape"/>
</filter>
<linearGradient id="paint0_linear" x1="37.5" y1="6" x2="37.5" y2="61" gradientUnits="userSpaceOnUse">
<stop stop-color="#219CF9"/>
<stop offset="1" stop-color="#4E50EA"/>
</linearGradient>
<clipPath id="clip0">
<rect width="32" height="31.9376" fill="white" transform="translate(21 18)"/>
</clipPath>
</defs>
</svg>
