<svg width="233" height="240" viewBox="0 0 233 240" fill="none" xmlns="http://www.w3.org/2000/svg">
<g filter="url(#filter0_d)">
<rect x="25" y="21" width="183" height="190" fill="#2A2B2F"/>
</g>
<path d="M148 79.0323V70.7495C148 68.4526 146.522 66.4657 144.322 65.8059L137.677 63.8125V62.2445C139.547 60.937 140.774 58.7722 140.774 56.3236V53.2258C140.774 49.2414 137.533 46 133.548 46C129.564 46 126.323 49.2414 126.323 53.2258V56.3226C126.323 58.7722 127.55 60.937 129.419 62.2434V63.8115L123.564 65.5685C121.366 63.6033 118.566 62.5161 115.593 62.5161C112.633 62.5161 109.924 63.6008 107.831 65.3881L102.581 63.8125V62.2445C104.45 60.937 105.677 58.7722 105.677 56.3236V53.2258C105.677 49.2414 102.436 46 98.4516 46C94.4672 46 91.2258 49.2414 91.2258 53.2258V56.3226C91.2258 58.7722 92.4531 60.937 94.3226 62.2434V63.8115L87.6779 65.8049C85.4783 66.4657 84 68.4526 84 70.7495V79.0323H86.0645V70.7495C86.0645 69.3715 86.9511 68.1789 88.2717 67.7838L94.9183 65.7893C95.5192 66.5696 96.6815 67.6774 98.4516 67.6774C100.222 67.6774 101.384 66.5696 101.985 65.7893L106.218 67.059C104.874 68.749 103.979 70.8059 103.708 73.0564C102.39 71.6557 100.523 70.7742 98.4516 70.7742C94.4672 70.7742 91.2258 74.0156 91.2258 78V81.0968C91.2258 83.5464 92.4531 85.7112 94.3226 87.0176V88.5857L87.6779 90.5791C85.4783 91.2399 84 93.2268 84 95.5237V104.839H96.3871C96.9556 104.839 97.4194 105.302 97.4194 105.871V110H134.581V105.871C134.581 105.302 135.044 104.839 135.613 104.839H148V95.5237C148 93.2268 146.522 91.2399 144.322 90.5801L137.677 88.5867V87.0186C139.547 85.7112 140.774 83.5464 140.774 81.0978V78.001C140.774 74.0166 137.533 70.7752 133.548 70.7752C131.527 70.7752 129.7 71.6114 128.387 72.9531V71.9748C128.387 69.936 127.279 68.1008 125.55 67.1305L130.015 65.7903C130.616 66.5696 131.778 67.6774 133.548 67.6774C135.319 67.6774 136.481 66.5696 137.082 65.7893L143.729 67.7838C145.049 68.1789 145.935 69.3715 145.935 70.7495V79.0323H148ZM98.4516 48.0645C101.297 48.0645 103.613 50.38 103.613 53.2258H98.879C98.2233 53.2258 97.5801 52.9597 97.1169 52.496L96.3871 51.7661L95.6573 52.496C95.1941 52.9597 94.5509 53.2258 93.8952 53.2258H93.2903C93.2903 50.38 95.6058 48.0645 98.4516 48.0645ZM93.2903 56.3226V55.2903H93.8952C94.7944 55.2903 95.6532 55.0323 96.3871 54.5504C97.121 55.0323 97.9798 55.2903 98.879 55.2903H103.613V56.3226C103.613 59.1683 101.297 61.4839 98.4516 61.4839C95.6058 61.4839 93.2903 59.1683 93.2903 56.3226ZM98.4516 65.6129C97.3543 65.6129 96.6431 64.691 96.3871 64.2969V63.245C97.0413 63.44 97.7344 63.5484 98.4516 63.5484C99.1688 63.5484 99.8619 63.44 100.516 63.244V64.2959C100.26 64.692 99.5489 65.6129 98.4516 65.6129ZM126.826 83.7308C127.352 85.066 128.259 86.2077 129.419 87.0186V88.5867L122.776 90.5801C122.557 90.6452 122.344 90.7298 122.137 90.8236L121.161 90.5988V88.565C122.265 87.6784 123.134 86.5141 123.668 85.1794C124.857 85.0751 125.972 84.569 126.826 83.7308ZM116 90.3871C117.095 90.3871 118.14 90.1683 119.097 89.7792V90.9032L116 93.2258L112.903 90.9032V89.7792C113.86 90.1683 114.905 90.3871 116 90.3871ZM111.636 92.5333L114.152 94.4214L111.564 95.9748L110.909 92.7016L111.636 92.5333ZM114.859 100.71H117.141L117.944 107.935H114.056L114.859 100.71ZM117.32 98.6452H114.679L114.086 96.8674L116 95.7198L117.913 96.8674L117.32 98.6452ZM117.848 94.4214L120.364 92.5333L121.091 92.7006L120.436 95.9738L117.848 94.4214ZM125.518 82.1477C125.16 82.5398 124.706 82.8145 124.214 82.9819C124.242 82.7011 124.258 82.4168 124.258 82.129V77.1895C125.369 77.6109 126.196 78.5882 126.307 79.756C126.392 80.6447 126.112 81.4929 125.518 82.1477ZM122.194 82.129C122.194 85.5449 119.416 88.3226 116 88.3226C112.584 88.3226 109.806 85.5449 109.806 82.129V76.9677H113.311C115.56 76.9677 117.749 76.4062 119.707 75.3337L120.523 76.9677H122.194V82.129ZM107.786 82.9819C107.294 82.8145 106.84 82.5398 106.482 82.1477C105.888 81.4939 105.608 80.6447 105.693 79.7571C105.804 78.5892 106.631 77.6109 107.742 77.1905V82.129C107.742 82.4168 107.758 82.7011 107.786 82.9819ZM108.332 85.1794C108.865 86.5141 109.734 87.6784 110.839 88.565V90.5988L109.863 90.8236C109.655 90.7298 109.443 90.6462 109.225 90.5801L102.581 88.5867V87.0186C103.74 86.2077 104.648 85.066 105.174 83.7308C106.028 84.569 107.143 85.0751 108.332 85.1794ZM98.4516 72.8387C101.297 72.8387 103.613 75.1542 103.613 78H103.008C102.352 78 101.709 77.7339 101.246 77.2702L100.516 76.5403L99.7863 77.2702C99.3231 77.7339 98.6799 78 98.0242 78H93.2903C93.2903 75.1542 95.6058 72.8387 98.4516 72.8387ZM93.2903 81.0968V80.0645H98.0242C98.9234 80.0645 99.7823 79.8064 100.516 79.3246C101.25 79.8064 102.109 80.0645 103.008 80.0645H103.613V81.0968C103.613 83.9425 101.297 86.2581 98.4516 86.2581C95.6058 86.2581 93.2903 83.9425 93.2903 81.0968ZM98.4516 88.3226C99.1688 88.3226 99.8619 88.2142 100.516 88.0181V89.0701C100.26 89.4662 99.5489 90.3871 98.4516 90.3871C97.3543 90.3871 96.6431 89.4652 96.3871 89.0711V88.0192C97.0413 88.2142 97.7344 88.3226 98.4516 88.3226ZM96.3871 102.774H92.2581V95.5484H90.1935V102.774H86.0645V95.5237C86.0645 94.1457 86.9511 92.9531 88.2717 92.558L94.9183 90.5635C95.5192 91.3438 96.6815 92.4516 98.4516 92.4516C100.222 92.4516 101.384 91.3438 101.985 90.5635L105.899 91.7384L103.02 92.4022C99.7223 93.1638 97.4194 96.0595 97.4194 99.443V100.71H99.4839V99.443C99.4839 97.0257 101.13 94.9582 103.485 94.4138L108.896 93.1648L110.113 99.251L112.273 97.9556L112.884 99.7888L111.979 107.935H106.71V99.6774H104.645V107.935H99.4839V105.871C99.4839 104.164 98.0943 102.774 96.3871 102.774ZM143.728 92.558C145.049 92.9531 145.935 94.1457 145.935 95.5237V102.774H141.806V95.5484H139.742V102.774H135.613C133.906 102.774 132.516 104.164 132.516 105.871V107.935H127.355V99.6774H125.29V107.935H120.021L119.115 99.7888L119.726 97.9556L121.886 99.251L123.103 93.1648L128.515 94.4138C130.87 94.9582 132.516 97.0257 132.516 99.443V100.71H134.581V99.443C134.581 96.0595 132.278 93.1638 128.98 92.4022L126.101 91.7384L130.015 90.5635C130.616 91.3438 131.778 92.4516 133.548 92.4516C135.319 92.4516 136.481 91.3438 137.082 90.5635L143.728 92.558ZM135.613 89.0711C135.357 89.4662 134.646 90.3871 133.548 90.3871C132.449 90.3871 131.737 89.4622 131.484 89.0711V88.0181C132.138 88.2142 132.831 88.3226 133.548 88.3226C134.266 88.3226 134.959 88.2142 135.613 88.0181V89.0711ZM133.548 86.2581C130.703 86.2581 128.387 83.9425 128.387 81.0968V80.0645H128.992C129.891 80.0645 130.75 79.8064 131.484 79.3246C132.218 79.8064 133.077 80.0645 133.976 80.0645H138.71V81.0968C138.71 83.9425 136.394 86.2581 133.548 86.2581ZM133.548 72.8387C136.394 72.8387 138.71 75.1542 138.71 78H133.976C133.32 78 132.677 77.7339 132.214 77.2702L131.484 76.5403L130.754 77.2702C130.291 77.7339 129.648 78 128.992 78H128.387C128.387 75.1542 130.703 72.8387 133.548 72.8387ZM126.323 76.0232C125.409 75.3317 124.275 74.9032 123.048 74.9032H121.799L120.53 72.3639L119.557 73.0121C117.7 74.25 115.541 74.9032 113.311 74.9032H108.952C107.725 74.9032 106.591 75.3317 105.677 76.0232V74.4965C105.677 69.0297 110.127 64.5806 115.593 64.5806C118.242 64.5806 120.733 65.6119 122.605 67.4844L123.701 68.5796L123.932 68.6573C125.361 69.1341 126.323 70.4667 126.323 71.9738V76.0232ZM133.548 48.0645C136.394 48.0645 138.71 50.38 138.71 53.2258H138.105C137.449 53.2258 136.806 52.9597 136.343 52.496L135.613 51.7661L134.883 52.496C134.42 52.9597 133.777 53.2258 133.121 53.2258H128.387C128.387 50.38 130.703 48.0645 133.548 48.0645ZM128.387 56.3226V55.2903H133.121C134.02 55.2903 134.879 55.0323 135.613 54.5504C136.347 55.0323 137.206 55.2903 138.105 55.2903H138.71V56.3226C138.71 59.1683 136.394 61.4839 133.548 61.4839C130.703 61.4839 128.387 59.1683 128.387 56.3226ZM133.548 65.6129C132.449 65.6129 131.737 64.688 131.484 64.2969V63.244C132.138 63.44 132.831 63.5484 133.548 63.5484C134.266 63.5484 134.959 63.44 135.613 63.244V64.2959C135.357 64.692 134.646 65.6129 133.548 65.6129Z" fill="url(#paint0_linear)"/>
<path d="M107.742 46H109.807V48.0645H107.742V46Z" fill="url(#paint1_linear)"/>
<path d="M107.742 50.1289H109.807V61.4837H107.742V50.1289Z" fill="url(#paint2_linear)"/>
<path d="M122.193 46H124.258V48.0645H122.193V46Z" fill="url(#paint3_linear)"/>
<path d="M122.193 50.1289H124.258V61.4837H122.193V50.1289Z" fill="url(#paint4_linear)"/>
<path d="M111.871 50.1289H113.936V57.3547H111.871V50.1289Z" fill="url(#paint5_linear)"/>
<path d="M111.871 59.4189H113.936V61.4835H111.871V59.4189Z" fill="url(#paint6_linear)"/>
<path d="M118.064 50.1289H120.129V57.3547H118.064V50.1289Z" fill="url(#paint7_linear)"/>
<path d="M118.064 59.4189H120.129V61.4835H118.064V59.4189Z" fill="url(#paint8_linear)"/>
<path d="M77.124 133.8V159H71.292V138.48H66.252V133.8H77.124ZM90.3577 133.368C93.8857 133.368 96.6457 134.448 98.6377 136.608C100.63 138.744 101.626 141.828 101.626 145.86C101.626 148.716 101.086 151.164 100.006 153.204C98.9497 155.244 97.4497 156.792 95.5057 157.848C93.5617 158.904 91.3177 159.432 88.7737 159.432C87.4297 159.432 86.1457 159.288 84.9217 159C83.6977 158.688 82.6537 158.256 81.7897 157.704L83.9497 153.42C85.1737 154.26 86.7457 154.68 88.6657 154.68C90.8017 154.68 92.4937 154.056 93.7417 152.808C94.9897 151.536 95.6617 149.712 95.7577 147.336C94.2457 148.848 92.1577 149.604 89.4937 149.604C87.8857 149.604 86.4217 149.28 85.1017 148.632C83.7817 147.984 82.7377 147.072 81.9697 145.896C81.2017 144.696 80.8177 143.316 80.8177 141.756C80.8177 140.076 81.2377 138.6 82.0777 137.328C82.9177 136.056 84.0577 135.084 85.4977 134.412C86.9617 133.716 88.5817 133.368 90.3577 133.368ZM90.7897 145.248C92.0617 145.248 93.0937 144.9 93.8857 144.204C94.7017 143.484 95.1097 142.572 95.1097 141.468C95.1097 140.364 94.7137 139.464 93.9217 138.768C93.1537 138.072 92.0857 137.724 90.7177 137.724C89.4697 137.724 88.4497 138.06 87.6577 138.732C86.8897 139.404 86.5057 140.316 86.5057 141.468C86.5057 142.62 86.8897 143.544 87.6577 144.24C88.4497 144.912 89.4937 145.248 90.7897 145.248ZM113.933 133.8V159H108.101V138.48H103.061V133.8H113.933ZM129.11 159.432C127.022 159.432 125.162 158.916 123.53 157.884C121.898 156.852 120.614 155.364 119.678 153.42C118.766 151.452 118.31 149.112 118.31 146.4C118.31 143.688 118.766 141.36 119.678 139.416C120.614 137.448 121.898 135.948 123.53 134.916C125.162 133.884 127.022 133.368 129.11 133.368C131.198 133.368 133.058 133.884 134.69 134.916C136.322 135.948 137.594 137.448 138.506 139.416C139.442 141.36 139.91 143.688 139.91 146.4C139.91 149.112 139.442 151.452 138.506 153.42C137.594 155.364 136.322 156.852 134.69 157.884C133.058 158.916 131.198 159.432 129.11 159.432ZM129.11 154.5C130.646 154.5 131.846 153.84 132.71 152.52C133.598 151.2 134.042 149.16 134.042 146.4C134.042 143.64 133.598 141.6 132.71 140.28C131.846 138.96 130.646 138.3 129.11 138.3C127.598 138.3 126.398 138.96 125.51 140.28C124.646 141.6 124.214 143.64 124.214 146.4C124.214 149.16 124.646 151.2 125.51 152.52C126.398 153.84 127.598 154.5 129.11 154.5ZM153.544 159.432C151.456 159.432 149.596 158.916 147.964 157.884C146.332 156.852 145.048 155.364 144.112 153.42C143.2 151.452 142.744 149.112 142.744 146.4C142.744 143.688 143.2 141.36 144.112 139.416C145.048 137.448 146.332 135.948 147.964 134.916C149.596 133.884 151.456 133.368 153.544 133.368C155.632 133.368 157.492 133.884 159.124 134.916C160.756 135.948 162.028 137.448 162.94 139.416C163.876 141.36 164.344 143.688 164.344 146.4C164.344 149.112 163.876 151.452 162.94 153.42C162.028 155.364 160.756 156.852 159.124 157.884C157.492 158.916 155.632 159.432 153.544 159.432ZM153.544 154.5C155.08 154.5 156.28 153.84 157.144 152.52C158.032 151.2 158.476 149.16 158.476 146.4C158.476 143.64 158.032 141.6 157.144 140.28C156.28 138.96 155.08 138.3 153.544 138.3C152.032 138.3 150.832 138.96 149.944 140.28C149.08 141.6 148.648 143.64 148.648 146.4C148.648 149.16 149.08 151.2 149.944 152.52C150.832 153.84 152.032 154.5 153.544 154.5Z" fill="white"/>
<path d="M72.98 178.316V188H70.172V180.62H66.14V188H63.35V178.316H72.98ZM79.4343 178.172C80.9343 178.172 82.0863 178.532 82.8903 179.252C83.6943 179.96 84.0963 181.034 84.0963 182.474V188H81.4683V186.794C80.9403 187.694 79.9563 188.144 78.5163 188.144C77.7723 188.144 77.1243 188.018 76.5723 187.766C76.0323 187.514 75.6183 187.166 75.3303 186.722C75.0423 186.278 74.8983 185.774 74.8983 185.21C74.8983 184.31 75.2343 183.602 75.9063 183.086C76.5903 182.57 77.6403 182.312 79.0563 182.312H81.2883C81.2883 181.7 81.1023 181.232 80.7303 180.908C80.3583 180.572 79.8003 180.404 79.0563 180.404C78.5403 180.404 78.0303 180.488 77.5263 180.656C77.0343 180.812 76.6143 181.028 76.2663 181.304L75.2583 179.342C75.7863 178.97 76.4163 178.682 77.1483 178.478C77.8923 178.274 78.6543 178.172 79.4343 178.172ZM79.2183 186.254C79.6983 186.254 80.1243 186.146 80.4963 185.93C80.8683 185.702 81.1323 185.372 81.2883 184.94V183.95H79.3623C78.2103 183.95 77.6343 184.328 77.6343 185.084C77.6343 185.444 77.7723 185.732 78.0483 185.948C78.3363 186.152 78.7263 186.254 79.2183 186.254ZM92.2415 178.172C93.1415 178.172 93.9575 178.382 94.6895 178.802C95.4335 179.21 96.0155 179.792 96.4355 180.548C96.8555 181.292 97.0655 182.162 97.0655 183.158C97.0655 184.154 96.8555 185.03 96.4355 185.786C96.0155 186.53 95.4335 187.112 94.6895 187.532C93.9575 187.94 93.1415 188.144 92.2415 188.144C91.0055 188.144 90.0335 187.754 89.3255 186.974V191.492H86.5175V178.316H89.1995V179.432C89.8955 178.592 90.9095 178.172 92.2415 178.172ZM91.7555 185.84C92.4755 185.84 93.0635 185.6 93.5195 185.12C93.9875 184.628 94.2215 183.974 94.2215 183.158C94.2215 182.342 93.9875 181.694 93.5195 181.214C93.0635 180.722 92.4755 180.476 91.7555 180.476C91.0355 180.476 90.4415 180.722 89.9735 181.214C89.5175 181.694 89.2895 182.342 89.2895 183.158C89.2895 183.974 89.5175 184.628 89.9735 185.12C90.4415 185.6 91.0355 185.84 91.7555 185.84ZM106.818 180.62H103.542V188H100.752V180.62H97.476V178.316H106.818V180.62ZM108.315 178.316H111.105V182.096H115.317V178.316H118.125V188H115.317V184.382H111.105V188H108.315V178.316ZM130.227 183.194C130.227 183.23 130.209 183.482 130.173 183.95H122.847C122.979 184.55 123.291 185.024 123.783 185.372C124.275 185.72 124.887 185.894 125.619 185.894C126.123 185.894 126.567 185.822 126.951 185.678C127.347 185.522 127.713 185.282 128.049 184.958L129.543 186.578C128.631 187.622 127.299 188.144 125.547 188.144C124.455 188.144 123.489 187.934 122.649 187.514C121.809 187.082 121.161 186.488 120.705 185.732C120.249 184.976 120.021 184.118 120.021 183.158C120.021 182.21 120.243 181.358 120.687 180.602C121.143 179.834 121.761 179.24 122.541 178.82C123.333 178.388 124.215 178.172 125.187 178.172C126.135 178.172 126.993 178.376 127.761 178.784C128.529 179.192 129.129 179.78 129.561 180.548C130.005 181.304 130.227 182.186 130.227 183.194ZM125.205 180.296C124.569 180.296 124.035 180.476 123.603 180.836C123.171 181.196 122.907 181.688 122.811 182.312H127.581C127.485 181.7 127.221 181.214 126.789 180.854C126.357 180.482 125.829 180.296 125.205 180.296ZM138.085 178.172C138.985 178.172 139.801 178.382 140.533 178.802C141.277 179.21 141.859 179.792 142.279 180.548C142.699 181.292 142.909 182.162 142.909 183.158C142.909 184.154 142.699 185.03 142.279 185.786C141.859 186.53 141.277 187.112 140.533 187.532C139.801 187.94 138.985 188.144 138.085 188.144C136.849 188.144 135.877 187.754 135.169 186.974V191.492H132.361V178.316H135.043V179.432C135.739 178.592 136.753 178.172 138.085 178.172ZM137.599 185.84C138.319 185.84 138.907 185.6 139.363 185.12C139.831 184.628 140.065 183.974 140.065 183.158C140.065 182.342 139.831 181.694 139.363 181.214C138.907 180.722 138.319 180.476 137.599 180.476C136.879 180.476 136.285 180.722 135.817 181.214C135.361 181.694 135.133 182.342 135.133 183.158C135.133 183.974 135.361 184.628 135.817 185.12C136.285 185.6 136.879 185.84 137.599 185.84ZM149.413 188.144C148.393 188.144 147.475 187.934 146.659 187.514C145.855 187.082 145.225 186.488 144.769 185.732C144.313 184.976 144.085 184.118 144.085 183.158C144.085 182.198 144.313 181.34 144.769 180.584C145.225 179.828 145.855 179.24 146.659 178.82C147.475 178.388 148.393 178.172 149.413 178.172C150.433 178.172 151.345 178.388 152.149 178.82C152.953 179.24 153.583 179.828 154.039 180.584C154.495 181.34 154.723 182.198 154.723 183.158C154.723 184.118 154.495 184.976 154.039 185.732C153.583 186.488 152.953 187.082 152.149 187.514C151.345 187.934 150.433 188.144 149.413 188.144ZM149.413 185.84C150.133 185.84 150.721 185.6 151.177 185.12C151.645 184.628 151.879 183.974 151.879 183.158C151.879 182.342 151.645 181.694 151.177 181.214C150.721 180.722 150.133 180.476 149.413 180.476C148.693 180.476 148.099 180.722 147.631 181.214C147.163 181.694 146.929 182.342 146.929 183.158C146.929 183.974 147.163 184.628 147.631 185.12C148.099 185.6 148.693 185.84 149.413 185.84ZM164.053 182.942C165.193 183.326 165.763 184.094 165.763 185.246C165.763 186.122 165.433 186.8 164.773 187.28C164.113 187.76 163.129 188 161.821 188H156.655V178.316H161.605C162.817 178.316 163.765 178.538 164.449 178.982C165.133 179.414 165.475 180.026 165.475 180.818C165.475 181.298 165.349 181.724 165.097 182.096C164.857 182.456 164.509 182.738 164.053 182.942ZM159.229 182.294H161.353C162.337 182.294 162.829 181.946 162.829 181.25C162.829 180.566 162.337 180.224 161.353 180.224H159.229V182.294ZM161.587 186.092C162.619 186.092 163.135 185.738 163.135 185.03C163.135 184.658 163.015 184.388 162.775 184.22C162.535 184.04 162.157 183.95 161.641 183.95H159.229V186.092H161.587Z" fill="#A8A2A2"/>
<defs>
<filter id="filter0_d" x="0" y="0" width="233" height="240" filterUnits="userSpaceOnUse" color-interpolation-filters="sRGB">
<feFlood flood-opacity="0" result="BackgroundImageFix"/>
<feColorMatrix in="SourceAlpha" type="matrix" values="0 0 0 0 0 0 0 0 0 0 0 0 0 0 0 0 0 0 127 0"/>
<feOffset dy="4"/>
<feGaussianBlur stdDeviation="12.5"/>
<feColorMatrix type="matrix" values="0 0 0 0 0 0 0 0 0 0 0 0 0 0 0 0 0 0 0.25 0"/>
<feBlend mode="normal" in2="BackgroundImageFix" result="effect1_dropShadow"/>
<feBlend mode="normal" in="SourceGraphic" in2="effect1_dropShadow" result="shape"/>
</filter>
<linearGradient id="paint0_linear" x1="116" y1="46" x2="116" y2="110" gradientUnits="userSpaceOnUse">
<stop stop-color="#219CF9"/>
<stop offset="1" stop-color="#4E50EA"/>
</linearGradient>
<linearGradient id="paint1_linear" x1="108.774" y1="46" x2="108.774" y2="48.0645" gradientUnits="userSpaceOnUse">
<stop stop-color="#219CF9"/>
<stop offset="1" stop-color="#4E50EA"/>
</linearGradient>
<linearGradient id="paint2_linear" x1="108.774" y1="50.1289" x2="108.774" y2="61.4837" gradientUnits="userSpaceOnUse">
<stop stop-color="#219CF9"/>
<stop offset="1" stop-color="#4E50EA"/>
</linearGradient>
<linearGradient id="paint3_linear" x1="123.226" y1="46" x2="123.226" y2="48.0645" gradientUnits="userSpaceOnUse">
<stop stop-color="#219CF9"/>
<stop offset="1" stop-color="#4E50EA"/>
</linearGradient>
<linearGradient id="paint4_linear" x1="123.226" y1="50.1289" x2="123.226" y2="61.4837" gradientUnits="userSpaceOnUse">
<stop stop-color="#219CF9"/>
<stop offset="1" stop-color="#4E50EA"/>
</linearGradient>
<linearGradient id="paint5_linear" x1="112.903" y1="50.1289" x2="112.903" y2="57.3547" gradientUnits="userSpaceOnUse">
<stop stop-color="#219CF9"/>
<stop offset="1" stop-color="#4E50EA"/>
</linearGradient>
<linearGradient id="paint6_linear" x1="112.903" y1="59.4189" x2="112.903" y2="61.4835" gradientUnits="userSpaceOnUse">
<stop stop-color="#219CF9"/>
<stop offset="1" stop-color="#4E50EA"/>
</linearGradient>
<linearGradient id="paint7_linear" x1="119.097" y1="50.1289" x2="119.097" y2="57.3547" gradientUnits="userSpaceOnUse">
<stop stop-color="#219CF9"/>
<stop offset="1" stop-color="#4E50EA"/>
</linearGradient>
<linearGradient id="paint8_linear" x1="119.097" y1="59.4189" x2="119.097" y2="61.4835" gradientUnits="userSpaceOnUse">
<stop stop-color="#219CF9"/>
<stop offset="1" stop-color="#4E50EA"/>
</linearGradient>
</defs>
</svg>
