<svg width="28" height="28" viewBox="0 0 28 28" fill="none" xmlns="http://www.w3.org/2000/svg">
<path fill-rule="evenodd" clip-rule="evenodd" d="M9.625 0C9.85706 0 10.0796 0.0921873 10.2437 0.256282C10.4078 0.420376 10.5 0.642936 10.5 0.875V7.875C10.5 8.57119 10.2234 9.23887 9.73116 9.73116C9.23887 10.2234 8.57119 10.5 7.875 10.5H0.875C0.642936 10.5 0.420376 10.4078 0.256282 10.2437C0.0921873 10.0796 0 9.85706 0 9.625C0 9.39294 0.0921873 9.17038 0.256282 9.00628C0.420376 8.84219 0.642936 8.75 0.875 8.75H7.875C8.10706 8.75 8.32962 8.65781 8.49372 8.49372C8.65781 8.32962 8.75 8.10706 8.75 7.875V0.875C8.75 0.642936 8.84219 0.420376 9.00628 0.256282C9.17038 0.0921873 9.39294 0 9.625 0V0ZM18.375 0C18.6071 0 18.8296 0.0921873 18.9937 0.256282C19.1578 0.420376 19.25 0.642936 19.25 0.875V7.875C19.25 8.10706 19.3422 8.32962 19.5063 8.49372C19.6704 8.65781 19.8929 8.75 20.125 8.75H27.125C27.3571 8.75 27.5796 8.84219 27.7437 9.00628C27.9078 9.17038 28 9.39294 28 9.625C28 9.85706 27.9078 10.0796 27.7437 10.2437C27.5796 10.4078 27.3571 10.5 27.125 10.5H20.125C19.4288 10.5 18.7611 10.2234 18.2688 9.73116C17.7766 9.23887 17.5 8.57119 17.5 7.875V0.875C17.5 0.642936 17.5922 0.420376 17.7563 0.256282C17.9204 0.0921873 18.1429 0 18.375 0V0ZM0 18.375C0 18.1429 0.0921873 17.9204 0.256282 17.7563C0.420376 17.5922 0.642936 17.5 0.875 17.5H7.875C8.57119 17.5 9.23887 17.7766 9.73116 18.2688C10.2234 18.7611 10.5 19.4288 10.5 20.125V27.125C10.5 27.3571 10.4078 27.5796 10.2437 27.7437C10.0796 27.9078 9.85706 28 9.625 28C9.39294 28 9.17038 27.9078 9.00628 27.7437C8.84219 27.5796 8.75 27.3571 8.75 27.125V20.125C8.75 19.8929 8.65781 19.6704 8.49372 19.5063C8.32962 19.3422 8.10706 19.25 7.875 19.25H0.875C0.642936 19.25 0.420376 19.1578 0.256282 18.9937C0.0921873 18.8296 0 18.6071 0 18.375ZM17.5 20.125C17.5 19.4288 17.7766 18.7611 18.2688 18.2688C18.7611 17.7766 19.4288 17.5 20.125 17.5H27.125C27.3571 17.5 27.5796 17.5922 27.7437 17.7563C27.9078 17.9204 28 18.1429 28 18.375C28 18.6071 27.9078 18.8296 27.7437 18.9937C27.5796 19.1578 27.3571 19.25 27.125 19.25H20.125C19.8929 19.25 19.6704 19.3422 19.5063 19.5063C19.3422 19.6704 19.25 19.8929 19.25 20.125V27.125C19.25 27.3571 19.1578 27.5796 18.9937 27.7437C18.8296 27.9078 18.6071 28 18.375 28C18.1429 28 17.9204 27.9078 17.7563 27.7437C17.5922 27.5796 17.5 27.3571 17.5 27.125V20.125Z" fill="#EBB47A"/>
</svg>
