<svg width="28" height="28" viewBox="0 0 28 28" fill="none" xmlns="http://www.w3.org/2000/svg">
<path d="M2.625 1.75C2.39294 1.75 2.17038 1.84219 2.00628 2.00628C1.84219 2.17038 1.75 2.39294 1.75 2.625V9.625C1.75 9.85706 1.65781 10.0796 1.49372 10.2437C1.32962 10.4078 1.10706 10.5 0.875 10.5C0.642936 10.5 0.420376 10.4078 0.256282 10.2437C0.0921873 10.0796 0 9.85706 0 9.625V2.625C0 1.92881 0.276562 1.26113 0.768845 0.768845C1.26113 0.276562 1.92881 0 2.625 0L9.625 0C9.85706 0 10.0796 0.0921873 10.2437 0.256282C10.4078 0.420376 10.5 0.642936 10.5 0.875C10.5 1.10706 10.4078 1.32962 10.2437 1.49372C10.0796 1.65781 9.85706 1.75 9.625 1.75H2.625ZM17.5 0.875C17.5 0.642936 17.5922 0.420376 17.7563 0.256282C17.9204 0.0921873 18.1429 0 18.375 0L25.375 0C26.0712 0 26.7389 0.276562 27.2312 0.768845C27.7234 1.26113 28 1.92881 28 2.625V9.625C28 9.85706 27.9078 10.0796 27.7437 10.2437C27.5796 10.4078 27.3571 10.5 27.125 10.5C26.8929 10.5 26.6704 10.4078 26.5063 10.2437C26.3422 10.0796 26.25 9.85706 26.25 9.625V2.625C26.25 2.39294 26.1578 2.17038 25.9937 2.00628C25.8296 1.84219 25.6071 1.75 25.375 1.75H18.375C18.1429 1.75 17.9204 1.65781 17.7563 1.49372C17.5922 1.32962 17.5 1.10706 17.5 0.875V0.875ZM0.875 17.5C1.10706 17.5 1.32962 17.5922 1.49372 17.7563C1.65781 17.9204 1.75 18.1429 1.75 18.375V25.375C1.75 25.6071 1.84219 25.8296 2.00628 25.9937C2.17038 26.1578 2.39294 26.25 2.625 26.25H9.625C9.85706 26.25 10.0796 26.3422 10.2437 26.5063C10.4078 26.6704 10.5 26.8929 10.5 27.125C10.5 27.3571 10.4078 27.5796 10.2437 27.7437C10.0796 27.9078 9.85706 28 9.625 28H2.625C1.92881 28 1.26113 27.7234 0.768845 27.2312C0.276562 26.7389 0 26.0712 0 25.375L0 18.375C0 18.1429 0.0921873 17.9204 0.256282 17.7563C0.420376 17.5922 0.642936 17.5 0.875 17.5V17.5ZM27.125 17.5C27.3571 17.5 27.5796 17.5922 27.7437 17.7563C27.9078 17.9204 28 18.1429 28 18.375V25.375C28 26.0712 27.7234 26.7389 27.2312 27.2312C26.7389 27.7234 26.0712 28 25.375 28H18.375C18.1429 28 17.9204 27.9078 17.7563 27.7437C17.5922 27.5796 17.5 27.3571 17.5 27.125C17.5 26.8929 17.5922 26.6704 17.7563 26.5063C17.9204 26.3422 18.1429 26.25 18.375 26.25H25.375C25.6071 26.25 25.8296 26.1578 25.9937 25.9937C26.1578 25.8296 26.25 25.6071 26.25 25.375V18.375C26.25 18.1429 26.3422 17.9204 26.5063 17.7563C26.6704 17.5922 26.8929 17.5 27.125 17.5Z" fill="#EBB47A"/>
</svg>
