<svg xmlns="http://www.w3.org/2000/svg" viewBox="0 0 207.99 97.29"><defs><style>.cls-1{fill:#fff;}</style></defs><title>Ресурс 2</title><g id="Слой_2" data-name="Слой 2"><g id="Layer_1" data-name="Layer 1"><path class="cls-1" d="M133.54,20.14a29.6,29.6,0,0,1,11.36.77c3.18.77,7.63,2.24,10.87,1.12,3.4-1.2,5.14-7.46,3.4-8.36-1.44,1,2.27,6.32-6.33,5.44-6.69-.68-15.15-3.42-21.29-.52a7.18,7.18,0,0,0-3.37,2.73c-.69,1.2-1.58,3.58-.88,4.84,2.52.06-1.35-4.67,6.25-6"/><path class="cls-1" d="M167,38c-.86,1.42-5.42,1.23-5.28-2.3.06-1.34,2.13-2.32,3.32-2.82,2.29-.9,4.09,1.61,2,5.11m-11.34,6.64c-3.29-2.51,2.57-6,4.12-8.17a5,5,0,0,0,1.6,3.12c1,.77,2.38.77,3.54,1-.86,1.78-6.83,6-9.26,4.1m-9.81,14.54c0-2.16,5.09-12.06,6.61-14,1,.38,1.22,1.69,4.78,1.12A19.82,19.82,0,0,0,161.82,45c-.72,1.59-12.91,13.07-16,14.16m5.61,2.65c.75-.68,4.42-4.62,5.34-2.6,1.63,3.69-7.24,9.54-9.9,7.08a46.84,46.84,0,0,1,4.56-4.48M110.09,38.6c-1.24-1-3.07-2.76-3.51-4.48-.22-.9.64-1.89,1.24-2.51,1.3-1.37,1.46-.66,2.6-1.34-.39-2.62-3.4-1.72-4.51-.25-.52-4.13,4-9.4,5.81-3.28,1.11,3.75-.14,10.17-1.63,11.86m-6.86,5.77c-1.05-1.34,1.27-7.3,2.18-8.42.66.68,1.13,1.56,1.77,2.19s1.66,1.15,2.24,1.78c-.39,1.31-4.73,6.26-6.19,4.46m-45-5.79a9.83,9.83,0,0,1-3.43-4.29c-.36-1.07.39-1.78,1.08-2.62.94-1.15,1.19-.93,2.63-1.2l-.11-1.2c-1.49-1.17-3.24-.57-4.34.71-.77-3.91,4-9.32,5.81-3.2A13.3,13.3,0,0,1,60,33.27c-.28,1.26-1.08,4.48-1.82,5.3m-6.86,5.82c-1.08-1.28,1.24-7.35,2.21-8.47a26,26,0,0,0,1.8,2.19c.75.74,1.52,1.15,2.18,1.83-.44,1.23-4.73,6.23-6.19,4.46M4.12,72.3c-2.4-2.84.47-9,2.29-11.59A39.07,39.07,0,0,1,24.58,47c2.93-1.12,10.53-3.14,13.52-3-1.77,9-28.37,35.59-34,28.24M195.63,30.2c.8-1.23,2.63-4,4.31-3,1,2.76-4.59,7.76-6.83,8.28a17.16,17.16,0,0,1,2.52-5.28M199,43.05c-5.7,2.57-8.57.36-6.61-5.69,3.15-1.67,5.72-3.23,7.88-5.85,1-1.23,2.35-2.68,2.4-4.43.08-2.62-2.21-2.84-4.23-2.21-3,1-5.45,4-7.13,6.59A19.75,19.75,0,0,0,189.16,36c-.83,2.87-.86,2.24-2.63,4.32-1.33,1.58-6.08,6-8.65,4.51s.33-8.34,1.41-10.42c.69-1.31,2.46-3.25,1.8-4.7A1.87,1.87,0,0,0,179,28.65c-1.49.44-1.71,3.47-4.62,5.93-.8.68-3.26,2.46-4.26,2.51,1.24-4.37.28-9.16-5.45-7.33-3.46,1.09-5.64,4.07-8,6.31,1.19-4.48,7.47-11,6.88-12.63-.28-.79-1.91-2.1-2.79-1.91-1.36.3-5.25,7.82-5.83,9.08-.94,2.05-1.85,5.14-3.1,6.78-3.32,4.37-9.71,10.06-9.46,1.23.05-2,1.66-7.55.22-8.88-2.52-.63-4.53,3-5.86,4.67-1.52,2-3.07,4.13-4.53,6C132.1,36.3,135.06,27,133.4,26c-2.21-1.28-5.25,3.72-6.77,5.77L121.21,39c.28-1.15.58-1.78.91-2.84.64-2.19,2.88-7.85,2.65-9.51a2.48,2.48,0,0,0-2.52.6c-.91.74-.89,1.34-1.11,2.46-.39,1.91-.8,3.72-1.33,5.6-.69,2.38-.39,3.12-2.71,4.24-1.66.79-4.18,1.12-5.69-.08.47-1.83,2.54-4.57,3.21-9,.42-2.84-.11-8.28-3.9-8.34-3.26,0-5.67,3.2-6.47,6-.5,1.75.14,3.88-.8,5.3-.3.47-.58,1-.86,1.48-1.69.68-3.51,3.39-4.37,4.46a24.45,24.45,0,0,1-3.57,3.58C88.55,47.51,85.1,43,89.71,34c.75-1.45,1.91-3.28,2.54-4.62,1-2.19-1.16-3.85-3.24-1.94a44.19,44.19,0,0,0-3.37,3.8C82,35.37,82.39,35.13,79.32,39c-7.13,9-10,5.82-7.6-1.26.36-1,.72-1.56-.3-2.32-2.6-1.94-3.79,2.27-4,2.49a7.74,7.74,0,0,1-2.07,1.5c-1.66.82-4.31,1.26-5.83,0,.53-2.1,3.12-5.77,3.35-10.44.39-8.06-6.39-9.49-9.84-2.65A11.18,11.18,0,0,0,52.11,29c-.19,1.18.06,2.9-.08,3.5-.06.22-2.1,3.77-2.43,4.51A19.24,19.24,0,0,0,48,42.59c-3.93-.6-4.51-.3-6.53-.55.19-2.27.83-4.87-1.13-6.67-1.77-1.61-4.37-1.48-6.61-1.67,6.19-4,19-13.75,18.41-21.92-.3-4.21-3.29-5.93-7.22-6.56C35.5,3.72,21.37,8.55,13.1,13.67c-1.55,1-7.8,5.93-4,7.49A47.16,47.16,0,0,0,13,18a62.16,62.16,0,0,1,14-7.74c4.53-1.8,20.35-6.75,22.09.25,1.93,7.79-13.93,19.35-19.66,23.13a17.33,17.33,0,0,1-5.12,2.08c-1.55.46-4.31,1.64-3.46,3.66,1,1.17,12.11-5.9,17.17-2.79,1.74,1.07,1.27,4,.44,5.58-2.32.52-5.31.6-7.94,1.17C19.85,45.68,9,51.85,3.26,61.37c-2,3.28-5.17,10.36-1.74,13.53,9.1,8.36,31.13-17.52,36.08-25.23L41,43.82a15.33,15.33,0,0,1,7.05.55c.44,1.34.58,2.11,2.18,2.38,4.45.79,7.22-4.43,8.65-5.82,4.53,1.67,5.22.27,8.6-1.18.08,2.63.28,5.85,3.46,6.26,2.68.33,5.09-1.5,6.77-3.17,1.24-1.23,8.29-9.49,8.79-10.58-1,3.42-1.91,4.46-1.85,8.47.06,8.26,7.66,6.78,11.89,2.49a69.62,69.62,0,0,0,4.67-5.79c-.44,2.46-3.51,9.43,1.69,9.4,3.93,0,5.94-3.72,7.85-5.88,3.54.88,4.26.88,7.41-.44-.25,1.59-2.35,4.48-.64,5.63,1.27-.49,9.65-14.92,12.83-16.48.58,3.06-2.85,13.2-1.11,15.8,2.43,1,4-3.39,5.14-5.19.94-1.53,3.43-5.36,4.73-6,.47,2.54-.8,10.72,3.6,11.15,4,.41,8.71-5.63,9.18-6.07.17,3-.06,3.36-1.55,5.66-2.71,4.18-5.28,8.72-7.6,13.2-1.6,3.14-8.65,17.22-7.8,19.85a4.05,4.05,0,0,0,3.51,0c1.05-2.3.77-3.36,2.6-5.74a39.86,39.86,0,0,1,3.9-4.32c.53,3.42,3.76,8.75,6.83,10.39,5.12,2.76,9.18-3.83,11.23-4.67.33,1.37.41,3.23,2.18,3.55,3.48.63,7.38-5.25,9-7.82-.25,3-2.07,5-.17,8.5,2.63,4.78,10.4.11,13.57-3.8C188.45,73,192,69,191.1,67.65c-1.24.6-5.47,7.93-10.26,9.84-4,1.61-5.17-1.23-4.29-4.7.75-3,3.1-7.46,4.73-10.39.64-1.15,1.46-2.54-.08-3.42-2.18-1.31-3.76,3.12-4.81,4.87-1.27,2.1-2.57,4.15-4,6.18-1.22,1.75-3.26,4.86-5.69,4.45-2.24-1.26-.44-4.35.36-6.4.64-1.5,3.79-5.58,3-5.88-3.87-1.89-6.39,6.1-7,8.86-.39,1.72-6.55,6.78-10.73,4-1.85-1.2-3.59-4.76-3.73-7a16.18,16.18,0,0,0,9.68-4.48c4.34-4,3.24-14.24-9.68-1.39-1.3,1.26-6.19,6.48-7.27,7.08a24.91,24.91,0,0,1,2.35-5.88c.91-1.23,3.71-3.06,4.53-3.69,3.1-2.41,6.11-5.08,9-7.71a70.32,70.32,0,0,0,7.93-8.47c.39-.52,3.73-4.1,4-4.24.91-.49,1.88-.82,2.82-1.37s1.8-1.07,2.54-1.53c-.5,2.08-4,11.29,3.9,10.63,3.43-.27,8.35-4.65,10.06-7.11.61,2.27.36,4.48,3.1,5.55,4.67,1.83,11.72-2.79,14.79-6.21,1.05-1.18,1.52-1.28,1.58-2.87v-.19c-1.74.63-3.79,4.51-9,6.83"/><path class="cls-1" d="M109.32,59.54c2.07,2-4.59,7.85-6.8,8.42.36-2,3.93-9.35,6.8-8.42m20.51,14.63c-2.32,1.8-7.3,3.83-9.76,1.34-4.7-4.73,4.4-18.53,8.4-13.61.61.76-1.49,3.12-.39,3.39,1.6.14,2.27-1.8,2.88-3,2.18-4.24-2.52-6-9.07-.57-5,4.13-4.26,6.53-7.44,9.81C111,75,100,80.89,101.35,71.89c.39-2.71.44-1.83,2.54-3.09,8-4.76,10.78-12.19,5.58-11.84S99.61,64.54,98.4,69c-.55,2.08-.08,2.41-1.85,4a25.6,25.6,0,0,1-3,2.65c-3.1,2.11-6.75,1.64-6.33-2.87.53-5.58,5-10.8,4.95-12.38,0-1.91-2.13-2.24-3.4-1-2,1.86-3.68,4.13-5.5,6.07l-5.47,5.88c.39-2.68,3.9-10.28,3.51-12.38a2.86,2.86,0,0,0-2.49.63c-.94.68-.94,1.31-1.19,2.41a108.24,108.24,0,0,1-3,11.32c-.52,1.61-2.35,4.81-.94,5.33.86.25,1.27-.87,1.85-1.72l4.26-5.85c1.24-1.53,5.14-6.37,6.52-7-1.6,3.61-4,11.43,0,14.08,2.13,1.45,5.06.63,7.08-.49s3.21-2.62,4.73-4.1c2.13,11.18,16.76.05,17.58-1.48.33,2.76.47,5.11,3.48,6.21,8.13,3,17.58-8.58,17.72-10.2-1.44-.27-3.84,3.61-7,6.07"/><path class="cls-1" d="M179,87.61h.76a1.11,1.11,0,0,1,.66.16.62.62,0,0,1,.21.53.6.6,0,0,1-.23.53,1.19,1.19,0,0,1-.69.16H179Zm.89,2a1.51,1.51,0,0,1,.4,0,.74.74,0,0,1,.27.13.53.53,0,0,1,.15.21.74.74,0,0,1,0,.28.86.86,0,0,1,0,.28.58.58,0,0,1-.15.23.72.72,0,0,1-.27.16,1.28,1.28,0,0,1-.42.06H179V89.6Zm0,2.09a2.4,2.4,0,0,0,.74-.11,1.62,1.62,0,0,0,.54-.29,1.24,1.24,0,0,0,.34-.44,1.36,1.36,0,0,0,.12-.56q0-.84-1-1.06A1.61,1.61,0,0,0,181,89a1.12,1.12,0,0,0,.26-.24.94.94,0,0,0,.15-.29,1,1,0,0,0,.05-.32,1.34,1.34,0,0,0-.1-.53,1,1,0,0,0-.31-.4,1.54,1.54,0,0,0-.55-.26,3.16,3.16,0,0,0-.8-.09H178.1v4.77ZM176.2,90a1.48,1.48,0,0,1-.3.53,1.3,1.3,0,0,1-.47.33,1.76,1.76,0,0,1-1.26,0,1.31,1.31,0,0,1-.47-.33,1.48,1.48,0,0,1-.3-.53,2.42,2.42,0,0,1,0-1.41,1.5,1.5,0,0,1,.3-.53,1.3,1.3,0,0,1,.47-.33,1.76,1.76,0,0,1,1.26,0,1.29,1.29,0,0,1,.47.33,1.5,1.5,0,0,1,.3.53,2.39,2.39,0,0,1,0,1.41m.94-1.37a2.42,2.42,0,0,0-.23-.59,2.29,2.29,0,0,0-.36-.49,2.19,2.19,0,0,0-.48-.37,2.41,2.41,0,0,0-.59-.24,2.68,2.68,0,0,0-.68-.08,2.57,2.57,0,0,0-1,.18,2.25,2.25,0,0,0-.76.51,2.29,2.29,0,0,0-.49.77,2.79,2.79,0,0,0,0,1.94,2.3,2.3,0,0,0,.49.77,2.25,2.25,0,0,0,.76.51,2.76,2.76,0,0,0,2,0,2.22,2.22,0,0,0,.76-.51,2.28,2.28,0,0,0,.49-.77,2.66,2.66,0,0,0,.17-1,2.77,2.77,0,0,0-.08-.67m-8.81-1.72v.73h1.44v4h.89v-4h1.44v-.73Zm-.73,0h-.89V89h-2.24V86.92h-.89v4.77h.89V89.61h2.24v2.09h.89Zm-7.92,0v4.77h3V91h-2.12V89.64h1.67V89h-1.67V87.63h2.12v-.71Zm-3.94,2.79-1.43-2.65-.05-.08-.06,0-.08,0h-.77v4.77h.78V88.61c0-.06,0-.12,0-.19s0-.14,0-.21l1.46,2.72a.33.33,0,0,0,.31.2H156a.33.33,0,0,0,.31-.2l1.44-2.71c0,.07,0,.14,0,.21s0,.13,0,.19v3.08h.78V86.92h-.77l-.08,0-.07,0-.06.08-1.41,2.64-.1.22-.1.24-.09-.23-.1-.22m-5.49-1.4c0-.07.06-.16.09-.25l.09-.31.09.31c0,.1.06.18.09.25l.58,1.59h-1.52Zm.63-1.39H150l-1.87,4.77h.69a.29.29,0,0,0,.19-.06.32.32,0,0,0,.1-.14l.36-1h2l.36,1a.36.36,0,0,0,.11.14.29.29,0,0,0,.19.06h.69Zm-6.24,0v.73h1.44v4H147v-4h1.44v-.73Zm-2.86.69h.66a1.44,1.44,0,0,1,.43.06.82.82,0,0,1,.3.17.7.7,0,0,1,.18.26,1,1,0,0,1,.06.35,1.07,1.07,0,0,1-.06.36.71.71,0,0,1-.18.28.79.79,0,0,1-.3.18,1.33,1.33,0,0,1-.43.06h-.66Zm.66,2.4a2.59,2.59,0,0,0,.81-.11,1.62,1.62,0,0,0,.58-.32,1.33,1.33,0,0,0,.35-.5,1.7,1.7,0,0,0,.12-.63,1.65,1.65,0,0,0-.11-.61,1.23,1.23,0,0,0-.34-.48,1.59,1.59,0,0,0-.58-.31,2.72,2.72,0,0,0-.83-.11H140.9v4.77h.89V90Zm-4.64-1.7c0-.07.06-.16.09-.25l.09-.31.09.31c0,.1.06.18.09.25l.58,1.59h-1.52Zm.63-1.39h-.91l-1.87,4.77h.69a.29.29,0,0,0,.19-.06.31.31,0,0,0,.1-.14l.36-1h2l.36,1a.35.35,0,0,0,.11.14.29.29,0,0,0,.19.06h.69Zm-3.37,0h-3.86v4.77h.89V87.61h2.07v4.09h.9Zm-7,1.39c0-.07.06-.16.09-.25l.09-.31.09.31c0,.1.06.18.09.25l.58,1.59h-1.52Zm.63-1.39h-.91L126,91.69h.69a.29.29,0,0,0,.19-.06.32.32,0,0,0,.1-.14l.36-1h2l.36,1a.36.36,0,0,0,.11.14.29.29,0,0,0,.19.06h.69Zm-5,3.66-.07,0a1.41,1.41,0,0,1-.22.17,1.19,1.19,0,0,1-.23.11L123,91l-.33,0a1.42,1.42,0,0,1-.57-.11,1.32,1.32,0,0,1-.46-.33,1.59,1.59,0,0,1-.31-.53,2.08,2.08,0,0,1-.11-.72,2.2,2.2,0,0,1,.11-.71,1.51,1.51,0,0,1,.3-.53,1.27,1.27,0,0,1,.46-.33,1.47,1.47,0,0,1,.58-.11,1.81,1.81,0,0,1,.33,0l.25.07.19.09.14.09.12.07.1,0a.19.19,0,0,0,.11,0l.07-.07.3-.41a2.2,2.2,0,0,0-.69-.45,2.35,2.35,0,0,0-.93-.17,2.48,2.48,0,0,0-1,.18,2.17,2.17,0,0,0-.74.5,2.25,2.25,0,0,0-.48.77,2.74,2.74,0,0,0-.17,1,2.89,2.89,0,0,0,.16,1,2.2,2.2,0,0,0,.46.77,2.12,2.12,0,0,0,.72.5,2.41,2.41,0,0,0,1,.18,2.47,2.47,0,0,0,1-.19,1.93,1.93,0,0,0,.71-.55l-.35-.38a.18.18,0,0,0-.13-.06l-.08,0M117,86.92h-.89v4.77H117V89.6h.68l.12,0,.1.07a.51.51,0,0,1,.08.11l1,1.6a.66.66,0,0,0,.16.2.33.33,0,0,0,.21.07h.81l-1.25-2a1.37,1.37,0,0,0-.26-.33.85.85,0,0,0-.33-.18.92.92,0,0,0,.24-.13.8.8,0,0,0,.19-.21l1.3-1.91h-.76a.35.35,0,0,0-.21.07.62.62,0,0,0-.16.17l-1,1.54a.48.48,0,0,1-.18.17.55.55,0,0,1-.24,0H117Zm-4.78,0v4.77h3V91H113.1V89.64h1.67V89H113.1V87.63h2.12v-.71Zm-4.19,0q0,.72-.06,1.27t-.1,1c0,.28-.08.52-.12.72a3.8,3.8,0,0,1-.15.51,1.53,1.53,0,0,1-.16.33.78.78,0,0,1-.17.19.46.46,0,0,1-.18.08l-.17,0h-.25v.55c0,.05,0,.1.11.13a1,1,0,0,0,.35,0,1.59,1.59,0,0,0,.43-.06,1,1,0,0,0,.38-.22,1.56,1.56,0,0,0,.33-.45,3.61,3.61,0,0,0,.27-.75,9.24,9.24,0,0,0,.2-1.11q.08-.66.13-1.55h1.3v4.09H111V86.92Zm-2,0h-3.86v4.77h.89V87.61h2.07v4.09H106Zm-7.8,2.79-1.43-2.65L96.76,87l-.06,0-.08,0h-.77v4.77h.78V88.61c0-.06,0-.12,0-.19s0-.14,0-.21l1.46,2.72a.33.33,0,0,0,.31.2h.13a.33.33,0,0,0,.31-.2l1.44-2.71c0,.07,0,.14,0,.21s0,.13,0,.19v3.08H101V86.92h-.77l-.08,0-.06,0-.06.08-1.41,2.64-.1.22-.1.24-.09-.23-.1-.22m-4.29.3a1.48,1.48,0,0,1-.3.53,1.3,1.3,0,0,1-.47.33,1.76,1.76,0,0,1-1.26,0,1.31,1.31,0,0,1-.48-.33,1.47,1.47,0,0,1-.3-.53,2.39,2.39,0,0,1,0-1.41,1.49,1.49,0,0,1,.3-.53,1.3,1.3,0,0,1,.48-.33,1.76,1.76,0,0,1,1.26,0,1.29,1.29,0,0,1,.47.33,1.5,1.5,0,0,1,.3.53,2.39,2.39,0,0,1,0,1.41m.94-1.37a2.42,2.42,0,0,0-.23-.59,2.29,2.29,0,0,0-.36-.49,2.21,2.21,0,0,0-.48-.37,2.41,2.41,0,0,0-.59-.24,2.69,2.69,0,0,0-.68-.08,2.57,2.57,0,0,0-1,.18,2.24,2.24,0,0,0-.76.51,2.27,2.27,0,0,0-.49.77,2.79,2.79,0,0,0,0,1.94,2.29,2.29,0,0,0,.49.77,2.24,2.24,0,0,0,.76.51,2.76,2.76,0,0,0,2,0,2.22,2.22,0,0,0,.76-.51,2.3,2.3,0,0,0,.49-.77,2.68,2.68,0,0,0,.17-1,2.83,2.83,0,0,0-.08-.67M86.8,86.92h-.89v4.77h.89V89.6h.68l.12,0,.1.07a.54.54,0,0,1,.08.11l1,1.6a.64.64,0,0,0,.16.2.33.33,0,0,0,.21.07H90l-1.25-2a1.4,1.4,0,0,0-.26-.33.85.85,0,0,0-.33-.18.94.94,0,0,0,.24-.13.8.8,0,0,0,.19-.21l1.3-1.91h-.76a.35.35,0,0,0-.22.07.63.63,0,0,0-.15.17l-1,1.54a.48.48,0,0,1-.19.17.55.55,0,0,1-.23,0H86.8Zm-5.72-.71a.27.27,0,0,1-.13-.08.35.35,0,0,1-.07-.16,1.34,1.34,0,0,1,0-.25h-.48a.13.13,0,0,0-.13.07.31.31,0,0,0,0,.16.58.58,0,0,0,.08.3.63.63,0,0,0,.22.22,1.15,1.15,0,0,0,.34.13,2.19,2.19,0,0,0,.88,0,1.14,1.14,0,0,0,.34-.13.62.62,0,0,0,.22-.22.57.57,0,0,0,.08-.3.32.32,0,0,0,0-.16.14.14,0,0,0-.13-.07h-.48a1.33,1.33,0,0,1,0,.25.34.34,0,0,1-.07.16.27.27,0,0,1-.13.08l-.21,0-.21,0M80.38,90c-.05.08-.1.18-.15.28a3.23,3.23,0,0,0-.14.34c0-.14,0-.27,0-.4s0-.24,0-.36v-3h-.89v4.77h.67l.12,0,.11-.06.09-.09.07-.1,1.82-2.84c0-.08.1-.17.15-.28a3.44,3.44,0,0,0,.14-.34c0,.14,0,.27,0,.39s0,.24,0,.35v3h.89V86.92h-.67l-.12,0-.11.06-.09.09-.07.1Zm-2.31-3.12h-.89v4.77h.89Zm-3.33,2.67a1.46,1.46,0,0,1,.41,0,.72.72,0,0,1,.27.14.51.51,0,0,1,.14.22,1,1,0,0,1,0,.29.89.89,0,0,1,0,.28.54.54,0,0,1-.14.22.74.74,0,0,1-.27.15,1.36,1.36,0,0,1-.42.05H74V89.59Zm-1.67-2.67v4.77h1.66a2.4,2.4,0,0,0,.74-.11,1.56,1.56,0,0,0,.55-.3,1.3,1.3,0,0,0,.34-.47,1.54,1.54,0,0,0,.12-.61,1.34,1.34,0,0,0-.1-.51,1.09,1.09,0,0,0-.31-.42,1.52,1.52,0,0,0-.54-.28,2.73,2.73,0,0,0-.8-.1H74v-2Zm-1.16,0H71V89H68.78V86.92h-.89v4.77h.89V89.61H71v2.09h.89Zm-7.36-.71a.27.27,0,0,1-.13-.08.34.34,0,0,1-.07-.16,1.25,1.25,0,0,1,0-.25h-.48a.14.14,0,0,0-.13.07.31.31,0,0,0,0,.16.58.58,0,0,0,.08.3.63.63,0,0,0,.22.22,1.15,1.15,0,0,0,.34.13,2.2,2.2,0,0,0,.89,0,1.15,1.15,0,0,0,.34-.13.62.62,0,0,0,.22-.22.57.57,0,0,0,.08-.3.32.32,0,0,0,0-.16.14.14,0,0,0-.13-.07h-.48a1.33,1.33,0,0,1,0,.25.34.34,0,0,1-.07.16.27.27,0,0,1-.13.08l-.21,0-.21,0M63.85,90a3.18,3.18,0,0,0-.15.28,3.24,3.24,0,0,0-.14.34q0-.21,0-.4c0-.13,0-.24,0-.36v-3H62.7v4.77h.67l.12,0,.11-.06.09-.09.07-.1,1.83-2.84c0-.08.1-.17.15-.28s.1-.22.14-.34c0,.14,0,.27,0,.39s0,.24,0,.35v3h.89V86.92h-.67l-.12,0-.11.06-.09.09-.07.1Zm-5-3.12v4.77h3V91H59.7V89.64h1.67V89H59.7V87.63h2.12v-.71Zm-3.94,2.79-1.43-2.65L53.39,87l-.06,0-.08,0h-.77v4.77h.78V88.61c0-.06,0-.12,0-.19s0-.14,0-.21l1.46,2.72a.33.33,0,0,0,.31.2h.13a.33.33,0,0,0,.31-.2l1.44-2.71c0,.07,0,.14,0,.21s0,.13,0,.19v3.08h.78V86.92h-.77l-.08,0-.06,0-.06.08-1.41,2.64-.11.22-.1.24L55,89.93l-.1-.22m-6.29-2.79v4.77h3V91H49.47V89.64h1.67V89H49.47V87.63h2.12v-.71Zm-1.26,3.66-.07,0a1.46,1.46,0,0,1-.22.17,1.17,1.17,0,0,1-.23.11l-.27.06-.33,0a1.42,1.42,0,0,1-.57-.11,1.31,1.31,0,0,1-.46-.33,1.57,1.57,0,0,1-.31-.53,2.08,2.08,0,0,1-.11-.72,2.2,2.2,0,0,1,.11-.71,1.51,1.51,0,0,1,.3-.53,1.27,1.27,0,0,1,.46-.33,1.47,1.47,0,0,1,.59-.11,1.79,1.79,0,0,1,.33,0l.25.07.19.09.15.09.12.07.1,0a.19.19,0,0,0,.11,0l.07-.07.3-.41a2.23,2.23,0,0,0-.69-.45,2.36,2.36,0,0,0-.93-.17,2.48,2.48,0,0,0-1,.18,2.19,2.19,0,0,0-.74.5,2.27,2.27,0,0,0-.48.77,2.74,2.74,0,0,0-.17,1,2.89,2.89,0,0,0,.16,1,2.22,2.22,0,0,0,.46.77,2.11,2.11,0,0,0,.72.5,2.4,2.4,0,0,0,1,.18,2.47,2.47,0,0,0,1-.19,1.92,1.92,0,0,0,.71-.55l-.35-.38a.18.18,0,0,0-.13-.06l-.08,0"/><polygon class="cls-1" points="192.4 97.3 32.24 97.3 32.24 62.81 33.24 62.81 33.24 96.3 191.4 96.3 191.4 51.46 192.4 51.46 192.4 97.3"/><polygon class="cls-1" points="192.4 20.21 191.4 20.21 191.4 1 33.24 1 33.24 3.12 32.24 3.12 32.24 0 192.4 0 192.4 20.21"/></g></g></svg>