<svg width="26" height="26" viewBox="0 0 26 26" fill="none" xmlns="http://www.w3.org/2000/svg">
<g clip-path="url(#clip0_57_19)">
<path d="M13 7.92188C11.9956 7.92188 11.0138 8.2197 10.1787 8.77769C9.34365 9.33569 8.69278 10.1288 8.30843 11.0567C7.92407 11.9846 7.82351 13.0056 8.01945 13.9907C8.21539 14.9758 8.69904 15.8806 9.40923 16.5908C10.1194 17.301 11.0242 17.7846 12.0093 17.9805C12.9944 18.1765 14.0154 18.0759 14.9433 17.6916C15.8712 17.3072 16.6643 16.6563 17.2223 15.8213C17.7803 14.9862 18.0781 14.0044 18.0781 13C18.0781 11.6532 17.5431 10.3616 16.5908 9.40922C15.6384 8.45689 14.3468 7.92188 13 7.92188ZM13 16.8594C12.2367 16.8594 11.4905 16.633 10.8558 16.209C10.2212 15.7849 9.72651 15.1821 9.4344 14.4769C9.1423 13.7717 9.06587 12.9957 9.21478 12.2471C9.3637 11.4984 9.73127 10.8108 10.271 10.271C10.8108 9.73127 11.4984 9.3637 12.2471 9.21478C12.9957 9.06587 13.7717 9.1423 14.4769 9.4344C15.1821 9.72651 15.7849 10.2212 16.209 10.8558C16.633 11.4905 16.8594 12.2367 16.8594 13C16.8594 14.0236 16.4528 15.0052 15.729 15.729C15.0052 16.4528 14.0236 16.8594 13 16.8594V16.8594Z" fill="#EBB47A"/>
<path d="M24.5781 9.75H22.7642C22.722 9.74969 22.6809 9.73621 22.6467 9.71146C22.6125 9.6867 22.5868 9.65189 22.5733 9.61187C22.4552 9.27659 22.3196 8.94775 22.167 8.62672C22.148 8.58884 22.1413 8.54594 22.1478 8.50405C22.1544 8.46216 22.1739 8.42337 22.2036 8.39312L23.4853 7.10938C23.6174 6.97734 23.7221 6.82059 23.7936 6.64807C23.865 6.47555 23.9018 6.29064 23.9018 6.10391C23.9018 5.91717 23.865 5.73226 23.7936 5.55974C23.7221 5.38723 23.6174 5.23047 23.4853 5.09844L20.8995 2.51469C20.7675 2.38264 20.6107 2.27789 20.4382 2.20643C20.2657 2.13496 20.0808 2.09818 19.8941 2.09818C19.7073 2.09818 19.5224 2.13496 19.3499 2.20643C19.1774 2.27789 19.0206 2.38264 18.8886 2.51469L17.6069 3.79641C17.5766 3.82612 17.5378 3.84562 17.4959 3.85218C17.4541 3.85873 17.4112 3.85202 17.3733 3.83297C17.0523 3.68032 16.7234 3.54472 16.3881 3.42672C16.3481 3.4132 16.3133 3.38755 16.2885 3.35333C16.2638 3.31911 16.2503 3.27802 16.25 3.23578V1.42188C16.25 1.04477 16.1002 0.683111 15.8335 0.416458C15.5669 0.149804 15.2052 0 14.8281 0H11.1719C10.7948 0 10.4331 0.149804 10.1665 0.416458C9.8998 0.683111 9.75 1.04477 9.75 1.42188V3.23578C9.74969 3.27802 9.73621 3.31911 9.71146 3.35333C9.6867 3.38755 9.65189 3.4132 9.61187 3.42672C9.27659 3.54477 8.94775 3.68037 8.62672 3.83297C8.58884 3.85202 8.54594 3.85873 8.50405 3.85218C8.46216 3.84562 8.42337 3.82612 8.39312 3.79641L7.10938 2.51469C6.97734 2.38264 6.82059 2.27789 6.64807 2.20643C6.47555 2.13496 6.29064 2.09818 6.10391 2.09818C5.91717 2.09818 5.73226 2.13496 5.55974 2.20643C5.38723 2.27789 5.23047 2.38264 5.09844 2.51469L2.51469 5.10047C2.38264 5.2325 2.27789 5.38926 2.20643 5.56178C2.13496 5.7343 2.09818 5.9192 2.09818 6.10594C2.09818 6.29267 2.13496 6.47758 2.20643 6.6501C2.27789 6.82262 2.38264 6.97937 2.51469 7.11141L3.79641 8.39312C3.82612 8.42337 3.84562 8.46216 3.85218 8.50405C3.85873 8.54594 3.85202 8.58884 3.83297 8.62672C3.68032 8.94773 3.54472 9.27657 3.42672 9.61187C3.4132 9.65189 3.38755 9.6867 3.35333 9.71146C3.31911 9.73621 3.27802 9.74969 3.23578 9.75H1.42188C1.04477 9.75 0.683111 9.8998 0.416458 10.1665C0.149804 10.4331 0 10.7948 0 11.1719L0 14.8281C0 15.2052 0.149804 15.5669 0.416458 15.8335C0.683111 16.1002 1.04477 16.25 1.42188 16.25H3.23578C3.27802 16.2503 3.31911 16.2638 3.35333 16.2885C3.38755 16.3133 3.4132 16.3481 3.42672 16.3881C3.54477 16.7234 3.68037 17.0522 3.83297 17.3733C3.85202 17.4112 3.85873 17.4541 3.85218 17.4959C3.84562 17.5378 3.82612 17.5766 3.79641 17.6069L2.51469 18.8906C2.38264 19.0227 2.27789 19.1794 2.20643 19.3519C2.13496 19.5245 2.09818 19.7094 2.09818 19.8961C2.09818 20.0828 2.13496 20.2677 2.20643 20.4403C2.27789 20.6128 2.38264 20.7695 2.51469 20.9016L5.10047 23.4873C5.2325 23.6194 5.38926 23.7241 5.56178 23.7956C5.7343 23.8671 5.9192 23.9039 6.10594 23.9039C6.29267 23.9039 6.47758 23.8671 6.6501 23.7956C6.82262 23.7241 6.97937 23.6194 7.11141 23.4873L8.39312 22.2056C8.42337 22.1759 8.46216 22.1564 8.50405 22.1499C8.54594 22.1433 8.58884 22.15 8.62672 22.1691C8.94773 22.3217 9.27657 22.4573 9.61187 22.5753C9.65189 22.5888 9.6867 22.6145 9.71146 22.6487C9.73621 22.6829 9.74969 22.724 9.75 22.7663V24.5781C9.75 24.9552 9.8998 25.3169 10.1665 25.5835C10.4331 25.8502 10.7948 26 11.1719 26H14.8281C15.2052 26 15.5669 25.8502 15.8335 25.5835C16.1002 25.3169 16.25 24.9552 16.25 24.5781V22.7642C16.2503 22.722 16.2638 22.6809 16.2885 22.6467C16.3133 22.6125 16.3481 22.5868 16.3881 22.5733C16.7234 22.4552 17.0522 22.3196 17.3733 22.167C17.4112 22.148 17.4541 22.1413 17.4959 22.1478C17.5378 22.1544 17.5766 22.1739 17.6069 22.2036L18.8906 23.4853C19.0227 23.6174 19.1794 23.7221 19.3519 23.7936C19.5245 23.865 19.7094 23.9018 19.8961 23.9018C20.0828 23.9018 20.2677 23.865 20.4403 23.7936C20.6128 23.7221 20.7695 23.6174 20.9016 23.4853L23.4873 20.8995C23.6194 20.7675 23.7241 20.6107 23.7956 20.4382C23.8671 20.2657 23.9039 20.0808 23.9039 19.8941C23.9039 19.7073 23.8671 19.5224 23.7956 19.3499C23.7241 19.1774 23.6194 19.0206 23.4873 18.8886L22.2056 17.6069C22.1759 17.5766 22.1564 17.5378 22.1499 17.4959C22.1433 17.4541 22.15 17.4112 22.1691 17.3733C22.3217 17.0523 22.4573 16.7234 22.5753 16.3881C22.5888 16.3481 22.6145 16.3133 22.6487 16.2885C22.6829 16.2638 22.724 16.2503 22.7663 16.25H24.5781C24.9552 16.25 25.3169 16.1002 25.5835 15.8335C25.8502 15.5669 26 15.2052 26 14.8281V11.1719C26 10.7948 25.8502 10.4331 25.5835 10.1665C25.3169 9.8998 24.9552 9.75 24.5781 9.75V9.75ZM24.7812 14.8281C24.7812 14.882 24.7598 14.9337 24.7218 14.9718C24.6837 15.0098 24.632 15.0312 24.5781 15.0312H22.7642C22.4696 15.0316 22.1824 15.1234 21.9422 15.2941C21.702 15.4647 21.5208 15.7058 21.4236 15.9839C21.3197 16.2784 21.2003 16.5672 21.0661 16.8492C20.9374 17.115 20.8946 17.4143 20.9438 17.7055C20.9929 17.9967 21.1315 18.2654 21.3403 18.4742L22.622 19.7559C22.6599 19.794 22.6811 19.8455 22.6811 19.8991C22.6811 19.9528 22.6599 20.0043 22.622 20.0423L20.0383 22.6241C20.0002 22.6619 19.9487 22.6831 19.8951 22.6831C19.8414 22.6831 19.7899 22.6619 19.7519 22.6241L18.4702 21.3423C18.2613 21.1335 17.9926 20.9949 17.7014 20.9458C17.4102 20.8967 17.111 20.9394 16.8452 21.0681C16.5625 21.2024 16.273 21.3218 15.9778 21.4256C15.7001 21.5232 15.4595 21.7046 15.2892 21.9447C15.1189 22.1848 15.0274 22.4719 15.0272 22.7663V24.5781C15.0272 24.632 15.0058 24.6837 14.9677 24.7218C14.9296 24.7598 14.8779 24.7812 14.8241 24.7812H11.1719C11.118 24.7812 11.0663 24.7598 11.0282 24.7218C10.9902 24.6837 10.9688 24.632 10.9688 24.5781V22.7642C10.9684 22.4696 10.8766 22.1824 10.7059 21.9422C10.5353 21.702 10.2942 21.5208 10.0161 21.4236C9.7216 21.3197 9.43276 21.2003 9.15078 21.0661C8.88498 20.9374 8.58571 20.8946 8.2945 20.9438C8.0033 20.9929 7.73462 21.1315 7.52578 21.3403L6.24406 22.622C6.206 22.6599 6.15452 22.6811 6.10086 22.6811C6.0472 22.6811 5.99571 22.6599 5.95766 22.622L3.37594 20.0383C3.33811 20.0002 3.31687 19.9487 3.31687 19.8951C3.31687 19.8414 3.33811 19.7899 3.37594 19.7519L4.65766 18.4702C4.86646 18.2613 5.00505 17.9926 5.05419 17.7014C5.10333 17.4102 5.06058 17.111 4.93188 16.8452C4.79757 16.5625 4.67823 16.273 4.57438 15.9778C4.47625 15.7012 4.29491 15.4617 4.05524 15.2922C3.81557 15.1227 3.52932 15.0316 3.23578 15.0312H1.42188C1.368 15.0312 1.31634 15.0098 1.27824 14.9718C1.24015 14.9337 1.21875 14.882 1.21875 14.8281V11.1719C1.21875 11.118 1.24015 11.0663 1.27824 11.0282C1.31634 10.9902 1.368 10.9688 1.42188 10.9688H3.23578C3.5304 10.9684 3.81764 10.8766 4.0578 10.7059C4.29796 10.5353 4.47918 10.2942 4.57641 10.0161C4.68034 9.7216 4.79967 9.43276 4.93391 9.15078C5.06261 8.88498 5.10536 8.58571 5.05622 8.2945C5.00708 8.0033 4.86849 7.73462 4.65969 7.52578L3.37797 6.24406C3.34014 6.206 3.3189 6.15452 3.3189 6.10086C3.3189 6.0472 3.34014 5.99571 3.37797 5.95766L5.96172 3.37594C5.99978 3.33811 6.05126 3.31687 6.10492 3.31687C6.15858 3.31687 6.21007 3.33811 6.24813 3.37594L7.52984 4.65766C7.73869 4.86646 8.00736 5.00505 8.29857 5.05419C8.58977 5.10333 8.88905 5.06058 9.15484 4.93188C9.43748 4.79757 9.727 4.67823 10.0222 4.57438C10.2988 4.47625 10.5383 4.29491 10.7078 4.05524C10.8773 3.81557 10.9684 3.52932 10.9688 3.23578V1.42188C10.9688 1.368 10.9902 1.31634 11.0282 1.27824C11.0663 1.24015 11.118 1.21875 11.1719 1.21875H14.8281C14.882 1.21875 14.9337 1.24015 14.9718 1.27824C15.0098 1.31634 15.0312 1.368 15.0312 1.42188V3.23578C15.0316 3.5304 15.1234 3.81764 15.2941 4.0578C15.4647 4.29796 15.7058 4.47918 15.9839 4.57641C16.2784 4.68034 16.5672 4.79967 16.8492 4.93391C17.115 5.06261 17.4143 5.10536 17.7055 5.05622C17.9967 5.00708 18.2654 4.86849 18.4742 4.65969L19.7559 3.37797C19.794 3.34014 19.8455 3.3189 19.8991 3.3189C19.9528 3.3189 20.0043 3.34014 20.0423 3.37797L22.6281 5.96375C22.666 6.00181 22.6872 6.05329 22.6872 6.10695C22.6872 6.16062 22.666 6.2121 22.6281 6.25016L21.3464 7.53188C21.1376 7.74072 20.999 8.00939 20.9499 8.3006C20.9007 8.5918 20.9435 8.89108 21.0722 9.15688C21.2065 9.43951 21.3258 9.72903 21.4297 10.0242C21.5273 10.302 21.7086 10.5426 21.9487 10.7128C22.1889 10.8831 22.4759 10.9747 22.7703 10.9748H24.5781C24.632 10.9748 24.6837 10.9962 24.7218 11.0343C24.7598 11.0724 24.7812 11.1241 24.7812 11.178V14.8281Z" fill="#EBB47A"/>
</g>
<defs>
<clipPath id="clip0_57_19">
<rect width="26" height="26" fill="white"/>
</clipPath>
</defs>
</svg>
