<svg width="32" height="32" viewBox="0 0 32 32" fill="none" xmlns="http://www.w3.org/2000/svg">
<path d="M27.4676 11.4457V4.70553H21.8936V7.15765L15.9999 2.62378L0 14.9323L3.35212 19.2897L4.99344 18.0271V29.376H14.4634V21.0607H17.9103V29.376H27.0068V18.0271L28.6481 19.2897L32 14.9324L27.4676 11.4457ZM25.1295 27.4988H19.7874V19.1835H12.5861V27.4988H6.87056V16.583L16 9.56022L25.1294 16.583V27.4988H25.1295ZM28.3047 16.6573L16 7.1914L3.69531 16.6573L2.63244 15.2757L16 4.99215L23.7708 10.9702V6.58272H25.5904V12.37L29.3675 15.2757L28.3047 16.6573Z" fill="url(#paint0_linear)"/>
<defs>
<linearGradient id="paint0_linear" x1="16" y1="2.62378" x2="16" y2="29.376" gradientUnits="userSpaceOnUse">
<stop stop-color="#219CF9"/>
<stop offset="1" stop-color="#4E50EA"/>
</linearGradient>
</defs>
</svg>
