<svg width="100" height="100" viewBox="0 0 100 100" fill="none" xmlns="http://www.w3.org/2000/svg">
<path d="M89.423 4.80762H10.577C4.74473 4.80762 0 9.55254 0 15.3846V58.6537V65.3845C0 71.2166 4.74473 75.9615 10.577 75.9615H36.1158L33.0389 91.346H23.077C22.0148 91.346 21.1539 92.207 21.1539 93.2691C21.1539 94.3312 22.0148 95.1921 23.077 95.1921H76.923C77.9852 95.1921 78.8461 94.3312 78.8461 93.2691C78.8461 92.207 77.9852 91.346 76.923 91.346H66.9611L63.8842 75.9615H89.423C95.2551 75.9615 100 71.2168 100 65.3845V58.6537V15.3846C100 9.55254 95.2553 4.80762 89.423 4.80762ZM36.9611 91.346L40.0381 75.9615H59.9619L63.0389 91.346H36.9611ZM96.1539 65.3845C96.1539 69.0959 93.1346 72.1154 89.423 72.1154H10.577C6.86562 72.1154 3.84609 69.0961 3.84609 65.3845V60.5769H96.1537V65.3845H96.1539ZM96.1539 56.7308H3.84609V52.8847H15.3846C16.4467 52.8847 17.3076 52.0238 17.3076 50.9617C17.3076 49.8996 16.4467 49.0386 15.3846 49.0386H3.84609V15.3846C3.84609 11.6732 6.86543 8.65371 10.577 8.65371H89.423C93.1344 8.65371 96.1539 11.673 96.1539 15.3846V56.7308Z" fill="#4E50EA"/>
<path d="M50.0004 62.5C47.8797 62.5 46.1543 64.2254 46.1543 66.3461C46.1543 68.4668 47.8797 70.1922 50.0004 70.1922C52.1211 70.1922 53.8465 68.4668 53.8465 66.3461C53.8465 64.2254 52.1211 62.5 50.0004 62.5Z" fill="#4E50EA"/>
<path d="M65.7444 41.6377L61.6649 37.5582L65.0645 34.1588C65.5588 33.6644 65.7459 32.9408 65.5532 32.2687C65.3604 31.5969 64.8182 31.0824 64.1369 30.925L46.4592 26.8455C45.8133 26.6969 45.136 26.8906 44.6668 27.3595C44.1981 27.8285 44.0037 28.5056 44.1528 29.1519L48.2326 46.8295C48.3899 47.5105 48.9043 48.0529 49.5764 48.2457C50.2487 48.4383 50.9719 48.2512 51.4664 47.757L54.8658 44.3574L58.9453 48.4369C59.3209 48.8125 59.8131 49.0002 60.3051 49.0002C60.7971 49.0002 61.2895 48.8125 61.6649 48.4369L65.7444 44.3574C66.4952 43.6064 66.4952 42.3888 65.7444 41.6377ZM60.3051 44.3574L56.2256 40.2779C55.85 39.9023 55.3578 39.7146 54.8658 39.7146C54.3739 39.7146 53.8815 39.9023 53.5061 40.2779L51.2002 42.584L48.5928 31.2853L59.8914 33.8926L57.5854 36.1984C56.8344 36.9494 56.8344 38.1672 57.5854 38.9181L61.6649 42.9976L60.3051 44.3574Z" fill="#4E50EA"/>
<path d="M42.0849 22.0566L40.1619 20.1335C39.4109 19.3826 38.1931 19.3826 37.4421 20.1335C36.6912 20.8845 36.6912 22.1021 37.4421 22.8533L39.3654 24.7763C39.741 25.1519 40.2331 25.3396 40.7251 25.3396C41.2171 25.3396 41.7095 25.1519 42.0849 24.7763C42.8359 24.0255 42.8359 22.8078 42.0849 22.0566Z" fill="#4E50EA"/>
<path d="M38.334 27.2632H35.6145C34.5523 27.2632 33.6914 28.1241 33.6914 29.1862C33.6914 30.2483 34.5523 31.1093 35.6145 31.1093H38.334C39.3961 31.1093 40.257 30.2483 40.257 29.1862C40.257 28.1241 39.3961 27.2632 38.334 27.2632Z" fill="#4E50EA"/>
<path d="M42.0847 33.5955C41.3339 32.8445 40.1164 32.8445 39.3652 33.5955L37.4421 35.5185C36.6912 36.2695 36.6912 37.4873 37.4421 38.2383C37.8177 38.6138 38.3099 38.8015 38.8019 38.8015C39.2939 38.8015 39.7863 38.6138 40.1617 38.2383L42.0847 36.3152C42.8357 35.5644 42.8357 34.3466 42.0847 33.5955Z" fill="#4E50EA"/>
<path d="M55.5459 20.1335C54.7949 19.3826 53.5773 19.3826 52.8261 20.1335L50.9031 22.0566C50.1521 22.8076 50.1521 24.0253 50.9031 24.7763C51.2787 25.1519 51.7709 25.3396 52.2631 25.3396C52.7552 25.3396 53.2474 25.1519 53.6228 24.7763L55.5459 22.8533C56.2969 22.1025 56.2969 20.8847 55.5459 20.1335Z" fill="#4E50EA"/>
<path d="M46.4934 16.3843C45.4312 16.3843 44.5703 17.2452 44.5703 18.3073V21.0269C44.5703 22.089 45.4312 22.9499 46.4934 22.9499C47.5555 22.9499 48.4164 22.089 48.4164 21.0269V18.3073C48.4164 17.2452 47.5555 16.3843 46.4934 16.3843Z" fill="#4E50EA"/>
<path d="M23.0381 50.5863C23.015 50.4633 22.9766 50.3422 22.9285 50.2248C22.8805 50.1094 22.8209 49.9978 22.7516 49.8939C22.6824 49.7881 22.6016 49.69 22.5131 49.6016C22.4246 49.5131 22.3266 49.4324 22.2207 49.3631C22.1168 49.2939 22.0053 49.2342 21.8881 49.1861C21.7727 49.1381 21.6516 49.0996 21.5285 49.0766C21.2805 49.0266 21.0266 49.0266 20.7785 49.0766C20.6555 49.0996 20.5344 49.1381 20.4189 49.1861C20.3016 49.2342 20.19 49.2938 20.0863 49.3631C19.9805 49.4322 19.8824 49.5131 19.7939 49.6016C19.7055 49.69 19.6248 49.7881 19.5555 49.8939C19.4863 49.9978 19.4266 50.1094 19.3785 50.2248C19.3305 50.3422 19.292 50.4633 19.2689 50.5863C19.2439 50.7094 19.2305 50.8363 19.2305 50.9613C19.2305 51.0863 19.2439 51.2133 19.2689 51.3363C19.292 51.4594 19.3305 51.5805 19.3785 51.6959C19.4266 51.8133 19.4861 51.9248 19.5555 52.0285C19.6246 52.1344 19.7055 52.2324 19.7939 52.3209C19.8824 52.4094 19.9805 52.49 20.0863 52.5594C20.1902 52.6285 20.3018 52.6883 20.4189 52.7363C20.5344 52.7844 20.6555 52.8228 20.7785 52.8478C20.9016 52.8728 21.0285 52.8844 21.1535 52.8844C21.2785 52.8844 21.4055 52.8728 21.5285 52.8478C21.6516 52.8228 21.7727 52.7844 21.8881 52.7363C22.0055 52.6883 22.117 52.6287 22.2207 52.5594C22.3266 52.4902 22.4246 52.4094 22.5131 52.3209C22.6016 52.2324 22.6822 52.1344 22.7516 52.0285C22.8207 51.9246 22.8805 51.8131 22.9285 51.6959C22.9766 51.5805 23.015 51.4594 23.0381 51.3363C23.0631 51.2133 23.0766 51.0863 23.0766 50.9613C23.0766 50.8363 23.0631 50.7094 23.0381 50.5863Z" fill="#4E50EA"/>
</svg>
