<svg width="75" height="75" viewBox="0 0 75 75" fill="none" xmlns="http://www.w3.org/2000/svg">
<g filter="url(#filter0_d)">
<circle cx="37.5" cy="33.5" r="27.5" fill="url(#paint0_linear)"/>
</g>
<path d="M39.7576 29.0887L31.1641 31.9532C30.457 32.1888 30 32.8233 30 33.5689C30 34.3143 30.457 34.9483 31.1646 35.1844L34.6536 36.3473L35.8164 39.8368C36.052 40.5433 36.686 41.0003 37.4314 41.0003C38.177 41.0003 38.811 40.5433 39.0471 39.8358L41.9116 31.2423C42.1165 30.6268 41.959 29.9593 41.5 29.5003C41.041 29.0413 40.3726 28.8829 39.7576 29.0887ZM37.4314 38.3577L36.2339 34.7657L32.6421 33.5684L39.8254 31.1739L37.4314 38.3577Z" fill="white"/>
<path d="M37 22C30.3831 22 25 27.3831 25 34C25 40.6169 30.3831 46 37 46C43.6169 46 49 40.6169 49 34C49 27.3831 43.6169 22 37 22ZM37 44C31.4861 44 27 39.5139 27 34C27 28.4861 31.4861 24 37 24C42.5139 24 47 28.4861 47 34C47 39.5139 42.5139 44 37 44Z" fill="white"/>
<defs>
<filter id="filter0_d" x="0" y="0" width="75" height="75" filterUnits="userSpaceOnUse" color-interpolation-filters="sRGB">
<feFlood flood-opacity="0" result="BackgroundImageFix"/>
<feColorMatrix in="SourceAlpha" type="matrix" values="0 0 0 0 0 0 0 0 0 0 0 0 0 0 0 0 0 0 127 0"/>
<feOffset dy="4"/>
<feGaussianBlur stdDeviation="5"/>
<feColorMatrix type="matrix" values="0 0 0 0 0 0 0 0 0 0 0 0 0 0 0 0 0 0 0.25 0"/>
<feBlend mode="normal" in2="BackgroundImageFix" result="effect1_dropShadow"/>
<feBlend mode="normal" in="SourceGraphic" in2="effect1_dropShadow" result="shape"/>
</filter>
<linearGradient id="paint0_linear" x1="37.5" y1="6" x2="37.5" y2="61" gradientUnits="userSpaceOnUse">
<stop stop-color="#219CF9"/>
<stop offset="1" stop-color="#4E50EA"/>
</linearGradient>
</defs>
</svg>
