<svg width="233" height="240" viewBox="0 0 233 240" fill="none" xmlns="http://www.w3.org/2000/svg">
<g filter="url(#filter0_d)">
<rect x="25" y="21" width="183" height="190" fill="#2A2B2F"/>
</g>
<path d="M97.132 133.8V137.58L87.772 159H81.436L90.472 138.552H82.12V142.656H76.936V133.8H97.132ZM109.8 133.8V159H103.968V138.48H98.9278V133.8H109.8ZM124.977 159.432C122.889 159.432 121.029 158.916 119.397 157.884C117.765 156.852 116.481 155.364 115.545 153.42C114.633 151.452 114.177 149.112 114.177 146.4C114.177 143.688 114.633 141.36 115.545 139.416C116.481 137.448 117.765 135.948 119.397 134.916C121.029 133.884 122.889 133.368 124.977 133.368C127.065 133.368 128.925 133.884 130.557 134.916C132.189 135.948 133.461 137.448 134.373 139.416C135.309 141.36 135.777 143.688 135.777 146.4C135.777 149.112 135.309 151.452 134.373 153.42C133.461 155.364 132.189 156.852 130.557 157.884C128.925 158.916 127.065 159.432 124.977 159.432ZM124.977 154.5C126.513 154.5 127.713 153.84 128.577 152.52C129.465 151.2 129.909 149.16 129.909 146.4C129.909 143.64 129.465 141.6 128.577 140.28C127.713 138.96 126.513 138.3 124.977 138.3C123.465 138.3 122.265 138.96 121.377 140.28C120.513 141.6 120.081 143.64 120.081 146.4C120.081 149.16 120.513 151.2 121.377 152.52C122.265 153.84 123.465 154.5 124.977 154.5ZM155.855 145.752C157.103 146.376 158.051 147.192 158.699 148.2C159.371 149.208 159.707 150.372 159.707 151.692C159.707 153.252 159.263 154.62 158.375 155.796C157.487 156.948 156.239 157.848 154.631 158.496C153.023 159.12 151.163 159.432 149.051 159.432C146.939 159.432 145.079 159.12 143.471 158.496C141.887 157.848 140.651 156.948 139.763 155.796C138.899 154.62 138.467 153.252 138.467 151.692C138.467 150.372 138.791 149.208 139.439 148.2C140.111 147.192 141.059 146.376 142.283 145.752C141.347 145.176 140.627 144.456 140.123 143.592C139.619 142.704 139.367 141.696 139.367 140.568C139.367 139.104 139.775 137.832 140.591 136.752C141.407 135.672 142.547 134.844 144.011 134.268C145.475 133.668 147.155 133.368 149.051 133.368C150.971 133.368 152.663 133.668 154.127 134.268C155.615 134.844 156.767 135.672 157.583 136.752C158.399 137.832 158.807 139.104 158.807 140.568C158.807 141.696 158.555 142.704 158.051 143.592C157.547 144.456 156.815 145.176 155.855 145.752ZM149.051 137.652C147.875 137.652 146.927 137.94 146.207 138.516C145.511 139.068 145.163 139.836 145.163 140.82C145.163 141.78 145.511 142.536 146.207 143.088C146.903 143.64 147.851 143.916 149.051 143.916C150.251 143.916 151.211 143.64 151.931 143.088C152.651 142.536 153.011 141.78 153.011 140.82C153.011 139.836 152.651 139.068 151.931 138.516C151.211 137.94 150.251 137.652 149.051 137.652ZM149.051 155.148C150.515 155.148 151.667 154.824 152.507 154.176C153.371 153.504 153.803 152.616 153.803 151.512C153.803 150.408 153.371 149.532 152.507 148.884C151.667 148.236 150.515 147.912 149.051 147.912C147.611 147.912 146.471 148.236 145.631 148.884C144.791 149.532 144.371 150.408 144.371 151.512C144.371 152.64 144.791 153.528 145.631 154.176C146.471 154.824 147.611 155.148 149.051 155.148Z" fill="white"/>
<path d="M111.998 36C96.5644 36 84.002 46.2267 84.002 58.7971C84.002 65.1644 87.2016 71.1356 92.8528 75.4311C91.0571 78.2227 88.5694 81.2983 85.5218 82.0542C84.5579 82.2942 83.914 83.2061 84.014 84.194C84.1099 85.1858 84.9258 85.9498 85.9177 85.9937C85.9657 85.9937 86.1417 86.0017 86.4257 86.0017C88.5014 86.0017 96.4804 85.6698 105.531 80.9744C107.595 81.3863 109.767 81.5943 111.998 81.5943C127.433 81.5943 139.995 71.3676 139.995 58.7971C139.995 46.2267 127.433 36 111.998 36ZM111.998 77.5948C109.799 77.5948 107.675 77.3668 105.679 76.9149C105.211 76.8069 104.715 76.8749 104.287 77.1069C100.416 79.1946 96.7084 80.3944 93.6607 81.0824C95.0726 79.4346 96.2524 77.5948 97.2563 75.895C97.8002 74.9751 97.5203 73.7913 96.6284 73.2073C91.1451 69.6158 88.0015 64.3645 88.0015 58.7971C88.0015 48.4304 98.7641 39.9995 111.998 39.9995C125.233 39.9995 135.995 48.4304 135.995 58.7971C135.995 69.1599 125.233 77.5948 111.998 77.5948Z" fill="url(#paint0_linear)"/>
<path d="M146.485 96.0164C144.197 95.4365 141.985 93.5927 139.902 90.5251C145.069 86.5256 147.993 81.0183 147.993 75.155C147.993 72.3753 147.329 69.6357 146.021 67.02C145.525 66.0281 144.313 65.6402 143.337 66.1281C142.349 66.6241 141.949 67.8239 142.441 68.8118C143.469 70.8675 143.993 72.9993 143.993 75.155C143.993 80.2264 141.114 85.0258 136.094 88.3214C135.198 88.9053 134.926 90.0931 135.474 91.013C136.462 92.6808 137.482 94.1166 138.546 95.3245C135.83 94.7605 132.579 93.7407 129.183 91.9129C128.763 91.6849 128.267 91.6209 127.803 91.7209C119.764 93.4887 111.105 91.397 105.682 86.6136C104.846 85.8777 103.586 85.9617 102.858 86.7895C102.126 87.6174 102.206 88.8813 103.034 89.6132C109.238 95.0765 118.864 97.5402 127.939 95.7764C135.218 99.52 141.757 99.9999 144.641 99.9999C145.557 99.9999 146.101 99.9519 146.189 99.9439C147.157 99.8519 147.921 99.076 147.993 98.1081C148.065 97.1363 147.429 96.2564 146.485 96.0164Z" fill="url(#paint1_linear)"/>
<defs>
<filter id="filter0_d" x="0" y="0" width="233" height="240" filterUnits="userSpaceOnUse" color-interpolation-filters="sRGB">
<feFlood flood-opacity="0" result="BackgroundImageFix"/>
<feColorMatrix in="SourceAlpha" type="matrix" values="0 0 0 0 0 0 0 0 0 0 0 0 0 0 0 0 0 0 127 0"/>
<feOffset dy="4"/>
<feGaussianBlur stdDeviation="12.5"/>
<feColorMatrix type="matrix" values="0 0 0 0 0 0 0 0 0 0 0 0 0 0 0 0 0 0 0.25 0"/>
<feBlend mode="normal" in2="BackgroundImageFix" result="effect1_dropShadow"/>
<feBlend mode="normal" in="SourceGraphic" in2="effect1_dropShadow" result="shape"/>
</filter>
<linearGradient id="paint0_linear" x1="111.998" y1="36" x2="111.998" y2="86.0017" gradientUnits="userSpaceOnUse">
<stop stop-color="#219CF9"/>
<stop offset="1" stop-color="#4E50EA"/>
</linearGradient>
<linearGradient id="paint1_linear" x1="125.178" y1="65.918" x2="125.178" y2="99.9999" gradientUnits="userSpaceOnUse">
<stop stop-color="#219CF9"/>
<stop offset="1" stop-color="#4E50EA"/>
</linearGradient>
</defs>
</svg>
