<svg width="43" height="43" viewBox="0 0 43 43" fill="none" xmlns="http://www.w3.org/2000/svg">
<path d="M28.4206 8H15.5793C11.4 8 8 11.4 8 15.5793V28.4208C8 32.5999 11.4 35.9999 15.5793 35.9999H28.4208C32.5999 35.9999 35.9999 32.5999 35.9999 28.4208V15.5793C35.9999 11.4 32.5999 8 28.4206 8V8ZM34.3585 28.4208C34.3585 31.6948 31.6948 34.3585 28.4206 34.3585H15.5793C12.3051 34.3585 9.64148 31.6948 9.64148 28.4208V15.5793C9.64148 12.3051 12.3051 9.64148 15.5793 9.64148H28.4208C31.6948 9.64148 34.3585 12.3051 34.3585 15.5793V28.4208Z" fill="white"/>
<path d="M21.9998 14.3438C17.7782 14.3438 14.3438 17.7782 14.3438 21.9998C14.3438 26.2214 17.7782 29.6558 21.9998 29.6558C26.2214 29.6558 29.6558 26.2214 29.6558 21.9998C29.6558 17.7782 26.2214 14.3438 21.9998 14.3438ZM21.9998 28.0143C18.6835 28.0143 15.9852 25.3163 15.9852 21.9998C15.9852 18.6835 18.6835 15.9852 21.9998 15.9852C25.3163 15.9852 28.0143 18.6835 28.0143 21.9998C28.0143 25.3163 25.3163 28.0143 21.9998 28.0143Z" fill="white"/>
<path d="M29.8394 11.625C28.5919 11.625 27.5771 12.6399 27.5771 13.8873C27.5771 15.1348 28.5919 16.1497 29.8394 16.1497C31.087 16.1497 32.1019 15.1348 32.1019 13.8873C32.1019 12.6397 31.087 11.625 29.8394 11.625ZM29.8394 14.5081C29.4972 14.5081 29.2186 14.2295 29.2186 13.8873C29.2186 13.5448 29.4972 13.2665 29.8394 13.2665C30.1818 13.2665 30.4604 13.5448 30.4604 13.8873C30.4604 14.2295 30.1818 14.5081 29.8394 14.5081Z" fill="white"/>
<circle cx="21.5" cy="21.5" r="21" stroke="white"/>
</svg>
