<svg width="12" height="12" viewBox="0 0 12 12" fill="none" xmlns="http://www.w3.org/2000/svg">
<g clip-path="url(#clip0)">
<path d="M10.5932 8.01351C10.2707 8.88766 9.78287 9.64773 9.14319 10.2724C8.41507 10.9834 7.46164 11.5484 6.30936 11.9514C6.27155 11.9646 6.23209 11.9754 6.19244 11.9833C6.14008 11.9937 6.08679 11.9993 6.03397 12H6.02362C5.96732 12 5.91074 11.9943 5.85461 11.9833C5.81497 11.9754 5.77606 11.9646 5.73843 11.9517C4.58478 11.5493 3.63016 10.9846 2.9013 10.2736C2.26135 9.64892 1.77365 8.88931 1.45157 8.01516C0.865902 6.4258 0.899228 4.67495 0.926053 3.26797L0.92651 3.24636C0.931912 3.13018 0.935391 3.00814 0.937314 2.87338C0.94711 2.21172 1.47317 1.66433 2.13492 1.62743C3.51462 1.55044 4.58194 1.10046 5.4939 0.211572L5.50186 0.204248C5.65329 0.0653622 5.84409 -0.002753 6.03397 8.51462e-05C6.21707 0.00246552 6.39945 0.0704892 6.54547 0.204248L6.55325 0.211572C7.4654 1.10046 8.53272 1.55044 9.91242 1.62743C10.5742 1.66433 11.1002 2.21172 11.11 2.87338C11.1119 3.00906 11.1154 3.13091 11.1208 3.24636L11.1211 3.25552C11.1478 4.66515 11.181 6.41949 10.5932 8.01351Z" fill="#147FF1"/>
<path d="M10.5932 8.01343C10.2706 8.88758 9.78284 9.64765 9.14316 10.2723C8.41504 10.9833 7.46161 11.5483 6.30933 11.9513C6.27152 11.9645 6.23206 11.9753 6.19241 11.9833C6.14005 11.9936 6.08676 11.9992 6.03394 11.9999V0C6.21704 0.00238038 6.39941 0.0704041 6.54544 0.204163L6.55322 0.211487C7.46537 1.10037 8.53269 1.55036 9.91239 1.62735C10.5741 1.66425 11.1002 2.21164 11.11 2.87329C11.1119 3.00897 11.1154 3.13083 11.1208 3.24628L11.1211 3.25543C11.1478 4.66507 11.1809 6.41941 10.5932 8.01343Z" fill="#0038B8"/>
<path d="M9.01414 5.99994C9.01414 7.64542 7.67811 8.98484 6.034 8.9907H6.02347C4.37451 8.9907 3.03271 7.64899 3.03271 5.99994C3.03271 4.35098 4.37451 3.00928 6.02347 3.00928H6.034C7.67811 3.01514 9.01414 4.35456 9.01414 5.99994Z" fill="white"/>
<path d="M9.01408 5.99994C9.01408 7.64542 7.67805 8.98484 6.03394 8.9907V3.00928C7.67805 3.01514 9.01408 4.35456 9.01408 5.99994Z" fill="#E1EBF0"/>
<path d="M7.38087 5.56933L6.03395 6.91643L5.7429 7.20748C5.67415 7.27624 5.58397 7.31057 5.49388 7.31057C5.4037 7.31057 5.31361 7.27624 5.24477 7.20748L4.619 6.58144C4.48149 6.44393 4.48149 6.22118 4.619 6.08358C4.75633 5.94607 4.97935 5.94607 5.11687 6.08358L5.49388 6.46059L6.88301 5.07146C7.02052 4.93386 7.24354 4.93386 7.38087 5.07146C7.51838 5.20898 7.51838 5.432 7.38087 5.56933Z" fill="#B4D2D7"/>
<path d="M7.38085 5.56933L6.03394 6.91644V5.92044L6.88299 5.07146C7.0205 4.93386 7.24352 4.93386 7.38085 5.07146C7.51836 5.20898 7.51836 5.432 7.38085 5.56933Z" fill="#6FA5AA"/>
</g>
<defs>
<clipPath id="clip0">
<rect width="12" height="12" fill="white"/>
</clipPath>
</defs>
</svg>
