<svg width="64" height="56" viewBox="0 0 64 56" fill="none" xmlns="http://www.w3.org/2000/svg">
<path d="M54.5938 46.1912H9.40624C8.59924 46.1912 7.88273 45.5575 7.62748 44.6178L0.096229 16.8916C-0.123021 16.0843 0.038729 15.1944 0.516729 14.5779C0.634479 14.4259 3.46398 10.8144 8.76474 7.21878C13.6196 3.92569 21.5916 0 32 0C42.4084 0 50.3804 3.92554 55.2353 7.21878C60.536 10.8144 63.3655 14.4259 63.4833 14.5779C63.9613 15.1944 64.123 16.0844 63.9038 16.8916L56.3725 44.6178C56.1174 45.5573 55.4008 46.1912 54.5938 46.1912Z" fill="#F4F4FB"/>
<path d="M54.5935 46.1912C55.4005 46.1912 56.117 45.5575 56.3723 44.6178L63.9035 16.8916C64.1228 16.0843 63.961 15.1944 63.483 14.5779C63.3653 14.4259 60.5358 10.8144 55.235 7.21878C50.3801 3.92554 42.4081 0 31.9998 0V46.1912H54.5935Z" fill="#E5E5FE"/>
<path d="M35.7654 36.9492H28.2342C27.1987 36.9492 26.3592 35.919 26.3592 34.6483V30.0176H22.5857C21.5502 30.0176 20.7107 28.9874 20.7107 27.7166V18.4745C20.7107 17.2038 21.5502 16.1736 22.5857 16.1736H26.3592V11.5429C26.3592 10.2721 27.1987 9.24194 28.2342 9.24194H35.7654C36.8009 9.24194 37.6404 10.2721 37.6404 11.5429V16.1736H41.4139C42.4494 16.1736 43.2889 17.2038 43.2889 18.4745V27.7166C43.2889 28.9874 42.4494 30.0176 41.4139 30.0176H37.6404V34.6483C37.6404 35.919 36.8009 36.9492 35.7654 36.9492Z" fill="#147FF1"/>
<path d="M41.4139 16.1736H37.6404V11.5429C37.6404 10.2722 36.8009 9.24194 35.7654 9.24194H31.9998V36.9492H35.7654C36.8009 36.9492 37.6404 35.919 37.6404 34.6483V30.0177H41.4139C42.4494 30.0177 43.2889 28.9875 43.2889 27.7167V18.4746C43.2889 17.2038 42.4494 16.1736 41.4139 16.1736Z" fill="#0038B8"/>
<path d="M7.53101 44.2634V53.1321C7.53101 54.4029 8.37051 55.4331 9.40601 55.4331H54.5935C55.629 55.4331 56.4685 54.4029 56.4685 53.1321V44.2634H7.53101Z" fill="#E5E5FE"/>
<path d="M31.9998 55.4331H54.5935C55.629 55.4331 56.4685 54.403 56.4685 53.1323V44.2642H31.9998V55.4331Z" fill="#D0CEF1"/>
</svg>
