<svg width="75" height="75" viewBox="0 0 75 75" fill="none" xmlns="http://www.w3.org/2000/svg">
<g filter="url(#filter0_d)">
<circle cx="37.5" cy="33.5" r="27.5" fill="#212429"/>
</g>
<path d="M42.5034 22H31.4966C27.9143 22 25 24.9143 25 28.4966V39.5036C25 43.0857 27.9143 46 31.4966 46H42.5036C46.0857 46 49 43.0857 49 39.5036V28.4966C49 24.9143 46.0857 22 42.5034 22V22ZM47.593 39.5036C47.593 42.3098 45.3098 44.593 42.5034 44.593H31.4966C28.6901 44.593 26.407 42.3098 26.407 39.5036V28.4966C26.407 25.6901 28.6901 23.407 31.4966 23.407H42.5036C45.3098 23.407 47.593 25.6901 47.593 28.4966V39.5036Z" fill="white"/>
<path d="M36.9998 27.4375C33.3813 27.4375 30.4375 30.3813 30.4375 33.9998C30.4375 37.6183 33.3813 40.5621 36.9998 40.5621C40.6183 40.5621 43.5621 37.6183 43.5621 33.9998C43.5621 30.3813 40.6183 27.4375 36.9998 27.4375ZM36.9998 39.1551C34.1573 39.1551 31.8445 36.8425 31.8445 33.9998C31.8445 31.1573 34.1573 28.8445 36.9998 28.8445C39.8425 28.8445 42.1551 31.1573 42.1551 33.9998C42.1551 36.8425 39.8425 39.1551 36.9998 39.1551Z" fill="white"/>
<path d="M43.7184 25.1069C42.649 25.1069 41.7793 25.9769 41.7793 27.046C41.7793 28.1154 42.649 28.9853 43.7184 28.9853C44.7877 28.9853 45.6576 28.1154 45.6576 27.046C45.6576 25.9767 44.7877 25.1069 43.7184 25.1069ZM43.7184 27.5781C43.425 27.5781 43.1863 27.3394 43.1863 27.046C43.1863 26.7525 43.425 26.5139 43.7184 26.5139C44.0119 26.5139 44.2507 26.7525 44.2507 27.046C44.2507 27.3394 44.0119 27.5781 43.7184 27.5781Z" fill="white"/>
<defs>
<filter id="filter0_d" x="0" y="0" width="75" height="75" filterUnits="userSpaceOnUse" color-interpolation-filters="sRGB">
<feFlood flood-opacity="0" result="BackgroundImageFix"/>
<feColorMatrix in="SourceAlpha" type="matrix" values="0 0 0 0 0 0 0 0 0 0 0 0 0 0 0 0 0 0 127 0"/>
<feOffset dy="4"/>
<feGaussianBlur stdDeviation="5"/>
<feColorMatrix type="matrix" values="0 0 0 0 0 0 0 0 0 0 0 0 0 0 0 0 0 0 0.25 0"/>
<feBlend mode="normal" in2="BackgroundImageFix" result="effect1_dropShadow"/>
<feBlend mode="normal" in="SourceGraphic" in2="effect1_dropShadow" result="shape"/>
</filter>
</defs>
</svg>
