<svg width="610" height="418" viewBox="0 0 610 418" fill="none" xmlns="http://www.w3.org/2000/svg">
<g filter="url(#filter0_d)">
<rect x="4" width="602" height="410" fill="#2A2B2F"/>
</g>
<path d="M107.8 40.2L102.136 57H100.264L95.344 42.672L90.4 57H88.552L82.888 40.2H84.712L89.56 54.648L94.576 40.2H96.232L101.176 54.72L106.096 40.2H107.8ZM121.077 52.512H111.717L109.701 57H107.853L115.533 40.2H117.285L124.965 57H123.093L121.077 52.512ZM120.429 51.072L116.397 42.048L112.365 51.072H120.429ZM127.744 40.2H129.52V55.464H138.928V57H127.744V40.2ZM141.877 40.2H143.653V55.464H153.061V57H141.877V40.2ZM166.923 57.144C165.675 57.144 164.475 56.944 163.323 56.544C162.187 56.144 161.307 55.616 160.683 54.96L161.379 53.592C161.987 54.2 162.795 54.696 163.803 55.08C164.811 55.448 165.851 55.632 166.923 55.632C168.427 55.632 169.555 55.36 170.307 54.816C171.059 54.256 171.435 53.536 171.435 52.656C171.435 51.984 171.227 51.448 170.811 51.048C170.411 50.648 169.915 50.344 169.323 50.136C168.731 49.912 167.907 49.672 166.851 49.416C165.587 49.096 164.579 48.792 163.827 48.504C163.075 48.2 162.427 47.744 161.883 47.136C161.355 46.528 161.091 45.704 161.091 44.664C161.091 43.816 161.315 43.048 161.763 42.36C162.211 41.656 162.899 41.096 163.827 40.68C164.755 40.264 165.907 40.056 167.283 40.056C168.243 40.056 169.179 40.192 170.091 40.464C171.019 40.72 171.819 41.08 172.491 41.544L171.891 42.96C171.187 42.496 170.435 42.152 169.635 41.928C168.835 41.688 168.051 41.568 167.283 41.568C165.811 41.568 164.699 41.856 163.947 42.432C163.211 42.992 162.843 43.72 162.843 44.616C162.843 45.288 163.043 45.832 163.443 46.248C163.859 46.648 164.371 46.96 164.979 47.184C165.603 47.392 166.435 47.624 167.475 47.88C168.707 48.184 169.699 48.488 170.451 48.792C171.219 49.08 171.867 49.528 172.395 50.136C172.923 50.728 173.187 51.536 173.187 52.56C173.187 53.408 172.955 54.184 172.491 54.888C172.043 55.576 171.347 56.128 170.403 56.544C169.459 56.944 168.299 57.144 166.923 57.144ZM180.086 41.736H174.182V40.2H187.766V41.736H181.862V57H180.086V41.736ZM202.075 57L198.235 51.6C197.803 51.648 197.355 51.672 196.891 51.672H192.379V57H190.603V40.2H196.891C199.035 40.2 200.715 40.712 201.931 41.736C203.147 42.76 203.755 44.168 203.755 45.96C203.755 47.272 203.419 48.384 202.747 49.296C202.091 50.192 201.147 50.84 199.915 51.24L204.019 57H202.075ZM196.843 50.16C198.507 50.16 199.779 49.792 200.659 49.056C201.539 48.32 201.979 47.288 201.979 45.96C201.979 44.6 201.539 43.56 200.659 42.84C199.779 42.104 198.507 41.736 196.843 41.736H192.379V50.16H196.843ZM219.827 55.464V57H207.947V40.2H219.467V41.736H209.723V47.712H218.411V49.224H209.723V55.464H219.827ZM235.882 55.464V57H224.002V40.2H235.522V41.736H225.778V47.712H234.466V49.224H225.778V55.464H235.882ZM243.32 41.736H237.416V40.2H251V41.736H245.096V57H243.32V41.736ZM270.703 48.336C271.807 48.576 272.655 49.056 273.247 49.776C273.855 50.48 274.159 51.392 274.159 52.512C274.159 53.952 273.623 55.064 272.551 55.848C271.495 56.616 269.927 57 267.847 57H260.119V40.2H267.367C269.239 40.2 270.687 40.576 271.711 41.328C272.751 42.08 273.271 43.144 273.271 44.52C273.271 45.448 273.039 46.24 272.575 46.896C272.127 47.536 271.503 48.016 270.703 48.336ZM261.895 41.664V47.76H267.247C268.607 47.76 269.655 47.504 270.391 46.992C271.127 46.464 271.495 45.704 271.495 44.712C271.495 43.72 271.127 42.968 270.391 42.456C269.655 41.928 268.607 41.664 267.247 41.664H261.895ZM267.823 55.536C269.327 55.536 270.463 55.28 271.231 54.768C271.999 54.256 272.383 53.456 272.383 52.368C272.383 50.272 270.863 49.224 267.823 49.224H261.895V55.536H267.823ZM285.557 57.144C283.893 57.144 282.381 56.776 281.021 56.04C279.677 55.288 278.621 54.264 277.853 52.968C277.101 51.672 276.725 50.216 276.725 48.6C276.725 46.984 277.101 45.528 277.853 44.232C278.621 42.936 279.677 41.92 281.021 41.184C282.381 40.432 283.893 40.056 285.557 40.056C287.221 40.056 288.717 40.424 290.045 41.16C291.389 41.896 292.445 42.92 293.213 44.232C293.981 45.528 294.365 46.984 294.365 48.6C294.365 50.216 293.981 51.68 293.213 52.992C292.445 54.288 291.389 55.304 290.045 56.04C288.717 56.776 287.221 57.144 285.557 57.144ZM285.557 55.56C286.885 55.56 288.085 55.264 289.157 54.672C290.229 54.064 291.069 53.232 291.677 52.176C292.285 51.104 292.589 49.912 292.589 48.6C292.589 47.288 292.285 46.104 291.677 45.048C291.069 43.976 290.229 43.144 289.157 42.552C288.085 41.944 286.885 41.64 285.557 41.64C284.229 41.64 283.021 41.944 281.933 42.552C280.861 43.144 280.013 43.976 279.389 45.048C278.781 46.104 278.477 47.288 278.477 48.6C278.477 49.912 278.781 51.104 279.389 52.176C280.013 53.232 280.861 54.064 281.933 54.672C283.021 55.264 284.229 55.56 285.557 55.56ZM301.375 41.736H295.471V40.2H309.055V41.736H303.151V57H301.375V41.736ZM309.823 49.752H316.111V51.24H309.823V49.752ZM322.059 41.736V48.336H330.747V49.872H322.059V57H320.283V40.2H331.803V41.736H322.059ZM335.47 40.2H337.246V57H335.47V40.2ZM356.753 40.2V57H355.289L344.489 43.368V57H342.713V40.2H344.177L355.001 53.832V40.2H356.753ZM374.116 55.464V57H362.236V40.2H373.756V41.736H364.012V47.712H372.7V49.224H364.012V55.464H374.116ZM388.616 57L383.192 49.608L377.792 57H375.752L382.136 48.36L376.16 40.2H378.2L383.264 47.064L388.304 40.2H390.224L384.272 48.312L390.68 57H388.616Z" fill="white"/>
<path d="M107.8 159.355L102.136 176.155H100.264L95.344 161.827L90.4 176.155H88.552L82.888 159.355H84.712L89.56 173.803L94.576 159.355H96.232L101.176 173.875L106.096 159.355H107.8ZM121.077 171.667H111.717L109.701 176.155H107.853L115.533 159.355H117.285L124.965 176.155H123.093L121.077 171.667ZM120.429 170.227L116.397 161.203L112.365 170.227H120.429ZM127.744 159.355H129.52V174.619H138.928V176.155H127.744V159.355ZM141.877 159.355H143.653V174.619H153.061V176.155H141.877V159.355ZM166.923 176.299C165.675 176.299 164.475 176.099 163.323 175.699C162.187 175.299 161.307 174.771 160.683 174.115L161.379 172.747C161.987 173.355 162.795 173.851 163.803 174.235C164.811 174.603 165.851 174.787 166.923 174.787C168.427 174.787 169.555 174.515 170.307 173.971C171.059 173.411 171.435 172.691 171.435 171.811C171.435 171.139 171.227 170.603 170.811 170.203C170.411 169.803 169.915 169.499 169.323 169.291C168.731 169.067 167.907 168.827 166.851 168.571C165.587 168.251 164.579 167.947 163.827 167.659C163.075 167.355 162.427 166.899 161.883 166.291C161.355 165.683 161.091 164.859 161.091 163.819C161.091 162.971 161.315 162.203 161.763 161.515C162.211 160.811 162.899 160.251 163.827 159.835C164.755 159.419 165.907 159.211 167.283 159.211C168.243 159.211 169.179 159.347 170.091 159.619C171.019 159.875 171.819 160.235 172.491 160.699L171.891 162.115C171.187 161.651 170.435 161.307 169.635 161.083C168.835 160.843 168.051 160.723 167.283 160.723C165.811 160.723 164.699 161.011 163.947 161.587C163.211 162.147 162.843 162.875 162.843 163.771C162.843 164.443 163.043 164.987 163.443 165.403C163.859 165.803 164.371 166.115 164.979 166.339C165.603 166.547 166.435 166.779 167.475 167.035C168.707 167.339 169.699 167.643 170.451 167.947C171.219 168.235 171.867 168.683 172.395 169.291C172.923 169.883 173.187 170.691 173.187 171.715C173.187 172.563 172.955 173.339 172.491 174.043C172.043 174.731 171.347 175.283 170.403 175.699C169.459 176.099 168.299 176.299 166.923 176.299ZM180.086 160.891H174.182V159.355H187.766V160.891H181.862V176.155H180.086V160.891ZM202.075 176.155L198.235 170.755C197.803 170.803 197.355 170.827 196.891 170.827H192.379V176.155H190.603V159.355H196.891C199.035 159.355 200.715 159.867 201.931 160.891C203.147 161.915 203.755 163.323 203.755 165.115C203.755 166.427 203.419 167.539 202.747 168.451C202.091 169.347 201.147 169.995 199.915 170.395L204.019 176.155H202.075ZM196.843 169.315C198.507 169.315 199.779 168.947 200.659 168.211C201.539 167.475 201.979 166.443 201.979 165.115C201.979 163.755 201.539 162.715 200.659 161.995C199.779 161.259 198.507 160.891 196.843 160.891H192.379V169.315H196.843ZM219.827 174.619V176.155H207.947V159.355H219.467V160.891H209.723V166.867H218.411V168.379H209.723V174.619H219.827ZM235.882 174.619V176.155H224.002V159.355H235.522V160.891H225.778V166.867H234.466V168.379H225.778V174.619H235.882ZM243.32 160.891H237.416V159.355H251V160.891H245.096V176.155H243.32V160.891ZM270.703 167.491C271.807 167.731 272.655 168.211 273.247 168.931C273.855 169.635 274.159 170.547 274.159 171.667C274.159 173.107 273.623 174.219 272.551 175.003C271.495 175.771 269.927 176.155 267.847 176.155H260.119V159.355H267.367C269.239 159.355 270.687 159.731 271.711 160.483C272.751 161.235 273.271 162.299 273.271 163.675C273.271 164.603 273.039 165.395 272.575 166.051C272.127 166.691 271.503 167.171 270.703 167.491ZM261.895 160.819V166.915H267.247C268.607 166.915 269.655 166.659 270.391 166.147C271.127 165.619 271.495 164.859 271.495 163.867C271.495 162.875 271.127 162.123 270.391 161.611C269.655 161.083 268.607 160.819 267.247 160.819H261.895ZM267.823 174.691C269.327 174.691 270.463 174.435 271.231 173.923C271.999 173.411 272.383 172.611 272.383 171.523C272.383 169.427 270.863 168.379 267.823 168.379H261.895V174.691H267.823ZM285.557 176.299C283.893 176.299 282.381 175.931 281.021 175.195C279.677 174.443 278.621 173.419 277.853 172.123C277.101 170.827 276.725 169.371 276.725 167.755C276.725 166.139 277.101 164.683 277.853 163.387C278.621 162.091 279.677 161.075 281.021 160.339C282.381 159.587 283.893 159.211 285.557 159.211C287.221 159.211 288.717 159.579 290.045 160.315C291.389 161.051 292.445 162.075 293.213 163.387C293.981 164.683 294.365 166.139 294.365 167.755C294.365 169.371 293.981 170.835 293.213 172.147C292.445 173.443 291.389 174.459 290.045 175.195C288.717 175.931 287.221 176.299 285.557 176.299ZM285.557 174.715C286.885 174.715 288.085 174.419 289.157 173.827C290.229 173.219 291.069 172.387 291.677 171.331C292.285 170.259 292.589 169.067 292.589 167.755C292.589 166.443 292.285 165.259 291.677 164.203C291.069 163.131 290.229 162.299 289.157 161.707C288.085 161.099 286.885 160.795 285.557 160.795C284.229 160.795 283.021 161.099 281.933 161.707C280.861 162.299 280.013 163.131 279.389 164.203C278.781 165.259 278.477 166.443 278.477 167.755C278.477 169.067 278.781 170.259 279.389 171.331C280.013 172.387 280.861 173.219 281.933 173.827C283.021 174.419 284.229 174.715 285.557 174.715ZM301.375 160.891H295.471V159.355H309.055V160.891H303.151V176.155H301.375V160.891ZM309.823 168.907H316.111V170.395H309.823V168.907ZM322.059 160.891V167.491H330.747V169.027H322.059V176.155H320.283V159.355H331.803V160.891H322.059ZM335.47 159.355H337.246V176.155H335.47V159.355ZM356.753 159.355V176.155H355.289L344.489 162.523V176.155H342.713V159.355H344.177L355.001 172.987V159.355H356.753ZM374.116 174.619V176.155H362.236V159.355H373.756V160.891H364.012V166.867H372.7V168.379H364.012V174.619H374.116ZM388.616 176.155L383.192 168.763L377.792 176.155H375.752L382.136 167.515L376.16 159.355H378.2L383.264 166.219L388.304 159.355H390.224L384.272 167.467L390.68 176.155H388.616Z" fill="white"/>
<path d="M107.8 286.2L102.136 303H100.264L95.344 288.672L90.4 303H88.552L82.888 286.2H84.712L89.56 300.648L94.576 286.2H96.232L101.176 300.72L106.096 286.2H107.8ZM121.077 298.512H111.717L109.701 303H107.853L115.533 286.2H117.285L124.965 303H123.093L121.077 298.512ZM120.429 297.072L116.397 288.048L112.365 297.072H120.429ZM127.744 286.2H129.52V301.464H138.928V303H127.744V286.2ZM141.877 286.2H143.653V301.464H153.061V303H141.877V286.2ZM166.923 303.144C165.675 303.144 164.475 302.944 163.323 302.544C162.187 302.144 161.307 301.616 160.683 300.96L161.379 299.592C161.987 300.2 162.795 300.696 163.803 301.08C164.811 301.448 165.851 301.632 166.923 301.632C168.427 301.632 169.555 301.36 170.307 300.816C171.059 300.256 171.435 299.536 171.435 298.656C171.435 297.984 171.227 297.448 170.811 297.048C170.411 296.648 169.915 296.344 169.323 296.136C168.731 295.912 167.907 295.672 166.851 295.416C165.587 295.096 164.579 294.792 163.827 294.504C163.075 294.2 162.427 293.744 161.883 293.136C161.355 292.528 161.091 291.704 161.091 290.664C161.091 289.816 161.315 289.048 161.763 288.36C162.211 287.656 162.899 287.096 163.827 286.68C164.755 286.264 165.907 286.056 167.283 286.056C168.243 286.056 169.179 286.192 170.091 286.464C171.019 286.72 171.819 287.08 172.491 287.544L171.891 288.96C171.187 288.496 170.435 288.152 169.635 287.928C168.835 287.688 168.051 287.568 167.283 287.568C165.811 287.568 164.699 287.856 163.947 288.432C163.211 288.992 162.843 289.72 162.843 290.616C162.843 291.288 163.043 291.832 163.443 292.248C163.859 292.648 164.371 292.96 164.979 293.184C165.603 293.392 166.435 293.624 167.475 293.88C168.707 294.184 169.699 294.488 170.451 294.792C171.219 295.08 171.867 295.528 172.395 296.136C172.923 296.728 173.187 297.536 173.187 298.56C173.187 299.408 172.955 300.184 172.491 300.888C172.043 301.576 171.347 302.128 170.403 302.544C169.459 302.944 168.299 303.144 166.923 303.144ZM180.086 287.736H174.182V286.2H187.766V287.736H181.862V303H180.086V287.736ZM202.075 303L198.235 297.6C197.803 297.648 197.355 297.672 196.891 297.672H192.379V303H190.603V286.2H196.891C199.035 286.2 200.715 286.712 201.931 287.736C203.147 288.76 203.755 290.168 203.755 291.96C203.755 293.272 203.419 294.384 202.747 295.296C202.091 296.192 201.147 296.84 199.915 297.24L204.019 303H202.075ZM196.843 296.16C198.507 296.16 199.779 295.792 200.659 295.056C201.539 294.32 201.979 293.288 201.979 291.96C201.979 290.6 201.539 289.56 200.659 288.84C199.779 288.104 198.507 287.736 196.843 287.736H192.379V296.16H196.843ZM219.827 301.464V303H207.947V286.2H219.467V287.736H209.723V293.712H218.411V295.224H209.723V301.464H219.827ZM235.882 301.464V303H224.002V286.2H235.522V287.736H225.778V293.712H234.466V295.224H225.778V301.464H235.882ZM243.32 287.736H237.416V286.2H251V287.736H245.096V303H243.32V287.736ZM270.703 294.336C271.807 294.576 272.655 295.056 273.247 295.776C273.855 296.48 274.159 297.392 274.159 298.512C274.159 299.952 273.623 301.064 272.551 301.848C271.495 302.616 269.927 303 267.847 303H260.119V286.2H267.367C269.239 286.2 270.687 286.576 271.711 287.328C272.751 288.08 273.271 289.144 273.271 290.52C273.271 291.448 273.039 292.24 272.575 292.896C272.127 293.536 271.503 294.016 270.703 294.336ZM261.895 287.664V293.76H267.247C268.607 293.76 269.655 293.504 270.391 292.992C271.127 292.464 271.495 291.704 271.495 290.712C271.495 289.72 271.127 288.968 270.391 288.456C269.655 287.928 268.607 287.664 267.247 287.664H261.895ZM267.823 301.536C269.327 301.536 270.463 301.28 271.231 300.768C271.999 300.256 272.383 299.456 272.383 298.368C272.383 296.272 270.863 295.224 267.823 295.224H261.895V301.536H267.823ZM285.557 303.144C283.893 303.144 282.381 302.776 281.021 302.04C279.677 301.288 278.621 300.264 277.853 298.968C277.101 297.672 276.725 296.216 276.725 294.6C276.725 292.984 277.101 291.528 277.853 290.232C278.621 288.936 279.677 287.92 281.021 287.184C282.381 286.432 283.893 286.056 285.557 286.056C287.221 286.056 288.717 286.424 290.045 287.16C291.389 287.896 292.445 288.92 293.213 290.232C293.981 291.528 294.365 292.984 294.365 294.6C294.365 296.216 293.981 297.68 293.213 298.992C292.445 300.288 291.389 301.304 290.045 302.04C288.717 302.776 287.221 303.144 285.557 303.144ZM285.557 301.56C286.885 301.56 288.085 301.264 289.157 300.672C290.229 300.064 291.069 299.232 291.677 298.176C292.285 297.104 292.589 295.912 292.589 294.6C292.589 293.288 292.285 292.104 291.677 291.048C291.069 289.976 290.229 289.144 289.157 288.552C288.085 287.944 286.885 287.64 285.557 287.64C284.229 287.64 283.021 287.944 281.933 288.552C280.861 289.144 280.013 289.976 279.389 291.048C278.781 292.104 278.477 293.288 278.477 294.6C278.477 295.912 278.781 297.104 279.389 298.176C280.013 299.232 280.861 300.064 281.933 300.672C283.021 301.264 284.229 301.56 285.557 301.56ZM301.375 287.736H295.471V286.2H309.055V287.736H303.151V303H301.375V287.736ZM309.823 295.752H316.111V297.24H309.823V295.752ZM333.712 286.2L326.272 303H324.52L317.08 286.2H319L325.432 300.792L331.912 286.2H333.712ZM336.15 286.2H337.926V303H336.15V286.2ZM349.68 286.2C351.824 286.2 353.504 286.712 354.72 287.736C355.936 288.76 356.544 290.168 356.544 291.96C356.544 293.752 355.936 295.16 354.72 296.184C353.504 297.192 351.824 297.696 349.68 297.696H345.168V303H343.392V286.2H349.68ZM349.632 296.136C351.296 296.136 352.568 295.776 353.448 295.056C354.328 294.32 354.768 293.288 354.768 291.96C354.768 290.6 354.328 289.56 353.448 288.84C352.568 288.104 351.296 287.736 349.632 287.736H345.168V296.136H349.632ZM360.619 285.192H362.203V307.656H360.619V285.192ZM373.978 286.2H380.818C382.594 286.2 384.162 286.56 385.522 287.28C386.882 287.984 387.938 288.976 388.69 290.256C389.442 291.52 389.818 292.968 389.818 294.6C389.818 296.232 389.442 297.688 388.69 298.968C387.938 300.232 386.882 301.224 385.522 301.944C384.162 302.648 382.594 303 380.818 303H373.978V286.2ZM380.722 301.464C382.194 301.464 383.482 301.176 384.586 300.6C385.69 300.008 386.546 299.2 387.154 298.176C387.762 297.136 388.066 295.944 388.066 294.6C388.066 293.256 387.762 292.072 387.154 291.048C386.546 290.008 385.69 289.2 384.586 288.624C383.482 288.032 382.194 287.736 380.722 287.736H375.754V301.464H380.722ZM405.686 301.464V303H393.806V286.2H405.326V287.736H395.582V293.712H404.27V295.224H395.582V301.464H405.686ZM409.861 286.2H411.637V301.464H421.045V303H409.861V286.2ZM425.688 287.736H419.784V286.2H433.368V287.736H427.464V303H425.688V287.736ZM445.897 298.512H436.537L434.521 303H432.673L440.353 286.2H442.105L449.785 303H447.913L445.897 298.512ZM445.249 297.072L441.217 288.048L437.185 297.072H445.249Z" fill="white"/>
<rect x="85" y="83.4668" width="376" height="23.7819" rx="11.891" fill="url(#paint0_linear)"/>
<rect x="85" y="202.621" width="376" height="23.7819" rx="11.891" fill="url(#paint1_linear)"/>
<rect x="85" y="336.126" width="376" height="23.7819" rx="11.891" fill="url(#paint2_linear)"/>
<rect x="85" y="83.4668" width="282" height="23.7819" rx="11.891" fill="url(#paint3_linear)"/>
<rect x="85" y="202.621" width="229" height="20.9281" rx="10.464" fill="url(#paint4_linear)"/>
<rect x="85" y="336.126" width="174" height="19.0255" rx="9.51276" fill="url(#paint5_linear)"/>
<ellipse cx="358" cy="95.8322" rx="20" ry="19.0255" fill="#323337"/>
<ellipse cx="309.5" cy="213.086" rx="16.5" ry="15.2204" fill="#323337"/>
<ellipse cx="257" cy="344.077" rx="16" ry="14.6116" fill="#323337"/>
<path d="M434.644 64.8348V65.5488L430.542 74.6348H429.45L433.482 65.7308H428.442V67.5648H427.448V64.8348H434.644ZM439.605 74.7188C438.849 74.7188 438.172 74.5181 437.575 74.1168C436.987 73.7154 436.525 73.1414 436.189 72.3948C435.862 71.6388 435.699 70.7521 435.699 69.7348C435.699 68.7174 435.862 67.8354 436.189 67.0888C436.525 66.3328 436.987 65.7541 437.575 65.3528C438.172 64.9514 438.849 64.7508 439.605 64.7508C440.361 64.7508 441.033 64.9514 441.621 65.3528C442.218 65.7541 442.685 66.3328 443.021 67.0888C443.357 67.8354 443.525 68.7174 443.525 69.7348C443.525 70.7521 443.357 71.6388 443.021 72.3948C442.685 73.1414 442.218 73.7154 441.621 74.1168C441.033 74.5181 440.361 74.7188 439.605 74.7188ZM439.605 73.7948C440.174 73.7948 440.673 73.6361 441.103 73.3188C441.541 73.0014 441.882 72.5394 442.125 71.9328C442.367 71.3261 442.489 70.5934 442.489 69.7348C442.489 68.8761 442.367 68.1434 442.125 67.5368C441.882 66.9301 441.541 66.4681 441.103 66.1508C440.673 65.8334 440.174 65.6748 439.605 65.6748C439.035 65.6748 438.531 65.8334 438.093 66.1508C437.663 66.4681 437.327 66.9301 437.085 67.5368C436.842 68.1434 436.721 68.8761 436.721 69.7348C436.721 70.5934 436.842 71.3261 437.085 71.9328C437.327 72.5394 437.663 73.0014 438.093 73.3188C438.531 73.6361 439.035 73.7948 439.605 73.7948ZM447.04 70.0848C446.378 70.0848 445.841 69.8421 445.43 69.3568C445.029 68.8621 444.828 68.2181 444.828 67.4248C444.828 66.6314 445.029 65.9921 445.43 65.5068C445.841 65.0121 446.378 64.7648 447.04 64.7648C447.694 64.7648 448.226 65.0074 448.636 65.4928C449.047 65.9781 449.252 66.6221 449.252 67.4248C449.252 68.2274 449.047 68.8714 448.636 69.3568C448.226 69.8421 447.694 70.0848 447.04 70.0848ZM452.976 64.8348H453.802L447.11 74.6348H446.284L452.976 64.8348ZM447.04 69.4548C447.498 69.4548 447.862 69.2774 448.132 68.9228C448.412 68.5588 448.552 68.0594 448.552 67.4248C448.552 66.7901 448.412 66.2954 448.132 65.9408C447.862 65.5768 447.498 65.3948 447.04 65.3948C446.574 65.3948 446.205 65.5768 445.934 65.9408C445.664 66.3048 445.528 66.7994 445.528 67.4248C445.528 68.0501 445.664 68.5448 445.934 68.9088C446.205 69.2728 446.574 69.4548 447.04 69.4548ZM453.046 74.7048C452.393 74.7048 451.861 74.4621 451.45 73.9768C451.04 73.4821 450.834 72.8381 450.834 72.0448C450.834 71.2514 451.04 70.6121 451.45 70.1268C451.861 69.6321 452.393 69.3848 453.046 69.3848C453.709 69.3848 454.241 69.6321 454.642 70.1268C455.053 70.6121 455.258 71.2514 455.258 72.0448C455.258 72.8381 455.053 73.4821 454.642 73.9768C454.241 74.4621 453.709 74.7048 453.046 74.7048ZM453.046 74.0748C453.513 74.0748 453.882 73.8928 454.152 73.5288C454.423 73.1648 454.558 72.6701 454.558 72.0448C454.558 71.4194 454.423 70.9248 454.152 70.5608C453.882 70.1968 453.513 70.0148 453.046 70.0148C452.589 70.0148 452.22 70.1968 451.94 70.5608C451.67 70.9154 451.534 71.4101 451.534 72.0448C451.534 72.6794 451.67 73.1788 451.94 73.5428C452.22 73.8974 452.589 74.0748 453.046 74.0748Z" fill="white"/>
<path d="M435.304 188.96C436.723 188.96 437.754 189.217 438.398 189.73C439.051 190.234 439.378 190.944 439.378 191.858C439.378 192.428 439.243 192.936 438.972 193.384C438.711 193.832 438.314 194.187 437.782 194.448C437.25 194.7 436.597 194.826 435.822 194.826C435.122 194.826 434.455 194.714 433.82 194.49C433.195 194.257 432.691 193.949 432.308 193.566L432.798 192.768C433.125 193.104 433.554 193.38 434.086 193.594C434.618 193.8 435.192 193.902 435.808 193.902C436.62 193.902 437.245 193.72 437.684 193.356C438.132 192.992 438.356 192.507 438.356 191.9C438.356 191.228 438.104 190.72 437.6 190.374C437.105 190.029 436.265 189.856 435.08 189.856H432.994L433.498 184.942H438.86V185.838H434.38L434.044 188.96H435.304ZM444.564 194.826C443.808 194.826 443.131 194.626 442.534 194.224C441.946 193.823 441.484 193.249 441.148 192.502C440.821 191.746 440.658 190.86 440.658 189.842C440.658 188.825 440.821 187.943 441.148 187.196C441.484 186.44 441.946 185.862 442.534 185.46C443.131 185.059 443.808 184.858 444.564 184.858C445.32 184.858 445.992 185.059 446.58 185.46C447.177 185.862 447.644 186.44 447.98 187.196C448.316 187.943 448.484 188.825 448.484 189.842C448.484 190.86 448.316 191.746 447.98 192.502C447.644 193.249 447.177 193.823 446.58 194.224C445.992 194.626 445.32 194.826 444.564 194.826ZM444.564 193.902C445.133 193.902 445.632 193.744 446.062 193.426C446.5 193.109 446.841 192.647 447.084 192.04C447.326 191.434 447.448 190.701 447.448 189.842C447.448 188.984 447.326 188.251 447.084 187.644C446.841 187.038 446.5 186.576 446.062 186.258C445.632 185.941 445.133 185.782 444.564 185.782C443.994 185.782 443.49 185.941 443.052 186.258C442.622 186.576 442.286 187.038 442.044 187.644C441.801 188.251 441.68 188.984 441.68 189.842C441.68 190.701 441.801 191.434 442.044 192.04C442.286 192.647 442.622 193.109 443.052 193.426C443.49 193.744 443.994 193.902 444.564 193.902ZM451.999 190.192C451.337 190.192 450.8 189.95 450.389 189.464C449.988 188.97 449.787 188.326 449.787 187.532C449.787 186.739 449.988 186.1 450.389 185.614C450.8 185.12 451.337 184.872 451.999 184.872C452.653 184.872 453.185 185.115 453.595 185.6C454.006 186.086 454.211 186.73 454.211 187.532C454.211 188.335 454.006 188.979 453.595 189.464C453.185 189.95 452.653 190.192 451.999 190.192ZM457.935 184.942H458.761L452.069 194.742H451.243L457.935 184.942ZM451.999 189.562C452.457 189.562 452.821 189.385 453.091 189.03C453.371 188.666 453.511 188.167 453.511 187.532C453.511 186.898 453.371 186.403 453.091 186.048C452.821 185.684 452.457 185.502 451.999 185.502C451.533 185.502 451.164 185.684 450.893 186.048C450.623 186.412 450.487 186.907 450.487 187.532C450.487 188.158 450.623 188.652 450.893 189.016C451.164 189.38 451.533 189.562 451.999 189.562ZM458.005 194.812C457.352 194.812 456.82 194.57 456.409 194.084C455.999 193.59 455.793 192.946 455.793 192.152C455.793 191.359 455.999 190.72 456.409 190.234C456.82 189.74 457.352 189.492 458.005 189.492C458.668 189.492 459.2 189.74 459.601 190.234C460.012 190.72 460.217 191.359 460.217 192.152C460.217 192.946 460.012 193.59 459.601 194.084C459.2 194.57 458.668 194.812 458.005 194.812ZM458.005 194.182C458.472 194.182 458.841 194 459.111 193.636C459.382 193.272 459.517 192.778 459.517 192.152C459.517 191.527 459.382 191.032 459.111 190.668C458.841 190.304 458.472 190.122 458.005 190.122C457.548 190.122 457.179 190.304 456.899 190.668C456.629 191.023 456.493 191.518 456.493 192.152C456.493 192.787 456.629 193.286 456.899 193.65C457.179 194.005 457.548 194.182 458.005 194.182Z" fill="white"/>
<path d="M441.058 329.476H439.098V332.052H438.09V329.476H432.56V328.748L437.754 322.252H438.874L433.862 328.58H438.118V326.312H439.098V328.58H441.058V329.476ZM445.89 332.136C445.134 332.136 444.457 331.935 443.86 331.534C443.272 331.132 442.81 330.558 442.474 329.812C442.147 329.056 441.984 328.169 441.984 327.152C441.984 326.134 442.147 325.252 442.474 324.506C442.81 323.75 443.272 323.171 443.86 322.77C444.457 322.368 445.134 322.168 445.89 322.168C446.646 322.168 447.318 322.368 447.906 322.77C448.503 323.171 448.97 323.75 449.306 324.506C449.642 325.252 449.81 326.134 449.81 327.152C449.81 328.169 449.642 329.056 449.306 329.812C448.97 330.558 448.503 331.132 447.906 331.534C447.318 331.935 446.646 332.136 445.89 332.136ZM445.89 331.212C446.459 331.212 446.959 331.053 447.388 330.736C447.827 330.418 448.167 329.956 448.41 329.35C448.653 328.743 448.774 328.01 448.774 327.152C448.774 326.293 448.653 325.56 448.41 324.954C448.167 324.347 447.827 323.885 447.388 323.568C446.959 323.25 446.459 323.092 445.89 323.092C445.321 323.092 444.817 323.25 444.378 323.568C443.949 323.885 443.613 324.347 443.37 324.954C443.127 325.56 443.006 326.293 443.006 327.152C443.006 328.01 443.127 328.743 443.37 329.35C443.613 329.956 443.949 330.418 444.378 330.736C444.817 331.053 445.321 331.212 445.89 331.212ZM453.325 327.502C452.663 327.502 452.126 327.259 451.715 326.774C451.314 326.279 451.113 325.635 451.113 324.842C451.113 324.048 451.314 323.409 451.715 322.924C452.126 322.429 452.663 322.182 453.325 322.182C453.979 322.182 454.511 322.424 454.921 322.91C455.332 323.395 455.537 324.039 455.537 324.842C455.537 325.644 455.332 326.288 454.921 326.774C454.511 327.259 453.979 327.502 453.325 327.502ZM459.261 322.252H460.087L453.395 332.052H452.569L459.261 322.252ZM453.325 326.872C453.783 326.872 454.147 326.694 454.417 326.34C454.697 325.976 454.837 325.476 454.837 324.842C454.837 324.207 454.697 323.712 454.417 323.358C454.147 322.994 453.783 322.812 453.325 322.812C452.859 322.812 452.49 322.994 452.219 323.358C451.949 323.722 451.813 324.216 451.813 324.842C451.813 325.467 451.949 325.962 452.219 326.326C452.49 326.69 452.859 326.872 453.325 326.872ZM459.331 332.122C458.678 332.122 458.146 331.879 457.735 331.394C457.325 330.899 457.119 330.255 457.119 329.462C457.119 328.668 457.325 328.029 457.735 327.544C458.146 327.049 458.678 326.802 459.331 326.802C459.994 326.802 460.526 327.049 460.927 327.544C461.338 328.029 461.543 328.668 461.543 329.462C461.543 330.255 461.338 330.899 460.927 331.394C460.526 331.879 459.994 332.122 459.331 332.122ZM459.331 331.492C459.798 331.492 460.167 331.31 460.437 330.946C460.708 330.582 460.843 330.087 460.843 329.462C460.843 328.836 460.708 328.342 460.437 327.978C460.167 327.614 459.798 327.432 459.331 327.432C458.874 327.432 458.505 327.614 458.225 327.978C457.955 328.332 457.819 328.827 457.819 329.462C457.819 330.096 457.955 330.596 458.225 330.96C458.505 331.314 458.874 331.492 459.331 331.492Z" fill="white"/>
<defs>
<filter id="filter0_d" x="0" y="0" width="610" height="418" filterUnits="userSpaceOnUse" color-interpolation-filters="sRGB">
<feFlood flood-opacity="0" result="BackgroundImageFix"/>
<feColorMatrix in="SourceAlpha" type="matrix" values="0 0 0 0 0 0 0 0 0 0 0 0 0 0 0 0 0 0 127 0"/>
<feOffset dy="4"/>
<feGaussianBlur stdDeviation="2"/>
<feColorMatrix type="matrix" values="0 0 0 0 0 0 0 0 0 0 0 0 0 0 0 0 0 0 0.25 0"/>
<feBlend mode="normal" in2="BackgroundImageFix" result="effect1_dropShadow"/>
<feBlend mode="normal" in="SourceGraphic" in2="effect1_dropShadow" result="shape"/>
</filter>
<linearGradient id="paint0_linear" x1="273" y1="83.4668" x2="273" y2="107.249" gradientUnits="userSpaceOnUse">
<stop stop-color="#13171A"/>
<stop offset="1" stop-color="#13171A" stop-opacity="0"/>
</linearGradient>
<linearGradient id="paint1_linear" x1="273" y1="202.621" x2="273" y2="226.403" gradientUnits="userSpaceOnUse">
<stop stop-color="#13171A"/>
<stop offset="1" stop-color="#13171A" stop-opacity="0"/>
</linearGradient>
<linearGradient id="paint2_linear" x1="273" y1="336.126" x2="273" y2="359.908" gradientUnits="userSpaceOnUse">
<stop stop-color="#13171A"/>
<stop offset="1" stop-color="#13171A" stop-opacity="0"/>
</linearGradient>
<linearGradient id="paint3_linear" x1="226" y1="83.4668" x2="226" y2="107.249" gradientUnits="userSpaceOnUse">
<stop stop-color="#219CF9"/>
<stop offset="1" stop-color="#593DE7"/>
</linearGradient>
<linearGradient id="paint4_linear" x1="199.5" y1="202.621" x2="199.5" y2="223.549" gradientUnits="userSpaceOnUse">
<stop stop-color="#219CF9"/>
<stop offset="1" stop-color="#593DE7"/>
</linearGradient>
<linearGradient id="paint5_linear" x1="172" y1="336.126" x2="172" y2="355.151" gradientUnits="userSpaceOnUse">
<stop stop-color="#219CF9"/>
<stop offset="1" stop-color="#593DE7"/>
</linearGradient>
</defs>
</svg>
