<svg width="233" height="240" viewBox="0 0 233 240" fill="none" xmlns="http://www.w3.org/2000/svg">
<g filter="url(#filter0_d)">
<rect x="25" y="21" width="183" height="190" fill="#2A2B2F"/>
</g>
<path d="M119.232 146.248V151H100.188V147.22L109.908 138.04C110.94 137.056 111.636 136.216 111.996 135.52C112.356 134.8 112.536 134.092 112.536 133.396C112.536 132.388 112.188 131.62 111.492 131.092C110.82 130.54 109.824 130.264 108.504 130.264C107.4 130.264 106.404 130.48 105.516 130.912C104.628 131.32 103.884 131.944 103.284 132.784L99.036 130.048C100.02 128.584 101.376 127.444 103.104 126.628C104.832 125.788 106.812 125.368 109.044 125.368C110.916 125.368 112.548 125.68 113.94 126.304C115.356 126.904 116.448 127.768 117.216 128.896C118.008 130 118.404 131.308 118.404 132.82C118.404 134.188 118.116 135.472 117.54 136.672C116.964 137.872 115.848 139.24 114.192 140.776L108.396 146.248H119.232Z" fill="white"/>
<path d="M141.106 95.5594H139.759V89.1563C139.539 89.2893 139.284 89.3685 139.004 89.3685C136.166 89.3685 133.905 88.5197 132.278 86.8475C131.944 86.5023 131.653 86.1429 131.404 85.7723C131.203 86.0778 130.974 86.3806 130.711 86.6692C129.095 88.4603 126.699 89.3657 123.595 89.3657C120.754 89.3657 118.493 88.5169 116.866 86.8446C116.532 86.4994 116.244 86.1401 115.992 85.7694C115.791 86.075 115.562 86.3778 115.299 86.6664C113.68 88.4574 111.286 89.3629 108.182 89.3629C105.344 89.3629 103.081 88.514 101.454 86.8418C101.12 86.4966 100.831 86.1373 100.582 85.7666C100.382 86.0722 100.15 86.3749 99.8893 86.6635C98.2708 88.4546 95.8742 89.36 92.7703 89.36C92.5751 89.36 92.3911 89.3204 92.2214 89.2525V95.5538H90.8859C89.7003 95.5538 88.7383 96.5158 88.7383 97.7013V99.8518C88.7383 101.037 89.7003 101.999 90.8859 101.999H141.106C142.292 101.999 143.257 101.037 143.257 99.8518V97.7013C143.257 96.5215 142.292 95.5594 141.106 95.5594Z" fill="url(#paint0_linear)"/>
<path d="M97.6866 84.6725C98.8325 83.4077 98.991 81.6987 98.9995 80.9574C98.9797 80.632 98.9825 80.4255 98.9853 80.3943C99.0079 79.6078 99.6361 78.9739 100.423 78.9457C101.212 78.9202 101.88 79.5031 101.956 80.2897C101.959 80.3208 101.979 80.5245 101.979 80.8471C102.038 81.628 102.318 83.4728 103.614 84.7914C104.658 85.8552 106.198 86.39 108.19 86.39C110.416 86.39 112.069 85.8156 113.099 84.6754C114.248 83.4106 114.403 81.7016 114.412 80.9602C114.392 80.6349 114.395 80.4283 114.395 80.3972C114.417 79.6106 115.045 78.9768 115.829 78.9485C116.613 78.923 117.286 79.5059 117.366 80.2925C117.368 80.3236 117.385 80.5273 117.388 80.8499C117.448 81.6308 117.728 83.4757 119.024 84.7942C120.068 85.8581 121.604 86.3928 123.599 86.3928C125.826 86.3928 127.475 85.8185 128.505 84.6782C129.651 83.4134 129.81 81.7044 129.818 80.9631C129.798 80.6377 129.801 80.4311 129.801 80.4C129.827 79.6134 130.452 78.9796 131.239 78.9513C132.011 78.9258 132.696 79.5087 132.775 80.2953C132.778 80.3264 132.798 80.5302 132.798 80.8527C132.857 81.6337 133.137 83.4785 134.433 84.797C135.477 85.8609 137.014 86.3957 139.005 86.3957C139.286 86.3957 139.537 86.4777 139.761 86.6079V79.7209C139.761 78.5354 138.802 77.5734 137.613 77.5734H136.21V72.1266C136.023 72.237 135.803 72.3049 135.568 72.3049C133.151 72.3049 131.227 71.5833 129.846 70.1601C129.561 69.8687 129.315 69.5631 129.105 69.249C128.93 69.5093 128.737 69.7668 128.514 70.013C127.139 71.5352 125.101 72.3077 122.459 72.3077C120.045 72.3077 118.121 71.5862 116.737 70.1629C116.452 69.8715 116.208 69.5659 115.996 69.2519C115.826 69.5122 115.628 69.7696 115.408 70.0158C114.03 71.5381 111.992 72.3105 109.355 72.3105C106.942 72.3105 105.015 71.589 103.634 70.1658C103.351 69.8743 103.105 69.5688 102.89 69.2547C102.72 69.515 102.525 69.7725 102.301 70.0186C100.924 71.5409 98.8863 72.3134 96.2464 72.3134C96.0823 72.3134 95.9238 72.2794 95.7795 72.2228V77.5818H94.3761C93.1905 77.5818 92.2285 78.5439 92.2285 79.7294V86.5117C92.3983 86.4438 92.5822 86.4013 92.7774 86.4013C95.0042 86.3872 96.6567 85.8128 97.6866 84.6725Z" fill="url(#paint1_linear)"/>
<path d="M100.422 68.307C101.399 67.2262 101.534 65.7746 101.54 65.1408C101.523 64.8664 101.526 64.6938 101.526 64.6655C101.546 63.9977 102.081 63.4601 102.748 63.4346C103.419 63.4148 103.988 63.91 104.053 64.5749C104.056 64.6032 104.073 64.7758 104.073 65.0503C104.123 65.7152 104.361 67.2827 105.462 68.406C106.35 69.3115 107.66 69.767 109.355 69.767C111.248 69.767 112.654 69.2747 113.531 68.307C114.508 67.2262 114.643 65.7746 114.649 65.1408C114.629 64.8664 114.635 64.6938 114.635 64.6655C114.655 63.9977 115.19 63.4601 115.857 63.4346C116.522 63.4148 117.097 63.91 117.162 64.5749C117.165 64.6032 117.179 64.7758 117.181 65.0503C117.232 65.7152 117.47 67.2827 118.571 68.406C119.456 69.3115 120.766 69.767 122.461 69.767C124.357 69.767 125.76 69.2747 126.64 68.307C127.617 67.2262 127.75 65.7746 127.758 65.1408C127.738 64.8664 127.741 64.6938 127.741 64.6655C127.764 63.9977 128.293 63.4601 128.963 63.4346C129.623 63.4148 130.203 63.91 130.271 64.5749C130.273 64.6032 130.29 64.7758 130.293 65.0503C130.344 65.7152 130.579 67.2827 131.68 68.406C132.565 69.3115 133.875 69.767 135.573 69.767C135.808 69.767 136.026 69.8349 136.215 69.9453V64.0911C136.215 63.081 135.398 62.2632 134.388 62.2632H120.435V50.5266C120.435 50.5266 121.7 49.1288 120.435 49.2165C119.165 49.3042 118.432 50.1672 116.35 50.6822C116.137 50.7359 115.937 50.7671 115.736 50.8067C115.818 50.3681 116.027 49.9324 116.44 49.5476C117.128 48.9081 117.462 48.2149 117.433 47.4905C117.391 46.3531 116.46 45.5976 116.42 45.5637C116.251 45.4278 116.007 45.4533 115.871 45.6231C115.736 45.7928 115.761 46.0362 115.931 46.1748C115.937 46.1805 116.627 46.7492 116.655 47.5245C116.664 48.0112 116.412 48.4978 115.903 48.976C115.277 49.5617 115.006 50.2464 114.941 50.9312C113.973 51.0444 112.668 50.951 111.562 50.7869C110.459 50.6228 111.562 52.2865 111.562 52.2865V62.2604H97.6071C96.5998 62.2604 95.7793 63.0781 95.7793 64.0883V69.8547C95.9236 69.7953 96.0792 69.7642 96.2462 69.7642C98.1419 69.767 99.5453 69.2747 100.422 68.307Z" fill="url(#paint2_linear)"/>
<path d="M115.299 38C109.04 45.2831 113.25 48.6954 114.43 49.4509C114.623 49.0972 114.866 48.769 115.177 48.4804C115.409 48.2625 115.684 47.94 115.672 47.6287C115.661 47.2948 115.341 46.9496 115.231 46.8534C114.736 46.4517 114.659 45.7132 115.061 45.2095C115.256 44.969 115.534 44.8134 115.848 44.7794C116.156 44.737 116.465 44.8332 116.711 45.0284C116.841 45.1331 117.964 46.081 118.018 47.5353C118.041 48.1493 117.86 48.7322 117.514 49.2868C117.851 49.3632 118.329 49.0944 119.209 47.9117C121.688 42.1763 115.299 38 115.299 38Z" fill="url(#paint3_linear)"/>
<path d="M58.116 177.624V180H48.594V178.11L53.454 173.52C53.97 173.028 54.318 172.608 54.498 172.26C54.678 171.9 54.768 171.546 54.768 171.198C54.768 170.694 54.594 170.31 54.246 170.046C53.91 169.77 53.412 169.632 52.752 169.632C52.2 169.632 51.702 169.74 51.258 169.956C50.814 170.16 50.442 170.472 50.142 170.892L48.018 169.524C48.51 168.792 49.188 168.222 50.052 167.814C50.916 167.394 51.906 167.184 53.022 167.184C53.958 167.184 54.774 167.34 55.47 167.652C56.178 167.952 56.724 168.384 57.108 168.948C57.504 169.5 57.702 170.154 57.702 170.91C57.702 171.594 57.558 172.236 57.27 172.836C56.982 173.436 56.424 174.12 55.596 174.888L52.698 177.624H58.116ZM72.8228 172.62H67.8548V180H65.0648V170.316H72.8228V172.62ZM78.4426 180.144C77.4226 180.144 76.5046 179.934 75.6886 179.514C74.8846 179.082 74.2546 178.488 73.7986 177.732C73.3426 176.976 73.1146 176.118 73.1146 175.158C73.1146 174.198 73.3426 173.34 73.7986 172.584C74.2546 171.828 74.8846 171.24 75.6886 170.82C76.5046 170.388 77.4226 170.172 78.4426 170.172C79.4626 170.172 80.3746 170.388 81.1786 170.82C81.9826 171.24 82.6126 171.828 83.0686 172.584C83.5246 173.34 83.7526 174.198 83.7526 175.158C83.7526 176.118 83.5246 176.976 83.0686 177.732C82.6126 178.488 81.9826 179.082 81.1786 179.514C80.3746 179.934 79.4626 180.144 78.4426 180.144ZM78.4426 177.84C79.1626 177.84 79.7506 177.6 80.2066 177.12C80.6746 176.628 80.9086 175.974 80.9086 175.158C80.9086 174.342 80.6746 173.694 80.2066 173.214C79.7506 172.722 79.1626 172.476 78.4426 172.476C77.7226 172.476 77.1286 172.722 76.6606 173.214C76.1926 173.694 75.9586 174.342 75.9586 175.158C75.9586 175.974 76.1926 176.628 76.6606 177.12C77.1286 177.6 77.7226 177.84 78.4426 177.84ZM96.3974 177.696V182.088H93.7874V180H86.9834V182.088H84.3734V177.696H84.7694C85.3694 177.684 85.7834 177.33 86.0114 176.634C86.2394 175.938 86.3834 174.948 86.4434 173.664L86.5694 170.316H95.0114V177.696H96.3974ZM88.9814 173.862C88.9454 174.846 88.8674 175.65 88.7474 176.274C88.6394 176.898 88.4294 177.372 88.1174 177.696H92.2034V172.62H89.0354L88.9814 173.862ZM101.926 170.172C103.426 170.172 104.578 170.532 105.382 171.252C106.186 171.96 106.588 173.034 106.588 174.474V180H103.96V178.794C103.432 179.694 102.448 180.144 101.008 180.144C100.264 180.144 99.6165 180.018 99.0645 179.766C98.5245 179.514 98.1105 179.166 97.8225 178.722C97.5345 178.278 97.3905 177.774 97.3905 177.21C97.3905 176.31 97.7265 175.602 98.3985 175.086C99.0825 174.57 100.132 174.312 101.548 174.312H103.78C103.78 173.7 103.594 173.232 103.222 172.908C102.85 172.572 102.292 172.404 101.548 172.404C101.032 172.404 100.522 172.488 100.018 172.656C99.5265 172.812 99.1065 173.028 98.7585 173.304L97.7505 171.342C98.2785 170.97 98.9085 170.682 99.6405 170.478C100.384 170.274 101.146 170.172 101.926 170.172ZM101.71 178.254C102.19 178.254 102.616 178.146 102.988 177.93C103.36 177.702 103.624 177.372 103.78 176.94V175.95H101.854C100.702 175.95 100.126 176.328 100.126 177.084C100.126 177.444 100.264 177.732 100.54 177.948C100.828 178.152 101.218 178.254 101.71 178.254ZM119.831 170.172C120.731 170.172 121.547 170.382 122.279 170.802C123.023 171.21 123.605 171.792 124.025 172.548C124.445 173.292 124.655 174.162 124.655 175.158C124.655 176.154 124.445 177.03 124.025 177.786C123.605 178.53 123.023 179.112 122.279 179.532C121.547 179.94 120.731 180.144 119.831 180.144C118.595 180.144 117.623 179.754 116.915 178.974V183.492H114.107V170.316H116.789V171.432C117.485 170.592 118.499 170.172 119.831 170.172ZM119.345 177.84C120.065 177.84 120.653 177.6 121.109 177.12C121.577 176.628 121.811 175.974 121.811 175.158C121.811 174.342 121.577 173.694 121.109 173.214C120.653 172.722 120.065 172.476 119.345 172.476C118.625 172.476 118.031 172.722 117.563 173.214C117.107 173.694 116.879 174.342 116.879 175.158C116.879 175.974 117.107 176.628 117.563 177.12C118.031 177.6 118.625 177.84 119.345 177.84ZM130.227 170.172C131.727 170.172 132.879 170.532 133.683 171.252C134.487 171.96 134.889 173.034 134.889 174.474V180H132.261V178.794C131.733 179.694 130.749 180.144 129.309 180.144C128.565 180.144 127.917 180.018 127.365 179.766C126.825 179.514 126.411 179.166 126.123 178.722C125.835 178.278 125.691 177.774 125.691 177.21C125.691 176.31 126.027 175.602 126.699 175.086C127.383 174.57 128.433 174.312 129.849 174.312H132.081C132.081 173.7 131.895 173.232 131.523 172.908C131.151 172.572 130.593 172.404 129.849 172.404C129.333 172.404 128.823 172.488 128.319 172.656C127.827 172.812 127.407 173.028 127.059 173.304L126.051 171.342C126.579 170.97 127.209 170.682 127.941 170.478C128.685 170.274 129.447 170.172 130.227 170.172ZM130.011 178.254C130.491 178.254 130.917 178.146 131.289 177.93C131.661 177.702 131.925 177.372 132.081 176.94V175.95H130.155C129.003 175.95 128.427 176.328 128.427 177.084C128.427 177.444 128.565 177.732 128.841 177.948C129.129 178.152 129.519 178.254 130.011 178.254ZM142.927 170.982C143.851 170.982 144.661 171.174 145.357 171.558C146.053 171.93 146.587 172.458 146.959 173.142C147.343 173.826 147.535 174.618 147.535 175.518C147.535 176.442 147.307 177.264 146.851 177.984C146.407 178.692 145.783 179.244 144.979 179.64C144.175 180.024 143.263 180.216 142.243 180.216C140.551 180.216 139.219 179.676 138.247 178.596C137.287 177.504 136.807 175.908 136.807 173.808C136.807 171.864 137.227 170.316 138.067 169.164C138.919 168 140.221 167.238 141.973 166.878L146.581 165.96L146.959 168.372L142.891 169.182C141.787 169.398 140.965 169.758 140.425 170.262C139.897 170.766 139.585 171.48 139.489 172.404C139.909 171.948 140.413 171.6 141.001 171.36C141.589 171.108 142.231 170.982 142.927 170.982ZM142.261 178.038C142.981 178.038 143.557 177.804 143.989 177.336C144.433 176.868 144.655 176.274 144.655 175.554C144.655 174.822 144.433 174.24 143.989 173.808C143.557 173.376 142.981 173.16 142.261 173.16C141.529 173.16 140.941 173.376 140.497 173.808C140.053 174.24 139.831 174.822 139.831 175.554C139.831 176.286 140.059 176.886 140.515 177.354C140.971 177.81 141.553 178.038 142.261 178.038ZM153.976 180.144C152.956 180.144 152.038 179.934 151.222 179.514C150.418 179.082 149.788 178.488 149.332 177.732C148.876 176.976 148.648 176.118 148.648 175.158C148.648 174.198 148.876 173.34 149.332 172.584C149.788 171.828 150.418 171.24 151.222 170.82C152.038 170.388 152.956 170.172 153.976 170.172C154.996 170.172 155.908 170.388 156.712 170.82C157.516 171.24 158.146 171.828 158.602 172.584C159.058 173.34 159.286 174.198 159.286 175.158C159.286 176.118 159.058 176.976 158.602 177.732C158.146 178.488 157.516 179.082 156.712 179.514C155.908 179.934 154.996 180.144 153.976 180.144ZM153.976 177.84C154.696 177.84 155.284 177.6 155.74 177.12C156.208 176.628 156.442 175.974 156.442 175.158C156.442 174.342 156.208 173.694 155.74 173.214C155.284 172.722 154.696 172.476 153.976 172.476C153.256 172.476 152.662 172.722 152.194 173.214C151.726 173.694 151.492 174.342 151.492 175.158C151.492 175.974 151.726 176.628 152.194 177.12C152.662 177.6 153.256 177.84 153.976 177.84ZM169.002 172.62H165.726V180H162.936V172.62H159.66V170.316H169.002V172.62ZM175.592 173.412C176.852 173.424 177.806 173.706 178.454 174.258C179.102 174.81 179.426 175.602 179.426 176.634C179.426 177.714 179.06 178.548 178.328 179.136C177.596 179.724 176.558 180.018 175.214 180.018L170.498 180V170.316H173.288V173.412H175.592ZM180.47 170.316H183.26V180H180.47V170.316ZM174.962 178.02C175.502 178.032 175.916 177.918 176.204 177.678C176.492 177.438 176.636 177.078 176.636 176.598C176.636 176.13 176.492 175.788 176.204 175.572C175.928 175.356 175.514 175.242 174.962 175.23L173.288 175.212V178.02H174.962Z" fill="#A8A2A2"/>
<defs>
<filter id="filter0_d" x="0" y="0" width="233" height="240" filterUnits="userSpaceOnUse" color-interpolation-filters="sRGB">
<feFlood flood-opacity="0" result="BackgroundImageFix"/>
<feColorMatrix in="SourceAlpha" type="matrix" values="0 0 0 0 0 0 0 0 0 0 0 0 0 0 0 0 0 0 127 0"/>
<feOffset dy="4"/>
<feGaussianBlur stdDeviation="12.5"/>
<feColorMatrix type="matrix" values="0 0 0 0 0 0 0 0 0 0 0 0 0 0 0 0 0 0 0.25 0"/>
<feBlend mode="normal" in2="BackgroundImageFix" result="effect1_dropShadow"/>
<feBlend mode="normal" in="SourceGraphic" in2="effect1_dropShadow" result="shape"/>
</filter>
<linearGradient id="paint0_linear" x1="115.997" y1="85.7666" x2="115.997" y2="101.999" gradientUnits="userSpaceOnUse">
<stop stop-color="#219CF9"/>
<stop offset="1" stop-color="#4E50EA"/>
</linearGradient>
<linearGradient id="paint1_linear" x1="115.995" y1="69.249" x2="115.995" y2="86.6079" gradientUnits="userSpaceOnUse">
<stop stop-color="#219CF9"/>
<stop offset="1" stop-color="#4E50EA"/>
</linearGradient>
<linearGradient id="paint2_linear" x1="115.997" y1="45.4766" x2="115.997" y2="69.9453" gradientUnits="userSpaceOnUse">
<stop stop-color="#219CF9"/>
<stop offset="1" stop-color="#4E50EA"/>
</linearGradient>
<linearGradient id="paint3_linear" x1="115.865" y1="38" x2="115.865" y2="49.4509" gradientUnits="userSpaceOnUse">
<stop stop-color="#219CF9"/>
<stop offset="1" stop-color="#4E50EA"/>
</linearGradient>
</defs>
</svg>
