<svg width="49" height="70" viewBox="0 0 49 70" fill="none" xmlns="http://www.w3.org/2000/svg">
<path d="M48.4219 70H1.64062V60.7188L23.7188 37.1875C26.75 33.875 28.9844 30.9844 30.4219 28.5156C31.8906 26.0469 32.625 23.7031 32.625 21.4844C32.625 18.4531 31.8594 16.0781 30.3281 14.3594C28.7969 12.6094 26.6094 11.7344 23.7656 11.7344C20.7031 11.7344 18.2812 12.7969 16.5 14.9219C14.75 17.0156 13.875 19.7812 13.875 23.2188H0.28125C0.28125 19.0625 1.26562 15.2656 3.23438 11.8281C5.23438 8.39063 8.04688 5.70312 11.6719 3.76562C15.2969 1.79688 19.4062 0.8125 24 0.8125C31.0312 0.8125 36.4844 2.5 40.3594 5.875C44.2656 9.25 46.2188 14.0156 46.2188 20.1719C46.2188 23.5469 45.3438 26.9844 43.5938 30.4844C41.8438 33.9844 38.8438 38.0625 34.5938 42.7188L19.0781 59.0781H48.4219V70Z" fill="#F80013"/>
</svg>
