<svg width="48" height="70" viewBox="0 0 48 70" fill="none" xmlns="http://www.w3.org/2000/svg">
<path d="M37.3906 0.046875V11.2031H36.0781C29.9531 11.2969 25.0156 12.8906 21.2656 15.9844C17.5469 19.0781 15.3125 23.375 14.5625 28.875C18.1875 25.1875 22.7656 23.3438 28.2969 23.3438C34.2344 23.3438 38.9531 25.4688 42.4531 29.7188C45.9531 33.9688 47.7031 39.5625 47.7031 46.5C47.7031 50.9375 46.7344 54.9531 44.7969 58.5469C42.8906 62.1406 40.1719 64.9375 36.6406 66.9375C33.1406 68.9375 29.1719 69.9375 24.7344 69.9375C17.5469 69.9375 11.7344 67.4375 7.29688 62.4375C2.89062 57.4375 0.6875 50.7656 0.6875 42.4219V37.5469C0.6875 30.1406 2.07812 23.6094 4.85938 17.9531C7.67188 12.2656 11.6875 7.875 16.9062 4.78125C22.1562 1.65625 28.2344 0.078125 35.1406 0.046875H37.3906ZM24.1719 34.2188C21.9844 34.2188 20 34.7969 18.2188 35.9531C16.4375 37.0781 15.125 38.5781 14.2812 40.4531V44.5781C14.2812 49.1094 15.1719 52.6562 16.9531 55.2188C18.7344 57.75 21.2344 59.0156 24.4531 59.0156C27.3594 59.0156 29.7031 57.875 31.4844 55.5938C33.2969 53.2812 34.2031 50.2969 34.2031 46.6406C34.2031 42.9219 33.2969 39.9219 31.4844 37.6406C29.6719 35.3594 27.2344 34.2188 24.1719 34.2188Z" fill="#F80013"/>
</svg>
