<svg width="20" height="28" viewBox="0 0 20 28" fill="none" xmlns="http://www.w3.org/2000/svg">
<path d="M16.8363 16.6201C16.3997 15.9893 15.8732 15.652 15.3152 15.652C14.7616 15.652 14.2306 15.9831 13.776 16.6139L12.3539 18.5813C12.2369 18.4939 12.1199 18.4127 12.0074 18.3315C11.8454 18.2191 11.6924 18.1129 11.5619 18.0005C10.2298 16.8262 9.01919 15.296 7.8581 13.3161C7.29556 12.3293 6.91753 11.4986 6.64301 10.6554C7.01204 10.1869 7.35406 9.69976 7.68709 9.23133C7.8131 9.05644 7.93911 8.87531 8.06511 8.70043C9.01019 7.38881 9.01019 5.68994 8.06511 4.37832L6.83652 2.67321C6.69701 2.47959 6.553 2.27973 6.41799 2.07986C6.14797 1.69262 5.86445 1.29289 5.57193 0.918136C5.1354 0.318537 4.61336 0 4.06432 0C3.51528 0 2.98424 0.318537 2.5342 0.918136C2.5297 0.924382 2.5297 0.924382 2.5252 0.930628L0.995091 3.07294C0.419048 3.87241 0.0905235 4.84676 0.0185182 5.97725C-0.0894898 7.80103 0.297539 9.4999 0.594561 10.6117C1.32361 13.3411 2.4127 15.8706 4.03732 18.5813C6.00846 21.8479 8.38014 24.4274 11.0893 26.2449C12.1244 26.9257 13.506 27.7315 15.0496 27.8689C15.1441 27.8751 15.2431 27.8814 15.3332 27.8814C16.3727 27.8814 17.2458 27.3629 17.9298 26.3324C17.9343 26.3199 17.9433 26.3137 17.9478 26.3012C18.1819 25.9077 18.4519 25.5517 18.7354 25.1707C18.9289 24.9146 19.1269 24.646 19.3204 24.365C19.766 23.7216 20 22.9721 20 22.2039C20 21.4294 19.7615 20.6862 19.3069 20.0616L16.8363 16.6201ZM18.4474 23.197C18.4429 23.197 18.4429 23.2032 18.4474 23.197C18.2719 23.4593 18.0919 23.6967 17.8983 23.959C17.6058 24.3462 17.3088 24.7522 17.0298 25.2081C16.5752 25.8827 16.0397 26.2012 15.3377 26.2012C15.2701 26.2012 15.1981 26.2012 15.1306 26.195C13.794 26.0763 12.5519 25.3518 11.6204 24.7335C9.07319 23.0221 6.83652 20.5925 4.97789 17.5133C3.44327 14.9463 2.4172 12.5728 1.73765 10.0245C1.31911 8.46934 1.1661 7.25765 1.23361 6.11466C1.27861 5.3839 1.48113 4.77805 1.85465 4.25965L3.38927 2.12983C3.60978 1.84252 3.8438 1.68637 4.07332 1.68637C4.35684 1.68637 4.58636 1.92371 4.73037 2.12358C4.73487 2.12983 4.73937 2.13607 4.74387 2.14232C5.01839 2.49833 5.27941 2.86683 5.55393 3.26032C5.69344 3.46019 5.83745 3.66005 5.98146 3.86616L7.21005 5.57127C7.68709 6.23333 7.68709 6.84542 7.21005 7.50748C7.07954 7.68861 6.95353 7.86974 6.82302 8.04462C6.44499 8.58176 6.08497 9.08143 5.69344 9.5686C5.68444 9.58109 5.67544 9.58734 5.67094 9.59983C5.28391 10.137 5.35591 10.6616 5.43692 11.0176C5.44142 11.0364 5.44592 11.0551 5.45042 11.0738C5.76994 12.1481 6.21998 13.1599 6.90403 14.3654L6.90853 14.3716C8.15062 16.4952 9.46022 18.1504 10.9048 19.4183C11.0893 19.5807 11.2784 19.7118 11.4584 19.8367C11.6204 19.9492 11.7734 20.0553 11.9039 20.1678C11.9219 20.1803 11.9399 20.199 11.9579 20.2115C12.1109 20.3177 12.2549 20.3676 12.4034 20.3676C12.777 20.3676 13.011 20.0428 13.0875 19.9367L14.6266 17.8006C14.7796 17.5882 15.0226 17.3322 15.3062 17.3322C15.5852 17.3322 15.8147 17.5757 15.9542 17.7881C15.9587 17.7943 15.9587 17.7943 15.9632 17.8006L18.4429 21.242C18.9064 21.8791 18.9064 22.5349 18.4474 23.197Z" fill="#E7E7E7"/>
</svg>
