<svg width="50" height="50" viewBox="0 0 50 50" fill="none" xmlns="http://www.w3.org/2000/svg">
<path d="M42 0H8C3.58172 0 0 3.58172 0 8V42C0 46.4183 3.58172 50 8 50H42C46.4183 50 50 46.4183 50 42V8C50 3.58172 46.4183 0 42 0Z" fill="white"/>
<path d="M35 21.125V32.375C35 32.8958 34.8177 33.3385 34.4531 33.7031C34.0885 34.0677 33.6458 34.25 33.125 34.25H16.875C16.3542 34.25 15.9115 34.0677 15.5469 33.7031C15.1823 33.3385 15 32.8958 15 32.375V21.125C15 20.6042 15.1823 20.1615 15.5469 19.7969C15.9115 19.4323 16.3542 19.25 16.875 19.25H20.3125L20.7812 17.9609C20.8854 17.7266 21.0156 17.5182 21.1719 17.3359C21.3542 17.1536 21.5625 17.0104 21.7969 16.9062C22.0312 16.8021 22.2786 16.75 22.5391 16.75H27.4609C27.8516 16.75 28.2031 16.8672 28.5156 17.1016C28.8281 17.3099 29.0625 17.5964 29.2188 17.9609L29.6875 19.25H33.125C33.6458 19.25 34.0885 19.4323 34.4531 19.7969C34.8177 20.1615 35 20.6042 35 21.125ZM28.3203 30.0703C29.2318 29.1589 29.6875 28.0521 29.6875 26.75C29.6875 25.4479 29.2318 24.3411 28.3203 23.4297C27.4089 22.5182 26.3021 22.0625 25 22.0625C23.6979 22.0625 22.5911 22.5182 21.6797 23.4297C20.7682 24.3411 20.3125 25.4479 20.3125 26.75C20.3125 28.0521 20.7682 29.1589 21.6797 30.0703C22.5911 30.9818 23.6979 31.4375 25 31.4375C26.3021 31.4375 27.4089 30.9818 28.3203 30.0703ZM27.4219 24.3281C28.099 25.0052 28.4375 25.8125 28.4375 26.75C28.4375 27.6875 28.099 28.4948 27.4219 29.1719C26.7448 29.849 25.9375 30.1875 25 30.1875C24.0625 30.1875 23.2552 29.849 22.5781 29.1719C21.901 28.4948 21.5625 27.6875 21.5625 26.75C21.5625 25.8125 21.901 25.0052 22.5781 24.3281C23.2552 23.651 24.0625 23.3125 25 23.3125C25.9375 23.3125 26.7448 23.651 27.4219 24.3281Z" fill="black"/>
</svg>
