<svg width="304" height="16" viewBox="0 0 304 16" fill="none" xmlns="http://www.w3.org/2000/svg">
<path d="M12.6667 0L6.33333 6.58824L0 0V16H304V0L297.667 6.58824L291.333 0L285 6.58824L278.667 0L272.333 6.58824L266 0L259.667 6.58824L253.333 0L247 6.58824L240.667 0L234.333 6.58824L228 0L221.667 6.58824L215.333 0L209 6.58824L202.667 0L196.333 6.58824L190 0L183.667 6.58824L177.333 0L171 6.58824L164.667 0L158.333 6.58824L152 0L145.667 6.58824L139.333 0L133 6.58824L126.667 0L120.333 6.58824L114 0L107.667 6.58824L101.333 0L95 6.58824L88.6667 0L82.3333 6.58824L76 0L69.6667 6.58824L63.3333 0L57 6.58824L50.6667 0L44.3333 6.58824L38 0L31.6667 6.58824L25.3333 0L19 6.58824L12.6667 0Z" fill="#FDFAFF"/>
</svg>
