<svg width="50" height="50" viewBox="0 0 50 50" fill="none" xmlns="http://www.w3.org/2000/svg">
<path d="M42 0H8C3.58172 0 0 3.58172 0 8V42C0 46.4183 3.58172 50 8 50H42C46.4183 50 50 46.4183 50 42V8C50 3.58172 46.4183 0 42 0Z" fill="white"/>
<path d="M27.6562 28.1562C26.9271 28.8854 26.0417 29.25 25 29.25C23.9583 29.25 23.0729 28.8854 22.3438 28.1562C21.6146 27.4271 21.25 26.5417 21.25 25.5V19.25C21.25 18.2083 21.6146 17.3229 22.3438 16.5938C23.0729 15.8646 23.9583 15.5 25 15.5C26.0417 15.5 26.9271 15.8646 27.6562 16.5938C28.3854 17.3229 28.75 18.2083 28.75 19.25V25.5C28.75 26.5417 28.3854 27.4271 27.6562 28.1562ZM31.25 23C31.4323 23 31.5755 23.0651 31.6797 23.1953C31.8099 23.2995 31.875 23.4427 31.875 23.625V25.5C31.875 27.2188 31.3021 28.7292 30.1562 30.0312C29.0365 31.3073 27.6302 32.0625 25.9375 32.2969V33.625H28.125C28.3073 33.625 28.4505 33.6771 28.5547 33.7812C28.6849 33.9115 28.75 34.0677 28.75 34.25V34.875C28.75 35.0573 28.6849 35.2005 28.5547 35.3047C28.4505 35.4349 28.3073 35.5 28.125 35.5H21.875C21.6927 35.5 21.5365 35.4349 21.4062 35.3047C21.3021 35.2005 21.25 35.0573 21.25 34.875V34.25C21.25 34.0677 21.3021 33.9115 21.4062 33.7812C21.5365 33.6771 21.6927 33.625 21.875 33.625H24.0625V32.2969C22.3698 32.0625 20.9505 31.2682 19.8047 29.9141C18.6849 28.5339 18.125 26.9583 18.125 25.1875V23.625C18.125 23.4427 18.1771 23.2995 18.2812 23.1953C18.4115 23.0651 18.5677 23 18.75 23H19.375C19.5573 23 19.7005 23.0651 19.8047 23.1953C19.9349 23.2995 20 23.4427 20 23.625V25.2656C20 26.5938 20.4297 27.7656 21.2891 28.7812C22.1484 29.7969 23.2161 30.3568 24.4922 30.4609C25.9766 30.6172 27.2656 30.2005 28.3594 29.2109C29.4531 28.1953 30 26.9583 30 25.5V23.625C30 23.4427 30.0521 23.2995 30.1562 23.1953C30.2865 23.0651 30.4427 23 30.625 23H31.25Z" fill="black"/>
</svg>
