<svg width="13" height="21" viewBox="0 0 13 21" fill="none" xmlns="http://www.w3.org/2000/svg">
<path d="M10.9922 13.5469C10.1328 14.0938 8.96094 14.4453 7.47656 14.6016L8.29688 15.4219L11.2656 18.3906C11.6042 18.7292 11.6953 19.1198 11.5391 19.5625C11.3828 20.0312 11.0964 20.3177 10.6797 20.4219C10.2891 20.5521 9.89844 20.474 9.50781 20.1875C8.98698 19.6667 7.98438 18.6641 6.5 17.1797L3.53125 20.1484C3.19271 20.487 2.78906 20.5781 2.32031 20.4219C1.8776 20.2656 1.59115 19.9792 1.46094 19.5625C1.35677 19.1719 1.46094 18.7812 1.77344 18.3906C3.7526 16.3854 4.74219 15.3828 4.74219 15.3828L5.5625 14.6016C4.02604 14.4453 2.84115 14.0938 2.00781 13.5469C1.30469 13.0781 0.848958 12.7005 0.640625 12.4141C0.432292 12.1016 0.445312 11.7109 0.679688 11.2422C0.835938 10.9036 1.08333 10.6953 1.42188 10.6172C1.78646 10.513 2.24219 10.6432 2.78906 11.0078C2.89323 11.0859 3.04948 11.1901 3.25781 11.3203C3.46615 11.4505 3.88281 11.6198 4.50781 11.8281C5.15885 12.0365 5.82292 12.1406 6.5 12.1406C7.17708 12.1406 7.82812 12.0495 8.45312 11.8672C9.07812 11.6849 9.52083 11.4896 9.78125 11.2812L10.2109 11.0078C10.7578 10.6432 11.2005 10.513 11.5391 10.6172C11.9036 10.6953 12.1771 10.9036 12.3594 11.2422C12.4375 11.5286 12.4896 11.75 12.5156 11.9062C12.5417 12.0625 12.4766 12.2448 12.3203 12.4531C12.1641 12.6615 11.9948 12.8438 11.8125 13C11.6302 13.1302 11.3568 13.3125 10.9922 13.5469ZM1.42188 5.57812C1.42188 4.17188 1.91667 2.97396 2.90625 1.98438C3.89583 0.994792 5.09375 0.5 6.5 0.5C7.41146 0.5 8.25781 0.734375 9.03906 1.20312C9.82031 1.64583 10.4323 2.25781 10.875 3.03906C11.3438 3.79427 11.5781 4.64062 11.5781 5.57812C11.5781 6.95833 11.0833 8.14323 10.0938 9.13281C9.10417 10.1224 7.90625 10.6172 6.5 10.6172C5.09375 10.6172 3.89583 10.1224 2.90625 9.13281C1.91667 8.14323 1.42188 6.95833 1.42188 5.57812ZM4 5.57812C4 6.25521 4.2474 6.84115 4.74219 7.33594C5.23698 7.80469 5.82292 8.03906 6.5 8.03906C7.17708 8.03906 7.76302 7.80469 8.25781 7.33594C8.7526 6.84115 9 6.25521 9 5.57812C9 4.875 8.7526 4.28906 8.25781 3.82031C7.76302 3.32552 7.17708 3.07812 6.5 3.07812C6.05729 3.07812 5.64062 3.19531 5.25 3.42969C4.85938 3.63802 4.54688 3.9375 4.3125 4.32812C4.10417 4.69271 4 5.10938 4 5.57812Z" fill="#F19913"/>
</svg>
