<svg width="34" height="34" viewBox="0 0 34 34" fill="none" xmlns="http://www.w3.org/2000/svg">
<path d="M21.9031 12.0344C20.5937 10.7219 18.85 10 16.9969 10C13.1719 10 10.0594 13.1125 10.0594 16.9375C10.0594 18.1594 10.3781 19.3531 10.9844 20.4063L10 24L13.6781 23.0344C14.6906 23.5875 15.8313 23.8781 16.9938 23.8781H16.9969C20.8187 23.8781 24 20.7656 24 16.9406C24 15.0875 23.2125 13.3469 21.9031 12.0344V12.0344ZM16.9969 22.7094C15.9594 22.7094 14.9437 22.4313 14.0594 21.9063L13.85 21.7813L11.6688 22.3531L12.25 20.225L12.1125 20.0063C11.5344 19.0875 11.2313 18.0281 11.2313 16.9375C11.2313 13.7594 13.8187 11.1719 17 11.1719C18.5406 11.1719 19.9875 11.7719 21.075 12.8625C22.1625 13.9531 22.8313 15.4 22.8281 16.9406C22.8281 20.1219 20.175 22.7094 16.9969 22.7094V22.7094ZM20.1594 18.3906C19.9875 18.3031 19.1344 17.8844 18.975 17.8281C18.8156 17.7688 18.7 17.7406 18.5844 17.9156C18.4688 18.0906 18.1375 18.4781 18.0344 18.5969C17.9344 18.7125 17.8313 18.7281 17.6594 18.6406C16.6406 18.1313 15.9719 17.7313 15.3 16.5781C15.1219 16.2719 15.4781 16.2938 15.8094 15.6313C15.8656 15.5156 15.8375 15.4156 15.7937 15.3281C15.75 15.2406 15.4031 14.3875 15.2594 14.0406C15.1188 13.7031 14.975 13.75 14.8688 13.7438C14.7688 13.7375 14.6531 13.7375 14.5375 13.7375C14.4219 13.7375 14.2344 13.7813 14.075 13.9531C13.9156 14.1281 13.4688 14.5469 13.4688 15.4C13.4688 16.2531 14.0906 17.0781 14.175 17.1938C14.2625 17.3094 15.3969 19.0594 17.1375 19.8125C18.2375 20.2875 18.6687 20.3281 19.2188 20.2469C19.5531 20.1969 20.2437 19.8281 20.3875 19.4219C20.5312 19.0156 20.5313 18.6688 20.4875 18.5969C20.4469 18.5188 20.3313 18.475 20.1594 18.3906Z" fill="#C8C8E1"/>
<circle cx="17" cy="17" r="16.5" stroke="#C8C8E1"/>
</svg>
