<svg width="39" height="37" viewBox="0 0 39 37" fill="none" xmlns="http://www.w3.org/2000/svg">
<g filter="url(#filter0_i_101_1579)">
<path d="M17.4609 1.76562C17.8828 0.921875 18.5625 0.5 19.5 0.5C20.4375 0.5 21.1172 0.921875 21.5391 1.76562L26.1094 11.0469L36.375 12.5938C37.3125 12.6875 37.9219 13.1797 38.2031 14.0703C38.4844 14.9609 38.2969 15.7344 37.6406 16.3906L30.1875 23.6328L31.9453 33.8984C32.0859 34.7891 31.7812 35.4922 31.0312 36.0078C30.2812 36.5703 29.5078 36.6406 28.7109 36.2188L19.5 31.4375L10.2891 36.2188C9.49219 36.6875 8.71875 36.6406 7.96875 36.0781C7.21875 35.5156 6.91406 34.7891 7.05469 33.8984L8.8125 23.6328L1.35938 16.3906C0.703125 15.7344 0.515625 14.9609 0.796875 14.0703C1.07812 13.1797 1.6875 12.6875 2.625 12.5938L12.8906 11.0469L17.4609 1.76562Z" fill="#F0F1F4"/>
</g>
<defs>
<filter id="filter0_i_101_1579" x="0.375" y="0.5" width="38.25" height="40.4219" filterUnits="userSpaceOnUse" color-interpolation-filters="sRGB">
<feFlood flood-opacity="0" result="BackgroundImageFix"/>
<feBlend mode="normal" in="SourceGraphic" in2="BackgroundImageFix" result="shape"/>
<feColorMatrix in="SourceAlpha" type="matrix" values="0 0 0 0 0 0 0 0 0 0 0 0 0 0 0 0 0 0 127 0" result="hardAlpha"/>
<feOffset dy="4"/>
<feGaussianBlur stdDeviation="2"/>
<feComposite in2="hardAlpha" operator="arithmetic" k2="-1" k3="1"/>
<feColorMatrix type="matrix" values="0 0 0 0 0.894118 0 0 0 0 0.898039 0 0 0 0 0.909804 0 0 0 1 0"/>
<feBlend mode="normal" in2="shape" result="effect1_innerShadow_101_1579"/>
</filter>
</defs>
</svg>
