<svg width="20" height="21" viewBox="0 0 20 21" fill="none" xmlns="http://www.w3.org/2000/svg">
<path d="M3.125 3.66406C5.02604 1.76302 7.31771 0.8125 10 0.8125C12.6823 0.8125 14.9609 1.76302 16.8359 3.66406C18.737 5.53906 19.6875 7.81771 19.6875 10.5C19.6875 13.1823 18.737 15.474 16.8359 17.375C14.9609 19.25 12.6823 20.1875 10 20.1875C7.31771 20.1875 5.02604 19.25 3.125 17.375C1.25 15.474 0.3125 13.1823 0.3125 10.5C0.3125 7.81771 1.25 5.53906 3.125 3.66406ZM14.7656 7.45312C14.8177 7.14062 14.7656 6.91927 14.6094 6.78906C14.4792 6.63281 14.3099 6.59375 14.1016 6.67188L4.76562 10.3047C4.42708 10.4089 4.24479 10.5391 4.21875 10.6953C4.21875 10.8516 4.36198 10.9688 4.64844 11.0469L7.03125 11.7891L12.5781 8.3125C12.7344 8.20833 12.8516 8.19531 12.9297 8.27344C12.9557 8.29948 12.9427 8.33854 12.8906 8.39062L8.39844 12.4531L8.20312 14.9141C8.38542 14.9141 8.55469 14.8359 8.71094 14.6797L9.88281 13.5469L12.3047 15.3438C12.7734 15.6042 13.0599 15.474 13.1641 14.9531L14.7656 7.45312Z" fill="#27AADE"/>
</svg>
