<svg width="22" height="13" viewBox="0 0 22 13" fill="none" xmlns="http://www.w3.org/2000/svg">
<path d="M20.5586 1.10938C20.4805 1.5 20.168 2.13802 19.6211 3.02344C19.1003 3.90885 18.6185 4.6901 18.1758 5.36719C17.7331 6.01823 17.4987 6.35677 17.4727 6.38281C17.3164 6.61719 17.2383 6.78646 17.2383 6.89062C17.2383 6.99479 17.3164 7.17708 17.4727 7.4375C17.4727 7.4375 17.5508 7.52865 17.707 7.71094C17.8893 7.89323 18.0977 8.10156 18.332 8.33594C18.5664 8.57031 18.8268 8.84375 19.1133 9.15625C19.3997 9.46875 19.6602 9.78125 19.8945 10.0938C20.1549 10.3802 20.3763 10.6797 20.5586 10.9922C20.7669 11.3047 20.9102 11.5651 20.9883 11.7734C21.1706 12.4245 20.9102 12.75 20.207 12.75H17.9023C17.7201 12.75 17.5638 12.724 17.4336 12.6719C17.3034 12.6198 17.1602 12.5286 17.0039 12.3984C16.8477 12.2682 16.7044 12.125 16.5742 11.9688C16.444 11.8125 16.2487 11.5911 15.9883 11.3047C15.7279 11.0182 15.4674 10.7448 15.207 10.4844C14.1654 9.49479 13.3971 9 12.9023 9C12.5898 9 12.4076 9.09115 12.3555 9.27344C12.3034 9.45573 12.2773 9.97656 12.2773 10.8359C12.3034 11.2526 12.3164 11.5911 12.3164 11.8516C12.3164 12.1641 12.2122 12.3984 12.0039 12.5547C11.7956 12.6849 11.3398 12.75 10.6367 12.75C9.41276 12.75 8.17578 12.3854 6.92578 11.6562C5.67578 10.9271 4.58203 9.88542 3.64453 8.53125C2.75911 7.33333 2.01693 6.14844 1.41797 4.97656C0.845052 3.77865 0.467448 2.86719 0.285156 2.24219C0.102865 1.61719 0.0117188 1.17448 0.0117188 0.914062C0.0117188 0.471354 0.272135 0.25 0.792969 0.25H3.09766C3.38411 0.25 3.59245 0.315104 3.72266 0.445312C3.87891 0.575521 4.00911 0.809896 4.11328 1.14844C4.66016 2.73698 5.32422 4.15625 6.10547 5.40625C6.91276 6.65625 7.52474 7.28125 7.94141 7.28125C8.09766 7.28125 8.20182 7.22917 8.25391 7.125C8.33203 6.99479 8.37109 6.76042 8.37109 6.42188V3.02344C8.34505 2.65885 8.27995 2.34635 8.17578 2.08594C8.07161 1.82552 7.96745 1.64323 7.86328 1.53906C7.75911 1.40885 7.65495 1.27865 7.55078 1.14844C7.47266 1.01823 7.43359 0.901042 7.43359 0.796875C7.43359 0.692708 7.45964 0.601562 7.51172 0.523438C7.5638 0.445312 7.62891 0.380208 7.70703 0.328125C7.8112 0.276042 7.91536 0.25 8.01953 0.25H11.6523C12.069 0.25 12.2773 0.536458 12.2773 1.10938V5.64062C12.2773 6.08333 12.3945 6.30469 12.6289 6.30469C12.8893 6.30469 13.2539 6.07031 13.7227 5.60156C14.2174 5.05469 14.6992 4.39062 15.168 3.60938C15.6367 2.82812 15.9883 2.17708 16.2227 1.65625L16.5742 0.914062C16.7565 0.471354 17.082 0.25 17.5508 0.25H19.8555C20.4805 0.25 20.7148 0.536458 20.5586 1.10938Z" fill="#467FC2"/>
</svg>
