<svg width="20" height="20" viewBox="0 0 20 20" fill="none" xmlns="http://www.w3.org/2000/svg">
<path d="M19.1211 8.53482H18.8283V7.65576V4.53077C18.8283 3.50764 17.9959 2.67526 16.9729 2.67526H8.92682L3.49859 1.12433C3.49702 1.1239 3.49542 1.12366 3.49386 1.12323C3.49226 1.1228 3.49074 1.12218 3.48913 1.12179C3.48585 1.12097 3.48261 1.12058 3.47937 1.11987C3.47433 1.11882 3.46929 1.11773 3.46425 1.1169C3.45968 1.11616 3.45519 1.11569 3.45062 1.11515C3.44531 1.11452 3.44003 1.11398 3.43476 1.11366C3.43046 1.11343 3.4262 1.11339 3.42191 1.11331C3.41644 1.11323 3.41101 1.11319 3.40558 1.11343C3.40156 1.11358 3.39753 1.11398 3.39355 1.11429C3.38796 1.11476 3.38238 1.11526 3.37687 1.11608C3.37312 1.11663 3.36941 1.11733 3.3657 1.118C3.35999 1.11901 3.35437 1.12011 3.34878 1.12148C3.34531 1.12233 3.34191 1.12331 3.33847 1.12429C3.33277 1.12593 3.32714 1.12761 3.32152 1.12956C3.31835 1.13069 3.31523 1.1319 3.31206 1.13315C3.3064 1.13534 3.30078 1.13765 3.29527 1.14019C3.29234 1.14155 3.28949 1.14304 3.2866 1.14448C3.28109 1.14726 3.27566 1.15007 3.27035 1.15323C3.26757 1.15483 3.26492 1.15655 3.26218 1.15827C3.25695 1.16155 3.25179 1.16491 3.24679 1.16855C3.24417 1.17042 3.24163 1.17245 3.23906 1.17444C3.23425 1.17815 3.22949 1.18194 3.22492 1.18597C3.22234 1.18823 3.21988 1.19062 3.21738 1.19296C3.21308 1.19702 3.20882 1.20108 3.20476 1.20538C3.20222 1.20808 3.19984 1.21089 3.19738 1.2137C3.19367 1.21796 3.18999 1.22226 3.18652 1.22675C3.18402 1.22999 3.18167 1.23331 3.17929 1.23663C3.1762 1.24097 3.17316 1.24534 3.17035 1.24983C3.16792 1.25366 3.1657 1.25765 3.16347 1.26159C3.16101 1.26593 3.15855 1.2703 3.15632 1.2748C3.15413 1.27917 3.15218 1.28366 3.15019 1.28815C3.14824 1.29257 3.14632 1.29698 3.1446 1.30151C3.14281 1.30628 3.14124 1.31116 3.13964 1.31608C3.13863 1.31925 3.13738 1.32222 3.13644 1.32542C3.13597 1.32702 3.13578 1.32858 3.13535 1.33015C3.13492 1.33175 3.13429 1.33327 3.1339 1.33487L2.7989 2.67518H1.85566C0.834608 2.67518 0.00367187 3.50421 0.000312499 4.52452C0.000273437 4.52663 0 4.52862 0 4.53069V14.6869C0 14.8486 0.13164 14.9799 0.292968 14.9799C0.454687 14.9799 0.585936 14.8486 0.585936 14.6869V5.88197C0.918123 6.19432 1.36476 6.38627 1.85566 6.38627H16.9729C16.9732 6.38627 16.9735 6.38623 16.9739 6.38623C17.6734 6.38678 18.2424 6.95607 18.2424 7.6558V9.70673H15.0193C15.0191 9.70673 15.0189 9.70677 15.0187 9.70677C15.0102 9.70677 15.0018 9.70728 14.9934 9.70802C14.9841 9.70884 14.9749 9.71017 14.9658 9.71185C14.9644 9.71208 14.9631 9.7122 14.9617 9.71248C14.9541 9.714 14.9466 9.71603 14.9391 9.71814C14.9375 9.71861 14.9358 9.71892 14.9342 9.71943C14.9276 9.72146 14.9211 9.72388 14.9147 9.72634C14.9122 9.72728 14.9097 9.72806 14.9072 9.72908C14.9018 9.7313 14.8967 9.73392 14.8915 9.73646C14.888 9.7381 14.8845 9.73962 14.8812 9.74138C14.8771 9.74353 14.8733 9.74599 14.8694 9.74833C14.8651 9.75091 14.8606 9.75341 14.8564 9.75622C14.8536 9.7581 14.8509 9.76025 14.8482 9.76224C14.8432 9.76583 14.8382 9.76939 14.8334 9.77333C14.8313 9.77505 14.8294 9.77697 14.8274 9.77873C14.8223 9.78318 14.8172 9.78759 14.8124 9.79244C14.8095 9.79529 14.8069 9.79841 14.8042 9.80138C14.8004 9.80548 14.7965 9.80951 14.7929 9.81388C14.7869 9.82126 14.7812 9.82892 14.7759 9.83685C14.7758 9.83697 14.7757 9.83712 14.7756 9.83728L13.2132 12.1811C13.2023 12.1974 13.1931 12.2147 13.1858 12.2327C13.183 12.2394 13.1808 12.2463 13.1785 12.2531C13.1779 12.2551 13.177 12.2571 13.1764 12.2592C13.1742 12.2664 13.1725 12.2737 13.1709 12.281C13.1705 12.2829 13.1699 12.2848 13.1695 12.2867C13.1683 12.2933 13.1674 12.2999 13.1666 12.3065C13.1662 12.3093 13.1657 12.3121 13.1654 12.3149C13.1649 12.3204 13.1647 12.3258 13.1645 12.3312C13.1643 12.3353 13.164 12.3395 13.164 12.3436C13.164 12.3477 13.1643 12.3517 13.1645 12.3557C13.1647 12.3613 13.1649 12.3668 13.1654 12.3724C13.1657 12.3751 13.1662 12.3778 13.1665 12.3805C13.1674 12.3872 13.1683 12.3939 13.1696 12.4006C13.1699 12.4024 13.1705 12.4042 13.1709 12.4061C13.1725 12.4134 13.1742 12.4208 13.1764 12.4281C13.177 12.4301 13.1779 12.4321 13.1786 12.4342C13.1808 12.441 13.183 12.4479 13.1858 12.4546C13.1931 12.4725 13.2024 12.4899 13.2133 12.5063L14.7757 14.8497C14.7758 14.8498 14.7758 14.8499 14.7759 14.85C14.7822 14.8593 14.7891 14.8682 14.7963 14.8768C14.7987 14.8796 14.8013 14.8822 14.8037 14.8849C14.8087 14.8903 14.8138 14.8956 14.8192 14.9006C14.8224 14.9036 14.8255 14.9065 14.8287 14.9092C14.8344 14.9141 14.8403 14.9187 14.8463 14.9231C14.8491 14.9251 14.8517 14.9273 14.8545 14.9292C14.8633 14.9352 14.8724 14.9407 14.8818 14.9457C14.8842 14.9469 14.8866 14.948 14.889 14.9491C14.8965 14.9529 14.9042 14.9564 14.912 14.9595C14.915 14.9607 14.9181 14.9618 14.9212 14.9629C14.9286 14.9655 14.9362 14.9679 14.944 14.9699C14.9471 14.9707 14.9502 14.9716 14.9534 14.9724C14.9614 14.9742 14.9694 14.9756 14.9776 14.9768C14.9806 14.9772 14.9835 14.9778 14.9865 14.9782C14.9965 14.9793 15.0068 14.9799 15.0172 14.98C15.018 14.98 15.0188 14.9802 15.0197 14.9802C15.0198 14.9802 15.02 14.9801 15.0202 14.9801H18.2425V17.0312C18.2425 17.7313 17.673 18.3008 16.973 18.3008H1.85582C1.15582 18.3008 0.586288 17.7313 0.586288 17.0312C0.586288 17.0297 0.586093 17.0282 0.586054 17.0267V15.8589C0.586054 15.6976 0.454804 15.566 0.293085 15.566C0.131758 15.566 0.000117187 15.6976 0.000117187 15.8589V17.0312C0.000117187 17.0343 0.000468749 17.0372 0.000585936 17.0402C0.00546874 18.0592 0.835741 18.8868 1.85582 18.8868H16.973C17.996 18.8868 18.8283 18.0545 18.8284 17.0315C18.8284 17.0315 18.8284 17.0314 18.8284 17.0314V14.9801H19.1213C19.6058 14.9801 20 14.5859 20 14.1014V9.41357C19.9999 8.92904 19.6057 8.53482 19.1211 8.53482ZM3.6289 1.77093L8.79838 3.24799C8.79862 3.24807 8.79889 3.24811 8.79912 3.24819L12.2638 4.23811H3.01226L3.6289 1.77093ZM18.2423 6.30443C17.9102 5.99217 17.4636 5.80026 16.9729 5.80026C16.9724 5.80026 16.9719 5.80033 16.9713 5.80033H1.85566C1.15562 5.80033 0.586093 5.2308 0.586093 4.53077C0.586093 3.83073 1.15562 3.2612 1.85566 3.2612H2.65246L2.40832 4.23811H1.85574C1.69394 4.23811 1.56277 4.36928 1.56277 4.53108C1.56277 4.69288 1.69394 4.82405 1.85574 4.82405H2.63605C2.63644 4.82405 2.63687 4.82412 2.6373 4.82412C2.63761 4.82412 2.63792 4.82405 2.6382 4.82405H14.3546C14.355 4.82405 14.3554 4.82412 14.3557 4.82412C14.356 4.82412 14.3563 4.82405 14.3567 4.82405H16.5819C16.7437 4.82405 16.8749 4.69288 16.8749 4.53108C16.8749 4.36928 16.7437 4.23811 16.5819 4.23811H14.3966L10.9775 3.2612H16.9728C17.6728 3.2612 18.2423 3.83073 18.2423 4.53077V6.30443ZM19.4139 14.1012C19.4139 14.2627 19.2826 14.394 19.1211 14.394H15.1761L13.8089 12.3435L15.1761 10.2926H19.1211C19.1252 10.2926 19.1292 10.2922 19.1333 10.292C19.2316 10.2906 19.3259 10.2731 19.4139 10.242V14.1012ZM19.1211 9.70638C19.1191 9.70638 19.1171 9.70666 19.1151 9.70669H18.8283V9.12076H19.1211C19.2826 9.12076 19.4139 9.25212 19.4139 9.41357C19.4139 9.57502 19.2826 9.70638 19.1211 9.70638Z" fill="white"/>
<path d="M16.1914 11.2692C15.5991 11.2692 15.1172 11.7511 15.1172 12.3435C15.1172 12.9358 15.5991 13.4177 16.1914 13.4177C16.7837 13.4177 17.2656 12.9358 17.2656 12.3435C17.2656 11.7511 16.7837 11.2692 16.1914 11.2692ZM16.1914 12.8318C15.9221 12.8318 15.7031 12.6127 15.7031 12.3435C15.7031 12.0742 15.9221 11.8552 16.1914 11.8552C16.4607 11.8552 16.6797 12.0742 16.6797 12.3435C16.6797 12.6127 16.4607 12.8318 16.1914 12.8318Z" fill="white"/>
</svg>
