<svg width="64" height="64" viewBox="0 0 64 64" fill="none" xmlns="http://www.w3.org/2000/svg">
<path d="M62.7499 39.9903H51.159C50.8377 39.9903 50.5454 40.1127 50.324 40.312L48.4915 38.9002C47.8524 38.4077 47.3443 37.7714 46.9978 37.0567C47.5372 35.9528 47.9819 34.8063 48.3244 33.6329L54.0834 32.7124C54.6898 32.6156 55.136 32.0923 55.136 31.4782V23.6582C55.136 23.0441 54.6898 22.5208 54.0834 22.424L48.3248 21.5035C47.8867 19.9992 47.2869 18.5503 46.5345 17.1785L49.9548 12.4567C50.315 11.9594 50.2607 11.2739 49.8264 10.8395L44.2968 5.30999C43.8625 4.87562 43.177 4.82124 42.6797 5.18149L37.9579 8.60173C36.5862 7.84936 35.1373 7.24974 33.6329 6.81161L32.7124 1.05287C32.6154 0.446249 32.0923 0 31.4782 0H23.6582C23.0441 0 22.5208 0.446249 22.424 1.05275L21.5035 6.81136C19.9991 7.24949 18.5502 7.84923 17.1783 8.60148L12.4565 5.18124C11.9592 4.82099 11.2737 4.87537 10.8394 5.30974L5.30962 10.8392C4.87537 11.2736 4.82087 11.959 5.18124 12.4565L8.60148 17.1782C7.84923 18.55 7.24949 19.999 6.81136 21.5032L1.05262 22.4237C0.446249 22.5206 0 23.0438 0 23.6581V31.4781C0 32.0923 0.446249 32.6154 1.05262 32.7123L6.81136 33.6328C7.24949 35.1372 7.84923 36.5861 8.60148 37.9579L5.18124 42.6797C4.82099 43.177 4.87537 43.8625 5.30962 44.2969L10.8392 49.8264C11.2736 50.2607 11.9591 50.315 12.4564 49.9548L17.1781 46.5345C18.55 47.2869 19.9988 47.8867 21.5032 48.3248L22.2067 52.726C22.1288 53.0475 22.0865 53.3828 22.0865 53.7279C22.0865 54.9008 22.5632 55.9645 23.3332 56.7353C22.5633 57.506 22.0865 58.5698 22.0865 59.7426C22.0865 62.0901 23.9963 64 26.3438 64H43.8672C45.5269 64 47.1702 63.4488 48.4943 62.4479L49.9539 61.3445C50.0982 61.8754 50.5823 62.2664 51.1589 62.2664H62.7499C63.4403 62.2664 63.9999 61.7068 63.9999 61.0164V41.2403C63.9999 40.5499 63.4403 39.9903 62.7499 39.9903ZM23.1957 44.8505C23.1806 44.8672 23.1663 44.8845 23.1515 44.9014C23.1222 44.9345 23.0928 44.9677 23.0646 45.0017C23.0473 45.0225 23.031 45.044 23.0141 45.0653C22.9895 45.0963 22.9645 45.127 22.9406 45.1588C22.9231 45.182 22.9066 45.2059 22.8896 45.2295C22.8675 45.2602 22.8452 45.2907 22.824 45.3219C22.8072 45.3464 22.7913 45.3715 22.7752 45.3964C22.7548 45.4278 22.7343 45.4589 22.7147 45.4908C22.699 45.5163 22.6842 45.5424 22.669 45.5682C22.6502 45.6003 22.6313 45.6323 22.6133 45.6649C22.5987 45.6915 22.5848 45.7185 22.5707 45.7455C22.5536 45.7783 22.5365 45.8109 22.5202 45.844C22.5067 45.8715 22.4938 45.8995 22.481 45.9274C22.4706 45.9498 22.4595 45.9718 22.4495 45.9944C20.7947 45.5367 19.2133 44.8588 17.7423 43.9763C17.3128 43.7188 16.7713 43.7422 16.366 44.0359L11.8534 47.3048L7.83136 43.2829L11.1002 38.7702C11.394 38.3647 11.4174 37.8232 11.1599 37.3938C10.1952 35.7859 9.47511 34.0462 9.01961 32.2231C8.89823 31.7373 8.49873 31.3708 8.00411 31.2918L2.5 30.4119V24.7241L8.00411 23.8442C8.49861 23.7652 8.89811 23.3987 9.01948 22.913C9.47511 21.0898 10.1951 19.3501 11.1597 17.7422C11.4174 17.3128 11.3939 16.7713 11.1001 16.3658L7.83136 11.8532L11.8532 7.83124L16.3658 11.1001C16.7712 11.3937 17.3127 11.4172 17.7421 11.1597C19.3501 10.1951 21.0898 9.47498 22.913 9.01948C23.3987 8.89811 23.7652 8.49848 23.8442 8.00411L24.7242 2.5H30.4121L31.2919 8.00411C31.3709 8.49861 31.7374 8.89811 32.2232 9.01948C34.0463 9.47511 35.7861 10.1951 37.3939 11.1597C37.8233 11.4174 38.3648 11.3939 38.7703 11.1001L43.283 7.83124L47.3049 11.8531L44.036 16.3658C43.7423 16.7713 43.7189 17.3128 43.9764 17.7422C44.941 19.3502 45.6612 21.0898 46.1168 22.913C46.2382 23.3987 46.6378 23.7652 47.1322 23.8442L52.6362 24.7241V30.4119L47.1322 31.2917C46.8808 31.3318 46.654 31.4462 46.4758 31.6128V27.2398C46.4758 25.8927 45.7687 24.7085 44.7068 24.0363C44.0188 20.6813 42.3779 17.6291 39.9425 15.1936C33.1193 8.37023 22.0171 8.37023 15.1938 15.1936C12.4744 17.9131 10.7592 21.3591 10.2339 25.1592C9.72573 28.8347 10.4136 32.6469 12.1707 35.8937C12.397 36.3117 12.827 36.5489 13.2711 36.5489C13.472 36.5489 13.6758 36.5003 13.865 36.3981C14.4721 36.0696 14.698 35.3109 14.3693 34.7038C11.237 28.9161 12.303 21.6202 16.9616 16.9615C22.81 11.1129 32.3262 11.1129 38.1747 16.9615C40.0056 18.7923 41.312 21.0295 42.0039 23.4907C41.9787 23.4936 41.9535 23.4971 41.9284 23.5003C41.9108 23.5026 41.8932 23.5046 41.8755 23.5071C41.0884 23.614 40.3497 23.8738 39.6897 24.2561C39.1174 22.1607 38.0074 20.2337 36.4549 18.6812C34.0813 16.3072 30.9251 15 27.5681 15C24.211 15 21.055 16.3072 18.6811 18.6811C13.7808 23.5813 13.7808 31.5547 18.6811 36.4551C19.8945 37.6684 21.3152 38.605 22.8752 39.2303C22.8621 39.2488 22.8507 39.2686 22.8378 39.2873C22.8026 39.3383 22.7687 39.3903 22.7357 39.4429C22.7117 39.4814 22.6882 39.5202 22.6655 39.5593C22.632 39.6168 22.5997 39.675 22.5688 39.7342C22.5542 39.7623 22.5395 39.7903 22.5255 39.8188C22.4862 39.8982 22.4491 39.9788 22.4147 40.0609C22.4067 40.0802 22.3995 40.0999 22.3916 40.1193C22.3613 40.1947 22.3333 40.271 22.3073 40.3485C22.3012 40.3669 22.2946 40.385 22.2887 40.4035C22.2596 40.4943 22.2337 40.5865 22.2107 40.6798C22.2061 40.6985 22.202 40.7173 22.1977 40.7362C22.1772 40.8244 22.1592 40.9135 22.1443 41.0038C22.1426 41.014 22.1405 41.024 22.1388 41.0344C22.1236 41.1314 22.1123 41.2295 22.1038 41.3285C22.102 41.3507 22.1003 41.3728 22.0987 41.395C22.0916 41.4954 22.0867 41.5963 22.0867 41.6984C22.0867 42.8713 22.5635 43.935 23.3335 44.7058C23.2865 44.7529 23.2405 44.8013 23.1957 44.8505ZM20.449 34.6874C16.5235 30.7618 16.5235 24.3745 20.449 20.449C24.3746 16.5235 30.7618 16.5235 34.6873 20.449C36.2758 22.0375 37.2853 24.1157 37.5579 26.3392C37.0049 27.2472 36.6861 28.3127 36.6861 29.4513V31.8308C36.1897 32.8938 35.5197 33.8547 34.6872 34.6873C33.2703 36.1043 31.4891 37.0542 29.5312 37.4412H26.344C26.1608 37.4412 25.9807 37.4542 25.8036 37.4767C23.766 37.1166 21.9173 36.1557 20.449 34.6874ZM36.6861 36.2179V37.4411H35.3468C35.7331 37.1361 36.1032 36.8069 36.4552 36.4549C36.5332 36.3769 36.6103 36.2978 36.6861 36.2179ZM49.9089 58.2444L46.9868 60.4535C46.0942 61.1283 44.9863 61.4999 43.8673 61.4999H26.3441C25.375 61.4999 24.5867 60.7115 24.5867 59.7425C24.5867 58.775 25.3725 57.988 26.3393 57.9854H29.1963C29.8867 57.9854 30.4463 57.4258 30.4463 56.7354C30.4463 56.045 29.8867 55.4854 29.1963 55.4854H26.349C26.3473 55.4854 26.3457 55.4851 26.3441 55.4851C25.375 55.4851 24.5867 54.6968 24.5867 53.7278C24.5867 53.4855 24.636 53.2546 24.725 53.0445C24.7251 53.0443 24.7252 53.044 24.7253 53.0438C24.747 52.9929 24.771 52.9434 24.7971 52.895C24.7992 52.891 24.8016 52.8871 24.8037 52.8832C24.8295 52.8363 24.8571 52.7905 24.887 52.7464C24.8871 52.7461 24.8873 52.7458 24.8876 52.7455C25.108 52.4199 25.4346 52.1719 25.8173 52.0513C25.8237 52.0493 25.8302 52.0476 25.8367 52.0458C25.8803 52.0325 25.9247 52.0213 25.9697 52.0115C25.9846 52.0083 25.9996 52.0053 26.0146 52.0025C26.0536 51.9952 26.0931 51.9893 26.1329 51.9844C26.1486 51.9825 26.1641 51.9803 26.1797 51.9788C26.2338 51.9738 26.2886 51.9704 26.3441 51.9704H29.1963C29.8867 51.9704 30.4463 51.4108 30.4463 50.7204C30.4463 50.03 29.8867 49.4704 29.1963 49.4704H26.3441C25.3751 49.4704 24.5867 48.682 24.5867 47.713C24.5867 46.744 25.3751 45.9557 26.3441 45.9557C26.3457 45.9557 26.3473 45.9554 26.349 45.9554H29.1963C29.8867 45.9554 30.4463 45.3958 30.4463 44.7054C30.4463 44.015 29.8867 43.4554 29.1963 43.4554H26.3393C25.3726 43.4528 24.5867 42.6657 24.5867 41.6983C24.5867 41.6413 24.59 41.585 24.5952 41.5293C24.597 41.5105 24.6002 41.4923 24.6026 41.4738C24.6073 41.437 24.6123 41.4003 24.6193 41.3643C24.6233 41.3433 24.6285 41.3228 24.6333 41.302C24.6411 41.2687 24.6493 41.2355 24.6588 41.2029C24.6647 41.1828 24.6712 41.1629 24.6778 41.143C24.689 41.1098 24.701 41.0769 24.714 41.0445C24.721 41.027 24.7281 41.0097 24.7356 40.9925C24.7513 40.9569 24.7682 40.922 24.7862 40.8877C24.7928 40.8749 24.7991 40.8622 24.8061 40.8495C24.8298 40.8068 24.8551 40.7649 24.8822 40.7244C24.8845 40.721 24.8863 40.7177 24.8886 40.7143C25.0135 40.5302 25.1723 40.371 25.3561 40.2457C25.362 40.2417 25.368 40.2379 25.3738 40.234C25.4123 40.2084 25.4518 40.1845 25.4923 40.1619C25.5032 40.1559 25.5142 40.15 25.5253 40.1442C25.5608 40.1254 25.5973 40.1081 25.6342 40.0917C25.6501 40.0847 25.666 40.0775 25.6821 40.071C25.7141 40.0579 25.747 40.0464 25.7798 40.0352C25.8011 40.028 25.8221 40.0205 25.8437 40.0142C25.8713 40.0059 25.8996 39.9994 25.9277 39.9925C25.9547 39.986 25.9815 39.9788 26.009 39.9735C26.1175 39.9524 26.2293 39.9407 26.344 39.9407H29.6576H37.9359C38.6263 39.9407 39.1859 39.3811 39.1859 38.6907V32.1061V29.4512C39.1859 28.6711 39.4427 27.9498 39.8758 27.3672C39.8929 27.3441 39.9109 27.3217 39.9287 27.2991C39.9642 27.2536 40.0008 27.2091 40.0385 27.1654C40.0605 27.1401 40.0823 27.1144 40.1049 27.0898C40.1243 27.0687 40.1443 27.0483 40.1642 27.0277C40.1898 27.0011 40.2154 26.9747 40.2418 26.9491C40.2592 26.9321 40.2768 26.9154 40.2945 26.8988C40.328 26.8674 40.3622 26.8367 40.3968 26.8068C40.4084 26.7968 40.4198 26.7866 40.4315 26.7767C40.8989 26.3836 41.4628 26.1168 42.0644 26.0071C42.0673 26.0066 42.0702 26.0061 42.0729 26.0056C42.1325 25.9948 42.1927 25.9861 42.253 25.9785C42.2635 25.9772 42.2739 25.9757 42.2844 25.9745C42.3384 25.9681 42.3927 25.9636 42.447 25.9597C42.4608 25.9587 42.4744 25.9573 42.4882 25.9566C42.554 25.9528 42.6203 25.9506 42.6867 25.9506C43.3975 25.9506 43.9758 26.5289 43.9758 27.2398V34.8022C43.9758 34.9388 43.9807 35.0751 43.9878 35.2109C43.9894 35.2401 43.9917 35.2691 43.9935 35.2982C44.0013 35.4187 44.0119 35.5388 44.0253 35.6586C44.0268 35.6714 44.028 35.6843 44.0295 35.6972C44.0993 36.2924 44.2372 36.8777 44.4452 37.4452C44.4598 37.4851 44.4787 37.5222 44.497 37.5598C44.9994 38.8577 45.8463 40.0179 46.9657 40.8803L49.909 43.1482V58.2444H49.9089ZM61.4999 59.7663H58.2044V50.0358C58.2044 49.3454 57.6448 48.7858 56.9544 48.7858C56.264 48.7858 55.7044 49.3454 55.7044 50.0358V59.7663H52.409V58.8665V42.5334V42.4903H61.4999V59.7663Z" fill="url(#paint0_linear)"/>
<path d="M58.1801 45.3425C58.1638 45.2638 58.1401 45.185 58.1088 45.1088C58.0776 45.0338 58.0388 44.9613 57.9938 44.8938C57.9488 44.825 57.8963 44.7613 57.8388 44.7038C57.7813 44.6463 57.7163 44.5938 57.6488 44.5475C57.5801 44.5025 57.5076 44.4638 57.4326 44.4325C57.3576 44.4013 57.2788 44.3775 57.1988 44.3613C57.0376 44.3288 56.8713 44.3288 56.7101 44.3613C56.6301 44.3775 56.5513 44.4013 56.4763 44.4325C56.4013 44.4638 56.3288 44.5025 56.2601 44.5475C56.1926 44.5938 56.1288 44.6463 56.0701 44.7038C56.0125 44.7613 55.9613 44.825 55.9151 44.8938C55.8701 44.9613 55.8313 45.0338 55.8001 45.1088C55.7688 45.185 55.7451 45.2638 55.7288 45.3425C55.7126 45.4238 55.7051 45.5063 55.7051 45.5875C55.7051 45.6688 55.7126 45.7513 55.7288 45.8313C55.7451 45.9113 55.7688 45.99 55.8001 46.065C55.8313 46.1413 55.8701 46.2138 55.9151 46.2813C55.9613 46.3501 56.0126 46.4138 56.0701 46.4713C56.1288 46.5288 56.1926 46.5813 56.2601 46.6263C56.3288 46.6713 56.4013 46.7101 56.4763 46.7413C56.5513 46.7726 56.6301 46.7963 56.7101 46.8126C56.7913 46.8288 56.8726 46.8376 56.9551 46.8376C57.0363 46.8376 57.1188 46.8288 57.1988 46.8126C57.2788 46.7963 57.3576 46.7726 57.4326 46.7413C57.5076 46.7101 57.5801 46.6713 57.6488 46.6263C57.7163 46.5813 57.7813 46.5288 57.8388 46.4713C57.8963 46.4138 57.9488 46.3501 57.9938 46.2813C58.0388 46.2138 58.0776 46.1413 58.1088 46.065C58.1401 45.99 58.1638 45.9113 58.1801 45.8313C58.1963 45.7513 58.2051 45.6688 58.2051 45.5875C58.2052 45.5063 58.1963 45.4238 58.1801 45.3425Z" fill="url(#paint1_linear)"/>
<path d="M16.8432 38.0547C16.61 37.8145 16.2902 37.6776 15.9553 37.675C15.6164 37.6691 15.2985 37.8042 15.0617 38.041C14.5753 38.5274 14.5767 39.3189 15.0605 39.8077C15.3052 40.055 15.6277 40.1789 15.9504 40.1789C16.2659 40.1789 16.5817 40.0602 16.8245 39.8222C17.3159 39.341 17.322 38.5486 16.8432 38.0547Z" fill="url(#paint2_linear)"/>
<path d="M27.5685 19.5913C23.1702 19.5913 19.5918 23.1697 19.5918 27.568C19.5918 31.9664 23.1702 35.5446 27.5685 35.5446C31.9669 35.5446 35.5453 31.9664 35.5453 27.568C35.5453 23.1697 31.9669 19.5913 27.5685 19.5913ZM27.5685 33.0446C24.5487 33.0446 22.0918 30.5878 22.0918 27.568C22.0918 24.5482 24.5487 22.0913 27.5685 22.0913C30.5884 22.0913 33.0453 24.5482 33.0453 27.568C33.0453 30.5879 30.5884 33.0446 27.5685 33.0446Z" fill="url(#paint3_linear)"/>
<path d="M29.3364 27.5682L30.0603 26.8443C30.5487 26.3562 30.5487 25.5647 30.0605 25.0764C29.5724 24.5884 28.7809 24.5884 28.2927 25.0764L27.5688 25.8003L26.8449 25.0764C26.3568 24.5884 25.5653 24.5884 25.077 25.0764C24.5889 25.5646 24.5889 26.3561 25.077 26.8443L25.8009 27.5682L25.077 28.2921C24.5889 28.7802 24.5889 29.5717 25.077 30.0599C25.3212 30.3041 25.641 30.4261 25.9609 30.4261C26.2808 30.4261 26.6008 30.3041 26.8448 30.0599L27.5687 29.3361L28.2925 30.0599C28.5367 30.3041 28.8565 30.4261 29.1764 30.4261C29.4963 30.4261 29.8163 30.3041 30.0603 30.0599C30.5484 29.5718 30.5484 28.7803 30.0603 28.2921L29.3364 27.5682Z" fill="url(#paint4_linear)"/>
<defs>
<linearGradient id="paint0_linear" x1="31.9999" y1="0" x2="31.9999" y2="64" gradientUnits="userSpaceOnUse">
<stop stop-color="#219CF9"/>
<stop offset="1" stop-color="#4E50EA"/>
</linearGradient>
<linearGradient id="paint1_linear" x1="56.9551" y1="44.3369" x2="56.9551" y2="46.8376" gradientUnits="userSpaceOnUse">
<stop stop-color="#219CF9"/>
<stop offset="1" stop-color="#4E50EA"/>
</linearGradient>
<linearGradient id="paint2_linear" x1="15.9475" y1="37.6748" x2="15.9475" y2="40.1789" gradientUnits="userSpaceOnUse">
<stop stop-color="#219CF9"/>
<stop offset="1" stop-color="#4E50EA"/>
</linearGradient>
<linearGradient id="paint3_linear" x1="27.5685" y1="19.5913" x2="27.5685" y2="35.5446" gradientUnits="userSpaceOnUse">
<stop stop-color="#219CF9"/>
<stop offset="1" stop-color="#4E50EA"/>
</linearGradient>
<linearGradient id="paint4_linear" x1="27.5688" y1="24.7104" x2="27.5688" y2="30.4261" gradientUnits="userSpaceOnUse">
<stop stop-color="#219CF9"/>
<stop offset="1" stop-color="#4E50EA"/>
</linearGradient>
</defs>
</svg>
