<svg width="20" height="20" viewBox="0 0 20 20" fill="none" xmlns="http://www.w3.org/2000/svg">
<g clip-path="url(#clip0)">
<path d="M0.0633498 1.83464L1.39719 4.16873C1.44218 4.2476 1.51749 4.30466 1.60555 4.32675L2.84996 4.63785L7.118 8.90589L7.58959 8.43444L3.25475 4.09973C3.21209 4.05693 3.15859 4.02662 3.10002 4.01194L1.90431 3.71195L0.768678 1.72354L1.74231 0.749905L3.73155 1.88663L4.03168 3.08234C4.04622 3.14105 4.07667 3.19468 4.11933 3.23734L8.45417 7.57219L8.92562 7.1006L4.65758 2.83256L4.34648 1.58884C4.3244 1.50064 4.26733 1.42519 4.18846 1.38006L1.85424 0.0463605C1.72407 -0.0277112 1.56029 -0.00576399 1.45412 0.099994L0.120413 1.43383C0.0131456 1.53932 -0.0101732 1.70337 0.0633498 1.83464Z" fill="white"/>
<path d="M13.9264 6.5717L6.59073 13.9075L6.11914 13.436L13.455 6.10025L13.9264 6.5717Z" fill="white"/>
<path d="M5.30674 14.1671C5.24638 14.0667 5.13802 14.0053 5.02088 14.0053H3.02026C2.90325 14.0053 2.79475 14.0667 2.73453 14.1671L1.73416 15.8342C1.67065 15.9399 1.67065 16.0719 1.73416 16.1777L2.73453 17.8449C2.79475 17.9451 2.90325 18.0066 3.02026 18.0066H5.02088C5.13802 18.0066 5.24638 17.9451 5.30674 17.8449L6.30698 16.1777C6.37049 16.0719 6.37049 15.9399 6.30698 15.8342L5.30674 14.1671ZM4.83227 17.3397H3.209L2.40876 16.006L3.209 14.6721H4.83227L5.63252 16.006L4.83227 17.3397Z" fill="white"/>
<path d="M16.0245 8.00332C18.2268 8.01072 20.0182 6.23135 20.0257 4.02909C20.0268 3.69384 19.9856 3.35997 19.9032 3.03502C19.8587 2.85628 19.6778 2.74751 19.4991 2.79195C19.4404 2.80663 19.3869 2.83694 19.3441 2.8796L17.2684 4.95389L15.6215 4.40507L15.0723 2.75862L17.148 0.682551C17.2781 0.552239 17.278 0.341134 17.1477 0.21096C17.1048 0.168026 17.0507 0.137574 16.9916 0.123034C14.8559 -0.417828 12.6862 0.875 12.1454 3.0106C12.0632 3.3346 12.0222 3.66764 12.0233 4.00193C12.0241 4.26447 12.0511 4.52619 12.1044 4.78325L4.80185 12.0856C4.5448 12.0325 4.28308 12.0055 4.02067 12.0046C1.81073 12.0046 0.0192871 13.796 0.0192871 16.006C0.0192871 18.2158 1.81073 20.0072 4.02067 20.0072C6.23048 20.0072 8.02192 18.2158 8.02192 16.006C8.02109 15.7434 7.99393 15.4817 7.94085 15.2246L9.68908 13.4764L10.4537 14.241C10.584 14.3712 10.7949 14.3712 10.9253 14.241L11.0919 14.0742C11.2381 13.9289 11.4745 13.9289 11.6207 14.0742C11.7668 14.2199 11.7671 14.4563 11.6214 14.6024C11.6213 14.6026 11.621 14.6028 11.6207 14.6031L11.454 14.7698C11.3239 14.9 11.3239 15.1111 11.454 15.2412L15.4317 19.2189C16.4779 20.2747 18.1818 20.2824 19.2376 19.2362C20.2933 18.19 20.301 16.4859 19.2548 15.4303C19.2491 15.4245 19.2434 15.4187 19.2376 15.413L15.26 11.4354C15.1298 11.3053 14.9187 11.3053 14.7885 11.4354L14.6218 11.6021C14.4755 11.7475 14.2393 11.7475 14.0929 11.6021C13.947 11.4564 13.9466 11.22 14.0922 11.074C14.0925 11.0737 14.0928 11.0736 14.0929 11.0733L14.2597 10.9065C14.3899 10.7763 14.3899 10.5652 14.2597 10.4351L13.4951 9.67048L15.2434 7.92225C15.5004 7.97533 15.7621 8.00249 16.0245 8.00332ZM17.3347 19.3404C17.0924 19.34 16.8522 19.2963 16.6255 19.2111L19.2297 16.6068C19.6227 17.6521 19.0939 18.8181 18.0485 19.2111C17.8204 19.2968 17.5785 19.3407 17.3347 19.3404ZM13.5571 10.6742C13.1879 11.1146 13.2458 11.7711 13.6862 12.1402C14.0733 12.4646 14.6375 12.4644 15.0242 12.1393L18.7662 15.8846C18.8068 15.9253 18.8448 15.9682 18.8815 16.0119L16.0306 18.8628C15.9868 18.8262 15.9439 18.7882 15.9032 18.7474L12.1583 15.0023C12.5275 14.5618 12.4697 13.9053 12.0292 13.5362C11.6421 13.2117 11.0778 13.2121 10.6911 13.537L10.1577 13.0036L13.0235 10.1419L13.5571 10.6742ZM14.9036 7.32048L7.33936 14.8832C7.25637 14.9661 7.22304 15.0864 7.2513 15.2001C7.70876 16.9966 6.6232 18.8238 4.82654 19.2812C3.03003 19.7386 1.20279 18.6531 0.745327 16.8564C0.288003 15.0599 1.37357 13.2326 3.17022 12.7752C3.71368 12.6369 4.28308 12.6369 4.82654 12.7752C4.94026 12.803 5.06028 12.7697 5.14341 12.6873L12.7059 5.12439C12.7887 5.04154 12.822 4.92124 12.7935 4.80767C12.3392 3.03214 13.4102 1.22451 15.1858 0.770065C15.5213 0.684334 15.8683 0.651413 16.214 0.672949L14.455 2.43257C14.3658 2.52173 14.3345 2.65382 14.3744 2.77357L15.0412 4.77433C15.0745 4.87378 15.1527 4.95197 15.2523 4.98503L17.253 5.65195C17.3727 5.69186 17.5047 5.66073 17.594 5.57157L19.353 3.81263C19.357 3.87628 19.359 3.93924 19.359 4.00193C19.3683 5.83411 17.8907 7.32693 16.0586 7.3364C15.7753 7.33777 15.493 7.30293 15.2187 7.23269C15.105 7.2043 14.9847 7.2375 14.9018 7.32035H14.9036V7.32048Z" fill="white"/>
<path d="M17.261 16.7704L16.7894 17.242L13.4551 13.9077L13.9265 13.4361L17.261 16.7704Z" fill="white"/>
</g>
<defs>
<clipPath id="clip0">
<rect width="20" height="20" fill="white"/>
</clipPath>
</defs>
</svg>
