<svg width="134" height="108" viewBox="0 0 134 108" fill="none" xmlns="http://www.w3.org/2000/svg">
<path d="M102.086 34.6301C98.9061 41.6906 94.6711 48.1341 89.7259 54.2735C89.3709 54.582 89.2543 54.9918 88.7826 55.6045C96.9078 53.7622 116.607 45.3707 123.672 42.3032C124.027 42.3032 124.027 42.5059 124.027 42.5059C121.202 43.6298 106.443 50.0777 103.973 51.1002C99.3829 52.9425 95.6144 54.2691 91.0243 55.4987C90.2027 55.7014 89.026 55.9086 88.4326 56.3141C87.1393 57.2352 86.4343 58.4648 85.1359 59.7914C77.244 68.2887 67.1153 78.1126 54.2834 79.7477C39.6864 80.4661 45.2199 63.8902 50.0433 56.1157C52.1633 52.4312 69.8237 26.8556 68.5304 27.9794C48.3949 46.8031 36.3897 40.8708 35.6796 41.792L29.4411 50.589C25.6727 55.9086 21.1993 61.1269 16.4925 66.0366C13.6675 69.1041 10.8424 72.3787 6.95732 74.8336C5.66398 75.552 3.89389 76.3673 2.24552 76.4731C1.06884 76.4731 0.00878906 75.8605 0.00878906 74.8336C0.00878906 72.0702 1.42386 69.7167 4.01054 68.0816C3.30554 68.8 2.59548 69.6153 1.89048 70.5365C1.06376 71.7617 0.475428 73.0927 0.475428 74.5251C0.475428 75.5476 1.06376 76.0588 2.24044 75.8561C3.30048 75.5476 4.36051 75.2435 5.06551 74.6309C7.41888 72.4845 9.65558 70.2324 11.7756 67.8789C15.3057 63.8902 18.7242 59.8972 21.8992 55.6001C25.1959 51.3029 28.376 46.6973 31.5561 42.2988C31.9112 41.9903 32.2611 41.4834 32.4995 41.1749C32.6161 40.9722 31.7945 40.8664 31.2062 40.8664C27.5544 40.765 23.791 40.148 20.1392 40.5579C16.7258 41.0691 13.5457 41.9903 10.954 43.6254C10.599 43.8281 10.0106 43.9339 9.66066 44.238C9.66066 44.1322 9.66064 44.1322 9.54399 43.9295L10.0157 43.5196C11.0757 42.5985 12.3691 42.0872 13.7841 41.6774C16.7258 40.5535 20.1443 40.1436 23.3193 40.1436C26.1444 40.1436 28.9695 40.245 31.7945 40.4521C32.6212 40.5579 33.3262 40.2494 33.6813 39.6368C35.4463 37.3846 37.2113 34.9298 38.9814 32.4749C41.6898 28.8917 44.1598 25.4144 46.7516 21.8356L56.9969 9.14697C57.5852 8.53435 57.9402 7.7146 58.4119 7.10198C58.4119 7.10198 58.4119 7.0006 58.6452 6.69209C58.2902 6.69209 58.0569 6.6921 57.9402 6.79347C56.1752 7.92174 54.1718 8.94423 52.2901 10.0681C49.2318 11.7076 46.0517 12.9328 42.7549 13.854C41.3399 14.1625 39.6915 14.7751 38.2815 15.0792L27.3312 17.4327C25.4445 17.8426 23.3295 18.3538 21.3261 18.9665C18.7343 19.5791 16.0259 20.2975 13.5559 21.4213C11.7909 22.034 10.0258 23.0609 8.26081 23.9776L3.19904 27.2522C2.96574 27.3536 2.84399 27.5607 2.61069 27.5607C2.61069 27.5607 2.61069 27.3536 2.49404 27.3536C2.84908 27.0451 2.96573 26.741 3.31569 26.4325C4.96406 25.41 6.37912 24.2861 7.90577 23.5677C10.2591 22.1353 12.7342 20.9101 15.2043 19.989C17.3243 19.0678 19.7944 18.658 22.0311 18.0453L39.5748 13.8496C46.0517 12.3158 51.9351 9.75959 57.2352 6.37918C59.7103 4.84543 62.1803 3.00318 64.4171 1.46943C64.7721 1.16092 65.1221 0.95818 65.3605 0.856812C65.4771 0.95818 65.4771 0.958185 65.4771 0.958185C65.4771 1.16092 65.8321 1.46943 65.8321 1.57079C62.6521 5.55941 59.5937 9.44666 56.6469 13.4397C52.0568 19.3719 47.5834 25.5113 43.2266 31.5494C41.2232 34.0042 39.4582 36.3577 37.6931 38.8126C37.1048 39.7337 36.1614 40.4477 36.3998 40.959C36.5164 41.1617 37.4598 41.3689 37.9315 41.3689C51.1185 42.3914 65.0105 32.5719 72.309 22.6466C74.3124 19.5791 79.1358 19.1692 75.2507 25.1015C70.6606 31.0337 66.0654 38.6054 61.4754 45.3575C58.062 50.1658 54.1769 55.6926 50.9968 61.3164C48.9934 64.8995 47.1117 68.681 47.4667 72.674C47.8218 77.2797 49.3535 79.8359 55.0036 79.2233C65.3655 77.6895 73.369 70.5276 80.0842 64.0798C82.9093 61.5235 88.0928 56.3052 87.2661 56.508C51.7069 66.3275 44.6467 55.2783 49.1202 43.5152C54.4203 29.6013 74.0791 11.3903 85.9727 8.21703C109.501 2.20105 107.026 23.6823 102.086 34.6301ZM103.38 28.7992C108.325 10.0769 98.6728 6.08829 86.3075 10.1783C72.1771 14.8853 54.2834 30.0244 49.6882 43.837C45.4481 56.627 53.34 65.2212 87.7174 55.9086C94.0776 48.2398 100.554 38.3146 103.38 28.7992Z" fill="white"/>
<path d="M89.2246 103.882C87.3379 104.495 85.3396 104.905 83.5745 105.927C82.9862 106.438 82.2812 106.95 81.6928 107.461C81.1045 107.664 79.2178 107.051 79.6895 106.438C80.8661 104.288 82.6312 102.445 83.9296 100.709C84.5179 99.7878 84.9896 99.585 84.4013 99.585C81.6929 99.1752 79.1011 99.0738 76.5144 98.5625C74.511 98.1527 72.8626 97.54 70.981 96.8216C65.9192 95.1865 62.5058 91.9119 60.9741 87.3063C59.9141 84.0316 59.7974 80.6556 60.3857 77.1782C61.2074 73.0882 62.7391 69.3024 64.9758 65.5165C66.0359 63.877 67.0959 62.1405 68.3892 60.501C69.4493 58.8659 70.7426 57.3321 72.2743 55.8997C73.806 54.1588 75.4544 52.5237 77.1028 50.8842C79.6945 48.6321 82.6362 46.7942 85.6997 44.9519C88.6414 43.3124 91.9381 41.8845 95.2348 40.7562C97.9432 39.7337 100.885 39.2224 103.832 38.9139C106.068 38.6054 108.305 38.4027 110.542 38.4027C115.37 38.504 119.727 39.5265 123.729 41.5715C125.139 42.3913 125.849 43.1053 127.026 44.0264C127.614 44.5377 129.496 41.88 129.851 41.4702C130.794 41.1617 132.326 41.9814 132.087 42.4927C131.616 43.3124 130.556 44.5376 129.967 45.3574C129.734 45.7673 129.967 46.0758 130.206 46.2786C137.743 54.6701 132.559 72.1627 127.497 80.0386C120.315 91.1891 106.773 99.3779 93.5865 102.754C94.4081 104.085 94.4081 105.31 94.5298 106.337C94.5298 106.337 94.0582 106.337 93.9415 106.337C93.9415 105.315 93.7082 104.085 93.2365 102.961C92.5214 103.062 89.813 103.679 89.2246 103.882ZM100.758 40.2449C96.873 41.0647 93.343 42.5984 89.9246 44.4407C85.2128 47.2041 81.0944 50.3774 77.681 53.8547C74.1509 57.6406 70.7325 61.5279 68.1458 65.825C66.6141 68.2799 65.2041 70.8405 64.0274 73.4981C63.2007 76.0544 62.1406 78.615 61.674 81.2726C61.2023 85.1599 61.4407 88.743 64.1491 91.9119C65.4424 93.3443 66.8575 94.4681 68.6225 95.3893C72.2743 97.3329 75.6877 98.0513 79.6895 98.6639C81.4545 98.871 83.9295 99.1752 84.9896 99.1752C85.3446 99.1752 87.8147 95.592 89.2297 93.7542C97.2332 82.705 114.544 59.8883 124.079 48.0194C125.139 46.7942 127.021 44.7448 126.904 44.6434C125.017 43.1097 123.252 41.8801 120.665 41.0603C117.369 39.7293 113.955 39.3194 110.542 39.3194C107.002 39.1211 103.938 39.6323 100.758 40.2449ZM89.813 100.198C88.1646 99.6864 88.1646 99.9949 87.5763 100.506C86.5162 101.837 85.5779 102.961 84.5179 104.191L83.9296 104.909C84.1629 104.909 84.7512 104.808 84.9896 104.706C87.3429 104.195 89.3464 103.375 92.9981 102.556C91.928 101.529 91.1063 100.815 89.813 100.198ZM128.664 46.9969C119.007 59.787 97.9331 87.0022 89.5746 98.1527L88.6312 99.3779C90.9846 99.8891 92.1613 101.017 93.4597 102.445C106.647 98.6595 120.305 90.7836 126.777 79.9372C132.194 70.8317 137.256 54.767 129.369 46.2786C129.252 46.2786 128.78 46.7942 128.664 46.9969Z" fill="white"/>
<path d="M3.99171 97.0508H4.56482V97.8662H4.06777V97.302H0.497079V97.8662H0V97.0508H0.552864L2.01869 93.5426H2.37373L3.99171 97.0508ZM2.07447 94.1288H2.04912L0.821696 97.0552H3.42869L2.07447 94.1288Z" fill="white"/>
<path d="M11.9042 93.5426H12.4368V97.3065H11.9042V93.948L9.47981 97.3065H8.94727V93.5426H9.47981V96.8657L11.9042 93.5426Z" fill="white"/>
<path d="M18.0608 93.785C17.9492 93.8334 17.8579 93.8863 17.792 93.9524C17.7261 94.0185 17.6754 94.0935 17.6449 94.1684C17.6145 94.2477 17.5993 94.3183 17.5942 94.3844H17.1529C17.158 94.2301 17.1935 94.0935 17.2645 93.9833C17.3355 93.8687 17.4268 93.7718 17.5486 93.6968C17.6652 93.6219 17.8072 93.5646 17.9695 93.5294C18.1318 93.4941 18.3144 93.4765 18.5122 93.4765C18.7709 93.4765 18.989 93.5029 19.1665 93.5602C19.344 93.6175 19.4911 93.688 19.6078 93.7762C19.7244 93.8643 19.8056 93.9657 19.8563 94.0759C19.907 94.1904 19.9324 94.3006 19.9324 94.4152C19.9324 94.5254 19.9121 94.6268 19.8715 94.7325C19.8309 94.8383 19.7751 94.9309 19.6991 95.0102C19.623 95.0895 19.5367 95.1556 19.4353 95.2041C19.3339 95.2526 19.2172 95.2746 19.1006 95.2746V95.2967H19.1412C19.268 95.2967 19.3948 95.3187 19.5216 95.3628C19.6484 95.4068 19.7599 95.4729 19.8563 95.5567C19.9527 95.6404 20.0338 95.7418 20.0947 95.8564C20.1555 95.971 20.186 96.1032 20.186 96.2442C20.186 96.3764 20.1555 96.5042 20.0997 96.6365C20.0439 96.7687 19.9476 96.8877 19.8157 96.9979C19.6838 97.1036 19.5063 97.1918 19.2882 97.2623C19.0701 97.3284 18.7963 97.3636 18.4717 97.3636C17.9746 97.3636 17.6094 97.2799 17.3761 97.108C17.1428 96.9406 17.016 96.6849 17.0059 96.3456H17.5587C17.5638 96.4073 17.5739 96.4822 17.5942 96.5703C17.6145 96.6585 17.6601 96.7422 17.7261 96.826C17.792 96.9097 17.8884 96.9802 18.0101 97.0375C18.1369 97.0948 18.3043 97.1257 18.5122 97.1257C18.7252 97.1257 18.9028 97.0948 19.0448 97.0331C19.1868 96.9714 19.2933 96.8965 19.3795 96.8039C19.4607 96.7114 19.5165 96.6144 19.552 96.5087C19.5875 96.4029 19.6027 96.3059 19.6027 96.2222C19.6027 96.0988 19.5723 95.9842 19.5165 95.8828C19.4607 95.7814 19.3795 95.6977 19.273 95.6272C19.1716 95.5567 19.0448 95.5038 18.9028 95.4685C18.7607 95.4333 18.5984 95.4156 18.4209 95.4156H18.0101V95.1777H18.4209C18.6492 95.1777 18.8267 95.1468 18.9585 95.0895C19.0904 95.0278 19.1868 94.9573 19.2527 94.878C19.3187 94.7942 19.3592 94.7105 19.3795 94.6268C19.3947 94.543 19.4049 94.4725 19.4049 94.4196C19.4049 94.2169 19.3288 94.045 19.1766 93.9128C19.0245 93.7806 18.7963 93.71 18.5021 93.71C18.3195 93.7144 18.1724 93.7365 18.0608 93.785Z" fill="white"/>
<path d="M24.9891 96.1958L24.4768 97.3021H24.208L25.9375 93.5382H26.2317L28.1388 97.3021H27.5707L27.0077 96.1958H24.9891ZM25.968 94.1464H25.9426L25.1007 95.9579H26.8809L25.968 94.1464Z" fill="white"/>
<path d="M35.4725 93.547H36.0051V97.3064H35.4725V93.948L33.0482 97.3064H32.5156V93.547H33.0482V96.8657L35.4725 93.547ZM34.0017 92.9696C33.9104 92.9652 33.8191 92.9476 33.7278 92.9212C33.6416 92.8947 33.5604 92.8506 33.4996 92.7933C33.4336 92.736 33.4032 92.6523 33.4032 92.5421V92.4892H33.8596C33.8546 92.5024 33.8546 92.5157 33.8546 92.5333C33.8546 92.5465 33.8546 92.5597 33.8546 92.573C33.8546 92.6347 33.8698 92.6832 33.9002 92.7184C33.9307 92.7537 33.9662 92.7801 34.0068 92.7977C34.0473 92.8154 34.0879 92.8242 34.1335 92.8286C34.1792 92.833 34.2147 92.833 34.24 92.833C34.2705 92.833 34.306 92.833 34.3466 92.8286C34.3871 92.8242 34.4277 92.8154 34.4683 92.7977C34.5089 92.7801 34.5444 92.7537 34.5697 92.7184C34.6002 92.6832 34.6154 92.6347 34.6154 92.573C34.6154 92.5597 34.6154 92.5465 34.6154 92.5333C34.6154 92.5201 34.6103 92.5069 34.6103 92.4892H35.0769V92.5421C35.0769 92.6523 35.0465 92.736 34.9805 92.7933C34.9146 92.8506 34.8385 92.8947 34.7523 92.9212C34.6661 92.9476 34.5748 92.9608 34.4784 92.9696C34.3821 92.974 34.306 92.974 34.2502 92.974C34.169 92.9785 34.093 92.974 34.0017 92.9696Z" fill="white"/>
<path d="M41.4476 97.3065H40.915V93.5426H41.4476V95.1865H43.8973V93.5426H44.4299V97.3065H43.8973V95.4377H41.4476V97.3065Z" fill="white"/>
<path d="M3.4843 101.181H4.01685V104.94H3.4843V101.582L1.05989 104.94H0.527344V101.181H1.05989V104.499L3.4843 101.181Z" fill="white"/>
<path d="M9.45931 104.94H8.92676V101.181H9.45931V102.824H11.9091V101.181H12.4417V104.94H11.9091V103.071H9.45931V104.94Z" fill="white"/>
<path d="M18.3299 104.94V101.476H16.7627V101.181H20.4246V101.476H18.8574V104.94H18.3299Z" fill="white"/>
<path d="M27.3934 101.181V101.476H25.2835V102.824H27.0942V103.08H25.2835V104.645H27.3934V104.94H24.751V101.181H27.3934Z" fill="white"/>
<path d="M32.3079 104.94H31.7754V101.181H33.1448C33.368 101.181 33.5657 101.211 33.7331 101.273C33.9005 101.335 34.0425 101.414 34.149 101.52C34.2555 101.626 34.3417 101.74 34.3975 101.881C34.4533 102.018 34.4787 102.163 34.4787 102.313C34.4787 102.472 34.4483 102.617 34.3823 102.754C34.3215 102.891 34.2302 103.014 34.1034 103.12C33.9817 103.226 33.8295 103.309 33.6469 103.371C33.4643 103.433 33.2513 103.463 33.018 103.463C32.876 103.463 32.7492 103.455 32.6325 103.437C32.5159 103.419 32.4094 103.402 32.3079 103.375V104.94ZM32.3079 103.151C32.3891 103.177 32.4804 103.199 32.5818 103.208C32.6833 103.217 32.7948 103.221 32.9166 103.221C33.0941 103.221 33.2412 103.195 33.368 103.142C33.4948 103.089 33.5962 103.018 33.6773 102.93C33.7585 102.842 33.8193 102.75 33.8548 102.644C33.8903 102.538 33.9107 102.432 33.9107 102.331C33.9107 102.221 33.8904 102.115 33.8498 102.005C33.8092 101.895 33.7483 101.798 33.6672 101.709C33.586 101.621 33.4846 101.551 33.3578 101.498C33.231 101.445 33.089 101.414 32.9267 101.414H32.313V103.151H32.3079Z" fill="white"/>
<path d="M39.0391 101.181H39.5716V102.824H40.4643C40.723 102.824 40.941 102.855 41.1236 102.913C41.3062 102.974 41.4533 103.049 41.57 103.142C41.6866 103.234 41.7678 103.344 41.8185 103.463C41.8692 103.587 41.8946 103.71 41.8946 103.829C41.8946 103.957 41.8692 104.089 41.8236 104.222C41.7729 104.354 41.6968 104.473 41.5801 104.579C41.4685 104.689 41.3164 104.777 41.1287 104.843C40.9411 104.913 40.7077 104.944 40.4288 104.944H39.0391V101.181ZM40.4034 104.706C40.5404 104.706 40.6621 104.684 40.7737 104.64C40.8853 104.596 40.9816 104.539 41.0577 104.464C41.1389 104.389 41.1997 104.301 41.2454 104.204C41.291 104.107 41.3113 104.001 41.3113 103.891C41.3113 103.772 41.2859 103.662 41.2403 103.56C41.1896 103.459 41.1236 103.371 41.0374 103.296C40.9512 103.225 40.8447 103.164 40.723 103.124C40.6012 103.084 40.4643 103.062 40.3223 103.062H39.5767V104.706H40.4034Z" fill="white"/>
<path d="M49.0957 101.181V101.476H46.9857V102.824H48.7964V103.08H46.9857V104.645H49.0957V104.94H46.4531V101.181H49.0957Z" fill="white"/>
<path d="M54.0101 104.94H53.4775V101.181H54.8469C55.0752 101.181 55.2679 101.211 55.4353 101.273C55.6027 101.335 55.7447 101.414 55.8512 101.52C55.9577 101.626 56.0439 101.74 56.0997 101.881C56.1555 102.018 56.1808 102.163 56.1808 102.313C56.1808 102.472 56.1504 102.617 56.0845 102.754C56.0236 102.891 55.9323 103.014 55.8055 103.12C55.6838 103.226 55.5316 103.309 55.3491 103.371C55.1665 103.433 54.9535 103.463 54.7202 103.463C54.5781 103.463 54.4513 103.455 54.3347 103.437C54.218 103.419 54.1065 103.402 54.0101 103.375V104.94ZM54.0101 103.151C54.0913 103.177 54.1825 103.199 54.284 103.208C54.3854 103.217 54.497 103.221 54.6187 103.221C54.7962 103.221 54.9433 103.195 55.0701 103.142C55.1969 103.089 55.2983 103.018 55.3795 102.93C55.4606 102.842 55.5215 102.75 55.557 102.644C55.5925 102.538 55.6128 102.432 55.6128 102.331C55.6128 102.221 55.5925 102.115 55.5519 102.005C55.5114 101.895 55.4505 101.798 55.3694 101.709C55.2882 101.621 55.1868 101.551 55.06 101.498C54.9332 101.445 54.7912 101.414 54.6289 101.414H54.0152V103.151H54.0101Z" fill="white"/>
<path d="M60.9998 103.834L60.4875 104.94H60.2188L61.9483 101.181H62.2424L64.1495 104.94H63.5814L63.0184 103.834H60.9998ZM61.9787 101.78H61.9533L61.1114 103.591H62.8916L61.9787 101.78Z" fill="white"/>
</svg>
