<svg width="43" height="43" viewBox="0 0 43 43" fill="none" xmlns="http://www.w3.org/2000/svg">
<circle cx="21.5" cy="21.5" r="21" stroke="white"/>
<g clip-path="url(#clip0)">
<path d="M8.875 30.167H17.149C22.4597 30.167 24.3018 23.1238 19.6072 20.5968C22.7583 17.8505 20.8077 12.667 16.5797 12.667H8.875C8.392 12.667 8 13.059 8 13.542V29.292C8 29.775 8.392 30.167 8.875 30.167ZM9.75 14.417H16.5797C20.3258 14.417 20.3305 19.9797 16.5797 19.9797H9.75V14.417ZM9.75 21.7297H17.149C21.6535 21.7297 21.6535 28.417 17.149 28.417H9.75V21.7297Z" fill="white"/>
<path d="M29.4366 17.166C25.6344 17.166 22.7224 20.5353 22.8624 23.1848C22.5743 27.0115 25.6589 30.1662 29.4366 30.1662C31.7839 30.1662 33.9726 28.9237 35.1474 26.9217C35.7343 25.9218 34.2246 25.0398 33.6389 26.035C32.7768 27.5038 31.1656 28.4162 29.4366 28.4162C26.8851 28.4162 24.8108 26.4702 24.6241 24.0167C26.3076 24.0365 29.4494 23.7973 35.1089 23.9782C35.1276 23.9782 35.1404 23.9688 35.1579 23.9688C37.4913 23.8638 34.9374 17.166 29.4366 17.166ZM24.8539 22.1803C26.3543 17.7598 32.6916 17.8917 34.0589 22.255C29.3176 22.3682 26.4803 22.178 24.8539 22.1803Z" fill="white"/>
<path d="M32.8593 15.541C34.0178 15.541 34.0167 13.791 32.8593 13.791H26.011C24.8525 13.791 24.8537 15.541 26.011 15.541H32.8593Z" fill="white"/>
</g>
<defs>
<clipPath id="clip0">
<rect width="28" height="28" fill="white" transform="translate(8 8)"/>
</clipPath>
</defs>
</svg>
