<svg width="43" height="43" viewBox="0 0 43 43" fill="none" xmlns="http://www.w3.org/2000/svg">
<g clip-path="url(#clip0)">
<path d="M23.552 29.0883C28.277 30.213 29.9395 26.1717 29.1065 24.6632C28.7728 24.0612 25.7745 22.905 25.6287 22.849C24.3407 22.38 23.8647 23.255 22.9722 24.4065C21.2583 23.549 20.1092 22.8735 18.9285 20.9532C18.995 20.8703 19.0837 20.7723 19.1502 20.6977C19.5632 20.2357 20.3367 19.3747 19.8093 18.3212C19.366 17.438 19.1455 16.822 18.9833 16.3705C18.5132 15.0627 18.155 14.708 16.5357 14.708C14.8498 14.708 13.542 16.9235 13.542 18.831C13.542 22.9948 19.1397 28.0348 23.552 29.0883ZM16.5357 16.458C16.8857 16.458 17.063 16.4697 17.1517 16.4837C17.3407 16.8838 17.532 17.7192 18.2367 19.0188C18.127 19.4283 16.5695 20.3885 17.2917 21.6298C18.7675 24.1358 20.2445 25.005 22.3608 26.0573C23.7702 26.6943 24.2205 25.5405 25.1142 24.5267C25.5283 24.6947 26.926 25.313 27.5397 25.6233C27.4848 26.832 26.3182 27.9473 23.958 27.385C19.9073 26.4178 15.2908 21.8608 15.2908 18.8298C15.292 17.6772 16.1005 16.458 16.5357 16.458Z" fill="white"/>
<path d="M8.09724 34.9326C7.94441 35.4856 8.35857 36.0398 8.94074 36.0398C9.15074 36.0398 8.80774 36.0935 15.7634 34.2898C18.5949 35.7318 20.7474 35.6863 22.1217 35.8158C34.4359 35.8158 40.4676 20.7973 31.9929 12.059C20.3764 0.83097 2.28491 14.7843 9.85541 28.5405L8.09724 34.9326ZM30.5999 13.1486C30.8017 13.5173 36.5907 18.7381 33.3672 26.5396C31.3827 31.3463 26.8036 34.3085 21.6726 34.0308C17.4982 33.7986 16.4179 32.3076 15.6491 32.5118L10.1856 33.9351L11.6381 28.6571C11.7011 28.4308 11.6696 28.1893 11.5529 27.9863C4.57274 15.9416 20.3566 3.55747 30.5999 13.1486Z" fill="white"/>
</g>
<circle cx="21.5" cy="21.5" r="21" stroke="white"/>
<defs>
<clipPath id="clip0">
<rect width="28" height="28" fill="white" transform="translate(8 8)"/>
</clipPath>
</defs>
</svg>
