<svg width="20" height="20" viewBox="0 0 20 20" fill="none" xmlns="http://www.w3.org/2000/svg">
<path d="M19.92 8.7459C19.8542 8.2434 19.57 7.80758 19.1392 7.54758C18.715 7.29176 18.2067 7.2459 17.7325 7.42258C17.3492 7.56758 16.9092 7.3684 16.7325 6.9734C16.5292 6.52008 16.28 6.0859 15.99 5.68258C15.7317 5.32426 15.78 4.85426 16.1017 4.58926C16.485 4.27426 16.6992 3.80844 16.6892 3.31258C16.6792 2.8084 16.4409 2.34426 16.0375 2.03758C15.3725 1.5334 14.6475 1.11508 13.8817 0.792581C13.4109 0.594261 12.8884 0.621761 12.4467 0.865081C12.0125 1.10508 11.7175 1.52176 11.6359 2.0109C11.5667 2.4234 11.185 2.69922 10.74 2.6534C10.2534 2.60172 9.74672 2.60172 9.26086 2.6534C8.82004 2.70008 8.43418 2.4234 8.36504 2.0109C8.28336 1.52172 7.98836 1.10422 7.55422 0.865081C7.11172 0.620901 6.5884 0.594261 6.11922 0.792581C5.35254 1.11508 4.62754 1.5334 3.96254 2.03758C3.55918 2.34422 3.32168 2.8084 3.31168 3.31172C3.30168 3.8084 3.51586 4.2734 3.9 4.5909C4.22082 4.85508 4.26918 5.32508 4.01168 5.6834C3.72086 6.08672 3.47168 6.5209 3.26836 6.97422C3.09254 7.37004 2.65168 7.5684 2.25918 7.42004C1.79586 7.24754 1.28668 7.29336 0.86168 7.54836C0.43 7.80754 0.145859 8.24418 0.0808594 8.74668C0.0275 9.16004 0 9.58254 0 10C0 10.4175 0.0275 10.84 0.08 11.2542C0.14582 11.7567 0.43 12.1925 0.86082 12.4525C1.285 12.7075 1.7925 12.7542 2.2675 12.5775C2.65 12.4317 3.09 12.6309 3.2675 13.0267C3.47082 13.48 3.72 13.9142 4.01 14.3175C4.26832 14.6759 4.22 15.1459 3.89832 15.4109C3.515 15.7259 3.30082 16.1917 3.31082 16.6875C3.32082 17.1917 3.55914 17.6559 3.9625 17.9625C4.6275 18.4667 5.3525 18.885 6.11832 19.2075C6.58914 19.4059 7.11082 19.3784 7.55332 19.135C7.9875 18.895 8.2825 18.4784 8.36414 17.9892C8.43332 17.5767 8.81832 17.3009 9.25996 17.3467C9.74578 17.3984 10.2525 17.3984 10.7391 17.3467C11.185 17.3025 11.5658 17.5767 11.635 17.9892C11.7166 18.4784 12.0116 18.8959 12.4458 19.135C12.6925 19.2709 12.9625 19.3392 13.2358 19.3392C13.4541 19.3392 13.6725 19.295 13.88 19.2075C14.6458 18.885 15.3708 18.4659 16.0358 17.9625C16.44 17.6567 16.6775 17.1917 16.6875 16.6884C16.6975 16.1917 16.4833 15.7259 16.1 15.41C15.7791 15.1459 15.7308 14.6759 15.9883 14.3175C16.2791 13.9142 16.5283 13.48 16.7316 13.0267C16.9083 12.6309 17.3499 12.4334 17.7316 12.5775L17.7408 12.5809C18.2058 12.755 18.7141 12.7075 19.1383 12.4525C19.57 12.1925 19.8541 11.7567 19.9191 11.2534C19.9724 10.8359 19.9999 10.415 19.9999 10C20 9.58504 19.9725 9.16422 19.92 8.7459ZM19.0925 11.1475C19.0608 11.395 18.9208 11.6109 18.7092 11.7384C18.505 11.8625 18.2584 11.8842 18.025 11.7967L18.02 11.795C17.225 11.5008 16.3275 11.8917 15.9717 12.6867C15.7917 13.0884 15.57 13.4742 15.3125 13.8317C14.795 14.5517 14.9067 15.5075 15.5717 16.0542C15.7567 16.2067 15.86 16.4317 15.855 16.6717C15.85 16.9192 15.7333 17.1475 15.5333 17.2992C14.925 17.7609 14.26 18.145 13.5575 18.44C13.325 18.5383 13.065 18.525 12.8483 18.4058C12.6391 18.29 12.4966 18.0891 12.4575 17.8533C12.325 17.0608 11.6467 16.5091 10.8408 16.5091C10.7791 16.5091 10.7158 16.5116 10.6525 16.5166C10.2233 16.5616 9.77668 16.5616 9.3475 16.5166C8.46082 16.4158 7.685 16.9975 7.5425 17.8508C7.50332 18.0866 7.36082 18.2883 7.15168 18.4033C6.93418 18.5233 6.675 18.5358 6.44168 18.4375C5.73918 18.1417 5.07418 17.7583 4.46586 17.2967C4.26586 17.1459 4.14918 16.9167 4.14418 16.67C4.13918 16.43 4.2425 16.205 4.42836 16.0525C5.09336 15.5058 5.20418 14.55 4.68668 13.83C4.42918 13.4717 4.20836 13.0867 4.02836 12.685C3.67168 11.8883 2.77086 11.4992 1.96504 11.7992C1.74254 11.8825 1.49504 11.8617 1.29086 11.7375C1.07918 11.6108 0.93918 11.395 0.907539 11.1467C0.858359 10.7684 0.833359 10.3817 0.833359 10C0.833359 9.61832 0.858359 9.23168 0.908359 8.8525C0.940039 8.605 1.08004 8.38918 1.29168 8.26168C1.495 8.13836 1.7425 8.11586 1.975 8.20336C2.77082 8.50004 3.67168 8.11086 4.02832 7.31336C4.20832 6.91168 4.43 6.52668 4.6875 6.16918C5.205 5.44918 5.09332 4.49336 4.42832 3.94668C4.24332 3.79418 4.14 3.56918 4.145 3.32918C4.15 3.08168 4.26668 2.85336 4.46668 2.70168C5.075 2.24 5.74 1.85668 6.4425 1.56086C6.675 1.46254 6.93418 1.47504 7.15168 1.59504C7.36086 1.71004 7.50336 1.91172 7.5425 2.14836C7.685 3.00168 8.46082 3.57754 9.3475 3.48254C9.77582 3.43754 10.2225 3.43754 10.6525 3.48254C11.5342 3.57672 12.315 3.00172 12.4575 2.14836C12.4967 1.91254 12.6392 1.71086 12.8483 1.59586C13.0658 1.47504 13.3241 1.46254 13.5583 1.56168C14.2608 1.8575 14.9258 2.24086 15.5341 2.7025C15.7341 2.85332 15.8508 3.0825 15.8558 3.32918C15.8608 3.56918 15.7575 3.79418 15.5716 3.94668C14.9066 4.49336 14.7958 5.44918 15.3133 6.16918C15.5708 6.5275 15.7916 6.9125 15.9716 7.31418C16.3283 8.11086 17.23 8.50086 18.035 8.2C18.2583 8.11582 18.5041 8.13832 18.7091 8.26168C18.9208 8.38918 19.0608 8.605 19.0925 8.8525C19.1416 9.235 19.1666 9.62082 19.1666 10C19.1667 10.3792 19.1417 10.765 19.0925 11.1475Z" fill="white"/>
<path d="M9.99994 5.8334C7.70243 5.8334 5.83325 7.70258 5.83325 10.0001C5.83325 12.2976 7.70243 14.1667 9.99994 14.1667C12.2974 14.1667 14.1666 12.2975 14.1666 10C14.1666 7.70255 12.2974 5.8334 9.99994 5.8334ZM9.99994 13.3334C8.16161 13.3334 6.66661 11.8384 6.66661 10.0001C6.66661 8.16176 8.16161 6.66676 9.99994 6.66676C11.8383 6.66676 13.3333 8.16176 13.3333 10.0001C13.3333 11.8384 11.8383 13.3334 9.99994 13.3334Z" fill="white"/>
</svg>
