<svg width="20" height="20" viewBox="0 0 20 20" fill="none" xmlns="http://www.w3.org/2000/svg">
<g clip-path="url(#clip0)">
<path d="M17.9167 3.33331H2.08332C0.935 3.33331 0 4.26831 0 5.41667V14.5834C0 15.7317 0.935 16.6667 2.08332 16.6667H17.9166C19.065 16.6667 20 15.7317 20 14.5834V5.41667C20 4.26831 19.065 3.33331 17.9167 3.33331ZM19.1667 14.5833C19.1667 15.2725 18.6059 15.8333 17.9167 15.8333H2.08332C1.39414 15.8333 0.83332 15.2725 0.83332 14.5833V5.41667C0.83332 4.72749 1.39414 4.16667 2.08332 4.16667H17.9166C18.6058 4.16667 19.1666 4.72749 19.1666 5.41667V14.5833H19.1667Z" fill="white"/>
<path d="M19.5833 5.83331H0.41668C0.18668 5.83331 0 6.01999 0 6.24999V8.74999C0 8.97999 0.18668 9.16667 0.41668 9.16667H19.5834C19.8134 9.16667 20 8.97999 20 8.74999V6.24999C20 6.01999 19.8133 5.83331 19.5833 5.83331ZM19.1667 8.33331H0.83332V6.66663H19.1666V8.33331H19.1667Z" fill="white"/>
<path d="M7.91668 11.6667H2.91668C2.68668 11.6667 2.5 11.8534 2.5 12.0834C2.5 12.3134 2.68668 12.5 2.91668 12.5H7.91668C8.14668 12.5 8.33336 12.3133 8.33336 12.0833C8.33336 11.8533 8.14668 11.6667 7.91668 11.6667Z" fill="white"/>
<path d="M7.91668 13.3333H2.91668C2.68668 13.3333 2.5 13.52 2.5 13.75C2.5 13.98 2.68668 14.1667 2.91668 14.1667H7.91668C8.14668 14.1667 8.33336 13.98 8.33336 13.75C8.33332 13.52 8.14668 13.3333 7.91668 13.3333Z" fill="white"/>
<path d="M16.2501 10.8333H15.4167C14.7276 10.8333 14.1667 11.3941 14.1667 12.0833V12.9166C14.1667 13.6058 14.7276 14.1666 15.4167 14.1666H16.2501C16.9392 14.1666 17.5001 13.6058 17.5001 12.9166V12.0833C17.5001 11.3942 16.9392 10.8333 16.2501 10.8333ZM16.6667 12.9167C16.6667 13.1467 16.4801 13.3334 16.2501 13.3334H15.4167C15.1867 13.3334 15.0001 13.1467 15.0001 12.9167V12.0834C15.0001 11.8534 15.1867 11.6667 15.4167 11.6667H16.2501C16.4801 11.6667 16.6667 11.8534 16.6667 12.0834V12.9167Z" fill="white"/>
</g>
<defs>
<clipPath id="clip0">
<rect width="20" height="20" fill="white"/>
</clipPath>
</defs>
</svg>
