<svg width="100" height="100" viewBox="0 0 100 100" fill="none" xmlns="http://www.w3.org/2000/svg">
<path d="M96.875 62.499C95.15 62.499 93.75 63.899 93.75 65.624V87.499H6.25V49.999H40.625C42.35 49.999 43.75 48.599 43.75 46.874C43.75 45.149 42.35 43.749 40.625 43.749H6.25V31.249H40.625C42.35 31.249 43.75 29.849 43.75 28.124C43.75 26.399 42.35 24.999 40.625 24.999H6.25C2.8 24.999 0 27.799 0 31.249V87.499C0 90.949 2.8 93.749 6.25 93.749H93.75C97.2 93.749 100 90.949 100 87.499V65.624C100 63.899 98.6 62.499 96.875 62.499Z" fill="url(#paint0_linear)"/>
<path d="M28.125 62.499H15.625C13.9 62.499 12.5 63.899 12.5 65.624C12.5 67.349 13.9 68.749 15.625 68.749H28.125C29.85 68.749 31.25 67.349 31.25 65.624C31.25 63.899 29.85 62.499 28.125 62.499Z" fill="url(#paint1_linear)"/>
<path d="M98.1062 15.8744L76.2312 6.49941C75.4375 6.16816 74.5562 6.16816 73.7625 6.49941L51.8875 15.8744C50.7438 16.3682 50 17.4994 50 18.7494V31.2494C50 48.4432 56.3563 58.4932 73.4438 68.3369C73.925 68.6119 74.4625 68.7494 75 68.7494C75.5375 68.7494 76.075 68.6119 76.5562 68.3369C93.6437 58.5182 100 48.4682 100 31.2494V18.7494C100 17.4994 99.2562 16.3682 98.1062 15.8744ZM93.75 31.2494C93.75 45.6807 88.975 53.6244 75 61.9994C61.025 53.6057 56.25 45.6619 56.25 31.2494V20.8119L75 12.7744L93.75 20.8119V31.2494Z" fill="url(#paint2_linear)"/>
<path d="M86.331 25.6802C84.9873 24.6177 83.0248 24.824 81.9373 26.1677L72.1123 38.4552L68.2248 32.6427C67.256 31.2052 65.3123 30.824 63.8935 31.774C62.4623 32.7302 62.0685 34.674 63.0248 36.1052L69.2748 45.4802C69.831 46.3115 70.7435 46.824 71.7435 46.874C71.7873 46.874 71.8373 46.874 71.8748 46.874C72.8185 46.874 73.7185 46.449 74.3185 45.699L86.8185 30.074C87.8935 28.724 87.681 26.7615 86.331 25.6802Z" fill="url(#paint3_linear)"/>
<defs>
<linearGradient id="paint0_linear" x1="50" y1="24.999" x2="50" y2="93.749" gradientUnits="userSpaceOnUse">
<stop stop-color="#219CF9"/>
<stop offset="1" stop-color="#4E50EA"/>
</linearGradient>
<linearGradient id="paint1_linear" x1="21.875" y1="62.499" x2="21.875" y2="68.749" gradientUnits="userSpaceOnUse">
<stop stop-color="#219CF9"/>
<stop offset="1" stop-color="#4E50EA"/>
</linearGradient>
<linearGradient id="paint2_linear" x1="75" y1="6.25098" x2="75" y2="68.7494" gradientUnits="userSpaceOnUse">
<stop stop-color="#219CF9"/>
<stop offset="1" stop-color="#4E50EA"/>
</linearGradient>
<linearGradient id="paint3_linear" x1="75.0025" y1="25.0029" x2="75.0025" y2="46.874" gradientUnits="userSpaceOnUse">
<stop stop-color="#219CF9"/>
<stop offset="1" stop-color="#4E50EA"/>
</linearGradient>
</defs>
</svg>
