<svg width="610" height="418" viewBox="0 0 610 418" fill="none" xmlns="http://www.w3.org/2000/svg">
<g filter="url(#filter0_d)">
<rect x="4" width="602" height="410" fill="#2A2B2F"/>
</g>
<path d="M107.8 58.5203L102.136 75.3203H100.264L95.344 60.9923L90.4 75.3203H88.552L82.888 58.5203H84.712L89.56 72.9683L94.576 58.5203H96.232L101.176 73.0403L106.096 58.5203H107.8ZM121.077 70.8323H111.717L109.701 75.3203H107.853L115.533 58.5203H117.285L124.965 75.3203H123.093L121.077 70.8323ZM120.429 69.3923L116.397 60.3683L112.365 69.3923H120.429ZM127.744 58.5203H129.52V73.7843H138.928V75.3203H127.744V58.5203ZM141.877 58.5203H143.653V73.7843H153.061V75.3203H141.877V58.5203ZM166.923 75.4643C165.675 75.4643 164.475 75.2643 163.323 74.8643C162.187 74.4643 161.307 73.9363 160.683 73.2803L161.379 71.9123C161.987 72.5203 162.795 73.0163 163.803 73.4003C164.811 73.7683 165.851 73.9523 166.923 73.9523C168.427 73.9523 169.555 73.6803 170.307 73.1363C171.059 72.5763 171.435 71.8563 171.435 70.9763C171.435 70.3043 171.227 69.7683 170.811 69.3683C170.411 68.9683 169.915 68.6643 169.323 68.4563C168.731 68.2323 167.907 67.9923 166.851 67.7363C165.587 67.4163 164.579 67.1123 163.827 66.8243C163.075 66.5203 162.427 66.0643 161.883 65.4563C161.355 64.8483 161.091 64.0243 161.091 62.9843C161.091 62.1363 161.315 61.3683 161.763 60.6803C162.211 59.9763 162.899 59.4163 163.827 59.0003C164.755 58.5843 165.907 58.3763 167.283 58.3763C168.243 58.3763 169.179 58.5123 170.091 58.7843C171.019 59.0403 171.819 59.4003 172.491 59.8643L171.891 61.2803C171.187 60.8163 170.435 60.4723 169.635 60.2483C168.835 60.0083 168.051 59.8883 167.283 59.8883C165.811 59.8883 164.699 60.1763 163.947 60.7523C163.211 61.3123 162.843 62.0403 162.843 62.9363C162.843 63.6083 163.043 64.1523 163.443 64.5683C163.859 64.9683 164.371 65.2803 164.979 65.5043C165.603 65.7123 166.435 65.9443 167.475 66.2003C168.707 66.5043 169.699 66.8083 170.451 67.1123C171.219 67.4003 171.867 67.8483 172.395 68.4563C172.923 69.0483 173.187 69.8563 173.187 70.8803C173.187 71.7283 172.955 72.5043 172.491 73.2083C172.043 73.8963 171.347 74.4483 170.403 74.8643C169.459 75.2643 168.299 75.4643 166.923 75.4643ZM180.086 60.0563H174.182V58.5203H187.766V60.0563H181.862V75.3203H180.086V60.0563ZM202.075 75.3203L198.235 69.9203C197.803 69.9683 197.355 69.9923 196.891 69.9923H192.379V75.3203H190.603V58.5203H196.891C199.035 58.5203 200.715 59.0323 201.931 60.0563C203.147 61.0803 203.755 62.4883 203.755 64.2803C203.755 65.5923 203.419 66.7043 202.747 67.6163C202.091 68.5123 201.147 69.1603 199.915 69.5603L204.019 75.3203H202.075ZM196.843 68.4803C198.507 68.4803 199.779 68.1123 200.659 67.3763C201.539 66.6403 201.979 65.6083 201.979 64.2803C201.979 62.9203 201.539 61.8803 200.659 61.1603C199.779 60.4243 198.507 60.0563 196.843 60.0563H192.379V68.4803H196.843ZM219.827 73.7843V75.3203H207.947V58.5203H219.467V60.0563H209.723V66.0323H218.411V67.5443H209.723V73.7843H219.827ZM235.882 73.7843V75.3203H224.002V58.5203H235.522V60.0563H225.778V66.0323H234.466V67.5443H225.778V73.7843H235.882ZM243.32 60.0563H237.416V58.5203H251V60.0563H245.096V75.3203H243.32V60.0563ZM270.703 66.6563C271.807 66.8963 272.655 67.3763 273.247 68.0963C273.855 68.8003 274.159 69.7123 274.159 70.8323C274.159 72.2723 273.623 73.3843 272.551 74.1683C271.495 74.9363 269.927 75.3203 267.847 75.3203H260.119V58.5203H267.367C269.239 58.5203 270.687 58.8963 271.711 59.6483C272.751 60.4003 273.271 61.4643 273.271 62.8403C273.271 63.7683 273.039 64.5603 272.575 65.2163C272.127 65.8563 271.503 66.3363 270.703 66.6563ZM261.895 59.9843V66.0803H267.247C268.607 66.0803 269.655 65.8243 270.391 65.3123C271.127 64.7843 271.495 64.0243 271.495 63.0323C271.495 62.0403 271.127 61.2883 270.391 60.7763C269.655 60.2483 268.607 59.9843 267.247 59.9843H261.895ZM267.823 73.8563C269.327 73.8563 270.463 73.6003 271.231 73.0883C271.999 72.5763 272.383 71.7763 272.383 70.6883C272.383 68.5923 270.863 67.5443 267.823 67.5443H261.895V73.8563H267.823ZM285.557 75.4643C283.893 75.4643 282.381 75.0963 281.021 74.3603C279.677 73.6083 278.621 72.5843 277.853 71.2883C277.101 69.9923 276.725 68.5363 276.725 66.9203C276.725 65.3043 277.101 63.8483 277.853 62.5523C278.621 61.2563 279.677 60.2403 281.021 59.5043C282.381 58.7523 283.893 58.3763 285.557 58.3763C287.221 58.3763 288.717 58.7443 290.045 59.4803C291.389 60.2163 292.445 61.2403 293.213 62.5523C293.981 63.8483 294.365 65.3043 294.365 66.9203C294.365 68.5363 293.981 70.0003 293.213 71.3123C292.445 72.6083 291.389 73.6243 290.045 74.3603C288.717 75.0963 287.221 75.4643 285.557 75.4643ZM285.557 73.8803C286.885 73.8803 288.085 73.5843 289.157 72.9923C290.229 72.3843 291.069 71.5523 291.677 70.4963C292.285 69.4243 292.589 68.2323 292.589 66.9203C292.589 65.6083 292.285 64.4243 291.677 63.3683C291.069 62.2963 290.229 61.4643 289.157 60.8723C288.085 60.2643 286.885 59.9603 285.557 59.9603C284.229 59.9603 283.021 60.2643 281.933 60.8723C280.861 61.4643 280.013 62.2963 279.389 63.3683C278.781 64.4243 278.477 65.6083 278.477 66.9203C278.477 68.2323 278.781 69.4243 279.389 70.4963C280.013 71.5523 280.861 72.3843 281.933 72.9923C283.021 73.5843 284.229 73.8803 285.557 73.8803ZM301.375 60.0563H295.471V58.5203H309.055V60.0563H303.151V75.3203H301.375V60.0563ZM309.823 68.0723H316.111V69.5603H309.823V68.0723ZM322.059 60.0563V66.6563H330.747V68.1923H322.059V75.3203H320.283V58.5203H331.803V60.0563H322.059ZM335.47 58.5203H337.246V75.3203H335.47V58.5203ZM356.753 58.5203V75.3203H355.289L344.489 61.6883V75.3203H342.713V58.5203H344.177L355.001 72.1523V58.5203H356.753ZM374.116 73.7843V75.3203H362.236V58.5203H373.756V60.0563H364.012V66.0323H372.7V67.5443H364.012V73.7843H374.116ZM388.616 75.3203L383.192 67.9283L377.792 75.3203H375.752L382.136 66.6803L376.16 58.5203H378.2L383.264 65.3843L388.304 58.5203H390.224L384.272 66.6323L390.68 75.3203H388.616Z" fill="white"/>
<path d="M107.8 159.355L102.136 176.155H100.264L95.344 161.827L90.4 176.155H88.552L82.888 159.355H84.712L89.56 173.803L94.576 159.355H96.232L101.176 173.875L106.096 159.355H107.8ZM121.077 171.667H111.717L109.701 176.155H107.853L115.533 159.355H117.285L124.965 176.155H123.093L121.077 171.667ZM120.429 170.227L116.397 161.203L112.365 170.227H120.429ZM127.744 159.355H129.52V174.619H138.928V176.155H127.744V159.355ZM141.877 159.355H143.653V174.619H153.061V176.155H141.877V159.355ZM166.923 176.299C165.675 176.299 164.475 176.099 163.323 175.699C162.187 175.299 161.307 174.771 160.683 174.115L161.379 172.747C161.987 173.355 162.795 173.851 163.803 174.235C164.811 174.603 165.851 174.787 166.923 174.787C168.427 174.787 169.555 174.515 170.307 173.971C171.059 173.411 171.435 172.691 171.435 171.811C171.435 171.139 171.227 170.603 170.811 170.203C170.411 169.803 169.915 169.499 169.323 169.291C168.731 169.067 167.907 168.827 166.851 168.571C165.587 168.251 164.579 167.947 163.827 167.659C163.075 167.355 162.427 166.899 161.883 166.291C161.355 165.683 161.091 164.859 161.091 163.819C161.091 162.971 161.315 162.203 161.763 161.515C162.211 160.811 162.899 160.251 163.827 159.835C164.755 159.419 165.907 159.211 167.283 159.211C168.243 159.211 169.179 159.347 170.091 159.619C171.019 159.875 171.819 160.235 172.491 160.699L171.891 162.115C171.187 161.651 170.435 161.307 169.635 161.083C168.835 160.843 168.051 160.723 167.283 160.723C165.811 160.723 164.699 161.011 163.947 161.587C163.211 162.147 162.843 162.875 162.843 163.771C162.843 164.443 163.043 164.987 163.443 165.403C163.859 165.803 164.371 166.115 164.979 166.339C165.603 166.547 166.435 166.779 167.475 167.035C168.707 167.339 169.699 167.643 170.451 167.947C171.219 168.235 171.867 168.683 172.395 169.291C172.923 169.883 173.187 170.691 173.187 171.715C173.187 172.563 172.955 173.339 172.491 174.043C172.043 174.731 171.347 175.283 170.403 175.699C169.459 176.099 168.299 176.299 166.923 176.299ZM180.086 160.891H174.182V159.355H187.766V160.891H181.862V176.155H180.086V160.891ZM202.075 176.155L198.235 170.755C197.803 170.803 197.355 170.827 196.891 170.827H192.379V176.155H190.603V159.355H196.891C199.035 159.355 200.715 159.867 201.931 160.891C203.147 161.915 203.755 163.323 203.755 165.115C203.755 166.427 203.419 167.539 202.747 168.451C202.091 169.347 201.147 169.995 199.915 170.395L204.019 176.155H202.075ZM196.843 169.315C198.507 169.315 199.779 168.947 200.659 168.211C201.539 167.475 201.979 166.443 201.979 165.115C201.979 163.755 201.539 162.715 200.659 161.995C199.779 161.259 198.507 160.891 196.843 160.891H192.379V169.315H196.843ZM219.827 174.619V176.155H207.947V159.355H219.467V160.891H209.723V166.867H218.411V168.379H209.723V174.619H219.827ZM235.882 174.619V176.155H224.002V159.355H235.522V160.891H225.778V166.867H234.466V168.379H225.778V174.619H235.882ZM243.32 160.891H237.416V159.355H251V160.891H245.096V176.155H243.32V160.891ZM270.703 167.491C271.807 167.731 272.655 168.211 273.247 168.931C273.855 169.635 274.159 170.547 274.159 171.667C274.159 173.107 273.623 174.219 272.551 175.003C271.495 175.771 269.927 176.155 267.847 176.155H260.119V159.355H267.367C269.239 159.355 270.687 159.731 271.711 160.483C272.751 161.235 273.271 162.299 273.271 163.675C273.271 164.603 273.039 165.395 272.575 166.051C272.127 166.691 271.503 167.171 270.703 167.491ZM261.895 160.819V166.915H267.247C268.607 166.915 269.655 166.659 270.391 166.147C271.127 165.619 271.495 164.859 271.495 163.867C271.495 162.875 271.127 162.123 270.391 161.611C269.655 161.083 268.607 160.819 267.247 160.819H261.895ZM267.823 174.691C269.327 174.691 270.463 174.435 271.231 173.923C271.999 173.411 272.383 172.611 272.383 171.523C272.383 169.427 270.863 168.379 267.823 168.379H261.895V174.691H267.823ZM285.557 176.299C283.893 176.299 282.381 175.931 281.021 175.195C279.677 174.443 278.621 173.419 277.853 172.123C277.101 170.827 276.725 169.371 276.725 167.755C276.725 166.139 277.101 164.683 277.853 163.387C278.621 162.091 279.677 161.075 281.021 160.339C282.381 159.587 283.893 159.211 285.557 159.211C287.221 159.211 288.717 159.579 290.045 160.315C291.389 161.051 292.445 162.075 293.213 163.387C293.981 164.683 294.365 166.139 294.365 167.755C294.365 169.371 293.981 170.835 293.213 172.147C292.445 173.443 291.389 174.459 290.045 175.195C288.717 175.931 287.221 176.299 285.557 176.299ZM285.557 174.715C286.885 174.715 288.085 174.419 289.157 173.827C290.229 173.219 291.069 172.387 291.677 171.331C292.285 170.259 292.589 169.067 292.589 167.755C292.589 166.443 292.285 165.259 291.677 164.203C291.069 163.131 290.229 162.299 289.157 161.707C288.085 161.099 286.885 160.795 285.557 160.795C284.229 160.795 283.021 161.099 281.933 161.707C280.861 162.299 280.013 163.131 279.389 164.203C278.781 165.259 278.477 166.443 278.477 167.755C278.477 169.067 278.781 170.259 279.389 171.331C280.013 172.387 280.861 173.219 281.933 173.827C283.021 174.419 284.229 174.715 285.557 174.715ZM301.375 160.891H295.471V159.355H309.055V160.891H303.151V176.155H301.375V160.891ZM309.823 168.907H316.111V170.395H309.823V168.907ZM322.059 160.891V167.491H330.747V169.027H322.059V176.155H320.283V159.355H331.803V160.891H322.059ZM335.47 159.355H337.246V176.155H335.47V159.355ZM356.753 159.355V176.155H355.289L344.489 162.523V176.155H342.713V159.355H344.177L355.001 172.987V159.355H356.753ZM374.116 174.619V176.155H362.236V159.355H373.756V160.891H364.012V166.867H372.7V168.379H364.012V174.619H374.116ZM388.616 176.155L383.192 168.763L377.792 176.155H375.752L382.136 167.515L376.16 159.355H378.2L383.264 166.219L388.304 159.355H390.224L384.272 167.467L390.68 176.155H388.616Z" fill="white"/>
<path d="M107.8 266.849L102.136 283.649H100.264L95.344 269.321L90.4 283.649H88.552L82.888 266.849H84.712L89.56 281.297L94.576 266.849H96.232L101.176 281.369L106.096 266.849H107.8ZM121.077 279.161H111.717L109.701 283.649H107.853L115.533 266.849H117.285L124.965 283.649H123.093L121.077 279.161ZM120.429 277.721L116.397 268.697L112.365 277.721H120.429ZM127.744 266.849H129.52V282.113H138.928V283.649H127.744V266.849ZM141.877 266.849H143.653V282.113H153.061V283.649H141.877V266.849ZM166.923 283.793C165.675 283.793 164.475 283.593 163.323 283.193C162.187 282.793 161.307 282.265 160.683 281.609L161.379 280.241C161.987 280.849 162.795 281.345 163.803 281.729C164.811 282.097 165.851 282.281 166.923 282.281C168.427 282.281 169.555 282.009 170.307 281.465C171.059 280.905 171.435 280.185 171.435 279.305C171.435 278.633 171.227 278.097 170.811 277.697C170.411 277.297 169.915 276.993 169.323 276.785C168.731 276.561 167.907 276.321 166.851 276.065C165.587 275.745 164.579 275.441 163.827 275.153C163.075 274.849 162.427 274.393 161.883 273.785C161.355 273.177 161.091 272.353 161.091 271.313C161.091 270.465 161.315 269.697 161.763 269.009C162.211 268.305 162.899 267.745 163.827 267.329C164.755 266.913 165.907 266.705 167.283 266.705C168.243 266.705 169.179 266.841 170.091 267.113C171.019 267.369 171.819 267.729 172.491 268.193L171.891 269.609C171.187 269.145 170.435 268.801 169.635 268.577C168.835 268.337 168.051 268.217 167.283 268.217C165.811 268.217 164.699 268.505 163.947 269.081C163.211 269.641 162.843 270.369 162.843 271.265C162.843 271.937 163.043 272.481 163.443 272.897C163.859 273.297 164.371 273.609 164.979 273.833C165.603 274.041 166.435 274.273 167.475 274.529C168.707 274.833 169.699 275.137 170.451 275.441C171.219 275.729 171.867 276.177 172.395 276.785C172.923 277.377 173.187 278.185 173.187 279.209C173.187 280.057 172.955 280.833 172.491 281.537C172.043 282.225 171.347 282.777 170.403 283.193C169.459 283.593 168.299 283.793 166.923 283.793ZM180.086 268.385H174.182V266.849H187.766V268.385H181.862V283.649H180.086V268.385ZM202.075 283.649L198.235 278.249C197.803 278.297 197.355 278.321 196.891 278.321H192.379V283.649H190.603V266.849H196.891C199.035 266.849 200.715 267.361 201.931 268.385C203.147 269.409 203.755 270.817 203.755 272.609C203.755 273.921 203.419 275.033 202.747 275.945C202.091 276.841 201.147 277.489 199.915 277.889L204.019 283.649H202.075ZM196.843 276.809C198.507 276.809 199.779 276.441 200.659 275.705C201.539 274.969 201.979 273.937 201.979 272.609C201.979 271.249 201.539 270.209 200.659 269.489C199.779 268.753 198.507 268.385 196.843 268.385H192.379V276.809H196.843ZM219.827 282.113V283.649H207.947V266.849H219.467V268.385H209.723V274.361H218.411V275.873H209.723V282.113H219.827ZM235.882 282.113V283.649H224.002V266.849H235.522V268.385H225.778V274.361H234.466V275.873H225.778V282.113H235.882ZM243.32 268.385H237.416V266.849H251V268.385H245.096V283.649H243.32V268.385ZM270.703 274.985C271.807 275.225 272.655 275.705 273.247 276.425C273.855 277.129 274.159 278.041 274.159 279.161C274.159 280.601 273.623 281.713 272.551 282.497C271.495 283.265 269.927 283.649 267.847 283.649H260.119V266.849H267.367C269.239 266.849 270.687 267.225 271.711 267.977C272.751 268.729 273.271 269.793 273.271 271.169C273.271 272.097 273.039 272.889 272.575 273.545C272.127 274.185 271.503 274.665 270.703 274.985ZM261.895 268.313V274.409H267.247C268.607 274.409 269.655 274.153 270.391 273.641C271.127 273.113 271.495 272.353 271.495 271.361C271.495 270.369 271.127 269.617 270.391 269.105C269.655 268.577 268.607 268.313 267.247 268.313H261.895ZM267.823 282.185C269.327 282.185 270.463 281.929 271.231 281.417C271.999 280.905 272.383 280.105 272.383 279.017C272.383 276.921 270.863 275.873 267.823 275.873H261.895V282.185H267.823ZM285.557 283.793C283.893 283.793 282.381 283.425 281.021 282.689C279.677 281.937 278.621 280.913 277.853 279.617C277.101 278.321 276.725 276.865 276.725 275.249C276.725 273.633 277.101 272.177 277.853 270.881C278.621 269.585 279.677 268.569 281.021 267.833C282.381 267.081 283.893 266.705 285.557 266.705C287.221 266.705 288.717 267.073 290.045 267.809C291.389 268.545 292.445 269.569 293.213 270.881C293.981 272.177 294.365 273.633 294.365 275.249C294.365 276.865 293.981 278.329 293.213 279.641C292.445 280.937 291.389 281.953 290.045 282.689C288.717 283.425 287.221 283.793 285.557 283.793ZM285.557 282.209C286.885 282.209 288.085 281.913 289.157 281.321C290.229 280.713 291.069 279.881 291.677 278.825C292.285 277.753 292.589 276.561 292.589 275.249C292.589 273.937 292.285 272.753 291.677 271.697C291.069 270.625 290.229 269.793 289.157 269.201C288.085 268.593 286.885 268.289 285.557 268.289C284.229 268.289 283.021 268.593 281.933 269.201C280.861 269.793 280.013 270.625 279.389 271.697C278.781 272.753 278.477 273.937 278.477 275.249C278.477 276.561 278.781 277.753 279.389 278.825C280.013 279.881 280.861 280.713 281.933 281.321C283.021 281.913 284.229 282.209 285.557 282.209ZM301.375 268.385H295.471V266.849H309.055V268.385H303.151V283.649H301.375V268.385ZM309.823 276.401H316.111V277.889H309.823V276.401ZM333.712 266.849L326.272 283.649H324.52L317.08 266.849H319L325.432 281.441L331.912 266.849H333.712ZM336.15 266.849H337.926V283.649H336.15V266.849ZM349.68 266.849C351.824 266.849 353.504 267.361 354.72 268.385C355.936 269.409 356.544 270.817 356.544 272.609C356.544 274.401 355.936 275.809 354.72 276.833C353.504 277.841 351.824 278.345 349.68 278.345H345.168V283.649H343.392V266.849H349.68ZM349.632 276.785C351.296 276.785 352.568 276.425 353.448 275.705C354.328 274.969 354.768 273.937 354.768 272.609C354.768 271.249 354.328 270.209 353.448 269.489C352.568 268.753 351.296 268.385 349.632 268.385H345.168V276.785H349.632ZM360.619 265.841H362.203V288.305H360.619V265.841ZM373.978 266.849H380.818C382.594 266.849 384.162 267.209 385.522 267.929C386.882 268.633 387.938 269.625 388.69 270.905C389.442 272.169 389.818 273.617 389.818 275.249C389.818 276.881 389.442 278.337 388.69 279.617C387.938 280.881 386.882 281.873 385.522 282.593C384.162 283.297 382.594 283.649 380.818 283.649H373.978V266.849ZM380.722 282.113C382.194 282.113 383.482 281.825 384.586 281.249C385.69 280.657 386.546 279.849 387.154 278.825C387.762 277.785 388.066 276.593 388.066 275.249C388.066 273.905 387.762 272.721 387.154 271.697C386.546 270.657 385.69 269.849 384.586 269.273C383.482 268.681 382.194 268.385 380.722 268.385H375.754V282.113H380.722ZM405.686 282.113V283.649H393.806V266.849H405.326V268.385H395.582V274.361H404.27V275.873H395.582V282.113H405.686ZM409.861 266.849H411.637V282.113H421.045V283.649H409.861V266.849ZM425.688 268.385H419.784V266.849H433.368V268.385H427.464V283.649H425.688V268.385ZM445.897 279.161H436.537L434.521 283.649H432.673L440.353 266.849H442.105L449.785 283.649H447.913L445.897 279.161ZM445.249 277.721L441.217 268.697L437.185 277.721H445.249Z" fill="white"/>
<rect x="85" y="101.786" width="376" height="23.7819" rx="11.891" fill="url(#paint0_linear)"/>
<rect x="85" y="202.622" width="376" height="23.7819" rx="11.891" fill="url(#paint1_linear)"/>
<rect x="85" y="316.775" width="376" height="23.7819" rx="11.891" fill="url(#paint2_linear)"/>
<rect x="85" y="101.786" width="282" height="23.7819" rx="11.891" fill="url(#paint3_linear)"/>
<rect x="85" y="202.622" width="229" height="20.9281" rx="10.464" fill="url(#paint4_linear)"/>
<rect x="85" y="316.775" width="174" height="19.0255" rx="9.51276" fill="url(#paint5_linear)"/>
<ellipse cx="358" cy="114.152" rx="20" ry="19.0255" fill="#323337"/>
<ellipse cx="309.5" cy="213.087" rx="16.5" ry="15.2204" fill="#323337"/>
<ellipse cx="257" cy="324.728" rx="16" ry="14.6116" fill="#323337"/>
<path d="M434.644 83.1551V83.8691L430.542 92.9551H429.45L433.482 84.0511H428.442V85.8851H427.448V83.1551H434.644ZM439.605 93.0391C438.849 93.0391 438.172 92.8384 437.575 92.4371C436.987 92.0357 436.525 91.4617 436.189 90.7151C435.862 89.9591 435.699 89.0724 435.699 88.0551C435.699 87.0377 435.862 86.1557 436.189 85.4091C436.525 84.6531 436.987 84.0744 437.575 83.6731C438.172 83.2717 438.849 83.0711 439.605 83.0711C440.361 83.0711 441.033 83.2717 441.621 83.6731C442.218 84.0744 442.685 84.6531 443.021 85.4091C443.357 86.1557 443.525 87.0377 443.525 88.0551C443.525 89.0724 443.357 89.9591 443.021 90.7151C442.685 91.4617 442.218 92.0357 441.621 92.4371C441.033 92.8384 440.361 93.0391 439.605 93.0391ZM439.605 92.1151C440.174 92.1151 440.673 91.9564 441.103 91.6391C441.541 91.3217 441.882 90.8597 442.125 90.2531C442.367 89.6464 442.489 88.9137 442.489 88.0551C442.489 87.1964 442.367 86.4637 442.125 85.8571C441.882 85.2504 441.541 84.7884 441.103 84.4711C440.673 84.1537 440.174 83.9951 439.605 83.9951C439.035 83.9951 438.531 84.1537 438.093 84.4711C437.663 84.7884 437.327 85.2504 437.085 85.8571C436.842 86.4637 436.721 87.1964 436.721 88.0551C436.721 88.9137 436.842 89.6464 437.085 90.2531C437.327 90.8597 437.663 91.3217 438.093 91.6391C438.531 91.9564 439.035 92.1151 439.605 92.1151ZM447.04 88.4051C446.378 88.4051 445.841 88.1624 445.43 87.6771C445.029 87.1824 444.828 86.5384 444.828 85.7451C444.828 84.9517 445.029 84.3124 445.43 83.8271C445.841 83.3324 446.378 83.0851 447.04 83.0851C447.694 83.0851 448.226 83.3277 448.636 83.8131C449.047 84.2984 449.252 84.9424 449.252 85.7451C449.252 86.5477 449.047 87.1917 448.636 87.6771C448.226 88.1624 447.694 88.4051 447.04 88.4051ZM452.976 83.1551H453.802L447.11 92.9551H446.284L452.976 83.1551ZM447.04 87.7751C447.498 87.7751 447.862 87.5977 448.132 87.2431C448.412 86.8791 448.552 86.3797 448.552 85.7451C448.552 85.1104 448.412 84.6157 448.132 84.2611C447.862 83.8971 447.498 83.7151 447.04 83.7151C446.574 83.7151 446.205 83.8971 445.934 84.2611C445.664 84.6251 445.528 85.1197 445.528 85.7451C445.528 86.3704 445.664 86.8651 445.934 87.2291C446.205 87.5931 446.574 87.7751 447.04 87.7751ZM453.046 93.0251C452.393 93.0251 451.861 92.7824 451.45 92.2971C451.04 91.8024 450.834 91.1584 450.834 90.3651C450.834 89.5717 451.04 88.9324 451.45 88.4471C451.861 87.9524 452.393 87.7051 453.046 87.7051C453.709 87.7051 454.241 87.9524 454.642 88.4471C455.053 88.9324 455.258 89.5717 455.258 90.3651C455.258 91.1584 455.053 91.8024 454.642 92.2971C454.241 92.7824 453.709 93.0251 453.046 93.0251ZM453.046 92.3951C453.513 92.3951 453.882 92.2131 454.152 91.8491C454.423 91.4851 454.558 90.9904 454.558 90.3651C454.558 89.7397 454.423 89.2451 454.152 88.8811C453.882 88.5171 453.513 88.3351 453.046 88.3351C452.589 88.3351 452.22 88.5171 451.94 88.8811C451.67 89.2357 451.534 89.7304 451.534 90.3651C451.534 90.9997 451.67 91.4991 451.94 91.8631C452.22 92.2177 452.589 92.3951 453.046 92.3951Z" fill="white"/>
<path d="M435.304 188.961C436.723 188.961 437.754 189.218 438.398 189.731C439.051 190.235 439.378 190.944 439.378 191.859C439.378 192.428 439.243 192.937 438.972 193.385C438.711 193.833 438.314 194.188 437.782 194.449C437.25 194.701 436.597 194.827 435.822 194.827C435.122 194.827 434.455 194.715 433.82 194.491C433.195 194.258 432.691 193.95 432.308 193.567L432.798 192.769C433.125 193.105 433.554 193.38 434.086 193.595C434.618 193.8 435.192 193.903 435.808 193.903C436.62 193.903 437.245 193.721 437.684 193.357C438.132 192.993 438.356 192.508 438.356 191.901C438.356 191.229 438.104 190.72 437.6 190.375C437.105 190.03 436.265 189.857 435.08 189.857H432.994L433.498 184.943H438.86V185.839H434.38L434.044 188.961H435.304ZM444.564 194.827C443.808 194.827 443.131 194.626 442.534 194.225C441.946 193.824 441.484 193.25 441.148 192.503C440.821 191.747 440.658 190.86 440.658 189.843C440.658 188.826 440.821 187.944 441.148 187.197C441.484 186.441 441.946 185.862 442.534 185.461C443.131 185.06 443.808 184.859 444.564 184.859C445.32 184.859 445.992 185.06 446.58 185.461C447.177 185.862 447.644 186.441 447.98 187.197C448.316 187.944 448.484 188.826 448.484 189.843C448.484 190.86 448.316 191.747 447.98 192.503C447.644 193.25 447.177 193.824 446.58 194.225C445.992 194.626 445.32 194.827 444.564 194.827ZM444.564 193.903C445.133 193.903 445.632 193.744 446.062 193.427C446.5 193.11 446.841 192.648 447.084 192.041C447.326 191.434 447.448 190.702 447.448 189.843C447.448 188.984 447.326 188.252 447.084 187.645C446.841 187.038 446.5 186.576 446.062 186.259C445.632 185.942 445.133 185.783 444.564 185.783C443.994 185.783 443.49 185.942 443.052 186.259C442.622 186.576 442.286 187.038 442.044 187.645C441.801 188.252 441.68 188.984 441.68 189.843C441.68 190.702 441.801 191.434 442.044 192.041C442.286 192.648 442.622 193.11 443.052 193.427C443.49 193.744 443.994 193.903 444.564 193.903ZM451.999 190.193C451.337 190.193 450.8 189.95 450.389 189.465C449.988 188.97 449.787 188.326 449.787 187.533C449.787 186.74 449.988 186.1 450.389 185.615C450.8 185.12 451.337 184.873 451.999 184.873C452.653 184.873 453.185 185.116 453.595 185.601C454.006 186.086 454.211 186.73 454.211 187.533C454.211 188.336 454.006 188.98 453.595 189.465C453.185 189.95 452.653 190.193 451.999 190.193ZM457.935 184.943H458.761L452.069 194.743H451.243L457.935 184.943ZM451.999 189.563C452.457 189.563 452.821 189.386 453.091 189.031C453.371 188.667 453.511 188.168 453.511 187.533C453.511 186.898 453.371 186.404 453.091 186.049C452.821 185.685 452.457 185.503 451.999 185.503C451.533 185.503 451.164 185.685 450.893 186.049C450.623 186.413 450.487 186.908 450.487 187.533C450.487 188.158 450.623 188.653 450.893 189.017C451.164 189.381 451.533 189.563 451.999 189.563ZM458.005 194.813C457.352 194.813 456.82 194.57 456.409 194.085C455.999 193.59 455.793 192.946 455.793 192.153C455.793 191.36 455.999 190.72 456.409 190.235C456.82 189.74 457.352 189.493 458.005 189.493C458.668 189.493 459.2 189.74 459.601 190.235C460.012 190.72 460.217 191.36 460.217 192.153C460.217 192.946 460.012 193.59 459.601 194.085C459.2 194.57 458.668 194.813 458.005 194.813ZM458.005 194.183C458.472 194.183 458.841 194.001 459.111 193.637C459.382 193.273 459.517 192.778 459.517 192.153C459.517 191.528 459.382 191.033 459.111 190.669C458.841 190.305 458.472 190.123 458.005 190.123C457.548 190.123 457.179 190.305 456.899 190.669C456.629 191.024 456.493 191.518 456.493 192.153C456.493 192.788 456.629 193.287 456.899 193.651C457.179 194.006 457.548 194.183 458.005 194.183Z" fill="white"/>
<path d="M441.058 310.125H439.098V312.701H438.09V310.125H432.56V309.397L437.754 302.901H438.874L433.862 309.229H438.118V306.961H439.098V309.229H441.058V310.125ZM445.89 312.785C445.134 312.785 444.457 312.585 443.86 312.183C443.272 311.782 442.81 311.208 442.474 310.461C442.147 309.705 441.984 308.819 441.984 307.801C441.984 306.784 442.147 305.902 442.474 305.155C442.81 304.399 443.272 303.821 443.86 303.419C444.457 303.018 445.134 302.817 445.89 302.817C446.646 302.817 447.318 303.018 447.906 303.419C448.503 303.821 448.97 304.399 449.306 305.155C449.642 305.902 449.81 306.784 449.81 307.801C449.81 308.819 449.642 309.705 449.306 310.461C448.97 311.208 448.503 311.782 447.906 312.183C447.318 312.585 446.646 312.785 445.89 312.785ZM445.89 311.861C446.459 311.861 446.959 311.703 447.388 311.385C447.827 311.068 448.167 310.606 448.41 309.999C448.653 309.393 448.774 308.66 448.774 307.801C448.774 306.943 448.653 306.21 448.41 305.603C448.167 304.997 447.827 304.535 447.388 304.217C446.959 303.9 446.459 303.741 445.89 303.741C445.321 303.741 444.817 303.9 444.378 304.217C443.949 304.535 443.613 304.997 443.37 305.603C443.127 306.21 443.006 306.943 443.006 307.801C443.006 308.66 443.127 309.393 443.37 309.999C443.613 310.606 443.949 311.068 444.378 311.385C444.817 311.703 445.321 311.861 445.89 311.861ZM453.325 308.151C452.663 308.151 452.126 307.909 451.715 307.423C451.314 306.929 451.113 306.285 451.113 305.491C451.113 304.698 451.314 304.059 451.715 303.573C452.126 303.079 452.663 302.831 453.325 302.831C453.979 302.831 454.511 303.074 454.921 303.559C455.332 304.045 455.537 304.689 455.537 305.491C455.537 306.294 455.332 306.938 454.921 307.423C454.511 307.909 453.979 308.151 453.325 308.151ZM459.261 302.901H460.087L453.395 312.701H452.569L459.261 302.901ZM453.325 307.521C453.783 307.521 454.147 307.344 454.417 306.989C454.697 306.625 454.837 306.126 454.837 305.491C454.837 304.857 454.697 304.362 454.417 304.007C454.147 303.643 453.783 303.461 453.325 303.461C452.859 303.461 452.49 303.643 452.219 304.007C451.949 304.371 451.813 304.866 451.813 305.491C451.813 306.117 451.949 306.611 452.219 306.975C452.49 307.339 452.859 307.521 453.325 307.521ZM459.331 312.771C458.678 312.771 458.146 312.529 457.735 312.043C457.325 311.549 457.119 310.905 457.119 310.111C457.119 309.318 457.325 308.679 457.735 308.193C458.146 307.699 458.678 307.451 459.331 307.451C459.994 307.451 460.526 307.699 460.927 308.193C461.338 308.679 461.543 309.318 461.543 310.111C461.543 310.905 461.338 311.549 460.927 312.043C460.526 312.529 459.994 312.771 459.331 312.771ZM459.331 312.141C459.798 312.141 460.167 311.959 460.437 311.595C460.708 311.231 460.843 310.737 460.843 310.111C460.843 309.486 460.708 308.991 460.437 308.627C460.167 308.263 459.798 308.081 459.331 308.081C458.874 308.081 458.505 308.263 458.225 308.627C457.955 308.982 457.819 309.477 457.819 310.111C457.819 310.746 457.955 311.245 458.225 311.609C458.505 311.964 458.874 312.141 459.331 312.141Z" fill="white"/>
<defs>
<filter id="filter0_d" x="0" y="0" width="610" height="418" filterUnits="userSpaceOnUse" color-interpolation-filters="sRGB">
<feFlood flood-opacity="0" result="BackgroundImageFix"/>
<feColorMatrix in="SourceAlpha" type="matrix" values="0 0 0 0 0 0 0 0 0 0 0 0 0 0 0 0 0 0 127 0"/>
<feOffset dy="4"/>
<feGaussianBlur stdDeviation="2"/>
<feColorMatrix type="matrix" values="0 0 0 0 0 0 0 0 0 0 0 0 0 0 0 0 0 0 0.25 0"/>
<feBlend mode="normal" in2="BackgroundImageFix" result="effect1_dropShadow"/>
<feBlend mode="normal" in="SourceGraphic" in2="effect1_dropShadow" result="shape"/>
</filter>
<linearGradient id="paint0_linear" x1="273" y1="101.786" x2="273" y2="125.568" gradientUnits="userSpaceOnUse">
<stop stop-color="#13171A"/>
<stop offset="1" stop-color="#13171A" stop-opacity="0"/>
</linearGradient>
<linearGradient id="paint1_linear" x1="273" y1="202.622" x2="273" y2="226.404" gradientUnits="userSpaceOnUse">
<stop stop-color="#13171A"/>
<stop offset="1" stop-color="#13171A" stop-opacity="0"/>
</linearGradient>
<linearGradient id="paint2_linear" x1="273" y1="316.775" x2="273" y2="340.557" gradientUnits="userSpaceOnUse">
<stop stop-color="#13171A"/>
<stop offset="1" stop-color="#13171A" stop-opacity="0"/>
</linearGradient>
<linearGradient id="paint3_linear" x1="226" y1="101.786" x2="226" y2="125.568" gradientUnits="userSpaceOnUse">
<stop stop-color="#219CF9"/>
<stop offset="1" stop-color="#593DE7"/>
</linearGradient>
<linearGradient id="paint4_linear" x1="199.5" y1="202.622" x2="199.5" y2="223.55" gradientUnits="userSpaceOnUse">
<stop stop-color="#219CF9"/>
<stop offset="1" stop-color="#593DE7"/>
</linearGradient>
<linearGradient id="paint5_linear" x1="172" y1="316.775" x2="172" y2="335.801" gradientUnits="userSpaceOnUse">
<stop stop-color="#219CF9"/>
<stop offset="1" stop-color="#593DE7"/>
</linearGradient>
</defs>
</svg>
