<svg width="161" height="20" viewBox="0 0 161 20" fill="none" xmlns="http://www.w3.org/2000/svg">
<g clip-path="url(#clip0)">
<path d="M19.9713 7.70552C19.9024 7.49337 19.7191 7.33876 19.4984 7.30673L13.2983 6.40576L10.5254 0.787538C10.4268 0.587539 10.223 0.460938 10 0.460938C9.77699 0.460938 9.57332 0.587539 9.47461 0.787538L6.70165 6.40576L0.501673 7.30673C0.28101 7.33876 0.0976117 7.49337 0.0287057 7.70548C-0.0402394 7.91763 0.0172604 8.15048 0.176986 8.30614L4.66322 12.6793L3.60432 18.8544C3.56658 19.0743 3.65697 19.2964 3.8374 19.4275C3.93947 19.5016 4.06037 19.5394 4.18186 19.5394C4.27514 19.5394 4.36873 19.5172 4.45443 19.4721L10 16.5565L15.5453 19.472C15.7428 19.5758 15.982 19.5586 16.1624 19.4275C16.3428 19.2964 16.4333 19.0742 16.3956 18.8543L15.3363 12.6793L19.8231 8.3061C19.9827 8.15048 20.0403 7.91763 19.9713 7.70552Z" fill="#FEA805"/>
</g>
<g clip-path="url(#clip1)">
<path d="M50.9713 7.70552C50.9024 7.49337 50.7191 7.33876 50.4984 7.30673L44.2983 6.40576L41.5254 0.787538C41.4268 0.587539 41.223 0.460938 41 0.460938C40.777 0.460938 40.5733 0.587539 40.4746 0.787538L37.7017 6.40576L31.5017 7.30673C31.281 7.33876 31.0976 7.49337 31.0287 7.70548C30.9598 7.91763 31.0173 8.15048 31.177 8.30614L35.6632 12.6793L34.6043 18.8544C34.5666 19.0743 34.657 19.2964 34.8374 19.4275C34.9395 19.5016 35.0604 19.5394 35.1819 19.5394C35.2751 19.5394 35.3687 19.5172 35.4544 19.4721L41 16.5565L46.5453 19.472C46.7428 19.5758 46.982 19.5586 47.1624 19.4275C47.3428 19.2964 47.4333 19.0742 47.3956 18.8543L46.3363 12.6793L50.8231 8.3061C50.9827 8.15048 51.0403 7.91763 50.9713 7.70552Z" fill="#FEA805"/>
</g>
<g clip-path="url(#clip2)">
<path d="M86.9713 7.70552C86.9024 7.49337 86.7191 7.33876 86.4984 7.30673L80.2983 6.40576L77.5254 0.787538C77.4268 0.587539 77.223 0.460938 77 0.460938C76.777 0.460938 76.5733 0.587539 76.4746 0.787538L73.7017 6.40576L67.5017 7.30673C67.281 7.33876 67.0976 7.49337 67.0287 7.70548C66.9598 7.91763 67.0173 8.15048 67.177 8.30614L71.6632 12.6793L70.6043 18.8544C70.5666 19.0743 70.657 19.2964 70.8374 19.4275C70.9395 19.5016 71.0604 19.5394 71.1819 19.5394C71.2751 19.5394 71.3687 19.5172 71.4544 19.4721L77 16.5565L82.5453 19.472C82.7428 19.5758 82.982 19.5586 83.1624 19.4275C83.3428 19.2964 83.4333 19.0742 83.3956 18.8543L82.3363 12.6793L86.8231 8.3061C86.9827 8.15048 87.0403 7.91763 86.9713 7.70552Z" fill="#FEA805"/>
</g>
<g clip-path="url(#clip3)">
<path d="M122.971 7.70552C122.902 7.49337 122.719 7.33876 122.498 7.30673L116.298 6.40576L113.525 0.787538C113.427 0.587539 113.223 0.460938 113 0.460938C112.777 0.460938 112.573 0.587539 112.475 0.787538L109.702 6.40576L103.502 7.30673C103.281 7.33876 103.098 7.49337 103.029 7.70548C102.96 7.91763 103.017 8.15048 103.177 8.30614L107.663 12.6793L106.604 18.8544C106.567 19.0743 106.657 19.2964 106.837 19.4275C106.939 19.5016 107.06 19.5394 107.182 19.5394C107.275 19.5394 107.369 19.5172 107.454 19.4721L113 16.5565L118.545 19.472C118.743 19.5758 118.982 19.5586 119.162 19.4275C119.343 19.2964 119.433 19.0742 119.396 18.8543L118.336 12.6793L122.823 8.3061C122.983 8.15048 123.04 7.91763 122.971 7.70552Z" fill="#FEA805"/>
</g>
<g clip-path="url(#clip4)">
<path d="M160.971 7.70552C160.902 7.49337 160.719 7.33876 160.498 7.30673L154.298 6.40576L151.525 0.787538C151.427 0.587539 151.223 0.460938 151 0.460938C150.777 0.460938 150.573 0.587539 150.475 0.787538L147.702 6.40576L141.502 7.30673C141.281 7.33876 141.098 7.49337 141.029 7.70548C140.96 7.91763 141.017 8.15048 141.177 8.30614L145.663 12.6793L144.604 18.8544C144.567 19.0743 144.657 19.2964 144.837 19.4275C144.939 19.5016 145.06 19.5394 145.182 19.5394C145.275 19.5394 145.369 19.5172 145.454 19.4721L151 16.5565L156.545 19.472C156.743 19.5758 156.982 19.5586 157.162 19.4275C157.343 19.2964 157.433 19.0742 157.396 18.8543L156.336 12.6793L160.823 8.3061C160.983 8.15048 161.04 7.91763 160.971 7.70552Z" fill="#FEA805"/>
</g>
<defs>
<clipPath id="clip0">
<rect width="20" height="20" fill="white"/>
</clipPath>
<clipPath id="clip1">
<rect width="20" height="20" fill="white" transform="translate(31)"/>
</clipPath>
<clipPath id="clip2">
<rect width="20" height="20" fill="white" transform="translate(67)"/>
</clipPath>
<clipPath id="clip3">
<rect width="20" height="20" fill="white" transform="translate(103)"/>
</clipPath>
<clipPath id="clip4">
<rect width="20" height="20" fill="white" transform="translate(141)"/>
</clipPath>
</defs>
</svg>
