<svg width="128" height="58" viewBox="0 0 128 58" fill="none" xmlns="http://www.w3.org/2000/svg">
<g clip-path="url(#clip0)">
<path d="M0 57.0543L9.09561 51.4316V17.3644L0 12.0724V57.0543Z" fill="#E6E7E8"/>
<path d="M0 12.0724L9.09561 17.3644L19.3488 11.0801V0.165405L0 12.0724Z" fill="#D3D5D6"/>
<path d="M19.3486 11.0801V0.165405L38.8628 11.907V33.2403L19.514 45.1473V34.2326L29.9326 27.9483V17.5297L19.3486 11.0801Z" fill="#939598"/>
<path d="M30.0981 17.3643L39.0284 11.907L19.5142 0V10.9147L30.0981 17.3643Z" fill="#BCBEC0"/>
<path d="M19.3489 11.0801L9.0957 17.3643L19.5143 23.8139L29.9329 17.5297L19.3489 11.0801Z" fill="#0089C5"/>
<path d="M19.5142 34.0671V23.8139L29.9328 17.5297L29.7674 27.7829L19.5142 34.0671Z" fill="#0070A2"/>
<path d="M9.0957 17.3644L19.5143 23.814V34.0672L9.0957 27.783V17.3644Z" fill="#27AAE1"/>
<path d="M48.7853 11.5763C50.1083 11.5763 51.762 11.5763 52.9196 12.4032C54.2426 13.23 54.5734 14.3877 54.5734 15.3799C54.5734 16.3722 54.2426 17.5298 52.9196 18.3567C51.762 19.0182 50.2736 19.1835 48.7853 19.1835H47.6277V22.6564H44.1548V11.5763H48.7853ZM47.6277 16.8683H48.9506C49.2814 16.8683 50.1083 16.8683 50.439 16.5375C50.9351 16.2068 50.9351 15.5453 50.9351 15.3799C50.9351 15.0492 50.9351 14.553 50.439 14.2223C49.9429 13.8915 49.2814 13.8915 48.9506 13.8915H47.6277V16.8683Z" fill="#939598" stroke="#6D6E71" stroke-width="0.25" stroke-miterlimit="10"/>
<path d="M61.1881 11.5763C62.5111 11.5763 63.8341 11.5763 64.8264 12.0724C65.8186 12.4032 66.8109 13.3954 66.8109 14.8838C66.8109 16.0414 66.1494 16.7029 65.6533 17.0337C65.3225 17.199 64.9918 17.5298 64.3303 17.6952C64.8264 17.8605 65.1571 18.0259 65.4879 18.6874L67.6378 22.6564H63.6688L62.5111 19.6797C62.3458 19.3489 62.1804 19.0182 62.015 18.8528C61.6843 18.522 61.3535 18.522 60.8574 18.522H59.5344V22.6564H56.0615V11.5763H61.1881ZM59.5344 16.3722H61.3535C61.8496 16.3722 62.3458 16.3722 62.6765 16.0414C63.0073 15.876 63.1726 15.3799 63.1726 15.0492C63.1726 14.553 63.0073 14.2223 62.6765 14.0569C62.3458 13.7262 61.6843 13.7262 61.3535 13.7262H59.5344V16.3722Z" fill="#939598" stroke="#6D6E71" stroke-width="0.25" stroke-miterlimit="10"/>
<path d="M72.9297 11.5763V22.6564H69.2915V11.5763H72.9297Z" fill="#939598" stroke="#6D6E71" stroke-width="0.25" stroke-miterlimit="10"/>
<path d="M78.2217 11.5763L80.8677 20.1758H81.1985L83.8445 11.5763H87.4827L83.6791 22.6564H78.3871L74.5835 11.5763H78.2217Z" fill="#939598" stroke="#6D6E71" stroke-width="0.25" stroke-miterlimit="10"/>
<path d="M97.2402 11.5763L101.375 22.6564H97.5709L96.744 20.1758H92.2789L91.4521 22.6564H87.6484L91.9482 11.5763H97.2402ZM93.1058 17.8605H96.0825L94.7595 13.7262H94.4288L93.1058 17.8605Z" fill="#939598" stroke="#6D6E71" stroke-width="0.25" stroke-miterlimit="10"/>
<path d="M114.439 18.1913C114.439 19.845 113.447 21.0026 112.62 21.6641C111.297 22.8217 109.478 22.9871 108.32 22.9871C106.501 22.9871 105.013 22.491 103.855 21.3334C102.532 20.0104 102.201 18.3566 102.201 17.199C102.201 15.876 102.532 14.2223 103.855 13.0646C105.013 11.907 106.666 11.4109 108.32 11.4109C110.635 11.4109 111.958 12.2378 112.62 12.7339C113.281 13.23 114.274 14.3876 114.439 16.0414H110.801C110.801 15.3799 110.47 14.8838 110.139 14.3876C109.808 14.0569 109.312 13.7261 108.32 13.7261C107.328 13.7261 106.666 14.0569 106.336 14.7184C105.839 15.3799 105.839 16.2068 105.839 17.0336C105.839 17.8605 105.839 18.6874 106.336 19.3489C106.832 20.0104 107.328 20.3411 108.32 20.3411C109.312 20.3411 109.808 20.0104 110.139 19.6796C110.47 19.3489 110.801 18.6874 110.801 18.0259H114.439V18.1913Z" fill="#939598" stroke="#6D6E71" stroke-width="0.25" stroke-miterlimit="10"/>
<path d="M119.069 11.5763L121.384 15.876L123.865 11.5763H127.669L123.204 18.1913V22.491H119.565V18.1913L115.266 11.5763H119.069Z" fill="#939598" stroke="#6D6E71" stroke-width="0.25" stroke-miterlimit="10"/>
<path d="M56.0621 32.9096V33.4057C56.0621 34.7287 55.8968 36.2171 54.7391 37.5401C53.2508 39.1938 51.2663 39.3592 49.7779 39.3592C48.2895 39.3592 46.6358 39.0284 45.1474 37.7054C43.659 36.3824 43.4937 34.8941 43.4937 33.5711C43.4937 32.2481 43.8244 30.5943 45.1474 29.4367C46.6358 28.1137 48.4549 27.783 49.7779 27.783C51.7624 27.783 53.0854 28.2791 53.9123 28.7752C54.9045 29.4367 55.7314 30.429 55.8968 31.9173H52.4239C52.4239 31.4212 52.2585 30.9251 51.9278 30.5943C51.4316 30.0982 50.7701 29.9328 49.9433 29.9328C48.951 29.9328 48.1241 30.429 47.7934 31.0905C47.628 31.4212 47.2973 32.0827 47.2973 33.4057C47.2973 34.2326 47.4626 35.0594 47.7934 35.7209C48.1241 36.3824 48.951 36.8786 50.1086 36.8786C50.9355 36.8786 51.597 36.5478 51.9278 36.2171C52.0931 36.0517 52.5893 35.5556 52.5893 34.5633H49.2818V32.5788H56.0621V32.9096Z" fill="#0070A2" stroke="#262262" stroke-width="0.25" stroke-miterlimit="10"/>
<path d="M62.8424 28.1136C64.1654 28.1136 65.4884 28.1136 66.4807 28.6098C67.4729 28.9405 68.4652 29.9328 68.4652 31.4211C68.4652 32.5788 67.8037 33.2403 67.3075 33.571C66.9768 33.7364 66.6461 34.0671 65.9846 34.2325C66.4807 34.3979 66.8114 34.5633 67.1422 35.2248L69.292 39.1937H65.3231L64.1654 36.217C64.0001 35.8863 63.8347 35.5555 63.6693 35.3901C63.3386 35.0594 63.0078 35.0594 62.5117 35.0594H61.1887V39.1937H57.7158V28.1136H62.8424ZM61.1887 32.9095H63.0078C63.5039 32.9095 64.0001 32.9095 64.3308 32.5788C64.6616 32.4134 64.8269 31.9173 64.8269 31.5865C64.8269 31.0904 64.6616 30.7596 64.3308 30.5943C64.0001 30.2635 63.3386 30.2635 63.0078 30.2635H61.1887V32.9095Z" fill="#0070A2" stroke="#262262" stroke-width="0.25" stroke-miterlimit="10"/>
<path d="M71.9383 29.2713C72.7651 28.6098 74.2535 27.783 76.5687 27.783C78.884 27.783 80.3724 28.6098 81.1992 29.2713C82.1915 30.0982 83.0184 31.4212 83.0184 33.5711C83.0184 35.7209 82.0261 37.0439 81.1992 37.8708C80.3724 38.5323 78.884 39.3592 76.5687 39.3592C74.2535 39.3592 72.7651 38.5323 71.9383 37.8708C70.946 37.0439 70.1191 35.7209 70.1191 33.5711C70.1191 31.4212 70.946 30.0982 71.9383 29.2713ZM74.4189 35.8863C74.7496 36.2171 75.2458 36.8786 76.5687 36.8786C77.8917 36.8786 78.5532 36.2171 78.7186 35.8863C79.0494 35.3902 79.3801 34.5633 79.3801 33.5711C79.3801 32.4134 79.2147 31.752 78.7186 31.2558C78.3879 30.9251 77.8917 30.2636 76.5687 30.2636C75.2458 30.2636 74.5843 30.9251 74.4189 31.2558C74.0881 31.752 73.7574 32.5788 73.7574 33.5711C73.7574 34.5633 73.9228 35.3902 74.4189 35.8863Z" fill="#0070A2" stroke="#262262" stroke-width="0.25" stroke-miterlimit="10"/>
<path d="M87.9796 28.1136V34.0671C87.9796 34.7286 87.9796 35.3901 88.3103 36.0516C88.6411 36.7131 89.4679 36.8785 90.1294 36.8785C90.6255 36.8785 91.4524 36.8785 91.9485 36.0516C92.2793 35.5555 92.2793 34.894 92.2793 34.0671V28.1136H95.9175V33.9018C95.9175 35.5555 95.7522 37.0439 94.2638 38.2015C93.1062 39.1938 91.4524 39.3591 90.1294 39.3591C88.8064 39.3591 87.3181 39.1938 85.9951 38.2015C84.5067 36.8785 84.3413 35.3901 84.3413 33.9018V28.1136H87.9796Z" fill="#0070A2" stroke="#262262" stroke-width="0.25" stroke-miterlimit="10"/>
<path d="M102.532 28.1136C103.855 28.1136 105.509 28.1136 106.667 28.9405C107.99 29.7674 108.32 30.925 108.32 31.9173C108.32 32.9095 107.99 34.0671 106.667 34.894C105.509 35.5555 104.021 35.7209 102.532 35.7209H101.375V39.1937H97.9019V28.1136H102.532ZM101.375 33.4056H102.698C103.028 33.4056 103.855 33.4056 104.186 33.0749C104.682 32.7441 104.682 32.0826 104.682 31.9173C104.682 31.5865 104.682 31.0904 104.186 30.7596C103.69 30.4289 103.028 30.4289 102.698 30.4289H101.375V33.4056Z" fill="#0070A2" stroke="#262262" stroke-width="0.25" stroke-miterlimit="10"/>
</g>
<defs>
<clipPath id="clip0">
<rect width="128" height="57.0543" fill="white"/>
</clipPath>
</defs>
</svg>
