<svg width="25" height="25" viewBox="0 0 25 25" fill="none" xmlns="http://www.w3.org/2000/svg">
<g clip-path="url(#clip0)">
<path d="M22.0692 16.6948C21.3972 18.516 20.381 20.0994 19.0483 21.4008C17.5314 22.8821 15.5451 24.0591 13.1445 24.8987C13.0657 24.9262 12.9835 24.9487 12.9009 24.9653C12.7918 24.9868 12.6808 24.9985 12.5708 25H12.5492C12.4319 25 12.314 24.9882 12.1971 24.9653C12.1145 24.9487 12.0335 24.9262 11.9551 24.8993C9.55162 24.061 7.56283 22.8845 6.04439 21.4033C4.71115 20.1019 3.6951 18.5194 3.0241 16.6983C1.80396 13.3871 1.87339 9.73948 1.92928 6.80827L1.93023 6.76325C1.94148 6.52121 1.94873 6.26696 1.95274 5.9862C1.97315 4.60776 3.06911 3.46736 4.44774 3.39049C7.32212 3.23008 9.54571 2.29262 11.4456 0.440775L11.4622 0.425516C11.7777 0.136171 12.1752 -0.00573542 12.5708 0.000177388C12.9522 0.00513651 13.3322 0.146852 13.6364 0.425516L13.6526 0.440775C15.5529 2.29262 17.7765 3.23008 20.6509 3.39049C22.0295 3.46736 23.1255 4.60776 23.1459 5.9862C23.1499 6.26887 23.1571 6.52274 23.1684 6.76325L23.169 6.78233C23.2247 9.71907 23.2937 13.3739 22.0692 16.6948Z" fill="#FF816C"/>
<path d="M22.0692 16.6949C21.3973 18.516 20.381 20.0995 19.0484 21.4009C17.5314 22.8822 15.5451 24.0592 13.1445 24.8988C13.0658 24.9263 12.9836 24.9488 12.901 24.9654C12.7919 24.9869 12.6809 24.9985 12.5708 25.0001V0.000244141C12.9523 0.00520326 13.3322 0.146919 13.6364 0.425583L13.6527 0.440842C15.5529 2.29269 17.7765 3.23015 20.6509 3.39056C22.0296 3.46743 23.1255 4.60783 23.1459 5.98627C23.1499 6.26894 23.1572 6.52281 23.1684 6.76333L23.169 6.7824C23.2247 9.71915 23.2937 13.374 22.0692 16.6949Z" fill="#EF3E35"/>
<path d="M18.7794 12.5001C18.7794 15.9282 15.996 18.7186 12.5708 18.7308H12.5489C9.11353 18.7308 6.31812 15.9356 6.31812 12.5001C6.31812 9.06476 9.11353 6.26953 12.5489 6.26953H12.5708C15.996 6.28174 18.7794 9.07219 18.7794 12.5001Z" fill="white"/>
<path d="M18.7794 12.5001C18.7794 15.9282 15.996 18.7186 12.5708 18.7308V6.26953C15.996 6.28174 18.7794 9.07219 18.7794 12.5001Z" fill="#E1EBF0"/>
<path d="M14.7961 13.8346C15.0823 14.1207 15.0823 14.5853 14.7961 14.8718C14.6529 15.0151 14.465 15.0866 14.2773 15.0866C14.0895 15.0866 13.9018 15.0151 13.7584 14.8718L12.571 13.6841L11.3833 14.8718C11.2399 15.0151 11.0522 15.0866 10.8643 15.0866C10.6767 15.0866 10.4894 15.0151 10.3461 14.8718C10.0594 14.5853 10.0594 14.1207 10.3461 13.8346L11.5334 12.6469L10.3461 11.459C10.0594 11.1729 10.0594 10.7083 10.3461 10.4218C10.632 10.1351 11.0967 10.1351 11.3833 10.4218L12.571 11.6097L13.7584 10.4218C14.045 10.1351 14.5097 10.1351 14.7961 10.4218C15.0823 10.7083 15.0823 11.1729 14.7961 11.459L13.6083 12.6469L14.7961 13.8346Z" fill="#B4D2D7"/>
<path d="M14.7959 13.8346C15.082 14.1207 15.082 14.5853 14.7959 14.8718C14.6527 15.0151 14.4648 15.0866 14.2771 15.0866C14.0893 15.0866 13.9016 15.0151 13.7581 14.8718L12.5708 13.6841V11.6097L13.7581 10.4218C14.0448 10.1351 14.5094 10.1351 14.7959 10.4218C15.082 10.7083 15.082 11.1729 14.7959 11.459L13.608 12.6469L14.7959 13.8346Z" fill="#6FA5AA"/>
</g>
<defs>
<clipPath id="clip0">
<rect width="25" height="25" fill="white"/>
</clipPath>
</defs>
</svg>
