<svg width="165" height="48" viewBox="0 0 165 48" fill="none" xmlns="http://www.w3.org/2000/svg">
<path d="M62.988 13.8H68.82V39H62.988V13.8ZM74.8005 13.8H86.2485C88.9845 13.8 91.3965 14.328 93.4845 15.384C95.5965 16.416 97.2285 17.88 98.3805 19.776C99.5565 21.672 100.145 23.88 100.145 26.4C100.145 28.92 99.5565 31.128 98.3805 33.024C97.2285 34.92 95.5965 36.396 93.4845 37.452C91.3965 38.484 88.9845 39 86.2485 39H74.8005V13.8ZM85.9605 34.212C88.4805 34.212 90.4845 33.516 91.9725 32.124C93.4845 30.708 94.2405 28.8 94.2405 26.4C94.2405 24 93.4845 22.104 91.9725 20.712C90.4845 19.296 88.4805 18.588 85.9605 18.588H80.6325V34.212H85.9605ZM123.119 29.388C123.119 29.46 123.083 29.964 123.011 30.9H108.359C108.623 32.1 109.247 33.048 110.231 33.744C111.215 34.44 112.439 34.788 113.903 34.788C114.911 34.788 115.799 34.644 116.567 34.356C117.359 34.044 118.091 33.564 118.763 32.916L121.751 36.156C119.927 38.244 117.263 39.288 113.759 39.288C111.575 39.288 109.643 38.868 107.963 38.028C106.283 37.164 104.987 35.976 104.075 34.464C103.163 32.952 102.707 31.236 102.707 29.316C102.707 27.42 103.151 25.716 104.039 24.204C104.951 22.668 106.187 21.48 107.747 20.64C109.331 19.776 111.095 19.344 113.039 19.344C114.935 19.344 116.651 19.752 118.187 20.568C119.723 21.384 120.923 22.56 121.787 24.096C122.675 25.608 123.119 27.372 123.119 29.388ZM113.075 23.592C111.803 23.592 110.735 23.952 109.871 24.672C109.007 25.392 108.479 26.376 108.287 27.624H117.827C117.635 26.4 117.107 25.428 116.243 24.708C115.379 23.964 114.323 23.592 113.075 23.592ZM138.63 19.344C141.03 19.344 142.962 20.064 144.426 21.504C145.914 22.944 146.658 25.08 146.658 27.912V39H141.042V28.776C141.042 27.24 140.706 26.1 140.034 25.356C139.362 24.588 138.39 24.204 137.118 24.204C135.702 24.204 134.574 24.648 133.734 25.536C132.894 26.4 132.474 27.696 132.474 29.424V39H126.858V19.632H132.222V21.9C132.966 21.084 133.89 20.46 134.994 20.028C136.098 19.572 137.31 19.344 138.63 19.344ZM164.24 38.064C163.688 38.472 163.004 38.784 162.188 39C161.396 39.192 160.556 39.288 159.668 39.288C157.364 39.288 155.576 38.7 154.304 37.524C153.056 36.348 152.432 34.62 152.432 32.34V24.384H149.444V20.064H152.432V15.348H158.048V20.064H162.872V24.384H158.048V32.268C158.048 33.084 158.252 33.72 158.66 34.176C159.092 34.608 159.692 34.824 160.46 34.824C161.348 34.824 162.104 34.584 162.728 34.104L164.24 38.064Z" fill="url(#paint0_linear)"/>
<path d="M48.5685 18.436C48.4975 15.9095 46.7458 14.0171 44.314 12.9288C41.8911 11.8279 38.9107 11.4249 36.0661 11.4216C33.677 11.4244 31.3768 11.709 29.4935 12.2083C27.6095 11.7081 25.3085 11.4249 22.9181 11.4216C20.0755 11.4249 17.0945 11.8279 14.6716 12.9288C12.2391 14.0166 10.486 15.9095 10.4157 18.436V18.4463C10.4109 18.6018 10.4088 18.7596 10.406 18.9226C10.375 22.0278 11.725 23.7055 12.8737 25.0634C13.988 26.4415 14.9321 27.5251 14.9631 30.4663C14.9686 34.4578 15.9182 37.0012 17.3253 38.6399C18.709 40.2669 20.6778 40.9724 22.3337 40.9724H22.3633C22.8278 40.9724 23.2619 40.9226 23.6678 40.8212C24.288 40.6685 24.7586 40.3416 25.0233 40.0236C25.2948 39.7005 25.4333 39.3731 25.5332 39.0354C25.7261 38.36 25.7585 37.6118 25.7895 36.7827C25.8412 35.1336 25.8722 33.1872 26.6027 31.5381C26.9093 30.8303 27.2856 30.0802 27.7838 29.5772C28.291 29.0877 28.7093 28.8581 29.4928 28.7979C30.2763 28.8581 30.6925 29.0877 31.201 29.5772C31.6979 30.0797 32.0748 30.8303 32.3808 31.5381C33.3524 33.7128 33.0692 36.3563 33.2932 38.2435C33.3862 38.8846 33.4958 39.4567 33.9616 40.0236C34.2262 40.3421 34.6955 40.6685 35.3267 40.8231C35.7202 40.9203 36.1564 40.9724 36.6208 40.9724C38.2829 40.9804 40.2676 40.2768 41.6602 38.6399C43.066 37.0012 44.0135 34.4578 44.0204 30.4663C44.0521 27.5251 44.9955 26.4415 46.1104 25.0634C47.2571 23.7069 48.6133 22.0278 48.5788 18.9226C48.5795 18.761 48.5747 18.599 48.5685 18.436ZM43.5628 24.0836C42.3962 25.4622 41.0621 27.2122 41.0931 30.4663C41.0993 34.2431 40.1601 36.4563 39.1374 37.6277C38.1017 38.8038 37.1197 38.9692 36.6215 38.9776C36.5588 38.9776 36.503 38.9739 36.4554 38.9692C36.4182 38.9076 36.3631 38.7963 36.3238 38.646C36.197 38.2294 36.1474 37.5408 36.1212 36.7344C36.0585 35.1116 36.0723 32.9932 35.1854 30.9656C34.8574 30.2282 34.4488 29.308 33.6398 28.472C32.8618 27.6411 31.4643 26.8642 29.583 26.7999L29.4928 26.797L29.4046 26.7999C27.5233 26.8642 26.1251 27.6411 25.3478 28.472C24.5395 29.3076 24.1302 30.2277 23.8015 30.9656C22.6417 33.6292 23.0035 36.4944 22.7733 38.0918C22.7272 38.5239 22.6059 38.8466 22.5315 38.9696C22.4846 38.9743 22.4281 38.9781 22.3647 38.9781C21.8679 38.9696 20.8831 38.8043 19.8481 37.6282C18.8269 36.4554 17.8869 34.2436 17.8938 30.4668C17.9248 27.2146 16.5893 25.4626 15.4261 24.085C14.2953 22.6886 13.3692 21.6924 13.3354 18.9231C13.3354 18.7897 13.3395 18.645 13.3437 18.4891C13.4464 16.5281 14.5772 15.398 16.302 14.5873C17.6168 13.9809 19.3444 13.6207 21.1622 13.4826L24.2329 13.4549C26.0156 13.5488 27.6915 13.8255 28.8919 14.1979L29.4948 14.383L30.095 14.1989C31.5918 13.7358 33.8141 13.414 36.0682 13.4168C38.5 13.414 40.9539 13.7874 42.6863 14.5864C44.4125 15.398 45.5412 16.5272 45.6439 18.4905C45.6508 18.6422 45.6549 18.7873 45.6549 18.9231C45.6184 21.6924 44.6943 22.6877 43.5628 24.0836Z" fill="url(#paint1_linear)"/>
<path d="M19.7717 8.16374C14.2258 8.16374 9.88654 4.92942 9.88654 0.795166C9.88654 4.92942 5.54796 8.16374 0 8.16374C5.54796 8.16374 9.88654 11.3971 9.88654 15.5328C9.88723 11.3971 14.2265 8.16374 19.7717 8.16374Z" fill="url(#paint2_linear)"/>
<path d="M22.4261 8.17974C22.4261 5.88434 25.0495 4.08963 28.4026 4.08963C25.0495 4.08963 22.4261 2.29446 22.4261 0C22.4261 2.29446 19.804 4.08963 16.4502 4.08963C19.804 4.08963 22.4261 5.88481 22.4261 8.17974Z" fill="url(#paint3_linear)"/>
<defs>
<linearGradient id="paint0_linear" x1="112.5" y1="4" x2="112.5" y2="48" gradientUnits="userSpaceOnUse">
<stop stop-color="#57AEFE"/>
<stop offset="1" stop-color="white"/>
</linearGradient>
<linearGradient id="paint1_linear" x1="29.4925" y1="11.4216" x2="29.4925" y2="40.9725" gradientUnits="userSpaceOnUse">
<stop stop-color="#57AEFE"/>
<stop offset="1" stop-color="white"/>
</linearGradient>
<linearGradient id="paint2_linear" x1="9.88585" y1="0.795166" x2="9.88585" y2="15.5328" gradientUnits="userSpaceOnUse">
<stop stop-color="#57AEFE"/>
<stop offset="1" stop-color="white"/>
</linearGradient>
<linearGradient id="paint3_linear" x1="22.4264" y1="0" x2="22.4264" y2="8.17974" gradientUnits="userSpaceOnUse">
<stop stop-color="#57AEFE"/>
<stop offset="1" stop-color="white"/>
</linearGradient>
</defs>
</svg>
