<svg width="25" height="25" viewBox="0 0 25 25" fill="none" xmlns="http://www.w3.org/2000/svg">
<g clip-path="url(#clip0)">
<path d="M22.0692 16.6948C21.3972 18.516 20.381 20.0994 19.0483 21.4008C17.5314 22.8821 15.5451 24.0591 13.1445 24.8987C13.0657 24.9262 12.9835 24.9487 12.9009 24.9653C12.7918 24.9868 12.6808 24.9985 12.5708 25H12.5492C12.4319 25 12.314 24.9882 12.1971 24.9653C12.1145 24.9487 12.0335 24.9262 11.9551 24.8993C9.55162 24.061 7.56283 22.8845 6.04438 21.4033C4.71115 20.1019 3.6951 18.5194 3.0241 16.6983C1.80396 13.3871 1.87339 9.73948 1.92928 6.80827L1.93023 6.76325C1.94148 6.52121 1.94873 6.26696 1.95274 5.9862C1.97315 4.60776 3.06911 3.46736 4.44774 3.39049C7.32212 3.23008 9.54571 2.29262 11.4456 0.440775L11.4622 0.425516C11.7777 0.136171 12.1752 -0.00573542 12.5708 0.000177388C12.9522 0.00513651 13.3322 0.146852 13.6364 0.425516L13.6526 0.440775C15.5529 2.29262 17.7765 3.23008 20.6509 3.39049C22.0295 3.46736 23.1255 4.60776 23.1459 5.9862C23.1499 6.26887 23.1571 6.52274 23.1684 6.76325L23.169 6.78233C23.2247 9.71907 23.2937 13.3739 22.0692 16.6948Z" fill="#147FF1"/>
<path d="M22.0692 16.6949C21.3973 18.516 20.381 20.0995 19.0484 21.4009C17.5314 22.8822 15.5451 24.0592 13.1445 24.8988C13.0658 24.9263 12.9836 24.9488 12.901 24.9654C12.7919 24.9869 12.6809 24.9985 12.5708 25.0001V0.000244141C12.9523 0.00520326 13.3322 0.146919 13.6364 0.425583L13.6527 0.440842C15.5529 2.29269 17.7765 3.23015 20.6509 3.39056C22.0296 3.46743 23.1255 4.60783 23.1459 5.98627C23.1499 6.26894 23.1572 6.52281 23.1684 6.76333L23.169 6.7824C23.2247 9.71915 23.2937 13.374 22.0692 16.6949Z" fill="#0038B8"/>
<path d="M18.7794 12.5001C18.7794 15.9282 15.996 18.7186 12.5708 18.7308H12.5489C9.11353 18.7308 6.31812 15.9356 6.31812 12.5001C6.31812 9.06476 9.11353 6.26953 12.5489 6.26953H12.5708C15.996 6.28174 18.7794 9.07219 18.7794 12.5001Z" fill="white"/>
<path d="M18.7794 12.5001C18.7794 15.9282 15.996 18.7186 12.5708 18.7308V6.26953C15.996 6.28174 18.7794 9.07219 18.7794 12.5001Z" fill="#E1EBF0"/>
<path d="M15.3767 11.6028L12.5706 14.4093L11.9643 15.0156C11.821 15.1589 11.6332 15.2304 11.4455 15.2304C11.2576 15.2304 11.0699 15.1589 10.9265 15.0156L9.62282 13.7114C9.33634 13.4249 9.33634 12.9608 9.62282 12.6742C9.90892 12.3877 10.3736 12.3877 10.66 12.6742L11.4455 13.4596L14.3395 10.5656C14.626 10.2789 15.0906 10.2789 15.3767 10.5656C15.6632 10.8521 15.6632 11.3167 15.3767 11.6028Z" fill="#B4D2D7"/>
<path d="M15.3769 11.6028L12.5708 14.4093V12.3343L14.3397 10.5656C14.6261 10.2789 15.0908 10.2789 15.3769 10.5656C15.6634 10.8521 15.6634 11.3167 15.3769 11.6028Z" fill="#6FA5AA"/>
</g>
<defs>
<clipPath id="clip0">
<rect width="25" height="25" fill="white"/>
</clipPath>
</defs>
</svg>
