<svg width="64" height="64" viewBox="0 0 64 64" fill="none" xmlns="http://www.w3.org/2000/svg">
<g clip-path="url(#clip0)">
<path d="M58.8379 14.9834V14.9972C58.8354 15.0234 58.8241 15.0497 58.8041 15.0709C56.6503 17.2672 55.4441 20.2209 55.4441 23.2972V36.1423L45.8004 36.101L29.5004 36.031L25.5254 36.0135L7.01285 35.9348V25.8247C6.95035 23.0134 7.0791 13.102 14.2479 6.2008C15.0366 5.44205 15.8679 4.7608 16.7366 4.1533C16.8279 4.08955 16.9204 4.02455 17.0154 3.96205C19.3866 2.3583 22.0204 1.28955 24.7716 0.670797C31.6404 -0.876703 39.2466 0.382047 45.3641 3.12705C45.6754 3.2658 45.6666 3.7108 45.3516 3.8408L42.8554 4.86705C42.4828 5.0208 42.5616 5.56955 42.9629 5.61205L44.1741 5.74205C50.6954 6.4383 56.1191 10.3233 58.8241 14.9295C58.8329 14.9458 58.8366 14.9645 58.8366 14.9833C58.8379 14.9834 58.8379 14.9834 58.8379 14.9834Z" fill="#823931"/>
<path d="M58.8379 14.9834V14.9972C58.8354 15.0234 58.8241 15.0497 58.8041 15.0709C56.6504 17.2672 55.4441 20.2209 55.4441 23.2972V36.1423L45.8004 36.101L29.5004 36.031C23.3854 28.526 18.9766 22.4334 20.7791 22.4334C26.8391 22.4334 35.5041 26.0509 41.1941 26.0509C47.6416 26.0509 50.8666 23.9222 50.8666 23.9222C50.8666 20.8459 52.1516 17.7634 54.3054 15.5672C51.6004 10.9609 46.1179 7.06342 39.5966 6.36705L38.3854 6.23705C37.9841 6.19455 37.9054 5.6458 38.2779 5.49205L40.7741 4.4658C41.0891 4.3358 41.0979 3.8908 40.7866 3.75205C36.0041 1.6058 30.3104 0.368297 24.7716 0.670797C31.6404 -0.876703 39.2466 0.382047 45.3641 3.12705C45.6754 3.2658 45.6666 3.7108 45.3516 3.8408L42.8554 4.86705C42.4829 5.0208 42.5616 5.56955 42.9629 5.61205L44.1741 5.74205C50.6954 6.4383 56.1191 10.3233 58.8241 14.9295C58.8329 14.9458 58.8366 14.9645 58.8366 14.9833C58.8379 14.9834 58.8379 14.9834 58.8379 14.9834Z" fill="#6D201B"/>
<path d="M25.5254 23.3423V36.0137L7.01285 35.9349V25.8248C6.95035 23.0136 7.0791 13.1022 14.2479 6.20094C15.0366 5.44219 15.8679 4.76094 16.7366 4.15344C9.31785 9.42219 14.8916 19.5197 25.5254 23.3423Z" fill="#AA5D57"/>
<path d="M58.8379 14.9834V14.9971C58.8354 15.0234 58.8241 15.0496 58.8041 15.0709C56.6504 17.2671 55.4441 20.2209 55.4441 23.2971V36.1423L45.8004 36.101V28.2585C45.8004 28.2585 45.7479 27.171 45.9929 25.6173C46.4979 22.4323 48.2579 17.2898 54.3054 15.5673C55.6066 15.1959 57.1079 14.9834 58.8379 14.9834Z" fill="#AA5D57"/>
<path d="M58.8379 14.9834V14.9971C58.8354 15.0234 58.8241 15.0496 58.8041 15.0709C56.6504 17.2671 55.4441 20.2209 55.4441 23.2971V36.1423L45.8004 36.101V28.2585C45.8004 28.2585 45.7479 27.171 45.9929 25.6173C49.2416 24.9948 50.8666 23.9223 50.8666 23.9223C50.8666 20.846 52.1516 17.7635 54.3054 15.5673C55.6066 15.1959 57.1079 14.9834 58.8379 14.9834Z" fill="#823931"/>
<path d="M11.7056 42.002C11.2772 42.1161 10.8272 42.177 10.3629 42.177C7.49049 42.177 5.16187 39.8484 5.16187 36.976C5.16187 34.1036 7.49049 31.775 10.3629 31.775C10.8702 31.775 11.3607 31.8477 11.8244 31.9832L11.7056 42.002Z" fill="#FAB684"/>
<path d="M50.6441 42.0354C51.0326 42.128 51.4381 42.1772 51.8549 42.1772C54.7273 42.1772 57.0559 39.8485 57.0559 36.9762C57.0559 34.1038 54.7274 31.775 51.8551 31.775C51.3477 31.775 50.8572 31.8477 50.3936 31.9832L50.6441 42.0354Z" fill="#FAB684"/>
<path d="M51.1879 44.2675C51.1879 49.0325 47.1304 54.7263 39.1229 61.1926C36.8791 63.0138 34.0716 64.0076 31.1766 64.0001C30.7704 64.0013 30.3654 63.9813 29.9641 63.9426C27.5004 63.7101 25.1516 62.7563 23.2204 61.1876C15.2191 54.7238 11.1616 49.0312 11.1616 44.2675C11.1616 43.7612 11.1804 43.255 11.2241 42.7687C11.2754 42.2437 11.3954 41.265 11.4304 39.995C11.4279 37.795 11.4104 35.9187 11.3966 34.3062C11.3904 33.5462 11.3841 32.845 11.3804 32.1962C11.3404 26.0237 17.0616 21.1986 23.3691 22.7086C29.0154 24.0623 30.9754 26.7711 37.8954 28.2723C41.8291 29.1261 45.5704 28.4911 48.7791 27.5048C49.8004 27.1911 50.8316 27.9573 50.8329 29.0248C50.8341 30.7136 50.8304 33.8561 50.8304 39.87C50.8529 41.1362 51.0754 42.24 51.1266 42.7562C51.1679 43.255 51.1879 43.7612 51.1879 44.2675Z" fill="#FFE8C8"/>
<path d="M11.3803 34.8206C11.3812 34.9641 11.3821 34.8492 11.3832 34.5129C11.3807 34.6151 11.3797 34.7177 11.3803 34.8206Z" fill="#FFE8C8"/>
<path d="M51.1886 44.2675C51.1886 49.0325 47.1311 54.7263 39.1236 61.1926C36.8798 63.0138 34.0723 64.0076 31.1773 64.0001C30.7711 64.0013 30.3661 63.9813 29.9648 63.9426C32.0761 63.5801 34.0698 62.6813 35.7486 61.3176C43.7561 54.8513 47.8136 49.1575 47.8136 44.3925C47.8136 43.8862 47.7936 43.38 47.7523 42.8812C47.7011 42.365 47.4786 41.2612 47.4561 39.995C47.4561 37.4275 47.4561 35.3837 47.4573 33.7525C47.4573 32.1937 46.0786 31.005 44.5348 31.22C42.4336 31.5125 40.1973 31.5225 37.8961 31.0225C30.9761 29.5212 29.0161 26.8125 23.3698 25.4587C17.2811 24.0012 11.7398 28.4462 11.3973 34.3062C11.3911 33.5462 11.3848 32.845 11.3811 32.1962C11.3411 26.0237 17.0623 21.1986 23.3698 22.7086C29.0161 24.0623 30.9761 26.7711 37.8961 28.2723C41.8298 29.1261 45.5711 28.4911 48.7798 27.5048C49.8011 27.1911 50.8323 27.9573 50.8336 29.0248C50.8348 30.7136 50.8311 33.8561 50.8311 39.87C50.8536 41.1362 51.0761 42.24 51.1273 42.7562C51.1686 43.255 51.1886 43.7612 51.1886 44.2675Z" fill="#FDD9B4"/>
<path d="M31.1078 43.2197C29.5285 43.2197 28.2437 44.5046 28.2437 46.0839C28.2437 46.6016 28.6634 47.0214 29.1812 47.0214C29.6989 47.0214 30.1186 46.6016 30.1186 46.0839C30.1186 45.5385 30.5624 45.0947 31.1078 45.0947C31.6533 45.0947 32.097 45.5385 32.097 46.0839C32.097 46.6016 32.5168 47.0214 33.0345 47.0214C33.5523 47.0214 33.972 46.6016 33.972 46.0839C33.9719 44.5046 32.687 43.2197 31.1078 43.2197Z" fill="#FAB684"/>
<path d="M38.6341 49.0203C38.1831 48.7666 37.6113 48.9265 37.3572 49.3775C36.0879 51.6326 33.6933 53.0336 31.1079 53.0336C28.5226 53.0336 26.1279 51.6326 24.8587 49.3775C24.6047 48.9263 24.0332 48.7663 23.5818 49.0203C23.1307 49.2743 22.9707 49.846 23.2247 50.2972C24.8256 53.1417 27.8463 54.9086 31.1079 54.9086C34.3697 54.9086 37.3903 53.1416 38.9912 50.2972C39.2452 49.846 39.0852 49.2743 38.6341 49.0203Z" fill="#FAB684"/>
<path d="M28.6648 37.3098C28.6648 38.8964 27.7402 40.3003 26.3278 41.1434C25.4453 41.6718 24.3731 41.9809 23.2151 41.9809C20.2063 41.9809 17.7668 39.8884 17.7668 37.3097C17.7668 34.7296 20.2065 32.6384 23.2151 32.6384C24.3506 32.6384 25.4045 32.9363 26.2772 33.4464C27.7191 34.2857 28.6648 35.7036 28.6648 37.3098Z" fill="white"/>
<path d="M28.665 37.3098C28.665 38.8964 27.7403 40.3003 26.328 41.1434C24.2833 41.0493 22.6531 39.3615 22.6531 37.2929C22.6531 35.2412 24.2565 33.5647 26.2773 33.4467C27.7192 34.2857 28.665 35.7035 28.665 37.3098Z" fill="#003343"/>
<path d="M44.4488 37.3098C44.4488 38.8964 43.5242 40.3003 42.1118 41.1434C41.2293 41.6718 40.157 41.9809 38.999 41.9809C35.9903 41.9809 33.5508 39.8884 33.5508 37.3097C33.5508 34.7296 35.9904 32.6384 38.999 32.6384C40.1345 32.6384 41.1885 32.9363 42.0612 33.4464C43.503 34.2857 44.4488 35.7036 44.4488 37.3098Z" fill="white"/>
<path d="M44.4489 37.3098C44.4489 38.8964 43.5243 40.3003 42.1119 41.1434C40.0673 41.0493 38.437 39.3615 38.437 37.2929C38.437 35.2412 40.0404 33.5647 42.0613 33.4467C43.5031 34.2857 44.4489 35.7035 44.4489 37.3098Z" fill="#003343"/>
</g>
<defs>
<clipPath id="clip0">
<rect width="64" height="64" fill="white"/>
</clipPath>
</defs>
</svg>
